<svg width="17" height="20" viewBox="0 0 17 20" fill="none" xmlns="http://www.w3.org/2000/svg">
<path fill-rule="evenodd" clip-rule="evenodd" d="M2.43487 0.275358C2.5374 0.205114 2.69118 0.112391 2.77661 0.0730542C2.86204 0.0337173 2.96741 0 3.01298 0C3.0557 0 3.14113 0.025288 3.20378 0.0561956C3.26643 0.0871031 3.33478 0.140489 3.35756 0.177016C3.38035 0.210733 3.51419 0.536668 3.65658 0.899129C3.79612 1.26159 4.05812 1.93875 4.23753 2.40236C4.26693 2.47832 4.29846 2.55978 4.33125 2.64447C4.49858 3.07673 4.69849 3.59316 4.81279 3.89154C4.94949 4.24838 5.18585 4.86092 5.33964 5.25428C5.49342 5.64765 5.73833 6.28266 5.88357 6.66479C6.03165 7.04973 6.15696 7.36162 6.1655 7.36162C6.17404 7.36162 6.27087 7.1256 6.38478 6.83619C6.45372 6.6548 6.55998 6.38029 6.66403 6.11147L6.66434 6.11068L6.66443 6.11043L6.66446 6.11037C6.72788 5.94651 6.79047 5.78481 6.84328 5.64765C6.88229 5.54633 6.93309 5.41449 6.99071 5.26495L6.99407 5.25623L6.99411 5.25612C7.14217 4.8719 7.33418 4.3736 7.48688 3.97584C7.59157 3.70674 7.74157 3.31865 7.90142 2.90506L7.90161 2.90455L7.90163 2.90451C8.0722 2.4632 8.25396 1.99292 8.40388 1.60719C8.6915 0.862602 8.95065 0.219163 8.97913 0.179826C9.00476 0.137679 9.07596 0.0814836 9.13576 0.0533858C9.19272 0.0224782 9.2753 0 9.32087 0C9.36359 0 9.48604 0.0421467 9.59711 0.0955325C9.70817 0.151728 9.87049 0.25288 9.96162 0.323124C10.0499 0.393369 10.1809 0.522619 10.2521 0.609722C10.3233 0.699635 10.4372 0.879461 10.5056 1.01152C10.5768 1.14358 10.665 1.3515 10.7049 1.47513C10.7476 1.59876 10.7932 1.80669 10.8103 1.93875C10.8331 2.11857 10.8331 2.23377 10.8074 2.40236C10.7846 2.55409 10.685 2.86035 10.5056 3.34364C10.4572 3.47207 10.4086 3.6017 10.3636 3.72158L10.3635 3.72178L10.363 3.72316L10.3629 3.72323C10.2704 3.96978 10.1935 4.17479 10.1667 4.24276C10.1411 4.30755 10.077 4.47838 10.0006 4.68216L10.0005 4.68229L9.99927 4.68569C9.95672 4.79911 9.9104 4.92258 9.8648 5.04355C9.7395 5.38353 9.2155 6.78561 8.70005 8.16241C8.18459 9.5392 7.73464 10.7418 7.63212 11.0171L7.76597 11.2897C7.84001 11.4386 7.93114 11.6831 7.97101 11.8292C8.00803 11.9753 8.06214 12.2675 8.08777 12.4754C8.11909 12.7255 8.14188 13.2031 8.15327 13.8747C8.17035 14.7654 8.1789 14.889 8.21592 14.875C8.2387 14.8637 8.41811 14.8019 8.61461 14.7345C8.81111 14.667 9.07311 14.594 9.19841 14.5687C9.32372 14.5406 9.53445 14.5153 9.6683 14.5041C9.80784 14.4956 10.0072 14.5041 10.1382 14.5266C10.2635 14.5462 10.4543 14.5912 10.5654 14.6305C10.6764 14.667 10.8473 14.7429 10.9498 14.7991C11.0523 14.8525 11.2118 14.9593 11.3058 15.0323C11.3998 15.1054 11.5422 15.2402 11.6219 15.3301C11.7016 15.4229 11.8042 15.5521 11.8526 15.6224C11.901 15.6926 11.9836 15.8359 12.0377 15.9455C12.0946 16.0551 12.1715 16.2433 12.2114 16.367C12.2513 16.4906 12.2997 16.6985 12.3196 16.8306C12.3395 16.9823 12.3481 17.193 12.3367 17.4066C12.3253 17.592 12.294 17.8393 12.2627 17.9545C12.2342 18.0697 12.1658 18.2664 12.1146 18.39C12.0633 18.5136 11.9551 18.7103 11.8782 18.8255C11.8013 18.9407 11.6532 19.1234 11.5507 19.2301C11.4482 19.3341 11.2859 19.4746 11.1919 19.542C11.0979 19.6066 10.9413 19.7022 10.8444 19.7499C10.7448 19.7977 10.554 19.8707 10.4173 19.9101C10.2065 19.9747 10.1097 19.986 9.81069 19.986C9.54015 19.986 9.40061 19.9747 9.22689 19.9298C9.10159 19.8988 8.88515 19.8174 8.74846 19.7499C8.60892 19.6825 8.39818 19.5476 8.27857 19.4549C8.15612 19.3594 7.9881 19.1964 7.90266 19.0896C7.81723 18.9829 7.69192 18.803 7.62358 18.685C7.55808 18.5698 7.46695 18.3731 7.42138 18.2495C7.37582 18.1259 7.31886 17.918 7.29323 17.7859C7.25906 17.6061 7.23912 17.2408 7.21919 16.3389C7.20495 15.6758 7.17932 15.0436 7.16223 14.934C7.14799 14.8244 7.11382 14.6502 7.09104 14.5406C7.06541 14.431 7.01984 14.2624 6.98567 14.1613C6.95434 14.0601 6.8746 13.8775 6.81195 13.7539C6.73791 13.6106 6.63254 13.4673 6.52148 13.3577C6.40472 13.2369 6.31928 13.1779 6.25093 13.1638C6.19683 13.1526 6.11139 13.1526 6.06583 13.1638C6.01457 13.175 5.9092 13.2537 5.80668 13.3549C5.68137 13.4813 5.59879 13.6021 5.50196 13.796C5.42222 13.9562 5.33394 14.1922 5.28553 14.3861C5.23996 14.5631 5.1887 14.83 5.16877 14.9761C5.15168 15.1222 5.12605 15.7685 5.11181 16.4091C5.09188 17.252 5.07194 17.6342 5.04062 17.7859C5.01783 17.9011 4.96942 18.0781 4.9381 18.1793C4.90392 18.2804 4.82988 18.449 4.77577 18.5586C4.72166 18.6682 4.63908 18.8115 4.59066 18.8817C4.54225 18.952 4.43973 19.0812 4.35999 19.1739C4.28025 19.2638 4.11223 19.4156 3.98693 19.5055C3.86162 19.5982 3.66797 19.7162 3.55976 19.7696C3.45154 19.8202 3.25789 19.8904 3.13259 19.9241C2.96457 19.9691 2.81363 19.986 2.56303 19.986C2.36368 19.9888 2.15579 19.9747 2.06466 19.9522C1.97923 19.9326 1.83683 19.8904 1.7514 19.8595C1.66597 19.8286 1.53212 19.7724 1.45238 19.7331C1.37549 19.6937 1.2331 19.6066 1.13912 19.542C1.04514 19.4746 0.88282 19.3341 0.780299 19.2301C0.677778 19.1234 0.529692 18.9407 0.452801 18.8255C0.37591 18.7103 0.270542 18.5192 0.222129 18.404C0.170868 18.2888 0.102521 18.0809 0.0654995 17.9404C0.0113912 17.7325 0 17.6117 0 17.252C0 16.9823 0.014239 16.7575 0.0370215 16.662C0.0598039 16.5777 0.102521 16.426 0.133847 16.3248C0.168021 16.2237 0.230672 16.0663 0.279085 15.9736C0.32465 15.8809 0.418627 15.7207 0.486975 15.6139C0.555322 15.51 0.697712 15.3386 0.805929 15.2346C0.911298 15.1278 1.07362 14.9902 1.1676 14.9284C1.26158 14.8665 1.40682 14.7822 1.4894 14.7401C1.56914 14.7008 1.74855 14.6361 1.88525 14.5968C2.02479 14.5575 2.23838 14.5181 2.36368 14.5069C2.49183 14.4985 2.71681 14.5069 2.87628 14.5266C3.03291 14.5462 3.30915 14.5968 3.48856 14.6418C3.66797 14.6839 3.91004 14.7513 4.22899 14.8637L4.24038 13.678C4.24893 12.7536 4.26032 12.4276 4.29734 12.2085C4.32297 12.0539 4.37138 11.8264 4.40556 11.7027C4.43973 11.5791 4.52232 11.3768 4.70173 11.0284L4.58497 10.7053C4.51947 10.5282 4.14925 9.53639 3.7591 8.49958C3.60105 8.07647 3.44442 7.65804 3.30934 7.29719L3.30839 7.29465C3.11293 6.77248 2.96276 6.37131 2.919 6.25176C2.84496 6.04945 2.49753 5.12784 1.51218 2.51475V2.13543C1.51218 1.79264 1.52073 1.73363 1.59192 1.53133C1.63464 1.4077 1.73431 1.18573 1.80836 1.03962C1.88525 0.893509 2.01625 0.691205 2.09883 0.590053C2.18427 0.488901 2.3352 0.348412 2.43487 0.275358ZM5.74402 10.8261C5.7782 10.7924 5.85509 10.7446 5.9092 10.7193C5.97185 10.694 6.06867 10.68 6.16835 10.6828C6.29935 10.6884 6.35061 10.7081 6.43604 10.7755C6.49584 10.8205 6.56989 10.8963 6.60406 10.9385C6.64678 10.9947 6.66671 11.0705 6.67526 11.1913C6.6838 11.3262 6.67241 11.3908 6.624 11.4836C6.59267 11.551 6.52147 11.6353 6.47306 11.6718C6.4218 11.7112 6.32213 11.7561 6.25093 11.773C6.1598 11.7955 6.09146 11.7983 6.00887 11.7758C5.94622 11.7617 5.85224 11.7196 5.79813 11.6831C5.74402 11.6465 5.66998 11.5622 5.63296 11.492C5.59024 11.4105 5.56746 11.3178 5.56746 11.2307C5.56746 11.1576 5.59024 11.0509 5.62157 10.9947C5.65005 10.9357 5.707 10.8598 5.74402 10.8261ZM1.83683 15.5409C1.93936 15.4931 2.08459 15.4341 2.16433 15.4144C2.24122 15.392 2.4007 15.3723 2.51461 15.3723C2.62568 15.3695 2.85065 15.3948 3.01013 15.4257C3.17245 15.4594 3.41167 15.5156 3.54552 15.5549C3.67936 15.5971 3.88725 15.6729 4.23184 15.8331L4.22899 16.558C4.22899 16.9542 4.21475 17.3785 4.20051 17.4993C4.18343 17.6173 4.14356 17.7971 4.11223 17.8983C4.08091 17.9994 4.01256 18.1568 3.9613 18.2495C3.90719 18.3422 3.79043 18.4996 3.6993 18.5979C3.60532 18.6963 3.46008 18.8227 3.37465 18.8789C3.28922 18.9351 3.12689 19.0138 3.01867 19.0503C2.86489 19.1037 2.75952 19.1177 2.54879 19.1205C2.3352 19.1205 2.23268 19.1065 2.06466 19.0503C1.93366 19.0082 1.77418 18.9267 1.65173 18.8396C1.54351 18.7637 1.39258 18.6232 1.31569 18.5305C1.24164 18.4378 1.13343 18.2748 1.07932 18.1652C1.02521 18.0556 0.954014 17.8618 0.922688 17.7297C0.871428 17.5302 0.862884 17.4375 0.877124 17.1677C0.882819 16.9907 0.911297 16.7688 0.939775 16.676C0.965405 16.5833 1.03375 16.4119 1.09071 16.2967C1.1676 16.1422 1.25588 16.027 1.4239 15.8584C1.58338 15.6982 1.70868 15.6027 1.83683 15.5409ZM9.35504 15.4285C9.22119 15.4566 8.99052 15.5212 8.84244 15.5662C8.69435 15.6139 8.46937 15.7067 8.34407 15.7741L8.11625 15.8921C8.10201 16.8474 8.1134 17.2577 8.12764 17.4206C8.14472 17.5836 8.18459 17.7971 8.21877 17.8983C8.25009 17.9994 8.32414 18.1624 8.38109 18.2636C8.4352 18.3647 8.57189 18.5361 8.68296 18.6457C8.79402 18.7553 8.95635 18.8817 9.04178 18.9323C9.12722 18.9801 9.30093 19.0447 9.42624 19.0784C9.55154 19.1093 9.71956 19.1346 9.79645 19.1346C9.87619 19.1346 10.0214 19.1149 10.1239 19.0896C10.2265 19.0672 10.3916 19.0082 10.4942 18.9576C10.6166 18.8986 10.7505 18.7974 10.8957 18.6569C11.0723 18.4855 11.1349 18.3984 11.2431 18.1793C11.3143 18.0303 11.3941 17.8112 11.4225 17.6876C11.4596 17.5162 11.4681 17.3841 11.4539 17.1397C11.4453 16.9233 11.4197 16.7519 11.377 16.6198C11.3428 16.5103 11.2688 16.3417 11.2118 16.2405C11.1549 16.1366 11.0182 15.968 10.8957 15.8443C10.7505 15.701 10.6195 15.6027 10.4942 15.5409C10.3916 15.4931 10.2379 15.4341 10.1524 15.4116C10.067 15.3892 9.90752 15.3723 9.79645 15.3723C9.68539 15.3723 9.48889 15.3976 9.35504 15.4285Z" fill="white"/>
<path d="M14.7659 5.53526V2.76763C14.7659 0.325934 14.7716 0 14.8086 0C14.8314 0 14.9054 0.0421467 14.9738 0.0927227C15.0393 0.143299 15.1731 0.280978 15.2728 0.396179C15.3725 0.50857 15.5063 0.679966 15.5718 0.772689C15.6345 0.865412 15.7284 1.02838 15.7797 1.13796C15.8281 1.24473 15.8936 1.4358 15.9192 1.55943C15.962 1.74768 15.9676 1.8685 15.9534 2.28997C15.9449 2.56814 15.9107 2.96713 15.8794 3.17505C15.848 3.38297 15.8196 3.68924 15.8196 3.85502C15.8196 4.10509 15.831 4.195 15.8936 4.37482C15.9335 4.49565 16.0132 4.67547 16.0673 4.77662C16.1243 4.87777 16.2524 5.08008 16.3493 5.22619C16.4489 5.3723 16.5315 5.50155 16.5315 5.51278C16.5315 5.52683 16.1328 5.53526 14.7659 5.53526Z" fill="white"/>
<path d="M14.6377 5.99326C14.6064 6.01574 14.5608 6.09441 14.538 6.17027C14.501 6.29109 14.4953 7.0975 14.4953 12.7002V19.0924C14.6377 19.3875 14.7488 19.542 14.8314 19.6291C14.9197 19.7218 15.0478 19.8174 15.1503 19.8679C15.2443 19.9129 15.4095 19.9663 15.5205 19.9831C15.6715 20.0056 15.7683 20.0056 15.9192 19.9831C16.0303 19.9635 16.1898 19.9157 16.2752 19.8764C16.3606 19.837 16.503 19.7359 16.5885 19.6544C16.6938 19.5532 16.7764 19.4409 16.8448 19.3004L16.9444 19.0924C16.9444 7.0975 16.9387 6.29109 16.9017 6.17027C16.8789 6.09441 16.8334 6.01574 16.8021 5.99326C16.7565 5.96516 16.5372 5.95673 15.7199 5.95673C14.9026 5.95673 14.6833 5.96516 14.6377 5.99326Z" fill="white"/>
</svg>
