<svg width="20" height="16" viewBox="0 0 20 16" fill="none" xmlns="http://www.w3.org/2000/svg">
<path d="M7.02034 0.160803C6.913 0.201619 6.79278 0.287334 6.74985 0.35264C6.70262 0.417946 6.65109 0.536313 6.62533 0.613864C6.60387 0.691415 6.59099 1.08733 6.59957 1.49142L6.60816 2.22611L8.04649 2.24652C8.04649 1.92815 8.07654 1.77305 8.11089 1.6955C8.14524 1.61795 8.21394 1.53631 8.26116 1.51182C8.31269 1.48733 8.99106 1.47101 10.0215 1.47101H11.696C11.9407 1.66693 11.9536 1.69958 11.9665 1.94856L11.9751 2.22611L13.4134 2.24652C13.4134 0.809783 13.4005 0.585293 13.3533 0.499579C13.3189 0.438354 13.2374 0.340395 13.1687 0.27917C13.1043 0.217946 12.9969 0.148558 12.9325 0.12815C12.8509 0.0995785 11.8892 0.083252 10.0129 0.083252C7.38099 0.083252 7.19637 0.0914152 7.02034 0.160803Z" fill="white"/>
<path fill-rule="evenodd" clip-rule="evenodd" d="M2.33611 2.85468C2.2073 2.89142 1.99692 2.97713 1.86811 3.04652C1.7436 3.11182 1.53751 3.26693 1.413 3.38937C1.28849 3.51182 1.12533 3.73223 1.05234 3.87917C0.979354 4.02611 0.90207 4.24652 0.876309 4.36897C0.846255 4.51591 0.833374 6.11591 0.833374 8.91999C0.833374 11.6547 0.850548 13.3282 0.876309 13.471C0.897777 13.5935 0.983647 13.822 1.06522 13.9812C1.15968 14.1608 1.30566 14.3526 1.45164 14.4914C1.58474 14.6139 1.76507 14.7567 1.85523 14.8057C1.9411 14.8588 2.1386 14.9404 2.29317 14.9894L2.57225 15.0833H17.4708C17.9044 14.9363 18.0976 14.8547 18.1792 14.8057C18.2608 14.7567 18.4239 14.6343 18.5356 14.5322C18.6515 14.4302 18.7975 14.2669 18.8662 14.1649C18.9349 14.0628 19.0293 13.8669 19.0765 13.7241C19.1667 13.4751 19.1667 13.4179 19.1667 8.94856C19.1667 5.35264 19.1538 4.38937 19.1109 4.22611C19.0765 4.11182 18.995 3.92407 18.9263 3.80162C18.8576 3.68325 18.7416 3.51591 18.6687 3.43427C18.5957 3.35264 18.4153 3.20978 18.2608 3.11182C18.1105 3.01386 17.8615 2.89958 17.7069 2.85468C17.4321 2.77713 17.2604 2.77713 10 2.77713C3.04024 2.78121 2.55937 2.78529 2.33611 2.85468ZM9.33455 4.75673C9.13275 4.7853 8.81932 4.85877 8.6347 4.91591C8.45437 4.97305 8.18388 5.07917 8.0379 5.14856C7.88763 5.21795 7.62572 5.37305 7.44969 5.48734C7.27795 5.60162 6.99028 5.83836 6.81854 6.00979C6.64251 6.1853 6.41066 6.46285 6.29903 6.62203C6.18739 6.7853 6.03712 7.04652 5.95984 7.20571C5.88255 7.36489 5.77951 7.63836 5.73228 7.81795C5.68076 7.99754 5.62065 8.31999 5.59489 8.53224C5.56054 8.81387 5.56483 9.03836 5.59918 9.34856C5.62924 9.5853 5.69793 9.93224 5.75804 10.1241C5.81386 10.3159 5.95984 10.6465 6.07147 10.8588C6.18739 11.071 6.40636 11.3935 6.55664 11.5731C6.70691 11.7526 6.96452 12.0016 7.12768 12.1282C7.29083 12.2547 7.51839 12.4179 7.6386 12.4914C7.75453 12.569 7.99926 12.6914 8.17529 12.769C8.35133 12.8465 8.68193 12.9567 8.90519 13.0098C9.14992 13.0669 9.50629 13.12 9.78536 13.1322C10.073 13.1486 10.3993 13.1363 10.6226 13.1077C10.8244 13.0792 11.1421 13.0098 11.331 12.9526C11.5199 12.8955 11.8076 12.7853 11.9751 12.7077C12.1425 12.6261 12.4173 12.4669 12.5933 12.3526C12.7651 12.2384 13.0484 12.0057 13.2159 11.8384C13.3833 11.671 13.5894 11.4302 13.6796 11.3077C13.7655 11.1853 13.9029 10.9567 13.9844 10.7975C14.0703 10.6384 14.1819 10.3935 14.2292 10.2465C14.2807 10.0996 14.3494 9.84244 14.3837 9.67509C14.4138 9.50775 14.4438 9.17713 14.4438 8.9404C14.4438 8.70366 14.4181 8.36489 14.3794 8.1853C14.3451 8.00571 14.2721 7.73224 14.2163 7.57305C14.1605 7.41387 14.0445 7.16081 13.963 7.00162C13.8771 6.84244 13.6968 6.56897 13.5551 6.38938C13.4134 6.20979 13.1815 5.96489 13.0441 5.84244C12.9025 5.71999 12.6448 5.52815 12.4688 5.41387C12.2928 5.30366 11.9836 5.1404 11.7819 5.05877C11.5801 4.97713 11.2924 4.87917 11.1378 4.84652C10.9833 4.80979 10.7256 4.76081 10.5582 4.73632C10.3908 4.71591 10.1331 4.69958 9.97857 4.69958C9.82401 4.70366 9.53634 4.72815 9.33455 4.75673Z" fill="white"/>
<path d="M8.81074 7.11182C8.80644 6.73223 8.82362 6.40978 8.84508 6.38937C8.86655 6.37305 9.09411 6.36897 9.35601 6.38529C9.61362 6.39754 10.1331 6.40978 11.1808 6.40978V7.79754H12.6835V10.0424H11.1808V11.471H8.81932V10.0424H7.35953V7.79754H8.81932L8.81074 7.11182Z" fill="white"/>
</svg>
