<svg width="20" height="20" viewBox="0 0 20 20" fill="none" xmlns="http://www.w3.org/2000/svg">
<path fill-rule="evenodd" clip-rule="evenodd" d="M9.20296 0.0174258C9.10889 0.0276474 8.97137 0.0425896 8.84148 0.0560061C8.65113 0.0756686 8.27371 0.134656 8.00459 0.190367C7.73219 0.2428 7.29898 0.354221 7.03643 0.436149C6.77388 0.514799 6.39974 0.64916 6.19954 0.731087C5.99934 0.813014 5.70397 0.947375 5.54316 1.02603C5.38234 1.10795 5.14276 1.23576 5.01805 1.30786C4.89334 1.37995 4.63407 1.54381 4.44371 1.66834C4.25336 1.79286 3.92189 2.03865 3.70528 2.20906C3.48868 2.38274 3.14079 2.69407 2.93075 2.9038C2.72399 3.11026 2.44831 3.40519 2.32031 3.55922C2.1956 3.71324 1.98884 3.97869 1.86413 4.14909C1.73942 4.3195 1.53266 4.63738 1.40138 4.85367C1.27338 5.06996 1.0699 5.44682 0.955038 5.68933C0.836889 5.93183 0.682639 6.29231 0.610436 6.49222C0.538234 6.69212 0.433213 7.00672 0.37742 7.19679C0.318346 7.38686 0.23958 7.71129 0.193633 7.91775C0.150968 8.12421 0.0886117 8.47813 0.0590745 8.70425C0.0131277 9.0123 0 9.33345 0 9.9987C0 10.6672 0.0131277 10.9786 0.0557926 11.2768C0.0886117 11.4931 0.13784 11.788 0.164096 11.9322C0.193633 12.0764 0.246144 12.3058 0.278963 12.4401C0.315064 12.5745 0.374138 12.7875 0.413521 12.9153C0.449623 13.0431 0.544798 13.3217 0.626846 13.538C0.708894 13.7543 0.876272 14.1377 0.997703 14.39C1.12242 14.6423 1.33902 15.0323 1.48014 15.2584C1.62127 15.4846 1.83131 15.7926 1.94618 15.9466C2.06433 16.1006 2.26452 16.3497 2.3958 16.5037C2.52379 16.6578 2.80604 16.9527 3.01936 17.1624C3.23597 17.3689 3.56416 17.6638 3.75451 17.8146C3.94486 17.9653 4.2468 18.1849 4.42731 18.3061C4.60781 18.4241 4.87365 18.5912 5.01805 18.6764C5.16245 18.7584 5.4808 18.9222 5.72366 19.0402C5.96652 19.1549 6.36035 19.3188 6.59337 19.404C6.82639 19.4892 7.24319 19.6137 7.51231 19.6825C7.78471 19.7513 8.20479 19.8398 8.44765 19.8759C8.69051 19.9119 9.13357 19.9578 9.43223 19.9807C9.84247 20.0069 10.1149 20.0069 10.5645 19.9774C10.8894 19.9578 11.362 19.9054 11.6147 19.8628C11.8674 19.8201 12.2284 19.7481 12.4188 19.7022C12.6091 19.6563 12.8815 19.5809 13.0259 19.5318C13.1703 19.4859 13.4723 19.3745 13.6987 19.286C13.9252 19.1975 14.3157 19.0205 14.5684 18.8927C14.8211 18.7649 15.2215 18.5355 15.4545 18.3815C15.6876 18.2275 16.0584 17.9588 16.275 17.7851C16.4916 17.6147 16.8461 17.2935 17.066 17.0772C17.2826 16.8609 17.6009 16.5136 17.7683 16.3071C17.9357 16.1006 18.1949 15.7467 18.3426 15.5206C18.4903 15.2945 18.6905 14.9701 18.789 14.7996C18.8841 14.6292 19.0384 14.3179 19.1336 14.1115C19.2255 13.905 19.3699 13.5347 19.4552 13.2922C19.5405 13.0497 19.6521 12.6794 19.7046 12.4729C19.7571 12.2665 19.8228 11.9715 19.8523 11.8175C19.8786 11.6635 19.9245 11.3554 19.9508 11.1293C19.9803 10.8868 20 10.4214 20 9.9987C20 9.5694 19.9803 9.10733 19.9508 8.85172C19.9245 8.61905 19.8622 8.23235 19.8162 7.99968C19.7703 7.767 19.6817 7.40325 19.6226 7.19679C19.5602 6.99033 19.4454 6.64296 19.36 6.42667C19.278 6.21039 19.1237 5.85646 19.0187 5.64017C18.917 5.42388 18.7332 5.08634 18.615 4.88644C18.4936 4.68654 18.2967 4.38505 18.1753 4.21464C18.0538 4.04423 17.8668 3.79189 17.7552 3.65753C17.6469 3.52317 17.381 3.22823 17.1611 3.00539C16.9445 2.78255 16.6131 2.4745 16.4227 2.31392C16.2324 2.15662 15.9665 1.95017 15.832 1.85513C15.6974 1.75682 15.4316 1.58313 15.2412 1.46843C15.0509 1.35046 14.7128 1.16039 14.4864 1.04897C14.2599 0.937544 13.8825 0.767135 13.6495 0.675376C13.4165 0.583618 13.0522 0.459088 12.8454 0.396824C12.6387 0.337836 12.2908 0.249355 12.0742 0.203475C11.8576 0.157596 11.5097 0.0986083 11.3029 0.0691144C11.0798 0.0363435 10.617 0.0101268 10.1707 0.00357259C9.75714 -0.0029816 9.36331 0.000295495 9.30095 0.00684968C9.28114 0.00893171 9.24676 0.0126672 9.20296 0.0174258ZM7.90614 3.05781C7.88973 3.06765 7.87988 4.15892 7.88316 5.48286L7.88973 7.88497H3.03249V12.0797H7.88973V16.9297H12.0906V12.0797H16.9478V7.88497H12.0906V3.03488C8.86774 3.03488 7.92255 3.04471 7.90614 3.05781Z" fill="white"/>
</svg>
