<svg width="20" height="20" viewBox="0 0 20 20" fill="none" xmlns="http://www.w3.org/2000/svg">
<path d="M18.81 8.52864C19.092 8.32369 19.428 8.07855 19.556 7.9821C19.686 7.88565 19.798 7.80729 19.808 7.80729C19.818 7.80528 19.834 7.8535 19.842 7.90976C19.852 7.96783 19.8778 8.12364 19.8998 8.25595L19.9 8.25738C19.922 8.38999 19.952 8.61705 19.97 8.75971C19.992 8.95662 20 9.25802 20 9.98941C20 10.7429 19.992 11.0222 19.968 11.2352C19.952 11.3879 19.916 11.6431 19.888 11.8038C19.862 11.9646 19.798 12.262 19.748 12.4669C19.698 12.6719 19.62 12.9512 19.576 13.0898C19.532 13.2284 19.438 13.4897 19.366 13.6725C19.294 13.8554 19.172 14.1387 19.092 14.3054C19.012 14.4702 18.886 14.7153 18.81 14.848C18.736 14.9806 18.592 15.2157 18.492 15.3704C18.39 15.5251 18.242 15.7421 18.16 15.8526C18.078 15.9631 17.944 16.1339 17.864 16.2344C17.782 16.3328 17.616 16.5278 17.49 16.6664C17.366 16.805 17.154 17.0261 17.016 17.1587C16.88 17.2913 16.71 17.452 16.64 17.5143C16.568 17.5786 16.504 17.6289 16.496 17.6309C16.486 17.6309 16.38 17.3214 16.258 16.9417C16.138 16.5639 16.012 16.1741 15.92 15.8928L16.028 15.7823C16.088 15.722 16.164 15.6396 16.2 15.6015C16.234 15.5633 16.352 15.4266 16.458 15.3001C16.566 15.1735 16.73 14.9645 16.822 14.8379C16.914 14.7113 17.062 14.4943 17.148 14.3557C17.236 14.217 17.372 13.9779 17.452 13.8232C17.532 13.6685 17.644 13.4334 17.702 13.3008C17.758 13.1682 17.848 12.9371 17.9 12.7884C17.952 12.6397 18.024 12.4127 18.058 12.2861C18.092 12.1595 18.142 11.9465 18.17 11.8139C18.2 11.6813 18.244 11.414 18.272 11.2211C18.298 11.0282 18.33 10.6706 18.342 10.4274C18.36 10.0879 18.36 9.88694 18.342 9.55339C18.328 9.31629 18.312 9.07115 18.298 8.90036L18.81 8.52864Z" fill="white"/>
<path d="M4.96388 18.6315C4.96788 18.6235 5.29788 18.3783 5.69989 18.085C6.10189 17.7936 6.43789 17.5525 6.44989 17.5525C6.46189 17.5505 6.56789 17.5947 6.68989 17.649C6.8119 17.7032 7.0279 17.7896 7.1699 17.8418C7.3119 17.8941 7.5339 17.9664 7.6599 18.0026C7.7859 18.0388 8.01591 18.097 8.16991 18.1312C8.32391 18.1653 8.57591 18.2116 8.72991 18.2337C8.88391 18.2538 9.10791 18.2819 9.22991 18.2919C9.35192 18.304 9.59792 18.3181 9.77992 18.3241C9.96192 18.3321 10.2879 18.3281 10.5039 18.316C10.7219 18.304 11.0639 18.2718 11.2639 18.2437C11.4659 18.2176 11.7559 18.1674 11.9099 18.1332C12.0639 18.099 12.2399 18.0568 12.2999 18.0408C12.3599 18.0227 12.4899 17.9825 12.5899 17.9524C12.6899 17.9202 12.8599 17.8619 12.9699 17.8218C13.0799 17.7816 13.2719 17.7052 13.6199 17.5505L13.6859 17.5947L13.6872 17.5956C13.7292 17.6261 14.0712 17.8742 15.122 18.6456L15.016 18.7119C14.958 18.7481 14.708 18.8787 14.46 19.0032C14.212 19.1278 13.892 19.2765 13.75 19.3328C13.6079 19.389 13.3379 19.4835 13.1499 19.5458C12.9619 19.606 12.6799 19.6884 12.5199 19.7266C12.3599 19.7668 12.1039 19.821 11.9499 19.8492C11.7959 19.8773 11.6019 19.9094 11.5199 19.9195C11.4379 19.9315 11.2479 19.9536 11.0999 19.9717C10.8799 19.9979 10.6679 20.0039 9.94992 19.9979C9.26992 19.9918 9.00991 19.9818 8.80991 19.9557C8.66791 19.9356 8.43791 19.9014 8.29991 19.8793C8.16191 19.8572 7.9099 19.807 7.7399 19.7688C7.5699 19.7286 7.3259 19.6683 7.1999 19.6301C7.0739 19.592 6.8479 19.5196 6.69989 19.4674C6.55189 19.4172 6.30589 19.3207 6.15389 19.2564C6.00389 19.1901 5.78789 19.0916 5.67389 19.0354C5.56189 18.9791 5.35388 18.8686 5.21388 18.7902C5.07388 18.7099 4.96188 18.6395 4.96388 18.6315Z" fill="white"/>
<path fill-rule="evenodd" clip-rule="evenodd" d="M9.25009 0.000191005C9.25812 -0.0018139 9.26414 0.0122204 9.26414 0.0302645C9.26414 0.0503135 9.14574 0.423225 9.00327 0.858288C8.8608 1.29335 8.7404 1.67428 8.73438 1.70636C8.72435 1.75047 8.7083 1.7625 8.64609 1.77252C8.60596 1.77854 8.45345 1.80661 8.31098 1.83467C8.16851 1.86074 7.9518 1.91086 7.82939 1.94294C7.70699 1.97502 7.51435 2.03116 7.39796 2.06724C7.28158 2.10534 7.06486 2.18353 6.91637 2.24167C6.76788 2.29981 6.48294 2.43013 6.28428 2.53038C6.08562 2.63062 5.8047 2.78901 5.66222 2.88123C5.51975 2.97145 5.33113 3.09776 5.24284 3.15991C5.15655 3.22407 4.96592 3.36842 4.82144 3.48471C4.67697 3.60099 4.41811 3.83156 4.24755 3.99796C4.07698 4.16437 3.85425 4.39493 3.75191 4.50921C3.64957 4.62349 3.48904 4.81596 3.39473 4.93826C3.29841 5.06056 3.12584 5.30315 3.00745 5.48159C2.88905 5.65802 2.72852 5.92267 2.51181 6.32966L0.675735 6.33167L0.687774 6.28756C0.695801 6.2615 0.74998 6.12917 0.810179 5.99083C0.870378 5.8525 0.984757 5.61391 1.06502 5.45954C1.14729 5.30516 1.27773 5.07058 1.35799 4.93826C1.43826 4.80594 1.58273 4.58139 1.68106 4.43704C1.77738 4.29469 1.95396 4.0541 2.07235 3.90574C2.19074 3.75737 2.35529 3.55889 2.43957 3.46466C2.52385 3.37043 2.71448 3.16994 2.86297 3.01556C3.01146 2.86319 3.25025 2.63263 3.39473 2.50431C3.5372 2.376 3.76395 2.18353 3.89639 2.07927C4.02882 1.97301 4.2636 1.80059 4.41811 1.69233C4.57262 1.58406 4.81944 1.42367 4.96392 1.33746C5.1104 1.25125 5.33314 1.12494 5.45554 1.06078C5.57995 0.994622 5.78664 0.894377 5.91305 0.838239C6.03947 0.780097 6.2301 0.699901 6.33445 0.657798C6.43879 0.615696 6.63344 0.545524 6.76587 0.501416C6.89831 0.455303 7.10098 0.393152 7.21737 0.359068C7.33375 0.32699 7.52238 0.276867 7.63876 0.248799C7.75515 0.222735 7.97186 0.176622 8.12035 0.150559C8.26884 0.12249 8.54977 0.080387 8.74241 0.0583331C8.93505 0.0362792 9.12568 0.0142253 9.1638 0.0102155C9.20193 0.00620571 9.24006 0.000191005 9.24808 0.000191005H9.25009ZM10.139 0.32699C10.1972 0.51545 10.6888 2.0893 11.2326 3.82554C11.7744 5.56179 12.2259 6.98927 12.232 6.99529C12.24 7.00331 13.2674 7.02336 14.5135 7.04341C15.7596 7.06145 17.2285 7.0835 17.7743 7.09353C18.3201 7.10355 18.9602 7.11157 19.193 7.11358C19.494 7.11358 19.6184 7.11959 19.6144 7.13563C19.6124 7.14766 18.3422 8.04586 16.791 9.13051C15.2399 10.2172 13.8955 11.1575 13.8031 11.2196C13.7108 11.2818 13.6306 11.3439 13.6266 11.3539C13.6205 11.364 13.8393 12.0516 14.1122 12.8777C14.3851 13.7057 14.8466 15.1071 15.1396 15.9953C15.4325 16.8835 15.7095 17.7235 15.7536 17.8639C15.7997 18.0042 15.8319 18.1205 15.8218 18.1205C15.8138 18.1205 15.4847 17.8839 15.0894 17.5952C14.6961 17.3065 14.1021 16.8734 13.771 16.6308C13.4399 16.3882 13.0567 16.1076 12.9182 16.0053C12.7798 15.9031 12.0734 15.3858 11.347 14.8545C10.0969 13.9403 10.0267 13.8921 9.98251 13.9182C9.95843 13.9322 9.23002 14.4655 8.36316 15.1011C7.49629 15.7367 6.69765 16.3221 6.58728 16.4043C6.47692 16.4845 5.90302 16.9055 5.31307 17.3386C4.72312 17.7716 4.23751 18.1165 4.2335 18.1085C4.23149 18.0984 4.57663 17.0699 5.00405 15.8249C5.42945 14.5798 5.82677 13.419 5.88496 13.2486C5.94315 13.0782 6.12375 12.5489 6.28428 12.0757C6.51705 11.392 6.57324 11.2096 6.55317 11.1915C6.53912 11.1795 6.0174 10.8267 5.39334 10.4076C4.76927 9.9886 3.51512 9.14655 2.60411 8.53706C1.6931 7.92757 0.836266 7.35016 0.446978 7.0835L0.697808 7.06947C0.836266 7.06145 2.49977 7.04742 4.39403 7.0394C6.2883 7.02937 7.84544 7.01534 7.85548 7.00531C7.8635 6.99729 8.20865 5.8966 8.62001 4.55933C9.03137 3.22407 9.41062 1.98705 9.4648 1.81062C9.51898 1.63418 9.66346 1.16504 9.78586 0.768068C9.90827 0.371098 10.0146 0.0322694 10.0206 0.0162302C10.0267 0.000191003 10.0808 0.140534 10.139 0.32699ZM10.8353 0.00620571C10.8715 0.0122204 11.0059 0.0242498 11.1323 0.0362792C11.2587 0.0503135 11.4815 0.0763772 11.6239 0.0964262C11.7664 0.11848 12.0152 0.162588 12.1758 0.194666C12.3363 0.22875 12.6012 0.292906 12.7677 0.339019C12.9323 0.383127 13.2092 0.471343 13.3797 0.53149C13.5503 0.591637 13.8152 0.695891 13.9657 0.760048C14.1182 0.824205 14.3349 0.92445 14.4473 0.980587C14.5617 1.03672 14.7583 1.14298 14.8847 1.21516C15.0111 1.28734 15.2459 1.43169 15.4064 1.53594C15.567 1.6402 15.8058 1.80661 15.9382 1.90685C16.0706 2.0071 16.2833 2.1735 16.4098 2.27976C16.5362 2.38402 16.8492 2.67874 17.1041 2.93136C17.3589 3.18598 17.6599 3.50676 17.7743 3.6451C17.8887 3.78344 18.0572 3.99395 18.1455 4.11625C18.2358 4.23855 18.3823 4.44506 18.4706 4.57738C18.5589 4.7097 18.7054 4.94829 18.7977 5.10868C18.89 5.26907 19.0304 5.53572 19.1107 5.70012C19.189 5.86653 19.2833 6.06903 19.3174 6.15123C19.3515 6.23343 19.3796 6.30761 19.3796 6.31763C19.3796 6.32565 18.9662 6.33167 17.5435 6.33167L17.4773 6.19734C17.4392 6.12115 17.3689 5.98883 17.3168 5.90061C17.2666 5.8124 17.1562 5.63597 17.074 5.50966C16.9917 5.38335 16.8452 5.17484 16.7489 5.04853C16.6526 4.92222 16.484 4.71371 16.3757 4.5874C16.2653 4.46109 16.0225 4.20848 15.8359 4.02603C15.6493 3.84359 15.3964 3.61503 15.276 3.51478C15.1536 3.41654 14.9429 3.25414 14.8045 3.1539C14.666 3.05566 14.4352 2.90329 14.2928 2.81708C14.1503 2.73087 13.9195 2.60456 13.7811 2.53439C13.6426 2.46421 13.4299 2.36397 13.3095 2.31184C13.1891 2.25971 13.0025 2.18553 12.8982 2.14744C12.7938 2.10935 12.5711 2.03917 12.4065 1.99306C12.24 1.94494 11.9611 1.87678 11.7845 1.84069C11.6079 1.80661 11.4333 1.77252 11.325 1.75047L11.2106 1.39961C11.1464 1.20714 11.0219 0.8222 10.9337 0.547529C10.8434 0.270853 10.7711 0.0362792 10.7691 0.0222449C10.7691 0.00620571 10.7912 0.00219591 10.8353 0.00620571ZM0.236281 7.8193C0.242301 7.82331 0.585436 8.06791 1.74326 8.90796L1.72721 9.1285C1.71919 9.2508 1.71116 9.67384 1.71116 10.0708C1.71317 10.7003 1.71919 10.8347 1.75731 11.1234C1.78139 11.3058 1.82955 11.5905 1.86366 11.7549C1.89577 11.9213 1.95396 12.1639 1.99209 12.2962C2.02821 12.4286 2.10245 12.6591 2.15463 12.8075C2.20479 12.9559 2.29308 13.1824 2.34726 13.3087C2.40144 13.435 2.5098 13.6616 2.58806 13.8099C2.66632 13.9583 2.80478 14.2029 2.89909 14.3513C2.99139 14.4996 3.1459 14.7262 3.24022 14.8525C3.33453 14.9788 3.477 15.1592 3.55526 15.2535C3.63352 15.3477 3.79405 15.5281 4.12715 15.885L3.84421 16.7471C3.6897 17.2203 3.55927 17.6132 3.55526 17.6193C3.55124 17.6253 3.477 17.5671 3.39272 17.4889C3.30643 17.4107 3.1138 17.2263 2.9633 17.0779C2.8128 16.9296 2.60211 16.707 2.49375 16.5867C2.38539 16.4664 2.21282 16.2619 2.11249 16.1356C2.01015 16.0093 1.85965 15.8088 1.77537 15.6905C1.68909 15.5702 1.54661 15.3537 1.45431 15.2094C1.362 15.063 1.21953 14.8204 1.13927 14.6721C1.057 14.5237 0.938604 14.2831 0.872385 14.1408C0.806166 13.9984 0.701821 13.7458 0.637609 13.5794C0.573396 13.415 0.475071 13.1263 0.418885 12.9378C0.362699 12.7494 0.290461 12.4787 0.258354 12.3363C0.226248 12.194 0.180096 11.9715 0.158023 11.8451C0.13595 11.7188 0.0978235 11.4662 0.0757505 11.2838C0.0536775 11.1013 0.0255846 10.7404 0.0135448 10.4818C-0.00451493 10.1269 -0.00451493 9.88836 0.0135448 9.51946C0.0255846 9.2488 0.0576908 8.86185 0.083777 8.65735C0.109863 8.45285 0.152003 8.18019 0.178089 8.04987C0.202169 7.91955 0.230261 7.81529 0.236281 7.8193Z" fill="white"/>
</svg>
