<svg width="20" height="20" viewBox="0 0 20 20" fill="none" xmlns="http://www.w3.org/2000/svg">
<path d="M3.1345 0.864443C3.08771 0.881078 3.02604 0.916428 2.99839 0.943461C2.97075 0.968414 2.93034 1.02664 2.90908 1.07238C2.87718 1.13893 2.86867 1.20755 2.86867 1.43212V1.7066C2.75384 1.74819 2.74108 1.73988 2.56032 1.56313C2.45399 1.46123 2.33703 1.3635 2.29875 1.34479C2.2626 1.32607 2.18392 1.31152 2.12437 1.31152C2.06058 1.31152 1.98402 1.32815 1.93298 1.3531C1.8862 1.37598 1.8224 1.43004 1.78838 1.47163C1.74797 1.5257 1.72883 1.57976 1.72245 1.65254C1.7182 1.71076 1.72671 1.79602 1.74372 1.84177C1.76286 1.90207 1.82878 1.98109 1.97339 2.11625C2.16691 2.29924 2.17541 2.31171 2.15627 2.36578L2.13501 2.424C1.58848 2.44272 1.50342 2.45311 1.44813 2.48223C1.41197 2.50094 1.35668 2.54877 1.32904 2.5862C1.30139 2.62155 1.26524 2.69017 1.25035 2.73591C1.22909 2.80245 1.22909 2.8378 1.25035 2.91266C1.26524 2.96465 1.30139 3.03743 1.32904 3.07486C1.35668 3.11021 1.41197 3.15803 1.44813 3.17675C1.50342 3.20586 1.58848 3.21626 1.82665 3.22458L2.13501 3.23497C2.17541 3.34726 2.16691 3.35974 1.96913 3.55312C1.83303 3.68413 1.75222 3.77978 1.73734 3.82761C1.72458 3.86711 1.7182 3.94821 1.72245 4.00643C1.72883 4.07921 1.74797 4.13328 1.78838 4.18734C1.8224 4.22893 1.8862 4.283 1.93298 4.30587C1.98402 4.33082 2.06058 4.34746 2.12437 4.34746C2.18179 4.34746 2.2626 4.3329 2.29875 4.31419C2.33703 4.29547 2.45399 4.19774 2.56032 4.09585C2.74108 3.9191 2.75384 3.91078 2.80913 3.93158L2.86867 3.95237C2.86867 4.44935 2.87718 4.52005 2.90908 4.58659C2.92822 4.63234 2.97713 4.69472 3.01328 4.72799C3.05156 4.75918 3.11748 4.79245 3.16001 4.80493C3.20467 4.81533 3.25571 4.82572 3.27272 4.82572C3.28973 4.82572 3.34077 4.81533 3.3833 4.80493C3.42796 4.79245 3.49814 4.75294 3.5428 4.71759C3.58533 4.68016 3.63211 4.61778 3.64912 4.58243C3.66826 4.53668 3.67677 4.42232 3.67677 4.23933C3.67464 3.96485 3.67677 3.96277 3.72993 3.93781C3.76396 3.92118 3.79798 3.91702 3.81925 3.9295C3.84052 3.93989 3.92345 4.01683 4.00214 4.10001C4.08295 4.18526 4.18289 4.27468 4.22543 4.29963C4.28284 4.33498 4.33813 4.34746 4.42532 4.34746C4.49337 4.34746 4.57418 4.33498 4.60608 4.31835C4.64011 4.30379 4.69752 4.25596 4.73368 4.21438C4.77195 4.17279 4.81449 4.10001 4.82724 4.05218C4.84426 3.98564 4.84213 3.93573 4.82299 3.8588C4.7996 3.76938 4.7677 3.72571 4.58694 3.54688C4.38279 3.3431 4.37854 3.33686 4.40406 3.28072L4.4317 3.2225C4.90593 3.22458 5.01651 3.21626 5.06329 3.19546C5.10157 3.18091 5.16324 3.13516 5.19939 3.09773C5.23555 3.05822 5.27595 2.99376 5.29084 2.95425C5.3036 2.91474 5.31423 2.85444 5.31423 2.81909C5.31423 2.78582 5.29509 2.71928 5.27382 2.67353C5.25256 2.62778 5.2079 2.5654 5.17388 2.53421C5.13985 2.50302 5.08669 2.46767 5.05266 2.45727C5.02076 2.4448 4.86552 2.4344 4.70816 2.4344H4.42107C4.37854 2.32211 4.38917 2.30963 4.58694 2.11209C4.7358 1.96237 4.80173 1.88128 4.82087 1.82097C4.83362 1.77523 4.84638 1.72324 4.84638 1.7066C4.84638 1.68997 4.83575 1.64006 4.82512 1.59848C4.81236 1.55481 4.77195 1.48619 4.73368 1.4446C4.69752 1.40301 4.64011 1.35518 4.60608 1.34063C4.57418 1.32399 4.49337 1.31152 4.42532 1.31152C4.3594 1.3136 4.28072 1.32607 4.25094 1.34271C4.22117 1.35726 4.11059 1.45708 4.00639 1.56105C3.8235 1.74403 3.81287 1.75235 3.7512 1.73364L3.6874 1.71284C3.67039 1.2325 3.6555 1.07446 3.64275 1.05159C3.62999 1.02872 3.5832 0.978811 3.54067 0.943461C3.49814 0.906031 3.42796 0.866523 3.3833 0.854046C3.34077 0.843649 3.28548 0.833252 3.26209 0.833252C3.2387 0.835331 3.18128 0.847808 3.1345 0.864443Z" fill="white"/>
<path fill-rule="evenodd" clip-rule="evenodd" d="M12.9167 1.25121C12.8827 1.26161 12.821 1.29488 12.7827 1.32191C12.7466 1.35103 12.6998 1.40509 12.6785 1.44252C12.6594 1.47787 12.6424 1.56105 12.6424 1.62343C12.6403 1.70453 12.653 1.75859 12.6849 1.81058C12.7083 1.85008 12.9061 2.08714 13.1251 2.33667C13.3442 2.5862 13.5292 2.81285 13.5355 2.84612C13.5441 2.87731 13.5377 2.93554 13.5228 2.97505C13.5079 3.01455 13.4505 3.10397 13.3952 3.17259C13.3399 3.24121 13.2697 3.34518 13.2421 3.40133C13.2123 3.45955 13.1762 3.5552 13.1634 3.61551C13.1506 3.67373 13.14 3.77978 13.14 3.8484V3.97316C13.0167 3.99188 12.904 4.01683 12.8104 4.0397C12.7168 4.06258 12.568 4.10833 12.4808 4.1416C12.3936 4.17695 12.2596 4.23725 12.1831 4.27884C12.1065 4.32043 11.981 4.39944 11.9002 4.45351C11.8215 4.50965 11.7556 4.55332 11.7514 4.55124C11.7489 4.54653 11.7214 4.49266 11.6918 4.43063C11.6599 4.36825 11.5897 4.25596 11.5323 4.18318C11.4749 4.10833 11.3707 4.00435 11.3005 3.94821C11.2303 3.89415 11.107 3.81305 11.0262 3.77146C10.9454 3.72779 10.8433 3.65085 10.7965 3.59887C10.7455 3.54065 10.7008 3.46163 10.6796 3.39093C10.654 3.30567 10.6498 3.22665 10.6583 3.08941C10.6647 2.98752 10.6945 2.79414 10.7263 2.66313C10.7561 2.53213 10.7795 2.38241 10.7795 2.33043C10.7795 2.2722 10.7604 2.20566 10.7306 2.15368C10.7051 2.11001 10.6455 2.04555 10.5988 2.01228C10.5286 1.96445 10.4903 1.95405 10.3861 1.95198C10.3095 1.9499 10.233 1.96237 10.1947 1.98109C10.1607 1.9998 10.1011 2.04555 10.065 2.08298C10.031 2.12249 9.99481 2.17239 9.9863 2.19527C9.97992 2.21814 9.93952 2.40529 9.89699 2.61115C9.84382 2.87523 9.82256 3.04159 9.82256 3.17259C9.82256 3.2828 9.83957 3.42004 9.86084 3.5053C9.8821 3.58639 9.92889 3.71116 9.96504 3.78602C9.99906 3.86088 10.0735 3.9794 10.1288 4.05218C10.1819 4.12288 10.284 4.22477 10.3542 4.28092C10.4244 4.33498 10.5498 4.41816 10.6349 4.46391C10.7306 4.51589 10.8242 4.58867 10.8773 4.65105C10.9369 4.72383 10.9837 4.81117 11.0304 4.95049C11.0687 5.05862 11.0985 5.16259 11.0985 5.17922C11.0964 5.19586 10.8518 5.45163 10.5498 5.7469L10.0033 6.28339C9.89061 6.09624 9.78641 5.97148 9.69709 5.88622C9.60565 5.79681 9.48018 5.70116 9.40788 5.66373C9.3377 5.6263 9.18033 5.56391 9.05699 5.52025C8.93365 5.47866 8.77628 5.41628 8.70611 5.38093C8.63593 5.34765 8.52748 5.26864 8.46581 5.20626C8.38925 5.1314 8.32758 5.0399 8.26803 4.91514C8.22902 4.83018 8.1841 4.73799 8.15915 4.68679C8.15418 4.67659 8.15 4.66801 8.14682 4.66145C8.12768 4.62194 8.07239 4.5658 8.02561 4.53668C7.9767 4.50757 7.89801 4.48054 7.84485 4.4743C7.79168 4.47014 7.71513 4.47638 7.67472 4.48886C7.63432 4.50133 7.57265 4.53461 7.53862 4.55956C7.5046 4.58659 7.45781 4.64481 7.43655 4.69056C7.41741 4.73631 7.39827 4.81117 7.39827 4.85691C7.39827 4.90266 7.41741 4.99623 7.4408 5.06486C7.46419 5.13348 7.52586 5.27488 7.57903 5.37677C7.63006 5.47866 7.72576 5.6263 7.79168 5.70531C7.85548 5.78225 7.96819 5.8883 8.04262 5.94029C8.11492 5.99227 8.22125 6.05673 8.28079 6.08377C8.33821 6.10872 8.50621 6.16902 8.65294 6.21477C8.81031 6.26675 8.97193 6.3333 9.04636 6.38112C9.11654 6.42479 9.2016 6.49757 9.23562 6.54332C9.27178 6.58698 9.32069 6.6764 9.34833 6.73878L9.39937 6.85315C8.23401 7.99683 7.881 8.35241 7.86399 8.37944L7.83421 8.42934C7.65346 8.35033 7.56201 8.29002 7.51523 8.24635C7.46632 8.20061 7.39827 8.10703 7.35999 8.03841C7.32384 7.96979 7.24728 7.8575 7.18986 7.78888C7.13457 7.72026 7.03037 7.61837 6.96232 7.56431C6.89214 7.50816 6.7688 7.4333 6.68587 7.3938C6.60293 7.35637 6.47534 7.30854 6.39878 7.28775C6.30734 7.26279 6.18612 7.25032 6.03726 7.2524C5.86501 7.2524 5.72678 7.26903 5.43119 7.32725C5.12496 7.38756 5.0314 7.41667 4.96547 7.46034C4.91869 7.49361 4.86127 7.55599 4.83788 7.60174C4.80811 7.6558 4.79322 7.72234 4.79535 7.78888C4.79535 7.84711 4.81449 7.9282 4.83788 7.97395C4.85914 8.0197 4.91656 8.08416 4.96335 8.11535C5.01013 8.14862 5.08669 8.17981 5.13347 8.18605C5.18876 8.19437 5.32699 8.17566 5.53327 8.13407C5.73529 8.09248 5.90754 8.0696 6.02025 8.0696C6.1202 8.0696 6.23929 8.08208 6.29245 8.1008C6.34562 8.11743 6.43068 8.16734 6.48384 8.211C6.53701 8.25675 6.60718 8.34201 6.64121 8.40439C6.67523 8.46677 6.73265 8.55827 6.7688 8.61025C6.80495 8.66224 6.88151 8.74957 6.94106 8.80572C6.99847 8.86186 7.10055 8.94088 7.16435 8.98247C7.22814 9.02405 7.31321 9.07188 7.35148 9.08852C7.38976 9.10515 7.42166 9.12803 7.42166 9.1405C7.41953 9.15298 7.40465 9.20288 7.38763 9.25487C7.3685 9.30686 7.34085 9.40667 7.32384 9.47737C7.30683 9.55015 7.29194 9.63124 7.29194 9.66035C7.29194 9.71026 7.28556 9.71234 7.1686 9.71234C7.10267 9.71234 6.98997 9.7269 6.91979 9.74561C6.84961 9.76225 6.74966 9.79552 6.6965 9.81839C6.64334 9.84126 6.53488 9.90988 6.45194 9.97227C6.33711 10.0596 6.28607 10.0846 6.22865 10.0866C6.18825 10.0866 6.10106 10.0617 6.03726 10.0326C5.97347 10.0035 5.72466 9.86414 5.48435 9.72274C5.24405 9.57926 5.01438 9.45865 4.97398 9.45033C4.93145 9.44202 4.85914 9.44826 4.80385 9.46489C4.74856 9.48153 4.67626 9.52519 4.63373 9.56678C4.59332 9.60629 4.54654 9.67699 4.53378 9.72274C4.51889 9.76849 4.50613 9.82879 4.50613 9.8579C4.50613 9.88701 4.53165 9.95979 4.56355 10.0222C4.62309 10.1324 4.62947 10.1365 5.18663 10.4651C5.56516 10.6855 5.79483 10.8082 5.8884 10.8373C5.9841 10.8643 6.08617 10.8768 6.21802 10.8768C6.32222 10.8768 6.45194 10.8643 6.50511 10.8477C6.55827 10.8331 6.65184 10.7957 6.71139 10.7645C6.77306 10.7354 6.86025 10.6793 6.90278 10.6418C6.94744 10.6023 7.00698 10.5566 7.03675 10.5379C7.06652 10.5171 7.12819 10.5025 7.17498 10.5004C7.22176 10.5004 7.27067 10.5129 7.28343 10.5275C7.29619 10.542 7.31746 10.6148 7.33022 10.6897C7.3451 10.7645 7.37913 10.8997 7.4089 10.9912C7.4408 11.0827 7.51736 11.2615 7.57903 11.3863C7.64282 11.511 7.69173 11.615 7.68961 11.6171C7.6886 11.6181 7.67474 11.6265 7.65298 11.6397C7.62875 11.6545 7.59469 11.6752 7.55776 11.6982C7.48758 11.7418 7.37488 11.8333 7.30683 11.904C7.2409 11.9747 7.15584 12.0829 7.12181 12.1453C7.08779 12.2076 7.041 12.3158 7.01549 12.3844C6.99209 12.453 6.96232 12.6069 6.94956 12.7275C6.93255 12.9022 6.91766 12.9666 6.87088 13.0477C6.83898 13.1039 6.78369 13.1683 6.74966 13.1933C6.71564 13.2161 6.51361 13.3264 6.30308 13.4366C5.99473 13.5967 5.90967 13.6507 5.86076 13.7173C5.82248 13.7693 5.79696 13.8358 5.78845 13.9024C5.78207 13.971 5.78845 14.0354 5.80972 14.0895C5.82886 14.1352 5.87777 14.2039 5.91818 14.2392C5.96071 14.2766 6.03514 14.3182 6.08405 14.3307C6.13509 14.3432 6.20952 14.3474 6.24992 14.339C6.29032 14.3307 6.47321 14.2538 6.65397 14.1644C6.83473 14.077 7.06014 13.9543 7.15159 13.892C7.24303 13.8296 7.37275 13.7214 7.43655 13.6528C7.50247 13.5842 7.58541 13.4636 7.62581 13.3825C7.66409 13.3014 7.71087 13.1725 7.72789 13.0914C7.7449 13.0103 7.75978 12.8855 7.75978 12.8107C7.75978 12.7233 7.77467 12.6464 7.80019 12.5923C7.82145 12.5466 7.87249 12.48 7.91077 12.4426C7.95118 12.4073 8.04687 12.3449 8.12768 12.3033C8.2489 12.2388 8.27654 12.2326 8.31057 12.2534C8.3176 12.2582 8.33206 12.268 8.35135 12.2811L8.35188 12.2814C8.39095 12.3079 8.44952 12.3477 8.50621 12.3865C8.5934 12.4447 8.73588 12.5279 8.82307 12.5715C8.91026 12.6152 9.04211 12.6713 9.11654 12.6984C9.18884 12.7254 9.32281 12.767 9.41426 12.7878C9.50357 12.8107 9.60352 12.8335 9.63755 12.8398C9.6822 12.8502 9.69709 12.8668 9.70772 12.9188C9.7141 12.9562 9.70772 13.0165 9.69496 13.0498C9.68008 13.0831 9.62691 13.1579 9.57587 13.2161C9.52484 13.2723 9.45891 13.3659 9.42914 13.4241C9.4015 13.4802 9.36109 13.5884 9.34195 13.6632C9.31856 13.7568 9.31005 13.8504 9.31643 13.9647C9.32281 14.0604 9.34621 14.1852 9.37385 14.2559C9.39937 14.3245 9.56524 14.6177 9.74387 14.9088C9.92038 15.1999 10.0926 15.4598 10.1267 15.4848C10.1586 15.5118 10.2202 15.543 10.2649 15.5555C10.3074 15.5659 10.3585 15.5763 10.3755 15.5763C10.3925 15.5763 10.4435 15.5659 10.4882 15.5555C10.5307 15.543 10.5966 15.5097 10.6328 15.4765C10.6711 15.4453 10.72 15.3829 10.7434 15.3371C10.7731 15.2768 10.7816 15.2269 10.7753 15.15C10.7668 15.0606 10.7221 14.9753 10.4669 14.5574C10.3032 14.2891 10.1564 14.0458 10.1415 14.0167C10.1267 13.9855 10.1203 13.9356 10.1288 13.892C10.1352 13.8504 10.1905 13.7568 10.2564 13.6736C10.3202 13.5925 10.3946 13.4802 10.4244 13.4241C10.4541 13.3659 10.4882 13.2702 10.5009 13.2099C10.5137 13.1517 10.5243 13.0498 10.5243 12.9874C10.5243 12.9146 10.5328 12.871 10.552 12.8647C10.5647 12.8606 10.6434 12.846 10.7263 12.8315C10.8093 12.8169 10.9262 12.7878 10.9879 12.767C11.0475 12.7441 11.1028 12.7296 11.1091 12.7316C11.1134 12.7358 11.1453 12.7857 11.1772 12.846C11.2091 12.9042 11.2814 13.0103 11.3388 13.0789C11.3941 13.1496 11.494 13.2473 11.5621 13.2993C11.628 13.3492 11.7492 13.4282 11.83 13.4698C11.9108 13.5135 12.0129 13.5904 12.0597 13.6424C12.1107 13.7007 12.1554 13.7797 12.1767 13.8504C12.2022 13.9356 12.2064 14.0126 12.1979 14.1519C12.1916 14.2559 12.1639 14.4284 12.1384 14.5366C12.1129 14.6447 12.0916 14.8048 12.0895 14.8901C12.0874 15.0128 12.0959 15.0606 12.1299 15.1167C12.1533 15.1562 12.2107 15.2061 12.2575 15.229C12.3043 15.254 12.3851 15.2768 12.4382 15.281C12.4914 15.2872 12.568 15.281 12.6084 15.2685C12.6488 15.2561 12.7168 15.2145 12.7572 15.175C12.7976 15.1354 12.8423 15.0731 12.8572 15.0336C12.8699 14.994 12.9103 14.8131 12.9465 14.6301C12.9826 14.4472 13.0188 14.2413 13.0252 14.1727C13.0316 14.1041 13.0273 13.9772 13.0145 13.892C12.9997 13.8067 12.9656 13.6715 12.9359 13.5904C12.9082 13.5093 12.8529 13.3929 12.8146 13.3305C12.7785 13.2681 12.6743 13.1455 12.5871 13.0581C12.4871 12.9583 12.3638 12.8647 12.2575 12.8023C12.1639 12.7504 12.0491 12.6713 12.0044 12.6277C11.9598 12.5861 11.8981 12.4988 11.8683 12.4364C11.8173 12.3262 11.8173 12.322 11.8556 12.3033C11.879 12.2929 11.9576 12.2263 12.0342 12.1577C12.1086 12.087 12.4489 11.7564 12.7891 11.4237C13.1932 11.0244 13.4207 10.8144 13.4484 10.8144C13.4718 10.8165 13.5462 10.8456 13.6164 10.883C13.6844 10.9205 13.778 10.9891 13.8226 11.0369C13.8694 11.0868 13.929 11.17 13.9566 11.2241C13.9843 11.2802 14.0481 11.4362 14.097 11.5734C14.148 11.7107 14.2118 11.8687 14.2416 11.9269C14.2713 11.9831 14.3309 12.0808 14.3755 12.139C14.4223 12.1993 14.5223 12.3012 14.6031 12.3636C14.6818 12.4281 14.8179 12.5154 14.9051 12.5591C14.9922 12.6048 15.1305 12.6651 15.2134 12.6942C15.2985 12.7254 15.4048 12.7483 15.4643 12.7483C15.5196 12.7483 15.5962 12.7337 15.6345 12.715C15.6706 12.6963 15.7195 12.6651 15.7429 12.6464C15.7642 12.6277 15.8003 12.5757 15.8237 12.5299C15.8556 12.4676 15.8641 12.4177 15.8599 12.3303C15.8535 12.2513 15.8344 12.191 15.7982 12.139C15.7642 12.087 15.7047 12.0434 15.6281 12.008C15.5643 11.9789 15.4452 11.9228 15.3623 11.8832C15.2793 11.8458 15.1666 11.7689 15.1113 11.7148C15.0539 11.6587 14.9859 11.5776 14.9582 11.5318C14.9306 11.4861 14.8647 11.3218 14.8094 11.1679C14.7562 11.0141 14.6796 10.8311 14.6435 10.7624C14.6052 10.6938 14.5095 10.5711 14.4266 10.49C14.3436 10.4089 14.2267 10.3112 14.165 10.2717C14.1033 10.2322 14.0544 10.1968 14.0544 10.1906C14.0544 10.1844 14.3011 9.939 14.601 9.64372L15.1496 9.10723C15.4473 9.20912 15.5622 9.25279 15.5962 9.2715C15.6302 9.28814 15.6898 9.32349 15.7238 9.34844C15.7578 9.37548 15.8174 9.45033 15.8556 9.51688C15.8918 9.5855 15.9683 9.69986 16.0258 9.77264C16.0811 9.84542 16.1767 9.94523 16.2342 9.99306C16.2937 10.0388 16.3788 10.1012 16.4256 10.1303C16.4723 10.1594 16.5723 10.2072 16.6488 10.2384C16.7254 10.2675 16.836 10.3029 16.8934 10.3174C16.9529 10.3299 17.0912 10.3403 17.2018 10.3403C17.3123 10.3403 17.5037 10.3258 17.6271 10.3071C17.7504 10.2883 17.9375 10.253 18.0418 10.226C18.1566 10.1989 18.265 10.1573 18.3076 10.1261C18.348 10.097 18.4011 10.0367 18.4245 9.99098C18.4501 9.94316 18.4671 9.8683 18.4671 9.80591C18.4671 9.73937 18.4501 9.67075 18.4224 9.61877C18.399 9.57302 18.3416 9.50856 18.2948 9.47737C18.2459 9.44202 18.1715 9.4129 18.1162 9.40667C18.0524 9.40043 17.9333 9.41498 17.7547 9.45449C17.5484 9.50024 17.4336 9.51272 17.2443 9.5148C17.021 9.5148 16.9912 9.51064 16.8934 9.46073C16.836 9.43162 16.7552 9.36924 16.719 9.32557C16.6807 9.2819 16.6233 9.19457 16.5914 9.13426C16.5574 9.07188 16.483 8.96375 16.4234 8.89513C16.366 8.82443 16.2554 8.72046 16.1789 8.66432C16.1044 8.60817 15.9896 8.53955 15.9258 8.50836C15.862 8.47925 15.8067 8.4543 15.8025 8.4543C15.7982 8.4543 15.8471 8.3836 15.9088 8.29834C15.9705 8.21308 16.0555 8.07584 16.0981 7.99683C16.1406 7.91573 16.2108 7.76185 16.2512 7.65372C16.2916 7.54559 16.3447 7.37092 16.366 7.26903L16.4064 7.08188C16.5042 7.09228 16.5978 7.08396 16.6807 7.07149C16.7637 7.05901 16.8764 7.02782 16.9359 7.00287C16.9934 6.97791 17.1188 6.90306 17.2124 6.83651C17.306 6.76997 17.4123 6.71175 17.4463 6.70551C17.4825 6.69719 17.5356 6.70551 17.5675 6.72007C17.5994 6.7367 17.7462 6.85731 17.895 6.98831L17.9082 6.99972L17.9099 7.00126C18.0595 7.131 18.2579 7.30313 18.3607 7.38964C18.4649 7.48113 18.5819 7.56847 18.6159 7.5851C18.6563 7.6059 18.718 7.61421 18.7882 7.61005C18.8669 7.60382 18.9243 7.5851 18.9902 7.53935C19.0391 7.50608 19.0987 7.43954 19.1242 7.3938C19.1497 7.34181 19.1667 7.27111 19.1667 7.20665C19.1667 7.14011 19.1518 7.07565 19.1242 7.0299C19.1008 6.99039 18.8435 6.7575 18.55 6.51005C18.0843 6.11912 17.9992 6.05673 17.8695 6.00683C17.7866 5.97564 17.6547 5.94653 17.5633 5.93821C17.4548 5.92781 17.357 5.93405 17.2549 5.95484C17.172 5.97148 17.0486 6.01307 16.9785 6.04842C16.9083 6.08169 16.8083 6.14823 16.7552 6.1919C16.702 6.23764 16.6382 6.28547 16.6127 6.29795C16.5851 6.3125 16.5319 6.3229 16.4957 6.3229C16.4575 6.3229 16.4149 6.31458 16.4043 6.30626C16.3915 6.29795 16.3681 6.22725 16.3511 6.14615C16.3362 6.06505 16.298 5.92573 16.2639 5.83424C16.232 5.74274 16.1895 5.63046 16.1704 5.58471C16.1512 5.53896 16.0832 5.41628 16.0194 5.31438C15.9577 5.21249 15.8684 5.07941 15.8216 5.02327L15.7365 4.9193C16.0258 4.77374 16.1427 4.7072 16.1831 4.67601C16.2235 4.64481 16.2788 4.59907 16.3086 4.57203C16.3384 4.545 16.3979 4.48262 16.4404 4.43063C16.483 4.37865 16.5468 4.28092 16.5808 4.2123C16.6169 4.14368 16.6616 4.03139 16.6786 3.96277C16.6978 3.89415 16.719 3.7673 16.7254 3.68205C16.7318 3.59679 16.7467 3.49698 16.7573 3.46371C16.7658 3.42836 16.8041 3.36182 16.8402 3.31191C16.8955 3.23497 16.9551 3.19962 17.3038 3.02911C17.5378 2.91474 17.727 2.80869 17.7653 2.76918C17.7993 2.73383 17.8397 2.67353 17.8546 2.6361C17.8674 2.60075 17.8801 2.53837 17.8801 2.50094C17.8823 2.46559 17.8674 2.39905 17.8482 2.35538C17.8312 2.31379 17.7951 2.25557 17.7695 2.22854C17.744 2.2015 17.6845 2.162 17.6377 2.1412C17.5909 2.12041 17.5144 2.10169 17.4676 2.10169C17.4059 2.10169 17.2975 2.13912 17.0848 2.23685C16.921 2.31171 16.7105 2.41776 16.6169 2.47183C16.5191 2.52797 16.3788 2.6361 16.2873 2.72552C16.1938 2.81701 16.0981 2.93346 16.0598 3.00624C16.0215 3.07486 15.9769 3.18715 15.9598 3.25577C15.9407 3.32439 15.9194 3.46579 15.9131 3.56768C15.9067 3.66957 15.8918 3.78186 15.8812 3.81721C15.8726 3.85048 15.8216 3.9191 15.7727 3.96901C15.711 4.02931 15.5856 4.10625 15.3899 4.20398C15.2283 4.283 15.0837 4.34746 15.0709 4.34746C15.056 4.34954 14.9859 4.31627 14.9157 4.27468C14.8455 4.23309 14.6924 4.16447 14.5754 4.1208C14.4585 4.07713 14.2862 4.02307 14.1927 4.00436C14.1599 3.99707 14.1276 3.99003 14.0989 3.98379C14.046 3.97225 14.0053 3.96338 13.997 3.96069C13.98 3.95445 13.9694 3.91494 13.9694 3.8588C13.9694 3.80681 13.98 3.74443 13.9949 3.7174C14.0076 3.69244 14.0502 3.63838 14.0906 3.59887C14.1289 3.55936 14.1884 3.4741 14.2224 3.41172C14.2565 3.34934 14.299 3.24537 14.3181 3.18299C14.3373 3.11853 14.3522 2.99376 14.3522 2.89603C14.3522 2.7671 14.3394 2.68601 14.2969 2.56332C14.2671 2.47599 14.2139 2.36578 14.182 2.32003C14.148 2.27428 13.9396 2.03099 13.7163 1.77938C13.4547 1.48619 13.2804 1.30736 13.2293 1.2824C13.1868 1.25953 13.1124 1.23874 13.0656 1.23458C13.0188 1.2325 12.9507 1.23874 12.9167 1.25121ZM13.7035 5.63461C13.6568 5.64501 13.5696 5.6762 13.5122 5.70323C13.4526 5.73235 13.359 5.80097 13.3016 5.85711C13.24 5.91533 13.1698 6.01515 13.1315 6.09416C13.0741 6.21269 13.0677 6.2522 13.0677 6.41647C13.0677 6.58491 13.0741 6.61818 13.1358 6.74294C13.174 6.82404 13.2463 6.92593 13.3059 6.98207C13.3612 7.03406 13.4675 7.10684 13.5441 7.14219C13.6653 7.19833 13.7035 7.20457 13.8737 7.20457C14.0459 7.20457 14.0799 7.19833 14.2097 7.13803C14.2883 7.1006 14.3947 7.0299 14.4478 6.97791C14.501 6.92593 14.5733 6.82196 14.6116 6.74294C14.6733 6.61818 14.6796 6.58491 14.6796 6.41647C14.6796 6.25012 14.6733 6.21269 14.6158 6.09416C14.5797 6.01931 14.5053 5.91533 14.4521 5.85919C14.3968 5.80513 14.2926 5.73443 14.2203 5.69908C14.1246 5.65541 14.0438 5.63461 13.9375 5.62838C13.8545 5.62214 13.7503 5.6263 13.7035 5.63461ZM11.2474 6.85107C11.207 6.86563 11.1474 6.91137 11.1155 6.95504C11.0836 6.99663 11.0453 7.06941 11.0326 7.11723C11.0134 7.18378 11.0134 7.22952 11.0326 7.30022C11.0475 7.35221 11.0836 7.42499 11.1155 7.4645C11.1474 7.504 11.2112 7.55391 11.258 7.57471C11.3048 7.5955 11.3813 7.61213 11.4281 7.61213C11.4749 7.61213 11.5515 7.5955 11.5982 7.57471C11.645 7.55391 11.7088 7.504 11.7407 7.4645C11.7726 7.42499 11.8088 7.35221 11.8237 7.30022C11.8428 7.22952 11.8428 7.18378 11.8237 7.11723C11.8109 7.06941 11.7684 6.99663 11.7322 6.95296C11.6939 6.91137 11.6301 6.86563 11.594 6.84899C11.5557 6.83443 11.4792 6.82196 11.4239 6.82196C11.3664 6.82404 11.2878 6.83651 11.2474 6.85107ZM8.67421 9.74561C8.70398 9.71234 8.76565 9.66659 8.81243 9.64788C8.85922 9.62708 8.9379 9.60837 8.98894 9.60837C9.03785 9.60837 9.11441 9.625 9.15906 9.64788C9.2016 9.66867 9.26114 9.71234 9.29091 9.74561C9.32068 9.77888 9.35896 9.8475 9.37385 9.89949C9.39724 9.97851 9.39724 10.0097 9.37385 10.097C9.35896 10.1532 9.32068 10.228 9.29091 10.2613C9.26114 10.2946 9.2016 10.3382 9.15906 10.359C9.11441 10.3819 9.03785 10.3985 8.98894 10.3985C8.9379 10.3985 8.85922 10.3798 8.81243 10.359C8.76565 10.3403 8.70398 10.2946 8.67421 10.2613C8.64443 10.228 8.60616 10.1532 8.59127 10.097C8.56788 10.0097 8.56788 9.97851 8.59127 9.89949C8.60616 9.8475 8.64443 9.77888 8.67421 9.74561ZM11.258 9.64788C11.2112 9.66659 11.1495 9.71234 11.1198 9.74561C11.09 9.77888 11.0517 9.8475 11.0368 9.89949C11.0134 9.97851 11.0134 10.0097 11.0368 10.097C11.0517 10.1532 11.09 10.228 11.1198 10.2613C11.1495 10.2946 11.2112 10.3403 11.258 10.359C11.3048 10.3798 11.3813 10.3985 11.4281 10.3985C11.4749 10.3985 11.5515 10.3798 11.5982 10.359C11.645 10.3403 11.7067 10.2946 11.7365 10.2613C11.7662 10.228 11.8045 10.1532 11.8194 10.097C11.8428 10.0097 11.8428 9.97851 11.8194 9.89949C11.8045 9.8475 11.7662 9.77888 11.7365 9.74561C11.7067 9.71234 11.645 9.66659 11.5982 9.64788C11.5515 9.62708 11.4749 9.60837 11.4281 9.60837C11.3813 9.60837 11.3048 9.62708 11.258 9.64788Z" fill="white"/>
<path d="M1.28438 7.30022C1.34392 7.27319 1.42048 7.24408 1.4545 7.23368C1.49066 7.22536 1.59486 7.2212 1.68843 7.22536C1.81602 7.2316 1.89045 7.24616 1.98189 7.28775C2.04994 7.31894 2.15202 7.38964 2.21582 7.44994C2.27536 7.51024 2.34766 7.60174 2.37318 7.65372C2.3987 7.70571 2.4306 7.80344 2.44336 7.87206C2.45825 7.94068 2.46037 8.04257 2.45399 8.1008C2.44549 8.15694 2.41784 8.25675 2.39445 8.31913C2.3668 8.38775 2.30726 8.47925 2.24134 8.54787C2.17754 8.61233 2.08184 8.68511 2.01592 8.7163C1.95212 8.74749 1.84367 8.78284 1.77349 8.79532C1.67992 8.81195 1.61187 8.81195 1.5183 8.79532C1.44813 8.78284 1.33754 8.74749 1.27375 8.71422C1.20357 8.68095 1.11 8.60817 1.04408 8.53539C0.978153 8.46469 0.914356 8.36904 0.890964 8.30874C0.869698 8.25051 0.846306 8.15694 0.837799 8.1008C0.829293 8.04257 0.833546 7.94068 0.846306 7.87206C0.861192 7.80344 0.89309 7.70571 0.918609 7.65372C0.944128 7.60174 1.0143 7.51232 1.07172 7.45618C1.13127 7.39796 1.22696 7.32725 1.28438 7.30022Z" fill="white"/>
<path d="M3.50664 14.4284C3.46624 14.4513 3.36842 14.5407 3.28973 14.6322L3.14725 14.7965C2.91121 14.7466 2.84741 14.7466 2.74108 14.7632L2.60285 14.784C2.35617 14.5387 2.25197 14.4555 2.21582 14.4409C2.17754 14.4243 2.10311 14.4118 2.04994 14.4118C1.99678 14.4118 1.9181 14.4305 1.87557 14.4513C1.83091 14.4721 1.77136 14.5158 1.74159 14.547C1.71182 14.5782 1.67779 14.6468 1.66291 14.7008C1.6459 14.7695 1.6459 14.8256 1.66291 14.9005C1.68205 14.9899 1.70969 15.0273 1.85217 15.1708L2.01805 15.3371C2.03081 15.6761 2.04144 15.7967 2.04994 15.8258C2.0627 15.8716 2.04782 15.8924 1.90746 16.0026C1.81815 16.0753 1.73734 16.1606 1.71607 16.2063C1.69481 16.25 1.67779 16.3311 1.67779 16.3914C1.67779 16.4704 1.69268 16.5266 1.72883 16.5848C1.75648 16.6305 1.81602 16.6888 1.86068 16.7116C1.90746 16.7366 1.97126 16.7636 2.00741 16.7719C2.04356 16.7782 2.10949 16.7761 2.15627 16.7636C2.20518 16.7511 2.31577 16.6846 2.41784 16.6056C2.51354 16.5307 2.5986 16.4704 2.60711 16.4704C2.61774 16.4704 2.66878 16.5162 2.72194 16.5702L2.82189 16.668C2.60923 16.8614 2.52842 16.9549 2.50503 17.0007C2.48376 17.0464 2.46463 17.1254 2.46463 17.1774C2.46463 17.2336 2.48376 17.3084 2.51354 17.3625C2.54118 17.4186 2.59435 17.4769 2.64538 17.5081C2.69217 17.5372 2.77298 17.5642 2.82614 17.5704C2.87931 17.5746 2.96012 17.5663 3.0069 17.5496C3.06007 17.533 3.14725 17.4706 3.24508 17.3771L3.39819 17.2294C3.54705 17.375 3.59171 17.427 3.59171 17.4374C3.58958 17.4478 3.52791 17.533 3.45135 17.6245C3.36629 17.7243 3.30462 17.8241 3.28973 17.874C3.2791 17.9198 3.27485 17.9926 3.28123 18.0341C3.28761 18.0778 3.31738 18.1485 3.34503 18.1901C3.3748 18.2338 3.43859 18.292 3.48963 18.319C3.55343 18.3544 3.61297 18.3689 3.6874 18.3689C3.74482 18.3689 3.82138 18.3544 3.85753 18.3377C3.89368 18.319 3.98938 18.2338 4.07019 18.1464L4.21905 17.9842C4.50401 18.0425 4.57631 18.0466 4.65074 18.0321L4.75069 18.0134C5.08243 18.3253 5.13985 18.3648 5.20152 18.3752C5.24618 18.3835 5.32699 18.3856 5.38015 18.3814C5.44608 18.3752 5.50137 18.3544 5.55878 18.3107C5.60344 18.2774 5.65873 18.2109 5.68 18.1651C5.70126 18.1194 5.71828 18.0425 5.71828 17.9926C5.71828 17.9447 5.70552 17.874 5.68851 17.8366C5.67362 17.8013 5.59068 17.6952 5.50349 17.6058L5.34613 17.4415C5.35676 17.1608 5.34825 17.0714 5.32699 17.0048L5.29296 16.9071C5.51625 16.7366 5.6077 16.6493 5.64385 16.6056C5.69063 16.5474 5.70977 16.4975 5.71615 16.4205C5.7204 16.3477 5.7119 16.2854 5.68213 16.2209C5.65873 16.1668 5.60557 16.1003 5.55878 16.0649C5.50137 16.0213 5.44608 16.0005 5.38015 15.9942C5.32699 15.9901 5.24831 15.9922 5.2079 15.9984C5.16112 16.0067 5.06542 16.0649 4.94208 16.1606L4.75069 16.3082L4.54441 16.1065C4.73368 15.9298 4.81023 15.8424 4.83788 15.7988C4.86552 15.7572 4.89529 15.6865 4.90167 15.6428C4.90805 15.6012 4.90167 15.5243 4.88891 15.4723C4.8719 15.4162 4.8315 15.3496 4.78471 15.3039C4.73793 15.2581 4.66988 15.2186 4.61246 15.202C4.5593 15.1874 4.47849 15.1833 4.4317 15.1916C4.38492 15.1978 4.31899 15.2228 4.28284 15.2436C4.24669 15.2644 4.16163 15.3392 4.09145 15.4099L3.96386 15.5389L3.75758 15.3371C4.00639 15.0273 4.06593 14.9317 4.08082 14.8734C4.0957 14.8131 4.0957 14.7591 4.07869 14.6967C4.06593 14.6489 4.02978 14.5782 4.00001 14.5387C3.96811 14.4991 3.90431 14.4492 3.85753 14.4284C3.81074 14.4077 3.72993 14.391 3.67677 14.391C3.62361 14.391 3.54705 14.4077 3.50664 14.4284Z" fill="white"/>
<path d="M16.7658 15.6699C16.8126 15.6491 16.904 15.62 16.9678 15.6054C17.0316 15.5908 17.0997 15.5784 17.1167 15.5784C17.1337 15.5763 17.206 15.5867 17.2762 15.5992C17.3464 15.6116 17.4421 15.6407 17.4888 15.6636C17.5356 15.6865 17.6122 15.7364 17.659 15.7738C17.7058 15.8092 17.7738 15.8861 17.8121 15.9423C17.8482 15.9984 17.895 16.1003 17.9142 16.1689C17.9397 16.2542 17.9482 16.3394 17.9418 16.4392C17.9354 16.5328 17.9142 16.6264 17.8801 16.6992C17.8504 16.7615 17.7844 16.8593 17.7334 16.9133C17.6802 16.9695 17.5952 17.0381 17.542 17.0693C17.4888 17.0984 17.3974 17.1338 17.34 17.1504C17.2804 17.165 17.1911 17.1774 17.138 17.1774C17.0848 17.1774 16.9891 17.1629 16.9253 17.1462C16.8615 17.1296 16.7701 17.0922 16.7233 17.0651C16.6765 17.0381 16.5936 16.9674 16.5361 16.9092C16.4808 16.851 16.4149 16.7595 16.3894 16.7033C16.349 16.6222 16.3426 16.5682 16.3405 16.3769C16.3405 16.1544 16.3426 16.144 16.4149 16.015C16.4553 15.9423 16.5319 15.8424 16.5851 15.7967C16.6382 15.7489 16.7212 15.6927 16.7658 15.6699Z" fill="white"/>
<path d="M12.0874 17.5933C12.0406 17.6016 11.9576 17.6287 11.9002 17.6536C11.8449 17.6765 11.7514 17.7409 11.6918 17.795C11.6323 17.8512 11.5536 17.951 11.5153 18.0196C11.4536 18.1381 11.4494 18.1568 11.4494 18.3731C11.4494 18.5893 11.4536 18.6081 11.5153 18.7266C11.5557 18.8014 11.6301 18.895 11.7067 18.9616C11.779 19.026 11.8768 19.0884 11.9385 19.1113C11.9959 19.13 12.0916 19.1549 12.1512 19.1633C12.2107 19.1695 12.3149 19.1674 12.3851 19.1529C12.4553 19.1404 12.5552 19.1092 12.6084 19.0842C12.6615 19.0593 12.7551 18.9886 12.8146 18.9283C12.8763 18.8701 12.9529 18.7661 12.9848 18.6996C13.0358 18.5956 13.0422 18.5561 13.0422 18.3731C13.0443 18.1859 13.0379 18.1527 12.9805 18.0404C12.9465 17.9718 12.8699 17.8678 12.8125 17.8116C12.753 17.7534 12.6615 17.6869 12.6084 17.6619C12.5552 17.637 12.4595 17.6058 12.3957 17.5933C12.3319 17.5829 12.2554 17.5725 12.2256 17.5746C12.1958 17.5767 12.1341 17.585 12.0874 17.5933Z" fill="white"/>
</svg>
