<svg width="20" height="20" viewBox="0 0 20 20" fill="none" xmlns="http://www.w3.org/2000/svg">
<path fill-rule="evenodd" clip-rule="evenodd" d="M6.79636 0.416748C6.8045 0.416748 6.91849 0.559877 7.04876 0.735412C7.18175 0.908246 7.3853 1.1864 7.502 1.34843C7.6187 1.51047 7.83854 1.83453 7.99052 2.06408C8.14251 2.29362 8.35148 2.61499 8.4519 2.77972C8.55503 2.94445 8.77215 3.30902 8.93228 3.58988C9.09512 3.87074 9.39095 4.42435 9.58907 4.81863C9.78991 5.2129 10.0287 5.699 10.121 5.89884C10.2133 6.09868 10.3761 6.46325 10.4793 6.709C10.5824 6.95475 10.7371 7.32473 10.8185 7.53267C10.8999 7.74061 11.0166 8.04307 11.0763 8.2078C11.1361 8.37253 11.25 8.6939 11.3287 8.92344C11.4075 9.15299 11.5323 9.53647 11.6083 9.77411C11.6816 10.0118 11.7738 10.3088 11.8118 10.4357C11.8498 10.5627 11.9367 10.8705 12.0045 11.1244C12.0697 11.3782 12.1619 11.7347 12.2081 11.921C12.2515 12.1074 12.3194 12.399 12.3574 12.5692C12.3954 12.7393 12.4741 13.1228 12.5338 13.4198C12.5908 13.7169 12.6613 14.095 12.6885 14.257C12.7237 14.4676 12.74 14.6972 12.74 15.0537C12.74 15.4236 12.7265 15.6154 12.6912 15.7963C12.664 15.9313 12.6098 16.1366 12.5718 16.2554C12.5338 16.3742 12.4605 16.5552 12.4062 16.6605C12.3546 16.7658 12.2624 16.9224 12.1972 17.0116C12.1348 17.1007 12.0235 17.2276 11.9475 17.2951C11.8743 17.3626 11.7413 17.4544 11.6517 17.5031C11.5649 17.549 11.4129 17.6084 11.3152 17.63C11.2175 17.6543 11.0492 17.6732 10.9406 17.6732C10.8348 17.6732 10.6502 17.6543 10.5363 17.63C10.4196 17.6057 10.2459 17.5571 10.1482 17.5193C10.0505 17.4787 9.89847 17.4031 9.80891 17.3464C9.71934 17.2924 9.57279 17.1682 9.48594 17.0764C9.39909 16.9819 9.29053 16.8414 9.24982 16.7685C9.2064 16.6929 9.14126 16.5417 9.10326 16.4309C9.06798 16.3202 9.02456 16.1501 9.00827 16.0529C8.9947 15.9556 8.98113 15.7126 8.98113 15.5128C8.98113 15.3129 9.00013 15.0321 9.02184 14.8916C9.04356 14.7512 9.09512 14.519 9.13855 14.3785C9.18468 14.2381 9.28782 13.9329 9.36924 13.7034C9.45066 13.4739 9.54836 13.1687 9.58636 13.0283C9.62435 12.8878 9.68135 12.6502 9.71392 12.5017C9.74377 12.3531 9.79534 12.0615 9.82248 11.8535C9.85233 11.6456 9.89033 11.2216 9.90932 10.9083C9.93375 10.4655 9.93375 10.2116 9.90932 9.74711C9.89033 9.42034 9.85233 8.96935 9.82519 8.74791C9.79534 8.52376 9.74648 8.1916 9.71392 8.00526C9.68135 7.81892 9.61892 7.50296 9.57279 7.30312C9.52936 7.10328 9.45608 6.79812 9.40995 6.62799C9.36652 6.45785 9.27696 6.14189 9.21182 5.92585C9.14669 5.7098 9.04356 5.38304 8.98113 5.1967C8.91871 5.01036 8.80201 4.689 8.7233 4.48106C8.64188 4.27312 8.51975 3.96255 8.4519 3.79242C8.38134 3.62229 8.23207 3.27392 8.11808 3.02277C8.00409 2.77162 7.76797 2.27742 7.59428 1.92905C7.41787 1.58068 7.18175 1.12429 7.06776 0.916348C6.95377 0.708406 6.8425 0.511267 6.82078 0.47616C6.79907 0.443753 6.78822 0.416748 6.79636 0.416748V0.416748ZM0.130757 11.786H4.34018C8.02038 11.786 8.55775 11.7914 8.64188 11.8265C8.69345 11.8481 8.77487 11.9183 8.81829 11.9832C8.88614 12.075 8.90243 12.1236 8.89971 12.2397C8.89971 12.3234 8.87257 12.453 8.82915 12.5638C8.79115 12.6637 8.69345 12.9337 8.61203 13.1633C8.53332 13.3928 8.43019 13.7277 8.38677 13.9059C8.34063 14.0842 8.28092 14.4082 8.25107 14.6297C8.21307 14.8997 8.19407 15.1698 8.19407 15.4722C8.19407 15.7342 8.21036 16.0313 8.23478 16.196C8.25921 16.3472 8.30263 16.5633 8.33249 16.674C8.36505 16.7847 8.41933 16.9494 8.45733 17.0386C8.49533 17.1277 8.57675 17.2843 8.63917 17.3869C8.69888 17.4896 8.82915 17.6597 8.92685 17.7623C9.02456 17.8649 9.1874 18.0054 9.29324 18.0756C9.39909 18.1458 9.58093 18.243 9.70035 18.2916C9.81976 18.3429 10.0342 18.4131 10.1753 18.4482C10.3598 18.4969 10.5363 18.5185 10.7995 18.5293C11.0791 18.5401 11.2175 18.5347 11.383 18.4996C11.5024 18.4752 11.6843 18.4212 11.7901 18.3834C11.896 18.3429 12.0697 18.2511 12.1782 18.1809C12.2841 18.1107 12.4632 17.9621 12.5718 17.8568C12.683 17.7488 12.835 17.5679 12.9137 17.4571C12.9924 17.3464 13.1064 17.1574 13.1661 17.0386C13.2286 16.9197 13.3154 16.7145 13.3643 16.5795C13.4131 16.4444 13.4728 16.2338 13.4972 16.1069C13.519 15.98 13.5597 15.7018 13.5841 15.4858C13.6139 15.2454 13.6302 14.8916 13.6302 14.5676C13.6302 14.2435 13.6139 13.8843 13.5841 13.6359C13.5597 13.4144 13.5081 13.0364 13.4701 12.7987C13.4294 12.5476 13.4077 12.3261 13.4185 12.2721C13.4294 12.2208 13.4674 12.1317 13.5081 12.075C13.5488 12.0183 13.6302 11.948 13.6899 11.9183C13.7958 11.8697 13.8989 11.867 16.8463 11.867C18.8221 11.867 19.9104 11.8778 19.9457 11.894C19.9973 11.921 20 11.948 20 12.7933C20 13.4387 19.9891 13.6791 19.9647 13.7304C19.9457 13.7682 19.8344 13.8627 19.715 13.941C19.5956 14.0167 19.3948 14.1355 19.2672 14.2003C19.1397 14.2651 18.9524 14.3461 18.8465 14.3785C18.7054 14.4217 18.586 14.4379 18.3852 14.4379C18.1898 14.4379 18.0486 14.4217 17.8831 14.3785C17.7555 14.3461 17.5438 14.2705 17.4081 14.2111C17.2724 14.1517 17.0662 14.068 16.9467 14.0248C16.8273 13.9816 16.6835 13.9464 16.6265 13.9464C16.5722 13.9464 16.4935 13.9626 16.4528 13.9843C16.4094 14.0059 16.3035 14.1058 16.2112 14.2084C16.1217 14.3083 15.986 14.4244 15.9127 14.4649C15.8394 14.5055 15.7064 14.5568 15.6169 14.5784C15.5273 14.6027 15.3862 14.6216 15.3048 14.6216C15.2233 14.6216 15.0714 14.5973 14.9655 14.5676C14.8597 14.5379 14.7538 14.5136 14.7294 14.5136C14.7023 14.5136 14.6534 14.5433 14.6208 14.5784C14.5666 14.6351 14.5557 14.681 14.5367 14.9889C14.5231 15.1806 14.496 15.4831 14.4743 15.6613C14.4553 15.8395 14.4227 16.0691 14.4064 16.1744C14.3901 16.2797 14.3549 16.4552 14.3277 16.566C14.2979 16.6767 14.2273 16.89 14.1676 17.0386C14.1079 17.1871 14.0075 17.4058 13.9451 17.5247C13.8826 17.6435 13.7578 17.8487 13.6655 17.9838C13.5759 18.1161 13.4023 18.3267 13.2828 18.4509C13.1634 18.5779 12.9734 18.748 12.8622 18.8317C12.7509 18.9154 12.5799 19.0289 12.4822 19.0829C12.3845 19.1396 12.2217 19.2179 12.1158 19.2611C12.01 19.3043 11.8227 19.3664 11.6951 19.4015C11.4889 19.4609 11.4075 19.4663 10.9488 19.469C10.558 19.469 10.368 19.4555 10.1617 19.4177C10.0125 19.3907 9.76277 19.3286 9.60536 19.2773C9.44794 19.2287 9.22268 19.1369 9.10326 19.0748C8.98385 19.0154 8.82644 18.9235 8.75044 18.8749C8.67716 18.8236 8.54146 18.7183 8.44919 18.64C8.35691 18.5617 8.2185 18.4239 8.13979 18.3348C8.06109 18.2457 7.94167 18.0891 7.87382 17.9838C7.80597 17.8784 7.69741 17.6867 7.63499 17.5517C7.57256 17.4166 7.49114 17.2114 7.45315 17.0926C7.41515 16.9737 7.36087 16.755 7.3283 16.6065C7.29845 16.4579 7.26045 16.1771 7.24146 15.9854C7.22246 15.7666 7.21703 15.4722 7.2306 15.2022C7.24417 14.897 7.23874 14.7296 7.21432 14.6351C7.19803 14.5622 7.14375 14.4271 7.09761 14.3407C7.05147 14.2516 6.9592 14.1328 6.89135 14.0734C6.8235 14.0167 6.71222 13.9383 6.64166 13.9032C6.56838 13.8681 6.44082 13.8249 6.35669 13.8087C6.23999 13.7871 6.15857 13.7871 6.03644 13.8114C5.94687 13.8303 5.80575 13.8735 5.72433 13.9113C5.64291 13.9464 5.4475 14.0572 5.29008 14.1544C5.13267 14.2543 4.91827 14.3731 4.81513 14.4217C4.712 14.4676 4.55187 14.5217 4.46231 14.5406C4.36732 14.5595 4.24248 14.5649 4.16377 14.5541C4.09049 14.5433 3.98465 14.5136 3.93308 14.4866C3.88151 14.4595 3.73496 14.3758 3.6074 14.2975C3.47984 14.2219 3.28986 14.1355 3.18673 14.1031C3.04017 14.0599 2.91804 14.0464 2.6575 14.0437C2.37524 14.041 2.29653 14.0518 2.18255 14.0977C2.10927 14.1274 1.94914 14.2165 1.82973 14.2975C1.71031 14.3758 1.5529 14.4704 1.4769 14.5055C1.40363 14.5379 1.26793 14.573 1.17836 14.5838C1.0698 14.5946 0.955815 14.5865 0.833685 14.5568C0.730553 14.5325 0.57314 14.4758 0.480864 14.4298C0.385874 14.3812 0.258316 14.3083 0.195894 14.2678C0.128043 14.2219 0.0629072 14.149 0.0384812 14.095C0.00591308 14.0167 -0.00222894 13.8276 0.000485067 11.9183L0.130757 11.786ZM5.75147 15.0564C5.83289 15.0564 5.94687 15.0699 6.00658 15.0888C6.06629 15.1077 6.16671 15.1698 6.23456 15.2292C6.2997 15.2886 6.3784 15.3858 6.40826 15.4452C6.43811 15.5047 6.47068 15.6154 6.47611 15.6883C6.48696 15.7801 6.47611 15.8719 6.44082 15.9718C6.41368 16.0529 6.34855 16.169 6.29427 16.2257C6.2427 16.2824 6.15042 16.3553 6.09072 16.385C6.03101 16.4147 5.91431 16.4444 5.83289 16.4525C5.73518 16.4606 5.63748 16.4498 5.54792 16.4228C5.47192 16.3985 5.36336 16.3391 5.30637 16.2905C5.24666 16.2419 5.17067 16.142 5.13539 16.0664C5.08925 15.9664 5.07296 15.8827 5.07296 15.7423C5.07296 15.6019 5.08925 15.5236 5.13267 15.4344C5.16795 15.3669 5.24395 15.2697 5.30637 15.2184C5.36608 15.1644 5.45835 15.1077 5.50992 15.0915C5.55877 15.0726 5.67005 15.0591 5.75147 15.0564V15.0564ZM19.2129 15.0564C19.3296 15.0564 19.4246 15.0726 19.4979 15.105C19.5576 15.132 19.6418 15.1833 19.6879 15.2211C19.7313 15.2589 19.7992 15.348 19.8372 15.4209C19.8914 15.529 19.905 15.5911 19.905 15.7558C19.9023 15.8989 19.8887 15.9854 19.8534 16.0529C19.8263 16.1042 19.7639 16.1879 19.7177 16.2365C19.6716 16.2878 19.5848 16.3526 19.525 16.3823C19.4653 16.4147 19.3486 16.4444 19.2672 16.4525C19.1695 16.4606 19.0718 16.4498 18.9822 16.4228C18.9063 16.3985 18.7977 16.3391 18.7407 16.2905C18.6837 16.2419 18.605 16.1339 18.567 16.0529C18.5127 15.9421 18.4964 15.8638 18.4964 15.7423C18.4992 15.6316 18.5209 15.5398 18.5643 15.4479C18.5996 15.375 18.6783 15.2724 18.7407 15.2184C18.8004 15.1644 18.8927 15.1077 18.9443 15.0915C18.9931 15.0726 19.1152 15.0591 19.2129 15.0564V15.0564ZM16.2954 15.1644C16.3958 15.1644 16.4989 15.1806 16.5668 15.213C16.6265 15.24 16.7106 15.2913 16.7568 15.3291C16.8002 15.3642 16.8708 15.4614 16.9115 15.5425C16.9712 15.6586 16.9875 15.7261 16.9875 15.8638C16.9875 16.0016 16.9712 16.0718 16.9115 16.1852C16.8708 16.2662 16.7948 16.3661 16.7432 16.4093C16.6916 16.4525 16.5858 16.5066 16.5125 16.5309C16.4229 16.5579 16.3252 16.5687 16.2275 16.5606C16.1461 16.5525 16.0294 16.5228 15.9697 16.4904C15.91 16.4606 15.8259 16.4012 15.7824 16.3607C15.739 16.3175 15.682 16.2338 15.6494 16.1744C15.6196 16.115 15.5897 15.9989 15.5816 15.9178C15.5735 15.8341 15.5843 15.7234 15.6033 15.6613C15.6196 15.6019 15.6684 15.5074 15.7064 15.4479C15.7472 15.3912 15.815 15.3183 15.8611 15.2886C15.9046 15.2562 15.986 15.2157 16.0376 15.1968C16.0891 15.1806 16.2058 15.1644 16.2954 15.1644V15.1644ZM2.26397 15.7558C2.36981 15.7558 2.47023 15.7774 2.54894 15.8125C2.61679 15.8422 2.71178 15.907 2.76063 15.9529C2.8122 16.0016 2.87733 16.088 2.90719 16.1474C2.93704 16.2068 2.96961 16.3229 2.97775 16.4039C2.98589 16.5093 2.97504 16.593 2.93975 16.6983C2.9099 16.7793 2.84205 16.89 2.78506 16.9467C2.73078 17.0062 2.63307 17.0764 2.56794 17.1061C2.49194 17.1412 2.39695 17.1601 2.27754 17.1601C2.15812 17.1601 2.06042 17.1412 1.979 17.1034C1.91115 17.0737 1.82158 17.017 1.77816 16.9764C1.73474 16.9359 1.67231 16.8441 1.63703 16.7685C1.58818 16.6686 1.5719 16.5876 1.5719 16.4579C1.5719 16.3391 1.59089 16.2419 1.62889 16.1609C1.65874 16.0934 1.71574 16.0043 1.75645 15.961C1.79716 15.9205 1.88943 15.8557 1.96543 15.8206C2.06042 15.7747 2.14726 15.7558 2.26397 15.7558ZM4.81513 17.4193C4.88841 17.4274 5.01054 17.4679 5.08382 17.5058C5.15981 17.5463 5.26023 17.63 5.30908 17.6948C5.35793 17.7569 5.41221 17.8595 5.4285 17.9243C5.44478 17.9865 5.45292 18.1053 5.44478 18.1863C5.43935 18.2673 5.41221 18.378 5.38507 18.4293C5.35793 18.4806 5.29823 18.5644 5.25209 18.613C5.20595 18.6643 5.1191 18.7291 5.05939 18.7615C4.97526 18.8047 4.90198 18.8182 4.74728 18.8182C4.59258 18.8182 4.51659 18.8047 4.43517 18.7615C4.37546 18.7318 4.2859 18.6643 4.23705 18.6157C4.1882 18.5644 4.12849 18.4806 4.10406 18.4293C4.07692 18.378 4.0525 18.2565 4.04707 18.1593C4.03893 18.0351 4.04978 17.9486 4.08507 17.8622C4.11221 17.7947 4.17734 17.6948 4.22891 17.6354C4.28319 17.5787 4.35918 17.5139 4.39989 17.495C4.4406 17.4733 4.52202 17.4463 4.5763 17.4328C4.63329 17.4166 4.73914 17.4112 4.81513 17.4193V17.4193ZM18.4666 17.7839C18.5561 17.7839 18.6783 17.7974 18.738 17.8136C18.8031 17.8352 18.9008 17.9 18.985 17.9838C19.0881 18.0864 19.1342 18.1566 19.1695 18.2673C19.1939 18.3483 19.2129 18.4455 19.2129 18.4833C19.2129 18.5212 19.1939 18.613 19.1722 18.6859C19.1505 18.7615 19.0935 18.8695 19.0447 18.9262C18.9958 18.983 18.9008 19.064 18.833 19.1018C18.7271 19.1612 18.6783 19.172 18.491 19.172C18.2956 19.172 18.2576 19.1639 18.1409 19.091C18.0676 19.0478 17.9699 18.9613 17.9238 18.9019C17.8695 18.8344 17.8261 18.7345 17.8044 18.6319C17.7854 18.5401 17.7772 18.4239 17.7881 18.3618C17.7989 18.3024 17.8397 18.1944 17.8776 18.1242C17.9184 18.0513 17.9862 17.9648 18.0323 17.9297C18.0758 17.8946 18.1572 17.8487 18.2088 17.8244C18.2603 17.8028 18.377 17.7839 18.4666 17.7839ZM15.2668 18.4888C15.3998 18.4942 15.4595 18.5131 15.5517 18.5779C15.6169 18.6238 15.6929 18.7102 15.7282 18.7804C15.7662 18.8533 15.7906 18.9505 15.7906 19.0235C15.7906 19.091 15.7689 19.1936 15.7417 19.253C15.7146 19.3124 15.6657 19.388 15.6332 19.4231C15.6006 19.4555 15.5382 19.5015 15.4947 19.5231C15.4486 19.5447 15.3672 19.5717 15.3102 19.5798C15.2559 19.5879 15.1555 19.5825 15.0876 19.5636C15.0089 19.542 14.9248 19.4906 14.8515 19.4177C14.781 19.3475 14.7294 19.2638 14.7077 19.1855C14.6887 19.118 14.6805 19.0154 14.6887 18.9559C14.6995 18.8965 14.743 18.7939 14.7918 18.7291C14.838 18.6643 14.9275 18.5806 14.9899 18.5455C15.0822 18.4915 15.1311 18.4806 15.2668 18.4888V18.4888Z" fill="white"/>
</svg>
