<svg width="15" height="16" viewBox="0 0 15 16" fill="none" xmlns="http://www.w3.org/2000/svg">
<path fill-rule="evenodd" clip-rule="evenodd" d="M3.15317 0.530397C3.03878 0.543425 2.83336 0.578165 2.69797 0.60422C2.56258 0.632446 2.36884 0.678042 2.26613 0.70844C2.16342 0.738837 2.00468 0.797461 1.91598 0.838714C1.82727 0.879968 1.68955 0.955961 1.61252 1.00807C1.53549 1.05801 1.39776 1.17309 1.30906 1.25994C1.21802 1.34896 1.1013 1.47923 1.04995 1.55088C0.996259 1.62253 0.90522 1.76801 0.849197 1.87657C0.790839 1.98513 0.709138 2.15883 0.669454 2.26739C0.627437 2.37596 0.569079 2.55617 0.538733 2.66907C0.506052 2.78198 0.459366 2.99259 0.436023 3.13589C0.410345 3.27919 0.377665 3.50935 0.361325 3.64613C0.347319 3.78292 0.333313 4.1694 0.333313 4.50378C0.335647 4.88809 0.349653 5.25937 0.372996 5.5134C0.396339 5.73487 0.433689 6.06707 0.459366 6.25163C0.485043 6.43618 0.541067 6.78358 0.585419 7.02242C0.629771 7.26126 0.695132 7.5978 0.734815 7.7715C0.772164 7.9452 0.842194 8.23397 0.886546 8.41202C0.933232 8.59223 0.996258 8.83541 1.02894 8.95483C1.03588 8.97851 1.04466 9.00867 1.05482 9.04359C1.0959 9.18474 1.15954 9.40345 1.21568 9.58449C1.28338 9.8103 1.4001 10.1729 1.47246 10.3878C1.54482 10.6028 1.67321 10.9589 1.75725 11.1804C1.83895 11.4018 1.97667 11.747 2.06071 11.9511C2.14474 12.1552 2.29881 12.5005 2.39918 12.7219C2.50189 12.9434 2.69564 13.3299 2.8287 13.5796C2.96175 13.8293 3.15783 14.1702 3.26288 14.333C3.37026 14.498 3.52432 14.7238 3.60836 14.8324C3.69239 14.9431 3.84412 15.1146 3.94683 15.2102C4.06121 15.3187 4.1826 15.4099 4.26197 15.4469C4.37635 15.499 4.40903 15.5055 4.56543 15.4968C4.69148 15.4903 4.77551 15.4729 4.86889 15.4317C4.93892 15.3991 5.0463 15.3253 5.10699 15.2688C5.16768 15.2124 5.25405 15.106 5.30074 15.0343C5.34509 14.9627 5.41979 14.8172 5.46414 14.7086C5.50849 14.6001 5.57618 14.4047 5.61353 14.2744C5.65322 14.1441 5.73725 13.8097 5.80495 13.5362C5.87031 13.2626 5.95901 12.9195 6.00336 12.7762C6.04772 12.6329 6.12241 12.4332 6.1691 12.3311C6.21579 12.2291 6.29049 12.0879 6.33717 12.0163C6.38152 11.9446 6.48657 11.8209 6.5706 11.7427C6.67331 11.6472 6.77602 11.5777 6.8764 11.5343C6.96043 11.4974 7.1075 11.4539 7.2032 11.4409C7.33626 11.4192 7.42029 11.4192 7.56035 11.4387C7.65839 11.4518 7.79612 11.4843 7.86148 11.5104C7.92917 11.5364 8.02722 11.5842 8.07857 11.6168C8.12993 11.6472 8.22563 11.7275 8.29099 11.7905C8.35635 11.8556 8.44973 11.9663 8.49875 12.038C8.54777 12.1096 8.6318 12.2508 8.68082 12.3528C8.73218 12.4549 8.81855 12.6655 8.87224 12.8196C8.92826 12.9738 9.03097 13.3212 9.10567 13.5904C9.17803 13.8597 9.26907 14.181 9.30875 14.3069C9.3461 14.4329 9.41613 14.6218 9.46282 14.7303C9.50951 14.8389 9.58887 14.9931 9.64023 15.0756C9.69392 15.1559 9.78262 15.2645 9.84098 15.3144C9.89934 15.3622 9.99037 15.423 10.0394 15.4447C10.0908 15.4686 10.1958 15.4924 10.2728 15.4968C10.3755 15.5033 10.4386 15.4968 10.5063 15.4664C10.5576 15.4468 10.672 15.3578 10.763 15.2732C10.8541 15.1885 10.9965 15.0213 11.0805 14.9019C11.1645 14.7846 11.2766 14.6196 11.3279 14.5349C11.3816 14.4502 11.503 14.2353 11.5987 14.0573C11.6944 13.877 11.8392 13.5948 11.9185 13.4276C11.9979 13.2604 12.1403 12.9434 12.2337 12.7219C12.327 12.5005 12.4274 12.2616 12.4554 12.19C12.4834 12.1183 12.6001 11.8013 12.7122 11.4843C12.8266 11.1673 12.9876 10.6897 13.0717 10.4204C13.1557 10.1512 13.2748 9.73648 13.3401 9.49764C13.4055 9.2588 13.4989 8.88752 13.5502 8.67257C13.6016 8.45761 13.6693 8.15364 13.7019 7.99948C13.7346 7.84532 13.786 7.56523 13.8187 7.38067C13.8513 7.19612 13.898 6.89214 13.926 6.70759C13.9517 6.52303 13.9891 6.21906 14.0077 6.0345C14.0264 5.84995 14.0521 5.48301 14.0684 5.22029C14.0824 4.95539 14.0871 4.59714 14.0801 4.41693C14.0708 4.23671 14.0544 3.97399 14.0404 3.83069C14.0287 3.68739 13.9961 3.44855 13.9704 3.29873C13.9447 3.14892 13.9004 2.92962 13.8677 2.8102C13.8373 2.69079 13.7906 2.53446 13.7673 2.46281C13.7416 2.39115 13.6833 2.24568 13.6342 2.13712C13.5876 2.02856 13.5105 1.87874 13.4662 1.80058C13.4195 1.72241 13.3308 1.59648 13.2678 1.51831C13.2047 1.44015 13.088 1.31422 13.0086 1.23822C12.9293 1.16223 12.8009 1.05801 12.7239 1.00807C12.6468 0.955961 12.5114 0.879968 12.4204 0.838714C12.3294 0.797461 12.173 0.738837 12.0702 0.70844C11.9675 0.678042 11.7575 0.630275 11.6034 0.599877C11.4493 0.56948 11.2019 0.532569 11.0548 0.51737C10.9031 0.502171 10.6697 0.497829 10.5179 0.504342C10.3709 0.510856 10.1701 0.530397 10.0744 0.549939C9.9787 0.567309 9.8153 0.608562 9.71259 0.641131C9.60988 0.671528 9.30642 0.788776 9.03564 0.90168C8.76486 1.01676 8.44039 1.14269 8.312 1.18394C8.18361 1.2252 7.94785 1.28382 7.78678 1.31422C7.62571 1.34461 7.39928 1.37501 7.2849 1.38153C7.14251 1.39021 6.98611 1.38153 6.80637 1.35547C6.65931 1.33593 6.44222 1.29685 6.32783 1.26862C6.21345 1.24257 6.0127 1.18177 5.88431 1.13835C5.75593 1.09275 5.54117 1.00807 5.40578 0.949448C5.27039 0.888653 5.05563 0.799632 4.92725 0.747522C4.79886 0.697583 4.59344 0.630275 4.47205 0.599877C4.35067 0.56948 4.16859 0.532569 4.07055 0.521712C3.97018 0.508685 3.76943 0.5 3.62703 0.5C3.4823 0.502171 3.26755 0.515199 3.15317 0.530397ZM3.04812 1.47706C2.96409 1.49009 2.81703 1.527 2.72132 1.56174C2.62561 1.59648 2.48322 1.66813 2.40619 1.72024C2.32916 1.77235 2.20544 1.87657 2.13074 1.95474C2.04904 2.03724 1.958 2.16317 1.90431 2.26739C1.85296 2.36293 1.79226 2.51492 1.76425 2.60394C1.73857 2.69296 1.69889 2.8558 1.67788 2.96219C1.6522 3.09681 1.6382 3.28354 1.6382 3.57014C1.6382 3.79595 1.6452 4.01959 1.65454 4.06518C1.66854 4.13466 1.68022 4.14769 1.74791 4.15638C1.78759 4.16289 2.1284 4.17375 2.49956 4.18026C2.92907 4.18895 3.27922 4.1846 3.45663 4.1694C3.61069 4.15638 3.85813 4.12598 4.00519 4.1021C4.15226 4.07821 4.38802 4.03044 4.53041 3.9957C4.67281 3.96097 4.89223 3.89583 5.02062 3.8524C5.14901 3.80681 5.3591 3.72213 5.48748 3.6635C5.61587 3.60271 5.80962 3.50066 5.91933 3.43335C6.02905 3.36604 6.20645 3.23143 6.31383 3.13589C6.42121 3.04036 6.55427 2.90357 6.60796 2.83192C6.66165 2.76027 6.73868 2.64302 6.77836 2.57137C6.81571 2.49972 6.85306 2.42155 6.8624 2.39767C6.8764 2.35642 6.85773 2.35207 6.61496 2.31516C6.47023 2.29345 6.25081 2.2522 6.12942 2.22397C6.00804 2.19574 5.80729 2.14146 5.6859 2.10238C5.56452 2.06547 5.30074 1.96559 5.10232 1.88091C4.90391 1.79841 4.63079 1.68767 4.4954 1.63339C4.36001 1.58128 4.1756 1.52483 4.0869 1.50746C3.99819 1.49226 3.76009 1.47272 3.56167 1.4662C3.36326 1.46186 3.13216 1.4662 3.04812 1.47706Z" fill="white"/>
</svg>
