<svg width="20" height="20" viewBox="0 0 20 20" fill="none" xmlns="http://www.w3.org/2000/svg">
<path d="M11.768 0.164854C11.8222 0.122987 11.9307 0.0706519 12.0039 0.0471013C12.0798 0.0209339 12.1802 0.00261674 12.2236 0C12.2669 0 12.3971 0.0157004 12.5083 0.0366343C12.6195 0.0575682 12.8283 0.109903 12.9693 0.154387C13.1103 0.198872 13.3489 0.293075 13.498 0.366343C13.6472 0.439612 13.8668 0.567832 13.9834 0.648951C14.1 0.73007 14.2953 0.892307 14.4173 1.00744C14.5393 1.1252 14.6993 1.30052 14.7779 1.39995C14.8566 1.50201 14.984 1.6878 15.0654 1.81863C15.144 1.94947 15.2525 2.14834 15.3067 2.26348C15.361 2.37861 15.4369 2.56702 15.4776 2.68216C15.5155 2.79729 15.5779 3.00925 15.6131 3.15317C15.6511 3.29709 15.6972 3.55353 15.7216 3.72362C15.7433 3.89109 15.7623 4.1894 15.7623 4.38303C15.7623 4.57667 15.7433 4.86975 15.7189 5.03199C15.6972 5.19161 15.6538 5.41926 15.624 5.5344C15.5942 5.64953 15.5453 5.81439 15.5128 5.90074C15.483 5.98709 15.4233 6.1284 15.3854 6.21475C15.3447 6.3011 15.2525 6.46072 15.182 6.56801C15.1088 6.6753 14.9867 6.8323 14.9108 6.91865C14.8349 7.00239 14.6993 7.12537 14.6098 7.19079C14.5203 7.25621 14.3495 7.35303 14.2302 7.40798C14.1109 7.46293 13.9102 7.52574 13.7828 7.5519C13.6092 7.58592 13.4818 7.59115 13.2676 7.58069C13.1103 7.57284 12.8933 7.54144 12.7849 7.51003C12.6791 7.48125 12.5137 7.42107 12.4188 7.37658C12.3266 7.3321 12.1775 7.24574 12.088 7.18294C11.9985 7.12276 11.8521 6.99715 11.7653 6.90557C11.6785 6.81398 11.5592 6.67268 11.505 6.59418C11.448 6.51567 11.3667 6.3796 11.3233 6.29325C11.2772 6.2069 11.2148 6.06036 11.1823 5.96616C11.147 5.87196 11.1064 5.72019 11.0847 5.62598C11.0657 5.53178 11.0331 5.29104 11.0142 5.08955C10.987 4.84358 10.9762 4.3464 10.9762 3.57185C10.9789 2.62459 10.987 2.3603 11.025 2.08031C11.0521 1.8919 11.0982 1.62238 11.1281 1.47846C11.1579 1.33454 11.2148 1.12258 11.2528 1.00744C11.2908 0.892307 11.3613 0.722219 11.4101 0.628017C11.4589 0.533814 11.5375 0.408211 11.5836 0.348026C11.6297 0.285224 11.7138 0.204105 11.768 0.164854Z" fill="white"/>
<path d="M6.77312 0.245973C6.906 0.193639 7.15004 0.115136 7.31546 0.0732686C7.52968 0.0209339 7.65984 0.00261674 7.77644 0.00785021C7.86592 0.0130837 7.99608 0.0444845 8.06659 0.0758854C8.1398 0.104669 8.25369 0.188405 8.32419 0.25644C8.39741 0.324475 8.49232 0.452696 8.54113 0.539048C8.58723 0.622783 8.65773 0.774554 8.6984 0.876607C8.73637 0.97866 8.7906 1.15398 8.82043 1.26912C8.84754 1.38425 8.89093 1.58313 8.91262 1.71396C8.93703 1.8448 8.97499 2.15096 8.99669 2.39431C9.02109 2.66122 9.03736 3.13485 9.03736 3.57185C9.03736 3.97482 9.01838 4.54527 8.99669 4.84096C8.97499 5.13665 8.93703 5.47683 8.91262 5.59982C8.88822 5.7228 8.83399 5.91644 8.7906 6.03158C8.74721 6.14671 8.6523 6.34035 8.57638 6.46334C8.50045 6.58633 8.38114 6.74856 8.31064 6.82707C8.24013 6.90557 8.10455 7.03117 8.00693 7.10706C7.90931 7.18294 7.73848 7.29023 7.6273 7.35041C7.51612 7.40798 7.3263 7.48125 7.20699 7.51003C7.08768 7.54144 6.86803 7.57284 6.71889 7.58069C6.52094 7.59115 6.38807 7.5833 6.23079 7.55452C6.11148 7.53097 5.93522 7.48125 5.8376 7.442C5.73998 7.40537 5.58271 7.32425 5.48509 7.26144C5.38747 7.20126 5.23019 7.06781 5.13528 6.97099C5.03766 6.87155 4.90479 6.70931 4.837 6.60726C4.76921 6.50521 4.66888 6.32989 4.61464 6.21475C4.5577 6.09961 4.47635 5.88242 4.43025 5.73065C4.38144 5.57888 4.3245 5.34861 4.30009 5.22039C4.26484 5.04245 4.25399 4.83835 4.25128 4.36995C4.25128 3.84399 4.26213 3.71053 4.31094 3.45409C4.34348 3.28924 4.40313 3.04588 4.4411 2.91766C4.48177 2.78682 4.56312 2.55917 4.62549 2.4074C4.68786 2.25563 4.79904 2.0332 4.87225 1.91022C4.94275 1.78723 5.07291 1.59359 5.15698 1.47846C5.24104 1.36594 5.41187 1.16968 5.53932 1.04669C5.66677 0.923708 5.85658 0.76147 5.95963 0.685585C6.06267 0.612316 6.2335 0.50503 6.33926 0.447462C6.44501 0.387277 6.64025 0.298308 6.77312 0.245973Z" fill="white"/>
<path d="M1.63995 7.80834C1.55589 7.88684 1.442 8.0203 1.39048 8.10403C1.33896 8.18777 1.25761 8.35524 1.2088 8.47823C1.1627 8.60121 1.09491 8.82364 1.06237 8.97541C1.01085 9.21091 1 9.32867 1 9.7866C1 10.0954 1.01356 10.412 1.03525 10.5324C1.05423 10.6475 1.09762 10.8699 1.13558 11.0295C1.17083 11.1866 1.23049 11.4064 1.26574 11.5136C1.30099 11.6209 1.36336 11.791 1.40675 11.8931C1.44742 11.9925 1.51793 12.1338 1.56131 12.2071C1.6047 12.2777 1.69961 12.4086 1.77011 12.4949C1.84061 12.5813 1.97077 12.7069 2.05755 12.7723C2.14703 12.8403 2.3016 12.9345 2.40735 12.9842C2.51039 13.0366 2.68936 13.0994 2.80054 13.1229C2.95782 13.1596 3.06629 13.1674 3.28864 13.1543C3.47575 13.1465 3.63031 13.1203 3.73607 13.0837C3.82555 13.0549 3.97198 12.9921 4.05875 12.945C4.14824 12.8979 4.31094 12.7775 4.42212 12.6781C4.53329 12.576 4.68243 12.4112 4.75023 12.3117C4.82073 12.2097 4.91564 12.0344 4.96174 11.9192C5.00783 11.8041 5.06749 11.6105 5.0919 11.4875C5.12715 11.32 5.13528 11.1866 5.12444 10.938C5.1163 10.7574 5.0919 10.535 5.06478 10.4408C5.04037 10.3466 4.95902 10.1529 4.88852 10.009C4.80717 9.8494 4.68243 9.66099 4.56855 9.52492C4.4655 9.40194 4.22416 9.15596 4.03164 8.97802C3.83911 8.79747 3.55981 8.55673 3.41067 8.44159C3.26152 8.32646 3.01205 8.15114 2.85478 8.0517C2.6975 7.95226 2.49684 7.83974 2.40735 7.79788C2.31787 7.75862 2.19584 7.71414 2.13619 7.69582C2.07653 7.68012 1.9762 7.66704 1.91112 7.66704C1.80536 7.66704 1.77825 7.68274 1.63995 7.80834Z" fill="white"/>
<path d="M17.3893 7.89993C17.5005 7.83713 17.6659 7.75862 17.7554 7.72722C17.8475 7.69582 17.9831 7.66966 18.0672 7.66966C18.2138 7.66708 18.2163 7.66957 18.3709 7.82376L18.379 7.83189C18.4821 7.93656 18.5878 8.08048 18.6665 8.22964C18.737 8.36047 18.821 8.54626 18.8509 8.64832C18.8834 8.74775 18.9295 8.93616 18.9539 9.06699C18.9864 9.23446 19 9.44904 19 9.79968C19 10.0718 18.9837 10.3911 18.9647 10.5062C18.9458 10.6213 18.9132 10.7967 18.8942 10.8987C18.8726 10.9981 18.8319 11.1708 18.802 11.2781C18.7722 11.3854 18.7099 11.5791 18.6638 11.7099C18.6149 11.8381 18.5282 12.0344 18.4685 12.1417C18.4089 12.2489 18.3167 12.3902 18.2624 12.4557C18.2109 12.5211 18.116 12.6179 18.0563 12.6729C17.994 12.7278 17.8909 12.8115 17.8231 12.856C17.7554 12.9005 17.6279 12.9685 17.5384 13.0104C17.4489 13.0497 17.3025 13.0994 17.213 13.1229C17.1235 13.1439 16.9419 13.1622 16.8063 13.1622C16.6707 13.1622 16.489 13.1439 16.3995 13.1229C16.31 13.102 16.1338 13.034 16.0063 12.9738C15.8192 12.8848 15.7297 12.822 15.5318 12.6284C15.3962 12.4975 15.2471 12.3248 15.201 12.2463C15.1522 12.1678 15.0817 12.0318 15.0464 11.9454C15.0084 11.8591 14.9596 11.7177 14.9325 11.6314C14.9027 11.5293 14.8837 11.3383 14.8756 11.095C14.8647 10.7496 14.8701 10.692 14.9352 10.4539C14.9732 10.3099 15.0491 10.1085 15.1006 10.009C15.1549 9.90697 15.2525 9.74996 15.3203 9.65576C15.3908 9.56156 15.643 9.29727 15.8816 9.06438C16.1229 8.8341 16.4348 8.55673 16.5758 8.44944C16.7168 8.34216 16.912 8.20085 17.0096 8.13544C17.1073 8.07002 17.2781 7.96273 17.3893 7.89993Z" fill="white"/>
<path fill-rule="evenodd" clip-rule="evenodd" d="M9.59325 8.71112C9.52004 8.7242 9.38445 8.75299 9.29497 8.77654C9.20548 8.80009 9.05363 8.85242 8.95601 8.88906C8.85839 8.92831 8.69569 9.00681 8.59265 9.06438C8.49232 9.12456 8.32148 9.24232 8.21302 9.32867C8.10726 9.41764 7.94185 9.58772 7.84694 9.70809C7.75203 9.83108 7.63814 10.0012 7.59205 10.0875C7.54866 10.1739 7.489 10.3021 7.45917 10.3754C7.42935 10.446 7.37782 10.6187 7.34257 10.7548C7.30732 10.8909 7.24495 11.1787 7.20699 11.3959C7.16632 11.6105 7.10666 11.9245 7.07141 12.0893C7.03616 12.2542 6.96836 12.508 6.92227 12.6519C6.87346 12.7958 6.78668 13.0078 6.72431 13.1229C6.66466 13.2381 6.56433 13.4029 6.50196 13.4893C6.43688 13.5756 6.29587 13.73 6.18469 13.8321C6.07623 13.9341 5.93251 14.0519 5.86472 14.0964C5.79693 14.1408 5.6749 14.2141 5.59355 14.2612C5.5122 14.3083 5.34137 14.3816 5.21392 14.4235C5.08647 14.4679 4.87496 14.5543 4.73938 14.6171C4.60651 14.6825 4.39771 14.8029 4.2784 14.8892C4.15908 14.9756 3.99638 15.1195 3.91775 15.2085C3.83911 15.3001 3.7198 15.478 3.65472 15.6088C3.58964 15.7397 3.511 15.9385 3.48117 16.0537C3.45405 16.1688 3.41609 16.3625 3.39982 16.4854C3.38355 16.6084 3.36999 16.8387 3.36999 16.9957C3.36999 17.1527 3.38626 17.3777 3.40795 17.4929C3.42965 17.608 3.47303 17.7781 3.50557 17.8723C3.53811 17.9665 3.60048 18.1183 3.64658 18.2125C3.68997 18.3067 3.79572 18.482 3.87978 18.605C3.96384 18.728 4.12383 18.919 4.23772 19.0341C4.3489 19.1467 4.53872 19.3089 4.65803 19.3953C4.77734 19.4816 4.98614 19.6046 5.11901 19.6674C5.25459 19.7302 5.4661 19.8087 5.59355 19.8453C5.721 19.8794 5.99488 19.9291 6.20368 19.9552C6.45586 19.9866 6.75685 20.0023 7.09852 19.9997C7.45104 19.9997 7.71678 19.9866 7.93914 19.9526C8.11811 19.9265 8.40012 19.8741 8.56282 19.8349C8.72823 19.7956 8.98313 19.7197 9.13227 19.6648C9.28141 19.6124 9.5336 19.5052 9.69629 19.4267L9.98644 19.2854C10.5017 19.5261 10.7918 19.6438 10.9626 19.6988C11.1335 19.7564 11.4155 19.8322 11.5863 19.8689C11.7572 19.9055 12.0148 19.95 12.1558 19.9683C12.2968 19.9866 12.6384 19.9997 12.915 19.9997C13.235 19.9997 13.555 19.984 13.7963 19.9526C14.0051 19.9291 14.279 19.8794 14.4064 19.8427C14.5339 19.8087 14.7237 19.7407 14.8268 19.6936C14.9325 19.6465 15.1142 19.5444 15.2335 19.4685C15.3528 19.39 15.5399 19.2435 15.6511 19.1414C15.7596 19.042 15.9168 18.8693 16.0009 18.762C16.085 18.6547 16.2043 18.4715 16.2694 18.3564C16.3317 18.2413 16.4212 18.0529 16.4646 17.9377C16.508 17.8226 16.5622 17.629 16.5866 17.506C16.611 17.3804 16.63 17.1527 16.63 16.9826C16.63 16.8178 16.611 16.5587 16.5893 16.4069C16.5649 16.2552 16.5297 16.0615 16.5053 15.9752C16.4809 15.8888 16.4049 15.7057 16.3344 15.5696C16.2368 15.3733 16.1663 15.2791 16.0063 15.1221C15.8952 15.0122 15.7352 14.8814 15.6538 14.829C15.5725 14.7793 15.426 14.7008 15.3284 14.6511C15.2308 14.604 15.0111 14.5124 14.8403 14.447C14.6695 14.379 14.4363 14.2717 14.3251 14.2063C14.2139 14.1382 14.0241 13.9969 13.9048 13.8896C13.7855 13.7824 13.6201 13.5992 13.5387 13.4867C13.4574 13.3741 13.3408 13.1753 13.2784 13.0444C13.216 12.9136 13.1265 12.6964 13.0832 12.5603C13.0371 12.4243 12.9747 12.2045 12.9449 12.0762C12.915 11.9454 12.8472 11.634 12.793 11.3828C12.7388 11.1316 12.6656 10.8071 12.6276 10.6632C12.5896 10.5088 12.5056 10.2942 12.4269 10.1399C12.351 9.99332 12.2127 9.78136 12.1097 9.65576C12.0093 9.53539 11.8277 9.36007 11.7083 9.26848C11.589 9.1769 11.3694 9.04344 11.2202 8.97279C11.0711 8.90214 10.8406 8.81317 10.705 8.77654C10.5152 8.72682 10.3796 8.7085 10.0949 8.70065C9.89425 8.69542 9.66918 8.70065 9.59325 8.71112ZM9.06448 14.5752H7.24766V16.3023H9.06448V18.0555H10.9355V16.3023H12.6439V14.5752H10.9355V12.822H9.06448V14.5752Z" fill="white"/>
</svg>
