<svg width="49" height="48" viewBox="0 0 49 48" fill="none" xmlns="http://www.w3.org/2000/svg">
<path d="M35.1798 0.0621762C34.7304 0.109091 33.8698 0.23107 33.2674 0.334284C32.665 0.437497 31.7567 0.625157 31.2595 0.756519C30.7623 0.887881 30.3415 1.00048 30.3415 1.01924C30.332 1.02863 30.9057 2.98029 31.6132 5.3542C32.0549 6.83607 32.4519 8.15342 32.6879 8.93648C32.8299 9.40781 32.9136 9.68562 32.9136 9.68915C32.9232 9.70792 33.43 9.5484 34.0324 9.35136C34.6348 9.15432 35.4953 8.83529 35.9447 8.64763C36.3941 8.45059 37.2069 8.06589 37.7615 7.77501C38.316 7.49352 39.1957 6.97746 39.7216 6.63967C40.2762 6.28311 41.0698 5.64507 41.6053 5.11962C42.3033 4.44404 42.5997 4.07811 42.8196 3.61834C43.03 3.18672 43.116 2.8677 43.116 2.53929C43.116 2.22965 43.0395 1.94816 42.8961 1.69482C42.7814 1.48839 42.4658 1.17876 42.2077 1.00986C41.9399 0.840966 41.5192 0.625157 41.2515 0.521944C40.9933 0.428114 40.4483 0.287369 40.0563 0.193538C39.5877 0.0903252 38.7559 0.0246441 37.6658 0.0058781C36.7479 -0.0128879 35.6292 0.0152611 35.1798 0.0621762Z" fill="#0033D9"/>
<path fill-rule="evenodd" clip-rule="evenodd" d="M22.1758 25.1711C22.0993 25.1993 21.9176 25.3306 21.7646 25.4714C21.6117 25.6121 21.2483 26.2877 20.8945 27.0759C20.6465 27.6168 20.1105 28.8154 19.5441 30.082L19.5439 30.0824C19.3243 30.5734 19.1002 31.0746 18.8866 31.5516C17.9591 33.6252 17.4905 34.7887 17.4905 35.0045C17.4905 35.1828 17.5479 35.4455 17.6244 35.5863C17.7009 35.7364 17.8348 35.9147 17.9304 36.0085C18.0356 36.0929 19.575 36.7873 21.363 37.5567C23.1511 38.3261 28.1328 40.4748 32.426 42.3327L40.2475 45.7012C40.1519 46.2078 40.1519 46.5175 40.1901 46.7051C40.2188 46.9116 40.3814 47.2118 40.563 47.4089C40.7256 47.5965 41.0125 47.803 41.1846 47.878C41.3471 47.9437 41.6531 48 41.8539 48C42.0451 48 42.3798 47.8968 42.5901 47.7748C42.8005 47.6528 43.0491 47.4464 43.1447 47.3057C43.2308 47.1743 44.4451 44.5095 45.8411 41.385C47.7726 37.0688 48.375 35.6144 48.375 35.3329C48.375 35.1265 48.3176 34.8169 48.2507 34.648C48.1742 34.4885 47.983 34.2351 47.8204 34.085C47.6483 33.9442 47.3423 33.7941 47.132 33.7378C46.8642 33.6721 46.6252 33.6721 46.3479 33.7472C46.0706 33.8129 45.8029 33.9818 45.5543 34.2445L45.1718 34.6386C25.4268 26.1188 23.0077 25.1148 22.7017 25.1148C22.4913 25.1148 22.2523 25.143 22.1758 25.1711ZM24.4993 28.4364C24.3177 28.5115 24.1169 28.7085 24.0308 28.8868C23.9352 29.0651 23.8969 29.2997 23.9352 29.4685C23.9639 29.6187 24.0882 29.8439 24.2029 29.9565C24.3272 30.0691 27.54 31.514 31.3551 33.1561C32.1648 33.5046 32.9539 33.8442 33.6973 34.1642C36.4566 35.3519 38.5873 36.269 38.8133 36.3651C39.234 36.534 39.4061 36.5621 39.6643 36.4964C39.8459 36.4495 40.0659 36.3088 40.1615 36.1774C40.2571 36.046 40.3623 35.8115 40.4005 35.6613C40.4388 35.4549 40.391 35.2954 40.2284 35.0608C40.0276 34.7606 39.387 34.4697 32.646 31.561C28.5918 29.8157 25.1782 28.3707 25.0444 28.3426C24.9105 28.3238 24.6619 28.3614 24.4898 28.4364H24.4993Z" fill="#0033D9"/>
<path fill-rule="evenodd" clip-rule="evenodd" d="M26.7176 0.493744C26.6124 0.521894 24.7192 1.05673 22.5105 1.69477C20.3017 2.33282 16.5535 3.41186 14.1917 4.08744C13.0819 4.40801 11.7669 4.78612 10.5093 5.14771L10.5066 5.1485L10.5061 5.14862L10.5059 5.1487L10.5054 5.14884C9.0773 5.55945 7.72364 5.94867 6.82918 6.208C5.14632 6.69592 3.71205 7.09 3.64512 7.09C3.58775 7.09 3.53038 7.04309 3.53038 6.99617C3.53038 6.94926 3.43476 6.77098 3.31046 6.60209C3.19572 6.44258 2.92799 6.22677 2.71763 6.13294C2.50727 6.03911 2.18217 5.96404 2.0005 5.96404C1.81882 5.96404 1.4746 6.05787 1.23556 6.17985C0.958267 6.3206 0.728785 6.53641 0.59492 6.77098C0.461056 6.98679 0.375 7.29643 0.375 7.53101C0.375 7.77496 1.00608 10.0363 1.99094 13.3485C2.88018 16.3323 3.68337 19.0252 3.77898 19.3348C3.8746 19.6539 4.0754 20.0386 4.23795 20.2168C4.4005 20.3951 4.67779 20.5922 4.84034 20.6672C5.01245 20.7329 5.30886 20.7892 5.49054 20.7892C5.67221 20.7892 5.96863 20.7329 6.14074 20.6578C6.30329 20.5922 6.54233 20.4327 6.65707 20.3107C6.77181 20.1887 6.93436 19.9166 7.02042 19.7102C7.10647 19.5037 7.16385 19.1941 7.14472 19.0158L7.11604 18.6968L8.30763 18.3538C10.4842 17.7274 13.5372 16.8487 16.63 15.957C19.3542 15.1715 22.5475 14.2545 24.8018 13.6072C25.6175 13.373 26.3102 13.1741 26.8132 13.0295C28.7065 12.4852 30.3511 11.9879 30.4754 11.9129C30.5901 11.8378 30.7718 11.6408 30.877 11.4813C30.9822 11.3124 31.0682 11.0215 31.0682 10.8432C31.0682 10.6649 30.4467 8.42239 29.6818 5.87021C28.9168 3.31803 28.2284 1.13179 28.1519 1.00981C28.0754 0.897214 27.8268 0.718937 27.6069 0.615724C27.3774 0.512511 27.1288 0.437446 27.0523 0.437446C26.9758 0.446829 26.8228 0.465595 26.7176 0.493744ZM16.5248 5.62631C12.3942 6.81795 8.90413 7.85008 8.76071 7.91576C8.60772 7.98144 8.43561 8.17849 8.34955 8.38491C8.27306 8.57257 8.22525 8.84468 8.25393 8.99481C8.28262 9.13556 8.44517 9.35137 8.59816 9.48273C8.76071 9.61409 9.00931 9.7173 9.17186 9.7173C9.33441 9.7173 12.7001 8.78838 16.6587 7.65304C20.6077 6.50831 24.1169 5.49495 24.4515 5.40112C24.8531 5.26975 25.1113 5.12901 25.2356 4.96011C25.3599 4.8006 25.4364 4.55664 25.4268 4.35022C25.4268 4.07811 25.3503 3.9186 25.14 3.71217C24.9105 3.48698 24.7766 3.43068 24.4515 3.44007C24.2221 3.44945 20.6747 4.42528 16.5248 5.62631Z" fill="#0033D9"/>
<path d="M10.0802 23.2006C9.82201 23.2194 9.33436 23.2757 9.00926 23.3226C8.6746 23.3789 8.17739 23.5197 7.90966 23.6416C7.63237 23.7636 7.25946 24.0076 7.08735 24.1765C6.91524 24.3547 6.724 24.6456 6.66663 24.8239C6.60926 25.0022 6.59014 25.3681 6.60926 25.6215C6.63795 25.8842 6.8005 26.3627 6.97261 26.7005C7.14472 27.0383 7.48894 27.5637 7.73755 27.8734C7.98616 28.183 8.59811 28.8211 9.09532 29.2808C9.58297 29.7406 10.4148 30.4256 10.9407 30.7915C11.4666 31.1574 12.3081 31.7016 12.8053 32.0019C13.3025 32.3022 14.1726 32.7713 14.7463 33.0434C15.3105 33.3249 15.779 33.5407 15.7981 33.5313C15.8172 33.5126 16.6587 31.6454 17.6722 29.3747C18.6762 27.104 19.4698 25.218 19.4316 25.1898C19.3933 25.1617 18.963 24.9834 18.4945 24.7958C18.026 24.6175 17.1176 24.3172 16.4866 24.1296C15.8555 23.9419 14.8037 23.6886 14.1439 23.5572C13.4842 23.4352 12.6523 23.3039 12.2794 23.2757C11.9065 23.2476 11.371 23.21 11.0842 23.1913C10.7973 23.1819 10.3479 23.1819 10.0802 23.2006Z" fill="#0033D9"/>
</svg>
