<svg width="49" height="48" viewBox="0 0 49 48" fill="none" xmlns="http://www.w3.org/2000/svg">
<path d="M8.14769 2.07486C8.03541 2.11478 7.8874 2.19962 7.82105 2.2645C7.7547 2.32439 7.65773 2.46412 7.60669 2.57392C7.53013 2.73362 7.50972 2.89831 7.50972 3.43729V4.09605C7.23412 4.19586 7.20349 4.1759 6.76967 3.7517C6.51449 3.50716 6.23378 3.2726 6.14191 3.22768C6.05515 3.18277 5.86631 3.14784 5.7234 3.14784C5.57029 3.14784 5.38655 3.18776 5.26406 3.24765C5.15178 3.30254 4.99867 3.4323 4.91701 3.53211C4.82003 3.66187 4.7741 3.79162 4.75879 3.96629C4.74858 4.10603 4.769 4.31064 4.80983 4.42044C4.85576 4.56516 5.01398 4.75481 5.36103 5.07919C5.82548 5.51837 5.84589 5.54831 5.79996 5.67806L5.74892 5.8178C4.43725 5.86272 4.2331 5.88767 4.1004 5.95754C4.01364 6.00245 3.88094 6.11724 3.81459 6.20707C3.74824 6.29191 3.66148 6.4566 3.62575 6.56639C3.57471 6.72609 3.57471 6.81093 3.62575 6.99059C3.66148 7.11535 3.74824 7.29002 3.81459 7.37986C3.88094 7.46469 4.01364 7.57948 4.1004 7.62439C4.2331 7.69426 4.43725 7.71921 5.00887 7.73918L5.74892 7.76413C5.84589 8.03362 5.82548 8.06357 5.35083 8.52769C5.02418 8.8421 4.83024 9.07166 4.79452 9.18645C4.76389 9.28127 4.74858 9.4759 4.75879 9.61564C4.7741 9.79031 4.82003 9.92006 4.91701 10.0498C4.99867 10.1496 5.15178 10.2794 5.26406 10.3343C5.38655 10.3942 5.57029 10.4341 5.7234 10.4341C5.8612 10.4341 6.05515 10.3992 6.14191 10.3542C6.23378 10.3093 6.51449 10.0748 6.76967 9.83023C7.20349 9.40603 7.23412 9.38607 7.36681 9.43598L7.50972 9.48588C7.50972 10.6786 7.53013 10.8483 7.60669 11.008C7.65263 11.1178 7.77001 11.2675 7.85678 11.3474C7.94864 11.4222 8.10686 11.5021 8.20894 11.532C8.31612 11.557 8.43861 11.5819 8.47944 11.5819C8.52027 11.5819 8.64276 11.557 8.74483 11.532C8.85201 11.5021 9.02044 11.4073 9.12761 11.3224C9.22969 11.2326 9.34197 11.0829 9.3828 10.998C9.42874 10.8882 9.44915 10.6138 9.44915 10.1746C9.44405 9.51583 9.44915 9.51084 9.57675 9.45095C9.65841 9.41102 9.74007 9.40104 9.7911 9.43099C9.84214 9.45594 10.0412 9.64059 10.23 9.84022C10.424 10.0448 10.6638 10.2594 10.7659 10.3193C10.9037 10.4042 11.0364 10.4341 11.2457 10.4341C11.409 10.4341 11.6029 10.4042 11.6795 10.3642C11.7612 10.3293 11.899 10.2145 11.9857 10.1147C12.0776 10.0149 12.1797 9.84022 12.2103 9.72543C12.2511 9.56573 12.246 9.44596 12.2001 9.26131C12.1439 9.04671 12.0674 8.94191 11.6336 8.51272C11.1436 8.02364 11.1334 8.00867 11.1946 7.87392L11.261 7.73419C12.3991 7.73918 12.6645 7.71921 12.7768 7.66931C12.8687 7.63438 13.0167 7.52458 13.1034 7.43475C13.1902 7.33993 13.2872 7.18522 13.3229 7.0904C13.3535 6.99558 13.3791 6.85085 13.3791 6.76601C13.3791 6.68616 13.3331 6.52646 13.2821 6.41667C13.231 6.30688 13.1239 6.15716 13.0422 6.0823C12.9605 6.00744 12.833 5.9226 12.7513 5.89765C12.6747 5.86771 12.3022 5.84275 11.9245 5.84275H11.2355C11.1334 5.57326 11.1589 5.54332 11.6336 5.06921C11.9908 4.70989 12.149 4.51526 12.195 4.37053C12.2256 4.26074 12.2562 4.13597 12.2562 4.09605C12.2562 4.05612 12.2307 3.93635 12.2052 3.83654C12.1746 3.73173 12.0776 3.56704 11.9857 3.46723C11.899 3.36742 11.7612 3.25264 11.6795 3.2177C11.6029 3.17778 11.409 3.14784 11.2457 3.14784C11.0875 3.15283 10.8986 3.18277 10.8272 3.22269C10.7557 3.25763 10.4903 3.49718 10.2402 3.74671C9.80131 4.18588 9.77579 4.20584 9.62778 4.16092L9.47467 4.11102C9.43384 2.95819 9.39811 2.57891 9.36749 2.52401C9.33687 2.46912 9.22459 2.34934 9.12251 2.2645C9.02044 2.17467 8.85201 2.07985 8.74483 2.04991C8.64276 2.02495 8.51006 2 8.45392 2C8.39778 2.00499 8.25997 2.03493 8.14769 2.07486Z" fill="#0033D9"/>
<path fill-rule="evenodd" clip-rule="evenodd" d="M31.625 3.00311C31.5434 3.02806 31.3954 3.10791 31.3035 3.17279C31.2167 3.24266 31.1044 3.37241 31.0534 3.46224C31.0075 3.54708 30.9666 3.74671 30.9666 3.89642C30.9615 4.09106 30.9922 4.22081 31.0687 4.34558C31.1249 4.4404 31.5995 5.00933 32.1252 5.6082C32.6509 6.20707 33.0949 6.75104 33.1102 6.83089C33.1306 6.90575 33.1153 7.04549 33.0796 7.14031C33.0439 7.23513 32.9061 7.44972 32.7734 7.61441C32.6407 7.7791 32.4723 8.02863 32.4059 8.16338C32.3344 8.30311 32.2477 8.53268 32.2171 8.67741C32.1864 8.81714 32.1609 9.07166 32.1609 9.23635V9.53579C31.8649 9.5807 31.5944 9.64059 31.3698 9.69549C31.1453 9.75038 30.788 9.86018 30.5788 9.94003C30.3695 10.0249 30.048 10.1696 29.8642 10.2694C29.6805 10.3692 29.3794 10.5589 29.1854 10.6886C28.9966 10.8234 28.8384 10.9282 28.8282 10.9232L28.8281 10.9231L28.8281 10.923C28.8223 10.9117 28.7563 10.7826 28.6853 10.6337C28.6087 10.484 28.4403 10.2145 28.3025 10.0398C28.1647 9.86018 27.9146 9.61065 27.7462 9.4759C27.5777 9.34615 27.2817 9.15151 27.0878 9.0517C26.8938 8.9469 26.6489 8.76225 26.5366 8.63748C26.4141 8.49775 26.3069 8.3081 26.2559 8.13842C26.1946 7.93381 26.1844 7.74417 26.2048 7.41479C26.2201 7.17025 26.2916 6.70613 26.3681 6.39172C26.4396 6.07731 26.4957 5.71799 26.4957 5.59322C26.4957 5.45349 26.4498 5.29379 26.3784 5.16902C26.3171 5.06422 26.1742 4.90951 26.0619 4.82966C25.8935 4.71488 25.8016 4.68993 25.5515 4.68494C25.3678 4.67995 25.1841 4.70989 25.0922 4.75481C25.0105 4.79972 24.8676 4.90951 24.7809 4.99934C24.6992 5.09417 24.6124 5.21394 24.592 5.26884C24.5767 5.32373 24.4797 5.77289 24.3777 6.26695C24.2501 6.90076 24.199 7.30001 24.199 7.61441C24.199 7.87891 24.2399 8.20829 24.2909 8.41291C24.3419 8.60754 24.4542 8.90697 24.541 9.08664C24.6227 9.2663 24.8013 9.55076 24.934 9.72543C25.0616 9.89511 25.3066 10.1397 25.475 10.2744C25.6434 10.4042 25.9445 10.6038 26.1487 10.7136C26.3784 10.8383 26.6029 11.013 26.7305 11.1627C26.8734 11.3374 26.9857 11.547 27.098 11.8814C27.1899 12.1409 27.2613 12.3904 27.2613 12.4303C27.2562 12.4703 26.6693 13.0841 25.9445 13.7928L24.6329 15.0803C24.3624 14.6312 24.1123 14.3317 23.8979 14.1271C23.6785 13.9125 23.3773 13.683 23.2038 13.5931C23.0354 13.5033 22.6577 13.3536 22.3617 13.2488C22.0657 13.149 21.688 12.9993 21.5196 12.9144C21.3511 12.8346 21.0908 12.6449 20.9428 12.4952C20.7591 12.3155 20.6111 12.096 20.4682 11.7965C20.3746 11.5926 20.2667 11.3714 20.2069 11.2485C20.1949 11.224 20.1849 11.2034 20.1773 11.1877C20.1313 11.0929 19.9986 10.9581 19.8864 10.8882C19.769 10.8184 19.5801 10.7535 19.4525 10.7385C19.3249 10.7285 19.1412 10.7435 19.0442 10.7735C18.9473 10.8034 18.7993 10.8832 18.7176 10.9431C18.6359 11.008 18.5237 11.1477 18.4726 11.2575C18.4267 11.3673 18.3807 11.547 18.3807 11.6568C18.3807 11.7666 18.4267 11.9912 18.4828 12.1558C18.539 12.3205 18.687 12.6599 18.8146 12.9044C18.9371 13.149 19.1667 13.5033 19.3249 13.693C19.4781 13.8776 19.7486 14.1321 19.9272 14.2569C20.1007 14.3817 20.3559 14.5364 20.4988 14.6012C20.6366 14.6611 21.0398 14.8059 21.392 14.9156C21.7696 15.0404 22.1575 15.2001 22.3362 15.3149C22.5046 15.4197 22.7087 15.5944 22.7904 15.7042C22.8772 15.809 22.9946 16.0236 23.0609 16.1733L23.1834 16.4478C20.3865 19.1926 19.5393 20.046 19.4985 20.1108L19.427 20.2306C18.9932 20.041 18.7737 19.8963 18.6615 19.7914C18.5441 19.6817 18.3807 19.4571 18.2889 19.2924C18.2021 19.1277 18.0184 18.8582 17.8806 18.6935C17.7479 18.5288 17.4978 18.2843 17.3345 18.1545C17.166 18.0198 16.87 17.8401 16.671 17.7453C16.4719 17.6555 16.1657 17.5407 15.982 17.4908C15.7625 17.4309 15.4716 17.401 15.1143 17.4059C14.7009 17.4059 14.3692 17.4459 13.6598 17.5856C12.9248 17.7303 12.7003 17.8002 12.542 17.905C12.4298 17.9849 12.292 18.1346 12.2358 18.2444C12.1644 18.3741 12.1286 18.5338 12.1337 18.6935C12.1337 18.8333 12.1797 19.0279 12.2358 19.1377C12.2868 19.2475 12.4246 19.4022 12.5369 19.477C12.6492 19.5569 12.833 19.6318 12.9452 19.6467C13.0779 19.6667 13.4097 19.6218 13.9047 19.522C14.3896 19.4221 14.803 19.3672 15.0735 19.3672C15.3134 19.3672 15.5992 19.3972 15.7268 19.4421C15.8544 19.482 16.0585 19.6018 16.1861 19.7066C16.3137 19.8164 16.4821 20.021 16.5638 20.1707C16.6455 20.3205 16.7833 20.54 16.87 20.6648C16.9568 20.7896 17.1405 20.9992 17.2834 21.1339C17.4212 21.2687 17.6662 21.4583 17.8193 21.5581C17.9724 21.6579 18.1766 21.7727 18.2685 21.8126C18.3603 21.8526 18.4369 21.9075 18.4369 21.9374C18.4318 21.9673 18.3961 22.0871 18.3552 22.2119C18.3093 22.3366 18.2429 22.5762 18.2021 22.7459C18.1613 22.9205 18.1256 23.1152 18.1256 23.185C18.1256 23.3048 18.1102 23.3098 17.8295 23.3098C17.6713 23.3098 17.4008 23.3447 17.2324 23.3897C17.064 23.4296 16.8241 23.5094 16.6965 23.5643C16.5689 23.6192 16.3086 23.7839 16.1096 23.9336C15.834 24.1432 15.7115 24.2031 15.5737 24.2081C15.4767 24.2081 15.2674 24.1482 15.1143 24.0784C14.9612 24.0085 14.3641 23.6741 13.7874 23.3348C13.2106 22.9904 12.6594 22.701 12.5625 22.681C12.4604 22.661 12.2868 22.676 12.1541 22.7159C12.0215 22.7559 11.8479 22.8607 11.7458 22.9605C11.6489 23.0553 11.5366 23.225 11.506 23.3348C11.4702 23.4446 11.4396 23.5893 11.4396 23.6592C11.4396 23.729 11.5009 23.9037 11.5774 24.0534C11.7203 24.3179 11.7356 24.3279 13.0728 25.1164C13.9813 25.6454 14.5325 25.9399 14.7571 26.0097C14.9867 26.0746 15.2317 26.1045 15.5482 26.1045C15.7982 26.1045 16.1096 26.0746 16.2372 26.0347C16.3648 25.9997 16.5893 25.9099 16.7322 25.8351C16.8802 25.7652 17.0895 25.6304 17.1916 25.5406C17.2987 25.4458 17.4417 25.336 17.5131 25.2911C17.5846 25.2412 17.7326 25.2062 17.8449 25.2012C17.9571 25.2012 18.0745 25.2312 18.1051 25.2661C18.1358 25.3011 18.1868 25.4757 18.2174 25.6554C18.2532 25.8351 18.3348 26.1594 18.4063 26.379C18.4828 26.5986 18.6666 27.0278 18.8146 27.3272C18.9677 27.6267 19.0851 27.8762 19.08 27.8812C19.0775 27.8836 19.0443 27.9038 18.9921 27.9356L18.9919 27.9357C18.9337 27.9711 18.8522 28.0207 18.7635 28.0758C18.5951 28.1806 18.3246 28.4002 18.1613 28.5699C18.0031 28.7396 17.7989 28.9991 17.7173 29.1488C17.6356 29.2985 17.5233 29.558 17.4621 29.7227C17.4059 29.8874 17.3345 30.2567 17.3039 30.5462C17.263 30.9654 17.2273 31.1201 17.115 31.3147C17.0385 31.4495 16.9058 31.6042 16.8241 31.6641C16.7424 31.719 16.2576 31.9835 15.7523 32.248C15.0123 32.6322 14.8081 32.762 14.6907 32.9217C14.5989 33.0465 14.5376 33.2062 14.5172 33.3659C14.5019 33.5305 14.5172 33.6852 14.5682 33.815C14.6142 33.9248 14.7316 34.0895 14.8285 34.1743C14.9306 34.2642 15.1092 34.364 15.2266 34.3939C15.3491 34.4239 15.5277 34.4338 15.6247 34.4139C15.7217 34.3939 16.1606 34.2093 16.5944 33.9947C17.0282 33.7851 17.5692 33.4906 17.7887 33.3409C18.0082 33.1912 18.3195 32.9317 18.4726 32.767C18.6308 32.6023 18.8299 32.3128 18.9268 32.1182C19.0187 31.9236 19.131 31.6142 19.1718 31.4195C19.2127 31.2249 19.2484 30.9255 19.2484 30.7458C19.2484 30.5362 19.2841 30.3515 19.3454 30.2218C19.3964 30.112 19.5189 29.9523 19.6108 29.8625C19.7077 29.7776 19.9374 29.6279 20.1313 29.5281C20.4223 29.3734 20.4886 29.3584 20.5703 29.4083C20.5871 29.4199 20.6218 29.4434 20.6681 29.4748L20.6694 29.4757C20.7632 29.5393 20.9038 29.6346 21.0398 29.7277C21.2491 29.8674 21.591 30.0671 21.8003 30.1719C22.0095 30.2767 22.326 30.4114 22.5046 30.4763C22.6781 30.5412 22.9997 30.641 23.2191 30.6909C23.4335 30.7458 23.6734 30.8007 23.755 30.8157C23.8622 30.8406 23.8979 30.8805 23.9234 31.0053C23.9387 31.0951 23.9234 31.2399 23.8928 31.3197C23.8571 31.3996 23.7295 31.5792 23.607 31.719C23.4845 31.8537 23.3263 32.0783 23.2548 32.218C23.1885 32.3528 23.0915 32.6123 23.0456 32.7919C22.9894 33.0165 22.969 33.2411 22.9843 33.5156C22.9997 33.7451 23.0558 34.0446 23.1221 34.2143C23.1834 34.3789 23.5815 35.0826 24.0102 35.7813C24.4338 36.48 24.8472 37.1038 24.9289 37.1637C25.0054 37.2286 25.1534 37.3034 25.2606 37.3334C25.3627 37.3583 25.4852 37.3833 25.526 37.3833C25.5669 37.3833 25.6893 37.3583 25.7965 37.3334C25.8986 37.3034 26.0568 37.2236 26.1436 37.1437C26.2354 37.0689 26.3528 36.9192 26.409 36.8094C26.4804 36.6646 26.5008 36.5449 26.4855 36.3602C26.4651 36.1456 26.3579 35.941 25.7455 34.9379C25.3525 34.2941 25.0003 33.7102 24.9646 33.6403C24.9289 33.5655 24.9136 33.4457 24.934 33.3409C24.9493 33.2411 25.082 33.0165 25.2402 32.8169C25.3933 32.6223 25.572 32.3528 25.6434 32.218C25.7149 32.0783 25.7965 31.8487 25.8271 31.704C25.8578 31.5642 25.8833 31.3197 25.8833 31.17C25.8833 30.9953 25.9037 30.8905 25.9496 30.8755C25.9803 30.8656 26.1691 30.8306 26.3681 30.7957C26.5672 30.7608 26.8479 30.6909 26.9959 30.641C27.1388 30.5861 27.2715 30.5512 27.2868 30.5562C27.297 30.5661 27.3736 30.6859 27.4501 30.8306C27.5267 30.9704 27.7002 31.2249 27.838 31.3896C27.9707 31.5593 28.2106 31.7938 28.3739 31.9186C28.5321 32.0384 28.8231 32.228 29.017 32.3278C29.2109 32.4326 29.4559 32.6173 29.5682 32.742C29.6907 32.8818 29.7979 33.0714 29.8489 33.2411C29.9102 33.4457 29.9204 33.6304 29.9 33.9647C29.8846 34.2143 29.8183 34.6285 29.757 34.888C29.6958 35.1475 29.6448 35.5318 29.6397 35.7364C29.6346 36.0308 29.655 36.1456 29.7366 36.2804C29.7928 36.3752 29.9306 36.4949 30.0429 36.5498C30.1551 36.6097 30.3491 36.6646 30.4767 36.6746C30.6043 36.6896 30.788 36.6746 30.885 36.6447C30.982 36.6147 31.1453 36.5149 31.2422 36.4201C31.3392 36.3253 31.4464 36.1756 31.4821 36.0807C31.5127 35.9859 31.6097 35.5517 31.6965 35.1126C31.7832 34.6734 31.87 34.1793 31.8853 34.0146C31.9006 33.8499 31.8904 33.5455 31.8598 33.3409C31.8241 33.1363 31.7424 32.8119 31.671 32.6173C31.6046 32.4226 31.4719 32.1432 31.38 31.9934C31.2933 31.8437 31.0432 31.5493 30.8339 31.3397C30.5941 31.1001 30.298 30.8755 30.0429 30.7258C29.8183 30.6011 29.5427 30.4114 29.4355 30.3066C29.3283 30.2068 29.1803 29.9972 29.1089 29.8475C28.9864 29.583 28.9864 29.573 29.0782 29.5281C29.1344 29.5031 29.3232 29.3434 29.507 29.1787C29.6856 29.0091 30.5022 28.2156 31.3188 27.4171C32.2885 26.4589 32.8346 25.9548 32.901 25.9548C32.9571 25.9598 33.1357 26.0297 33.3042 26.1195C33.4675 26.2093 33.6921 26.374 33.7992 26.4888C33.9115 26.6086 34.0544 26.8082 34.1208 26.938C34.1871 27.0727 34.3402 27.447 34.4576 27.7764C34.5801 28.1058 34.7332 28.4851 34.8047 28.6248C34.8761 28.7595 35.019 28.9941 35.1262 29.1338C35.2385 29.2786 35.4784 29.5231 35.6723 29.6728C35.8612 29.8275 36.1878 30.0371 36.397 30.1419C36.6063 30.2517 36.938 30.3965 37.1371 30.4663C37.3412 30.5412 37.5964 30.5961 37.7393 30.5961C37.872 30.5961 38.0558 30.5611 38.1476 30.5162C38.2344 30.4713 38.3518 30.3965 38.4079 30.3515C38.459 30.3066 38.5457 30.1819 38.6019 30.0721C38.6784 29.9223 38.6988 29.8026 38.6886 29.593C38.6733 29.4033 38.6274 29.2586 38.5406 29.1338C38.459 29.0091 38.3161 28.9043 38.1323 28.8194C37.9792 28.7496 37.6934 28.6148 37.4944 28.52C37.2953 28.4302 37.0248 28.2455 36.8921 28.1158C36.7543 27.981 36.591 27.7864 36.5246 27.6766C36.4583 27.5668 36.3001 27.1725 36.1674 26.8032C36.0398 26.4339 35.856 25.9948 35.7693 25.8301C35.6774 25.6654 35.4478 25.3709 35.2487 25.1763C35.0497 24.9817 34.7689 24.7471 34.6209 24.6523C34.4729 24.5575 34.3555 24.4726 34.3555 24.4576C34.3555 24.4427 34.9476 23.8538 35.6672 23.1451L36.984 21.8576C37.6985 22.1021 37.9741 22.2069 38.0558 22.2518C38.1374 22.2917 38.2803 22.3766 38.362 22.4365C38.4437 22.5013 38.5866 22.681 38.6784 22.8407C38.7652 23.0054 38.9489 23.2799 39.0867 23.4545C39.2194 23.6292 39.4491 23.8688 39.5869 23.9835C39.7298 24.0933 39.934 24.2431 40.0462 24.3129C40.1585 24.3828 40.3984 24.4976 40.5821 24.5724C40.7659 24.6423 41.0313 24.7271 41.1691 24.7621C41.312 24.792 41.6437 24.817 41.9091 24.817C42.1745 24.817 42.6339 24.782 42.9299 24.7371C43.2259 24.6922 43.675 24.6074 43.9251 24.5425C44.2007 24.4776 44.461 24.3778 44.5631 24.3029C44.6601 24.2331 44.7876 24.0883 44.8438 23.9786C44.905 23.8638 44.9459 23.6841 44.9459 23.5344C44.9459 23.3747 44.905 23.21 44.8387 23.0852C44.7825 22.9754 44.6447 22.8207 44.5325 22.7459C44.4151 22.661 44.2364 22.5912 44.1037 22.5762C43.9506 22.5612 43.6648 22.5962 43.2361 22.691C42.741 22.8008 42.4654 22.8307 42.0112 22.8357C41.4753 22.8357 41.4038 22.8257 41.1691 22.706C41.0313 22.6361 40.8373 22.4864 40.7506 22.3816C40.6587 22.2768 40.5209 22.0672 40.4443 21.9224C40.3627 21.7727 40.184 21.5132 40.0411 21.3485C39.9033 21.1788 39.6379 20.9293 39.4542 20.7946C39.2756 20.6598 39 20.4951 38.8469 20.4203C38.6937 20.3504 38.561 20.2905 38.5508 20.2905C38.5406 20.2905 38.658 20.1208 38.806 19.9162C38.954 19.7116 39.1582 19.3822 39.2603 19.1926C39.3623 18.9979 39.5308 18.6286 39.6277 18.3691C39.7247 18.1096 39.8523 17.6904 39.9033 17.4459L40.0003 16.9967C40.2351 17.0217 40.4596 17.0017 40.6587 16.9718C40.8577 16.9418 41.1282 16.867 41.2711 16.8071C41.409 16.7472 41.7101 16.5675 41.9346 16.4078C42.1592 16.2481 42.4144 16.1084 42.4961 16.0934C42.5828 16.0735 42.7104 16.0934 42.787 16.1284C42.8635 16.1683 43.2157 16.4577 43.5729 16.7721L43.6045 16.7995L43.6088 16.8032C43.9676 17.1146 44.4438 17.5277 44.6907 17.7353C44.9408 17.9549 45.2215 18.1645 45.3031 18.2044C45.4001 18.2543 45.5481 18.2743 45.7165 18.2643C45.9054 18.2494 46.0432 18.2044 46.2014 18.0946C46.3188 18.0148 46.4617 17.8551 46.5229 17.7453C46.5842 17.6205 46.625 17.4509 46.625 17.2962C46.625 17.1365 46.5893 16.9817 46.5229 16.872C46.4668 16.7771 45.8492 16.2182 45.1449 15.6243C44.0272 14.6861 43.823 14.5364 43.5117 14.4166C43.3127 14.3417 42.9962 14.2719 42.7768 14.2519C42.5165 14.2269 42.2817 14.2419 42.0367 14.2918C41.8377 14.3317 41.5416 14.4316 41.3732 14.5164C41.2048 14.5962 40.9649 14.7559 40.8373 14.8607C40.7097 14.9705 40.5566 15.0853 40.4954 15.1153C40.429 15.1502 40.3014 15.1752 40.2147 15.1752C40.1228 15.1752 40.0207 15.1552 39.9952 15.1352C39.9646 15.1153 39.9084 14.9456 39.8676 14.751C39.8319 14.5563 39.74 14.222 39.6584 14.0024C39.5818 13.7828 39.4797 13.5133 39.4338 13.4035C39.3879 13.2937 39.2245 12.9993 39.0714 12.7547C38.9234 12.5102 38.7091 12.1908 38.5968 12.056L38.3926 11.8065C39.0867 11.4572 39.3674 11.2975 39.4644 11.2226C39.5614 11.1477 39.6941 11.038 39.7655 10.9731C39.837 10.9082 39.9799 10.7585 40.082 10.6337C40.184 10.509 40.3372 10.2744 40.4188 10.1097C40.5056 9.94502 40.6128 9.67553 40.6536 9.51084C40.6995 9.34615 40.7506 9.04172 40.7659 8.83711C40.7812 8.63249 40.8169 8.39294 40.8424 8.3131C40.8628 8.22826 40.9547 8.06856 41.0415 7.94878C41.1742 7.76413 41.3171 7.67929 42.1541 7.27006C42.7155 6.99558 43.1698 6.74106 43.2616 6.64624C43.3433 6.5614 43.4402 6.41667 43.476 6.32684C43.5066 6.242 43.5372 6.09228 43.5372 6.00245C43.5423 5.91761 43.5066 5.75791 43.4607 5.65311C43.4198 5.5533 43.3331 5.41356 43.2718 5.34869C43.2106 5.28381 43.0677 5.18899 42.9554 5.13908C42.8431 5.08917 42.6594 5.04426 42.5471 5.04426C42.3991 5.04426 42.1388 5.13409 41.6284 5.36865C41.2354 5.54831 40.7302 5.80283 40.5056 5.93258C40.2708 6.06733 39.934 6.32684 39.7145 6.54144C39.4899 6.76102 39.2603 7.04049 39.1684 7.21517C39.0765 7.37986 38.9693 7.64935 38.9285 7.81404C38.8826 7.97873 38.8315 8.31809 38.8162 8.56262C38.8009 8.80716 38.7652 9.07666 38.7397 9.1615C38.7193 9.24134 38.5968 9.40603 38.4794 9.52581C38.3314 9.67054 38.0303 9.85519 37.5607 10.0897C37.1728 10.2794 36.8258 10.4341 36.7951 10.4341C36.7594 10.4391 36.591 10.3592 36.4226 10.2594C36.2541 10.1596 35.8867 9.99492 35.606 9.89012C35.3253 9.78532 34.9119 9.65556 34.6873 9.61065C34.6086 9.59315 34.5311 9.57627 34.4624 9.56129L34.4621 9.56123L34.4618 9.56118L34.4618 9.56117C34.3347 9.53348 34.2376 9.51232 34.2177 9.50585C34.1769 9.49087 34.1514 9.39605 34.1514 9.26131C34.1514 9.13654 34.1769 8.98682 34.2126 8.92195C34.2433 8.86206 34.3453 8.7323 34.4423 8.63748C34.5342 8.54266 34.6771 8.33805 34.7587 8.18833C34.8404 8.03861 34.9425 7.78908 34.9884 7.63937C35.0343 7.48466 35.0701 7.18522 35.0701 6.95066C35.0701 6.64125 35.0394 6.44661 34.9374 6.15217C34.8659 5.94257 34.7383 5.67806 34.6618 5.56827C34.5801 5.45848 34.0799 4.87458 33.544 4.27072C32.9163 3.56704 32.4978 3.13785 32.3753 3.07797C32.2732 3.02307 32.0946 2.97316 31.9823 2.96318C31.87 2.95819 31.7067 2.97316 31.625 3.00311ZM33.5134 13.5233C33.4011 13.5482 33.1919 13.6231 33.0541 13.688C32.9112 13.7578 32.6866 13.9225 32.5488 14.0573C32.4008 14.197 32.2324 14.4365 32.1405 14.6262C32.0027 14.9107 31.9874 15.0055 31.9874 15.3997C31.9874 15.804 32.0027 15.8838 32.1507 16.1833C32.2426 16.3779 32.4161 16.6224 32.559 16.7572C32.6917 16.8819 32.9469 17.0566 33.1306 17.1414C33.4215 17.2762 33.5134 17.2912 33.9217 17.2912C34.3351 17.2912 34.4168 17.2762 34.7281 17.1315C34.9169 17.0416 35.1721 16.872 35.2997 16.7472C35.4273 16.6224 35.6009 16.3729 35.6927 16.1833C35.8407 15.8838 35.856 15.804 35.856 15.3997C35.856 15.0005 35.8407 14.9107 35.7029 14.6262C35.6162 14.4465 35.4375 14.197 35.3099 14.0623C35.1772 13.9325 34.9272 13.7628 34.7536 13.678C34.524 13.5732 34.33 13.5233 34.0748 13.5083C33.8758 13.4933 33.6257 13.5033 33.5134 13.5233ZM27.6186 16.4428C27.5216 16.4777 27.3787 16.5875 27.3021 16.6923C27.2256 16.7921 27.1337 16.9668 27.1031 17.0816C27.0571 17.2413 27.0571 17.3511 27.1031 17.5207C27.1388 17.6455 27.2256 17.8202 27.3021 17.915C27.3787 18.0098 27.5318 18.1296 27.6441 18.1795C27.7564 18.2294 27.9401 18.2693 28.0524 18.2693C28.1647 18.2693 28.3484 18.2294 28.4607 18.1795C28.573 18.1296 28.7261 18.0098 28.8026 17.915C28.8792 17.8202 28.966 17.6455 29.0017 17.5207C29.0476 17.3511 29.0476 17.2413 29.0017 17.0816C28.9711 16.9668 28.869 16.7921 28.7822 16.6873C28.6903 16.5875 28.5372 16.4777 28.4505 16.4378C28.3586 16.4028 28.1749 16.3729 28.0422 16.3729C27.9044 16.3779 27.7155 16.4078 27.6186 16.4428ZM21.443 23.3897C21.5145 23.3098 21.6625 23.2 21.7747 23.1551C21.887 23.1052 22.0759 23.0603 22.1984 23.0603C22.3157 23.0603 22.4995 23.1002 22.6067 23.1551C22.7087 23.205 22.8516 23.3098 22.9231 23.3897C22.9945 23.4695 23.0864 23.6342 23.1221 23.759C23.1783 23.9486 23.1783 24.0235 23.1221 24.2331C23.0864 24.3678 22.9945 24.5475 22.9231 24.6273C22.8516 24.7072 22.7087 24.812 22.6067 24.8619C22.4995 24.9168 22.3157 24.9567 22.1984 24.9567C22.0759 24.9567 21.887 24.9118 21.7747 24.8619C21.6625 24.817 21.5145 24.7072 21.443 24.6273C21.3715 24.5475 21.2797 24.3678 21.244 24.2331C21.1878 24.0235 21.1878 23.9486 21.244 23.759C21.2797 23.6342 21.3715 23.4695 21.443 23.3897ZM27.6441 23.1551C27.5318 23.2 27.3838 23.3098 27.3123 23.3897C27.2409 23.4695 27.149 23.6342 27.1133 23.759C27.0571 23.9486 27.0571 24.0235 27.1133 24.2331C27.149 24.3678 27.2409 24.5475 27.3123 24.6273C27.3838 24.7072 27.5318 24.817 27.6441 24.8619C27.7564 24.9118 27.9401 24.9567 28.0524 24.9567C28.1647 24.9567 28.3484 24.9118 28.4607 24.8619C28.573 24.817 28.721 24.7072 28.7924 24.6273C28.8639 24.5475 28.9557 24.3678 28.9915 24.2331C29.0476 24.0235 29.0476 23.9486 28.9915 23.759C28.9557 23.6342 28.8639 23.4695 28.7924 23.3897C28.721 23.3098 28.573 23.2 28.4607 23.1551C28.3484 23.1052 28.1647 23.0603 28.0524 23.0603C27.9401 23.0603 27.7564 23.1052 27.6441 23.1551Z" fill="#0033D9"/>
<path d="M3.70741 17.5207C3.85032 17.4559 4.03405 17.386 4.11571 17.361C4.20248 17.3411 4.45256 17.3311 4.67713 17.3411C4.98335 17.356 5.16199 17.391 5.38145 17.4908C5.54477 17.5656 5.78975 17.7353 5.94286 17.8801C6.08577 18.0248 6.2593 18.2444 6.32054 18.3691C6.38179 18.4939 6.45834 18.7285 6.48897 18.8931C6.52469 19.0578 6.5298 19.3024 6.51449 19.4421C6.49407 19.5769 6.42772 19.8164 6.37158 19.9661C6.30523 20.1308 6.16233 20.3504 6.00411 20.5151C5.851 20.6698 5.62133 20.8445 5.46311 20.9193C5.31 20.9942 5.0497 21.079 4.88128 21.109C4.65671 21.1489 4.49339 21.1489 4.26883 21.109C4.1004 21.079 3.83501 20.9942 3.68189 20.9143C3.51347 20.8345 3.2889 20.6598 3.13069 20.4851C2.97247 20.3155 2.81936 20.0859 2.76322 19.9412C2.71218 19.8014 2.65604 19.5769 2.63562 19.4421C2.61521 19.3024 2.62541 19.0578 2.65604 18.8931C2.69176 18.7285 2.76832 18.4939 2.82956 18.3691C2.89081 18.2444 3.05923 18.0298 3.19704 17.895C3.33994 17.7553 3.56961 17.5856 3.70741 17.5207Z" fill="#0033D9"/>
<path d="M9.04085 34.6285C8.94388 34.6834 8.70911 34.898 8.52027 35.1175L8.17831 35.5118C7.6118 35.392 7.45868 35.392 7.20349 35.432L6.87175 35.4819C6.27971 34.893 6.02963 34.6933 5.94286 34.6584C5.851 34.6185 5.67236 34.5885 5.54477 34.5885C5.41717 34.5885 5.22834 34.6335 5.12626 34.6834C5.01908 34.7333 4.87618 34.8381 4.80472 34.9129C4.73327 34.9878 4.65161 35.1525 4.61588 35.2822C4.57505 35.4469 4.57505 35.5817 4.61588 35.7613C4.66182 35.9759 4.72817 36.0658 5.07012 36.4101L5.46821 36.8094C5.49884 37.6228 5.52435 37.9123 5.54477 37.9821C5.57539 38.0919 5.53967 38.1418 5.20282 38.4063C4.98846 38.581 4.79452 38.7856 4.74348 38.8954C4.69244 39.0002 4.65161 39.1949 4.65161 39.3396C4.65161 39.5292 4.68734 39.664 4.7741 39.8037C4.84045 39.9135 4.98335 40.0532 5.09053 40.1081C5.20282 40.168 5.35593 40.2329 5.44269 40.2529C5.52946 40.2678 5.68767 40.2628 5.79996 40.2329C5.91734 40.203 6.18274 40.0433 6.42772 39.8536C6.65739 39.674 6.86154 39.5292 6.88196 39.5292C6.90748 39.5292 7.02997 39.639 7.15756 39.7688L7.39744 40.0033C6.88706 40.4675 6.69312 40.692 6.63698 40.8018C6.58594 40.9116 6.54 41.1013 6.54 41.226C6.54 41.3608 6.58594 41.5404 6.65739 41.6702C6.72374 41.8049 6.85133 41.9447 6.97382 42.0195C7.08611 42.0894 7.28005 42.1543 7.40764 42.1693C7.53524 42.1792 7.72918 42.1593 7.84146 42.1193C7.96906 42.0794 8.17831 41.9297 8.41309 41.7051L8.78056 41.3508C9.13782 41.7001 9.245 41.8249 9.245 41.8499C9.2399 41.8748 9.09189 42.0794 8.90815 42.299C8.704 42.5386 8.55599 42.7781 8.52027 42.8979C8.49475 43.0077 8.48454 43.1823 8.49985 43.2822C8.51516 43.387 8.58661 43.5566 8.65296 43.6564C8.72442 43.7612 8.87753 43.901 9.00002 43.9659C9.15313 44.0507 9.29604 44.0856 9.47467 44.0856C9.61247 44.0856 9.79621 44.0507 9.88297 44.0108C9.96974 43.9659 10.1994 43.7612 10.3933 43.5516L10.7506 43.1624C11.4345 43.3021 11.608 43.3121 11.7867 43.2772L12.0266 43.2322C12.8227 43.9808 12.9605 44.0757 13.1086 44.1006C13.2157 44.1206 13.4097 44.1256 13.5373 44.1156C13.6955 44.1006 13.8282 44.0507 13.966 43.9459C14.0732 43.8661 14.2059 43.7064 14.2569 43.5966C14.3079 43.4868 14.3488 43.3021 14.3488 43.1823C14.3488 43.0676 14.3181 42.8979 14.2773 42.808C14.2416 42.7232 14.0425 42.4687 13.8333 42.2541L13.4556 41.8598C13.4811 41.1861 13.4607 40.9715 13.4097 40.8118L13.328 40.5773C13.8639 40.168 14.0834 39.9584 14.1701 39.8536C14.2824 39.7139 14.3284 39.5941 14.3437 39.4095C14.3539 39.2348 14.3335 39.0851 14.262 38.9304C14.2059 38.8006 14.0783 38.6409 13.966 38.5561C13.8282 38.4513 13.6955 38.4014 13.5373 38.3864C13.4097 38.3764 13.2208 38.3814 13.1239 38.3964C13.0116 38.4163 12.7819 38.5561 12.4859 38.7856L12.0266 39.14L11.5315 38.6559C11.9857 38.2317 12.1695 38.0221 12.2358 37.9173C12.3022 37.8175 12.3736 37.6478 12.3889 37.543C12.4042 37.4432 12.3889 37.2585 12.3583 37.1337C12.3175 36.999 12.2205 36.8393 12.1082 36.7295C11.9959 36.6197 11.8326 36.5249 11.6948 36.485C11.5672 36.45 11.3733 36.4401 11.261 36.46C11.1487 36.475 10.9905 36.5349 10.9037 36.5848C10.817 36.6347 10.6128 36.8143 10.4444 36.984L10.1382 37.2934L9.6431 36.8094C10.2402 36.0658 10.3831 35.8362 10.4189 35.6965C10.4546 35.5517 10.4546 35.422 10.4138 35.2723C10.3831 35.1575 10.2964 34.9878 10.2249 34.893C10.1484 34.7981 9.99525 34.6784 9.88297 34.6285C9.77069 34.5786 9.57675 34.5386 9.44915 34.5386C9.32156 34.5386 9.13782 34.5786 9.04085 34.6285Z" fill="#0033D9"/>
<path d="M40.8628 37.6079C40.9751 37.5579 41.1946 37.4881 41.3477 37.4531C41.5008 37.4182 41.6641 37.3883 41.705 37.3883C41.7458 37.3833 41.9193 37.4082 42.0878 37.4382C42.2562 37.4681 42.4858 37.538 42.5981 37.5929C42.7104 37.6478 42.8941 37.7676 43.0064 37.8574C43.1187 37.9422 43.282 38.1269 43.3739 38.2616C43.4607 38.3964 43.5729 38.6409 43.6189 38.8056C43.6801 39.0102 43.7005 39.2148 43.6852 39.4544C43.6699 39.6789 43.6189 39.9035 43.5372 40.0782C43.4658 40.2279 43.3076 40.4625 43.1851 40.5922C43.0575 40.727 42.8533 40.8917 42.7257 40.9665C42.5981 41.0364 42.3787 41.1212 42.2409 41.1612C42.098 41.1961 41.8836 41.226 41.756 41.226C41.6284 41.226 41.3987 41.1911 41.2456 41.1512C41.0925 41.1112 40.8731 41.0214 40.7608 40.9565C40.6485 40.8917 40.4494 40.722 40.3116 40.5822C40.1789 40.4425 40.0207 40.2229 39.9595 40.0882C39.8625 39.8935 39.8472 39.7638 39.8421 39.3047C39.8421 38.7707 39.8472 38.7457 40.0207 38.4363C40.1177 38.2616 40.3014 38.0221 40.429 37.9123C40.5566 37.7975 40.7557 37.6627 40.8628 37.6079Z" fill="#0033D9"/>
<path d="M29.6346 42.2241C29.5223 42.2441 29.3232 42.309 29.1854 42.3689C29.0527 42.4238 28.8282 42.5785 28.6853 42.7082C28.5423 42.843 28.3535 43.0825 28.2616 43.2472C28.1136 43.5317 28.1034 43.5766 28.1034 44.0956C28.1034 44.6146 28.1136 44.6596 28.2616 44.944C28.3586 45.1237 28.5372 45.3483 28.721 45.508C28.8945 45.6627 29.1293 45.8124 29.2773 45.8673C29.4151 45.9122 29.6448 45.9721 29.7877 45.992C29.9306 46.007 30.1807 46.002 30.3491 45.9671C30.5175 45.9371 30.7574 45.8623 30.885 45.8024C31.0126 45.7425 31.2371 45.5728 31.38 45.4281C31.5281 45.2884 31.7118 45.0388 31.7883 44.8791C31.9108 44.6296 31.9261 44.5348 31.9261 44.0956C31.9312 43.6465 31.9159 43.5666 31.7781 43.2971C31.6965 43.1324 31.5127 42.8829 31.3749 42.7482C31.232 42.6084 31.0126 42.4487 30.885 42.3888C30.7574 42.3289 30.5277 42.2541 30.3746 42.2241C30.2215 42.1992 30.0378 42.1742 29.9663 42.1792C29.8948 42.1842 29.7468 42.2042 29.6346 42.2241Z" fill="#0033D9"/>
</svg>
