<svg width="49" height="48" viewBox="0 0 49 48" fill="none" xmlns="http://www.w3.org/2000/svg">
<path d="M14.793 1.06431C15.004 0.78625 15.3588 0.431479 15.5697 0.278064C15.7807 0.124649 15.982 0 16.0204 0C16.0683 0 16.0971 0.345183 16.0971 0.767073C16.0971 1.18896 16.1642 1.85056 16.2409 2.22451C16.3272 2.60805 16.4806 3.2313 16.5861 3.59566C16.6916 3.96002 16.9408 4.67915 17.1326 5.17774C17.3244 5.67634 17.6887 6.39547 17.9285 6.75983C18.1682 7.12419 18.475 7.52691 18.5996 7.64197C18.7243 7.75703 18.964 7.90085 19.1174 7.95838C19.3475 8.03509 19.4722 8.0255 19.7407 7.89127C19.9324 7.79538 20.153 7.57485 20.2393 7.38308C20.3639 7.14337 20.4119 6.80777 20.4119 6.18453C20.4119 5.71469 20.479 5.04351 20.5653 4.69832C20.642 4.35314 20.8721 3.77784 21.0639 3.42306C21.2556 3.06829 21.4378 2.77105 21.4666 2.77105C21.4953 2.78064 21.5912 3.02994 21.6967 3.32718C21.7926 3.63401 22.32 4.98598 22.8761 6.32835C23.4226 7.67073 24.0171 9.1857 24.1897 9.6843C24.3719 10.1829 24.602 10.9883 24.7075 11.4582C24.8225 11.928 24.9568 12.7718 25.0239 13.3279C25.091 13.9032 25.1102 14.7662 25.0814 15.3415C25.0431 15.8976 24.9376 16.6934 24.8225 17.1153C24.7171 17.5372 24.4486 18.2468 24.228 18.6974C23.9308 19.2823 23.624 19.6946 23.1446 20.1836C22.7706 20.5576 22.2049 21.0274 21.8693 21.2192C21.5433 21.4109 21.2365 21.5739 21.1789 21.5739C21.1214 21.5739 21.1502 21.4013 21.2365 21.1712C21.3228 20.9411 21.409 20.3466 21.4378 19.848C21.4762 19.0809 21.457 18.8412 21.2748 18.3139C21.1598 17.9687 20.9584 17.518 20.8242 17.3071C20.6899 17.0961 20.4694 16.8085 20.3256 16.6551C20.1626 16.4825 19.9804 16.3962 19.7886 16.3866C19.6352 16.3866 19.4338 16.4633 19.3475 16.5592C19.2612 16.6551 19.0503 17.0098 18.8681 17.3454C18.6859 17.681 18.3983 18.0837 18.2257 18.2276C18.0052 18.4289 17.8326 18.4961 17.6025 18.4865C17.3148 18.4577 17.2956 18.4289 17.2669 18.0742C17.2381 17.7961 17.4394 17.0482 18.801 12.8964L18.7626 11.8896C18.7243 11.1226 18.6572 10.7486 18.4846 10.3171C18.3599 10.0007 18.2161 9.73224 18.1586 9.71306C18.101 9.69389 18.0052 9.88566 17.938 10.135C17.8805 10.3938 17.6696 10.8541 17.4778 11.1705C17.2956 11.4869 16.96 11.9376 16.7395 12.1677C16.519 12.3978 15.8765 13.0019 15.3108 13.5101C14.7547 14.0183 14.0643 14.7086 13.7863 15.0538C13.5082 15.399 13.1438 15.9743 12.9712 16.3482C12.7891 16.7222 12.5781 17.3454 12.4918 17.7386C12.3959 18.1796 12.3384 18.9179 12.3288 19.6562C12.3288 20.4904 12.3768 20.989 12.4726 21.2863C12.5589 21.526 12.6644 21.8041 12.7028 21.8999C12.7891 22.0725 12.7795 22.0821 12.4055 21.9191C12.1946 21.8232 11.7631 21.5931 11.4467 21.4013C11.1303 21.2096 10.6221 20.8164 10.3057 20.5192C9.99884 20.2316 9.55777 19.733 9.33724 19.4165C9.10711 19.1001 8.74275 18.4769 8.53181 18.0262C8.32086 17.5756 8.05239 16.8468 7.93733 16.3962C7.75515 15.7538 7.71679 15.3415 7.71679 14.4306C7.72638 13.5964 7.78391 13.0498 7.93733 12.4362C8.0428 11.9759 8.2921 11.1801 8.48387 10.6623C8.67564 10.1541 9.00164 9.38706 9.21259 8.96517C9.42353 8.54328 9.82625 7.78579 10.1139 7.2872C10.392 6.7886 10.7276 6.09823 10.8618 5.75305C10.9864 5.40787 11.1207 4.92844 11.1494 4.66956C11.1782 4.42026 11.2357 4.2189 11.2741 4.2189C11.322 4.2189 11.4755 4.42026 11.6289 4.66956C11.7727 4.92844 11.9836 5.33116 12.0795 5.58046C12.185 5.83934 12.2905 6.30918 12.3192 6.63518C12.3576 7.02831 12.3001 7.74744 12.1754 8.67752C12.0603 9.46377 11.9453 10.4801 11.9069 10.9308C11.8686 11.4677 11.8878 11.8225 11.9645 11.9568C12.0316 12.1006 12.1562 12.1773 12.3096 12.1773C12.4822 12.1773 12.6357 12.0622 12.8466 11.765C13 11.5445 13.1918 11.1417 13.2685 10.8829C13.3356 10.6144 13.4507 9.83771 13.5178 9.15694C13.5945 8.29398 13.6041 7.55567 13.5466 6.75983C13.4986 6.127 13.4698 5.24486 13.489 4.79421C13.4986 4.34355 13.5945 3.66277 13.7 3.27924C13.8054 2.90529 14.0068 2.35875 14.141 2.08069C14.2753 1.81221 14.5725 1.35197 14.793 1.06431Z" fill="#0033D9"/>
<path d="M26.7402 12.4649L27.0566 12.3211C27.2772 12.2156 27.6032 12.1773 28.2264 12.2061C28.9551 12.2252 29.1853 12.2828 29.7126 12.5225C30.0578 12.6855 32.2344 14.095 34.5548 15.6483C36.8752 17.2016 39.4449 18.8796 40.2599 19.3782C41.0749 19.8768 42.0721 20.5288 42.4652 20.826C42.8583 21.1233 43.4816 21.6411 43.8459 21.9766C44.2103 22.3027 44.7568 22.878 45.0541 23.2519C45.3609 23.6259 45.8116 24.2491 46.0705 24.6422C46.3198 25.0354 46.7129 25.7545 46.9334 26.2243C47.1635 26.6941 47.4512 27.4325 47.595 27.8543C47.7292 28.2762 47.9498 29.1392 48.084 29.772C48.2854 30.7213 48.3429 31.2774 48.3813 32.9841C48.4196 34.2978 48.3909 35.3908 48.3237 36.0045C48.2566 36.5319 48.1415 37.2893 48.0648 37.6825C47.9881 38.0756 47.7676 38.8523 47.5854 39.4084C47.4032 39.9645 47.0772 40.7412 46.8663 41.1343C46.6458 41.5274 46.2622 42.1315 46.0129 42.4767C45.754 42.8219 45.2554 43.3876 44.8911 43.7328C44.5363 44.0779 43.9802 44.5382 43.6638 44.7491C43.3473 44.9601 42.7912 45.2861 42.4173 45.4683C42.0433 45.66 41.3242 45.9477 40.816 46.1107C40.2982 46.2737 39.5216 46.4846 39.0901 46.5709C38.371 46.7148 36.971 46.7339 23.9116 46.7627C11.3029 46.7915 9.47147 46.7723 9.03041 46.6476C8.72358 46.5613 8.36881 46.36 8.11951 46.149C7.90856 45.9477 7.64968 45.6121 7.55379 45.4011C7.44832 45.171 7.37161 44.7875 7.37161 44.4423C7.37161 44.1259 7.41955 43.704 7.4675 43.5122C7.52503 43.3109 7.74556 42.9465 7.97568 42.7068C8.23457 42.4287 8.57016 42.1986 8.90576 42.0644C9.43312 41.8534 9.46189 41.8534 20.1721 41.9301L20.5269 41.6041C20.805 41.3548 20.8817 41.2014 20.8913 40.9425C20.8913 40.7028 20.8242 40.5398 20.3639 40.0796L4.44715 40.0316L3.91978 39.8207C3.63213 39.696 3.21983 39.4659 3.01847 39.2933C2.80753 39.1207 2.53905 38.766 2.4144 38.4975C2.27058 38.1811 2.19387 37.8359 2.19387 37.4907C2.19387 37.0976 2.26099 36.8291 2.45276 36.4456C2.62535 36.11 2.86506 35.8319 3.10477 35.6689C3.31571 35.5251 3.70884 35.3237 3.96772 35.2278C4.41838 35.0552 4.91698 35.0457 18.3216 34.9498L18.5517 34.6909C18.6764 34.5375 18.7818 34.3169 18.7818 34.1827C18.7818 34.0485 18.6572 33.7992 18.2257 33.3197L2.72123 33.2239L2.14593 32.9937C1.80074 32.8499 1.38844 32.5814 1.11997 32.3225C0.774783 31.9774 0.640545 31.7472 0.515896 31.3062C0.381658 30.8363 0.362481 30.6446 0.458365 30.2514C0.515896 29.9926 0.688487 29.5898 0.85149 29.3693C1.0049 29.1488 1.32132 28.8611 1.54186 28.7269C1.77198 28.5927 2.14593 28.4105 2.38564 28.3242C2.77876 28.1708 3.44036 28.1516 10.392 28.1516L10.4193 28.1516C17.7947 28.142 17.9768 28.1418 18.2736 27.9502C18.4462 27.8448 18.6284 27.6626 18.6859 27.5475C18.7339 27.4229 18.7818 27.2407 18.7818 27.1352C18.7818 27.0297 18.6764 26.8092 18.3024 26.3681L12.1466 26.3394C6.33606 26.3202 5.95253 26.301 5.50187 26.1284C5.22381 26.023 4.84027 25.7641 4.59097 25.5148C4.34167 25.2559 4.10196 24.9107 4.03484 24.6902C3.97731 24.4792 3.91978 24.1149 3.91978 23.8752C3.91978 23.6354 3.97731 23.2711 4.04443 23.0697C4.10196 22.8684 4.31291 22.5232 4.49509 22.3218C4.67727 22.1109 5.07039 21.8232 5.35804 21.6794C5.84705 21.4493 5.99088 21.4301 8.80987 21.3822L9.366 21.8616C9.66324 22.1301 10.2385 22.5136 10.6317 22.715C11.0248 22.9259 11.6289 23.1848 11.9741 23.2903C12.3192 23.4053 13.0671 23.5971 13.652 23.7313C14.2369 23.856 15.0999 24.0286 15.5697 24.1149C16.0395 24.2012 16.9696 24.2683 17.6312 24.2683C18.5133 24.2779 19.0503 24.2299 19.6448 24.0861C20.0954 23.9806 20.6995 23.7984 20.9872 23.693C21.2748 23.5875 21.8597 23.2903 22.2816 23.041C22.7035 22.7917 23.3747 22.3122 24.4869 21.3726L27.6223 21.4013C29.6167 21.4205 30.7961 21.3918 30.8632 21.3342C30.9208 21.2767 30.9591 21.1712 30.9399 21.0849C30.9208 20.9986 29.9523 20.2124 28.7825 19.3398C27.5936 18.4481 26.6635 17.681 26.6827 17.6235C26.7019 17.5564 26.7786 17.24 26.8457 16.9236C26.9224 16.5592 26.9703 15.7921 26.9607 14.862C26.9607 14.047 26.9032 13.1745 26.7402 12.4649Z" fill="#0033D9"/>
</svg>
