<?xml version="1.0" encoding="UTF-8"?>
<svg xmlns="http://www.w3.org/2000/svg" xmlns:xlink="http://www.w3.org/1999/xlink" width="20px" height="20px" viewBox="0 0 20 20" version="1.1">
<g id="surface1">
<path style=" stroke:none;fill-rule:evenodd;fill:rgb(0%,20%,85.098039%);fill-opacity:1;" d="M 19.671875 19.820312 L 0.203125 19.820312 L 0.203125 4.820312 L 19.671875 4.820312 Z M 1.429688 18.75 L 18.449219 18.75 L 18.449219 5.894531 L 1.429688 5.894531 Z M 1.429688 18.75 "/>
<path style=" stroke:none;fill-rule:evenodd;fill:rgb(0%,20%,85.098039%);fill-opacity:1;" d="M 15.511719 9.179688 L 14.285156 9.179688 L 14.285156 4.035156 C 14.285156 2.5 12.855469 1.25 11.101562 1.25 L 8.816406 1.25 C 7.0625 1.25 5.632812 2.5 5.632812 4.035156 L 5.632812 9.179688 L 4.40625 9.179688 L 4.40625 4.035156 C 4.40625 1.894531 6.367188 0.179688 8.816406 0.179688 L 11.101562 0.179688 C 13.550781 0.179688 15.511719 1.894531 15.511719 4.035156 Z M 15.511719 9.179688 "/>
</g>
</svg>
