<svg width="14" height="14" viewBox="0 0 14 14" fill="none" xmlns="http://www.w3.org/2000/svg">
<path d="M5.0573 6.82586C5.51111 7.75365 6.26318 8.5023 7.19303 8.95188C7.26106 8.98412 7.33631 8.99809 7.41138 8.99241C7.48645 8.98673 7.55875 8.9616 7.62116 8.91949L8.9903 8.00652C9.05085 7.96614 9.12052 7.94151 9.19299 7.93485C9.26547 7.92819 9.33846 7.93972 9.40536 7.96839L11.9668 9.06613C12.0538 9.10309 12.1264 9.16733 12.1737 9.24917C12.2211 9.331 12.2405 9.42601 12.2292 9.51986C12.1482 10.1534 11.8391 10.7356 11.3598 11.1577C10.8804 11.5797 10.2637 11.8125 9.625 11.8125C7.65245 11.8125 5.7607 11.0289 4.36589 9.63413C2.97109 8.23933 2.1875 6.34757 2.1875 4.37502C2.18753 3.73637 2.42036 3.11962 2.84237 2.64027C3.26439 2.16091 3.84666 1.85182 4.48016 1.77086C4.57402 1.7595 4.66902 1.77895 4.75085 1.82628C4.83269 1.87361 4.89693 1.94625 4.93389 2.03326L6.03259 4.5969C6.06101 4.66321 6.07259 4.73552 6.0663 4.80738C6.06001 4.87925 6.03604 4.94845 5.99653 5.00882L5.08673 6.39896C5.04532 6.46149 5.02084 6.5337 5.01568 6.60852C5.01052 6.68335 5.02486 6.75823 5.0573 6.82586Z" fill="white"/>
</svg>
