<svg width="22" height="22" viewBox="0 0 22 22" fill="none" xmlns="http://www.w3.org/2000/svg">
<g clip-path="url(#clip0_1298_4897)">
<mask id="mask0_1298_4897" style="mask-type:luminance" maskUnits="userSpaceOnUse" x="0" y="0" width="22" height="22">
<path d="M22 0H0V22H22V0Z" fill="white"/>
</mask>
<g mask="url(#mask0_1298_4897)">
<path fill-rule="evenodd" clip-rule="evenodd" d="M0 0H22V22H0V0Z" fill="#F7FCFF"/>
<path fill-rule="evenodd" clip-rule="evenodd" d="M0 13.4445V15.2778H22V13.4445H0Z" fill="#E31D1C"/>
<path fill-rule="evenodd" clip-rule="evenodd" d="M0 16.8055V18.6389H22V16.8055H0Z" fill="#E31D1C"/>
<path fill-rule="evenodd" clip-rule="evenodd" d="M0 6.72217V8.5555H22V6.72217H0Z" fill="#E31D1C"/>
<path fill-rule="evenodd" clip-rule="evenodd" d="M0 20.1666V22H22V20.1666H0Z" fill="#E31D1C"/>
<path fill-rule="evenodd" clip-rule="evenodd" d="M0 10.0834V11.9167H22V10.0834H0Z" fill="#E31D1C"/>
<path fill-rule="evenodd" clip-rule="evenodd" d="M0 0V1.83333H22V0H0Z" fill="#E31D1C"/>
<path fill-rule="evenodd" clip-rule="evenodd" d="M0 3.36121V5.19454H22V3.36121H0Z" fill="#E31D1C"/>
<path d="M13.75 0H0V11.9167H13.75V0Z" fill="#2E42A5"/>
<path fill-rule="evenodd" clip-rule="evenodd" d="M1.18396 2.69382L0.684916 3.16029L0.853401 2.33015L0.410156 1.80407H0.989093L1.18326 1.12659L1.41094 1.80407H1.90446L1.51669 2.33015L1.66682 3.16029L1.18396 2.69382ZM3.93396 2.69382L3.43492 3.16029L3.6034 2.33015L3.16016 1.80407H3.73909L3.93326 1.12659L4.16094 1.80407H4.65446L4.26669 2.33015L4.41682 3.16029L3.93396 2.69382ZM6.18492 3.16029L6.68396 2.69382L7.16678 3.16029L7.0167 2.33015L7.40445 1.80407H6.91096L6.68326 1.12659L6.48909 1.80407H5.91016L6.3534 2.33015L6.18492 3.16029ZM9.43395 2.69382L8.93489 3.16029L9.1034 2.33015L8.66017 1.80407H9.23911L9.43326 1.12659L9.66096 1.80407H10.1545L9.7667 2.33015L9.91678 3.16029L9.43395 2.69382ZM0.684916 6.82696L1.18396 6.36049L1.66682 6.82696L1.51669 5.99682L1.90446 5.47073H1.41094L1.18326 4.79325L0.989093 5.47073H0.410156L0.853401 5.99682L0.684916 6.82696ZM3.93396 6.36049L3.43492 6.82696L3.6034 5.99682L3.16016 5.47073H3.73909L3.93326 4.79325L4.16094 5.47073H4.65446L4.26669 5.99682L4.41682 6.82696L3.93396 6.36049ZM6.18492 6.82696L6.68396 6.36049L7.16678 6.82696L7.0167 5.99682L7.40445 5.47073H6.91096L6.68326 4.79325L6.48909 5.47073H5.91016L6.3534 5.99682L6.18492 6.82696ZM9.43395 6.36049L8.93489 6.82696L9.1034 5.99682L8.66017 5.47073H9.23911L9.43326 4.79325L9.66096 5.47073H10.1545L9.7667 5.99682L9.91678 6.82696L9.43395 6.36049ZM0.684916 10.4936L1.18396 10.0271L1.66682 10.4936L1.51669 9.6635L1.90446 9.1374H1.41094L1.18326 8.45992L0.989093 9.1374H0.410156L0.853401 9.6635L0.684916 10.4936ZM3.93396 10.0271L3.43492 10.4936L3.6034 9.6635L3.16016 9.1374H3.73909L3.93326 8.45992L4.16094 9.1374H4.65446L4.26669 9.6635L4.41682 10.4936L3.93396 10.0271ZM6.18492 10.4936L6.68396 10.0271L7.16678 10.4936L7.0167 9.6635L7.40445 9.1374H6.91096L6.68326 8.45992L6.48909 9.1374H5.91016L6.3534 9.6635L6.18492 10.4936ZM9.43395 10.0271L8.93489 10.4936L9.1034 9.6635L8.66017 9.1374H9.23911L9.43326 8.45992L9.66096 9.1374H10.1545L9.7667 9.6635L9.91678 10.4936L9.43395 10.0271ZM11.6849 3.16029L12.184 2.69382L12.6668 3.16029L12.5167 2.33015L12.9045 1.80407H12.411L12.1833 1.12659L11.9891 1.80407H11.4102L11.8534 2.33015L11.6849 3.16029ZM12.184 6.36049L11.6849 6.82696L11.8534 5.99682L11.4102 5.47073H11.9891L12.1833 4.79325L12.411 5.47073H12.9045L12.5167 5.99682L12.6668 6.82696L12.184 6.36049ZM11.6849 10.4936L12.184 10.0271L12.6668 10.4936L12.5167 9.6635L12.9045 9.1374H12.411L12.1833 8.45992L11.9891 9.1374H11.4102L11.8534 9.6635L11.6849 10.4936ZM2.55896 4.52715L2.05992 4.99363L2.2284 4.16349L1.78516 3.6374H2.36409L2.55826 2.95992L2.78594 3.6374H3.27946L2.89169 4.16349L3.04182 4.99363L2.55896 4.52715ZM4.80992 4.99363L5.30896 4.52715L5.79182 4.99363L5.64169 4.16349L6.02946 3.6374H5.53594L5.30826 2.95992L5.11409 3.6374H4.53516L4.9784 4.16349L4.80992 4.99363ZM8.05895 4.52715L7.55989 4.99363L7.7284 4.16349L7.28517 3.6374H7.86411L8.05826 2.95992L8.28596 3.6374H8.77945L8.3917 4.16349L8.54178 4.99363L8.05895 4.52715ZM2.05992 8.66029L2.55896 8.19382L3.04182 8.66029L2.89169 7.83015L3.27946 7.30407H2.78594L2.55826 6.62659L2.36409 7.30407H1.78516L2.2284 7.83015L2.05992 8.66029ZM5.30896 8.19382L4.80992 8.66029L4.9784 7.83015L4.53516 7.30407H5.11409L5.30826 6.62659L5.53594 7.30407H6.02946L5.64169 7.83015L5.79182 8.66029L5.30896 8.19382ZM7.55989 8.66029L8.05895 8.19382L8.54178 8.66029L8.3917 7.83015L8.77945 7.30407H8.28596L8.05826 6.62659L7.86411 7.30407H7.28517L7.7284 7.83015L7.55989 8.66029ZM10.809 4.52715L10.3099 4.99363L10.4784 4.16349L10.0352 3.6374H10.6141L10.8083 2.95992L11.036 3.6374H11.5295L11.1417 4.16349L11.2918 4.99363L10.809 4.52715ZM10.3099 8.66029L10.809 8.19382L11.2918 8.66029L11.1417 7.83015L11.5295 7.30407H11.036L10.8083 6.62659L10.6141 7.30407H10.0352L10.4784 7.83015L10.3099 8.66029Z" fill="#F7FCFF"/>
</g>
</g>
<defs>
<clipPath id="clip0_1298_4897">
<rect width="22" height="22" rx="11" fill="white"/>
</clipPath>
</defs>
</svg>
