<svg width="22" height="22" viewBox="0 0 22 22" fill="none" xmlns="http://www.w3.org/2000/svg">
<g clip-path="url(#clip0_1298_4982)">
<mask id="mask0_1298_4982" style="mask-type:luminance" maskUnits="userSpaceOnUse" x="0" y="0" width="22" height="22">
<path d="M22 0H0V22H22V0Z" fill="white"/>
</mask>
<g mask="url(#mask0_1298_4982)">
<path fill-rule="evenodd" clip-rule="evenodd" d="M0 0V22H22V0H0Z" fill="#FFB400"/>
<mask id="mask1_1298_4982" style="mask-type:luminance" maskUnits="userSpaceOnUse" x="0" y="0" width="22" height="22">
<path fill-rule="evenodd" clip-rule="evenodd" d="M0 0V22H22V0H0Z" fill="white"/>
</mask>
<g mask="url(#mask1_1298_4982)">
<path fill-rule="evenodd" clip-rule="evenodd" d="M0 0V5.5H22V0H0Z" fill="#C51918"/>
<path fill-rule="evenodd" clip-rule="evenodd" d="M0 16.5V22H22V16.5H0Z" fill="#C51918"/>
<path d="M4.21238 9.41602H3.44238V14.7547H4.21238V9.41602Z" fill="#F1F9FF"/>
<path fill-rule="evenodd" clip-rule="evenodd" d="M4.52077 8.49219H3.13477V9.00552H3.36577V9.41622H4.28977V9.00552H4.52077V8.49219Z" fill="#C88A02"/>
<path fill-rule="evenodd" clip-rule="evenodd" d="M4.28977 15.0628H4.52077V15.5761H3.13477V15.0628H3.36577V14.6521H4.28977V15.0628Z" fill="#C88A02"/>
<path fill-rule="evenodd" clip-rule="evenodd" d="M3.82806 8.59467C3.99563 8.59467 4.01266 8.51054 4.11152 8.38489C4.18828 8.28732 4.36706 8.16632 4.36706 8.03C4.36706 7.71815 4.12574 7.46533 3.82806 7.46533C3.53038 7.46533 3.28906 7.71815 3.28906 8.03C3.28906 8.18186 3.41218 8.2834 3.50527 8.38489C3.60335 8.49181 3.67534 8.59467 3.82806 8.59467Z" fill="#AD1619"/>
<path fill-rule="evenodd" clip-rule="evenodd" d="M3.13477 15.5759H4.52077V16.3973C4.52077 16.3973 4.34752 16.2946 4.17427 16.2946C4.00102 16.2946 3.82777 16.3973 3.82777 16.3973C3.82777 16.3973 3.65452 16.2946 3.48127 16.2946C3.30802 16.2946 3.13477 16.3973 3.13477 16.3973V15.5759Z" fill="#005BBF"/>
<mask id="mask2_1298_4982" style="mask-type:luminance" maskUnits="userSpaceOnUse" x="3" y="15" width="2" height="2">
<path fill-rule="evenodd" clip-rule="evenodd" d="M3.13477 15.5759H4.52077V16.3973C4.52077 16.3973 4.34752 16.2946 4.17427 16.2946C4.00102 16.2946 3.82777 16.3973 3.82777 16.3973C3.82777 16.3973 3.65452 16.2946 3.48127 16.2946C3.30802 16.2946 3.13477 16.3973 3.13477 16.3973V15.5759Z" fill="white"/>
</mask>
<g mask="url(#mask2_1298_4982)">
<path d="M3.12205 16.2358L3.0918 16.1374C3.21663 16.0634 3.34191 16.0262 3.46738 16.0262C3.54844 16.0262 3.59077 16.0413 3.66274 16.084C3.72595 16.1215 3.75871 16.1331 3.82784 16.1331C3.89697 16.1331 3.92974 16.1215 3.99294 16.084C4.0649 16.0413 4.10723 16.0262 4.1883 16.0262C4.31377 16.0262 4.43905 16.0634 4.56388 16.1374L4.53363 16.2358C4.41816 16.1673 4.30314 16.1331 4.1883 16.1331C4.11917 16.1331 4.0864 16.1448 4.02319 16.1824C3.95123 16.225 3.9089 16.2401 3.82784 16.2401C3.74678 16.2401 3.70445 16.225 3.63248 16.1824C3.56927 16.1448 3.53651 16.1331 3.46738 16.1331C3.35254 16.1331 3.23752 16.1673 3.12205 16.2358Z" fill="white"/>
<path d="M3.12205 15.9279L3.0918 15.8295C3.21663 15.7555 3.34191 15.7183 3.46738 15.7183C3.54844 15.7183 3.59077 15.7334 3.66274 15.776C3.72595 15.8136 3.75871 15.8252 3.82784 15.8252C3.89697 15.8252 3.92974 15.8136 3.99294 15.776C4.0649 15.7334 4.10723 15.7183 4.1883 15.7183C4.31377 15.7183 4.43905 15.7555 4.56388 15.8295L4.53363 15.9279C4.41816 15.8593 4.30314 15.8252 4.1883 15.8252C4.11917 15.8252 4.0864 15.8369 4.02319 15.8744C3.95123 15.9171 3.9089 15.9322 3.82784 15.9322C3.74678 15.9322 3.70445 15.9171 3.63248 15.8744C3.56927 15.8369 3.53651 15.8252 3.46738 15.8252C3.35254 15.8252 3.23752 15.8593 3.12205 15.9279Z" fill="white"/>
</g>
<path d="M11.7583 9.41602H10.9883V14.7547H11.7583V9.41602Z" fill="#F1F9FF"/>
<path fill-rule="evenodd" clip-rule="evenodd" d="M12.0667 8.49219H10.6807V9.00552H10.9117V9.41622H11.8357V9.00552H12.0667V8.49219Z" fill="#C88A02"/>
<path fill-rule="evenodd" clip-rule="evenodd" d="M11.8357 15.0628H12.0667V15.5761H10.6807V15.0628H10.9117V14.6521H11.8357V15.0628Z" fill="#C88A02"/>
<path fill-rule="evenodd" clip-rule="evenodd" d="M11.374 8.59467C11.5415 8.59467 11.5586 8.51054 11.6574 8.38489C11.7341 8.28732 11.913 8.16632 11.913 8.03C11.913 7.71815 11.6716 7.46533 11.374 7.46533C11.0763 7.46533 10.835 7.71815 10.835 8.03C10.835 8.18186 10.958 8.2834 11.0511 8.38489C11.1492 8.49181 11.2212 8.59467 11.374 8.59467Z" fill="#AD1619"/>
<path fill-rule="evenodd" clip-rule="evenodd" d="M10.6807 15.5759H12.0667V16.3973C12.0667 16.3973 11.8934 16.2946 11.7202 16.2946C11.5469 16.2946 11.3737 16.3973 11.3737 16.3973C11.3737 16.3973 11.2004 16.2946 11.0272 16.2946C10.8539 16.2946 10.6807 16.3973 10.6807 16.3973V15.5759Z" fill="#005BBF"/>
<mask id="mask3_1298_4982" style="mask-type:luminance" maskUnits="userSpaceOnUse" x="10" y="15" width="3" height="2">
<path fill-rule="evenodd" clip-rule="evenodd" d="M10.6807 15.5759H12.0667V16.3973C12.0667 16.3973 11.8934 16.2946 11.7202 16.2946C11.5469 16.2946 11.3737 16.3973 11.3737 16.3973C11.3737 16.3973 11.2004 16.2946 11.0272 16.2946C10.8539 16.2946 10.6807 16.3973 10.6807 16.3973V15.5759Z" fill="white"/>
</mask>
<g mask="url(#mask3_1298_4982)">
<path d="M10.6679 16.2358L10.6377 16.1374C10.7625 16.0634 10.8878 16.0262 11.0133 16.0262C11.0943 16.0262 11.1367 16.0413 11.2087 16.084C11.2718 16.1215 11.3046 16.1331 11.3737 16.1331C11.4429 16.1331 11.4756 16.1215 11.5389 16.084C11.6109 16.0413 11.6531 16.0262 11.7342 16.0262C11.8597 16.0262 11.985 16.0634 12.1098 16.1374L12.0795 16.2358C11.9641 16.1673 11.8491 16.1331 11.7342 16.1331C11.6651 16.1331 11.6323 16.1448 11.5691 16.1824C11.4971 16.225 11.4548 16.2401 11.3737 16.2401C11.2927 16.2401 11.2504 16.225 11.1784 16.1824C11.1152 16.1448 11.0824 16.1331 11.0133 16.1331C10.8985 16.1331 10.7834 16.1673 10.6679 16.2358Z" fill="white"/>
<path d="M10.6679 15.9279L10.6377 15.8295C10.7625 15.7555 10.8878 15.7183 11.0133 15.7183C11.0943 15.7183 11.1367 15.7334 11.2087 15.776C11.2718 15.8136 11.3046 15.8252 11.3737 15.8252C11.4429 15.8252 11.4756 15.8136 11.5389 15.776C11.6109 15.7334 11.6531 15.7183 11.7342 15.7183C11.8597 15.7183 11.985 15.7555 12.1098 15.8295L12.0795 15.9279C11.9641 15.8593 11.8491 15.8252 11.7342 15.8252C11.6651 15.8252 11.6323 15.8369 11.5691 15.8744C11.4971 15.9171 11.4548 15.9322 11.3737 15.9322C11.2927 15.9322 11.2504 15.9171 11.1784 15.8744C11.1152 15.8369 11.0824 15.8252 11.0133 15.8252C10.8985 15.8252 10.7834 15.8593 10.6679 15.9279Z" fill="white"/>
</g>
<path fill-rule="evenodd" clip-rule="evenodd" d="M3.42915 14.3733C3.56797 14.1489 3.6456 13.9447 3.6456 13.7278C3.6456 13.5912 3.61509 13.4731 3.56163 13.3766L3.57066 13.3712C3.56983 13.3717 3.72296 13.2827 3.77627 13.2486C3.87537 13.1853 3.96268 13.1182 4.04781 13.0356C4.10215 12.9829 4.17497 12.9255 4.28599 12.846C4.30517 12.8323 4.35716 12.7955 4.39031 12.772L4.41846 12.7521C4.47241 12.7137 4.51259 12.6843 4.54991 12.6554C4.66621 12.5655 4.74307 12.4912 4.80186 12.3917C4.94108 12.1563 4.91218 11.8372 4.71707 11.6601C4.62148 11.5733 4.49249 11.5235 4.30341 11.4844L4.26431 11.4763C4.19971 11.4629 4.0756 11.4374 4.03297 11.4285C3.94249 11.4095 3.86176 11.3918 3.78977 11.375C4.26315 11.2701 4.93913 11.3087 5.23647 11.5134L5.51908 10.7835C4.91315 10.3664 3.53256 10.4091 3.01685 10.8825C2.63858 11.2299 2.68934 11.7549 3.08291 11.981C3.24736 12.0755 3.46174 12.1382 3.85846 12.2231C3.79198 12.2746 3.73686 12.3216 3.6855 12.3714C3.63342 12.4219 3.57762 12.4648 3.50994 12.508C3.47757 12.5287 3.38174 12.5848 3.33779 12.6105L3.31568 12.6235C2.99511 12.8179 2.83953 13.0867 2.88602 13.5721L2.91119 13.8348L2.95633 13.8532L3.42915 14.3733ZM3.03288 13.6943L3.0319 13.6981L3.03265 13.6954L3.03288 13.6943ZM11.4853 13.7278C11.4853 13.9447 11.5629 14.1489 11.7017 14.3733L12.1745 13.8532L12.2197 13.8348L12.2449 13.5721C12.2913 13.0867 12.1357 12.8179 11.8152 12.6235L11.7931 12.6105C11.7492 12.5849 11.6533 12.5287 11.6209 12.508C11.5532 12.4648 11.4975 12.4219 11.4454 12.3714C11.394 12.3216 11.3389 12.2746 11.2724 12.2231C11.6691 12.1382 11.8835 12.0755 12.0479 11.981C12.4415 11.7549 12.4923 11.2299 12.114 10.8825C11.5983 10.4091 10.2177 10.3664 9.61179 10.7835L9.89442 11.5134C10.1917 11.3087 10.8677 11.2701 11.3411 11.375C11.2691 11.3918 11.1884 11.4095 11.0979 11.4285C11.0553 11.4374 10.9312 11.4629 10.8666 11.4762L10.8274 11.4844C10.6384 11.5235 10.5094 11.5733 10.4138 11.6601C10.2187 11.8372 10.1898 12.1563 10.329 12.3917C10.3878 12.4912 10.4646 12.5655 10.581 12.6554C10.6183 12.6843 10.6584 12.7137 10.7124 12.7521L10.7405 12.7719C10.7736 12.7954 10.8257 12.8323 10.8449 12.846C10.9559 12.9255 11.0287 12.9829 11.083 13.0356C11.1682 13.1182 11.2555 13.1853 11.3546 13.2486C11.4079 13.2827 11.5611 13.3717 11.5602 13.3712L11.5692 13.3766C11.5158 13.4731 11.4853 13.5912 11.4853 13.7278Z" fill="#AD1619"/>
<path d="M4.07169 11.3667L4.29897 11.4294V11.8811C4.0569 12.1386 3.44238 12.5727 3.44238 12.5727V11.3667H4.07169Z" fill="#F1F9FF"/>
<path d="M11.2155 11.3667L10.9883 11.4294V11.8811C11.2303 12.1386 11.8448 12.5727 11.8448 12.5727V11.3667H11.2155Z" fill="#F1F9FF"/>
<path fill-rule="evenodd" clip-rule="evenodd" d="M10.1583 6.60555V6.45522C9.76225 6.07624 9.34748 5.88673 8.91401 5.88673C8.49849 5.64155 8.07787 5.54637 7.65224 5.60122L7.65238 5.59857C7.01232 5.51507 6.3673 5.88673 6.3673 5.88673C5.71713 5.88673 5.12305 6.45522 5.12305 6.45522V6.60555L5.89967 7.64552C5.89967 7.64552 6.11827 8.64652 7.64922 8.41126V8.4138C7.64922 8.4138 8.66287 8.37691 8.73409 8.34532C8.76235 8.33279 8.79164 8.32139 8.82161 8.30973C9.02009 8.23245 9.24676 8.14422 9.38165 7.64552L10.1583 6.60555ZM7.64922 5.64721C7.62715 5.99344 7.50092 8.08063 7.64922 8.40422V5.64721Z" fill="#AD1619"/>
<path fill-rule="evenodd" clip-rule="evenodd" d="M5.71577 7.4705L5.71629 7.46734L5.16992 6.78195L5.22269 6.70718L5.73537 7.35031L5.74849 7.26985C5.83237 7.29417 5.89367 7.30311 5.9294 7.29805V7.15853L6.04305 7.24053C6.09895 7.28087 6.17901 7.29172 6.28444 7.26884C6.36189 7.25204 6.41414 7.13212 6.43123 6.87659L6.46572 6.36072L6.58143 6.85512C6.63379 7.07884 6.71366 7.17747 6.82737 7.17747C6.93843 7.17747 6.98304 7.12317 6.98799 6.98633L7.00195 6.59824L7.13361 6.94488C7.18105 7.06977 7.24643 7.12643 7.33945 7.12643C7.47241 7.12643 7.56123 6.97859 7.56123 6.74663H7.56378H7.71523H7.71778C7.71778 6.97859 7.8066 7.12643 7.93963 7.12643C8.03258 7.12643 8.09796 7.06977 8.1454 6.94488L8.27706 6.59824L8.29101 6.98633C8.29596 7.12317 8.34058 7.17747 8.45168 7.17747C8.5654 7.17747 8.64521 7.07884 8.6976 6.85512L8.81331 6.36072L8.84782 6.87659C8.86487 7.13212 8.91712 7.25204 8.9946 7.26884C9.09999 7.29172 9.18009 7.28087 9.23598 7.24053L9.34963 7.15853V7.29805C9.38538 7.30311 9.44663 7.29417 9.53051 7.26985L9.55491 7.41915L10.1224 6.70718L10.1752 6.78195L9.46891 7.66793C9.36592 7.92095 9.31401 8.08796 9.31401 8.15733C9.31401 8.26317 9.10749 8.32599 8.70441 8.39051C8.38864 8.44107 8.01601 8.47499 7.71118 8.48006L7.67254 8.48055L7.6339 8.48072C7.32913 8.47565 6.95644 8.44107 6.6407 8.39051C6.23764 8.32599 6.03113 8.26317 6.03113 8.15733C6.03113 8.14421 6.02927 8.12759 6.02556 8.10755C5.98492 8.03855 5.95634 7.92565 5.93733 7.82381C5.91948 7.77619 5.89911 7.72419 5.87619 7.66793L5.71972 7.47164L5.71577 7.4705ZM9.50074 7.48703C9.37465 7.51679 9.28363 7.51378 9.2353 7.46133C9.15974 7.49066 9.07105 7.49347 8.96985 7.47151C8.86178 7.44806 8.78649 7.35218 8.74119 7.19314C8.68206 7.2936 8.60726 7.35561 8.51768 7.37566C9.01041 7.46883 9.35561 7.5998 9.35561 7.5998C9.35561 7.5998 9.34708 7.69711 9.32639 7.8115C9.34832 7.75161 9.37424 7.68507 9.40428 7.61163L9.41171 7.59879L9.50074 7.48703ZM8.28517 7.33663C8.24234 7.30824 8.2081 7.26708 8.18335 7.21402C8.14664 7.25728 8.10484 7.28892 8.05843 7.30843C8.13591 7.31633 8.21168 7.32588 8.28517 7.33663ZM7.78659 7.28846C7.72664 7.25151 7.67673 7.19232 7.63954 7.11648C7.60255 7.19179 7.55312 7.25066 7.49372 7.28767C7.52892 7.28628 7.56426 7.28529 7.59987 7.28475L7.63074 7.28441L7.66161 7.2843C7.70355 7.28493 7.74521 7.28664 7.78659 7.28846ZM5.92785 7.59176L5.85605 7.5017C5.94224 7.5131 6.00602 7.50229 6.04374 7.46133C6.11932 7.49066 6.20796 7.49347 6.30918 7.47151C6.41727 7.44806 6.49255 7.35218 6.53785 7.19314C6.59528 7.29069 6.66745 7.35198 6.75359 7.37381C6.32874 7.45339 6.01178 7.56168 5.92785 7.59176ZM7.21728 7.307C7.14268 7.3144 7.0696 7.32333 6.99858 7.33342C7.03921 7.30517 7.07187 7.26511 7.09566 7.21402C7.13154 7.25624 7.17218 7.28739 7.21728 7.307ZM9.11155 8.15935C9.16551 8.19301 9.20876 8.15943 9.24293 8.09497C9.23997 8.11277 9.23811 8.12887 9.23736 8.14328C9.23289 8.14723 9.22594 8.15197 9.21687 8.15706C9.1915 8.17128 9.15273 8.18642 9.10233 8.20175C9.00333 8.23188 8.86233 8.26183 8.69526 8.28858C8.36898 8.34082 7.98102 8.37518 7.67254 8.37789C7.36413 8.37518 6.97617 8.34082 6.64988 8.28858C6.48279 8.26183 6.34181 8.23188 6.24277 8.20175C6.20053 8.18891 6.16647 8.17619 6.14163 8.16403C6.14436 8.16265 6.14713 8.16109 6.14992 8.15935C6.31813 8.0544 7.4304 7.95592 7.63074 7.93892C7.83108 7.95592 8.94331 8.0544 9.11155 8.15935Z" fill="#C88A02"/>
<path fill-rule="evenodd" clip-rule="evenodd" d="M7.6392 4.90152C7.7668 4.90152 7.8702 4.76363 7.8702 4.59352C7.8702 4.42342 7.7668 4.28552 7.6392 4.28552C7.5116 4.28552 7.4082 4.42342 7.4082 4.59352C7.4082 4.76363 7.5116 4.90152 7.6392 4.90152Z" fill="#005BBF"/>
<path fill-rule="evenodd" clip-rule="evenodd" d="M7.48898 6.41368C7.49393 6.44749 7.50163 6.47896 7.51132 6.507C7.48148 6.49181 7.44608 6.483 7.40813 6.483C7.30177 6.483 7.21563 6.55195 7.21563 6.637C7.21563 6.72206 7.30177 6.791 7.40813 6.791C7.51441 6.791 7.60063 6.72206 7.60063 6.637C7.60063 6.72206 7.68677 6.791 7.79313 6.791C7.89941 6.791 7.98556 6.72206 7.98556 6.637C7.98556 6.55195 7.89941 6.483 7.79313 6.483C7.76631 6.483 7.74088 6.48737 7.71771 6.49527C7.72328 6.45316 7.723 6.40489 7.71571 6.35491C7.69543 6.21576 7.62826 6.11611 7.56563 6.13235C7.503 6.14857 7.4687 6.27453 7.48898 6.41368ZM6.35633 6.60967C6.34661 6.58162 6.33891 6.55016 6.33398 6.51635C6.3137 6.3772 6.34802 6.25124 6.41063 6.23501C6.47325 6.21878 6.54045 6.31843 6.56074 6.45758C6.56802 6.50756 6.56827 6.55583 6.56269 6.59793C6.58584 6.59004 6.61133 6.58567 6.63809 6.58567C6.74441 6.58567 6.83059 6.65462 6.83059 6.73967C6.83059 6.82472 6.74441 6.89367 6.63809 6.89367C6.53178 6.89367 6.44559 6.82472 6.44559 6.73967C6.44559 6.82472 6.35941 6.89367 6.25309 6.89367C6.14678 6.89367 6.06059 6.82472 6.06059 6.73967C6.06059 6.65462 6.14678 6.58567 6.25309 6.58567C6.29108 6.58567 6.3265 6.59448 6.35633 6.60967ZM8.76793 6.70351C8.75906 6.78774 8.66653 6.84002 8.5612 6.8203C8.45595 6.80057 8.37778 6.7163 8.38665 6.63208C8.39551 6.54786 8.48812 6.49557 8.59338 6.51529C8.63098 6.52234 8.66515 6.53763 8.69313 6.55822C8.6864 6.52864 8.68206 6.49604 8.68069 6.46166C8.67512 6.3201 8.72228 6.20173 8.78595 6.19728C8.84968 6.19283 8.90585 6.30398 8.91141 6.44554C8.91341 6.49638 8.9086 6.54423 8.8987 6.58489C8.92241 6.58137 8.94813 6.58177 8.9746 6.58674C9.07992 6.60647 9.15802 6.69074 9.14915 6.77496C9.14028 6.85918 9.04775 6.91147 8.94249 6.89174C8.83716 6.87201 8.75906 6.78774 8.76793 6.70351ZM9.50108 7.11075C9.59493 7.1773 9.6953 7.17037 9.72528 7.09527L9.72686 7.09107C9.73607 7.10412 9.74707 7.11362 9.75951 7.11871C9.82056 7.14358 9.89516 7.05384 9.92623 6.91828C9.95738 6.78272 9.93311 6.65267 9.87213 6.62781C9.81108 6.60294 9.73641 6.69267 9.70534 6.82823C9.69778 6.86116 9.69351 6.89377 9.69221 6.92462C9.67124 6.89253 9.64305 6.86258 9.6095 6.8388C9.51566 6.77225 9.41528 6.77918 9.38531 6.85428C9.3554 6.92937 9.40724 7.0442 9.50108 7.11075ZM5.72291 7.1422C5.62903 7.20875 5.52866 7.20182 5.49871 7.12672C5.49816 7.12534 5.49763 7.12393 5.49714 7.12252C5.48789 7.13557 5.47694 7.14506 5.46445 7.15016C5.40345 7.17502 5.3288 7.08529 5.29772 6.94973C5.26663 6.81417 5.29089 6.68412 5.35189 6.65926C5.41289 6.63439 5.48754 6.72412 5.51862 6.85968C5.52618 6.89261 5.53046 6.92522 5.53175 6.95607C5.55274 6.92397 5.58092 6.89403 5.61446 6.87026C5.70832 6.80371 5.8087 6.81064 5.83865 6.88573C5.86859 6.96082 5.81678 7.07565 5.72291 7.1422Z" fill="#C88A02"/>
<path fill-rule="evenodd" clip-rule="evenodd" d="M7.55376 3.73694H7.71415V3.87206H7.819V4.08595H7.71415V4.51372H7.819V4.72762H7.44727V4.51372H7.55376V4.08595H7.44727V3.87206H7.55376V3.73694Z" fill="#C88A02"/>
<path d="M7.83144 4.89868H7.52344V6.23335H7.83144V4.89868Z" fill="#C88A02"/>
<path d="M6.28375 5.12216L6.28241 5.22481C5.59966 5.20892 5.20801 5.34176 5.1086 5.60654C5.00582 5.88029 5.02493 6.21305 5.16895 6.60835L5.09969 6.65321C4.94603 6.23145 4.92505 5.86608 5.03975 5.56059C5.15781 5.24614 5.57211 5.10559 6.28375 5.12216Z" fill="white"/>
<path d="M6.4159 6.03258L6.37642 6.12072C6.22774 6.00235 6.15332 5.80034 6.15332 5.52195C6.15332 5.12184 6.3079 4.88722 6.64983 4.72666C6.86805 4.62418 7.16614 4.66619 7.54496 4.84933L7.51876 4.94584C7.15508 4.77004 6.87368 4.73039 6.67541 4.82349C6.36178 4.97077 6.23032 5.1703 6.23032 5.52195C6.23032 5.76625 6.29213 5.93404 6.4159 6.03258Z" fill="white"/>
<path d="M5.26625 6.45093L5.12095 6.51897C4.97019 5.94665 5.01324 5.55797 5.27085 5.39031C5.49783 5.24257 5.82865 5.18244 6.26493 5.20602L6.2587 5.41118C5.84563 5.38887 5.53831 5.44472 5.3384 5.57483C5.16911 5.68502 5.13814 5.96459 5.26625 6.45093Z" fill="#C88A02"/>
<path d="M6.96325 4.98536C6.61118 4.98536 6.46658 5.0997 6.38398 5.4373C6.33134 5.65244 6.38239 5.83607 6.54793 6.00746L6.45348 6.16964C6.23916 5.94773 6.16359 5.67596 6.23758 5.37362C6.34285 4.94338 6.54941 4.78003 6.96325 4.78003C7.23454 4.78003 7.44581 4.87505 7.59293 5.06843L7.6159 5.09859V6.08855H7.4619V5.18635C7.34701 5.05327 7.18195 4.98536 6.96325 4.98536Z" fill="#C88A02"/>
<path d="M8.9707 5.22494L8.97201 5.3276C9.65477 5.3117 10.0464 5.44455 10.1458 5.70933C10.2486 5.98307 10.2295 6.31584 10.0855 6.71113L10.1548 6.75599C10.3084 6.33424 10.3294 5.96886 10.2147 5.66337C10.0966 5.34892 9.68233 5.20838 8.9707 5.22494Z" fill="white"/>
<path d="M8.72967 6.05381L8.7692 6.14196C8.91784 6.02359 8.99229 5.82159 8.99229 5.54319C8.99229 5.14308 8.83767 4.90846 8.49578 4.74789C8.27757 4.64542 7.9794 4.68744 7.60059 4.87056L7.62685 4.96709C7.99054 4.79128 8.27193 4.75163 8.4702 4.84473C8.78384 4.992 8.91529 5.19153 8.91529 5.54319C8.91529 5.7875 8.85349 5.95528 8.72967 6.05381Z" fill="white"/>
<path d="M10.0368 6.55359L10.1821 6.62163C10.3329 6.04931 10.2898 5.66064 10.0322 5.49297C9.8052 5.34523 9.47437 5.2851 9.03809 5.30868L9.04434 5.51385C9.45739 5.49153 9.7647 5.54738 9.96463 5.67749C10.134 5.78768 10.1649 6.06725 10.0368 6.55359Z" fill="#C88A02"/>
<path d="M8.33038 5.00123C8.68245 5.00123 8.82703 5.11558 8.90967 5.45317C8.96226 5.66832 8.91125 5.85194 8.7457 6.02334L8.84016 6.18552C9.05445 5.96361 9.13001 5.69183 9.05603 5.38949C8.95078 4.95925 8.74418 4.7959 8.33038 4.7959C8.05909 4.7959 7.84782 4.89092 7.7007 5.0843L7.67773 5.11446V6.10443H7.83173V5.20222C7.94662 5.06915 8.11168 5.00123 8.33038 5.00123Z" fill="#C88A02"/>
<path opacity="0.3" fill-rule="evenodd" clip-rule="evenodd" d="M5.13672 8.49219H10.1417V14.488C10.1417 14.488 9.76993 16.5002 7.63923 16.5002C5.5085 16.5002 5.13672 14.4349 5.13672 14.4349V8.49219Z" fill="#E1E5E8"/>
<mask id="mask4_1298_4982" style="mask-type:luminance" maskUnits="userSpaceOnUse" x="5" y="8" width="6" height="9">
<path fill-rule="evenodd" clip-rule="evenodd" d="M5.13672 8.49219H10.1417V14.488C10.1417 14.488 9.76993 16.5002 7.63923 16.5002C5.5085 16.5002 5.13672 14.4349 5.13672 14.4349V8.49219Z" fill="white"/>
</mask>
<g mask="url(#mask4_1298_4982)">
<path d="M7.67772 12.1882H5.13672V16.1922H7.67772V12.1882Z" fill="#FFC034"/>
<path d="M5.75331 12.3937H5.44531V16.1923H5.75331V12.3937Z" fill="#AD1619"/>
<path d="M6.83046 12.3937H6.52246V16.1923H6.83046V12.3937Z" fill="#AD1619"/>
<path d="M6.29237 12.3937H5.98438V16.1923H6.29237V12.3937Z" fill="#AD1619"/>
<path d="M7.36952 12.3937H7.06152V16.1923H7.36952V12.3937Z" fill="#AD1619"/>
<path d="M7.67772 8.38953H5.13672V12.2909H7.67772V8.38953Z" fill="#AD1619"/>
<path d="M10.1416 12.0856H7.60059V15.9869H10.1416V12.0856Z" fill="#AD1619"/>
<path d="M10.2956 8.49219H7.60059V12.2909H10.2956V8.49219Z" fill="#F1F9FF"/>
<path fill-rule="evenodd" clip-rule="evenodd" d="M6.21478 8.80017H6.44578V9.65194H6.59978V9.22605H6.83078V9.65194H7.06181V10.1842H6.83078V11.1425H7.06181V11.6748H5.67578V11.1425H5.90678V10.1842H5.67578V9.65194H5.82978V9.22605H6.06078V9.65194H6.21478V8.80017Z" fill="#C88A02"/>
<path d="M8.92285 8.97899L9.08056 8.75391L9.41159 9.16625L9.25395 9.3913L8.92285 8.97899Z" fill="#C88A02"/>
<path fill-rule="evenodd" clip-rule="evenodd" d="M9.87227 14.7954V12.5476H7.94727V14.7766L7.95029 14.7939C8.04778 15.3476 8.37963 15.6276 8.90977 15.6276C9.43942 15.6276 9.7712 15.3548 9.86903 14.8131L9.87227 14.7954ZM8.90977 15.3196C8.48441 15.3196 8.2521 15.1286 8.17827 14.7403V12.8556H9.64127V14.7581C9.56757 15.1338 9.33526 15.3196 8.90977 15.3196Z" fill="#FFC034"/>
<path fill-rule="evenodd" clip-rule="evenodd" d="M8.9892 12.7355H8.82881V13.7544L8.19638 12.8374L8.08301 12.9764L8.65494 13.8058H8.13677V14.1138H8.53483H8.66752L8.08301 14.9613L8.19638 15.1003L8.82881 14.1833V15.3745H8.9892V14.2905L9.54766 15.1003L9.66103 14.9613L9.07651 14.1138H9.72895V13.8058H9.0891L9.66103 12.9764L9.54766 12.8374L8.9892 13.6473V12.7355Z" fill="#FFC034"/>
<path fill-rule="evenodd" clip-rule="evenodd" d="M9.26932 15.9894C9.26932 15.9894 7.63843 16.1603 7.63843 14.7579C7.63843 14.7579 7.62289 15.9894 5.91992 15.9894V17.0965H9.26932V15.9894Z" fill="#F1F9FF"/>
<path fill-rule="evenodd" clip-rule="evenodd" d="M7.63902 13.0095C7.95795 13.0095 8.21652 12.6418 8.21652 12.1882C8.21652 11.7346 7.95795 11.3668 7.63902 11.3668C7.32009 11.3668 7.06152 11.7346 7.06152 12.1882C7.06152 12.6418 7.32009 13.0095 7.63902 13.0095Z" fill="#005BBF" stroke="#AD1619" stroke-width="1.16667"/>
</g>
</g>
</g>
</g>
<defs>
<clipPath id="clip0_1298_4982">
<rect width="22" height="22" rx="11" fill="white"/>
</clipPath>
</defs>
</svg>
