<svg width="32" height="32" viewBox="0 0 32 32" fill="none" xmlns="http://www.w3.org/2000/svg">
<path fill-rule="evenodd" clip-rule="evenodd" d="M6.90278 3.0597C6.76202 3.09168 6.47411 3.17485 6.26298 3.24521C6.05185 3.32198 5.68076 3.5011 5.43124 3.64823C5.18172 3.80176 4.79784 4.09603 4.57391 4.30714C4.34998 4.51824 4.04287 4.86369 3.89572 5.07479C3.74217 5.28589 3.55023 5.61215 3.45426 5.79766C3.36469 5.97678 3.22393 6.35421 3.14715 6.62289L3 7.12187C3 24.2853 3.0064 24.8675 3.11516 25.2897C3.17914 25.5392 3.33909 25.9678 3.47985 26.2492C3.61421 26.5307 3.88292 26.9465 4.06847 27.1768C4.25401 27.4007 4.5931 27.7398 4.82343 27.9253C5.05376 28.1172 5.42484 28.3667 5.65517 28.4818C5.8855 28.6034 6.28857 28.7697 6.55089 28.8529L7.03074 29H25.0731C25.8665 28.7185 26.2951 28.5202 26.5446 28.3731C26.7942 28.226 27.2036 27.9061 27.466 27.6566C27.7219 27.4135 28.0546 27.0233 28.2081 26.793C28.3617 26.5627 28.5536 26.2045 28.6432 25.9934C28.7328 25.7823 28.8543 25.3792 28.9055 25.0978C29.0015 24.6372 29.0079 23.684 28.9951 15.758L28.9759 6.92995C28.7072 6.13671 28.5216 5.7209 28.3873 5.497C28.2529 5.2731 28.0034 4.92766 27.8306 4.72935C27.6515 4.53103 27.3508 4.23677 27.1588 4.06405C26.9605 3.89772 26.583 3.64823 26.3207 3.5075C26.0584 3.37316 25.6105 3.20044 25.329 3.12367C24.8236 2.99573 24.7084 2.99573 15.9879 3.00212C11.1319 3.00852 7.04354 3.03411 6.90278 3.0597ZM14.8043 5.20274C14.574 5.25391 14.2605 5.34347 14.1005 5.40105C13.9406 5.45862 13.6399 5.59936 13.4287 5.71451C13.2176 5.82965 12.8273 6.09194 12.565 6.30304C12.3027 6.50775 11.8996 6.91077 11.6693 7.19864C11.439 7.48011 11.1447 7.92791 11.0167 8.18379C10.8887 8.44607 10.716 8.88748 10.6328 9.16895C10.5113 9.59755 10.4857 9.83425 10.4857 10.6083C10.4857 11.376 10.5113 11.619 10.6328 12.0349C10.7096 12.3035 10.8823 12.7513 11.0231 13.02C11.1574 13.2951 11.439 13.7365 11.6501 13.9988C11.8612 14.2611 12.2451 14.6513 12.5074 14.8624C12.7697 15.0799 13.1664 15.355 13.3967 15.4829C13.6271 15.6108 14.0557 15.79 14.3565 15.8859C14.7851 16.0267 15.073 16.065 15.7 16.097C16.3078 16.1162 16.6341 16.1034 17.0436 16.0203C17.3443 15.9563 17.773 15.8347 18.0033 15.7452C18.2336 15.6556 18.6175 15.4509 18.867 15.291C19.1166 15.1311 19.5004 14.8304 19.718 14.6129C19.9419 14.3954 20.2618 14.0372 20.4345 13.8069C20.6009 13.5766 20.8248 13.2183 20.9336 13.0072C21.036 12.7961 21.1895 12.4059 21.2727 12.1436C21.407 11.7214 21.4262 11.5359 21.4262 10.6083C21.4262 9.67432 21.407 9.4952 21.2727 9.07299C21.1895 8.81071 21.0296 8.40769 20.9144 8.17739C20.7992 7.9471 20.5753 7.58886 20.4154 7.37776C20.2618 7.16665 19.9483 6.82121 19.7244 6.6101C19.5004 6.399 19.1677 6.12392 18.995 6.00238C18.8159 5.88723 18.4768 5.68892 18.2272 5.57377C17.9777 5.45862 17.6066 5.31788 17.3955 5.26031C17.1588 5.19634 16.6725 5.14516 16.1159 5.13237C15.4889 5.11318 15.0986 5.13877 14.8043 5.20274ZM10.4217 16.1162C10.3193 16.1482 10.1402 16.2442 10.0378 16.3209C9.93543 16.4041 9.76908 16.628 9.66672 16.8199C9.53876 17.0758 9.49397 17.2613 9.49397 17.5172C9.49397 17.7411 9.53876 17.9394 9.60913 18.0609C9.67311 18.1633 10.025 18.5023 10.3961 18.8158C10.8312 19.1804 11.2598 19.4747 11.6373 19.6602C11.9956 19.8393 12.5074 20.0249 12.9809 20.14C13.4031 20.2488 13.9982 20.3703 14.3053 20.4151L14.8683 20.4918C11.3878 23.9783 10.684 24.7267 10.6136 24.8931C10.5624 25.021 10.5176 25.2577 10.5176 25.4176C10.5176 25.5775 10.5496 25.7823 10.588 25.8846C10.62 25.9806 10.7864 26.1981 10.9527 26.3644C11.1191 26.5371 11.3558 26.7162 11.4774 26.7674C11.5989 26.8186 11.8228 26.857 11.9764 26.857C12.1235 26.857 12.3539 26.8122 12.4882 26.761C12.6418 26.6906 13.288 26.0957 14.4012 24.9826L16.0839 23.3066C19.1549 26.3644 19.558 26.729 19.7628 26.793C19.9035 26.8378 20.1658 26.8634 20.345 26.8506C20.5817 26.8314 20.7544 26.7674 20.9528 26.6331C21.1063 26.5307 21.3175 26.3132 21.4198 26.1661C21.5798 25.9422 21.6246 25.8078 21.6374 25.4944C21.6566 25.2065 21.631 25.0274 21.5414 24.8483C21.4646 24.6883 20.6841 23.8951 19.2701 22.5325C18.0801 21.3938 17.1076 20.4343 17.1076 20.3959C17.1076 20.3575 17.2036 20.3319 17.3123 20.3319C17.4275 20.3319 17.8562 20.2615 18.2592 20.1784C18.6623 20.0952 19.2253 19.9481 19.5068 19.8521C19.7884 19.7626 20.2362 19.5707 20.4985 19.4235C20.7608 19.2828 21.1767 19.0205 21.4198 18.8414C21.663 18.6559 21.9893 18.368 22.1428 18.1889C22.2964 18.0162 22.4563 17.7795 22.4883 17.6771C22.5395 17.53 22.5267 17.3892 22.4499 17.1014C22.3667 16.8199 22.2708 16.6472 22.0724 16.4553C21.8741 16.2506 21.7269 16.1738 21.4582 16.1098C21.2023 16.0522 21.036 16.0522 20.8504 16.097C20.7097 16.1354 20.3962 16.3017 20.1466 16.4681C19.8971 16.6344 19.6284 16.8327 19.5388 16.9095C19.4493 16.9798 19.0206 17.1653 18.5791 17.3125C18.1377 17.4596 17.5938 17.6195 17.3635 17.6707C17.1332 17.7283 16.7045 17.7859 16.4038 17.8115C16.1031 17.8306 15.5977 17.8178 15.2842 17.7795C14.9707 17.7411 14.4332 17.6451 14.1005 17.562C13.7678 17.4724 13.2624 17.2997 12.9809 17.1717C12.6994 17.0374 12.2515 16.7751 11.9892 16.5832C11.7269 16.3849 11.3622 16.1866 11.1894 16.1354C11.0103 16.0842 10.812 16.0458 10.7416 16.0522C10.6712 16.0522 10.524 16.0842 10.4217 16.1162Z" fill="white"/>
<path d="M14.8363 8.22217C14.9771 8.1518 15.233 8.05585 15.4121 8.01107C15.5849 7.96629 15.8344 7.9279 15.9559 7.9279C16.0775 7.92151 16.3398 7.9471 16.5318 7.98548C16.7237 8.02386 17.0372 8.13261 17.2292 8.22857C17.4211 8.32453 17.741 8.58041 17.9649 8.8171C18.2336 9.09858 18.4128 9.35446 18.5151 9.61674C18.6367 9.9238 18.6687 10.1157 18.6687 10.6083C18.6687 11.1009 18.6367 11.2864 18.5151 11.5998C18.4128 11.8493 18.2336 12.118 17.9969 12.3675C17.7986 12.5786 17.4659 12.8409 17.2611 12.956C17.0564 13.0648 16.6981 13.1927 16.4678 13.2311C16.1607 13.2887 15.9304 13.2887 15.6041 13.2375C15.3545 13.1991 15.0154 13.0968 14.8363 13.0136C14.6508 12.9241 14.3565 12.6874 14.1389 12.4507C13.9278 12.2332 13.6847 11.8877 13.5951 11.6958C13.4479 11.3759 13.4287 11.2672 13.4287 10.5763C13.4287 9.87263 13.4415 9.77667 13.6015 9.45682C13.7039 9.23931 13.9214 8.96424 14.1773 8.72754C14.3948 8.52284 14.6955 8.29254 14.8363 8.22217Z" fill="white"/>
</svg>
