<svg width="32" height="32" viewBox="0 0 32 32" fill="none" xmlns="http://www.w3.org/2000/svg">
<path fill-rule="evenodd" clip-rule="evenodd" d="M4.53329 4.53366C2.66663 6.4181 2.66663 9.43144 2.66663 15.467V16.5337C2.66663 22.5603 2.66663 25.5737 4.53329 27.467C6.41774 29.3337 9.43107 29.3337 15.4666 29.3337H16.5333C22.56 29.3337 25.5733 29.3337 27.4666 27.467C29.3333 25.5825 29.3333 22.5692 29.3333 16.5337V15.467C29.3333 9.44033 29.3333 6.42699 27.4666 4.53366C25.5822 2.66699 22.5688 2.66699 16.5333 2.66699H15.4666C9.43996 2.66699 6.42663 2.66699 4.53329 4.53366ZM7.1644 10.7826C7.30662 17.7159 10.7733 21.8759 16.8533 21.8759H17.2088V17.9114C19.44 18.1337 21.1288 19.7692 21.8044 21.8759H24.96C24.6363 20.6788 24.0626 19.5639 23.2765 18.6048C22.4905 17.6456 21.5101 16.864 20.4 16.3114C21.3948 15.7056 22.2539 14.9012 22.9238 13.9484C23.5937 12.9955 24.0599 11.9148 24.2933 10.7737H21.4311C20.8088 12.9781 18.96 14.9781 17.2088 15.1648V10.7826H14.3377V18.4626C12.56 18.0181 10.32 15.867 10.2222 10.7826H7.1644Z" fill="white"/>
</svg>
