<svg width="16" height="12" viewBox="0 0 16 12" fill="none" xmlns="http://www.w3.org/2000/svg">
<path fill-rule="evenodd" clip-rule="evenodd" d="M1.44555 0.930351C0.575745 1.80016 0.575745 3.20008 0.575745 5.99994C0.575745 8.7998 0.575745 10.1997 1.44555 11.0695C2.31535 11.9393 3.71528 11.9393 6.51514 11.9393H9.48483C12.2847 11.9393 13.6846 11.9393 14.5544 11.0695C15.4242 10.1997 15.4242 8.7998 15.4242 5.99994C15.4242 3.20008 15.4242 1.80016 14.5544 0.930351C13.6846 0.0605469 12.2847 0.0605469 9.48483 0.0605469H6.51514C3.71528 0.0605469 2.31535 0.0605469 1.44555 0.930351ZM12.8823 2.67378C13.0792 2.91002 13.0472 3.26113 12.811 3.458L11.1803 4.81694C10.5222 5.36534 9.98886 5.80982 9.51811 6.11258C9.02774 6.42797 8.55018 6.6272 7.99999 6.6272C7.44979 6.6272 6.97223 6.42797 6.48186 6.11258C6.01112 5.80982 5.47776 5.36534 4.8197 4.81695L3.18897 3.458C2.95273 3.26113 2.92081 2.91002 3.11768 2.67378C3.31455 2.43753 3.66566 2.40561 3.90191 2.60248L5.50472 3.93816C6.19738 4.51537 6.67827 4.91483 7.08427 5.17595C7.47728 5.42871 7.7438 5.51356 7.99999 5.51356C8.25618 5.51356 8.5227 5.42871 8.9157 5.17595C9.3217 4.91483 9.8026 4.51537 10.4952 3.93816L12.0981 2.60248C12.3343 2.40561 12.6854 2.43753 12.8823 2.67378Z" fill="#0033D9"/>
</svg>
