<svg width="18" height="18" viewBox="0 0 18 18" fill="none" xmlns="http://www.w3.org/2000/svg">
<path d="M6.52747 8.77823C7.10505 9.95906 8.06222 10.9119 9.24567 11.4841C9.33226 11.5251 9.42804 11.5429 9.52358 11.5357C9.61912 11.5284 9.71114 11.4964 9.79057 11.4429L11.5331 10.2809C11.6102 10.2295 11.6988 10.1982 11.7911 10.1897C11.8833 10.1812 11.9762 10.1959 12.0614 10.2324L15.3213 11.6295C15.4321 11.6765 15.5245 11.7583 15.5848 11.8624C15.645 11.9666 15.6698 12.0875 15.6553 12.207C15.5523 13.0132 15.1589 13.7543 14.5488 14.2914C13.9387 14.8285 13.1537 15.1249 12.3409 15.1249C9.83039 15.1249 7.4227 14.1276 5.6475 12.3524C3.8723 10.5772 2.875 8.1695 2.875 5.65899C2.87504 4.84615 3.17136 4.06121 3.70847 3.45112C4.24559 2.84103 4.98666 2.44764 5.79294 2.3446C5.91238 2.33014 6.03329 2.3549 6.13745 2.41513C6.2416 2.47537 6.32336 2.56782 6.3704 2.67856L7.76875 5.94137C7.80492 6.02577 7.81966 6.1178 7.81165 6.20927C7.80364 6.30073 7.77314 6.3888 7.72286 6.46563L6.56493 8.2349C6.51223 8.31449 6.48107 8.40639 6.47451 8.50163C6.46794 8.59686 6.48619 8.69216 6.52747 8.77823Z" fill="#0033D9"/>
</svg>
