<svg width="50" height="50" viewBox="0 0 50 50" fill="none" xmlns="http://www.w3.org/2000/svg">
<path d="M14.7393 2.40104C14.8123 1.72547 14.8816 1.13435 14.8931 1.08828C14.9046 1.03838 14.9277 1 14.9431 1C14.9585 1 15.3354 1.0499 15.7777 1.11515C16.2199 1.17657 16.8353 1.26102 17.1429 1.30324C17.4506 1.34546 18.0544 1.42607 18.489 1.48365C18.9236 1.54122 19.2812 1.58729 19.2851 1.59112C19.2928 1.59112 19.1735 2.66589 19.0274 3.97481C18.8813 5.28373 18.739 6.50052 18.7159 6.68093C18.6928 6.86134 18.6736 7.01104 18.6697 7.01871C18.6659 7.02639 17.6698 6.92275 14.2509 6.54658L14.2701 6.37385C14.2855 6.27789 14.3624 5.62151 14.447 4.91523C14.5316 4.20896 14.6624 3.07661 14.7393 2.40104Z" fill="#0033D9"/>
<path d="M31.9494 3.10732C32.0648 3.06126 32.2648 3.00368 32.3917 2.97297C32.5378 2.93842 32.7609 2.92691 33.007 2.93459C33.2801 2.9461 33.4801 2.98065 33.6993 3.04974C33.8685 3.10348 34.1185 3.21096 34.2569 3.29156C34.3954 3.37217 34.6261 3.56026 34.7761 3.70612C34.9223 3.85582 35.1107 4.08613 35.1915 4.22431C35.2722 4.36249 35.3722 4.58513 35.4184 4.72331C35.4799 4.91523 35.503 5.0918 35.5145 5.47181C35.5222 5.88253 35.5107 6.02071 35.4453 6.2587C35.403 6.41607 35.3107 6.65022 35.2376 6.77689C35.1684 6.90356 35.0261 7.10316 34.9261 7.21831C34.8261 7.33347 34.6492 7.5062 34.53 7.60216C34.4108 7.69812 34.2031 7.83247 34.0646 7.90156C33.9262 7.96681 33.7031 8.0551 33.5647 8.08964C33.3916 8.13571 33.1801 8.1549 32.8724 8.1549C32.5071 8.15106 32.3763 8.13187 32.1225 8.05126C31.9494 7.99752 31.6879 7.86701 31.5264 7.76337C31.3687 7.65974 31.1495 7.48317 31.0418 7.36801C30.9341 7.25286 30.7726 7.04942 30.6841 6.91124C30.5957 6.77305 30.4803 6.52355 30.4265 6.35466C30.3611 6.15122 30.3188 5.92091 30.3073 5.66373C30.288 5.37201 30.2996 5.20696 30.3534 4.97281C30.3919 4.80392 30.4919 4.53139 30.5803 4.36249C30.6765 4.17441 30.8418 3.94794 31.0072 3.76753C31.1533 3.61016 31.3802 3.41439 31.5072 3.33379C31.6341 3.25318 31.8341 3.14954 31.9494 3.10732Z" fill="#0033D9"/>
<path d="M9.33586 7.43711C9.58969 5.56393 9.79736 4.01319 9.80121 3.99016C9.80505 3.96329 9.86659 3.95562 9.98581 3.97097L9.9859 3.97098C10.0822 3.98252 10.4667 4.02856 10.8357 4.07461C11.2049 4.12067 11.5126 4.15906 11.5165 4.16289C11.5203 4.16289 11.5011 4.35482 11.4703 4.58896C11.4395 4.82311 11.3357 5.62535 11.2396 6.37385C11.1434 7.12235 10.9857 8.37753 10.8896 9.15674C10.7934 9.93978 10.6588 11.0107 10.5935 11.5443C10.5242 12.074 10.4627 12.5192 10.4512 12.5307C10.4396 12.5423 10.0435 12.5077 9.56661 12.454C9.08973 12.4002 8.69745 12.3503 8.68976 12.3503C8.68207 12.3465 8.72053 12.0049 8.77437 11.5942C8.82821 11.1834 9.08204 9.31411 9.33586 7.43711Z" fill="#0033D9"/>
<path d="M37.9951 9.61735C38.2912 9.19512 39.0373 8.13571 39.6488 7.26821L40.7603 5.68293L40.941 5.80576C41.041 5.87101 41.614 6.27405 42.2178 6.70012C42.8216 7.12619 43.6177 7.68277 43.9869 7.93994C44.3561 8.19712 44.7099 8.45046 44.8907 8.59248L44.7215 8.83431C44.6253 8.96865 44.2369 9.52139 43.8523 10.0588C43.4677 10.5962 42.8332 11.4867 42.4447 12.0356C42.0525 12.5845 41.5525 13.2908 41.3295 13.6017C41.1102 13.9126 40.9218 14.1698 40.9103 14.1698C40.8987 14.1698 40.8141 14.1122 40.718 14.0431C40.6218 13.9778 40.0411 13.5748 39.4296 13.1564C38.8143 12.7342 38.0643 12.2122 37.7567 11.9972C37.449 11.7861 37.1375 11.5711 37.0644 11.5251C36.9913 11.479 36.8952 11.4138 36.8529 11.3869C36.7798 11.3293 36.7875 11.314 37.1144 10.8572C37.299 10.5962 37.6951 10.0396 37.9951 9.61735Z" fill="#0033D9"/>
<path d="M23.0232 6.78073C23.204 6.52739 23.3924 6.26253 23.4463 6.1896C23.5001 6.11667 23.5616 6.07445 23.5924 6.08597C23.6193 6.09748 23.8116 6.22415 24.0193 6.37001C24.227 6.51203 24.6962 6.84598 25.0692 7.107C25.4384 7.36801 26.1691 7.88237 26.6922 8.2547C27.2152 8.62703 27.6459 8.94178 27.6459 8.95714C27.6459 8.97249 27.5267 9.1529 27.3806 9.36018C27.2383 9.56745 26.946 9.97817 26.7345 10.2737C26.5229 10.5693 25.9691 11.3447 25.5038 12.001C25.0385 12.6536 24.45 13.4865 24.1885 13.8512C23.8193 14.3732 23.7078 14.5076 23.6539 14.4922C23.6155 14.4768 23.3694 14.3195 23.1078 14.1391C22.8425 13.9548 22.4387 13.6784 22.2156 13.5172C21.9887 13.3599 21.5272 13.0413 21.1965 12.8148C20.8619 12.5845 20.3965 12.2659 20.1619 12.1047C19.9312 11.9396 19.7004 11.7822 19.5658 11.694L20.0773 10.9647C20.3619 10.5616 20.7465 10.0127 20.9349 9.74402C21.1234 9.47533 21.6003 8.79976 21.9887 8.24702C22.3771 7.69428 22.8463 7.03407 23.0232 6.78073Z" fill="#0033D9"/>
<path d="M12.8202 10.0242C12.9356 9.48301 13.0394 9.0032 13.0509 8.95714C13.0625 8.91108 13.1009 8.86885 13.1356 8.86885C13.174 8.86885 13.5586 8.90724 13.9932 8.9533C14.4239 8.99936 14.7854 9.04158 14.7893 9.04158C14.7931 9.04158 14.6085 9.91675 14.3778 10.9838C14.1509 12.0471 13.8663 13.3599 13.7547 13.8934C13.6432 14.4308 13.5394 14.8837 13.5317 14.9068C13.5163 14.9298 13.1971 14.9068 12.6664 14.8415C12.201 14.7839 11.8126 14.734 11.8087 14.7302C11.8049 14.7263 11.9818 13.8857 12.2049 12.8647C12.4279 11.8398 12.7048 10.5616 12.8202 10.0242Z" fill="#0033D9"/>
<path d="M2.70562 10.3505C2.80946 10.316 2.98252 10.2737 3.09021 10.2545C3.19405 10.2353 3.43633 10.2277 3.62863 10.2353C3.81707 10.2469 4.09782 10.2891 4.25165 10.3313C4.40549 10.3735 4.60547 10.4426 4.69392 10.4887C4.78238 10.5309 4.96698 10.6461 5.09774 10.7382C5.2285 10.8303 5.42464 11.0146 5.52847 11.1451C5.63616 11.2756 5.77461 11.4905 5.83614 11.6172C5.90152 11.7439 5.98997 11.9857 6.03228 12.1546C6.08228 12.3542 6.1092 12.5806 6.10535 12.8071C6.10535 12.9952 6.08227 13.2562 6.05535 13.3829C6.02843 13.5096 5.96305 13.7168 5.90921 13.8435C5.85922 13.9702 5.74769 14.1736 5.66308 14.3003C5.57847 14.4231 5.39771 14.6304 5.25926 14.7609C5.12081 14.8876 4.87083 15.0641 4.70162 15.1524C4.5324 15.2407 4.28242 15.3443 4.14781 15.3789C3.99783 15.4173 3.74785 15.4441 3.53248 15.4441C3.31327 15.448 3.06329 15.4211 2.91714 15.3827C2.77869 15.3482 2.51718 15.2484 2.34027 15.1563C2.07875 15.0296 1.9403 14.926 1.6634 14.6496C1.36342 14.354 1.28651 14.2504 1.13652 13.9395C1.03653 13.736 0.940379 13.4712 0.917304 13.3445C0.894229 13.2178 0.875 12.9568 0.875 12.7687C0.875 12.5346 0.901921 12.3273 0.955763 12.1354C1.00191 11.9742 1.08652 11.7515 1.14806 11.6364C1.20959 11.5174 1.34035 11.3255 1.43649 11.2026C1.52879 11.0798 1.7057 10.9032 1.82877 10.8111C1.95184 10.7152 2.15567 10.5885 2.28258 10.5271C2.40949 10.4618 2.59794 10.385 2.70562 10.3505Z" fill="#0033D9"/>
<path d="M28.742 13.1142C28.9343 12.88 29.1804 12.573 29.2996 12.4309C29.415 12.2889 29.5189 12.1738 29.5304 12.1738C29.5381 12.1738 29.7573 12.3427 30.015 12.5461L30.055 12.5788C30.2993 12.7782 30.5755 13.0038 30.838 13.2293L30.4419 13.713C30.2265 13.9817 29.8304 14.4692 29.5689 14.7954C29.3035 15.1255 29.0766 15.3942 29.0689 15.3942C29.0574 15.3942 28.7881 15.187 28.4728 14.9336C28.1536 14.6764 27.8613 14.4385 27.8228 14.4039C27.7536 14.3425 27.7652 14.3271 28.0767 13.9395C28.2536 13.7168 28.5536 13.3445 28.742 13.1142Z" fill="#0033D9"/>
<path d="M15.0816 15.1102C15.0892 15.0872 15.3085 14.496 15.57 13.7936C15.8276 13.0912 16.0469 12.5192 16.0546 12.5192C16.0622 12.5192 16.4199 12.6382 16.8468 12.7879C17.2737 12.9376 17.6313 13.0681 17.6352 13.0758C17.639 13.0873 17.5275 13.4251 17.3814 13.832C17.2352 14.2389 17.0237 14.8338 16.9122 15.1563C16.7891 15.4979 16.6814 15.7435 16.6545 15.7435C16.6276 15.7435 16.2584 15.6092 15.8353 15.4441C15.4123 15.2791 15.07 15.1294 15.0816 15.1102Z" fill="#0033D9"/>
<path d="M18.5467 16.7415C18.8043 16.3078 19.0889 15.828 19.1774 15.6744C19.2658 15.5209 19.3581 15.3981 19.3774 15.3981C19.3966 15.3981 19.7389 15.6015 20.135 15.851C20.5311 16.1005 21.0349 16.4153 21.2503 16.5496C21.6387 16.7953 21.6426 16.7991 21.5887 16.8951C21.5618 16.945 21.208 17.5438 20.808 18.2194C20.4081 18.8949 20.0196 19.5628 19.9389 19.7048C19.8619 19.8469 19.7773 19.962 19.7504 19.962C19.7235 19.962 19.4081 19.7778 19.0505 19.5551C18.689 19.3325 18.1967 19.0254 17.9582 18.8757C17.716 18.726 17.5121 18.5878 17.5044 18.5725C17.4967 18.5571 17.6237 18.3153 17.7852 18.0351C17.9467 17.7549 18.289 17.1715 18.5467 16.7415Z" fill="#0033D9"/>
<path d="M3.72477 21.0022V16.9296L6.51301 16.9527L6.53224 21.0022H3.72477Z" fill="#0033D9"/>
<path d="M11.1896 17.9123C11.3011 17.8509 11.5011 17.7818 11.628 17.7549C11.7549 17.728 11.8818 17.705 11.9164 17.7012C11.9472 17.7012 12.0779 17.7165 12.2049 17.7395C12.3318 17.7664 12.5279 17.8317 12.6471 17.8892C12.7625 17.9507 12.9394 18.085 13.0394 18.1925C13.1394 18.3 13.2586 18.4727 13.3048 18.5725C13.3612 18.6928 13.3945 18.8553 13.4048 19.06C13.4201 19.3095 13.4048 19.417 13.3394 19.6166C13.2894 19.7547 13.2048 19.9351 13.1471 20.0196C13.0894 20.104 12.974 20.2345 12.8933 20.3075C12.8087 20.3804 12.6471 20.4802 12.5318 20.5339C12.3779 20.603 12.2356 20.6337 12.0126 20.6453C11.7664 20.6568 11.6549 20.6414 11.4742 20.58C11.3472 20.5339 11.1588 20.4341 11.0588 20.3535C10.955 20.2768 10.8127 20.1271 10.7434 20.0196C10.6704 19.916 10.5819 19.7509 10.5473 19.6549C10.505 19.5475 10.4819 19.3671 10.4819 19.1559C10.4781 18.9103 10.4973 18.7798 10.5627 18.6186C10.6088 18.5034 10.7204 18.323 10.8127 18.2155C10.905 18.1119 11.0742 17.9737 11.1896 17.9123Z" fill="#0033D9"/>
<path d="M26.373 19.559C26.7422 19.2442 27.3306 18.7375 27.6805 18.4381C28.0305 18.1387 28.3305 17.8931 28.3459 17.8931C28.3613 17.8931 28.6305 18.1886 28.942 18.5533C29.2535 18.918 29.7112 19.4515 29.9611 19.7432C30.2111 20.0349 30.4149 20.2844 30.4149 20.2998C30.4149 20.3152 30.2034 20.5109 29.9458 20.7335C29.6842 20.9562 28.8997 21.6279 28.2036 22.2267C27.5036 22.8255 26.8998 23.3475 26.8575 23.3859C26.7806 23.4589 26.7768 23.455 26.3383 22.9522C26.0922 22.672 25.623 22.1231 25.2884 21.7315C24.8231 21.1826 24.6923 21.0099 24.7308 20.9792C24.7577 20.9562 24.9885 20.7566 25.2423 20.5339C25.4961 20.3152 26.0038 19.8737 26.373 19.559Z" fill="#0033D9"/>
<path d="M45.0176 19.8162C45.6483 19.3901 46.3598 18.8988 46.606 18.7337C47.0136 18.4497 47.0521 18.4343 47.0982 18.4957C47.1251 18.5341 47.2674 18.726 47.4097 18.9256C47.552 19.1291 47.9405 19.678 48.2712 20.1463C48.6019 20.6146 48.875 21.0061 48.875 21.0099C48.875 21.0138 48.5135 21.2748 48.0751 21.5895C47.6366 21.9004 46.7482 22.5299 46.106 22.979C45.4599 23.432 44.9215 23.8043 44.9138 23.8043C44.9022 23.8005 44.7715 23.6316 44.6253 23.4281C44.4792 23.2209 44.0677 22.6451 43.7139 22.1423C43.3562 21.6394 43.0639 21.2134 43.0562 21.1942C43.0524 21.175 43.2331 21.0329 43.4601 20.8794C43.6831 20.7259 44.3869 20.2461 45.0176 19.8162Z" fill="#0033D9"/>
<path d="M15.7892 23.5126C16.0853 22.8792 16.3738 22.2536 16.4314 22.1231L16.5391 21.8851L16.6584 21.9695C16.7276 22.0156 16.9891 22.1998 17.2429 22.3802C17.4967 22.5645 17.7852 22.7603 17.8852 22.8255C17.9852 22.8869 18.0698 22.9483 18.0698 22.956C18.0698 22.9675 17.9429 23.2439 17.7852 23.5702C17.6275 23.9003 17.3006 24.5989 17.0583 25.1248C16.816 25.6545 16.4007 26.545 16.1353 27.1016C15.87 27.662 15.5238 28.4066 15.3661 28.7521C15.2046 29.1014 14.9623 29.6273 14.82 29.9228C14.6777 30.2184 14.4162 30.7826 14.2355 31.1703C14.0547 31.5619 13.824 32.0609 13.7201 32.2758C13.6163 32.4908 13.5201 32.6673 13.5125 32.6673C13.5009 32.6673 13.1932 32.4562 12.8279 32.199C12.4625 31.9419 12.1279 31.7039 12.0818 31.6693C12.0014 31.6159 12.0086 31.6004 12.524 30.496L12.5318 30.4794C12.8279 29.8576 13.2586 28.9325 13.4971 28.4258C13.7355 27.9192 14.2239 26.8674 14.5893 26.0844C14.9244 25.3621 15.4147 24.3134 15.7204 23.6596L15.7892 23.5126Z" fill="#0033D9"/>
<path d="M34.9877 22.1116C35.0838 22.0501 35.2569 21.9734 35.3722 21.9427C35.5068 21.9043 35.6799 21.8889 35.8337 21.8966C35.9722 21.9081 36.1799 21.9503 36.2952 21.9926C36.426 22.0386 36.5991 22.1538 36.7337 22.2728C36.8875 22.4148 36.9952 22.5568 37.0798 22.7257C37.1913 22.9522 37.199 23.0059 37.199 23.3591C37.199 23.7045 37.1913 23.7659 37.0836 23.9886C37.0106 24.1459 36.899 24.2995 36.7683 24.4185C36.6567 24.5221 36.4683 24.6565 36.3452 24.714C36.1529 24.8062 36.076 24.8177 35.7568 24.8177C35.4376 24.8177 35.3645 24.8062 35.1723 24.714C35.0492 24.6565 34.8607 24.5221 34.7492 24.4185C34.6185 24.2995 34.5069 24.1459 34.43 23.9886C34.3262 23.7659 34.3146 23.7084 34.3185 23.3591C34.3185 23.0289 34.33 22.9445 34.4146 22.7641C34.4685 22.6489 34.58 22.48 34.6646 22.3879C34.7492 22.2958 34.8954 22.1691 34.9877 22.1116Z" fill="#0033D9"/>
<path d="M2.2595 24.9904V22.1883H3.72093V24.9904H2.2595Z" fill="#0033D9"/>
<path d="M7.95136 24.9904V22.1883H9.41278V24.9904H7.95136Z" fill="#0033D9"/>
<path d="M28.992 26.2763C28.992 26.2571 29.4919 25.8733 30.0957 25.4242C30.7034 24.975 31.2033 24.6066 31.211 24.6066C31.2149 24.6066 31.411 24.8522 32.0687 25.7005L31.9264 25.8157C31.8456 25.8809 31.3495 26.2648 30.8188 26.6717C30.288 27.0785 29.8458 27.4125 29.8342 27.4125C29.8265 27.4086 29.6304 27.163 29.4035 26.8636C29.1766 26.5603 28.992 26.2993 28.992 26.2763Z" fill="#0033D9"/>
<path d="M9.66744 28.0565C9.85094 27.2641 10.0714 26.3121 10.1666 25.8848C10.2704 25.4203 10.3665 25.0672 10.3896 25.0672C10.4127 25.071 10.7819 25.1785 11.2088 25.309C11.6357 25.4395 11.9933 25.5547 12.0087 25.5662C12.0241 25.5777 11.7703 26.71 11.4511 28.0804C11.128 29.4545 10.8627 30.5792 10.8627 30.583C10.8588 30.5869 10.4819 30.4756 9.19356 30.0764L9.24356 29.8653C9.27048 29.7501 9.44739 28.9901 9.63968 28.1763L9.66744 28.0565Z" fill="#0033D9"/>
<path d="M17.7083 28.3222C17.7236 28.2953 18.1005 27.7925 18.5428 27.2052C18.9851 26.6218 19.362 26.1458 19.3812 26.1496C19.4004 26.1573 19.7081 26.3953 20.0696 26.6793C20.4696 26.9979 20.708 27.2129 20.6888 27.2359C20.6696 27.2589 20.3004 27.7541 19.8619 28.3414C19.4235 28.9248 19.0582 29.4046 19.0466 29.4046C19.0389 29.4046 18.7274 29.1705 18.3544 28.8864C17.9121 28.5448 17.6929 28.3529 17.7083 28.3222Z" fill="#0033D9"/>
<path d="M39.6027 27.8385C39.9526 27.6236 40.6295 27.209 41.1025 26.9135C41.5794 26.6218 41.9756 26.3799 41.9871 26.3761C41.9948 26.3761 42.1717 26.6525 42.3755 26.9979C42.5794 27.3395 43.0755 28.1571 43.4716 28.8097C43.8677 29.4661 44.2254 30.0533 44.3369 30.2299L43.4024 30.8134C42.8909 31.1319 42.2025 31.558 41.8717 31.7538C41.5448 31.9534 40.9141 32.3411 40.468 32.6098C40.0257 32.8823 39.6411 33.1049 39.6142 33.1049C39.5873 33.1088 39.3219 32.7019 39.0219 32.2067C38.722 31.7116 38.1989 30.8479 37.8605 30.2875C37.3952 29.5121 37.2605 29.2626 37.3029 29.2396C37.3298 29.2242 37.7182 28.9901 38.1605 28.7176C38.6066 28.4489 39.2565 28.0535 39.6027 27.8385Z" fill="#0033D9"/>
<path d="M24.5077 28.9824C24.7846 28.7751 25.1384 28.4988 25.2961 28.3721C25.4576 28.2454 25.6038 28.1418 25.623 28.1418C25.6461 28.1379 25.8499 28.3798 26.0768 28.6753C26.3037 28.9709 26.4922 29.2166 26.4922 29.2242C26.4922 29.2281 26.3037 29.3816 26.0768 29.562C25.8499 29.7463 25.3461 30.1493 24.2577 31.0168L23.8385 30.4333C23.6039 30.1109 23.4232 29.8345 23.4347 29.8192C23.4424 29.8038 23.577 29.6925 23.7309 29.5774C23.8847 29.4584 24.2347 29.1897 24.5077 28.9824Z" fill="#0033D9"/>
<path d="M2.08644 32.0071C2.08644 31.9687 2.09413 31.1012 2.09798 30.0764L2.10567 28.2147H4.68239V32.0916L3.38634 32.0839C2.17874 32.0724 2.08644 32.0685 2.08644 32.0071Z" fill="#0033D9"/>
<path d="M29.5689 30.4026C29.9188 30.1762 30.6611 29.6964 31.2226 29.3317L32.2379 28.6715L32.3033 28.779C32.3364 28.8378 32.5246 29.1393 33.0705 30.0138L33.1455 30.1339L32.7301 30.4103C32.5032 30.5639 31.8148 31.0091 31.2033 31.4006C30.588 31.7922 29.8035 32.3027 29.4535 32.5292C29.1035 32.7556 28.542 33.1203 28.2036 33.3391C27.8651 33.5579 27.3113 33.9148 26.9729 34.1298C26.6345 34.3486 26.0114 34.7478 25.5884 35.0242C25.1654 35.2967 24.35 35.8226 23.7809 36.1949C23.2078 36.5634 22.5348 36.9971 22.281 37.1622C22.0272 37.3272 21.5964 37.6036 21.3272 37.7802C21.058 37.9567 20.8311 38.0911 20.8234 38.0796C20.8196 38.0681 20.6196 37.7571 20.385 37.3886C20.1465 37.0202 19.9542 36.7016 19.9581 36.6785C19.9581 36.6593 20.2311 36.4674 20.5619 36.2525C20.8926 36.0413 21.5464 35.6191 22.0118 35.3159C22.4771 35.0165 23.2732 34.4983 23.7809 34.1643C24.2885 33.8342 25.2307 33.2201 25.8768 32.8017C26.5229 32.3833 27.1344 31.9879 27.2421 31.9188C27.346 31.8497 27.7728 31.5734 28.1844 31.3047L28.2232 31.2793C28.6342 31.0109 29.2297 30.6221 29.5689 30.4026Z" fill="#0033D9"/>
<path d="M31.2918 34.1451C31.288 34.1221 31.8571 33.8764 32.5532 33.6001C33.2493 33.3237 33.8454 33.0934 33.88 33.0934C33.9185 33.0896 34.0223 33.293 34.2069 33.7229C34.3531 34.0722 34.4646 34.3639 34.4569 34.3755C34.4454 34.3831 33.9954 34.5789 33.457 34.813C32.9147 35.0433 32.3571 35.2852 32.2148 35.3504C32.0725 35.4157 31.9341 35.4694 31.9071 35.4694C31.8802 35.4694 31.7341 35.1815 31.5802 34.8284C31.4264 34.4753 31.2995 34.1643 31.2918 34.1451Z" fill="#0033D9"/>
<path d="M44.5523 34.9128C44.6792 34.8745 44.8753 34.8322 44.9945 34.8169C45.1099 34.8015 45.3176 34.7977 45.456 34.8054C45.5906 34.8169 45.8176 34.8514 45.956 34.8821C46.0906 34.9128 46.3098 34.9858 46.4367 35.0472C46.5636 35.1086 46.7829 35.2506 46.929 35.3619C47.0751 35.4733 47.2713 35.669 47.3674 35.7957C47.4636 35.9224 47.5982 36.1488 47.6674 36.2947C47.7366 36.4444 47.8212 36.6977 47.8559 36.8628C47.8866 37.024 47.9174 37.262 47.9174 37.3886C47.9174 37.5153 47.8905 37.7533 47.8559 37.9184C47.8212 38.0949 47.7289 38.3559 47.6289 38.5594C47.529 38.7628 47.3751 39.0008 47.2559 39.1313C47.1405 39.258 46.9482 39.4345 46.8213 39.5228C46.6944 39.615 46.4752 39.7378 46.3406 39.803C46.2021 39.8645 45.9406 39.9451 45.7637 39.9834C45.5291 40.0295 45.3522 40.041 45.1368 40.0257C44.9715 40.0103 44.7138 39.9604 44.56 39.9105C44.4061 39.8645 44.16 39.757 44.0139 39.6764C43.8446 39.5842 43.6331 39.4154 43.4562 39.2349C43.2947 39.0737 43.1024 38.8319 43.0216 38.6937C42.9409 38.5555 42.8409 38.3329 42.7986 38.1947C42.7524 38.0604 42.7063 37.8186 42.687 37.6573C42.6678 37.5 42.6717 37.2428 42.6909 37.0816C42.7063 36.9242 42.7524 36.7092 42.787 36.6018C42.8178 36.4981 42.9062 36.3062 42.9755 36.1795C43.0447 36.0529 43.1793 35.8571 43.2716 35.7381C43.3678 35.623 43.537 35.4579 43.6523 35.3696C43.7639 35.2852 43.9639 35.1623 44.0908 35.0971C44.2177 35.0318 44.4254 34.9474 44.5523 34.9128Z" fill="#0033D9"/>
<path d="M16.8814 37.3119C16.9968 37.2389 17.1698 37.1583 17.266 37.1315C17.3583 37.1046 17.5775 37.0892 17.7467 37.0931C17.9736 37.1046 18.1082 37.1315 18.2659 37.2006C18.3813 37.2543 18.5467 37.3579 18.6313 37.4347C18.7159 37.5115 18.8389 37.6727 18.9043 37.7955C18.9774 37.9299 19.0466 38.1295 19.0697 38.283C19.1005 38.4903 19.0966 38.5978 19.0505 38.8204C19.0197 38.9739 18.9466 39.1812 18.8889 39.2848C18.8313 39.3885 18.7005 39.5459 18.6005 39.638C18.5005 39.7339 18.3198 39.8568 18.1967 39.9105C18.0121 39.9988 17.9236 40.018 17.6698 40.018C17.4121 40.018 17.3237 39.9988 17.1391 39.9105C17.016 39.8568 16.8314 39.7263 16.7237 39.6265C16.6084 39.519 16.4814 39.3501 16.4161 39.2119C16.3545 39.0852 16.2891 38.8895 16.2699 38.7705C16.2545 38.6553 16.2545 38.4442 16.2699 38.3022C16.2891 38.1602 16.343 37.9606 16.393 37.8608C16.443 37.761 16.5276 37.6266 16.5814 37.5614C16.6314 37.5 16.7699 37.3886 16.8814 37.3119Z" fill="#0033D9"/>
<path d="M28.1882 37.5882C28.2805 37.5345 28.4305 37.4654 28.5151 37.4385C28.6035 37.4117 28.792 37.3963 28.9766 37.404C29.215 37.4117 29.3381 37.4385 29.5342 37.5307C29.6688 37.5921 29.8573 37.7111 29.9496 37.7955C30.0419 37.88 30.165 38.0258 30.2265 38.118C30.2919 38.2216 30.3573 38.3982 30.388 38.5555C30.4149 38.7129 30.4265 38.9164 30.4111 39.0545C30.3996 39.185 30.3457 39.377 30.2957 39.4806C30.2457 39.5881 30.1111 39.7723 29.9957 39.899C29.8573 40.0449 29.6958 40.1639 29.5342 40.2445C29.3073 40.3519 29.2497 40.3635 28.9189 40.3635C28.592 40.3635 28.5266 40.3519 28.3228 40.2521C28.1959 40.1907 28.0036 40.0525 27.8959 39.9451C27.7921 39.8376 27.6536 39.6457 27.5921 39.519C27.5344 39.3923 27.4729 39.2042 27.4575 39.0968C27.4421 38.9931 27.4421 38.8012 27.4575 38.6745C27.469 38.5479 27.5306 38.3521 27.5882 38.2331C27.6459 38.118 27.7652 37.9491 27.8536 37.8569C27.9421 37.7648 28.0921 37.6458 28.1882 37.5882Z" fill="#0033D9"/>
<path d="M37.4375 38.4596C37.9028 38.3521 38.7412 38.1525 39.3027 38.0182C39.8603 37.8876 40.3526 37.7802 40.3949 37.784C40.4564 37.7917 40.4949 37.8915 40.6334 38.4634C40.7218 38.8357 40.7987 39.1543 40.7987 39.1735C40.7987 39.1966 40.518 39.281 40.1757 39.3616C39.8334 39.4422 38.5835 39.7378 37.399 40.0218C36.2145 40.302 34.6992 40.6552 34.0339 40.8049C33.3647 40.9546 32.8186 41.0736 32.8109 41.0659C32.8071 41.0621 32.7378 40.7435 32.6532 40.3635C32.5725 39.9834 32.5148 39.661 32.5302 39.6495C32.5417 39.6341 33.4609 39.4038 34.5723 39.139C35.6799 38.8741 36.9721 38.5671 37.4375 38.4596Z" fill="#0033D9"/>
<path d="M20.5811 41.918C20.6503 41.9142 21.8579 41.8374 23.2655 41.7491C24.6692 41.657 25.9307 41.5802 26.3037 41.5726V41.6992C26.3076 41.7683 26.3268 42.1522 26.3999 43.2922L26.0153 43.3152C25.8038 43.3306 24.6154 43.392 23.3809 43.4534C22.1425 43.5148 20.9926 43.5762 20.5157 43.6146L20.485 43.1425C20.4696 42.8815 20.4542 42.4976 20.458 41.918H20.5811Z" fill="#0033D9"/>
<path d="M39.7065 42.2443C40.7218 42.1675 41.714 42.0908 41.9179 42.0754L41.9569 42.0724C42.1486 42.0576 42.3726 42.0404 42.6101 42.0332L42.6255 42.1982C42.637 42.2865 42.6716 42.6358 42.7024 42.9736C42.737 43.3114 42.7601 43.5916 42.7524 43.5954C42.7486 43.5993 42.3294 43.63 41.8217 43.6645C41.3141 43.6991 39.668 43.8142 38.1682 43.9179C36.6644 44.0215 34.8031 44.1482 34.0339 44.2019C33.2609 44.2557 31.7879 44.3631 30.7649 44.4361C29.7381 44.509 28.8881 44.5551 28.8766 44.5397C28.8612 44.5244 28.8305 44.1827 28.8074 43.7797C28.7843 43.3805 28.7689 43.0504 28.7728 43.0465C28.7766 43.0427 29.4304 42.9928 30.2265 42.9391C31.0187 42.8815 32.7148 42.7587 33.9954 42.6665C35.2722 42.5744 36.6683 42.4708 37.0913 42.4401C37.5144 42.4055 38.6912 42.3211 39.7065 42.2443Z" fill="#0033D9"/>
<path d="M43.187 49L43.1908 46.72L43.1985 44.4399L44.2408 44.4668C44.8138 44.4783 46.0483 44.4898 48.6866 44.4898V49H43.187Z" fill="#0033D9"/>
<path d="M20.4081 46.8006C20.4157 46.4052 20.4273 46.0636 20.4311 46.0405C20.4427 46.0098 20.5657 45.9983 20.8426 46.0098C21.0618 46.0214 22.7309 46.0636 24.55 46.1058L24.5529 46.1059C26.3708 46.1481 28.0231 46.1864 28.5882 46.1979L28.5766 46.9656C28.5689 47.3878 28.5497 47.7448 28.5382 47.7602C28.5228 47.7717 26.9614 47.7333 25.0692 47.6757C23.1771 47.6143 21.3503 47.5529 20.3965 47.5145L20.4081 46.8006Z" fill="#0033D9"/>
<path d="M31.5418 46.9925C31.5572 46.7046 31.5687 46.3668 31.5687 46.2478V46.0252H32.1763C32.5071 46.0252 33.6301 46.0521 34.6646 46.0866C35.703 46.1173 37.026 46.1557 38.6643 46.1979L38.6758 46.9656C38.6797 47.3878 38.672 47.7448 38.6566 47.7602C38.6412 47.7717 38.0105 47.7602 37.2605 47.7333C36.5106 47.7064 35.1069 47.6527 34.1454 47.622C33.1839 47.5874 32.1956 47.5491 31.511 47.5145L31.5418 46.9925Z" fill="#0033D9"/>
<path d="M14.7393 2.40104C14.8123 1.72547 14.8816 1.13435 14.8931 1.08828C14.9046 1.03838 14.9277 1 14.9431 1C14.9585 1 15.3354 1.0499 15.7777 1.11515C16.2199 1.17657 16.8353 1.26102 17.1429 1.30324C17.4506 1.34546 18.0544 1.42607 18.489 1.48365C18.9236 1.54122 19.2812 1.58729 19.2851 1.59112C19.2928 1.59112 19.1735 2.66589 19.0274 3.97481C18.8813 5.28373 18.739 6.50052 18.7159 6.68093C18.6928 6.86134 18.6736 7.01104 18.6697 7.01871C18.6659 7.02639 17.6698 6.92275 14.2509 6.54658L14.2701 6.37385C14.2855 6.27789 14.3624 5.62151 14.447 4.91523C14.5316 4.20896 14.6624 3.07661 14.7393 2.40104Z" stroke="#0033D9" stroke-width="0.975625"/>
<path d="M31.9494 3.10732C32.0648 3.06126 32.2648 3.00368 32.3917 2.97297C32.5378 2.93842 32.7609 2.92691 33.007 2.93459C33.2801 2.9461 33.4801 2.98065 33.6993 3.04974C33.8685 3.10348 34.1185 3.21096 34.2569 3.29156C34.3954 3.37217 34.6261 3.56026 34.7761 3.70612C34.9223 3.85582 35.1107 4.08613 35.1915 4.22431C35.2722 4.36249 35.3722 4.58513 35.4184 4.72331C35.4799 4.91523 35.503 5.0918 35.5145 5.47181C35.5222 5.88253 35.5107 6.02071 35.4453 6.2587C35.403 6.41607 35.3107 6.65022 35.2376 6.77689C35.1684 6.90356 35.0261 7.10316 34.9261 7.21831C34.8261 7.33347 34.6492 7.5062 34.53 7.60216C34.4108 7.69812 34.2031 7.83247 34.0646 7.90156C33.9262 7.96681 33.7031 8.0551 33.5647 8.08964C33.3916 8.13571 33.1801 8.1549 32.8724 8.1549C32.5071 8.15106 32.3763 8.13187 32.1225 8.05126C31.9494 7.99752 31.6879 7.86701 31.5264 7.76337C31.3687 7.65974 31.1495 7.48317 31.0418 7.36801C30.9341 7.25286 30.7726 7.04942 30.6841 6.91124C30.5957 6.77305 30.4803 6.52355 30.4265 6.35466C30.3611 6.15122 30.3188 5.92091 30.3073 5.66373C30.288 5.37201 30.2996 5.20696 30.3534 4.97281C30.3919 4.80392 30.4919 4.53139 30.5803 4.36249C30.6765 4.17441 30.8418 3.94794 31.0072 3.76753C31.1533 3.61016 31.3802 3.41439 31.5072 3.33379C31.6341 3.25318 31.8341 3.14954 31.9494 3.10732Z" stroke="#0033D9" stroke-width="0.975625"/>
<path d="M9.33586 7.43711C9.58969 5.56393 9.79736 4.01319 9.80121 3.99016C9.80505 3.96329 9.86659 3.95562 9.98581 3.97097L9.9859 3.97098C10.0822 3.98252 10.4667 4.02856 10.8357 4.07461C11.2049 4.12067 11.5126 4.15906 11.5165 4.16289C11.5203 4.16289 11.5011 4.35482 11.4703 4.58896C11.4395 4.82311 11.3357 5.62535 11.2396 6.37385C11.1434 7.12235 10.9857 8.37753 10.8896 9.15674C10.7934 9.93978 10.6588 11.0107 10.5935 11.5443C10.5242 12.074 10.4627 12.5192 10.4512 12.5307C10.4396 12.5423 10.0435 12.5077 9.56661 12.454C9.08973 12.4002 8.69745 12.3503 8.68976 12.3503C8.68207 12.3465 8.72053 12.0049 8.77437 11.5942C8.82821 11.1834 9.08204 9.31411 9.33586 7.43711Z" stroke="#0033D9" stroke-width="0.975625"/>
<path d="M37.9951 9.61735C38.2912 9.19512 39.0373 8.13571 39.6488 7.26821L40.7603 5.68293L40.941 5.80576C41.041 5.87101 41.614 6.27405 42.2178 6.70012C42.8216 7.12619 43.6177 7.68277 43.9869 7.93994C44.3561 8.19712 44.7099 8.45046 44.8907 8.59248L44.7215 8.83431C44.6253 8.96865 44.2369 9.52139 43.8523 10.0588C43.4677 10.5962 42.8332 11.4867 42.4447 12.0356C42.0525 12.5845 41.5525 13.2908 41.3295 13.6017C41.1102 13.9126 40.9218 14.1698 40.9103 14.1698C40.8987 14.1698 40.8141 14.1122 40.718 14.0431C40.6218 13.9778 40.0411 13.5748 39.4296 13.1564C38.8143 12.7342 38.0643 12.2122 37.7567 11.9972C37.449 11.7861 37.1375 11.5711 37.0644 11.5251C36.9913 11.479 36.8952 11.4138 36.8529 11.3869C36.7798 11.3293 36.7875 11.314 37.1144 10.8572C37.299 10.5962 37.6951 10.0396 37.9951 9.61735Z" stroke="#0033D9" stroke-width="0.975625"/>
<path d="M23.0232 6.78073C23.204 6.52739 23.3924 6.26253 23.4463 6.1896C23.5001 6.11667 23.5616 6.07445 23.5924 6.08597C23.6193 6.09748 23.8116 6.22415 24.0193 6.37001C24.227 6.51203 24.6962 6.84598 25.0692 7.107C25.4384 7.36801 26.1691 7.88237 26.6922 8.2547C27.2152 8.62703 27.6459 8.94178 27.6459 8.95714C27.6459 8.97249 27.5267 9.1529 27.3806 9.36018C27.2383 9.56745 26.946 9.97817 26.7345 10.2737C26.5229 10.5693 25.9691 11.3447 25.5038 12.001C25.0385 12.6536 24.45 13.4865 24.1885 13.8512C23.8193 14.3732 23.7078 14.5076 23.6539 14.4922C23.6155 14.4768 23.3694 14.3195 23.1078 14.1391C22.8425 13.9548 22.4387 13.6784 22.2156 13.5172C21.9887 13.3599 21.5272 13.0413 21.1965 12.8148C20.8619 12.5845 20.3965 12.2659 20.1619 12.1047C19.9312 11.9396 19.7004 11.7822 19.5658 11.694L20.0773 10.9647C20.3619 10.5616 20.7465 10.0127 20.9349 9.74402C21.1234 9.47533 21.6003 8.79976 21.9887 8.24702C22.3771 7.69428 22.8463 7.03407 23.0232 6.78073Z" stroke="#0033D9" stroke-width="0.975625"/>
<path d="M12.8202 10.0242C12.9356 9.48301 13.0394 9.0032 13.0509 8.95714C13.0625 8.91108 13.1009 8.86885 13.1356 8.86885C13.174 8.86885 13.5586 8.90724 13.9932 8.9533C14.4239 8.99936 14.7854 9.04158 14.7893 9.04158C14.7931 9.04158 14.6085 9.91675 14.3778 10.9838C14.1509 12.0471 13.8663 13.3599 13.7547 13.8934C13.6432 14.4308 13.5394 14.8837 13.5317 14.9068C13.5163 14.9298 13.1971 14.9068 12.6664 14.8415C12.201 14.7839 11.8126 14.734 11.8087 14.7302C11.8049 14.7263 11.9818 13.8857 12.2049 12.8647C12.4279 11.8398 12.7048 10.5616 12.8202 10.0242Z" stroke="#0033D9" stroke-width="0.975625"/>
<path d="M2.70562 10.3505C2.80946 10.316 2.98252 10.2737 3.09021 10.2545C3.19405 10.2353 3.43633 10.2277 3.62863 10.2353C3.81707 10.2469 4.09782 10.2891 4.25165 10.3313C4.40549 10.3735 4.60547 10.4426 4.69392 10.4887C4.78238 10.5309 4.96698 10.6461 5.09774 10.7382C5.2285 10.8303 5.42464 11.0146 5.52847 11.1451C5.63616 11.2756 5.77461 11.4905 5.83614 11.6172C5.90152 11.7439 5.98997 11.9857 6.03228 12.1546C6.08228 12.3542 6.1092 12.5806 6.10535 12.8071C6.10535 12.9952 6.08227 13.2562 6.05535 13.3829C6.02843 13.5096 5.96305 13.7168 5.90921 13.8435C5.85922 13.9702 5.74769 14.1736 5.66308 14.3003C5.57847 14.4231 5.39771 14.6304 5.25926 14.7609C5.12081 14.8876 4.87083 15.0641 4.70162 15.1524C4.5324 15.2407 4.28242 15.3443 4.14781 15.3789C3.99783 15.4173 3.74785 15.4441 3.53248 15.4441C3.31327 15.448 3.06329 15.4211 2.91714 15.3827C2.77869 15.3482 2.51718 15.2484 2.34027 15.1563C2.07875 15.0296 1.9403 14.926 1.6634 14.6496C1.36342 14.354 1.28651 14.2504 1.13652 13.9395C1.03653 13.736 0.940379 13.4712 0.917304 13.3445C0.894229 13.2178 0.875 12.9568 0.875 12.7687C0.875 12.5346 0.901921 12.3273 0.955763 12.1354C1.00191 11.9742 1.08652 11.7515 1.14806 11.6364C1.20959 11.5174 1.34035 11.3255 1.43649 11.2026C1.52879 11.0798 1.7057 10.9032 1.82877 10.8111C1.95184 10.7152 2.15567 10.5885 2.28258 10.5271C2.40949 10.4618 2.59794 10.385 2.70562 10.3505Z" stroke="#0033D9" stroke-width="0.975625"/>
<path d="M28.742 13.1142C28.9343 12.88 29.1804 12.573 29.2996 12.4309C29.415 12.2889 29.5189 12.1738 29.5304 12.1738C29.5381 12.1738 29.7573 12.3427 30.015 12.5461L30.055 12.5788C30.2993 12.7782 30.5755 13.0038 30.838 13.2293L30.4419 13.713C30.2265 13.9817 29.8304 14.4692 29.5689 14.7954C29.3035 15.1255 29.0766 15.3942 29.0689 15.3942C29.0574 15.3942 28.7881 15.187 28.4728 14.9336C28.1536 14.6764 27.8613 14.4385 27.8228 14.4039C27.7536 14.3425 27.7652 14.3271 28.0767 13.9395C28.2536 13.7168 28.5536 13.3445 28.742 13.1142Z" stroke="#0033D9" stroke-width="0.975625"/>
<path d="M15.0816 15.1102C15.0892 15.0872 15.3085 14.496 15.57 13.7936C15.8276 13.0912 16.0469 12.5192 16.0546 12.5192C16.0622 12.5192 16.4199 12.6382 16.8468 12.7879C17.2737 12.9376 17.6313 13.0681 17.6352 13.0758C17.639 13.0873 17.5275 13.4251 17.3814 13.832C17.2352 14.2389 17.0237 14.8338 16.9122 15.1563C16.7891 15.4979 16.6814 15.7435 16.6545 15.7435C16.6276 15.7435 16.2584 15.6092 15.8353 15.4441C15.4123 15.2791 15.07 15.1294 15.0816 15.1102Z" stroke="#0033D9" stroke-width="0.975625"/>
<path d="M18.5467 16.7415C18.8043 16.3078 19.0889 15.828 19.1774 15.6744C19.2658 15.5209 19.3581 15.3981 19.3774 15.3981C19.3966 15.3981 19.7389 15.6015 20.135 15.851C20.5311 16.1005 21.0349 16.4153 21.2503 16.5496C21.6387 16.7953 21.6426 16.7991 21.5887 16.8951C21.5618 16.945 21.208 17.5438 20.808 18.2194C20.4081 18.8949 20.0196 19.5628 19.9389 19.7048C19.8619 19.8469 19.7773 19.962 19.7504 19.962C19.7235 19.962 19.4081 19.7778 19.0505 19.5551C18.689 19.3325 18.1967 19.0254 17.9582 18.8757C17.716 18.726 17.5121 18.5878 17.5044 18.5725C17.4967 18.5571 17.6237 18.3153 17.7852 18.0351C17.9467 17.7549 18.289 17.1715 18.5467 16.7415Z" stroke="#0033D9" stroke-width="0.975625"/>
<path d="M3.72477 21.0022V16.9296L6.51301 16.9527L6.53224 21.0022H3.72477Z" stroke="#0033D9" stroke-width="0.975625"/>
<path d="M11.1896 17.9123C11.3011 17.8509 11.5011 17.7818 11.628 17.7549C11.7549 17.728 11.8818 17.705 11.9164 17.7012C11.9472 17.7012 12.0779 17.7165 12.2049 17.7395C12.3318 17.7664 12.5279 17.8317 12.6471 17.8892C12.7625 17.9507 12.9394 18.085 13.0394 18.1925C13.1394 18.3 13.2586 18.4727 13.3048 18.5725C13.3612 18.6928 13.3945 18.8553 13.4048 19.06C13.4201 19.3095 13.4048 19.417 13.3394 19.6166C13.2894 19.7547 13.2048 19.9351 13.1471 20.0196C13.0894 20.104 12.974 20.2345 12.8933 20.3075C12.8087 20.3804 12.6471 20.4802 12.5318 20.5339C12.3779 20.603 12.2356 20.6337 12.0126 20.6453C11.7664 20.6568 11.6549 20.6414 11.4742 20.58C11.3472 20.5339 11.1588 20.4341 11.0588 20.3535C10.955 20.2768 10.8127 20.1271 10.7434 20.0196C10.6704 19.916 10.5819 19.7509 10.5473 19.6549C10.505 19.5475 10.4819 19.3671 10.4819 19.1559C10.4781 18.9103 10.4973 18.7798 10.5627 18.6186C10.6088 18.5034 10.7204 18.323 10.8127 18.2155C10.905 18.1119 11.0742 17.9737 11.1896 17.9123Z" stroke="#0033D9" stroke-width="0.975625"/>
<path d="M26.373 19.559C26.7422 19.2442 27.3306 18.7375 27.6805 18.4381C28.0305 18.1387 28.3305 17.8931 28.3459 17.8931C28.3613 17.8931 28.6305 18.1886 28.942 18.5533C29.2535 18.918 29.7112 19.4515 29.9611 19.7432C30.2111 20.0349 30.4149 20.2844 30.4149 20.2998C30.4149 20.3152 30.2034 20.5109 29.9458 20.7335C29.6842 20.9562 28.8997 21.6279 28.2036 22.2267C27.5036 22.8255 26.8998 23.3475 26.8575 23.3859C26.7806 23.4589 26.7768 23.455 26.3383 22.9522C26.0922 22.672 25.623 22.1231 25.2884 21.7315C24.8231 21.1826 24.6923 21.0099 24.7308 20.9792C24.7577 20.9562 24.9885 20.7566 25.2423 20.5339C25.4961 20.3152 26.0038 19.8737 26.373 19.559Z" stroke="#0033D9" stroke-width="0.975625"/>
<path d="M45.0176 19.8162C45.6483 19.3901 46.3598 18.8988 46.606 18.7337C47.0136 18.4497 47.0521 18.4343 47.0982 18.4957C47.1251 18.5341 47.2674 18.726 47.4097 18.9256C47.552 19.1291 47.9405 19.678 48.2712 20.1463C48.6019 20.6146 48.875 21.0061 48.875 21.0099C48.875 21.0138 48.5135 21.2748 48.0751 21.5895C47.6366 21.9004 46.7482 22.5299 46.106 22.979C45.4599 23.432 44.9215 23.8043 44.9138 23.8043C44.9022 23.8005 44.7715 23.6316 44.6253 23.4281C44.4792 23.2209 44.0677 22.6451 43.7139 22.1423C43.3562 21.6394 43.0639 21.2134 43.0562 21.1942C43.0524 21.175 43.2331 21.0329 43.4601 20.8794C43.6831 20.7259 44.3869 20.2461 45.0176 19.8162Z" stroke="#0033D9" stroke-width="0.975625"/>
<path d="M15.7892 23.5126C16.0853 22.8792 16.3738 22.2536 16.4314 22.1231L16.5391 21.8851L16.6584 21.9695C16.7276 22.0156 16.9891 22.1998 17.2429 22.3802C17.4967 22.5645 17.7852 22.7603 17.8852 22.8255C17.9852 22.8869 18.0698 22.9483 18.0698 22.956C18.0698 22.9675 17.9429 23.2439 17.7852 23.5702C17.6275 23.9003 17.3006 24.5989 17.0583 25.1248C16.816 25.6545 16.4007 26.545 16.1353 27.1016C15.87 27.662 15.5238 28.4066 15.3661 28.7521C15.2046 29.1014 14.9623 29.6273 14.82 29.9228C14.6777 30.2184 14.4162 30.7826 14.2355 31.1703C14.0547 31.5619 13.824 32.0609 13.7201 32.2758C13.6163 32.4908 13.5201 32.6673 13.5125 32.6673C13.5009 32.6673 13.1932 32.4562 12.8279 32.199C12.4625 31.9419 12.1279 31.7039 12.0818 31.6693C12.0014 31.6159 12.0086 31.6004 12.524 30.496L12.5318 30.4794C12.8279 29.8576 13.2586 28.9325 13.4971 28.4258C13.7355 27.9192 14.2239 26.8674 14.5893 26.0844C14.9244 25.3621 15.4147 24.3134 15.7204 23.6596L15.7892 23.5126Z" stroke="#0033D9" stroke-width="0.975625"/>
<path d="M34.9877 22.1116C35.0838 22.0501 35.2569 21.9734 35.3722 21.9427C35.5068 21.9043 35.6799 21.8889 35.8337 21.8966C35.9722 21.9081 36.1799 21.9503 36.2952 21.9926C36.426 22.0386 36.5991 22.1538 36.7337 22.2728C36.8875 22.4148 36.9952 22.5568 37.0798 22.7257C37.1913 22.9522 37.199 23.0059 37.199 23.3591C37.199 23.7045 37.1913 23.7659 37.0836 23.9886C37.0106 24.1459 36.899 24.2995 36.7683 24.4185C36.6567 24.5221 36.4683 24.6565 36.3452 24.714C36.1529 24.8062 36.076 24.8177 35.7568 24.8177C35.4376 24.8177 35.3645 24.8062 35.1723 24.714C35.0492 24.6565 34.8607 24.5221 34.7492 24.4185C34.6185 24.2995 34.5069 24.1459 34.43 23.9886C34.3262 23.7659 34.3146 23.7084 34.3185 23.3591C34.3185 23.0289 34.33 22.9445 34.4146 22.7641C34.4685 22.6489 34.58 22.48 34.6646 22.3879C34.7492 22.2958 34.8954 22.1691 34.9877 22.1116Z" stroke="#0033D9" stroke-width="0.975625"/>
<path d="M2.2595 24.9904V22.1883H3.72093V24.9904H2.2595Z" stroke="#0033D9" stroke-width="0.975625"/>
<path d="M7.95136 24.9904V22.1883H9.41278V24.9904H7.95136Z" stroke="#0033D9" stroke-width="0.975625"/>
<path d="M28.992 26.2763C28.992 26.2571 29.4919 25.8733 30.0957 25.4242C30.7034 24.975 31.2033 24.6066 31.211 24.6066C31.2149 24.6066 31.411 24.8522 32.0687 25.7005L31.9264 25.8157C31.8456 25.8809 31.3495 26.2648 30.8188 26.6717C30.288 27.0785 29.8458 27.4125 29.8342 27.4125C29.8265 27.4086 29.6304 27.163 29.4035 26.8636C29.1766 26.5603 28.992 26.2993 28.992 26.2763Z" stroke="#0033D9" stroke-width="0.975625"/>
<path d="M9.66744 28.0565C9.85094 27.2641 10.0714 26.3121 10.1666 25.8848C10.2704 25.4203 10.3665 25.0672 10.3896 25.0672C10.4127 25.071 10.7819 25.1785 11.2088 25.309C11.6357 25.4395 11.9933 25.5547 12.0087 25.5662C12.0241 25.5777 11.7703 26.71 11.4511 28.0804C11.128 29.4545 10.8627 30.5792 10.8627 30.583C10.8588 30.5869 10.4819 30.4756 9.19356 30.0764L9.24356 29.8653C9.27048 29.7501 9.44739 28.9901 9.63968 28.1763L9.66744 28.0565Z" stroke="#0033D9" stroke-width="0.975625"/>
<path d="M17.7083 28.3222C17.7236 28.2953 18.1005 27.7925 18.5428 27.2052C18.9851 26.6218 19.362 26.1458 19.3812 26.1496C19.4004 26.1573 19.7081 26.3953 20.0696 26.6793C20.4696 26.9979 20.708 27.2129 20.6888 27.2359C20.6696 27.2589 20.3004 27.7541 19.8619 28.3414C19.4235 28.9248 19.0582 29.4046 19.0466 29.4046C19.0389 29.4046 18.7274 29.1705 18.3544 28.8864C17.9121 28.5448 17.6929 28.3529 17.7083 28.3222Z" stroke="#0033D9" stroke-width="0.975625"/>
<path d="M39.6027 27.8385C39.9526 27.6236 40.6295 27.209 41.1025 26.9135C41.5794 26.6218 41.9756 26.3799 41.9871 26.3761C41.9948 26.3761 42.1717 26.6525 42.3755 26.9979C42.5794 27.3395 43.0755 28.1571 43.4716 28.8097C43.8677 29.4661 44.2254 30.0533 44.3369 30.2299L43.4024 30.8134C42.8909 31.1319 42.2025 31.558 41.8717 31.7538C41.5448 31.9534 40.9141 32.3411 40.468 32.6098C40.0257 32.8823 39.6411 33.1049 39.6142 33.1049C39.5873 33.1088 39.3219 32.7019 39.0219 32.2067C38.722 31.7116 38.1989 30.8479 37.8605 30.2875C37.3952 29.5121 37.2605 29.2626 37.3029 29.2396C37.3298 29.2242 37.7182 28.9901 38.1605 28.7176C38.6066 28.4489 39.2565 28.0535 39.6027 27.8385Z" stroke="#0033D9" stroke-width="0.975625"/>
<path d="M24.5077 28.9824C24.7846 28.7751 25.1384 28.4988 25.2961 28.3721C25.4576 28.2454 25.6038 28.1418 25.623 28.1418C25.6461 28.1379 25.8499 28.3798 26.0768 28.6753C26.3037 28.9709 26.4922 29.2166 26.4922 29.2242C26.4922 29.2281 26.3037 29.3816 26.0768 29.562C25.8499 29.7463 25.3461 30.1493 24.2577 31.0168L23.8385 30.4333C23.6039 30.1109 23.4232 29.8345 23.4347 29.8192C23.4424 29.8038 23.577 29.6925 23.7309 29.5774C23.8847 29.4584 24.2347 29.1897 24.5077 28.9824Z" stroke="#0033D9" stroke-width="0.975625"/>
<path d="M2.08644 32.0071C2.08644 31.9687 2.09413 31.1012 2.09798 30.0764L2.10567 28.2147H4.68239V32.0916L3.38634 32.0839C2.17874 32.0724 2.08644 32.0685 2.08644 32.0071Z" stroke="#0033D9" stroke-width="0.975625"/>
<path d="M29.5689 30.4026C29.9188 30.1762 30.6611 29.6964 31.2226 29.3317L32.2379 28.6715L32.3033 28.779C32.3364 28.8378 32.5246 29.1393 33.0705 30.0138L33.1455 30.1339L32.7301 30.4103C32.5032 30.5639 31.8148 31.0091 31.2033 31.4006C30.588 31.7922 29.8035 32.3027 29.4535 32.5292C29.1035 32.7556 28.542 33.1203 28.2036 33.3391C27.8651 33.5579 27.3113 33.9148 26.9729 34.1298C26.6345 34.3486 26.0114 34.7478 25.5884 35.0242C25.1654 35.2967 24.35 35.8226 23.7809 36.1949C23.2078 36.5634 22.5348 36.9971 22.281 37.1622C22.0272 37.3272 21.5964 37.6036 21.3272 37.7802C21.058 37.9567 20.8311 38.0911 20.8234 38.0796C20.8196 38.0681 20.6196 37.7571 20.385 37.3886C20.1465 37.0202 19.9542 36.7016 19.9581 36.6785C19.9581 36.6593 20.2311 36.4674 20.5619 36.2525C20.8926 36.0413 21.5464 35.6191 22.0118 35.3159C22.4771 35.0165 23.2732 34.4983 23.7809 34.1643C24.2885 33.8342 25.2307 33.2201 25.8768 32.8017C26.5229 32.3833 27.1344 31.9879 27.2421 31.9188C27.346 31.8497 27.7728 31.5734 28.1844 31.3047L28.2232 31.2793C28.6342 31.0109 29.2297 30.6221 29.5689 30.4026Z" stroke="#0033D9" stroke-width="0.975625"/>
<path d="M31.2918 34.1451C31.288 34.1221 31.8571 33.8764 32.5532 33.6001C33.2493 33.3237 33.8454 33.0934 33.88 33.0934C33.9185 33.0896 34.0223 33.293 34.2069 33.7229C34.3531 34.0722 34.4646 34.3639 34.4569 34.3755C34.4454 34.3831 33.9954 34.5789 33.457 34.813C32.9147 35.0433 32.3571 35.2852 32.2148 35.3504C32.0725 35.4157 31.9341 35.4694 31.9071 35.4694C31.8802 35.4694 31.7341 35.1815 31.5802 34.8284C31.4264 34.4753 31.2995 34.1643 31.2918 34.1451Z" stroke="#0033D9" stroke-width="0.975625"/>
<path d="M44.5523 34.9128C44.6792 34.8745 44.8753 34.8322 44.9945 34.8169C45.1099 34.8015 45.3176 34.7977 45.456 34.8054C45.5906 34.8169 45.8176 34.8514 45.956 34.8821C46.0906 34.9128 46.3098 34.9858 46.4367 35.0472C46.5636 35.1086 46.7829 35.2506 46.929 35.3619C47.0751 35.4733 47.2713 35.669 47.3674 35.7957C47.4636 35.9224 47.5982 36.1488 47.6674 36.2947C47.7366 36.4444 47.8212 36.6977 47.8559 36.8628C47.8866 37.024 47.9174 37.262 47.9174 37.3886C47.9174 37.5153 47.8905 37.7533 47.8559 37.9184C47.8212 38.0949 47.7289 38.3559 47.6289 38.5594C47.529 38.7628 47.3751 39.0008 47.2559 39.1313C47.1405 39.258 46.9482 39.4345 46.8213 39.5228C46.6944 39.615 46.4752 39.7378 46.3406 39.803C46.2021 39.8645 45.9406 39.9451 45.7637 39.9834C45.5291 40.0295 45.3522 40.041 45.1368 40.0257C44.9715 40.0103 44.7138 39.9604 44.56 39.9105C44.4061 39.8645 44.16 39.757 44.0139 39.6764C43.8446 39.5842 43.6331 39.4154 43.4562 39.2349C43.2947 39.0737 43.1024 38.8319 43.0216 38.6937C42.9409 38.5555 42.8409 38.3329 42.7986 38.1947C42.7524 38.0604 42.7063 37.8186 42.687 37.6573C42.6678 37.5 42.6717 37.2428 42.6909 37.0816C42.7063 36.9242 42.7524 36.7092 42.787 36.6018C42.8178 36.4981 42.9062 36.3062 42.9755 36.1795C43.0447 36.0529 43.1793 35.8571 43.2716 35.7381C43.3678 35.623 43.537 35.4579 43.6523 35.3696C43.7639 35.2852 43.9639 35.1623 44.0908 35.0971C44.2177 35.0318 44.4254 34.9474 44.5523 34.9128Z" stroke="#0033D9" stroke-width="0.975625"/>
<path d="M16.8814 37.3119C16.9968 37.2389 17.1698 37.1583 17.266 37.1315C17.3583 37.1046 17.5775 37.0892 17.7467 37.0931C17.9736 37.1046 18.1082 37.1315 18.2659 37.2006C18.3813 37.2543 18.5467 37.3579 18.6313 37.4347C18.7159 37.5115 18.8389 37.6727 18.9043 37.7955C18.9774 37.9299 19.0466 38.1295 19.0697 38.283C19.1005 38.4903 19.0966 38.5978 19.0505 38.8204C19.0197 38.9739 18.9466 39.1812 18.8889 39.2848C18.8313 39.3885 18.7005 39.5459 18.6005 39.638C18.5005 39.7339 18.3198 39.8568 18.1967 39.9105C18.0121 39.9988 17.9236 40.018 17.6698 40.018C17.4121 40.018 17.3237 39.9988 17.1391 39.9105C17.016 39.8568 16.8314 39.7263 16.7237 39.6265C16.6084 39.519 16.4814 39.3501 16.4161 39.2119C16.3545 39.0852 16.2891 38.8895 16.2699 38.7705C16.2545 38.6553 16.2545 38.4442 16.2699 38.3022C16.2891 38.1602 16.343 37.9606 16.393 37.8608C16.443 37.761 16.5276 37.6266 16.5814 37.5614C16.6314 37.5 16.7699 37.3886 16.8814 37.3119Z" stroke="#0033D9" stroke-width="0.975625"/>
<path d="M28.1882 37.5882C28.2805 37.5345 28.4305 37.4654 28.5151 37.4385C28.6035 37.4117 28.792 37.3963 28.9766 37.404C29.215 37.4117 29.3381 37.4385 29.5342 37.5307C29.6688 37.5921 29.8573 37.7111 29.9496 37.7955C30.0419 37.88 30.165 38.0258 30.2265 38.118C30.2919 38.2216 30.3573 38.3982 30.388 38.5555C30.4149 38.7129 30.4265 38.9164 30.4111 39.0545C30.3996 39.185 30.3457 39.377 30.2957 39.4806C30.2457 39.5881 30.1111 39.7723 29.9957 39.899C29.8573 40.0449 29.6958 40.1639 29.5342 40.2445C29.3073 40.3519 29.2497 40.3635 28.9189 40.3635C28.592 40.3635 28.5266 40.3519 28.3228 40.2521C28.1959 40.1907 28.0036 40.0525 27.8959 39.9451C27.7921 39.8376 27.6536 39.6457 27.5921 39.519C27.5344 39.3923 27.4729 39.2042 27.4575 39.0968C27.4421 38.9931 27.4421 38.8012 27.4575 38.6745C27.469 38.5479 27.5306 38.3521 27.5882 38.2331C27.6459 38.118 27.7652 37.9491 27.8536 37.8569C27.9421 37.7648 28.0921 37.6458 28.1882 37.5882Z" stroke="#0033D9" stroke-width="0.975625"/>
<path d="M37.4375 38.4596C37.9028 38.3521 38.7412 38.1525 39.3027 38.0182C39.8603 37.8876 40.3526 37.7802 40.3949 37.784C40.4564 37.7917 40.4949 37.8915 40.6334 38.4634C40.7218 38.8357 40.7987 39.1543 40.7987 39.1735C40.7987 39.1966 40.518 39.281 40.1757 39.3616C39.8334 39.4422 38.5835 39.7378 37.399 40.0218C36.2145 40.302 34.6992 40.6552 34.0339 40.8049C33.3647 40.9546 32.8186 41.0736 32.8109 41.0659C32.8071 41.0621 32.7378 40.7435 32.6532 40.3635C32.5725 39.9834 32.5148 39.661 32.5302 39.6495C32.5417 39.6341 33.4609 39.4038 34.5723 39.139C35.6799 38.8741 36.9721 38.5671 37.4375 38.4596Z" stroke="#0033D9" stroke-width="0.975625"/>
<path d="M20.5811 41.918C20.6503 41.9142 21.8579 41.8374 23.2655 41.7491C24.6692 41.657 25.9307 41.5802 26.3037 41.5726V41.6992C26.3076 41.7683 26.3268 42.1522 26.3999 43.2922L26.0153 43.3152C25.8038 43.3306 24.6154 43.392 23.3809 43.4534C22.1425 43.5148 20.9926 43.5762 20.5157 43.6146L20.485 43.1425C20.4696 42.8815 20.4542 42.4976 20.458 41.918H20.5811Z" stroke="#0033D9" stroke-width="0.975625"/>
<path d="M39.7065 42.2443C40.7218 42.1675 41.714 42.0908 41.9179 42.0754L41.9569 42.0724C42.1486 42.0576 42.3726 42.0404 42.6101 42.0332L42.6255 42.1982C42.637 42.2865 42.6716 42.6358 42.7024 42.9736C42.737 43.3114 42.7601 43.5916 42.7524 43.5954C42.7486 43.5993 42.3294 43.63 41.8217 43.6645C41.3141 43.6991 39.668 43.8142 38.1682 43.9179C36.6644 44.0215 34.8031 44.1482 34.0339 44.2019C33.2609 44.2557 31.7879 44.3631 30.7649 44.4361C29.7381 44.509 28.8881 44.5551 28.8766 44.5397C28.8612 44.5244 28.8305 44.1827 28.8074 43.7797C28.7843 43.3805 28.7689 43.0504 28.7728 43.0465C28.7766 43.0427 29.4304 42.9928 30.2265 42.9391C31.0187 42.8815 32.7148 42.7587 33.9954 42.6665C35.2722 42.5744 36.6683 42.4708 37.0913 42.4401C37.5144 42.4055 38.6912 42.3211 39.7065 42.2443Z" stroke="#0033D9" stroke-width="0.975625"/>
<path d="M43.187 49L43.1908 46.72L43.1985 44.4399L44.2408 44.4668C44.8138 44.4783 46.0483 44.4898 48.6866 44.4898V49H43.187Z" stroke="#0033D9" stroke-width="0.975625"/>
<path d="M20.4081 46.8006C20.4157 46.4052 20.4273 46.0636 20.4311 46.0405C20.4427 46.0098 20.5657 45.9983 20.8426 46.0098C21.0618 46.0214 22.7309 46.0636 24.55 46.1058L24.5529 46.1059C26.3708 46.1481 28.0231 46.1864 28.5882 46.1979L28.5766 46.9656C28.5689 47.3878 28.5497 47.7448 28.5382 47.7602C28.5228 47.7717 26.9614 47.7333 25.0692 47.6757C23.1771 47.6143 21.3503 47.5529 20.3965 47.5145L20.4081 46.8006Z" stroke="#0033D9" stroke-width="0.975625"/>
<path d="M31.5418 46.9925C31.5572 46.7046 31.5687 46.3668 31.5687 46.2478V46.0252H32.1763C32.5071 46.0252 33.6301 46.0521 34.6646 46.0866C35.703 46.1173 37.026 46.1557 38.6643 46.1979L38.6758 46.9656C38.6797 47.3878 38.672 47.7448 38.6566 47.7602C38.6412 47.7717 38.0105 47.7602 37.2605 47.7333C36.5106 47.7064 35.1069 47.6527 34.1454 47.622C33.1839 47.5874 32.1956 47.5491 31.511 47.5145L31.5418 46.9925Z" stroke="#0033D9" stroke-width="0.975625"/>
</svg>
