<svg width="49" height="48" viewBox="0 0 49 48" fill="none" xmlns="http://www.w3.org/2000/svg">
<path d="M35.4298 0.0621762C34.9804 0.109091 34.1198 0.23107 33.5174 0.334284C32.915 0.437497 32.0067 0.625157 31.5095 0.756519C31.0123 0.887881 30.5915 1.00048 30.5915 1.01924C30.582 1.02863 31.1557 2.98029 31.8632 5.3542C32.3049 6.83607 32.7019 8.15342 32.9379 8.93648C33.0799 9.40781 33.1636 9.68562 33.1636 9.68915C33.1732 9.70792 33.68 9.5484 34.2824 9.35136C34.8848 9.15432 35.7453 8.83529 36.1947 8.64763C36.6441 8.45059 37.4569 8.06589 38.0115 7.77501C38.566 7.49352 39.4457 6.97746 39.9716 6.63967C40.5262 6.28311 41.3198 5.64507 41.8553 5.11962C42.5533 4.44404 42.8497 4.07811 43.0696 3.61834C43.28 3.18672 43.366 2.8677 43.366 2.53929C43.366 2.22965 43.2895 1.94816 43.1461 1.69482C43.0314 1.48839 42.7158 1.17876 42.4577 1.00986C42.1899 0.840966 41.7692 0.625157 41.5015 0.521944C41.2433 0.428114 40.6983 0.287369 40.3063 0.193538C39.8377 0.0903252 39.0059 0.0246441 37.9158 0.0058781C36.9979 -0.0128879 35.8792 0.0152611 35.4298 0.0621762Z" fill="#0033D9"/>
<path fill-rule="evenodd" clip-rule="evenodd" d="M22.4258 25.1711C22.3493 25.1993 22.1676 25.3306 22.0146 25.4714C21.8617 25.6121 21.4983 26.2877 21.1445 27.0759C20.8965 27.6168 20.3605 28.8154 19.7941 30.082L19.7939 30.0824C19.5743 30.5734 19.3502 31.0746 19.1366 31.5516C18.2091 33.6252 17.7405 34.7887 17.7405 35.0045C17.7405 35.1828 17.7979 35.4455 17.8744 35.5863C17.9509 35.7364 18.0848 35.9147 18.1804 36.0085C18.2856 36.0929 19.825 36.7873 21.613 37.5567C23.4011 38.3261 28.3828 40.4748 32.676 42.3327L40.4975 45.7012C40.4019 46.2078 40.4019 46.5175 40.4401 46.7051C40.4688 46.9116 40.6314 47.2118 40.813 47.4089C40.9756 47.5965 41.2625 47.803 41.4346 47.878C41.5971 47.9437 41.9031 48 42.1039 48C42.2951 48 42.6298 47.8968 42.8401 47.7748C43.0505 47.6528 43.2991 47.4464 43.3947 47.3057C43.4808 47.1743 44.6951 44.5095 46.0911 41.385C48.0226 37.0688 48.625 35.6144 48.625 35.3329C48.625 35.1265 48.5676 34.8169 48.5007 34.648C48.4242 34.4885 48.233 34.2351 48.0704 34.085C47.8983 33.9442 47.5923 33.7941 47.382 33.7378C47.1142 33.6721 46.8752 33.6721 46.5979 33.7472C46.3206 33.8129 46.0529 33.9818 45.8043 34.2445L45.4218 34.6386C25.6768 26.1188 23.2577 25.1148 22.9517 25.1148C22.7413 25.1148 22.5023 25.143 22.4258 25.1711ZM24.7493 28.4364C24.5677 28.5115 24.3669 28.7085 24.2808 28.8868C24.1852 29.0651 24.1469 29.2997 24.1852 29.4685C24.2139 29.6187 24.3382 29.8439 24.4529 29.9565C24.5772 30.0691 27.79 31.514 31.6051 33.1561C32.4148 33.5046 33.2039 33.8442 33.9473 34.1642C36.7066 35.3519 38.8373 36.269 39.0633 36.3651C39.484 36.534 39.6561 36.5621 39.9143 36.4964C40.0959 36.4495 40.3159 36.3088 40.4115 36.1774C40.5071 36.046 40.6123 35.8115 40.6505 35.6613C40.6888 35.4549 40.641 35.2954 40.4784 35.0608C40.2776 34.7606 39.637 34.4697 32.896 31.561C28.8418 29.8157 25.4282 28.3707 25.2944 28.3426C25.1605 28.3238 24.9119 28.3614 24.7398 28.4364H24.7493Z" fill="#0033D9"/>
<path fill-rule="evenodd" clip-rule="evenodd" d="M26.9676 0.493744C26.8624 0.521894 24.9692 1.05673 22.7605 1.69477C20.5517 2.33282 16.8035 3.41186 14.4417 4.08744C13.3319 4.40801 12.0169 4.78612 10.7593 5.14771L10.7566 5.1485L10.7561 5.14862L10.7559 5.1487L10.7554 5.14884C9.3273 5.55945 7.97364 5.94867 7.07918 6.208C5.39632 6.69592 3.96205 7.09 3.89512 7.09C3.83775 7.09 3.78038 7.04309 3.78038 6.99617C3.78038 6.94926 3.68476 6.77098 3.56046 6.60209C3.44572 6.44258 3.17799 6.22677 2.96763 6.13294C2.75727 6.03911 2.43217 5.96404 2.2505 5.96404C2.06882 5.96404 1.7246 6.05787 1.48556 6.17985C1.20827 6.3206 0.978785 6.53641 0.84492 6.77098C0.711056 6.98679 0.625 7.29643 0.625 7.53101C0.625 7.77496 1.25608 10.0363 2.24094 13.3485C3.13018 16.3323 3.93337 19.0252 4.02898 19.3348C4.1246 19.6539 4.3254 20.0386 4.48795 20.2168C4.6505 20.3951 4.92779 20.5922 5.09034 20.6672C5.26245 20.7329 5.55886 20.7892 5.74054 20.7892C5.92221 20.7892 6.21863 20.7329 6.39074 20.6578C6.55329 20.5922 6.79233 20.4327 6.90707 20.3107C7.02181 20.1887 7.18436 19.9166 7.27042 19.7102C7.35647 19.5037 7.41385 19.1941 7.39472 19.0158L7.36604 18.6968L8.55763 18.3538C10.7342 17.7274 13.7872 16.8487 16.88 15.957C19.6042 15.1715 22.7975 14.2545 25.0518 13.6072C25.8675 13.373 26.5602 13.1741 27.0632 13.0295C28.9565 12.4852 30.6011 11.9879 30.7254 11.9129C30.8401 11.8378 31.0218 11.6408 31.127 11.4813C31.2322 11.3124 31.3182 11.0215 31.3182 10.8432C31.3182 10.6649 30.6967 8.42239 29.9318 5.87021C29.1668 3.31803 28.4784 1.13179 28.4019 1.00981C28.3254 0.897214 28.0768 0.718937 27.8569 0.615724C27.6274 0.512511 27.3788 0.437446 27.3023 0.437446C27.2258 0.446829 27.0728 0.465595 26.9676 0.493744ZM16.7748 5.62631C12.6442 6.81795 9.15413 7.85008 9.01071 7.91576C8.85772 7.98144 8.68561 8.17849 8.59955 8.38491C8.52306 8.57257 8.47525 8.84468 8.50393 8.99481C8.53262 9.13556 8.69517 9.35137 8.84816 9.48273C9.01071 9.61409 9.25931 9.7173 9.42186 9.7173C9.58441 9.7173 12.9501 8.78838 16.9087 7.65304C20.8577 6.50831 24.3669 5.49495 24.7015 5.40112C25.1031 5.26975 25.3613 5.12901 25.4856 4.96011C25.6099 4.8006 25.6864 4.55664 25.6768 4.35022C25.6768 4.07811 25.6003 3.9186 25.39 3.71217C25.1605 3.48698 25.0266 3.43068 24.7015 3.44007C24.4721 3.44945 20.9247 4.42528 16.7748 5.62631Z" fill="#0033D9"/>
<path d="M10.3302 23.2006C10.072 23.2194 9.58436 23.2757 9.25926 23.3226C8.9246 23.3789 8.42739 23.5197 8.15966 23.6416C7.88237 23.7636 7.50946 24.0076 7.33735 24.1765C7.16524 24.3547 6.974 24.6456 6.91663 24.8239C6.85926 25.0022 6.84014 25.3681 6.85926 25.6215C6.88795 25.8842 7.0505 26.3627 7.22261 26.7005C7.39472 27.0383 7.73894 27.5637 7.98755 27.8734C8.23616 28.183 8.84811 28.8211 9.34532 29.2808C9.83297 29.7406 10.6648 30.4256 11.1907 30.7915C11.7166 31.1574 12.5581 31.7016 13.0553 32.0019C13.5525 32.3022 14.4226 32.7713 14.9963 33.0434C15.5605 33.3249 16.029 33.5407 16.0481 33.5313C16.0672 33.5126 16.9087 31.6454 17.9222 29.3747C18.9262 27.104 19.7198 25.218 19.6816 25.1898C19.6433 25.1617 19.213 24.9834 18.7445 24.7958C18.276 24.6175 17.3676 24.3172 16.7366 24.1296C16.1055 23.9419 15.0537 23.6886 14.3939 23.5572C13.7342 23.4352 12.9023 23.3039 12.5294 23.2757C12.1565 23.2476 11.621 23.21 11.3342 23.1913C11.0473 23.1819 10.5979 23.1819 10.3302 23.2006Z" fill="#0033D9"/>
</svg>
