<svg width="49" height="48" viewBox="0 0 49 48" fill="none" xmlns="http://www.w3.org/2000/svg">
<path fill-rule="evenodd" clip-rule="evenodd" d="M23.7256 0.175405C23.4918 0.298838 23.3034 0.454753 23.1736 0.636655L22.9787 0.9225L22.9463 7.79577C22.2644 7.85424 21.7773 7.9257 21.4201 7.99067C21.0629 8.05563 20.5369 8.16607 20.2511 8.24403C19.9654 8.31549 19.3809 8.49739 18.9523 8.64681C18.5236 8.78974 17.7638 9.11456 17.2637 9.35493C16.7637 9.6018 16.1078 9.95261 15.8025 10.141C15.4973 10.3294 14.9518 10.7127 14.5816 10.992C14.2179 11.2714 13.8997 11.4988 13.8737 11.4988C13.8413 11.4988 13.4386 11.122 12.9775 10.6607C12.1917 9.88764 12.1073 9.82268 11.7761 9.75121C11.4903 9.67975 11.3539 9.67975 11.0942 9.75121C10.8539 9.80968 10.6915 9.91363 10.4707 10.128C10.2564 10.3489 10.1525 10.5113 10.094 10.7517C10.0226 11.0115 10.0226 11.148 10.094 11.4338C10.1655 11.7651 10.2304 11.8496 11.0032 12.6356C11.4643 13.0969 11.841 13.4997 11.841 13.5322C11.841 13.5582 11.6137 13.8765 11.3409 14.2468C11.0617 14.6106 10.6655 15.1888 10.4642 15.5266C10.2629 15.8644 9.90571 16.54 9.67841 17.0208C9.44461 17.5015 9.16536 18.1642 9.04846 18.4825C8.93806 18.8008 8.75622 19.405 8.64581 19.8143C8.54191 20.2235 8.39254 20.8797 8.32759 21.276C8.26265 21.6723 8.2042 22.088 8.2042 22.205C8.2042 22.3154 8.19121 22.4583 8.17173 22.5103C8.14575 22.5948 7.71064 22.6077 4.82717 22.6077C1.98267 22.6077 1.48261 22.6207 1.26829 22.7117C1.13841 22.7637 0.93059 22.9001 0.813693 23.017C0.690301 23.134 0.560416 23.3159 0.514955 23.4198C0.469495 23.5237 0.411047 23.7186 0.38507 23.8421C0.359092 23.985 0.38507 24.1929 0.443518 24.3943C0.495473 24.5762 0.61237 24.8101 0.690301 24.914C0.774727 25.0179 0.969556 25.1739 1.13191 25.2518C1.41766 25.4012 1.42416 25.4012 4.77521 25.4012C7.71064 25.4012 8.14575 25.4142 8.17173 25.4987C8.19121 25.5506 8.2042 25.6936 8.2042 25.8105C8.2042 25.9209 8.26265 26.3367 8.32759 26.733C8.39903 27.1228 8.50943 27.6815 8.58737 27.9673C8.6588 28.2532 8.80168 28.7469 8.90559 29.0717C9.0095 29.3966 9.20432 29.9098 9.33421 30.2281C9.4641 30.5399 9.70438 31.0662 9.86674 31.391C10.0356 31.7223 10.3343 32.255 10.5357 32.5798C10.7305 32.9047 11.1136 33.4634 11.3864 33.8272L11.8735 34.4833C10.685 35.6787 10.2889 36.1399 10.2174 36.2828C10.1395 36.4387 10.0875 36.6791 10.0875 36.887C10.0875 37.0689 10.133 37.3353 10.1915 37.4717C10.2434 37.6016 10.3668 37.7965 10.4642 37.9005C10.5616 38.0044 10.7565 38.1408 10.8993 38.2058C11.0422 38.2708 11.276 38.3292 11.4189 38.3292C11.5618 38.3292 11.7955 38.2967 11.9384 38.2578C12.1397 38.1993 12.3865 37.9914 13.0554 37.3288L13.9127 36.4777C14.5491 36.9909 14.9972 37.3158 15.3155 37.5302C15.6337 37.7445 16.0623 38.0044 16.2571 38.1148C16.452 38.2253 16.7442 38.3877 16.9066 38.4721C17.0689 38.5631 17.5365 38.784 17.9456 38.9594C18.3548 39.1413 18.9782 39.3817 19.3289 39.4921C19.6731 39.6025 20.2576 39.7649 20.6213 39.8494C20.9915 39.9403 21.6604 40.0638 22.1215 40.1287L22.9463 40.2457V46.8721C23.1865 47.3788 23.3554 47.5997 23.4788 47.6906C23.5957 47.7816 23.797 47.892 23.9204 47.9375C24.0438 47.9765 24.2516 48.009 24.375 48.009C24.4984 48.009 24.7062 47.9765 24.8296 47.931C24.953 47.892 25.1413 47.7946 25.2387 47.7231C25.3426 47.6452 25.505 47.4568 25.5959 47.2944L25.7713 47.002L25.8037 40.2132C26.1025 40.2132 26.609 40.1417 27.1221 40.0573C27.6286 39.9663 28.408 39.7909 28.8561 39.661C29.3042 39.5311 30.0056 39.2972 30.4147 39.1348C30.8238 38.9724 31.4863 38.6735 31.8759 38.4656C32.2656 38.2643 32.915 37.881 33.3047 37.6211C33.6943 37.3547 34.2009 36.9909 34.4282 36.809L34.8373 36.4777C36.3635 37.9914 36.6103 38.1993 36.8116 38.2578C36.9545 38.2967 37.1882 38.3292 37.3311 38.3292C37.474 38.3292 37.7078 38.2708 37.8507 38.2058C37.9935 38.1408 38.2078 37.9849 38.3247 37.855C38.4352 37.7186 38.565 37.5431 38.5975 37.4522C38.63 37.3612 38.6624 37.1209 38.6624 36.9195C38.6624 36.6791 38.617 36.4452 38.5326 36.2828C38.4611 36.1399 38.0585 35.6722 37.6299 35.2434L36.8505 34.4638C37.487 33.6583 37.8507 33.145 38.078 32.8072C38.2988 32.4694 38.7079 31.7223 38.9937 31.1506C39.2729 30.5789 39.6041 29.8058 39.734 29.429C39.8639 29.0522 40.0392 28.4546 40.1302 28.0973C40.2211 27.74 40.351 27.1423 40.4224 26.7655C40.4873 26.3887 40.5458 25.9794 40.5458 25.856C40.5458 25.7326 40.5783 25.5831 40.6107 25.5312C40.6627 25.4467 41.1238 25.4337 44.0008 25.4142L44.0248 25.4141C47.2807 25.3947 47.3395 25.3944 47.6181 25.2518C47.7804 25.1739 47.9753 25.0179 48.0597 24.914C48.1376 24.8101 48.2545 24.5762 48.3065 24.3943C48.3649 24.1929 48.3909 23.985 48.3649 23.8421C48.339 23.7186 48.2805 23.5237 48.235 23.4198C48.1896 23.3159 48.0597 23.134 47.9363 23.017C47.8194 22.9001 47.6116 22.7637 47.4752 22.7117C47.2674 22.6207 46.7673 22.6077 43.9228 22.6077C41.0394 22.6077 40.6042 22.5948 40.5783 22.5103C40.5588 22.4583 40.5458 22.3154 40.5458 22.205C40.5458 22.088 40.4873 21.6723 40.4224 21.276C40.3575 20.8797 40.2081 20.2235 40.1042 19.8143C39.9938 19.405 39.8119 18.8008 39.7015 18.4825C39.5846 18.1642 39.2924 17.4755 39.0391 16.9558C38.7923 16.4361 38.4352 15.767 38.2533 15.4616C38.0715 15.1563 37.6948 14.6106 37.4155 14.2468C37.1363 13.8765 36.909 13.5582 36.909 13.5322C36.909 13.4997 37.2337 13.1619 37.6299 12.7656C38.026 12.3693 38.4157 11.934 38.5001 11.7911C38.5845 11.6482 38.6754 11.4013 38.7014 11.2389C38.7209 11.07 38.7079 10.8361 38.6689 10.6867C38.63 10.5438 38.5001 10.3099 38.3832 10.1735C38.2663 10.0371 38.0585 9.86165 37.9156 9.79019C37.7468 9.69924 37.5324 9.65377 37.2986 9.65377C37.0843 9.65377 36.8505 9.69924 36.7142 9.7707C36.5908 9.83567 36.1232 10.2514 35.6751 10.6997L34.8633 11.5118C34.11 10.9206 33.6294 10.5763 33.3047 10.3619C32.9799 10.154 32.337 9.7837 31.8759 9.54333C31.4148 9.29646 30.681 8.96514 30.2523 8.80273C29.8237 8.63382 29.1678 8.41294 28.7911 8.309C28.4145 8.20505 27.8624 8.06863 27.5572 8.01016C27.252 7.95819 26.7259 7.87373 26.3882 7.83475L25.7713 7.76329C25.7128 1.37725 25.6933 0.916003 25.6024 0.747095C25.544 0.643151 25.3946 0.467746 25.2777 0.363803C25.1543 0.259859 24.9595 0.136426 24.8426 0.0844542C24.7322 0.0389789 24.5114 0 24.3555 0C24.1867 0 23.9529 0.0649648 23.7256 0.175405ZM18.725 15.7605C18.5302 15.8125 18.2379 15.9164 18.0756 15.9879C17.9132 16.0658 17.6534 16.2282 17.4911 16.3582C17.3287 16.4816 17.0884 16.722 16.952 16.8844C16.8157 17.0468 16.6143 17.3716 16.5039 17.6055C16.3935 17.8394 16.2571 18.2616 16.2052 18.5475C16.1208 18.9827 16.1143 19.1516 16.1792 19.5869C16.2312 19.9117 16.3416 20.2755 16.478 20.5614C16.5949 20.8147 16.8351 21.172 17.0105 21.3669C17.1858 21.5618 17.5041 21.8347 17.7184 21.9711C17.9327 22.114 18.2964 22.2829 18.5302 22.3544C18.8029 22.4389 19.1341 22.4908 19.4718 22.4908C19.7576 22.4908 20.1407 22.4583 20.3161 22.4129C20.4979 22.3739 20.8291 22.244 21.0629 22.1335C21.3227 22.0036 21.6474 21.7632 21.9137 21.5034C22.1929 21.2305 22.4137 20.9317 22.5436 20.6588C22.6605 20.425 22.7969 20.0157 22.8554 19.7493C22.9268 19.4115 22.9398 19.1322 22.9138 18.8398C22.8878 18.6059 22.8164 18.2421 22.745 18.0278C22.68 17.8134 22.5177 17.4626 22.3748 17.2482C22.2384 17.0338 21.9656 16.7155 21.7708 16.5401C21.576 16.3711 21.2513 16.1438 21.0499 16.0398C20.8421 15.9359 20.4914 15.806 20.2706 15.754C20.0433 15.702 19.6861 15.663 19.4718 15.663C19.2575 15.663 18.9198 15.7085 18.725 15.7605Z" fill="#0033D9"/>
</svg>
