<svg width="49" height="47" viewBox="0 0 49 47" fill="none" xmlns="http://www.w3.org/2000/svg">
<path d="M14.795 1.06431C15.0059 0.78625 15.3607 0.431479 15.5717 0.278064C15.7826 0.124649 15.984 0 16.0223 0C16.0703 0 16.099 0.345183 16.099 0.767073C16.099 1.18896 16.1661 1.85056 16.2428 2.22451C16.3291 2.60805 16.4826 3.2313 16.588 3.59566C16.6935 3.96002 16.9428 4.67915 17.1346 5.17774C17.3263 5.67634 17.6907 6.39547 17.9304 6.75983C18.1701 7.12419 18.4769 7.52691 18.6016 7.64197C18.7262 7.75703 18.966 7.90085 19.1194 7.95838C19.3495 8.03509 19.4741 8.0255 19.7426 7.89127C19.9344 7.79538 20.1549 7.57485 20.2412 7.38308C20.3659 7.14337 20.4138 6.80777 20.4138 6.18453C20.4138 5.71469 20.4809 5.04351 20.5672 4.69832C20.6439 4.35314 20.8741 3.77784 21.0658 3.42306C21.2576 3.06829 21.4398 2.77105 21.4685 2.77105C21.4973 2.78064 21.5932 3.02994 21.6987 3.32718C21.7945 3.63401 22.3219 4.98598 22.878 6.32835C23.4246 7.67073 24.0191 9.1857 24.1916 9.6843C24.3738 10.1829 24.6039 10.9883 24.7094 11.4582C24.8245 11.928 24.9587 12.7718 25.0258 13.3279C25.093 13.9032 25.1121 14.7662 25.0834 15.3415C25.045 15.8976 24.9395 16.6934 24.8245 17.1153C24.719 17.5372 24.4505 18.2468 24.23 18.6974C23.9328 19.2823 23.6259 19.6946 23.1465 20.1836C22.7726 20.5576 22.2068 21.0274 21.8712 21.2192C21.5452 21.4109 21.2384 21.5739 21.1809 21.5739C21.1234 21.5739 21.1521 21.4013 21.2384 21.1712C21.3247 20.9411 21.411 20.3466 21.4398 19.848C21.4781 19.0809 21.4589 18.8412 21.2768 18.3139C21.1617 17.9687 20.9603 17.518 20.8261 17.3071C20.6919 17.0961 20.4713 16.8085 20.3275 16.6551C20.1645 16.4825 19.9823 16.3962 19.7906 16.3866C19.6371 16.3866 19.4358 16.4633 19.3495 16.5592C19.2632 16.6551 19.0523 17.0098 18.8701 17.3454C18.6879 17.681 18.4002 18.0837 18.2276 18.2276C18.0071 18.4289 17.8345 18.4961 17.6044 18.4865C17.3168 18.4577 17.2976 18.4289 17.2688 18.0742C17.24 17.7961 17.4414 17.0482 18.803 12.8964L18.7646 11.8896C18.7262 11.1226 18.6591 10.7486 18.4865 10.3171C18.3619 10.0007 18.2181 9.73224 18.1605 9.71306C18.103 9.69389 18.0071 9.88566 17.94 10.135C17.8825 10.3938 17.6715 10.8541 17.4798 11.1705C17.2976 11.4869 16.962 11.9376 16.7414 12.1677C16.5209 12.3978 15.8785 13.0019 15.3128 13.5101C14.7566 14.0183 14.0663 14.7086 13.7882 15.0538C13.5101 15.399 13.1458 15.9743 12.9732 16.3482C12.791 16.7222 12.5801 17.3454 12.4938 17.7386C12.3979 18.1796 12.3404 18.9179 12.3308 19.6562C12.3308 20.4904 12.3787 20.989 12.4746 21.2863C12.5609 21.526 12.6664 21.8041 12.7047 21.8999C12.791 22.0725 12.7814 22.0821 12.4075 21.9191C12.1965 21.8232 11.7651 21.5931 11.4486 21.4013C11.1322 21.2096 10.624 20.8164 10.3076 20.5192C10.0008 20.2316 9.55972 19.733 9.33919 19.4165C9.10907 19.1001 8.74471 18.4769 8.53376 18.0262C8.32282 17.5756 8.05434 16.8468 7.93928 16.3962C7.7571 15.7538 7.71875 15.3415 7.71875 14.4306C7.72834 13.5964 7.78587 13.0498 7.93928 12.4362C8.04475 11.9759 8.29405 11.1801 8.48582 10.6623C8.67759 10.1541 9.0036 9.38706 9.21454 8.96517C9.42549 8.54328 9.8282 7.78579 10.1159 7.2872C10.3939 6.7886 10.7295 6.09823 10.8637 5.75305C10.9884 5.40787 11.1226 4.92844 11.1514 4.66956C11.1802 4.42026 11.2377 4.2189 11.276 4.2189C11.324 4.2189 11.4774 4.42026 11.6308 4.66956C11.7746 4.92844 11.9856 5.33116 12.0815 5.58046C12.1869 5.83934 12.2924 6.30918 12.3212 6.63518C12.3595 7.02831 12.302 7.74744 12.1774 8.67752C12.0623 9.46377 11.9472 10.4801 11.9089 10.9308C11.8705 11.4677 11.8897 11.8225 11.9664 11.9568C12.0335 12.1006 12.1582 12.1773 12.3116 12.1773C12.4842 12.1773 12.6376 12.0622 12.8485 11.765C13.002 11.5445 13.1937 11.1417 13.2704 10.8829C13.3376 10.6144 13.4526 9.83771 13.5197 9.15694C13.5964 8.29398 13.606 7.55567 13.5485 6.75983C13.5006 6.127 13.4718 5.24486 13.491 4.79421C13.5006 4.34355 13.5964 3.66277 13.7019 3.27924C13.8074 2.90529 14.0087 2.35875 14.143 2.08069C14.2772 1.81221 14.5745 1.35197 14.795 1.06431Z" fill="#0033D9"/>
<path d="M26.7422 12.4649L27.0586 12.3211C27.2791 12.2156 27.6051 12.1773 28.2284 12.2061C28.9571 12.2252 29.1872 12.2828 29.7146 12.5225C30.0598 12.6855 32.2363 14.095 34.5567 15.6483C36.8771 17.2016 39.4468 18.8796 40.2618 19.3782C41.0768 19.8768 42.074 20.5288 42.4672 20.826C42.8603 21.1233 43.4835 21.6411 43.8479 21.9766C44.2123 22.3027 44.7588 22.878 45.056 23.2519C45.3629 23.6259 45.8135 24.2491 46.0724 24.6422C46.3217 25.0354 46.7148 25.7545 46.9354 26.2243C47.1655 26.6941 47.4531 27.4325 47.597 27.8543C47.7312 28.2762 47.9517 29.1392 48.086 29.772C48.2873 30.7213 48.3449 31.2774 48.3832 32.9841C48.4216 34.2978 48.3928 35.3908 48.3257 36.0045C48.2586 36.5319 48.1435 37.2893 48.0668 37.6825C47.9901 38.0756 47.7696 38.8523 47.5874 39.4084C47.4052 39.9645 47.0792 40.7412 46.8682 41.1343C46.6477 41.5274 46.2642 42.1315 46.0149 42.4767C45.756 42.8219 45.2574 43.3876 44.893 43.7328C44.5383 44.0779 43.9821 44.5382 43.6657 44.7491C43.3493 44.9601 42.7932 45.2861 42.4192 45.4683C42.0453 45.66 41.3261 45.9477 40.818 46.1107C40.3002 46.2737 39.5235 46.4846 39.092 46.5709C38.3729 46.7148 36.973 46.7339 23.9136 46.7627C11.3048 46.7915 9.47343 46.7723 9.03236 46.6476C8.72553 46.5613 8.37076 46.36 8.12146 46.149C7.91052 45.9477 7.65163 45.6121 7.55575 45.4011C7.45027 45.171 7.37356 44.7875 7.37356 44.4423C7.37356 44.1259 7.42151 43.704 7.46945 43.5122C7.52698 43.3109 7.74751 42.9465 7.97764 42.7068C8.23652 42.4287 8.57212 42.1986 8.90771 42.0644C9.43507 41.8534 9.46384 41.8534 20.1741 41.9301L20.5289 41.6041C20.8069 41.3548 20.8836 41.2014 20.8932 40.9425C20.8932 40.7028 20.8261 40.5398 20.3659 40.0796L4.4491 40.0316L3.92174 39.8207C3.63408 39.696 3.22178 39.4659 3.02042 39.2933C2.80948 39.1207 2.541 38.766 2.41635 38.4975C2.27253 38.1811 2.19582 37.8359 2.19582 37.4907C2.19582 37.0976 2.26294 36.8291 2.45471 36.4456C2.6273 36.11 2.86701 35.8319 3.10672 35.6689C3.31767 35.5251 3.71079 35.3237 3.96968 35.2278C4.42033 35.0552 4.91893 35.0457 18.3235 34.9498L18.5537 34.6909C18.6783 34.5375 18.7838 34.3169 18.7838 34.1827C18.7838 34.0485 18.6591 33.7992 18.2276 33.3197L2.72318 33.2239L2.14788 32.9937C1.8027 32.8499 1.39039 32.5814 1.12192 32.3225C0.776736 31.9774 0.642498 31.7472 0.517849 31.3062C0.383611 30.8363 0.364434 30.6446 0.460318 30.2514C0.517849 29.9926 0.69044 29.5898 0.853443 29.3693C1.00686 29.1488 1.32328 28.8611 1.54381 28.7269C1.77393 28.5927 2.14788 28.4105 2.38759 28.3242C2.78071 28.1708 3.44231 28.1516 10.3939 28.1516L10.4212 28.1516C17.7966 28.142 17.9787 28.1418 18.2756 27.9502C18.4482 27.8448 18.6304 27.6626 18.6879 27.5475C18.7358 27.4229 18.7838 27.2407 18.7838 27.1352C18.7838 27.0297 18.6783 26.8092 18.3044 26.3681L12.1486 26.3394C6.33802 26.3202 5.95448 26.301 5.50382 26.1284C5.22576 26.023 4.84222 25.7641 4.59292 25.5148C4.34363 25.2559 4.10392 24.9107 4.0368 24.6902C3.97927 24.4792 3.92174 24.1149 3.92174 23.8752C3.92174 23.6354 3.97927 23.2711 4.04639 23.0697C4.10392 22.8684 4.31486 22.5232 4.49704 22.3218C4.67922 22.1109 5.07235 21.8232 5.36 21.6794C5.84901 21.4493 5.99283 21.4301 8.81183 21.3822L9.36796 21.8616C9.6652 22.1301 10.2405 22.5136 10.6336 22.715C11.0268 22.9259 11.6308 23.1848 11.976 23.2903C12.3212 23.4053 13.0691 23.5971 13.654 23.7313C14.2389 23.856 15.1018 24.0286 15.5717 24.1149C16.0415 24.2012 16.9716 24.2683 17.6332 24.2683C18.5153 24.2779 19.0523 24.2299 19.6467 24.0861C20.0974 23.9806 20.7015 23.7984 20.9891 23.693C21.2768 23.5875 21.8617 23.2903 22.2836 23.041C22.7054 22.7917 23.3766 22.3122 24.4889 21.3726L27.6243 21.4013C29.6187 21.4205 30.7981 21.3918 30.8652 21.3342C30.9227 21.2767 30.9611 21.1712 30.9419 21.0849C30.9227 20.9986 29.9543 20.2124 28.7845 19.3398C27.5955 18.4481 26.6655 17.681 26.6846 17.6235C26.7038 17.5564 26.7805 17.24 26.8476 16.9236C26.9243 16.5592 26.9723 15.7921 26.9627 14.862C26.9627 14.047 26.9052 13.1745 26.7422 12.4649Z" fill="#0033D9"/>
</svg>
