<svg width="42" height="49" viewBox="0 0 42 49" fill="none" xmlns="http://www.w3.org/2000/svg">
<path fill-rule="evenodd" clip-rule="evenodd" d="M22.4577 0.192442C22.1543 0.0438076 21.9311 0.0175781 20.9226 0.0175781H20.9137C19.932 0.0263213 19.6731 0.0525508 19.3876 0.192442C19.1912 0.288616 18.9592 0.472223 18.8699 0.60337C18.7717 0.743261 18.6557 0.98807 18.6111 1.15419C18.5218 1.45146 18.504 1.46894 17.79 1.61758C17.3884 1.70501 16.6387 1.91485 16.1211 2.08097C15.6034 2.25583 14.8805 2.52687 14.5146 2.69299C14.1487 2.85911 13.5418 3.18261 13.1758 3.40118C12.8099 3.62851 12.1852 4.04818 11.7925 4.34545C11.3998 4.64271 10.7929 5.18479 10.4538 5.54326C10.1057 5.90173 9.59698 6.51375 9.32031 6.88971C9.04364 7.26567 8.6331 7.91266 8.40998 8.32359C8.18686 8.73452 7.87449 9.42523 7.70491 9.85364C7.53534 10.2821 7.3033 10.9553 7.1962 11.34C7.0891 11.7247 6.90168 12.5116 6.79458 13.0886C6.61608 14.0416 6.56253 14.1903 6.17876 14.7498C5.94672 15.0821 5.64327 15.6591 5.5094 16.0176C5.3666 16.376 5.19703 16.9094 5.13456 17.1979C5.07208 17.4864 5.02746 18.1334 5.02746 18.6405C5.02746 19.1476 5.08101 19.7946 5.14348 20.0832C5.19703 20.3717 5.3666 20.905 5.5094 21.2635C5.64327 21.622 5.91994 22.1553 6.10736 22.4438C6.29479 22.7323 6.68748 23.2219 6.982 23.5367C7.50857 24.0875 7.53534 24.1487 7.99051 25.5039C8.24933 26.2733 8.65987 27.375 8.90977 27.952C9.15074 28.5291 9.68623 29.6307 10.0789 30.4001C10.4805 31.1695 11.2392 32.4285 11.7568 33.1979C12.2744 33.9673 13.0688 35.0252 13.515 35.5586C13.9612 36.0919 14.6038 36.8176 14.9519 37.176L15.5766 37.8318L15.5856 42.5094L26.8755 42.4657L26.9201 37.7881C28.1161 36.5378 28.7854 35.7597 29.187 35.2525C29.5887 34.7454 30.0974 34.081 30.3116 33.7662C30.5258 33.4515 30.731 33.1804 30.7578 33.1542C30.7935 33.128 31.0702 32.6995 31.3826 32.1924C31.6949 31.6853 32.159 30.881 32.4089 30.4001C32.6588 29.9192 32.9533 29.3072 33.0694 29.0449C33.1854 28.7826 33.4531 28.1531 33.6584 27.646C33.8726 27.1389 34.2385 26.1334 34.4706 25.4165L34.4797 25.3888C34.899 24.1136 34.9033 24.1003 35.5148 23.4493C35.8539 23.0908 36.2734 22.54 36.4519 22.2252C36.6304 21.9105 36.8892 21.3422 37.032 20.9575C37.1659 20.5728 37.3265 19.8821 37.389 19.4274C37.4604 18.7979 37.4604 18.4045 37.3801 17.8099C37.3265 17.3815 37.1837 16.7433 37.0677 16.411C36.9517 16.0788 36.7642 15.6241 36.6482 15.4056C36.5411 15.187 36.3091 14.8285 36.1484 14.5924C35.9075 14.2602 35.8182 14.0241 35.7111 13.3771C35.6308 12.9312 35.4612 12.1706 35.3363 11.6897C35.2113 11.2088 34.9793 10.4832 34.8186 10.0722C34.658 9.66129 34.3545 8.99681 34.1493 8.58588C33.944 8.17496 33.5245 7.48424 33.23 7.05583C32.9266 6.61867 32.2483 5.84053 31.6949 5.29845C31.0613 4.67769 30.4008 4.12687 29.8207 3.75091C29.3298 3.43616 28.5088 2.98151 27.9911 2.74545C27.4735 2.50064 26.6613 2.18588 26.1794 2.03725C25.7064 1.88862 24.8763 1.67878 24.3319 1.57386C23.3948 1.38151 23.3502 1.36403 23.252 1.11047C23.1985 0.970584 23.0824 0.743261 22.9843 0.612114C22.895 0.472223 22.654 0.288616 22.4577 0.192442ZM9.65052 12.3192C9.98967 12.1793 10.5162 12.0132 10.8108 11.952C11.1053 11.882 11.7479 11.8296 12.2387 11.8296C12.8635 11.8208 13.3454 11.8733 13.8452 11.9957C14.2379 12.0919 14.8805 12.3279 15.2732 12.5115C15.6659 12.6951 16.246 13.0361 16.5584 13.2722C16.8797 13.5082 17.3527 13.9542 17.6115 14.2689C17.8792 14.5837 18.2452 15.1345 18.4326 15.4929C18.6289 15.8514 18.8788 16.446 18.9948 16.8044C19.1644 17.364 19.2001 17.6438 19.2001 18.6842C19.1912 19.8383 19.1823 19.9607 18.9056 20.7388C18.745 21.1935 18.4237 21.8667 18.2005 22.2252C17.9685 22.5924 17.4687 23.1869 17.0582 23.5804C16.487 24.1312 16.1478 24.3673 15.4874 24.6995C15.0233 24.9268 14.3896 25.1804 14.0683 25.2591C13.6489 25.3727 13.1401 25.4164 12.2387 25.4164C11.2927 25.4164 10.8554 25.3815 10.4538 25.2591C10.1592 25.1716 9.713 25.023 9.47203 24.9181C9.23106 24.8219 8.76696 24.5684 8.44567 24.3673C8.12437 24.1662 7.55318 23.6678 7.16049 23.2656C6.63392 22.7148 6.36618 22.3301 6.07166 21.7443C5.85746 21.3159 5.59864 20.6427 5.50046 20.258C5.37552 19.7858 5.32197 19.2787 5.32197 18.6842C5.32197 18.2033 5.37552 17.5563 5.44692 17.2416C5.50939 16.9268 5.67004 16.4197 5.80391 16.105C5.92886 15.7902 6.16983 15.3268 6.33048 15.0645C6.4822 14.811 6.87489 14.3214 7.19619 13.9891C7.51748 13.6481 8.0619 13.1935 8.40104 12.9749C8.74019 12.7476 9.31138 12.4591 9.65052 12.3192ZM27.8126 12.2143C28.0357 12.1356 28.4552 12.0132 28.7497 11.9432C29.1156 11.8645 29.6422 11.8296 30.4008 11.8558C31.2219 11.882 31.6771 11.9432 32.1412 12.0831C32.4892 12.188 32.9622 12.3804 33.2121 12.5028C33.4531 12.6164 33.8815 12.87 34.1493 13.0449C34.417 13.2285 34.9168 13.6656 35.2649 14.0241C35.6129 14.3826 36.0235 14.8897 36.1841 15.152C36.3358 15.4143 36.5947 15.9826 36.7553 16.411C36.9874 17.0842 37.0409 17.3552 37.0766 18.2908C37.1034 18.9815 37.0766 19.5935 37.0141 19.952C36.9517 20.2667 36.7821 20.8175 36.6393 21.176C36.4965 21.5345 36.2287 22.0678 36.0324 22.3563C35.8361 22.6449 35.4255 23.1345 35.1131 23.4317C34.8008 23.7378 34.3099 24.1487 34.0154 24.3498C33.7209 24.5509 33.2032 24.8219 32.8551 24.9531C32.5071 25.0929 31.9091 25.2678 31.5164 25.3465C31.0077 25.4427 30.5258 25.4689 29.8207 25.4339C29.2763 25.4077 28.598 25.329 28.3035 25.2503C28.009 25.1716 27.4913 24.9705 27.1432 24.8044C26.7952 24.6383 26.2418 24.2886 25.8938 24.035C25.5457 23.7815 25.0548 23.3181 24.796 23.0033C24.5372 22.6973 24.1534 22.0853 23.9392 21.6569C23.7161 21.2285 23.4841 20.6164 23.4037 20.3017C23.3323 19.9869 23.2342 19.4623 23.2074 19.1214C23.1717 18.7629 23.1895 18.1946 23.2609 17.7662C23.3145 17.3552 23.4841 16.7082 23.6269 16.3235C23.7696 15.9388 24.0463 15.3705 24.2516 15.0558C24.4569 14.741 24.7692 14.3214 24.9477 14.1115C25.1262 13.9017 25.4921 13.5695 25.7599 13.3596C26.0276 13.1498 26.5096 12.835 26.8309 12.6689C27.1522 12.494 27.5895 12.2929 27.8126 12.2143ZM20.1819 25.635C19.9855 25.6787 19.5839 25.7924 19.2894 25.8886C18.9948 25.9935 18.5308 26.2033 18.263 26.3607C17.9953 26.5093 17.5133 26.9028 17.192 27.2175C16.8172 27.5848 16.478 28.0394 16.2371 28.4853C16.0318 28.8613 15.7997 29.4296 15.7283 29.7443C15.648 30.0591 15.5856 30.6536 15.5856 31.082C15.5856 31.5017 15.6302 32.0525 15.6837 32.3061C15.7373 32.5509 15.9158 33.0317 16.0764 33.3727C16.2281 33.7137 16.5494 34.2296 16.7815 34.5356C17.0046 34.8328 17.4419 35.2613 17.7454 35.4798C18.0577 35.7072 18.5486 36.0044 18.8431 36.1356C19.1376 36.2755 19.6553 36.4503 20.0034 36.5203C20.3514 36.5902 20.9048 36.6514 21.2528 36.6514C21.6009 36.6514 22.1899 36.5727 22.5916 36.4766C22.9843 36.3716 23.5644 36.1531 23.8857 35.9869C24.207 35.8208 24.6978 35.4798 24.9924 35.2263C25.2779 34.9815 25.7153 34.4744 25.9562 34.1159C26.2151 33.7312 26.4917 33.1716 26.6256 32.7607C26.813 32.1837 26.8487 31.8864 26.8487 31.0995C26.8487 30.3563 26.8041 29.9979 26.6524 29.5257C26.5453 29.1848 26.3132 28.6602 26.1347 28.3454C25.9384 27.9957 25.5368 27.5148 25.0816 27.0776C24.4926 26.5093 24.2248 26.3257 23.6715 26.0984C23.2966 25.941 22.7611 25.7487 22.4755 25.6787C22.1989 25.6088 21.6455 25.5476 21.2528 25.5563C20.8601 25.5651 20.3782 25.6001 20.1819 25.635Z" fill="#0033D9"/>
<path d="M9.23879 29.6101C9.03123 29.202 8.87918 28.9031 8.86514 28.8963C8.85622 28.8875 8.60632 29.0274 8.3118 29.1935C8.02621 29.3597 7.77631 29.517 7.75846 29.5345C7.74954 29.552 8.33858 30.5837 9.07042 31.8165C9.80226 33.058 10.427 34.1422 10.4538 34.2209C10.4805 34.3083 10.5698 34.3782 10.6412 34.3782C10.7126 34.3782 10.9625 34.2733 11.1856 34.1334C11.4177 34.0023 11.614 33.8711 11.6319 33.8274C11.6497 33.7924 11.5158 33.5389 11.3195 33.2591C11.1321 32.9881 10.7483 32.3673 10.4627 31.8864C10.1771 31.4056 9.71301 30.54 9.41849 29.9629C9.3556 29.8397 9.29515 29.7209 9.23879 29.6101Z" fill="#0033D9"/>
<path d="M33.9529 29.1323C33.703 28.9924 33.462 28.87 33.4263 28.87C33.3906 28.87 33.1854 29.1935 32.9712 29.587C32.7481 29.9892 32.4446 30.5662 32.284 30.881C32.1233 31.1957 31.7663 31.799 31.4986 32.2362C31.2308 32.6646 30.9185 33.1892 30.8024 33.3903C30.6864 33.6001 30.5972 33.7837 30.6061 33.8012C30.6239 33.8187 30.856 33.9586 31.1237 34.1159C31.3915 34.2733 31.6235 34.3607 31.6325 34.3258C31.6503 34.2821 31.7931 34.046 31.9537 33.8099C32.1144 33.5651 32.5696 32.8219 32.9623 32.1487C33.355 31.4755 33.8458 30.6187 34.0511 30.2427C34.2564 29.8755 34.4259 29.5258 34.4259 29.4821C34.4259 29.4296 34.2117 29.281 33.9529 29.1323Z" fill="#0033D9"/>
<path d="M39.7541 29.7968C38.5671 29.1323 38.0048 28.87 37.7906 28.87C37.6389 28.87 37.3979 28.94 37.264 29.0274C37.1302 29.1061 36.8713 29.4296 36.6928 29.7444C36.5054 30.0591 36.2377 30.4875 36.0949 30.7061C35.9521 30.9247 35.372 31.8777 34.8186 32.8219C34.2564 33.775 33.8012 34.5706 33.8012 34.5968C33.8012 34.623 33.5156 35.1214 33.1765 35.7072C32.8105 36.3367 32.5517 36.8875 32.5517 37.0187C32.5517 37.1586 32.6142 37.3684 32.6856 37.4995C32.7659 37.6394 32.9176 37.8056 33.0247 37.8668C33.1318 37.9367 33.944 38.4001 34.8276 38.8985C36.1752 39.6504 36.4965 39.799 36.8089 39.799C37.1034 39.799 37.2551 39.7465 37.4515 39.5542C37.5943 39.423 38.3439 38.234 39.1204 36.9138C39.8969 35.5935 40.8697 33.9148 41.2802 33.1979C41.9764 31.9913 42.0388 31.8602 41.9853 31.5367C41.9496 31.3181 41.8336 31.0995 41.6818 30.9597C41.548 30.8372 40.6823 30.3127 39.7541 29.7968Z" fill="#0033D9"/>
<path d="M4.67046 29.2373C4.54551 29.1848 4.33132 29.1323 4.19745 29.1323H4.18852C4.05465 29.1323 3.8226 29.1935 3.6798 29.2722C3.56472 29.3253 3.10047 29.5846 2.54021 29.8975C2.36184 29.9971 2.17374 30.1022 1.98408 30.2077C1.19869 30.6449 0.440081 31.1083 0.306208 31.2307C0.118786 31.3881 0.0384622 31.5542 0.0116876 31.8427C-0.0329367 32.2099 0.0206125 32.3236 0.707826 33.5039C0.970925 33.9522 1.46494 34.7918 1.99022 35.6846C2.28459 36.1849 2.58878 36.7019 2.86764 37.176C3.6441 38.4963 4.39379 39.6853 4.53659 39.8165C4.73294 40.0088 4.88466 40.0613 5.17025 40.0613C5.49155 40.0613 5.81284 39.9127 7.1605 39.1607C8.04406 38.6624 8.85622 38.199 8.96332 38.1291C9.07042 38.0591 9.22214 37.9017 9.30246 37.7618C9.37386 37.6307 9.43634 37.4209 9.43634 37.281C9.43634 37.1323 8.96332 36.223 8.13331 34.8154C7.41039 33.5913 6.45543 31.9564 6.00919 31.187C5.72378 30.7045 5.44539 30.2393 5.25984 29.9292C5.14947 29.7447 5.07194 29.6151 5.04531 29.5695C4.96498 29.4471 4.79541 29.2985 4.67046 29.2373Z" fill="#0033D9"/>
<path d="M35.9253 29.5258C35.8182 29.4034 35.604 29.2897 35.4612 29.2635C35.3095 29.2373 35.0953 29.2722 34.9703 29.3422C34.8365 29.4121 34.3813 30.0679 33.7923 31.0209C33.2746 31.8864 32.5963 33.0405 32.284 33.5913C31.8823 34.317 31.7306 34.6842 31.7306 34.9028C31.7395 35.1127 31.811 35.27 31.9716 35.4012C32.1055 35.5148 32.3197 35.6023 32.4714 35.6023C32.6142 35.6023 32.8105 35.576 32.8909 35.5323C32.9712 35.4974 33.2032 35.2176 33.4085 34.9028C33.6227 34.5881 34.2117 33.6263 34.7205 32.7607C35.2381 31.8952 35.7647 30.9771 35.8896 30.7236C36.0235 30.4788 36.1306 30.1465 36.1306 30.0066C36.1306 29.858 36.0413 29.6482 35.9253 29.5258Z" fill="#0033D9"/>
<path d="M7.27652 29.5433C7.16942 29.4558 6.9463 29.3859 6.78565 29.3946C6.57146 29.3946 6.41081 29.4733 6.21446 29.6744C5.98242 29.9105 5.94672 30.0154 5.98242 30.2252C6.01812 30.3651 6.62501 31.493 7.34792 32.717C8.07083 33.9411 8.75805 35.0952 8.87407 35.27C8.99009 35.4536 9.19536 35.646 9.32924 35.6897C9.47203 35.7422 9.67731 35.7684 9.80225 35.7422C9.9272 35.7159 10.0968 35.6198 10.1771 35.5411C10.2663 35.4536 10.3556 35.2438 10.3913 35.0777C10.4359 34.8066 10.3467 34.6143 9.64161 33.4165C9.20429 32.6733 8.53492 31.528 8.16008 30.881C7.77631 30.234 7.38362 29.6307 7.27652 29.5433Z" fill="#0033D9"/>
<path d="M26.8934 42.8154L15.6034 42.7717V44.6252C15.6034 46.234 15.6302 46.5312 15.773 46.8372C15.8622 47.0296 16.0854 47.3181 16.2817 47.4842C16.4691 47.6504 16.7636 47.834 16.9154 47.9039C17.1474 47.9913 18.0934 48.0176 21.2439 48.0176H25.2869C26.0812 47.6241 26.3579 47.4056 26.5096 47.187C26.6524 46.9946 26.8041 46.6362 26.8577 46.4001C26.9112 46.1553 26.938 45.2635 26.9201 44.3892L26.8934 42.8154Z" fill="#0033D9"/>
<path d="M9.78444 13.8056C10.1504 13.622 10.7126 13.4209 11.0339 13.3597C11.3552 13.2897 11.8818 13.2285 12.212 13.2285C12.5511 13.2198 13.1134 13.281 13.4615 13.3597C13.8185 13.4384 14.3986 13.6307 14.7377 13.7881C15.0947 13.9542 15.6124 14.3039 15.9426 14.5925C16.2639 14.881 16.6923 15.3706 16.8975 15.6766C17.1028 15.9826 17.3795 16.5509 17.5134 16.9356C17.7276 17.5477 17.7633 17.7662 17.7633 18.6406C17.7633 19.4886 17.7186 19.7509 17.5223 20.3455C17.3884 20.7302 17.1296 21.281 16.9332 21.5695C16.7458 21.858 16.3264 22.3302 16.014 22.6187C15.6838 22.9247 15.1572 23.2832 14.7734 23.4668C14.4075 23.6417 13.872 23.8515 13.5775 23.9214C13.283 24.0001 12.7029 24.0613 12.2834 24.0613C11.8639 24.0613 11.2838 24.0001 10.9893 23.9302C10.6948 23.8515 10.195 23.6679 9.87369 23.528C9.55239 23.3794 9.07045 23.0821 8.8027 22.8723C8.53496 22.6624 8.18689 22.3389 8.03517 22.1641C7.88344 21.9804 7.6157 21.5783 7.4372 21.2635C7.2587 20.9488 7.02666 20.3804 6.91956 19.9958C6.75891 19.41 6.73214 19.1477 6.77676 18.3783C6.80354 17.7225 6.88386 17.2941 7.03558 16.8919C7.15161 16.5772 7.38365 16.0963 7.55322 15.8165C7.7228 15.528 8.15119 15.0384 8.49033 14.7149C8.89195 14.3389 9.34712 14.0154 9.78444 13.8056Z" fill="#0033D9"/>
<path d="M28.125 13.5958C28.3214 13.5258 28.723 13.4121 29.0175 13.3509C29.312 13.2897 29.8118 13.2285 30.1331 13.2285C30.4544 13.2285 30.9899 13.281 31.338 13.3509C31.686 13.4209 32.2394 13.6132 32.5874 13.7794C32.9355 13.9367 33.4532 14.2602 33.7387 14.4963C34.0333 14.7324 34.4438 15.1608 34.6491 15.4493C34.8544 15.7378 35.1489 16.2712 35.3006 16.6296C35.4434 16.9881 35.604 17.5214 35.6487 17.81C35.7022 18.0985 35.7201 18.5881 35.7022 18.9029C35.6844 19.2176 35.6219 19.6723 35.5594 19.9083C35.5059 20.1531 35.3631 20.5641 35.2381 20.8264C35.1221 21.0886 34.8633 21.5345 34.6759 21.8143C34.4795 22.0854 34.0779 22.5138 33.7655 22.7673C33.4621 23.0121 32.8909 23.3619 32.4982 23.5455C32.1055 23.7203 31.57 23.9127 31.3112 23.9651C31.0613 24.0176 30.5347 24.0613 30.151 24.0613C29.7761 24.0613 29.2852 24.0176 29.0621 23.9739C28.839 23.9214 28.3928 23.7815 28.0536 23.6417C27.7234 23.5105 27.4557 23.3794 27.4557 23.3444C27.4557 23.3007 27.42 23.2744 27.3664 23.2744C27.3129 23.2744 27.1254 23.1695 26.938 23.0384C26.7595 22.9072 26.3757 22.5575 26.0901 22.269C25.7778 21.9542 25.4386 21.4733 25.2155 21.0449C24.9567 20.5378 24.8139 20.1182 24.7157 19.5149C24.5818 18.7717 24.5818 18.5968 24.7068 17.8537C24.7871 17.3116 24.9388 16.8045 25.1263 16.4111C25.2869 16.0788 25.5904 15.5805 25.7956 15.3182C26.0098 15.0559 26.3579 14.6974 26.5721 14.5225C26.7863 14.3477 27.1433 14.0941 27.3664 13.963C27.5895 13.8318 27.9287 13.6657 28.125 13.5958Z" fill="#0033D9"/>
<path fill-rule="evenodd" clip-rule="evenodd" d="M20.048 26.9116C19.7803 26.9815 19.3162 27.1739 19.0217 27.34C18.7271 27.4974 18.2987 27.8209 18.0756 28.057C17.8525 28.2843 17.5848 28.599 17.4777 28.7389C17.3795 28.8788 17.1921 29.2548 17.076 29.5695C16.9511 29.8843 16.8261 30.3914 16.7904 30.7061C16.7547 31.0996 16.7726 31.4843 16.8708 31.9302C16.9511 32.2886 17.1385 32.8395 17.2992 33.1455C17.4777 33.4777 17.8079 33.8974 18.1292 34.2034C18.4237 34.4744 18.861 34.7979 19.1109 34.9203C19.3519 35.0427 19.7803 35.2089 20.048 35.2876C20.3158 35.3662 20.8423 35.4274 21.2083 35.4274C21.5742 35.4274 22.0383 35.3837 22.2346 35.34C22.431 35.2876 22.7523 35.1826 22.9486 35.1039C23.1449 35.0253 23.5466 34.7979 23.8411 34.5968C24.1356 34.3958 24.5194 34.0373 24.6979 33.8012C24.8764 33.5651 25.1084 33.2154 25.2066 33.0231C25.3048 32.8307 25.4476 32.4373 25.5279 32.1488C25.6082 31.8602 25.6707 31.3881 25.6707 31.0996C25.6707 30.8111 25.6082 30.3477 25.5368 30.0766C25.4654 29.7968 25.3048 29.3859 25.1887 29.1586C25.0727 28.9225 24.8228 28.5466 24.6265 28.3018C24.4391 28.0657 24.0553 27.7247 23.7875 27.5411C23.5198 27.3662 22.9932 27.1214 22.6095 26.999C22.0918 26.8242 21.7527 26.7717 21.2261 26.7804C20.8513 26.7804 20.3158 26.8417 20.048 26.9116ZM20.405 27.3925C20.1819 27.4362 19.7892 27.5673 19.5303 27.6897C19.2804 27.8121 18.861 28.0919 18.6111 28.3192C18.3612 28.5553 18.0488 28.9138 17.9239 29.1324C17.7989 29.3509 17.6204 29.7531 17.5312 30.0242C17.4419 30.3039 17.3705 30.7848 17.3705 31.0996C17.3705 31.4143 17.4419 31.8952 17.5312 32.1662C17.6204 32.446 17.7989 32.8482 17.9239 33.0668C18.0488 33.2854 18.3612 33.6438 18.6111 33.8712C18.861 34.1072 19.2804 34.387 19.5393 34.5094C19.7892 34.6318 20.2622 34.7717 20.5835 34.8242C21.0208 34.9029 21.3153 34.9029 21.7883 34.8242C22.1364 34.7717 22.6273 34.6318 22.8861 34.5094C23.136 34.387 23.5733 34.081 23.85 33.8274C24.1177 33.5826 24.439 33.2154 24.555 33.0231C24.6621 32.8307 24.8228 32.4548 24.9031 32.1925C24.9834 31.9302 25.0459 31.4231 25.0459 31.0733C25.0459 30.6799 24.9834 30.2515 24.8674 29.9192C24.7692 29.6307 24.5907 29.246 24.4747 29.0624C24.3587 28.8876 24.0909 28.5728 23.8767 28.363C23.6625 28.1619 23.3056 27.8996 23.0824 27.7859C22.8593 27.6635 22.4398 27.5061 22.1453 27.4362C21.8508 27.3575 21.4313 27.2963 21.2082 27.305C20.9851 27.3138 20.6281 27.3488 20.405 27.3925Z" fill="#0033D9"/>
</svg>
