<svg width="45" height="44" viewBox="0 0 45 44" fill="none" xmlns="http://www.w3.org/2000/svg">
<path d="M6.14769 0.0836479C6.03541 0.123573 5.8874 0.208413 5.82105 0.27329C5.7547 0.333177 5.65773 0.472914 5.60669 0.582707C5.53013 0.742406 5.50972 0.907095 5.50972 1.44608V2.10484C5.23412 2.20465 5.20349 2.18469 4.76967 1.76049C4.51449 1.51595 4.23378 1.28139 4.14191 1.23647C4.05515 1.19156 3.86631 1.15662 3.7234 1.15662C3.57029 1.15662 3.38655 1.19655 3.26406 1.25644C3.15178 1.31133 2.99867 1.44109 2.91701 1.5409C2.82003 1.67066 2.7741 1.80041 2.75879 1.97508C2.74858 2.11482 2.769 2.31943 2.80983 2.42922C2.85576 2.57395 3.01398 2.76359 3.36103 3.08798C3.82548 3.52715 3.84589 3.5571 3.79996 3.68685L3.74892 3.82659C2.43725 3.87151 2.2331 3.89646 2.1004 3.96633C2.01364 4.01124 1.88094 4.12602 1.81459 4.21586C1.74824 4.3007 1.66148 4.46538 1.62575 4.57518C1.57471 4.73488 1.57471 4.81972 1.62575 4.99938C1.66148 5.12414 1.74824 5.29881 1.81459 5.38864C1.88094 5.47348 2.01364 5.58827 2.1004 5.63318C2.2331 5.70305 2.43725 5.728 3.00887 5.74797L3.74892 5.77292C3.84589 6.04241 3.82548 6.07235 3.35083 6.53648C3.02418 6.85089 2.83024 7.08045 2.79452 7.19524C2.76389 7.29006 2.74858 7.48469 2.75879 7.62443C2.7741 7.7991 2.82003 7.92885 2.91701 8.05861C2.99867 8.15842 3.15178 8.28818 3.26406 8.34307C3.38655 8.40296 3.57029 8.44288 3.7234 8.44288C3.8612 8.44288 4.05515 8.40795 4.14191 8.36303C4.23378 8.31812 4.51449 8.08356 4.76967 7.83902C5.20349 7.41482 5.23412 7.39486 5.36681 7.44477L5.50972 7.49467C5.50972 8.68742 5.53013 8.8571 5.60669 9.0168C5.65263 9.12659 5.77001 9.27631 5.85678 9.35616C5.94864 9.43102 6.10686 9.51087 6.20894 9.54081C6.31612 9.56577 6.43861 9.59072 6.47944 9.59072C6.52027 9.59072 6.64276 9.56577 6.74483 9.54081C6.85201 9.51087 7.02044 9.41605 7.12761 9.33121C7.22969 9.24138 7.34197 9.09166 7.3828 9.00682C7.42874 8.89703 7.44915 8.62255 7.44915 8.18337C7.44405 7.52462 7.44915 7.51963 7.57675 7.45974C7.65841 7.41981 7.74007 7.40983 7.7911 7.43978C7.84214 7.46473 8.04119 7.64938 8.23003 7.849C8.42397 8.05362 8.66385 8.26821 8.76592 8.3281C8.90373 8.41294 9.03642 8.44288 9.24568 8.44288C9.409 8.44288 9.60294 8.41294 9.6795 8.37302C9.76116 8.33808 9.89896 8.2233 9.98572 8.12349C10.0776 8.02367 10.1797 7.849 10.2103 7.73422C10.2511 7.57452 10.246 7.45475 10.2001 7.2701C10.1439 7.0555 10.0674 6.9507 9.63356 6.52151C9.1436 6.03243 9.1334 6.01746 9.19464 5.88271L9.26099 5.74298C10.3991 5.74797 10.6645 5.728 10.7768 5.6781C10.8687 5.64316 11.0167 5.53337 11.1034 5.44354C11.1902 5.34872 11.2872 5.19401 11.3229 5.09919C11.3535 5.00437 11.3791 4.85964 11.3791 4.7748C11.3791 4.69495 11.3331 4.53525 11.2821 4.42546C11.231 4.31567 11.1239 4.16595 11.0422 4.09109C10.9605 4.01623 10.833 3.93139 10.7513 3.90644C10.6747 3.8765 10.3022 3.85154 9.92448 3.85154H9.23547C9.1334 3.58205 9.15891 3.55211 9.63356 3.078C9.99083 2.71868 10.149 2.52405 10.195 2.37932C10.2256 2.26953 10.2562 2.14476 10.2562 2.10484C10.2562 2.06491 10.2307 1.94514 10.2052 1.84533C10.1746 1.74052 10.0776 1.57583 9.98572 1.47602C9.89896 1.37621 9.76116 1.26143 9.6795 1.22649C9.60294 1.18657 9.409 1.15662 9.24568 1.15662C9.08746 1.16162 8.89862 1.19156 8.82717 1.23148C8.75572 1.26642 8.49032 1.50597 8.24024 1.7555C7.80131 2.19467 7.77579 2.21463 7.62778 2.16971L7.47467 2.11981C7.43384 0.966982 7.39811 0.587697 7.36749 0.532801C7.33687 0.477904 7.22459 0.35813 7.12251 0.27329C7.02044 0.18346 6.85201 0.0886385 6.74483 0.058695C6.64276 0.033742 6.51006 0.00878906 6.45392 0.00878906C6.39778 0.0137797 6.25997 0.0437232 6.14769 0.0836479Z" fill="#0033D9"/>
<path fill-rule="evenodd" clip-rule="evenodd" d="M29.625 1.0119C29.5434 1.03685 29.3954 1.1167 29.3035 1.18158C29.2167 1.25145 29.1044 1.3812 29.0534 1.47103C29.0075 1.55587 28.9666 1.7555 28.9666 1.90521C28.9615 2.09985 28.9922 2.2296 29.0687 2.35437C29.1249 2.44919 29.5995 3.01811 30.1252 3.61699C30.6509 4.21586 31.0949 4.75983 31.1102 4.83968C31.1306 4.91454 31.1153 5.05427 31.0796 5.1491C31.0439 5.24392 30.9061 5.45851 30.7734 5.6232C30.6407 5.78789 30.4723 6.03742 30.4059 6.17217C30.3344 6.3119 30.2477 6.54147 30.2171 6.6862C30.1864 6.82593 30.1609 7.08045 30.1609 7.24514V7.54458C29.8649 7.58949 29.5944 7.64938 29.3698 7.70428C29.1453 7.75917 28.788 7.86897 28.5788 7.94882C28.3695 8.03366 28.048 8.17838 27.8642 8.27819C27.6805 8.37801 27.3794 8.56765 27.1854 8.6974C26.9966 8.83215 26.8384 8.93695 26.8282 8.93196L26.8281 8.93188L26.8281 8.93178C26.8223 8.92048 26.7563 8.79136 26.6853 8.64251C26.6087 8.49279 26.4403 8.2233 26.3025 8.04863C26.1647 7.86897 25.9146 7.61944 25.7462 7.48469C25.5777 7.35494 25.2817 7.1603 25.0878 7.06049C24.8938 6.95569 24.6489 6.77104 24.5366 6.64627C24.4141 6.50654 24.3069 6.31689 24.2559 6.14721C24.1946 5.9426 24.1844 5.75296 24.2048 5.42358C24.2201 5.17904 24.2916 4.71491 24.3681 4.40051C24.4396 4.0861 24.4957 3.72678 24.4957 3.60201C24.4957 3.46228 24.4498 3.30258 24.3784 3.17781C24.3171 3.07301 24.1742 2.9183 24.0619 2.83845C23.8935 2.72367 23.8016 2.69872 23.5515 2.69373C23.3678 2.68874 23.1841 2.71868 23.0922 2.76359C23.0105 2.80851 22.8676 2.9183 22.7809 3.00813C22.6992 3.10295 22.6124 3.22273 22.592 3.27762C22.5767 3.33252 22.4797 3.78167 22.3777 4.27574C22.2501 4.90955 22.199 5.30879 22.199 5.6232C22.199 5.8877 22.2399 6.21708 22.2909 6.4217C22.3419 6.61633 22.4542 6.91576 22.541 7.09543C22.6227 7.27509 22.8013 7.55955 22.934 7.73422C23.0616 7.9039 23.3066 8.14844 23.475 8.28319C23.6434 8.41294 23.9445 8.61257 24.1487 8.72236C24.3784 8.84712 24.6029 9.02179 24.7305 9.17151C24.8734 9.34618 24.9857 9.55579 25.098 9.89015C25.1899 10.1497 25.2613 10.3992 25.2613 10.4391C25.2562 10.479 24.6693 11.0929 23.9445 11.8016L22.6329 13.0891C22.3624 12.64 22.1123 12.3405 21.8979 12.1359C21.6785 11.9213 21.3773 11.6918 21.2038 11.6019C21.0354 11.5121 20.6577 11.3624 20.3617 11.2576C20.0657 11.1578 19.688 11.008 19.5196 10.9232C19.3511 10.8434 19.0908 10.6537 18.9428 10.504C18.7591 10.3243 18.6111 10.1048 18.4682 9.80532C18.3746 9.60141 18.2667 9.38015 18.2069 9.25728C18.1949 9.2328 18.1849 9.21222 18.1773 9.19646C18.1313 9.10164 17.9986 8.9669 17.8864 8.89703C17.769 8.82716 17.5801 8.76228 17.4525 8.74731C17.3249 8.73733 17.1412 8.7523 17.0442 8.78224C16.9473 8.81219 16.7993 8.89204 16.7176 8.95192C16.6359 9.0168 16.5237 9.15654 16.4726 9.26633C16.4267 9.37612 16.3807 9.55579 16.3807 9.66558C16.3807 9.77537 16.4267 9.99995 16.4828 10.1646C16.539 10.3293 16.687 10.6687 16.8146 10.9132C16.9371 11.1578 17.1667 11.5121 17.3249 11.7017C17.4781 11.8864 17.7486 12.1409 17.9272 12.2657C18.1007 12.3904 18.3559 12.5451 18.4988 12.61C18.6366 12.6699 19.0398 12.8146 19.392 12.9244C19.7696 13.0492 20.1575 13.2089 20.3362 13.3237C20.5046 13.4285 20.7087 13.6032 20.7904 13.7129C20.8772 13.8177 20.9946 14.0323 21.0609 14.1821L21.1834 14.4565C18.3865 17.2014 17.5393 18.0548 17.4985 18.1196L17.427 18.2394C16.9932 18.0498 16.7737 17.905 16.6615 17.8002C16.5441 17.6904 16.3807 17.4659 16.2889 17.3012C16.2021 17.1365 16.0184 16.867 15.8806 16.7023C15.7479 16.5376 15.4978 16.2931 15.3345 16.1633C15.166 16.0286 14.87 15.8489 14.671 15.7541C14.4719 15.6643 14.1657 15.5495 13.982 15.4996C13.7625 15.4397 13.4716 15.4097 13.1143 15.4147C12.7009 15.4147 12.3692 15.4547 11.6598 15.5944C10.9248 15.7391 10.7003 15.809 10.542 15.9138C10.4298 15.9936 10.292 16.1434 10.2358 16.2532C10.1644 16.3829 10.1286 16.5426 10.1337 16.7023C10.1337 16.842 10.1797 17.0367 10.2358 17.1465C10.2868 17.2563 10.4246 17.411 10.5369 17.4858C10.6492 17.5657 10.833 17.6405 10.9452 17.6555C11.0779 17.6755 11.4097 17.6306 11.9047 17.5307C12.3896 17.4309 12.803 17.376 13.0735 17.376C13.3134 17.376 13.5992 17.406 13.7268 17.4509C13.8544 17.4908 14.0585 17.6106 14.1861 17.7154C14.3137 17.8252 14.4821 18.0298 14.5638 18.1795C14.6455 18.3292 14.7833 18.5488 14.87 18.6736C14.9568 18.7984 15.1405 19.008 15.2834 19.1427C15.4212 19.2775 15.6662 19.4671 15.8193 19.5669C15.9724 19.6667 16.1766 19.7815 16.2685 19.8214C16.3603 19.8614 16.4369 19.9162 16.4369 19.9462C16.4318 19.9761 16.3961 20.0959 16.3552 20.2207C16.3093 20.3454 16.2429 20.585 16.2021 20.7547C16.1613 20.9293 16.1256 21.124 16.1256 21.1938C16.1256 21.3136 16.1102 21.3186 15.8295 21.3186C15.6713 21.3186 15.4008 21.3535 15.2324 21.3985C15.064 21.4384 14.8241 21.5182 14.6965 21.5731C14.5689 21.628 14.3086 21.7927 14.1096 21.9424C13.834 22.152 13.7115 22.2119 13.5737 22.2169C13.4767 22.2169 13.2674 22.157 13.1143 22.0872C12.9612 22.0173 12.3641 21.6829 11.7874 21.3436C11.2106 20.9992 10.6594 20.7098 10.5625 20.6898C10.4604 20.6698 10.2868 20.6848 10.1541 20.7247C10.0215 20.7646 9.84792 20.8694 9.74585 20.9693C9.64888 21.0641 9.53659 21.2338 9.50597 21.3436C9.47024 21.4534 9.43962 21.5981 9.43962 21.6679C9.43962 21.7378 9.50087 21.9125 9.57742 22.0622C9.72033 22.3267 9.73564 22.3367 11.0728 23.1252C11.9813 23.6542 12.5325 23.9486 12.7571 24.0185C12.9867 24.0834 13.2317 24.1133 13.5482 24.1133C13.7982 24.1133 14.1096 24.0834 14.2372 24.0435C14.3648 24.0085 14.5893 23.9187 14.7322 23.8438C14.8802 23.774 15.0895 23.6392 15.1916 23.5494C15.2987 23.4546 15.4417 23.3448 15.5131 23.2999C15.5846 23.25 15.7326 23.215 15.8449 23.21C15.9571 23.21 16.0745 23.24 16.1051 23.2749C16.1358 23.3098 16.1868 23.4845 16.2174 23.6642C16.2532 23.8438 16.3348 24.1682 16.4063 24.3878C16.4828 24.6074 16.6666 25.0366 16.8146 25.336C16.9677 25.6355 17.0851 25.885 17.08 25.89C17.0775 25.8923 17.0443 25.9126 16.9921 25.9444L16.9919 25.9445C16.9337 25.9798 16.8522 26.0295 16.7635 26.0846C16.5951 26.1894 16.3246 26.409 16.1613 26.5787C16.0031 26.7484 15.7989 27.0079 15.7173 27.1576C15.6356 27.3073 15.5233 27.5668 15.4621 27.7315C15.4059 27.8962 15.3345 28.2655 15.3039 28.555C15.263 28.9742 15.2273 29.1289 15.115 29.3235C15.0385 29.4583 14.9058 29.613 14.8241 29.6728C14.7424 29.7277 14.2576 29.9922 13.7523 30.2567C13.0123 30.641 12.8081 30.7708 12.6907 30.9305C12.5989 31.0552 12.5376 31.2149 12.5172 31.3746C12.5019 31.5393 12.5172 31.694 12.5682 31.8238C12.6142 31.9336 12.7316 32.0983 12.8285 32.1831C12.9306 32.2729 13.1092 32.3728 13.2266 32.4027C13.3491 32.4326 13.5277 32.4426 13.6247 32.4227C13.7217 32.4027 14.1606 32.218 14.5944 32.0035C15.0282 31.7938 15.5692 31.4994 15.7887 31.3497C16.0082 31.2 16.3195 30.9405 16.4726 30.7758C16.6308 30.6111 16.8299 30.3216 16.9268 30.127C17.0187 29.9324 17.131 29.6229 17.1718 29.4283C17.2127 29.2337 17.2484 28.9342 17.2484 28.7546C17.2484 28.545 17.2841 28.3603 17.3454 28.2306C17.3964 28.1208 17.5189 27.9611 17.6108 27.8712C17.7077 27.7864 17.9374 27.6367 18.1313 27.5369C18.4223 27.3822 18.4886 27.3672 18.5703 27.4171C18.5871 27.4287 18.6218 27.4522 18.6681 27.4836L18.6694 27.4845C18.7632 27.548 18.9038 27.6434 19.0398 27.7365C19.2491 27.8762 19.591 28.0759 19.8003 28.1807C20.0095 28.2855 20.326 28.4202 20.5046 28.4851C20.6781 28.55 20.9997 28.6498 21.2191 28.6997C21.4335 28.7546 21.6734 28.8095 21.755 28.8244C21.8622 28.8494 21.8979 28.8893 21.9234 29.0141C21.9387 29.1039 21.9234 29.2486 21.8928 29.3285C21.8571 29.4083 21.7295 29.588 21.607 29.7277C21.4845 29.8625 21.3263 30.0871 21.2548 30.2268C21.1885 30.3616 21.0915 30.6211 21.0456 30.8007C20.9894 31.0253 20.969 31.2499 20.9843 31.5244C20.9997 31.7539 21.0558 32.0534 21.1221 32.223C21.1834 32.3877 21.5815 33.0914 22.0102 33.7901C22.4338 34.4888 22.8472 35.1126 22.9289 35.1725C23.0054 35.2374 23.1534 35.3122 23.2606 35.3422C23.3627 35.3671 23.4852 35.3921 23.526 35.3921C23.5669 35.3921 23.6893 35.3671 23.7965 35.3422C23.8986 35.3122 24.0568 35.2324 24.1436 35.1525C24.2354 35.0777 24.3528 34.9279 24.409 34.8181C24.4804 34.6734 24.5008 34.5536 24.4855 34.369C24.4651 34.1544 24.3579 33.9498 23.7455 32.9467C23.3525 32.3029 23.0003 31.719 22.9646 31.6491C22.9289 31.5743 22.9136 31.4545 22.934 31.3497C22.9493 31.2499 23.082 31.0253 23.2402 30.8257C23.3933 30.631 23.572 30.3616 23.6434 30.2268C23.7149 30.0871 23.7965 29.8575 23.8271 29.7128C23.8578 29.573 23.8833 29.3285 23.8833 29.1788C23.8833 29.0041 23.9037 28.8993 23.9496 28.8843C23.9803 28.8744 24.1691 28.8394 24.3681 28.8045C24.5672 28.7696 24.8479 28.6997 24.9959 28.6498C25.1388 28.5949 25.2715 28.5599 25.2868 28.5649C25.297 28.5749 25.3736 28.6947 25.4501 28.8394C25.5267 28.9792 25.7002 29.2337 25.838 29.3984C25.9707 29.568 26.2106 29.8026 26.3739 29.9274C26.5321 30.0471 26.8231 30.2368 27.017 30.3366C27.2109 30.4414 27.4559 30.6261 27.5682 30.7508C27.6907 30.8906 27.7979 31.0802 27.8489 31.2499C27.9102 31.4545 27.9204 31.6391 27.9 31.9735C27.8846 32.223 27.8183 32.6373 27.757 32.8968C27.6958 33.1563 27.6448 33.5406 27.6397 33.7452C27.6346 34.0396 27.655 34.1544 27.7366 34.2891C27.7928 34.384 27.9306 34.5037 28.0429 34.5586C28.1551 34.6185 28.3491 34.6734 28.4767 34.6834C28.6043 34.6984 28.788 34.6834 28.885 34.6535C28.982 34.6235 29.1453 34.5237 29.2422 34.4289C29.3392 34.3341 29.4464 34.1843 29.4821 34.0895C29.5127 33.9947 29.6097 33.5605 29.6965 33.1213C29.7832 32.6822 29.87 32.1881 29.8853 32.0234C29.9006 31.8587 29.8904 31.5543 29.8598 31.3497C29.8241 31.1451 29.7424 30.8207 29.671 30.6261C29.6046 30.4314 29.4719 30.1519 29.38 30.0022C29.2933 29.8525 29.0432 29.5581 28.8339 29.3485C28.5941 29.1089 28.298 28.8843 28.0429 28.7346C27.8183 28.6099 27.5427 28.4202 27.4355 28.3154C27.3283 28.2156 27.1803 28.006 27.1089 27.8563C26.9864 27.5918 26.9864 27.5818 27.0782 27.5369C27.1344 27.5119 27.3232 27.3522 27.507 27.1875C27.6856 27.0179 28.5022 26.2244 29.3188 25.4259C30.2885 24.4677 30.8346 23.9636 30.901 23.9636C30.9571 23.9686 31.1357 24.0385 31.3042 24.1283C31.4675 24.2181 31.6921 24.3828 31.7992 24.4976C31.9115 24.6174 32.0544 24.817 32.1208 24.9468C32.1871 25.0815 32.3402 25.4558 32.4576 25.7852C32.5801 26.1146 32.7332 26.4938 32.8047 26.6336C32.8761 26.7683 33.019 27.0029 33.1262 27.1426C33.2385 27.2873 33.4784 27.5319 33.6723 27.6816C33.8612 27.8363 34.1878 28.0459 34.397 28.1507C34.6063 28.2605 34.938 28.4052 35.1371 28.4751C35.3412 28.55 35.5964 28.6049 35.7393 28.6049C35.872 28.6049 36.0558 28.5699 36.1476 28.525C36.2344 28.4801 36.3518 28.4052 36.4079 28.3603C36.459 28.3154 36.5457 28.1906 36.6019 28.0809C36.6784 27.9311 36.6988 27.8114 36.6886 27.6018C36.6733 27.4121 36.6274 27.2674 36.5406 27.1426C36.459 27.0179 36.3161 26.9131 36.1323 26.8282C35.9792 26.7583 35.6934 26.6236 35.4944 26.5288C35.2953 26.4389 35.0248 26.2543 34.8921 26.1245C34.7543 25.9898 34.591 25.7952 34.5246 25.6854C34.4583 25.5756 34.3001 25.1813 34.1674 24.812C34.0398 24.4427 33.856 24.0035 33.7693 23.8389C33.6774 23.6742 33.4478 23.3797 33.2487 23.1851C33.0497 22.9904 32.7689 22.7559 32.6209 22.6611C32.4729 22.5662 32.3555 22.4814 32.3555 22.4664C32.3555 22.4515 32.9476 21.8626 33.6672 21.1539L34.984 19.8663C35.6985 20.1109 35.9741 20.2157 36.0558 20.2606C36.1374 20.3005 36.2803 20.3854 36.362 20.4452C36.4437 20.5101 36.5866 20.6898 36.6784 20.8495C36.7652 21.0142 36.9489 21.2887 37.0867 21.4633C37.2194 21.638 37.4491 21.8776 37.5869 21.9923C37.7298 22.1021 37.934 22.2518 38.0462 22.3217C38.1585 22.3916 38.3984 22.5064 38.5821 22.5812C38.7659 22.6511 39.0313 22.7359 39.1691 22.7709C39.312 22.8008 39.6437 22.8258 39.9091 22.8258C40.1745 22.8258 40.6339 22.7908 40.9299 22.7459C41.2259 22.701 41.675 22.6162 41.9251 22.5513C42.2007 22.4864 42.461 22.3866 42.5631 22.3117C42.6601 22.2419 42.7876 22.0971 42.8438 21.9873C42.905 21.8726 42.9459 21.6929 42.9459 21.5432C42.9459 21.3835 42.905 21.2188 42.8387 21.094C42.7825 20.9842 42.6447 20.8295 42.5325 20.7547C42.4151 20.6698 42.2364 20.6 42.1037 20.585C41.9506 20.57 41.6648 20.6049 41.2361 20.6998C40.741 20.8096 40.4654 20.8395 40.0112 20.8445C39.4753 20.8445 39.4038 20.8345 39.1691 20.7147C39.0313 20.6449 38.8373 20.4952 38.7506 20.3904C38.6587 20.2856 38.5209 20.0759 38.4443 19.9312C38.3627 19.7815 38.184 19.522 38.0411 19.3573C37.9033 19.1876 37.6379 18.9381 37.4542 18.8033C37.2756 18.6686 37 18.5039 36.8469 18.4291C36.6937 18.3592 36.561 18.2993 36.5508 18.2993C36.5406 18.2993 36.658 18.1296 36.806 17.925C36.954 17.7204 37.1582 17.391 37.2603 17.2014C37.3623 17.0067 37.5308 16.6374 37.6277 16.3779C37.7247 16.1184 37.8523 15.6992 37.9033 15.4547L38.0003 15.0055C38.2351 15.0305 38.4596 15.0105 38.6587 14.9806C38.8577 14.9506 39.1282 14.8758 39.2711 14.8159C39.409 14.756 39.7101 14.5763 39.9346 14.4166C40.1592 14.2569 40.4144 14.1172 40.4961 14.1022C40.5828 14.0822 40.7104 14.1022 40.787 14.1371C40.8635 14.1771 41.2157 14.4665 41.5729 14.7809L41.6045 14.8083L41.6088 14.812C41.9676 15.1234 42.4438 15.5365 42.6907 15.7441C42.9408 15.9637 43.2215 16.1733 43.3031 16.2132C43.4001 16.2631 43.5481 16.2831 43.7165 16.2731C43.9054 16.2581 44.0432 16.2132 44.2014 16.1034C44.3188 16.0236 44.4617 15.8639 44.5229 15.7541C44.5842 15.6293 44.625 15.4597 44.625 15.3049C44.625 15.1452 44.5893 14.9905 44.5229 14.8807C44.4668 14.7859 43.8492 14.227 43.1449 13.6331C42.0272 12.6949 41.823 12.5451 41.5117 12.4254C41.3127 12.3505 40.9962 12.2806 40.7768 12.2607C40.5165 12.2357 40.2817 12.2507 40.0367 12.3006C39.8377 12.3405 39.5416 12.4403 39.3732 12.5252C39.2048 12.605 38.9649 12.7647 38.8373 12.8695C38.7097 12.9793 38.5566 13.0941 38.4954 13.1241C38.429 13.159 38.3014 13.1839 38.2147 13.1839C38.1228 13.1839 38.0207 13.164 37.9952 13.144C37.9646 13.1241 37.9084 12.9544 37.8676 12.7597C37.8319 12.5651 37.74 12.2307 37.6584 12.0112C37.5818 11.7916 37.4797 11.5221 37.4338 11.4123C37.3879 11.3025 37.2245 11.008 37.0714 10.7635C36.9234 10.519 36.7091 10.1996 36.5968 10.0648L36.3926 9.8153C37.0867 9.46595 37.3674 9.30626 37.4644 9.2314C37.5614 9.15654 37.6941 9.04675 37.7655 8.98187C37.837 8.91699 37.9799 8.76727 38.082 8.64251C38.184 8.51774 38.3372 8.28319 38.4188 8.1185C38.5056 7.95381 38.6128 7.68431 38.6536 7.51963C38.6995 7.35494 38.7506 7.05051 38.7659 6.8459C38.7812 6.64128 38.8169 6.40173 38.8424 6.32188C38.8628 6.23704 38.9547 6.07734 39.0415 5.95757C39.1742 5.77292 39.3171 5.68808 40.1541 5.27885C40.7155 5.00437 41.1698 4.74985 41.2616 4.65503C41.3433 4.57019 41.4402 4.42546 41.476 4.33563C41.5066 4.25079 41.5372 4.10107 41.5372 4.01124C41.5423 3.9264 41.5066 3.7667 41.4607 3.6619C41.4198 3.56209 41.3331 3.42235 41.2718 3.35747C41.2106 3.2926 41.0677 3.19778 40.9554 3.14787C40.8431 3.09796 40.6594 3.05305 40.5471 3.05305C40.3991 3.05305 40.1388 3.14288 39.6284 3.37744C39.2354 3.5571 38.7302 3.81162 38.5056 3.94137C38.2708 4.07612 37.934 4.33563 37.7145 4.55022C37.4899 4.76981 37.2603 5.04928 37.1684 5.22395C37.0765 5.38864 36.9693 5.65814 36.9285 5.82282C36.8826 5.98751 36.8315 6.32687 36.8162 6.57141C36.8009 6.81595 36.7652 7.08544 36.7397 7.17028C36.7193 7.25013 36.5968 7.41482 36.4794 7.5346C36.3314 7.67932 36.0303 7.86398 35.5607 8.09853C35.1728 8.28818 34.8258 8.44288 34.7951 8.44288C34.7594 8.44788 34.591 8.36803 34.4226 8.26821C34.2541 8.1684 33.8867 8.00371 33.606 7.89891C33.3253 7.79411 32.9119 7.66435 32.6873 7.61944C32.6086 7.60194 32.5311 7.58506 32.4624 7.57008L32.4621 7.57002L32.4618 7.56997L32.4618 7.56996C32.3347 7.54227 32.2376 7.52111 32.2177 7.51463C32.1769 7.49966 32.1514 7.40484 32.1514 7.2701C32.1514 7.14533 32.1769 6.99561 32.2126 6.93074C32.2433 6.87085 32.3453 6.74109 32.4423 6.64627C32.5342 6.55145 32.6771 6.34684 32.7587 6.19712C32.8404 6.0474 32.9425 5.79787 32.9884 5.64815C33.0343 5.49345 33.0701 5.19401 33.0701 4.95945C33.0701 4.65004 33.0394 4.4554 32.9374 4.16096C32.8659 3.95135 32.7383 3.68685 32.6618 3.57706C32.5801 3.46727 32.0799 2.88337 31.544 2.27951C30.9163 1.57583 30.4978 1.14664 30.3753 1.08676C30.2732 1.03186 30.0946 0.981954 29.9823 0.971973C29.87 0.966982 29.7067 0.981954 29.625 1.0119ZM31.5134 11.5321C31.4011 11.557 31.1919 11.6319 31.0541 11.6967C30.9112 11.7666 30.6866 11.9313 30.5488 12.0661C30.4008 12.2058 30.2324 12.4453 30.1405 12.635C30.0027 12.9194 29.9874 13.0143 29.9874 13.4085C29.9874 13.8128 30.0027 13.8926 30.1507 14.192C30.2426 14.3867 30.4161 14.6312 30.559 14.766C30.6917 14.8907 30.9469 15.0654 31.1306 15.1502C31.4215 15.285 31.5134 15.3 31.9217 15.3C32.3351 15.3 32.4168 15.285 32.7281 15.1403C32.9169 15.0504 33.1721 14.8807 33.2997 14.756C33.4273 14.6312 33.6009 14.3817 33.6927 14.192C33.8407 13.8926 33.856 13.8128 33.856 13.4085C33.856 13.0093 33.8407 12.9194 33.7029 12.635C33.6162 12.4553 33.4375 12.2058 33.3099 12.071C33.1772 11.9413 32.9272 11.7716 32.7536 11.6868C32.524 11.582 32.33 11.5321 32.0748 11.5171C31.8758 11.5021 31.6257 11.5121 31.5134 11.5321ZM25.6186 14.4516C25.5216 14.4865 25.3787 14.5963 25.3021 14.7011C25.2256 14.8009 25.1337 14.9756 25.1031 15.0903C25.0571 15.25 25.0571 15.3598 25.1031 15.5295C25.1388 15.6543 25.2256 15.829 25.3021 15.9238C25.3787 16.0186 25.5318 16.1384 25.6441 16.1883C25.7564 16.2382 25.9401 16.2781 26.0524 16.2781C26.1647 16.2781 26.3484 16.2382 26.4607 16.1883C26.573 16.1384 26.7261 16.0186 26.8026 15.9238C26.8792 15.829 26.966 15.6543 27.0017 15.5295C27.0476 15.3598 27.0476 15.25 27.0017 15.0903C26.9711 14.9756 26.869 14.8009 26.7822 14.6961C26.6903 14.5963 26.5372 14.4865 26.4505 14.4466C26.3586 14.4116 26.1749 14.3817 26.0422 14.3817C25.9044 14.3867 25.7155 14.4166 25.6186 14.4516ZM19.443 21.3985C19.5145 21.3186 19.6625 21.2088 19.7747 21.1639C19.887 21.114 20.0759 21.0691 20.1984 21.0691C20.3157 21.0691 20.4995 21.109 20.6067 21.1639C20.7087 21.2138 20.8516 21.3186 20.9231 21.3985C20.9945 21.4783 21.0864 21.643 21.1221 21.7678C21.1783 21.9574 21.1783 22.0323 21.1221 22.2419C21.0864 22.3766 20.9945 22.5563 20.9231 22.6361C20.8516 22.716 20.7087 22.8208 20.6067 22.8707C20.4995 22.9256 20.3157 22.9655 20.1984 22.9655C20.0759 22.9655 19.887 22.9206 19.7747 22.8707C19.6625 22.8258 19.5145 22.716 19.443 22.6361C19.3715 22.5563 19.2797 22.3766 19.244 22.2419C19.1878 22.0323 19.1878 21.9574 19.244 21.7678C19.2797 21.643 19.3715 21.4783 19.443 21.3985ZM25.6441 21.1639C25.5318 21.2088 25.3838 21.3186 25.3123 21.3985C25.2409 21.4783 25.149 21.643 25.1133 21.7678C25.0571 21.9574 25.0571 22.0323 25.1133 22.2419C25.149 22.3766 25.2409 22.5563 25.3123 22.6361C25.3838 22.716 25.5318 22.8258 25.6441 22.8707C25.7564 22.9206 25.9401 22.9655 26.0524 22.9655C26.1647 22.9655 26.3484 22.9206 26.4607 22.8707C26.573 22.8258 26.721 22.716 26.7924 22.6361C26.8639 22.5563 26.9557 22.3766 26.9915 22.2419C27.0476 22.0323 27.0476 21.9574 26.9915 21.7678C26.9557 21.643 26.8639 21.4783 26.7924 21.3985C26.721 21.3186 26.573 21.2088 26.4607 21.1639C26.3484 21.114 26.1647 21.0691 26.0524 21.0691C25.9401 21.0691 25.7564 21.114 25.6441 21.1639Z" fill="#0033D9"/>
<path d="M1.70741 15.5295C1.85032 15.4646 2.03405 15.3948 2.11571 15.3698C2.20248 15.3499 2.45256 15.3399 2.67713 15.3499C2.98335 15.3648 3.16199 15.3998 3.38145 15.4996C3.54477 15.5744 3.78975 15.7441 3.94286 15.8888C4.08577 16.0336 4.2593 16.2532 4.32054 16.3779C4.38179 16.5027 4.45834 16.7372 4.48897 16.9019C4.52469 17.0666 4.5298 17.3112 4.51449 17.4509C4.49407 17.5856 4.42772 17.8252 4.37158 17.9749C4.30523 18.1396 4.16233 18.3592 4.00411 18.5239C3.851 18.6786 3.62133 18.8533 3.46311 18.9281C3.31 19.003 3.0497 19.0878 2.88128 19.1178C2.65671 19.1577 2.49339 19.1577 2.26883 19.1178C2.1004 19.0878 1.83501 19.003 1.68189 18.9231C1.51347 18.8433 1.2889 18.6686 1.13069 18.4939C0.97247 18.3243 0.819357 18.0947 0.763215 17.95C0.712178 17.8102 0.656036 17.5856 0.635621 17.4509C0.615206 17.3112 0.625414 17.0666 0.656036 16.9019C0.691763 16.7372 0.768319 16.5027 0.829564 16.3779C0.89081 16.2532 1.05923 16.0386 1.19704 15.9038C1.33994 15.7641 1.56961 15.5944 1.70741 15.5295Z" fill="#0033D9"/>
<path d="M7.04085 32.6373C6.94388 32.6922 6.70911 32.9067 6.52027 33.1263L6.17831 33.5206C5.6118 33.4008 5.45868 33.4008 5.20349 33.4407L4.87175 33.4907C4.27971 32.9018 4.02963 32.7021 3.94286 32.6672C3.851 32.6273 3.67236 32.5973 3.54477 32.5973C3.41717 32.5973 3.22834 32.6423 3.12626 32.6922C3.01908 32.7421 2.87618 32.8469 2.80472 32.9217C2.73327 32.9966 2.65161 33.1613 2.61588 33.291C2.57505 33.4557 2.57505 33.5905 2.61588 33.7701C2.66182 33.9847 2.72817 34.0745 3.07012 34.4189L3.46821 34.8181C3.49884 35.6316 3.52435 35.9211 3.54477 35.9909C3.57539 36.1007 3.53967 36.1506 3.20282 36.4151C2.98846 36.5898 2.79452 36.7944 2.74348 36.9042C2.69244 37.009 2.65161 37.2036 2.65161 37.3484C2.65161 37.538 2.68734 37.6728 2.7741 37.8125C2.84045 37.9223 2.98335 38.062 3.09053 38.1169C3.20282 38.1768 3.35593 38.2417 3.44269 38.2617C3.52946 38.2766 3.68767 38.2716 3.79996 38.2417C3.91734 38.2117 4.18274 38.052 4.42772 37.8624C4.65739 37.6827 4.86154 37.538 4.88196 37.538C4.90748 37.538 5.02997 37.6478 5.15756 37.7776L5.39744 38.0121C4.88706 38.4762 4.69312 38.7008 4.63698 38.8106C4.58594 38.9204 4.54 39.1101 4.54 39.2348C4.54 39.3696 4.58594 39.5492 4.65739 39.679C4.72374 39.8137 4.85133 39.9535 4.97382 40.0283C5.08611 40.0982 5.28005 40.1631 5.40764 40.178C5.53524 40.188 5.72918 40.1681 5.84146 40.1281C5.96906 40.0882 6.17831 39.9385 6.41309 39.7139L6.78056 39.3596C7.13782 39.7089 7.245 39.8337 7.245 39.8586C7.2399 39.8836 7.09189 40.0882 6.90815 40.3078C6.704 40.5473 6.55599 40.7869 6.52027 40.9067C6.49475 41.0165 6.48454 41.1911 6.49985 41.2909C6.51516 41.3957 6.58661 41.5654 6.65296 41.6652C6.72442 41.77 6.87753 41.9098 7.00002 41.9747C7.15313 42.0595 7.29604 42.0944 7.47467 42.0944C7.61247 42.0944 7.79621 42.0595 7.88297 42.0196C7.96974 41.9746 8.19941 41.77 8.39335 41.5604L8.75061 41.1712C9.43452 41.3109 9.60805 41.3209 9.78668 41.2859L10.0266 41.241C10.8227 41.9896 10.9605 42.0844 11.1086 42.1094C11.2157 42.1294 11.4097 42.1343 11.5373 42.1244C11.6955 42.1094 11.8282 42.0595 11.966 41.9547C12.0732 41.8748 12.2059 41.7151 12.2569 41.6053C12.3079 41.4956 12.3488 41.3109 12.3488 41.1911C12.3488 41.0763 12.3181 40.9067 12.2773 40.8168C12.2416 40.732 12.0425 40.4775 11.8333 40.2629L11.4556 39.8686C11.4811 39.1949 11.4607 38.9803 11.4097 38.8206L11.328 38.586C11.8639 38.1768 12.0834 37.9672 12.1701 37.8624C12.2824 37.7227 12.3284 37.6029 12.3437 37.4182C12.3539 37.2436 12.3335 37.0939 12.262 36.9391C12.2059 36.8094 12.0783 36.6497 11.966 36.5649C11.8282 36.4601 11.6955 36.4101 11.5373 36.3952C11.4097 36.3852 11.2208 36.3902 11.1239 36.4052C11.0116 36.4251 10.7819 36.5649 10.4859 36.7944L10.0266 37.1488L9.53149 36.6647C9.98572 36.2405 10.1695 36.0309 10.2358 35.9261C10.3022 35.8262 10.3736 35.6566 10.3889 35.5518C10.4042 35.452 10.3889 35.2673 10.3583 35.1425C10.3175 35.0078 10.2205 34.8481 10.1082 34.7383C9.99593 34.6285 9.83261 34.5337 9.69481 34.4938C9.56722 34.4588 9.37327 34.4488 9.26099 34.4688C9.14871 34.4838 8.99049 34.5437 8.90373 34.5936C8.81696 34.6435 8.61281 34.8231 8.44439 34.9928L8.13816 35.3022L7.6431 34.8181C8.24024 34.0745 8.38314 33.845 8.41887 33.7052C8.45459 33.5605 8.45459 33.4308 8.41376 33.281C8.38314 33.1663 8.29638 32.9966 8.22492 32.9018C8.14837 32.8069 7.99525 32.6872 7.88297 32.6373C7.77069 32.5874 7.57675 32.5474 7.44915 32.5474C7.32156 32.5474 7.13782 32.5874 7.04085 32.6373Z" fill="#0033D9"/>
<path d="M38.8628 35.6166C38.9751 35.5667 39.1946 35.4969 39.3477 35.4619C39.5008 35.427 39.6641 35.3971 39.705 35.3971C39.7458 35.3921 39.9193 35.417 40.0878 35.447C40.2562 35.4769 40.4858 35.5468 40.5981 35.6017C40.7104 35.6566 40.8941 35.7763 41.0064 35.8662C41.1187 35.951 41.282 36.1357 41.3739 36.2704C41.4607 36.4052 41.5729 36.6497 41.6189 36.8144C41.6801 37.019 41.7005 37.2236 41.6852 37.4632C41.6699 37.6877 41.6189 37.9123 41.5372 38.087C41.4658 38.2367 41.3076 38.4713 41.1851 38.601C41.0575 38.7358 40.8533 38.9004 40.7257 38.9753C40.5981 39.0452 40.3787 39.13 40.2409 39.1699C40.098 39.2049 39.8836 39.2348 39.756 39.2348C39.6284 39.2348 39.3987 39.1999 39.2456 39.16C39.0925 39.12 38.8731 39.0302 38.7608 38.9653C38.6485 38.9004 38.4494 38.7308 38.3116 38.591C38.1789 38.4513 38.0207 38.2317 37.9595 38.097C37.8625 37.9023 37.8472 37.7726 37.8421 37.3134C37.8421 36.7794 37.8472 36.7545 38.0207 36.4451C38.1177 36.2704 38.3014 36.0309 38.429 35.9211C38.5566 35.8063 38.7557 35.6715 38.8628 35.6166Z" fill="#0033D9"/>
<path d="M27.6346 40.2329C27.5223 40.2529 27.3232 40.3178 27.1854 40.3777C27.0527 40.4326 26.8282 40.5873 26.6853 40.717C26.5423 40.8518 26.3535 41.0913 26.2616 41.256C26.1136 41.5405 26.1034 41.5854 26.1034 42.1044C26.1034 42.6234 26.1136 42.6683 26.2616 42.9528C26.3586 43.1325 26.5372 43.357 26.721 43.5167C26.8945 43.6714 27.1293 43.8212 27.2773 43.8761C27.4151 43.921 27.6448 43.9809 27.7877 44.0008C27.9306 44.0158 28.1807 44.0108 28.3491 43.9759C28.5175 43.9459 28.7574 43.8711 28.885 43.8112C29.0126 43.7513 29.2371 43.5816 29.38 43.4369C29.5281 43.2972 29.7118 43.0476 29.7883 42.8879C29.9108 42.6384 29.9261 42.5436 29.9261 42.1044C29.9312 41.6553 29.9159 41.5754 29.7781 41.3059C29.6965 41.1412 29.5127 40.8917 29.3749 40.7569C29.232 40.6172 29.0126 40.4575 28.885 40.3976C28.7574 40.3377 28.5277 40.2629 28.3746 40.2329C28.2215 40.208 28.0378 40.183 27.9663 40.188C27.8948 40.193 27.7468 40.213 27.6346 40.2329Z" fill="#0033D9"/>
</svg>
