<svg width="49" height="47" viewBox="0 0 49 47" fill="none" xmlns="http://www.w3.org/2000/svg">
<path fill-rule="evenodd" clip-rule="evenodd" d="M15.4262 0.0666042C14.893 0.0344847 13.589 0.00878906 12.5419 0.00878906H12.5355C11.4884 0.015213 10.2357 0.0473325 9.76033 0.0730282C9.28496 0.0987238 8.43058 0.169387 7.86528 0.227202C7.29997 0.285017 6.32996 0.400648 5.71327 0.490582C5.09657 0.580517 4.25504 0.721843 3.85034 0.805354C3.44563 0.888865 2.84821 1.03019 2.53343 1.12013C2.21224 1.21006 1.84608 1.32569 1.71117 1.37708C1.5827 1.4349 1.35143 1.58907 1.21011 1.72397C1.06236 1.85245 0.869641 2.09014 0.779706 2.25073C0.657652 2.46272 0.606261 2.65544 0.586989 2.98948C0.567717 3.29783 0.625533 3.83102 0.760435 4.69182C0.850825 5.22914 0.968694 5.97451 1.05881 6.54436C1.08397 6.70348 1.10697 6.84891 1.1266 6.97231C1.21653 7.53761 1.42852 8.99584 1.60197 10.2164C1.77541 11.4369 1.97455 12.8823 2.04522 13.4283C2.11588 13.9744 2.25078 15.0729 2.34072 15.8694C2.42423 16.666 2.55913 17.9957 2.62979 18.8244C2.69403 19.6531 2.77112 20.8544 2.79681 21.4903C2.82251 22.1841 2.80966 23.0064 2.76469 23.546C2.72615 24.0406 2.63622 24.7601 2.57198 25.152C2.50131 25.5438 2.39853 26.0577 2.34072 26.3083C2.2829 26.5588 2.10946 27.2076 1.94886 27.7537C1.79468 28.2997 1.66621 28.7686 1.66621 28.8008C1.66621 28.8264 2.05164 28.9613 2.51416 29.1091C2.98311 29.2504 3.87603 29.5267 4.49273 29.7258C5.10942 29.9185 6.27857 30.3168 7.09441 30.6123C7.90382 30.9078 8.98946 31.3253 9.50338 31.5438C10.0173 31.7622 10.8524 32.1412 11.3663 32.3917C11.8802 32.6487 12.5869 33.047 12.9402 33.2846C13.2935 33.5159 13.7239 33.8692 13.9038 34.0555C14.0965 34.2611 14.3727 34.6915 14.5911 35.109C14.7903 35.5009 15.0858 36.1369 15.2399 36.5223C15.4005 36.9077 15.6318 37.563 15.7603 37.9677C15.8823 38.3724 16.0558 38.9955 16.1457 39.3488C16.2356 39.7021 16.3384 40.1839 16.3705 40.428C16.4091 40.6657 16.4605 40.8713 16.4862 40.8841C16.5183 40.897 17.2185 40.8649 18.0472 40.8199C18.8759 40.7749 19.5568 40.7364 19.5568 40.7364C19.5568 40.7364 19.6724 40.5694 19.8138 40.3702C19.9551 40.1646 20.3469 39.7471 20.681 39.4259C21.015 39.1111 21.6381 38.6229 22.0621 38.3403C22.4861 38.0576 23.2634 37.6144 23.7966 37.3574C24.3233 37.1004 25.0492 36.7792 25.4026 36.6508C25.7559 36.5223 26.3019 36.3424 26.6231 36.2589C26.9379 36.1754 27.4197 36.0662 27.683 36.0148C27.9464 35.9634 28.5952 35.8735 29.1284 35.8157C29.6552 35.7578 30.3233 35.6551 30.6059 35.578C30.8886 35.5009 31.2804 35.366 31.4731 35.2696C31.6659 35.1668 31.9292 35.0062 32.0577 34.9099C32.1862 34.8071 32.4239 34.563 32.5845 34.3703C32.7451 34.1776 33.0727 33.6251 33.3232 33.1497C33.3675 33.0657 33.4131 32.9792 33.4586 32.8927C33.6704 32.4902 33.8822 32.0878 33.972 31.9292C34.1005 31.6979 34.1712 31.4859 34.1712 31.3189C34.1648 31.1776 34.1326 31.017 34.0877 30.9528C34.0427 30.8949 33.85 30.7729 33.6573 30.6894C33.4646 30.5994 33.1755 30.5095 33.0149 30.4838L32.7258 30.4453C32.2569 31.4217 31.9806 31.8778 31.8136 32.0898C31.6273 32.3211 31.3896 32.533 31.2162 32.623C30.9785 32.745 30.85 32.7707 30.4774 32.7515C30.1177 32.7322 29.9443 32.6872 29.6102 32.5138C29.379 32.3981 29.0963 32.2118 28.9807 32.0962C28.865 31.987 28.7109 31.7686 28.6338 31.608C28.5246 31.3767 28.5053 31.229 28.5246 30.8949C28.5438 30.5288 28.5824 30.4196 28.788 30.1241C28.9164 29.9314 29.1541 29.5331 29.3147 29.2312C29.4753 28.9292 29.6102 28.6594 29.6102 28.6209C29.6102 28.5823 29.5203 28.5053 29.4175 28.4474L29.2248 28.3318C28.2098 29.3532 27.7794 29.7129 27.4582 29.9057C27.0407 30.1626 26.8801 30.2269 26.591 30.2461C26.3983 30.259 26.122 30.2397 25.9807 30.2012C25.8394 30.169 25.5953 30.0277 25.4411 29.8928C25.2612 29.7322 25.0814 29.4817 24.9336 29.1669C24.7923 28.8778 24.6895 28.5566 24.6702 28.3639C24.6574 28.1327 24.6831 27.9528 24.7859 27.7215C24.8629 27.5481 24.9786 27.3489 25.0364 27.2847C25.0942 27.214 25.3704 27.0085 25.6402 26.8158C25.9165 26.623 26.1413 26.4496 26.1413 26.4239C26.1349 26.3918 25.9293 26.2119 25.6724 26.0063L25.2098 25.6466C24.7088 26.032 24.3683 26.244 24.1178 26.3661C23.8672 26.4817 23.4818 26.6423 23.2505 26.713C23.0193 26.7836 22.6852 26.8607 22.5118 26.8864C22.2484 26.925 22.1264 26.9057 21.8437 26.7836C21.6381 26.6937 21.4069 26.5267 21.2784 26.3725C21.1499 26.2248 21.0086 25.9421 20.9315 25.698C20.8608 25.4667 20.8095 25.1199 20.8095 24.9271C20.8095 24.6959 20.8608 24.4646 20.9572 24.2526C21.0407 24.0792 21.2077 23.8415 21.3362 23.7387C21.4647 23.6359 21.7923 23.4689 22.0685 23.3725C22.3512 23.2698 22.6274 23.1541 22.6852 23.1156C22.788 23.0385 22.7688 22.9935 22.4732 22.6145C22.2934 22.3833 22.1392 22.1905 22.1392 22.1905C22.1328 22.1841 21.8501 22.2291 21.5161 22.2998C21.182 22.364 20.6167 22.4218 20.2634 22.4218C19.9101 22.4218 19.5183 22.3897 19.3962 22.3511C19.2741 22.3062 19.0493 22.1905 18.8951 22.0878C18.7474 21.9914 18.5482 21.773 18.4455 21.5995C18.2913 21.3297 18.272 21.2334 18.272 20.6874C18.272 20.1863 18.2977 20.0321 18.4133 19.8201C18.484 19.6788 18.6318 19.4861 18.7345 19.3961C18.8309 19.2998 19.03 19.1649 19.1714 19.0942C19.3127 19.0236 19.5696 18.9465 19.7495 18.9208L20.0707 18.8694C19.8394 18.1114 19.7559 17.7388 19.7302 17.5461L19.6853 17.1927C18.2142 17.1863 18.1114 17.1735 17.8223 17.0193C17.6425 16.9294 17.4048 16.7366 17.2892 16.6017C17.1735 16.4668 17.0322 16.1906 16.9744 15.9979C16.9101 15.7666 16.8844 15.5097 16.9037 15.2591C16.923 15.0472 16.9872 14.7709 17.0515 14.6489C17.1093 14.5268 17.2506 14.3277 17.3662 14.2121C17.4754 14.09 17.681 13.9358 17.8223 13.8652C18.0086 13.7688 18.2849 13.7174 18.8502 13.6724C19.2741 13.6403 19.6789 13.6018 19.7495 13.5889C19.8587 13.5697 19.8973 13.4476 20.0257 12.6767C20.1093 12.1885 20.3726 10.7945 20.6167 9.57399C20.8608 8.35345 21.1307 6.94019 21.2206 6.42627C21.3041 5.91236 21.4133 5.19288 21.4583 4.8203C21.4968 4.44129 21.5161 3.76678 21.4968 3.27856C21.484 2.80319 21.4326 2.30212 21.394 2.16722C21.3555 2.03874 21.2142 1.80748 21.0728 1.65331C20.9379 1.50556 20.6296 1.2743 20.3855 1.14582C20.1414 1.01734 19.7688 0.850321 19.5568 0.773234C19.3448 0.702571 18.9401 0.586941 18.6574 0.516278C18.3748 0.445615 17.7517 0.336408 17.2763 0.265745C16.8009 0.195082 15.9658 0.105148 15.4262 0.0666042ZM17.7002 3.55481C17.7709 3.45845 17.9315 3.30428 18.0536 3.22719C18.2334 3.09872 18.3362 3.07944 18.6381 3.09872C18.9529 3.11799 19.03 3.15011 19.2291 3.34282C19.3705 3.48415 19.4861 3.67687 19.531 3.85674C19.5889 4.09442 19.5889 4.19078 19.4989 4.41562C19.4347 4.58264 19.2998 4.76251 19.1585 4.86529C18.9914 4.99377 18.8308 5.05158 18.5996 5.06443C18.3362 5.0837 18.227 5.05801 18.0536 4.93595C17.9315 4.85887 17.7709 4.70469 17.7002 4.60833C17.6039 4.47343 17.5653 4.33211 17.5653 4.08157C17.5653 3.83104 17.6039 3.68972 17.7002 3.55481ZM16.6724 8.93163C16.7431 8.80957 16.8972 8.64255 17.0193 8.55904C17.1649 8.46482 17.3341 8.41771 17.5268 8.41771C17.7324 8.41771 17.893 8.46268 18.0407 8.55904C18.1628 8.64255 18.3234 8.7903 18.394 8.88666C18.4904 9.02156 18.5289 9.16288 18.5289 9.41342C18.5289 9.65753 18.4904 9.80528 18.4004 9.93375C18.3298 10.0237 18.1885 10.165 18.0921 10.2421C17.9508 10.3449 17.8159 10.377 17.5332 10.377C17.2506 10.377 17.1092 10.3449 16.9743 10.2421C16.878 10.165 16.7366 10.0108 16.6724 9.88879C16.6017 9.76673 16.5439 9.55474 16.5439 9.41342C16.5439 9.27209 16.6017 9.05368 16.6724 8.93163Z" fill="#0033D9"/>
<path d="M23.3533 2.73895L22.197 2.69398L22.2227 3.6126C22.2356 4.12009 22.2099 4.87811 22.1713 5.30209C22.1264 5.72607 22.0236 6.52263 21.9336 7.06867C21.8437 7.6147 21.5675 9.03438 21.3234 10.2164C21.0728 11.3984 20.8352 12.5932 20.7966 12.863C20.7516 13.1393 20.7388 13.3641 20.7645 13.3641C20.7966 13.3641 21.0279 13.332 21.2784 13.287C21.3034 13.2833 21.3281 13.2796 21.3522 13.2759C21.5759 13.2425 21.7544 13.2157 21.7602 13.2099C21.7666 13.2035 21.8052 13.0301 21.8437 12.8181C21.8823 12.6061 22.0172 11.9701 22.1392 11.4048C22.2677 10.8395 22.4732 9.98512 22.5953 9.50975C22.7174 9.03438 23.0899 7.7496 23.4176 6.65111C23.7516 5.55262 24.1499 4.24857 24.3105 3.7475C24.4711 3.24002 24.5867 2.81604 24.5546 2.80319C24.5289 2.79034 23.9893 2.75822 23.3533 2.73895Z" fill="#0033D9"/>
<path d="M27.1113 8.03225C26.5846 7.68536 26.4111 7.58258 26.3918 7.58258C26.3661 7.58258 26.2762 7.67894 26.1927 7.79457C26.1092 7.9102 25.8137 8.33418 25.5375 8.73888C25.3929 8.94593 25.2146 9.20509 25.0449 9.45187C24.8829 9.68746 24.7286 9.91176 24.6188 10.0686C24.3876 10.3898 24.2077 10.6789 24.2077 10.711C24.2077 10.7431 24.4068 10.8909 24.6445 11.0515C24.9978 11.2956 25.0814 11.3277 25.1327 11.2442C25.1433 11.2274 25.1993 11.1361 25.2884 10.9909C25.4713 10.6928 25.7935 10.1677 26.1477 9.59326L27.1113 8.03225Z" fill="#0033D9"/>
<path d="M24.394 11.7581C24.1756 11.6553 23.848 11.5526 23.6745 11.5269C23.4047 11.4947 23.3212 11.514 23.1735 11.6232C23.0771 11.7003 22.9486 11.8545 22.8972 11.9701C22.8394 12.0857 22.8009 12.2913 22.8073 12.4326C22.8201 12.5997 22.7752 12.8052 22.6788 13.0108C22.576 13.2356 22.5439 13.3962 22.576 13.544C22.5953 13.6596 22.7623 13.9358 22.9486 14.1671C23.257 14.5397 23.3084 14.5782 23.5268 14.5846C23.6617 14.5846 23.8929 14.5589 24.0407 14.5204C24.1949 14.4883 24.3876 14.3791 24.4775 14.2891C24.606 14.1542 24.6381 14.0643 24.6381 13.7881C24.6381 13.5183 24.5996 13.4091 24.4647 13.2292L24.2912 13.0108C24.7473 12.6767 24.8758 12.529 24.9015 12.4198C24.9208 12.3234 24.9079 12.1757 24.8694 12.0986C24.8308 12.0151 24.6188 11.8673 24.394 11.7581Z" fill="#0033D9"/>
<path d="M22.0493 14.0322C21.9336 13.9808 21.7602 13.9487 21.6638 13.9487C21.5675 13.9487 21.4326 13.9744 21.3619 14.0065C21.2913 14.0322 20.9251 14.1157 20.5589 14.1864C20.1863 14.2634 19.4926 14.3534 19.0172 14.3919C18.3619 14.4433 18.105 14.4883 17.9894 14.5782C17.8994 14.6425 17.7581 14.7902 17.681 14.9123C17.5782 15.06 17.5333 15.227 17.5333 15.4197C17.5397 15.5803 17.5911 15.8116 17.6489 15.9337C17.7131 16.0557 17.8609 16.2227 17.9894 16.3062C18.1757 16.4283 18.2913 16.454 18.7602 16.4476C19.0557 16.4476 19.5761 16.409 19.9165 16.3576C20.2506 16.3062 20.7516 16.1906 21.0214 16.1007C21.2977 16.0107 21.696 15.8501 21.9079 15.7409C22.1456 15.6253 22.3448 15.4711 22.4219 15.3427C22.5246 15.1821 22.5503 15.0472 22.5375 14.7709C22.5246 14.5204 22.4732 14.3662 22.3897 14.2634C22.3191 14.1864 22.1649 14.0772 22.0493 14.0322Z" fill="#0033D9"/>
<path fill-rule="evenodd" clip-rule="evenodd" d="M25.03 14.7645L24.9465 14.5975L24.7216 14.7966C24.5996 14.9123 24.3812 15.0407 24.2463 15.0857C24.1049 15.1242 23.9315 15.1628 23.848 15.1628C23.7388 15.1628 23.6809 15.227 23.6167 15.4069C23.5653 15.5354 23.4882 15.818 23.4497 16.03C23.3983 16.2677 23.3854 16.6017 23.4111 16.8972C23.4304 17.1606 23.4947 17.5525 23.5525 17.7645C23.6039 17.9765 23.7837 18.439 23.9572 18.7923C24.1242 19.1456 24.4261 19.6788 24.6317 19.9807C24.8372 20.2826 25.152 20.7002 25.3319 20.9122C25.5182 21.1178 25.8394 21.4197 26.0514 21.5739C26.2634 21.728 26.5781 21.895 26.758 21.9464C27.0278 22.0299 27.1242 22.03 27.394 21.9593C27.6124 21.9015 27.7666 21.8115 27.9015 21.6509C28.0042 21.5289 28.1391 21.3233 28.1841 21.2013C28.2355 21.0792 28.2805 20.7901 28.2869 20.5589C28.2869 20.2313 28.2548 20.0642 28.1199 19.788C28.0235 19.5889 27.7023 19.1649 27.394 18.8244C27.0856 18.4904 26.7259 18.0728 26.5974 17.893C26.4625 17.7195 26.2377 17.3726 26.0963 17.1221C25.955 16.878 25.6724 16.2806 25.4732 15.8052C25.2741 15.3298 25.0749 14.8609 25.03 14.7645ZM24.304 16.8459C24.2783 16.8909 24.2847 17.0579 24.3104 17.2185C24.3361 17.3791 24.4389 17.726 24.5353 17.9893C24.6381 18.2527 24.8308 18.6703 24.9657 18.9208C25.107 19.1842 25.4089 19.5696 25.6916 19.8587C25.9807 20.1542 26.244 20.3726 26.3468 20.3919C26.4496 20.4111 26.5717 20.3983 26.623 20.3469C26.6809 20.3084 26.7258 20.1799 26.7194 20.0771C26.713 19.9229 26.6102 19.7816 26.1862 19.3705C25.8971 19.0878 25.5246 18.651 25.3575 18.4069C25.1969 18.1564 24.9593 17.7581 24.8436 17.5075C24.7216 17.257 24.6059 16.9936 24.5802 16.9101C24.5545 16.833 24.4903 16.7688 24.4389 16.7688C24.3939 16.7688 24.3297 16.8073 24.304 16.8459Z" fill="#0033D9"/>
<path d="M21.2913 17.9508C21.3234 17.3276 21.3362 16.8137 21.3169 16.8073C21.2977 16.8073 21.1307 16.8459 20.9379 16.9037L20.6039 17C20.6681 17.5975 20.7259 17.9315 20.7773 18.1242C20.8287 18.3169 20.9251 18.6124 21.0022 18.7795C21.0728 18.9529 21.1563 19.0878 21.182 19.0878C21.2077 19.0878 21.2591 18.5739 21.2913 17.9508Z" fill="#0033D9"/>
<path d="M23.5396 19.3383C23.424 19.2677 23.2313 19.2227 23.0578 19.2227C22.9037 19.2227 22.6981 19.2548 22.6082 19.2869C22.5246 19.3255 22.1007 19.409 21.6767 19.4732C21.2527 19.5439 20.591 19.621 20.1992 19.6531C19.666 19.6916 19.454 19.7366 19.3191 19.8265C19.2228 19.8972 19.1007 20.0514 19.0493 20.1606C18.9915 20.2762 18.9465 20.5268 18.9465 20.7066C18.9465 20.9572 18.9851 21.1049 19.0943 21.2719C19.1778 21.394 19.3127 21.5353 19.4026 21.5803C19.5183 21.6445 19.8073 21.6574 20.5204 21.6317C21.2977 21.6124 21.5996 21.5739 22.0814 21.439C22.409 21.349 22.8908 21.1691 23.1542 21.0471C23.424 20.9186 23.6938 20.7452 23.7645 20.6424C23.8351 20.546 23.9122 20.3662 23.9315 20.2441C23.9572 20.0964 23.9251 19.9165 23.848 19.7366C23.7837 19.576 23.6552 19.409 23.5396 19.3383Z" fill="#0033D9"/>
<path d="M24.8886 23.2569C24.7859 23.1927 24.6381 23.1413 24.5674 23.1413C24.4968 23.1413 24.1499 23.2955 23.7966 23.4882C23.4433 23.6809 22.8266 23.9635 22.4283 24.1113C21.8309 24.3361 21.6767 24.4196 21.606 24.561C21.5546 24.6638 21.5161 24.8372 21.5161 24.9464C21.5161 25.062 21.5611 25.2997 21.606 25.4796C21.6703 25.6937 21.7795 25.8693 21.9336 26.0063C22.0814 26.1477 22.2227 26.2183 22.3512 26.2183C22.4604 26.2183 22.7109 26.1734 22.9165 26.1156C23.1156 26.0577 23.4882 25.91 23.7323 25.7879C23.9829 25.6659 24.3169 25.4667 24.4711 25.3511C24.6317 25.2355 24.9015 24.9914 25.0685 24.8115C25.3319 24.5289 25.3704 24.4453 25.3704 24.2077C25.3704 24.0535 25.3062 23.8158 25.2291 23.6552C25.1456 23.501 24.9978 23.3212 24.8886 23.2569Z" fill="#0033D9"/>
<path d="M28.0364 26.0449L27.7152 26.0128L27.2334 26.4817C26.97 26.7323 26.5524 27.092 26.3019 27.2783C26.0578 27.4582 25.7944 27.6444 25.7173 27.6894C25.6467 27.728 25.5375 27.85 25.4796 27.9528C25.4218 28.062 25.3704 28.2676 25.3704 28.4153C25.3704 28.6016 25.4347 28.8008 25.5632 29.0256C25.6724 29.2119 25.8522 29.4239 25.9679 29.4945C26.0835 29.5652 26.2762 29.623 26.3983 29.623C26.546 29.623 26.7708 29.5395 27.0342 29.3853C27.2591 29.2504 27.6381 28.9678 27.8693 28.7494C28.107 28.5374 28.4282 28.1584 28.5824 27.9207C28.8522 27.5031 28.8715 27.4517 28.8715 27.0406C28.8715 26.6166 28.865 26.5973 28.6145 26.3404C28.4025 26.122 28.3062 26.077 28.0364 26.0449Z" fill="#0033D9"/>
<path d="M31.2997 28.0748C31.1648 28.0427 31.0427 28.017 31.0235 28.017C31.0106 28.017 30.895 28.0556 30.7794 28.1005C30.6637 28.1455 30.5417 28.229 30.516 28.274C30.4903 28.3254 30.3425 28.6402 30.2012 28.9742C30.0535 29.3147 29.7772 29.8478 29.5781 30.1626C29.3276 30.5802 29.2312 30.805 29.2312 30.9656C29.2312 31.0941 29.2826 31.2804 29.3404 31.396C29.4046 31.5052 29.5652 31.6915 29.7066 31.8136C29.8543 31.9356 30.0792 32.0512 30.2205 32.0834C30.3682 32.1091 30.561 32.1026 30.6702 32.0641C30.7858 32.0256 30.9721 31.8521 31.1455 31.6273C31.2997 31.4217 31.5053 31.1005 31.6016 30.9014C31.698 30.7087 31.8393 30.3618 31.91 30.1305C31.9806 29.9057 32.0577 29.5588 32.0834 29.3596C32.1155 29.1541 32.1027 28.9164 32.0641 28.7815C32.0256 28.6594 31.8907 28.4667 31.7686 28.3511C31.6402 28.2354 31.4282 28.1134 31.2997 28.0748Z" fill="#0033D9"/>
<path d="M2.18012 29.7515C1.81396 29.6423 1.49918 29.5523 1.49276 29.5523C1.47991 29.5523 1.46064 29.5909 1.44779 29.6359C1.42852 29.6808 1.31931 30.1177 1.19726 30.6123C1.07521 31.1069 0.901761 31.9356 0.811826 32.4431C0.715467 32.957 0.599837 33.7985 0.542022 34.306C0.484206 34.82 0.419967 35.8157 0.400696 36.5223C0.368576 37.7107 0.375 37.8456 0.497054 38.2567C0.574141 38.5073 0.702619 38.8413 0.792554 38.9955C0.876065 39.1561 1.08805 39.4452 1.2615 39.6379C1.43495 39.8242 1.74329 40.094 1.95528 40.2289C2.16727 40.3702 2.51416 40.5308 2.72615 40.6015C2.93814 40.6657 3.50344 40.7685 3.97881 40.8199C4.46061 40.8777 5.27002 40.9612 5.77751 40.9998C6.34281 41.0511 7.99376 41.0833 9.95305 41.0833C11.7389 41.0833 13.7689 41.064 14.4691 41.0383L15.7346 40.9869C15.6896 40.7621 15.5868 40.3252 15.4776 39.8627C15.362 39.4066 15.1564 38.655 15.0151 38.1925C14.8738 37.7364 14.6618 37.1004 14.5397 36.7792C14.4112 36.4645 14.1414 35.8735 13.9295 35.4623C13.6725 34.9613 13.4541 34.6272 13.2485 34.4281C13.0815 34.2611 12.741 33.9913 12.4905 33.8307C12.2464 33.6637 11.7389 33.3746 11.3663 33.1883C11.0001 32.9956 10.3899 32.7065 10.0173 32.5395C9.65113 32.3789 8.95734 32.0898 8.47555 31.9035C8.00018 31.7108 7.16507 31.396 6.61262 31.2033C6.06658 31.0106 5.00022 30.6444 4.23577 30.4003C3.47775 30.1498 2.55271 29.8607 2.18012 29.7515Z" fill="#0033D9"/>
<path d="M33.9464 29.7194C33.5224 29.6616 33.1177 29.5973 33.0406 29.578C32.9699 29.5588 32.8864 29.578 32.8671 29.6102C32.8414 29.6487 32.8479 29.6937 32.8736 29.7065C32.8993 29.7194 33.092 29.7836 33.304 29.8414C33.5159 29.9057 33.8243 30.0213 33.9785 30.0984C34.1391 30.1755 34.3639 30.3489 34.4795 30.4774C34.5952 30.6059 34.7172 30.7857 34.7493 30.8692C34.7879 30.9592 34.8136 31.1712 34.8136 31.3382C34.82 31.5052 34.7815 31.7429 34.7429 31.865C34.6979 31.9934 34.4024 32.5973 34.0748 33.214C33.7536 33.8371 33.3746 34.4988 33.2333 34.6915C33.092 34.8906 32.8543 35.154 32.7065 35.2889C32.5588 35.4174 32.3018 35.6165 32.1348 35.7257C31.9678 35.8285 31.6145 36.002 31.3447 36.1047C31.0813 36.2075 30.6316 36.336 30.349 36.3938C30.0663 36.4516 29.5331 36.5287 29.1605 36.5608C28.7944 36.5994 28.1713 36.6829 27.7794 36.7536C27.394 36.8242 26.8287 36.9591 26.5267 37.049C26.2312 37.139 25.6659 37.3381 25.2741 37.4859C24.8886 37.6336 24.3233 37.8842 24.0214 38.0319C23.7259 38.1861 23.2184 38.4687 22.8972 38.6615C22.5825 38.8542 22.1199 39.1689 21.8694 39.3617C21.6253 39.5544 21.2142 39.9205 20.9572 40.1711C20.7003 40.428 20.4883 40.6529 20.4883 40.6657C20.4883 40.685 21.0921 40.7235 21.8244 40.7492C22.5568 40.7749 23.6167 40.8456 24.182 40.897C24.7473 40.9484 25.7302 41.0768 26.3661 41.186C27.0021 41.2888 28.0171 41.4623 28.6145 41.5651C29.2184 41.6743 30.1884 41.822 30.7665 41.8991C31.6016 42.0083 32.1926 42.0404 33.5416 42.0404C34.486 42.0468 35.2697 42.034 35.289 42.0147C35.3082 42.0019 35.2954 41.8863 35.2633 41.7578C35.2311 41.6357 35.1412 41.1025 35.0577 40.5694C34.9356 39.7535 34.9099 39.3617 34.9099 37.9677C34.9164 36.5416 34.9292 36.2268 35.0577 35.5266C35.1412 35.0898 35.2633 34.5245 35.3339 34.2739C35.4046 34.0298 35.5266 33.6508 35.6037 33.4388C35.6744 33.2268 35.8671 32.7836 36.0213 32.4431C36.1755 32.1091 36.4838 31.563 36.7022 31.2226C36.927 30.8885 37.229 30.471 37.3831 30.2911L37.6658 29.9699C35.3789 29.8543 34.3703 29.7772 33.9464 29.7194Z" fill="#0033D9"/>
<path d="M38.9249 30.0984L38.5651 30.0598L38.0705 30.5802C37.8007 30.8628 37.4217 31.3318 37.2354 31.6273C37.0427 31.9163 36.7857 32.3596 36.6637 32.6037C36.5352 32.8542 36.3425 33.3168 36.2333 33.6315C36.1241 33.9527 35.9763 34.4281 35.9056 34.6915C35.8414 34.9613 35.7322 35.4945 35.6744 35.8799C35.5973 36.3745 35.5652 36.9784 35.5588 37.8713C35.5588 38.5779 35.5973 39.4452 35.6423 39.7985C35.6872 40.1518 35.7772 40.7749 35.8543 41.1796C35.9249 41.5908 36.0149 41.9505 36.047 41.9826C36.0855 42.0276 36.4453 42.0083 37.1133 41.9312C37.6722 41.867 38.4559 41.7578 38.8606 41.6871C39.2718 41.6165 39.9656 41.4751 40.4024 41.3723C40.8456 41.2631 41.3981 41.1218 41.6229 41.0511C41.8542 40.9805 42.3617 40.8006 42.7471 40.6593C43.139 40.5115 43.8006 40.2225 44.2246 40.004C44.6486 39.7921 45.2846 39.4195 45.6379 39.1818C45.9912 38.9505 46.428 38.6165 46.6015 38.443C46.7813 38.2696 47.0062 37.9805 47.1025 37.8071C47.2053 37.6336 47.3274 37.3446 47.3787 37.1647C47.4301 36.9912 47.4751 36.6315 47.4751 36.3617C47.4751 36.0726 47.4237 35.7386 47.3595 35.5266C47.2952 35.3339 47.1282 34.9741 46.9869 34.7236C46.852 34.4795 46.5758 34.0619 46.3702 33.7921C46.1711 33.5288 45.7792 33.0919 45.503 32.8285C45.2267 32.5587 44.7835 32.1926 44.5137 31.9999C44.2503 31.8136 43.73 31.5116 43.3574 31.3253C42.9912 31.1326 42.4259 30.8885 42.1047 30.7793C41.7899 30.6637 41.2375 30.5031 40.8842 30.4196C40.5309 30.3361 40.0298 30.2397 39.76 30.2076C39.5861 30.1821 39.3618 30.1539 39.1741 30.1302C39.0774 30.1181 38.9904 30.1071 38.9249 30.0984Z" fill="#0033D9"/>
<path d="M47.6999 38.9313L47.488 38.5779L47.3723 38.8028C47.3145 38.9248 47.1282 39.1818 46.9676 39.3745C46.8006 39.5672 46.4537 39.8948 46.1839 40.1068C45.9205 40.3188 45.5158 40.6015 45.2846 40.7364C45.0597 40.8713 44.5522 41.1282 44.1604 41.3017C43.7749 41.4751 43.1261 41.7321 42.715 41.8734C42.3103 42.0147 41.5137 42.246 40.9484 42.3873C40.3831 42.5286 39.4773 42.7149 38.9249 42.8113C38.3788 42.9012 37.5116 43.0233 36.9977 43.0875C36.2654 43.1775 35.578 43.1967 33.7536 43.1967C31.6787 43.1967 31.3511 43.1839 30.5096 43.049C30.0021 42.9719 29.1348 42.792 28.5824 42.6571C28.0364 42.5222 27.2976 42.3488 26.9443 42.2781C26.591 42.201 25.8908 42.0854 25.3897 42.0147C24.8886 41.9441 23.9636 41.8541 23.3341 41.8156C22.6531 41.7706 21.4904 41.7578 20.4561 41.777C19.5054 41.7963 17.9701 41.8734 17.0515 41.9441C16.1329 42.0147 14.3599 42.1047 13.1008 42.1496C11.7774 42.1882 10.0815 42.2075 9.0537 42.1818C8.08369 42.1561 6.72825 42.1111 6.03446 42.0725C5.34711 42.0404 4.39637 41.9698 3.91457 41.9184C3.4392 41.8606 2.67476 41.7449 2.21224 41.6614C1.75614 41.5715 1.16514 41.4302 0.895337 41.3402C0.631956 41.2503 0.400696 41.1796 0.381424 41.1796C0.368576 41.1796 0.375 41.3723 0.400696 41.61C0.426391 41.8477 0.516326 42.7085 0.599837 43.5244C0.715467 44.6421 0.78613 45.0597 0.882489 45.2588C0.953152 45.4001 1.12017 45.6057 1.2615 45.7213C1.3964 45.837 1.64051 45.9783 1.79468 46.0297C1.95528 46.0811 2.59125 46.1903 3.20794 46.2802C3.83106 46.3701 4.76895 46.4729 5.29571 46.5179C5.8289 46.5629 7.12653 46.595 8.18647 46.595C9.24642 46.595 10.5633 46.5629 11.1094 46.5179C11.6618 46.4729 12.5676 46.383 13.1329 46.3188C13.6982 46.2481 14.4369 46.1453 14.771 46.0875C15.1115 46.0297 15.4648 45.9526 15.5675 45.9076C15.6703 45.8691 15.7924 45.7534 15.8438 45.6571C15.9016 45.5415 15.9273 45.246 15.9273 44.777C15.9273 44.0961 15.9337 44.0704 16.075 44.0383C16.1521 44.0254 16.8844 43.9483 17.6939 43.8712C19.0943 43.7299 19.2613 43.7235 20.7773 43.8006C21.6638 43.8455 22.8073 43.9226 23.3148 43.974C23.8287 44.0254 24.5674 44.1282 24.9529 44.2053C25.3447 44.2759 26.0514 44.4494 26.5267 44.5843C27.0085 44.7192 27.6445 44.8926 27.94 44.9633C28.2419 45.034 28.8522 45.1368 29.289 45.1946C29.7323 45.246 30.9335 45.323 31.9549 45.3616C33.2847 45.4066 34.2162 45.4066 35.199 45.3616C35.9635 45.323 37.0298 45.246 37.5759 45.1881C38.1283 45.1368 39.0084 45.0211 39.5352 44.9312C40.0683 44.8477 40.775 44.7192 41.109 44.6421C41.4495 44.5714 41.9505 44.4558 42.2332 44.3852C42.5159 44.3145 43.1133 44.141 43.5501 43.9933C43.9933 43.852 44.6036 43.6336 44.8991 43.5051C45.201 43.383 45.6764 43.1646 45.9591 43.0233C46.2417 42.882 46.6785 42.6378 46.9226 42.4773C47.1732 42.3231 47.5329 42.0597 47.7256 41.8927C47.9184 41.7321 48.1432 41.4815 48.2331 41.3402C48.3745 41.1154 48.3937 41.0319 48.3616 40.6978C48.3423 40.4858 48.2331 40.0811 48.1239 39.7985C48.0083 39.5158 47.822 39.124 47.6999 38.9313Z" fill="#0033D9"/>
</svg>
