<svg width="38" height="38" viewBox="0 0 38 38" fill="none" xmlns="http://www.w3.org/2000/svg">
<path fill-rule="evenodd" clip-rule="evenodd" d="M17.4856 0.0331091C17.3069 0.05253 17.0456 0.0809202 16.7988 0.106412C16.4371 0.14377 15.7201 0.255847 15.2087 0.361697C14.6912 0.461321 13.8681 0.673021 13.3692 0.828683C12.8704 0.978118 12.1595 1.2334 11.7791 1.38907C11.3988 1.54473 10.8375 1.80001 10.532 1.94945C10.2265 2.10511 9.77125 2.34794 9.5343 2.48493C9.29734 2.62191 8.80472 2.93323 8.44306 3.16984C8.08139 3.40644 7.45159 3.87343 7.04004 4.19721C6.62849 4.52721 5.96751 5.11872 5.56843 5.51722C5.17558 5.90949 4.65179 6.46987 4.4086 6.76251C4.17164 7.05516 3.7788 7.5595 3.54184 7.88328C3.30489 8.20706 2.91204 8.81102 2.66262 9.22197C2.41943 9.63292 2.03282 10.349 1.81457 10.8097C1.59009 11.2705 1.29701 11.9554 1.15983 12.3352C1.02265 12.715 0.823105 13.3128 0.717099 13.6739C0.604857 14.035 0.455202 14.6515 0.367903 15.0437C0.28684 15.436 0.168362 16.1085 0.112242 16.5381C0.0249426 17.1234 0 17.7336 0 18.9975C0 20.2677 0.0249426 20.8593 0.106006 21.4259C0.168362 21.8368 0.261897 22.3972 0.311782 22.6712C0.367903 22.9451 0.467673 23.381 0.53003 23.6363C0.598622 23.8915 0.710863 24.2963 0.785691 24.5391C0.854283 24.7819 1.03512 25.3112 1.19101 25.7221C1.3469 26.1331 1.66492 26.8616 1.89564 27.341C2.13259 27.8205 2.54414 28.5614 2.81227 28.991C3.08041 29.4207 3.47949 30.0059 3.69774 30.2986C3.92222 30.5912 4.30259 31.0644 4.55202 31.3571C4.79521 31.6497 5.33147 32.2101 5.73679 32.6086C6.14834 33.0009 6.77191 33.5613 7.13357 33.8477C7.49524 34.1341 8.06892 34.5513 8.41188 34.7817C8.75484 35.0058 9.25993 35.3234 9.5343 35.4852C9.80866 35.6409 10.4135 35.9522 10.875 36.1764C11.3364 36.3943 12.0847 36.7056 12.5274 36.8675C12.9701 37.0294 13.7621 37.266 14.2734 37.3968C14.7909 37.5275 15.5891 37.6956 16.0505 37.7641C16.512 37.8326 17.3538 37.9198 17.9212 37.9634C18.7007 38.0132 19.2182 38.0132 20.0725 37.9572C20.6899 37.9198 21.5878 37.8202 22.0679 37.7392C22.5481 37.6583 23.234 37.5213 23.5957 37.4341C23.9573 37.347 24.4749 37.2038 24.7493 37.1104C25.0236 37.0232 25.5973 36.8115 26.0276 36.6434C26.4578 36.4753 27.1999 36.139 27.68 35.8962C28.1602 35.6534 28.9209 35.2175 29.3636 34.9249C29.8064 34.6322 30.511 34.1217 30.9225 33.7916C31.3341 33.4679 32.0075 32.8577 32.4253 32.4467C32.8369 32.0358 33.4417 31.3758 33.7598 30.9835C34.0778 30.5912 34.5704 29.9188 34.851 29.4892C35.1316 29.0595 35.512 28.4431 35.699 28.1193C35.8799 27.7955 36.173 27.204 36.3538 26.8118C36.5284 26.4195 36.8028 25.7159 36.9649 25.2551C37.127 24.7944 37.339 24.0908 37.4388 23.6985C37.5386 23.3063 37.6633 22.7459 37.7194 22.4532C37.7693 22.1606 37.8566 21.5753 37.9065 21.1457C37.9626 20.6849 38 19.8008 38 18.9975C38 18.1819 37.9626 17.3039 37.9065 16.8183C37.8566 16.3762 37.7381 15.6415 37.6508 15.1994C37.5635 14.7573 37.3951 14.0662 37.2829 13.6739C37.1644 13.2816 36.9462 12.6216 36.784 12.2107C36.6282 11.7997 36.3351 11.1273 36.1355 10.7163C35.9422 10.3054 35.593 9.66405 35.3686 9.28424C35.1378 8.90442 34.7637 8.33159 34.533 8.00781C34.3023 7.68403 33.9468 7.20459 33.7348 6.94931C33.529 6.69402 33.024 6.13364 32.6062 5.71024C32.1946 5.28684 31.5648 4.70155 31.2031 4.39645C30.8415 4.09758 30.3364 3.70531 30.0807 3.52475C29.8251 3.33795 29.32 3.00795 28.9583 2.79002C28.5967 2.56587 27.9544 2.20473 27.5241 1.99303C27.0939 1.78133 26.3768 1.45756 25.934 1.28322C25.4913 1.10887 24.7991 0.872268 24.4063 0.753965C24.0135 0.641888 23.3525 0.473774 22.9409 0.386603C22.5294 0.299432 21.8684 0.187356 21.4755 0.131317C21.0515 0.0690527 20.1723 0.0192409 19.3243 0.00678792C18.5386 -0.00566503 17.7903 0.00056144 17.6718 0.0130144C17.6342 0.0169702 17.5688 0.0240677 17.4856 0.0331091ZM15.0217 5.80985C14.9905 5.82853 14.9718 7.90194 14.978 10.4174L14.9905 14.9814H5.76173V22.9513H14.9905V32.1665H22.9721V22.9513H32.2009V14.9814H22.9721V5.76626C16.8487 5.76626 15.0528 5.78494 15.0217 5.80985Z" fill="#0033D9"/>
</svg>
