<svg width="49" height="47" viewBox="0 0 49 47" fill="none" xmlns="http://www.w3.org/2000/svg">
<path d="M19.0661 2.5585C20.5022 4.24119 20.6219 7.02173 20.5022 8.20166L17.6301 10.4076L15.1683 12.8701C14.758 13.4344 13.8143 14.799 13.3219 15.743C12.8296 16.6869 12.6381 17.9831 12.6039 18.5132C12.5868 19.0776 12.6039 20.4217 12.809 21.2835C13.0142 22.1454 13.7493 23.5237 14.0912 24.1051L15.1683 25.7467C14.799 27.1421 15.3221 28.5854 15.6299 29.1326C15.7324 29.3378 16.1017 29.8509 16.7582 30.2613C17.4147 30.6717 18.4678 30.6375 18.9123 30.5691L19.6303 30.4152C19.5072 31.6875 20.1945 32.7921 20.5535 33.1855C20.7244 33.3394 21.21 33.6985 21.7844 33.9037C22.3588 34.1089 23.152 34.0576 23.4769 34.0063L24.2462 33.8524C24.041 35.0836 24.6052 36.2122 24.9129 36.6227C25.1694 36.8792 25.8053 37.4435 26.2977 37.6487C26.7901 37.8539 27.7337 37.8368 28.144 37.8026L28.7082 37.6487C28.7082 38.1822 29.0159 38.7944 29.1698 39.0338C29.1869 39.1022 29.3852 39.3929 30.0417 40.0085C30.6982 40.6242 31.7171 40.9149 32.1445 40.9833H33.0164C32.9753 41.0654 33.0335 41.3937 33.0677 41.5476C33.2044 41.8041 33.6113 42.4505 34.1447 42.984C34.6781 43.5176 35.803 44.1982 36.2988 44.4718C35.273 45.5388 32.9309 46.3528 31.888 46.6264C31.3068 46.7119 29.7134 46.9035 27.9902 46.9855C26.2669 47.0676 24.2291 46.7803 23.4256 46.6264L21.3228 42.984L18.3994 38.8799L14.8093 34.3654L10.9627 30.0561L6.39808 25.4902L0.5 20.1549L4.50044 16.0508L6.39808 13.3831C6.74 12.7675 7.56744 11.1669 8.14186 9.6894C8.71628 8.21191 8.92827 5.41428 8.96246 4.20014L8.8086 1.12206C10.4908 -0.0270918 13.2022 -0.0749731 14.3477 0.0447302C15.3221 0.181534 17.6301 0.875814 19.0661 2.5585Z" fill="#0033D9"/>
<path d="M17.1172 25.7467C17.0351 26.0751 17.0146 27.0806 17.0146 27.5423C17.0557 27.8706 17.2027 28.1237 17.2711 28.2092C17.3736 28.3802 17.7121 28.7222 18.2455 28.7222C18.7789 28.7222 19.4251 28.4144 19.6816 28.2605C20.1432 27.9185 21.0766 27.0703 21.1176 26.4137C21.1587 25.757 20.7928 25.285 20.6048 25.1311L19.3226 24.3103C19.1858 24.259 18.8302 24.1667 18.502 24.2077C18.1737 24.2487 17.7497 24.6352 17.5788 24.8233C17.4591 24.9943 17.1993 25.4184 17.1172 25.7467Z" fill="#0033D9"/>
<path d="M24.041 27.7988C23.4256 27.5936 22.7247 28.0553 22.4511 28.3118C22.287 28.3939 22.0408 28.7906 21.9382 28.9787C21.8357 29.201 21.61 29.7585 21.5279 30.21C21.4459 30.6614 21.5279 31.1163 21.5792 31.2873C21.6647 31.5096 21.9075 31.9747 22.1947 32.0568C22.4819 32.1389 23.1691 32.091 23.4769 32.0568C23.8701 31.9713 24.8001 31.6464 25.3745 31.0308C25.9489 30.4152 25.8532 29.6799 25.7335 29.3891C25.4258 28.9445 24.6565 28.004 24.041 27.7988Z" fill="#0033D9"/>
<path d="M27.6312 31.6464C27.344 31.8106 26.9986 32.1936 26.8619 32.3646C26.6396 32.6895 26.1746 33.483 26.0925 34.0576C26.0105 34.6322 26.1609 35.1178 26.2464 35.2888C26.2977 35.4085 26.5439 35.689 27.1183 35.8531C27.6927 36.0173 28.7595 35.6137 29.2211 35.3914C29.7682 35.1007 30.7495 34.2525 30.2981 33.1855C29.8468 32.1184 29.0159 31.6464 28.6569 31.5438C28.4347 31.5096 27.9184 31.4822 27.6312 31.6464Z" fill="#0033D9"/>
<path d="M32.9138 34.7758C32.0111 35.4735 31.17 36.4687 30.8623 36.8792C30.7084 37.1357 30.4622 37.741 30.7084 38.1104C30.9546 38.4798 31.529 38.8115 31.7855 38.9312C32.059 39.0167 32.7599 39.1364 33.3754 38.9312C33.9908 38.726 34.7602 37.9223 35.0679 37.5461C35.3756 36.9989 36.0423 35.7505 36.2475 35.1349C36.4526 34.5193 36.6065 33.0999 36.6578 32.4672C35.7859 32.946 33.8165 34.0781 32.9138 34.7758Z" fill="#0033D9"/>
<path d="M38.7093 39.0851C38.0938 39.2082 35.0166 40.5216 35.0166 40.5216L34.8114 40.6755C34.6063 40.8294 35.8372 41.958 35.8372 41.958C35.9569 42.1119 36.3501 42.4505 36.9655 42.5736C37.581 42.6967 38.0768 42.3513 38.2477 42.1632C38.4358 41.9409 38.8427 41.3732 38.9657 40.8807C39.0888 40.3882 39.1196 39.41 39.1196 38.9825L38.7093 39.0851Z" fill="#0033D9"/>
<path d="M24.9642 7.48343C24.3077 8.01697 23.6649 9.00538 23.4256 9.43289C23.3401 9.53549 23.1897 9.88434 23.2717 10.4589C23.3538 11.0335 23.8188 11.4165 24.041 11.5362C24.3488 11.7757 25.1488 12.1313 25.8874 11.6389C26.6259 11.1464 27.1183 10.5786 27.2722 10.3563C27.5286 9.8433 28.0517 8.58128 28.0928 7.63734C28.1338 6.69339 27.4602 6.56001 27.1183 6.61131C26.6738 6.67971 25.6207 6.9499 24.9642 7.48343Z" fill="#0033D9"/>
<path d="M31.529 9.22768C31.0367 9.47393 30.1272 10.1511 29.734 10.4589C29.3066 11.0061 28.4518 12.2647 28.4518 12.9214C28.4518 13.578 28.9646 13.9816 29.2211 14.1013C29.6143 14.2552 30.534 14.5117 31.0674 14.3065C31.6008 14.1013 32.2129 13.4002 32.4522 13.0753C32.6061 12.8359 32.9651 12.0698 33.1702 10.9206C33.3754 9.77148 33.0164 9.24478 32.8112 9.12508C32.589 9.05668 32.0214 8.98144 31.529 9.22768Z" fill="#0033D9"/>
<path d="M36.6578 11.4849C36.2065 11.7312 35.3072 12.5452 34.914 12.9214C34.5721 13.366 33.8677 14.4399 33.7857 15.1786C33.7036 15.9174 34.1276 16.2731 34.3499 16.3586C34.5379 16.4099 35.0987 16.533 35.8372 16.6151C36.7604 16.7177 37.4784 15.8969 37.581 15.6917C37.6835 15.4865 38.4016 14.5117 38.3503 13.024C38.3093 11.8338 38.0255 11.502 37.8887 11.4849C37.6665 11.3823 37.1091 11.2387 36.6578 11.4849Z" fill="#0033D9"/>
<path d="M41.6327 13.537C40.9762 13.4549 40.6069 13.8448 40.5044 14.05C40.1761 14.4604 39.8889 15.9311 39.7863 16.6151L39.017 24.9259C40.3847 23.2501 43.2124 19.3854 43.5816 17.3333C43.9509 15.2813 43.5987 14.4604 43.3765 14.3065C43.0688 14.0842 42.2892 13.6191 41.6327 13.537Z" fill="#0033D9"/>
<path d="M48.454 17.4359C48.2488 16.3278 46.7957 15.7088 46.0947 15.5378C45.7255 15.8661 45.7015 17.8634 45.7357 18.8211L46.0947 22.8226C46.9974 22.2069 47.6334 21.3348 47.8385 20.9757C48.1291 20.2575 48.6591 18.544 48.454 17.4359Z" fill="#0033D9"/>
</svg>
