<svg width="49" height="48" viewBox="0 0 49 48" fill="none" xmlns="http://www.w3.org/2000/svg">
<path d="M37.5995 44.4508C33.4718 47.246 27.8596 46.1659 25.0642 42.0382L8.53554 17.631C5.7402 13.5034 6.82033 7.89113 10.9481 5.0958C15.0757 2.30053 20.688 3.38066 23.4833 7.50832L40.0119 31.9153C42.8072 36.043 41.727 41.6552 37.5994 44.4506M23.5637 14.7636L15.2426 20.3987L24.816 34.5352L33.1371 28.9L23.5637 14.7636ZM12.7399 16.7036C12.2445 17.039 12.1149 17.7125 12.4504 18.2079C12.7858 18.7033 13.4593 18.833 13.9547 18.4975C14.4501 18.162 14.5797 17.4885 14.2443 16.9931C13.9088 16.4977 13.2352 16.368 12.7399 16.7036ZM16.9415 13.8581C16.4461 14.1937 16.3165 14.8671 16.6519 15.3625C16.9875 15.858 17.661 15.9876 18.1564 15.6521C18.6517 15.3166 18.7814 14.6431 18.4459 14.1477C18.1104 13.6523 17.4369 13.5227 16.9415 13.8581ZM21.1431 11.0128C20.6478 11.3483 20.5182 12.0218 20.8536 12.5171C21.1891 13.0126 21.8626 13.1423 22.358 12.8067C22.8534 12.4713 22.983 11.7977 22.6475 11.3023C22.312 10.8069 21.6385 10.6773 21.1431 11.0128ZM16.9955 9.5502C16.5001 9.8856 16.3704 10.5592 16.706 11.0546C17.0414 11.5499 17.715 11.6795 18.2104 11.3441C18.7057 11.0086 18.8354 10.335 18.4999 9.83973C18.1644 9.34431 17.4909 9.21469 16.9955 9.5502ZM12.9213 12.3093C12.4258 12.6448 12.2962 13.3184 12.6317 13.8137C12.9672 14.3091 13.6407 14.4387 14.1361 14.1032C14.6315 13.7678 14.7611 13.0942 14.4256 12.5988C14.0901 12.1035 13.4166 11.9739 12.9212 12.3093M12.8027 7.74665C12.3073 8.08215 12.1777 8.75571 12.5132 9.25105C12.8486 9.74651 13.5222 9.87615 14.0176 9.54058C14.5129 9.20515 14.6425 8.53158 14.3071 8.03619C13.9716 7.54086 13.298 7.41122 12.8027 7.74665ZM35.8088 32.669C36.3042 32.3335 36.4339 31.6599 36.0983 31.1646C35.7629 30.6692 35.0893 30.5396 34.594 30.8751C34.0986 31.2105 33.9689 31.8841 34.3044 32.3795C34.6398 32.8749 35.3134 33.0045 35.8088 32.669ZM31.6072 35.5144C32.1026 35.1788 32.2322 34.5053 31.8967 34.01C31.5612 33.5145 30.8877 33.3849 30.3923 33.7205C29.8969 34.0559 29.7673 34.7294 30.1028 35.2249C30.4383 35.7202 31.1118 35.8498 31.6072 35.5144ZM27.4055 38.3597C27.9009 38.0243 28.0305 37.3507 27.695 36.8553C27.3595 36.36 26.686 36.2304 26.1907 36.5658C25.6953 36.9013 25.5656 37.5748 25.9011 38.0702C26.2366 38.5657 26.9101 38.6953 27.4055 38.3597ZM31.5531 39.8223C32.0486 39.4869 32.1782 38.8134 31.8426 38.3179C31.5072 37.8226 30.8337 37.6929 30.3383 38.0284C29.8429 38.3639 29.7133 39.0374 30.0488 39.5328C30.3843 40.0282 31.0577 40.1578 31.5532 39.8224M35.6275 37.0632C36.123 36.7277 36.2526 36.0542 35.917 35.5588C35.5816 35.0635 34.908 34.9338 34.4127 35.2692C33.9173 35.6048 33.7877 36.2783 34.1231 36.7736C34.4587 37.2691 35.1322 37.3988 35.6275 37.0632ZM35.746 41.6257C36.2414 41.2903 36.371 40.6168 36.0355 40.1214C35.7 39.626 35.0265 39.4964 34.5311 39.8318C34.0357 40.1674 33.9061 40.8409 34.2416 41.3362C34.577 41.8317 35.2506 41.9613 35.746 41.6257ZM37.6548 26.613L41.5387 23.9828C45.6664 21.1875 46.7465 15.5753 43.9512 11.4475C41.1559 7.31983 35.5437 6.2397 31.4159 9.03502L27.532 11.6652L37.6548 26.613ZM10.8928 22.9335L7.00891 25.5637C2.88119 28.3589 1.80106 33.9712 4.59639 38.0989C7.39164 42.2267 13.0039 43.3068 17.1316 40.5115L21.0155 37.8813L10.8928 22.9335Z" fill="#0033D9"/>
</svg>
