<svg width="49" height="48" viewBox="0 0 49 48" fill="none" xmlns="http://www.w3.org/2000/svg">
<path d="M34.2198 1.65234C29.8893 4.33969 25.9773 7.0725 22.4835 9.84094C19.8112 7.8855 16.934 5.95097 13.8497 4.03706C16.3944 6.58425 18.7112 8.87803 20.9425 11.0888C19.7712 12.0553 18.649 13.0238 17.5792 13.9981C13.5828 10.9852 9.16591 8.01028 4.32822 5.08013C8.44159 9.04106 12.1195 12.5276 15.6017 15.8584C14.6407 16.7933 13.7058 17.7546 12.798 18.7412C9.73206 16.4232 6.37797 14.1321 2.73447 11.8712C5.84303 14.9828 8.65741 17.7617 11.3214 20.4053C7.11522 25.3078 4.15966 30.2829 2.46484 35.2853C6.52909 30.3583 10.0965 26.3 13.5273 22.5967C14.3636 23.431 15.1864 24.2573 16.003 25.081C11.7181 30.0393 8.7145 35.0732 7 40.1339C11.1161 35.1441 14.7231 31.0463 18.1943 27.3048C19.0743 28.2053 19.9493 29.1106 20.8193 30.0207C16.1339 35.2537 12.879 40.5728 11.0665 45.923C15.4702 40.5843 19.2912 36.2645 22.9873 32.3116C26.7999 36.386 30.7406 40.8375 35.2861 46.3478C33.4181 40.8341 30.0548 35.3534 25.2108 29.962C25.9853 29.152 26.7586 28.3518 27.5341 27.5567C32.4062 32.5133 37.4198 37.9018 43.2869 44.6895C40.773 38.0436 36.3709 31.4376 30.1004 24.9493C30.8551 24.1888 31.6161 23.4287 32.3885 22.6583C36.7862 27.2744 41.2545 32.2518 46.5361 38.6543C44.4473 32.4892 40.4965 26.3632 34.7029 20.3585C37.2289 17.8529 39.888 15.2263 42.8241 12.2873C39.3465 14.4454 36.1388 16.6322 33.2001 18.8438C32.077 17.7428 30.8914 16.6457 29.6434 15.5538C32.4592 12.7556 35.4341 9.82509 38.7547 6.50109C34.7685 8.97478 31.1366 11.4874 27.8591 14.0303C26.7508 13.1079 25.6237 12.2084 24.4785 11.3322C27.4794 8.34516 30.6504 5.22534 34.2196 1.65253L34.2198 1.65234ZM22.838 12.9698C23.7815 13.9053 24.7229 14.8428 25.6623 15.7823C24.7068 16.5671 23.7672 17.371 22.8439 18.1934C21.9013 17.3971 20.9461 16.6157 19.9788 15.8497C20.9206 14.8915 21.8748 13.934 22.8381 12.9697L22.838 12.9698ZM27.5283 17.663C28.5716 18.7175 29.6063 19.7709 30.6368 20.8359C29.7782 21.5236 28.9314 22.2259 28.0968 22.9425C27.1097 21.9848 26.1026 21.0481 25.0761 20.1328C25.8909 19.307 26.7083 18.4837 27.5283 17.6631V17.663ZM17.8605 18.0263C18.7042 18.8379 19.546 19.6514 20.3858 20.4669C19.5613 21.2626 18.7554 22.0772 17.9688 22.9103C17.0941 22.1564 16.2063 21.4181 15.3057 20.6954C16.1598 19.7907 17.0103 18.9055 17.8605 18.0263ZM22.6183 22.6435C23.5414 23.5515 24.4603 24.4637 25.3751 25.3801C24.5819 26.1214 23.8043 26.8794 23.0431 27.6535C22.1616 26.7553 21.259 25.878 20.336 25.0225C21.0926 24.2256 21.8534 23.4325 22.6183 22.6435Z" fill="#0033D9"/>
</svg>
