<svg width="49" height="48" viewBox="0 0 49 48" fill="none" xmlns="http://www.w3.org/2000/svg">
<path d="M13.2198 1.35651C12.2917 3.00445 11.6354 4.6417 11.2363 6.29882C8.42383 6.30351 5.57814 6.87239 2.77539 8.11223C5.6072 7.99551 8.29286 8.22998 10.8323 8.77448C10.6629 10.6942 10.8166 12.6595 11.2746 14.7188C12.0916 12.8907 12.661 11.0991 13.0148 9.32817C14.8793 9.87698 16.6605 10.5977 18.3585 11.4756C17.5423 13.4737 16.8937 15.5772 16.3986 17.6456C18.0064 16.2557 19.408 14.5957 20.5177 12.7031C22.0208 13.6364 23.4532 14.696 24.8156 15.8699C23.4193 17.6189 22.3261 19.5868 21.4875 21.7792C23.425 20.571 25.2661 19.2817 26.9573 17.8681C28.0613 18.9769 29.1163 20.162 30.1182 21.4189C28.426 22.6855 26.8815 24.1864 25.422 25.9071C27.6101 25.249 29.7264 24.4849 31.7267 23.5605C32.653 24.864 33.5312 26.2296 34.3605 27.6503C32.4923 28.6412 30.8361 29.9159 29.295 31.4207C31.435 30.9932 33.5302 30.4682 35.5528 29.7977C36.3601 31.3193 37.1087 32.8712 37.797 34.4501C36.168 35.006 34.5908 35.8439 33.0392 36.9461C34.9095 36.8431 36.7707 36.6824 38.6027 36.3748C39.8076 39.3644 40.8486 42.491 41.7227 45.7029C42.298 42.4505 42.2233 39.0691 41.6143 35.7126C43.1098 35.2994 44.5796 34.7507 46.0148 34.0164C44.3315 33.6639 42.7311 33.5692 41.1895 33.7145C40.7406 31.8808 40.1376 30.0648 39.3966 28.2917C41.2028 27.4635 42.9278 26.4802 44.55 25.3006C42.261 25.3077 40.2267 25.577 38.386 26.0713C37.5916 24.4589 36.685 22.8955 35.6817 21.3983C37.5708 20.1752 39.3033 18.732 40.8264 17.0009C38.2824 17.406 36.0339 18.1024 34.0002 19.0692C32.8192 17.549 31.5358 16.1192 30.1682 14.8064C31.7198 13.1001 33.0561 11.217 34.1085 9.10242C31.6882 10.1301 29.6282 11.3564 27.88 12.7821C26.082 11.3236 24.17 10.0655 22.1788 9.05554C22.747 7.37554 23.1116 5.56804 23.2247 3.65029C21.994 4.89529 20.9185 6.40204 19.9903 8.06235C17.8556 7.20173 15.6488 6.63145 13.4072 6.4071C13.5247 4.71539 13.4552 3.03632 13.2197 1.35632L13.2198 1.35651Z" fill="#0033D9"/>
</svg>
