<svg width="49" height="48" viewBox="0 0 49 48" fill="none" xmlns="http://www.w3.org/2000/svg">
<path d="M42.4293 10.6435C42.3628 10.6457 42.2964 10.6496 42.2301 10.6553C28.5433 11.815 15.0962 14.8585 3.91869 20.9326C2.94725 21.4606 2.49332 22.2432 2.33947 23.4024C2.18572 24.5617 2.41766 26.0712 2.96947 27.7003C4.02097 30.8053 6.21182 34.3093 8.53578 36.8994L10.1851 36.4569L6.72219 23.5313L8.4125 23.0801L11.8756 36.003L13.8472 35.4728L10.3843 22.5528L12.0748 22.0988L15.5375 35.0185L17.2981 34.5469L13.8383 21.627L15.5318 21.1729L18.9917 34.0898L20.893 33.5801L17.4302 20.6632L19.1235 20.209L22.5835 33.1261L24.5552 32.5958L21.0953 19.6817L22.7856 19.2276L26.2456 32.1417L28.2172 31.6143L24.7573 18.7003L26.4477 18.2461L29.9108 31.1573L31.7417 30.6679L28.2818 17.7567L29.9721 17.3027L33.4321 30.2109L35.5387 29.6456L32.0817 16.7372L33.7751 16.2831L37.2321 29.1914L39.2008 28.664L35.7438 15.7558L37.4371 15.3019L40.8942 28.2071L42.7954 27.6973L39.3385 14.7949L41.0291 14.3409L44.4861 27.2432L46.1442 26.7978C46.8639 23.3853 47.0109 19.1753 46.3698 15.92C46.0336 14.2121 45.4745 12.7796 44.7704 11.874C44.1541 11.0816 43.5062 10.6714 42.6228 10.6435C42.5597 10.6416 42.4948 10.6416 42.4295 10.6435H42.4293Z" fill="#0033D9"/>
</svg>
