<svg width="49" height="48" viewBox="0 0 49 48" fill="none" xmlns="http://www.w3.org/2000/svg">
<path d="M26.8205 2.02777C25.3287 2.0168 23.8205 2.17055 22.3221 2.50402C18.2957 3.40055 16.7911 6.12914 16.9657 8.73793C17.8399 8.78799 18.7479 8.9138 19.6764 9.1118C22.3935 9.69118 25.2965 10.9 28.0248 12.7135C37.426 10.3426 43.2337 17.4952 45.3404 26.9804C49.9998 13.1294 38.9669 2.11646 26.8203 2.02786L26.8205 2.02777ZM16.2703 10.4773C14.6953 10.4666 13.3411 10.7527 12.3594 11.2966L12.3556 11.2897C11.03 12.0064 10.1229 13.1111 9.6228 14.3541C10.9944 14.8082 12.3211 15.6507 13.5561 16.7416C15.2173 18.2089 16.7295 20.1463 17.968 22.3349C28.9299 22.5578 33.1089 32.0277 32.0935 42.5155C39.5467 32.4964 36.0474 20.9774 27.982 14.8214C25.171 12.7649 22.0927 11.4186 19.3109 10.8255C18.2398 10.5971 17.2152 10.4838 16.2703 10.4775V10.4773ZM7.55748 15.7465C2.47501 15.6192 -0.446891 23.3221 4.99586 25.8946C14.7866 30.5224 13.8939 39.1096 8.26248 46.7737C19.0563 42.2859 20.8566 30.6262 15.9497 22.3925L15.964 22.3916C14.9065 20.6851 13.6785 19.1874 12.3962 18.0547C11.0256 16.844 9.60808 16.0688 8.2937 15.8201C8.05031 15.778 7.80421 15.7534 7.5573 15.7465H7.55748Z" fill="#0033D9"/>
</svg>
