<svg width="49" height="48" viewBox="0 0 49 48" fill="none" xmlns="http://www.w3.org/2000/svg">
<path fill-rule="evenodd" clip-rule="evenodd" d="M10.6042 3.61956C10.8402 3.46151 11.1941 3.25288 11.3908 3.16437C11.5874 3.07586 11.8299 3 11.9348 3C12.0331 3 12.2297 3.0569 12.374 3.12644C12.5182 3.19598 12.6755 3.3161 12.7279 3.39829C12.7803 3.47415 13.0884 4.2075 13.4161 5.02304C13.7373 5.83858 14.3403 7.36218 14.7533 8.40531C14.8209 8.57621 14.8935 8.75951 14.969 8.95007C15.3541 9.92263 15.8142 11.0846 16.0773 11.756C16.3919 12.5589 16.936 13.9371 17.2899 14.8221C17.6439 15.7072 18.2076 17.136 18.5419 17.9958C18.8827 18.8619 19.1711 19.5636 19.1908 19.5636C19.2104 19.5636 19.4333 19.0326 19.6955 18.3814C19.8541 17.9733 20.0987 17.3557 20.3382 16.7508L20.3389 16.749L20.3391 16.7485L20.3392 16.7483C20.4852 16.3796 20.6292 16.0158 20.7508 15.7072C20.8405 15.4792 20.9575 15.1826 21.0901 14.8461L21.0978 14.8265L21.0979 14.8263C21.4387 13.9618 21.8806 12.8406 22.2321 11.9456C22.4731 11.3402 22.8183 10.467 23.1862 9.53638L23.1867 9.53524L23.1867 9.53515C23.5793 8.54221 23.9976 7.48406 24.3427 6.61618C25.0047 4.94085 25.6012 3.49312 25.6667 3.40461C25.7257 3.30978 25.8896 3.18334 26.0272 3.12012C26.1583 3.05058 26.3484 3 26.4533 3C26.5516 3 26.8334 3.09483 27.0891 3.21495C27.3447 3.34139 27.7183 3.56898 27.9281 3.72703C28.1313 3.88508 28.4328 4.17589 28.5966 4.37187C28.7605 4.57418 29.0227 4.97879 29.18 5.27592C29.3439 5.57305 29.5471 6.04088 29.6388 6.31905C29.7371 6.59722 29.842 7.06505 29.8813 7.36218C29.9338 7.76679 29.9338 8.02599 29.8748 8.40531C29.8224 8.7467 29.5929 9.4358 29.18 10.5232C29.0687 10.8122 28.9567 11.1038 28.8532 11.3736L28.853 11.374L28.8518 11.3771L28.8518 11.3773C28.6388 11.932 28.4617 12.3933 28.4 12.5462C28.3412 12.692 28.1937 13.0763 28.0178 13.5349L28.0177 13.5351L28.0147 13.5428C27.9168 13.798 27.8102 14.0758 27.7052 14.348C27.4168 15.113 26.2108 18.2676 25.0244 21.3654C23.838 24.4632 22.8024 27.169 22.5664 27.7886L22.8745 28.4018C23.0449 28.7369 23.2546 29.2869 23.3464 29.6156C23.4316 29.9444 23.5561 30.6019 23.6151 31.0697C23.6872 31.6323 23.7397 32.7071 23.7659 34.218C23.8052 36.2221 23.8249 36.5003 23.9101 36.4687C23.9625 36.4434 24.3755 36.3043 24.8277 36.1526C25.28 36.0008 25.883 35.8365 26.1714 35.7796C26.4598 35.7164 26.9449 35.6595 27.2529 35.6342C27.5741 35.6152 28.0329 35.6342 28.3345 35.6847C28.6229 35.729 29.062 35.8302 29.3176 35.9187C29.5733 36.0008 29.9666 36.1715 30.2025 36.298C30.4385 36.4181 30.8055 36.6583 31.0219 36.8227C31.2382 36.9871 31.5659 37.2905 31.7494 37.4928C31.9329 37.7015 32.1689 37.9923 32.2803 38.1503C32.3918 38.3084 32.5819 38.6308 32.7064 38.8774C32.8375 39.1239 33.0145 39.5475 33.1062 39.8257C33.198 40.1038 33.3094 40.5717 33.3553 40.8688C33.4012 41.2102 33.4208 41.6843 33.3946 42.1648C33.3684 42.582 33.2963 43.1384 33.2242 43.3976C33.1587 43.6568 33.0013 44.0993 32.8834 44.3775C32.7654 44.6557 32.5163 45.0982 32.3393 45.3574C32.1624 45.6166 31.8215 46.0275 31.5855 46.2678C31.3496 46.5017 30.976 46.8178 30.7597 46.9695C30.5434 47.1149 30.1829 47.3299 29.96 47.4373C29.7306 47.5448 29.2914 47.7092 28.9768 47.7977C28.4918 47.9431 28.2689 47.9684 27.5807 47.9684C26.958 47.9684 26.6368 47.9431 26.237 47.842C25.9486 47.7724 25.4504 47.5891 25.1358 47.4373C24.8146 47.2856 24.3296 46.9822 24.0543 46.7735C23.7724 46.5586 23.3857 46.1919 23.1891 45.9517C22.9924 45.7114 22.704 45.3068 22.5467 45.0413C22.396 44.7821 22.1862 44.3396 22.0813 44.0614C21.9765 43.7832 21.8454 43.3154 21.7864 43.0183C21.7077 42.6137 21.6618 41.7918 21.616 39.7624C21.5832 38.2704 21.5242 36.848 21.4849 36.6014C21.4521 36.3549 21.3734 35.9629 21.321 35.7164C21.262 35.4698 21.1571 35.0905 21.0785 34.8629C21.0064 34.6353 20.8229 34.2244 20.6787 33.9462C20.5082 33.6238 20.2657 33.3013 20.0101 33.0548C19.7413 32.7829 19.5447 32.6502 19.3874 32.6186C19.2629 32.5933 19.0662 32.5933 18.9613 32.6186C18.8434 32.6439 18.6008 32.8209 18.3649 33.0485C18.0765 33.333 17.8864 33.6048 17.6635 34.041C17.48 34.4014 17.2768 34.9324 17.1654 35.3686C17.0605 35.7669 16.9425 36.3675 16.8966 36.6963C16.8573 37.025 16.7983 38.4791 16.7655 39.9205C16.7197 41.8171 16.6738 42.6769 16.6017 43.0183C16.5492 43.2775 16.4378 43.6758 16.3657 43.9033C16.2871 44.1309 16.1166 44.5103 15.9921 44.7568C15.8676 45.0034 15.6775 45.3258 15.5661 45.4838C15.4546 45.6419 15.2187 45.9327 15.0351 46.1413C14.8516 46.3436 14.4649 46.685 14.1765 46.8873C13.8881 47.096 13.4424 47.3615 13.1933 47.4816C12.9442 47.5954 12.4985 47.7534 12.2101 47.8293C11.8234 47.9305 11.476 47.9684 10.8992 47.9684C10.4403 47.9747 9.96185 47.9431 9.7521 47.8925C9.55546 47.8483 9.22773 47.7534 9.03109 47.6839C8.83445 47.6144 8.52639 47.4879 8.34286 47.3994C8.16588 47.3109 7.83815 47.1149 7.62185 46.9695C7.40555 46.8178 7.03193 46.5017 6.79597 46.2678C6.56 46.0275 6.21916 45.6166 6.04218 45.3574C5.86521 45.0982 5.62269 44.6683 5.51126 44.4091C5.39328 44.1499 5.23597 43.6821 5.15076 43.366C5.02622 42.8981 5 42.6263 5 41.8171C5 41.2102 5.03277 40.7044 5.08521 40.4895C5.13765 40.2998 5.23597 39.9584 5.30807 39.7308C5.38672 39.5032 5.53092 39.1492 5.64235 38.9406C5.74723 38.7319 5.96353 38.3716 6.12084 38.1314C6.27815 37.8974 6.60588 37.5118 6.85496 37.2779C7.09748 37.0377 7.47109 36.7279 7.6874 36.5888C7.9037 36.4497 8.23798 36.26 8.42807 36.1652C8.6116 36.0767 9.02454 35.9313 9.33916 35.8428C9.66034 35.7543 10.1519 35.6658 10.4403 35.6405C10.7353 35.6215 11.2531 35.6405 11.6202 35.6847C11.9807 35.729 12.6165 35.8428 13.0294 35.9439C13.4424 36.0388 13.9995 36.1905 14.7336 36.4434L14.7598 33.7755C14.7795 31.6956 14.8057 30.9622 14.8909 30.4691C14.9499 30.1214 15.0613 29.6093 15.14 29.3311C15.2187 29.053 15.4087 28.5978 15.8217 27.8139L15.5529 27.0868C15.4022 26.6885 14.5501 24.4569 13.6521 22.1241C13.2883 21.1721 12.9278 20.2306 12.6169 19.4187L12.6147 19.413C12.1648 18.2381 11.8192 17.3354 11.7185 17.0665C11.5481 16.6113 10.7484 14.5377 8.4805 8.65819V7.80472C8.4805 7.03344 8.50017 6.90067 8.66403 6.44549C8.76235 6.16732 8.99177 5.66788 9.16219 5.33914C9.33916 5.0104 9.64067 4.55521 9.83076 4.32762C10.0274 4.10003 10.3748 3.78393 10.6042 3.61956ZM18.2207 27.3587C18.2993 27.2828 18.4763 27.1753 18.6008 27.1184C18.745 27.0615 18.9679 27.0299 19.1973 27.0363C19.4988 27.0489 19.6168 27.0932 19.8134 27.2449C19.9511 27.346 20.1215 27.5167 20.2002 27.6116C20.2985 27.738 20.3444 27.9087 20.364 28.1805C20.3837 28.484 20.3575 28.6294 20.246 28.838C20.1739 28.9898 20.0101 29.1794 19.8987 29.2616C19.7807 29.3501 19.5513 29.4513 19.3874 29.4892C19.1776 29.5398 19.0203 29.5461 18.8303 29.4955C18.686 29.4639 18.4697 29.3691 18.3452 29.2869C18.2207 29.2047 18.0503 29.015 17.965 28.857C17.8667 28.6737 17.8143 28.465 17.8143 28.269C17.8143 28.1047 17.8667 27.8644 17.9388 27.738C18.0044 27.6052 18.1355 27.4345 18.2207 27.3587ZM9.22773 37.967C9.4637 37.8595 9.79798 37.7268 9.98151 37.6825C10.1585 37.6319 10.5255 37.5877 10.7877 37.5877C11.0434 37.5814 11.5612 37.6383 11.9282 37.7078C12.3018 37.7837 12.8524 37.9101 13.1605 37.9986C13.4686 38.0934 13.9471 38.2641 14.7402 38.6245L14.7336 40.2556C14.7336 41.147 14.7008 42.1016 14.6681 42.3734C14.6287 42.639 14.537 43.0436 14.4649 43.2712C14.3928 43.4987 14.2355 43.8528 14.1175 44.0614C13.9929 44.27 13.7242 44.6241 13.5145 44.8453C13.2982 45.0666 12.9639 45.3511 12.7672 45.4775C12.5706 45.604 12.197 45.781 11.9479 45.8632C11.5939 45.9833 11.3514 46.0149 10.8664 46.0212C10.3748 46.0212 10.1388 45.9896 9.7521 45.8632C9.45059 45.7683 9.08353 45.585 8.80168 45.389C8.5526 45.2183 8.20521 44.9022 8.02823 44.6936C7.85781 44.485 7.60874 44.1183 7.4842 43.8717C7.35966 43.6252 7.1958 43.189 7.1237 42.8918C7.00571 42.443 6.98605 42.2343 7.01882 41.6274C7.03193 41.2291 7.09748 40.7297 7.16302 40.5211C7.22202 40.3125 7.37933 39.9268 7.51042 39.6676C7.68739 39.3199 7.89059 39.0607 8.27731 38.6814C8.64437 38.321 8.93277 38.1061 9.22773 37.967ZM26.5319 37.7141C26.2239 37.7773 25.6929 37.9227 25.3521 38.0239C25.0113 38.1314 24.4934 38.34 24.205 38.4917L23.6807 38.7572C23.6479 40.9067 23.6741 41.8297 23.7069 42.1964C23.7462 42.5631 23.838 43.0436 23.9166 43.2712C23.9887 43.4987 24.1592 43.8654 24.2903 44.093C24.4148 44.3206 24.7294 44.7062 24.985 44.9528C25.2407 45.1994 25.6143 45.4839 25.8109 45.5976C26.0076 45.7051 26.4074 45.8505 26.6958 45.9264C26.9842 45.9959 27.3709 46.0528 27.5479 46.0528C27.7314 46.0528 28.0657 46.0086 28.3017 45.9517C28.5376 45.9011 28.9178 45.7683 29.1538 45.6545C29.4356 45.5218 29.7437 45.2942 30.078 44.9781C30.4844 44.5925 30.6286 44.3965 30.8776 43.9034C31.0415 43.5683 31.225 43.0752 31.2906 42.797C31.3758 42.4114 31.3955 42.1142 31.3627 41.5642C31.343 41.0774 31.284 40.6918 31.1857 40.3946C31.1071 40.1481 30.9366 39.7688 30.8055 39.5412C30.6745 39.3073 30.3598 38.9279 30.078 38.6498C29.7437 38.3273 29.4422 38.1061 29.1538 37.967C28.9178 37.8595 28.5639 37.7268 28.3672 37.6762C28.1706 37.6256 27.8035 37.5877 27.5479 37.5877C27.2923 37.5877 26.84 37.6446 26.5319 37.7141Z" fill="#0033D9"/>
<path d="M38.9857 15.4543V9.22717C38.9857 3.73335 38.9988 3 39.084 3C39.1365 3 39.3069 3.09483 39.4642 3.20863C39.615 3.32242 39.923 3.6322 40.1524 3.8914C40.3819 4.14428 40.6899 4.52992 40.8407 4.73855C40.9849 4.94718 41.2012 5.31385 41.3192 5.56041C41.4306 5.80065 41.5813 6.23054 41.6403 6.50871C41.7387 6.93228 41.7518 7.20413 41.719 8.15243C41.6993 8.77831 41.6207 9.67603 41.5486 10.1439C41.4765 10.6117 41.4109 11.3008 41.4109 11.6738C41.4109 12.2364 41.4371 12.4387 41.5813 12.8434C41.6731 13.1152 41.8566 13.5198 41.9812 13.7474C42.1123 13.975 42.4072 14.4302 42.6301 14.7589C42.8595 15.0877 43.0496 15.3785 43.0496 15.4038C43.0496 15.4354 42.1319 15.4543 38.9857 15.4543Z" fill="#0033D9"/>
<path d="M38.6908 16.4848C38.6187 16.5354 38.5138 16.7124 38.4613 16.8831C38.3761 17.155 38.363 18.9694 38.363 31.5754V45.958C38.6908 46.6218 38.9464 46.9695 39.1365 47.1655C39.3397 47.3741 39.6346 47.5891 39.8706 47.7029C40.0869 47.804 40.4671 47.9241 40.7227 47.9621C41.0701 48.0126 41.2929 48.0126 41.6403 47.9621C41.896 47.9178 42.263 47.8103 42.4597 47.7218C42.6563 47.6333 42.984 47.4057 43.1807 47.2224C43.4232 46.9948 43.6133 46.7419 43.7706 46.4258L44 45.958C44 18.9694 43.9869 17.155 43.9017 16.8831C43.8492 16.7124 43.7444 16.5354 43.6723 16.4848C43.5674 16.4216 43.0627 16.4026 41.1815 16.4026C39.3003 16.4026 38.7956 16.4216 38.6908 16.4848Z" fill="#0033D9"/>
</svg>
