<svg width="29" height="32" viewBox="0 0 29 32" fill="none" xmlns="http://www.w3.org/2000/svg">
<path d="M24.4824 32H2.91457C1.3049 32 0 30.9839 0 29.7305V6.46808L2.03857 5.74655C2.49417 5.58529 2.49417 5.08137 2.03856 4.92012L0 4.19858V2.2695C0 1.01609 1.3049 0 2.91457 0H24.3367C25.9464 0 27.2513 1.01609 27.2513 2.2695V2.7234H28.7085C28.8695 2.7234 29 2.82501 29 2.95035V3.97163C29 4.09697 28.8695 4.19858 28.7085 4.19858H27.1055L25.2838 4.90784C24.8452 5.0786 24.8569 5.56904 25.3033 5.72704L27.397 6.46808V29.7305C27.397 30.9839 26.0921 32 24.4824 32Z" fill="white"/>
<path d="M2 5.30005H26" stroke="white" stroke-linecap="round"/>
</svg>
