<svg width="30" height="30" viewBox="0 0 30 30" fill="none" xmlns="http://www.w3.org/2000/svg">
<path d="M13.0543 3.30538C12.9211 3.30525 12.7856 3.33191 12.6556 3.38836L0.601998 8.62172C0.0954013 8.84167 -0.136971 9.43066 0.0829799 9.93725L8.52851 29.3892C8.74847 29.8958 9.33745 30.1282 9.84404 29.9083L17.2507 26.6925L8.60662 24.4521C8.072 24.3136 7.75093 23.7678 7.88949 23.2332L13.0543 3.30538Z" fill="white"/>
<path d="M14.7503 0.749356C14.8889 0.214735 15.4346 -0.106335 15.9692 0.0322264L28.8245 3.364C29.3591 3.50257 29.6802 4.04829 29.5416 4.58291L23.8991 26.3536C23.7606 26.8882 23.2149 27.2093 22.6802 27.0707L9.82498 23.7389C9.29036 23.6004 8.96929 23.0547 9.10786 22.52L14.7503 0.749356Z" fill="white"/>
</svg>
