<svg width="24" height="32" viewBox="0 0 24 32" fill="none" xmlns="http://www.w3.org/2000/svg">
<path d="M20.2613 32H2.41206C1.07992 32 0 30.9839 0 29.7305V6.46808L1.68709 5.74655C2.06414 5.58529 2.06414 5.08137 1.68709 4.92012L0 4.19858V2.2695C0 1.01609 1.07992 0 2.41206 0H20.1407C21.4728 0 22.5528 1.01609 22.5528 2.2695V2.7234H23.7588C23.892 2.7234 24 2.82501 24 2.95035V3.97163C24 4.09697 23.892 4.19858 23.7588 4.19858H22.4322L20.9245 4.90784C20.5616 5.0786 20.5712 5.56904 20.9407 5.72704L22.6734 6.46808V29.7305C22.6734 30.9839 21.5935 32 20.2613 32Z" fill="white"/>
<path d="M2 5.5H20.5" stroke="none" stroke-linecap="round" />
</svg>
