<svg width="18" height="26" viewBox="0 0 18 26" fill="none" xmlns="http://www.w3.org/2000/svg">
<path fill-rule="evenodd" clip-rule="evenodd" d="M8.35334 0.686665C8.00472 1.08927 7.55356 1.61902 7.35258 1.86482C7.15161 2.11062 6.78248 2.56832 6.53229 2.88193C6.2862 3.19554 5.89656 3.69985 5.67098 4.00499C5.4454 4.31012 5.12959 4.73815 4.97373 4.95853C4.81787 5.1789 4.58409 5.5137 4.46105 5.70017C4.35623 5.85389 4.2124 6.06808 4.10767 6.22405C4.08535 6.25729 4.06481 6.28788 4.0468 6.31468C3.94836 6.46724 3.68997 6.87409 3.47259 7.22584C3.25932 7.57335 2.88608 8.21328 2.6523 8.64555C2.41441 9.07783 2.0986 9.67962 1.95505 9.98051C1.8074 10.2814 1.59002 10.7603 1.47108 11.04C1.35623 11.3197 1.17577 11.7689 1.07323 12.0359C0.970696 12.3029 0.823043 12.7225 0.745115 12.9683C0.667187 13.2141 0.531839 13.6972 0.445708 14.049C0.355476 14.3965 0.248837 14.8838 0.203721 15.1296C0.158605 15.3754 0.0929815 15.8713 0.0519668 16.2315C0.00274913 16.7146 -0.00955527 17.0918 0.00685061 17.6512C0.019155 18.0708 0.0601697 18.6048 0.097083 18.8378C0.129895 19.0709 0.211924 19.4693 0.277548 19.7278C0.343171 19.9821 0.466215 20.3847 0.548245 20.6178C0.634375 20.8509 0.765623 21.173 0.847652 21.3382C0.92558 21.5035 1.10194 21.8171 1.23729 22.0375C1.37264 22.2579 1.58592 22.5715 1.71716 22.7368C1.84431 22.9021 2.11501 23.2029 2.31598 23.4064C2.51695 23.614 2.84507 23.9107 3.05014 24.0717C3.25111 24.2285 3.56693 24.4531 3.74739 24.5676C3.92786 24.6862 4.21496 24.8515 4.38312 24.9405C4.55128 25.0295 4.8835 25.1821 5.12138 25.2795C5.35927 25.3813 5.74481 25.5211 5.98269 25.5932C6.22058 25.661 6.59791 25.7584 6.82349 25.8051C7.04907 25.8517 7.3895 25.9152 7.58227 25.9449C7.80375 25.9788 8.32053 26 8.99727 26C9.68632 26 10.1949 25.9788 10.4328 25.9407C10.6338 25.911 11.0152 25.839 11.2736 25.7839C11.532 25.7288 11.9298 25.6228 12.1554 25.5508C12.381 25.4787 12.7419 25.3431 12.9552 25.2499C13.1685 25.1609 13.5376 24.9787 13.7755 24.8473C14.0134 24.7201 14.3907 24.4828 14.6163 24.3218C14.8419 24.1607 15.211 23.8641 15.4325 23.6606C15.654 23.453 15.978 23.1182 16.1461 22.9063C16.3184 22.6944 16.5645 22.3554 16.6957 22.1435C16.827 21.9316 17.0156 21.601 17.1182 21.4018C17.2166 21.2026 17.3479 20.9102 17.4053 20.7449C17.4668 20.5796 17.5693 20.266 17.635 20.0457C17.7006 19.8253 17.7908 19.4524 17.8359 19.2193C17.8811 18.9862 17.9344 18.609 17.959 18.3801C17.9795 18.1555 18 17.6978 18 17.363C18 17.0325 17.9836 16.5621 17.959 16.3163C17.9344 16.0705 17.877 15.6339 17.8318 15.3415C17.7867 15.0491 17.676 14.5194 17.5858 14.1634C17.4996 13.8116 17.3602 13.3031 17.2781 13.0403C17.1961 12.7818 17.0033 12.2309 16.8434 11.824C16.6875 11.4172 16.3717 10.684 16.1379 10.1924C15.9082 9.7008 15.5268 8.95916 15.293 8.5396C15.0592 8.12005 14.7024 7.50978 14.5014 7.18346C14.2964 6.85713 13.9765 6.35282 13.7796 6.0604C13.5868 5.76798 13.2546 5.28485 13.0413 4.97972C12.828 4.67459 12.422 4.12365 12.1431 3.75071C11.8601 3.37777 11.3679 2.74631 11.048 2.35218C10.7281 1.95805 10.1621 1.27998 9.78886 0.847707C9.41972 0.415435 9.0875 0.0382569 9.05059 0.00859122C8.99727 -0.0337884 8.89884 0.0636847 8.35334 0.686665ZM13.7796 14.6168C13.7017 14.6592 13.5909 14.7609 13.5376 14.8414C13.4556 14.9601 13.4433 15.0152 13.4597 15.2144C13.472 15.3415 13.513 15.6 13.5499 15.7865C13.5909 16.0027 13.6237 16.4476 13.6401 17.0155C13.6565 17.7317 13.6483 17.9987 13.5909 18.3929C13.554 18.6599 13.472 19.0413 13.4064 19.2405C13.3448 19.4396 13.2341 19.7236 13.1603 19.8761C13.0864 20.0287 12.9552 20.2576 12.8732 20.3847C12.787 20.5118 12.6066 20.7449 12.4671 20.906C12.3113 21.084 12.2087 21.2408 12.1923 21.3298C12.18 21.4018 12.18 21.5247 12.1923 21.5925C12.2046 21.6603 12.2538 21.7705 12.299 21.8383C12.3441 21.9019 12.4384 21.9824 12.504 22.0163C12.5697 22.0502 12.7009 22.0799 12.7911 22.0799C12.8814 22.0799 13.0044 22.0545 13.0659 22.0206C13.1316 21.9909 13.2997 21.8298 13.4433 21.673C13.5868 21.512 13.7919 21.2492 13.8985 21.084C14.0052 20.9187 14.161 20.6432 14.2472 20.4695C14.3333 20.2957 14.4604 19.9609 14.5384 19.7278C14.6122 19.4947 14.7106 19.1133 14.7598 18.8802C14.8296 18.5454 14.8542 18.253 14.8706 17.5029C14.887 16.7612 14.8747 16.4307 14.8255 16.0196C14.7886 15.7272 14.727 15.3585 14.6901 15.1932C14.6491 15.011 14.5794 14.8499 14.5179 14.7736C14.4604 14.7058 14.3497 14.6253 14.2759 14.5914C14.2061 14.5617 14.0954 14.5363 14.0298 14.5363C13.9683 14.5363 13.8575 14.5745 13.7796 14.6168Z" fill="#DFE8F4"/>
</svg>
