<svg width="23" height="23" viewBox="0 0 23 23" fill="none" xmlns="http://www.w3.org/2000/svg">
<path fill-rule="evenodd" clip-rule="evenodd" d="M18.7891 0.045551C18.6101 0.0195219 18.2586 0 18.0081 0C17.7575 0.00325364 17.4223 0.0227755 17.2596 0.0488046C17.0969 0.0748338 16.8365 0.133399 16.6738 0.17895C16.5111 0.224501 16.2573 0.318857 16.1044 0.38393C15.9514 0.449003 15.7138 0.566134 15.5707 0.647475C15.4307 0.728816 15.1964 0.884991 15.05 0.995615C14.884 1.12251 12.2872 3.69614 7.91679 8.07229C1.69476 14.2998 1.02765 14.9765 0.842159 15.2563C0.731517 15.4255 0.59484 15.6533 0.542773 15.7606C0.487452 15.868 0.39308 16.0795 0.33125 16.2324C0.26942 16.3853 0.184811 16.6489 0.142507 16.8181C0.100202 16.9873 0.0481348 17.2736 0.0253554 17.4525C0.00257603 17.6543 -0.00718656 17.9601 0.00583023 18.2497C0.0155928 18.51 0.0481348 18.8451 0.0774226 18.998C0.10671 19.1509 0.181557 19.421 0.236878 19.5999C0.295454 19.7789 0.425622 20.088 0.526502 20.2832C0.627382 20.4784 0.799855 20.7713 0.913752 20.9307C1.02765 21.0901 1.24893 21.3569 1.41164 21.5196C1.57435 21.6855 1.82818 21.91 1.98113 22.0239C2.13408 22.1345 2.3814 22.294 2.53434 22.3818C2.68729 22.4664 2.94112 22.5868 3.10383 22.6519C3.26328 22.7169 3.53664 22.8048 3.70585 22.8503C3.87507 22.8959 4.13866 22.9479 4.29161 22.9675C4.44456 22.9837 4.75045 23 4.97499 23C5.19953 23 5.5217 22.9772 5.69092 22.9544C5.86013 22.9284 6.11722 22.8731 6.2604 22.8341C6.40359 22.795 6.61185 22.7299 6.7225 22.6876C6.83639 22.6454 7.04141 22.5543 7.17808 22.4827C7.31802 22.4143 7.57184 22.2647 7.74106 22.1541C8.02092 21.9686 8.69454 21.3048 15.0012 14.9993C21.3078 8.69373 21.9717 8.02023 22.1572 7.74042C22.2678 7.57123 22.4045 7.34347 22.4565 7.2361C22.5119 7.12873 22.6062 6.91724 22.6681 6.76432C22.7299 6.6114 22.8145 6.34786 22.8568 6.17867C22.8991 6.00948 22.9512 5.72316 22.974 5.54421C23 5.33597 23.0065 5.04315 22.9935 4.7308C22.9805 4.43146 22.9479 4.12236 22.9056 3.93365C22.8698 3.76446 22.795 3.49116 22.7397 3.33173C22.6843 3.1723 22.5607 2.88598 22.4663 2.69727C22.3687 2.50856 22.1995 2.22549 22.0856 2.06281C21.9717 1.90338 21.7341 1.62357 21.5551 1.44462C21.3762 1.26567 21.093 1.0249 20.9271 0.907766C20.7611 0.790635 20.491 0.627953 20.325 0.540105C20.1623 0.45551 19.9443 0.357901 19.8467 0.318857C19.7491 0.283067 19.544 0.21474 19.3911 0.172443C19.2381 0.126892 18.968 0.0715801 18.7891 0.045551ZM15.2029 7.79898C13.5954 6.19168 12.2644 4.87721 12.2481 4.87721C12.2286 4.87721 12.1375 4.9553 12.0431 5.0464L11.8739 5.21884L17.7803 11.1242C18.0439 10.8607 18.122 10.7696 18.122 10.75C18.122 10.7305 16.8073 9.40303 15.2029 7.79898ZM11.8088 7.09945C11.7112 7.04739 11.6071 7.02461 11.4997 7.02461C11.3923 7.02461 11.2849 7.05064 11.1905 7.09945C11.1092 7.14175 11.0018 7.23936 10.9465 7.31419C10.8716 7.42156 10.8456 7.49639 10.8391 7.6363C10.8293 7.77946 10.8456 7.85429 10.9042 7.96817C10.9465 8.04951 11.0408 8.16014 11.1189 8.2187C11.2003 8.28377 11.3109 8.33258 11.3955 8.34559C11.4704 8.35535 11.594 8.34885 11.6721 8.32933C11.7502 8.3098 11.8641 8.24148 11.9422 8.17315C12.0138 8.10482 12.0952 7.99095 12.1245 7.91937C12.157 7.83152 12.1668 7.73066 12.157 7.61027C12.144 7.48338 12.1115 7.39228 12.0464 7.30443C11.9976 7.23285 11.8902 7.14175 11.8088 7.09945ZM9.77494 8.96053C9.68708 8.93125 9.58945 8.91173 9.56342 8.91173C9.53739 8.91498 9.46254 8.93125 9.40071 8.95402C9.33888 8.9768 9.238 9.02886 9.18268 9.0679C9.1241 9.10695 9.04926 9.19479 9.01346 9.25987C8.98092 9.32819 8.94187 9.42906 8.92885 9.48112C8.91584 9.53968 8.9256 9.6503 8.95814 9.75767C8.99068 9.88131 9.046 9.97241 9.13061 10.057C9.19895 10.1221 9.29332 10.1937 9.34539 10.2099C9.3942 10.2295 9.49834 10.2457 9.57969 10.2457C9.66105 10.2457 9.78145 10.2229 9.84979 10.1937C9.91487 10.1676 10.006 10.1123 10.0483 10.0733C10.0906 10.0342 10.1524 9.94313 10.185 9.87155C10.2175 9.79997 10.2468 9.67308 10.2468 9.58523C10.2468 9.50064 10.2305 9.39327 10.211 9.34121C10.1947 9.2924 10.1231 9.19805 10.0581 9.12972C9.97996 9.05163 9.87908 8.98981 9.77494 8.96053ZM13.7451 9.0191C13.6735 8.98005 13.5498 8.93776 13.4685 8.928C13.3773 8.91823 13.2732 8.928 13.1919 8.96053C13.1203 8.98656 13.0129 9.05814 12.951 9.11345C12.8925 9.17202 12.8209 9.26963 12.7981 9.32494C12.7721 9.38351 12.7525 9.50389 12.7525 9.59499C12.7525 9.68935 12.7786 9.80648 12.8144 9.87806C12.8469 9.94639 12.912 10.0342 12.9543 10.07C12.9933 10.1091 13.078 10.1644 13.1333 10.1937C13.1919 10.2229 13.3155 10.2457 13.4034 10.2457C13.4945 10.2457 13.6051 10.2295 13.6572 10.2099C13.706 10.1937 13.7939 10.1286 13.8525 10.0733C13.9143 10.0147 13.9794 9.93337 14.0054 9.88782C14.0282 9.84227 14.0542 9.75117 14.0672 9.68284C14.077 9.61777 14.0737 9.50714 14.0542 9.43882C14.0379 9.37374 13.9891 9.26637 13.9501 9.20456C13.9078 9.14274 13.8134 9.05814 13.7451 9.0191ZM7.95259 10.8932C7.881 10.8607 7.75734 10.8314 7.67599 10.8314C7.58161 10.8314 7.47423 10.8607 7.38311 10.9062C7.30175 10.9485 7.19436 11.0461 7.13904 11.121C7.06094 11.2316 7.03816 11.2999 7.03165 11.4593C7.02189 11.622 7.03491 11.6871 7.09674 11.8075C7.1423 11.8888 7.23341 11.9962 7.30501 12.045C7.39287 12.1101 7.48399 12.1426 7.6109 12.1556C7.73131 12.1654 7.83219 12.1556 7.92005 12.1231C7.99164 12.0938 8.10554 12.0124 8.17062 11.9409C8.23896 11.866 8.3073 11.7522 8.32683 11.6838C8.3431 11.6188 8.35937 11.5342 8.35937 11.4984C8.35937 11.4626 8.3431 11.378 8.32683 11.3097C8.3073 11.2446 8.24547 11.1372 8.19015 11.0689C8.13157 11.0038 8.02418 10.9257 7.95259 10.8932ZM11.8088 10.9225C11.6949 10.8639 11.581 10.8314 11.4997 10.8314C11.4281 10.8314 11.3109 10.8607 11.2393 10.8932C11.1677 10.9257 11.0701 10.9941 11.0213 11.0461C10.9725 11.0982 10.9107 11.1958 10.8846 11.2609C10.8553 11.3292 10.8326 11.4398 10.8326 11.5049C10.8326 11.5732 10.8618 11.6871 10.8944 11.7587C10.9269 11.8302 10.9888 11.9246 11.0311 11.9669C11.0734 12.0124 11.1677 12.0743 11.2393 12.1068C11.3109 12.1361 11.4248 12.1654 11.4932 12.1654C11.5582 12.1654 11.6689 12.1426 11.7372 12.1133C11.8023 12.0873 11.8999 12.0255 11.952 11.9767C12.0041 11.9279 12.0724 11.8302 12.105 11.7587C12.1375 11.6871 12.1668 11.57 12.1668 11.4984C12.1668 11.417 12.1342 11.2999 12.0789 11.1925C12.0041 11.0429 11.9585 10.9973 11.8088 10.9225ZM15.6943 10.9518C15.6 10.8834 15.5154 10.8574 15.3722 10.8444C15.2225 10.8314 15.1444 10.8444 15.0467 10.8899C14.9752 10.9225 14.8678 11.0038 14.8124 11.0689C14.7539 11.1372 14.692 11.2446 14.6725 11.3097C14.6562 11.378 14.64 11.4626 14.64 11.4984C14.64 11.5342 14.6562 11.6188 14.6725 11.6838C14.692 11.7522 14.7604 11.866 14.8255 11.9409C14.8971 12.0157 15.011 12.0938 15.0956 12.1231C15.1964 12.1589 15.2908 12.1686 15.4047 12.1556C15.5023 12.1426 15.6195 12.097 15.6943 12.045C15.7659 11.9929 15.857 11.8888 15.8993 11.8075C15.9482 11.7099 15.9742 11.6057 15.9742 11.4984C15.9742 11.391 15.9482 11.2869 15.8993 11.1893C15.857 11.1079 15.7659 11.0006 15.6943 10.9518ZM11.1254 17.7779L5.21907 11.8725L5.04008 12.045C4.94246 12.1393 4.86761 12.2304 4.87087 12.2467C4.87412 12.2662 6.19207 13.5937 7.79639 15.1978C9.40396 16.8051 10.7317 18.1195 10.7512 18.1195C10.7675 18.1195 10.8618 18.0447 10.953 17.9503L11.1254 17.7779ZM9.88233 12.8128C9.80749 12.7738 9.69359 12.751 9.58945 12.751C9.49508 12.7543 9.37468 12.7738 9.31936 12.7966C9.26729 12.8194 9.16641 12.9007 9.10133 12.9723C9.03299 13.0504 8.96465 13.1675 8.94512 13.2456C8.9256 13.3237 8.91909 13.4375 8.92885 13.4994C8.93861 13.5612 8.98092 13.6718 9.01997 13.7434C9.06227 13.8182 9.15665 13.9093 9.25427 13.9711C9.38444 14.0492 9.44627 14.0688 9.59596 14.0655C9.69359 14.0655 9.8205 14.0395 9.87257 14.0102C9.92789 13.9842 10.019 13.9126 10.0743 13.8508C10.1329 13.7922 10.1947 13.7043 10.2143 13.6523C10.2338 13.6035 10.2468 13.4896 10.2468 13.4018C10.2468 13.3107 10.224 13.1903 10.1947 13.1317C10.1654 13.0764 10.1101 12.9918 10.0743 12.9528C10.0353 12.9105 9.94742 12.8454 9.88233 12.8128ZM13.6735 12.7933C13.6149 12.7705 13.4977 12.751 13.4131 12.751C13.3285 12.7543 13.2081 12.7771 13.143 12.8031C13.0812 12.8291 12.9966 12.8844 12.9543 12.9235C12.912 12.9625 12.8469 13.0536 12.8111 13.1252C12.7623 13.2261 12.7493 13.3009 12.759 13.4538C12.7656 13.5905 12.7916 13.6848 12.8469 13.7629C12.886 13.8247 12.9673 13.9061 13.0259 13.9451C13.0812 13.9842 13.1951 14.033 13.2732 14.0525C13.3773 14.0785 13.4587 14.0818 13.5498 14.0557C13.6214 14.0395 13.7321 13.9874 13.7939 13.9451C13.859 13.9061 13.9403 13.8117 13.9794 13.7434C14.0184 13.6718 14.0607 13.5612 14.0705 13.4994C14.0835 13.4343 14.0705 13.3172 14.0412 13.2228C14.0152 13.1317 13.9468 13.0113 13.885 12.9495C13.8264 12.8877 13.732 12.8194 13.6735 12.7933ZM11.6884 14.6707C11.6201 14.6544 11.529 14.6381 11.4834 14.6381C11.4411 14.6414 11.3435 14.6609 11.2719 14.6869C11.2003 14.713 11.0961 14.7846 11.0376 14.8399C10.979 14.8984 10.9074 15.0058 10.8781 15.0774C10.8423 15.1652 10.8326 15.2661 10.8456 15.3865C10.8553 15.5134 10.8879 15.6045 10.953 15.6923C11.005 15.7639 11.1124 15.855 11.1905 15.8973C11.2881 15.9461 11.3923 15.9721 11.4997 15.9721C11.6071 15.9721 11.7144 15.9461 11.8088 15.8973C11.8902 15.855 11.9976 15.7639 12.0464 15.6923C12.1017 15.6175 12.144 15.5004 12.157 15.4027C12.1733 15.2889 12.1635 15.1945 12.1277 15.0936C12.0952 15.0091 12.0171 14.8952 11.9422 14.8236C11.8706 14.7585 11.7535 14.6902 11.6884 14.6707Z" fill="#F5F6FD"/>
<path d="M5.96752 0.0878484C5.75275 0.0422974 5.51194 0.0195219 5.07262 0.0130146C4.74069 0.00650728 4.36971 0.0162682 4.2428 0.0325364C4.11914 0.0488046 3.87507 0.100863 3.70585 0.146414C3.53664 0.191965 3.25677 0.283067 3.08756 0.351393C2.91834 0.41972 2.68404 0.530344 2.56688 0.592163C2.44973 0.657236 2.22519 0.800396 2.06574 0.914274C1.90303 1.02815 1.63944 1.25265 1.47673 1.41208C1.31076 1.57476 1.08622 1.82855 0.975582 1.98147C0.861685 2.13439 0.702229 2.38167 0.614365 2.53459C0.529756 2.68751 0.409351 2.94455 0.344267 3.10398C0.279183 3.2634 0.19132 3.53671 0.145761 3.7059C0.100202 3.87509 0.0481348 4.16141 0.0253554 4.34036C0.00257603 4.54208 -0.00718656 4.85443 0.00583023 5.17004C0.018847 5.47263 0.051389 5.79148 0.0871852 5.96718C0.122981 6.12661 0.197828 6.39991 0.256404 6.5691C0.314979 6.73829 0.425622 7.00184 0.500468 7.15476C0.575315 7.30768 0.731517 7.57123 0.842159 7.74042C1.01463 8.00071 1.27822 8.28052 2.48228 9.49088L3.91738 10.929L10.9269 3.91739C10.7407 3.72169 10.1256 3.10954 9.42945 2.41663L9.36491 2.35238C8.278 1.27543 7.99814 1.01514 7.74106 0.845947C7.57184 0.73207 7.30825 0.575895 7.15531 0.501061C7.00236 0.426227 6.73877 0.315603 6.56955 0.257038C6.40033 0.198472 6.12698 0.123638 5.96752 0.0878484Z" fill="#F5F6FD"/>
<path d="M20.5333 13.5124C19.7523 12.7217 19.108 12.0743 19.0982 12.071C19.0885 12.071 17.5037 13.6458 15.5739 15.5719L12.0691 19.0794C14.7181 21.7181 14.9979 21.9816 15.2583 22.1541C15.4275 22.2647 15.6911 22.4209 15.844 22.4957C15.997 22.5705 16.2508 22.6779 16.4135 22.7332C16.5762 22.7885 16.8463 22.8666 17.0155 22.9024C17.214 22.9479 17.5037 22.9772 17.8291 22.9902C18.1447 23.0033 18.4571 22.9935 18.6589 22.9707C18.8379 22.9479 19.1242 22.8959 19.2935 22.8503C19.4627 22.8048 19.7328 22.7169 19.8955 22.6519C20.0582 22.5868 20.312 22.4664 20.465 22.3818C20.6179 22.294 20.8652 22.1345 21.0182 22.0207C21.1711 21.91 21.425 21.6855 21.5877 21.5196C21.7504 21.3569 21.9619 21.1064 22.0628 20.9632C22.1637 20.8233 22.3166 20.5825 22.4012 20.4296C22.4826 20.2767 22.5997 20.0294 22.6616 19.8765C22.7234 19.7236 22.808 19.46 22.8536 19.2908C22.8991 19.1217 22.9512 18.8353 22.974 18.6564C22.9967 18.4547 23.0065 18.1423 22.9935 17.8267C22.9805 17.5241 22.9479 17.2053 22.9121 17.0296C22.8763 16.8669 22.8015 16.5968 22.7429 16.4276C22.6843 16.2585 22.5737 15.9949 22.4989 15.842C22.424 15.6891 22.2678 15.4255 22.1572 15.2563C21.9847 14.9993 21.7081 14.7032 20.5333 13.5124Z" fill="#F5F6FD"/>
</svg>
