<svg width="32" height="24" viewBox="0 0 32 24" fill="none" xmlns="http://www.w3.org/2000/svg">
<path d="M1.55045 0.138642C1.90332 0.0879034 2.45578 0.033541 2.78013 0.0190444C3.10447 0.00454772 3.47872 -0.0027006 3.61773 0.000923559C3.75317 0.00817188 4.04187 0.0226685 4.25929 0.033541C4.47315 0.0444135 4.87591 0.0842792 5.15036 0.124145C5.42481 0.164011 5.84896 0.247366 6.09489 0.308977C6.34082 0.370588 6.7222 0.486561 6.93962 0.562668C7.1606 0.6424 7.53842 0.798239 7.77722 0.914212C8.01959 1.03018 8.36889 1.22227 8.55423 1.33824C8.73957 1.45784 9.0461 1.67166 9.23144 1.813C9.41678 1.95797 9.72331 2.21891 9.90865 2.39649C10.094 2.57408 10.3791 2.87488 10.536 3.06334C10.6964 3.25179 10.9352 3.55985 11.067 3.7483C11.1989 3.93676 11.4092 4.3028 11.534 4.56374C11.6837 4.87904 11.7977 5.17985 11.8761 5.46978C11.9831 5.88293 11.9902 5.9373 11.9902 6.55703C11.9902 7.12602 11.9795 7.25287 11.9082 7.53555C11.8619 7.71314 11.7763 7.98495 11.7193 8.13354C11.6623 8.28213 11.5696 8.48146 11.4235 8.74602L11.6088 9.31864C11.7122 9.63394 11.8619 10.1268 11.9438 10.4168C12.0258 10.7067 12.1755 11.3337 12.2825 11.8121C12.3894 12.2904 12.5319 13.0225 12.5997 13.4429C12.6674 13.8633 12.7601 14.5048 12.81 14.8745C12.8599 15.2441 12.924 15.8131 12.9525 16.1429C12.9846 16.4727 13.0203 16.9294 13.0309 17.1577C13.0452 17.386 13.0666 17.6071 13.0808 17.647C13.0987 17.7013 13.1343 17.6361 13.2412 17.3751C13.3161 17.1867 13.4729 16.8025 13.5905 16.5235C13.7117 16.2444 14.0182 15.5921 14.7418 14.1315L14.5743 13.7691C14.4816 13.5698 14.3533 13.2509 14.2963 13.0624C14.2357 12.8739 14.1537 12.5623 14.1145 12.3738C14.0753 12.1853 14.0254 11.8338 14.004 11.5946C13.9719 11.2612 13.9719 11.051 14.0004 10.6958C14.0254 10.4421 14.0681 10.1087 14.1002 9.95287C14.1323 9.80065 14.1965 9.53609 14.2464 9.36575C14.2927 9.19542 14.4139 8.86924 14.5101 8.64092C14.6099 8.4126 14.781 8.0683 14.8915 7.87985C14.9984 7.69139 15.1945 7.38696 15.3192 7.20938C15.4475 7.03179 15.6685 6.74548 15.8111 6.57515C15.9536 6.40481 16.2495 6.08589 16.474 5.86481C16.695 5.64374 17.0015 5.35381 17.1512 5.21971C17.3045 5.08924 17.611 4.8428 17.8284 4.67609C18.0494 4.513 18.3666 4.28468 18.5342 4.17596C18.7017 4.06723 19.0153 3.87877 19.2292 3.75918C19.4431 3.63596 19.8316 3.44388 20.0846 3.33153C20.3377 3.21918 20.7262 3.06334 20.94 2.98723C21.1539 2.91112 21.4676 2.80602 21.6351 2.75529C21.8026 2.70455 22.1555 2.61394 22.4192 2.55596C22.683 2.49435 23.1107 2.41461 23.3637 2.37475C23.6168 2.33488 24.0267 2.28414 24.2726 2.2624C24.5186 2.24065 25.1174 2.22253 25.6092 2.22253C26.0975 2.22253 26.7177 2.24065 26.9815 2.2624C27.2452 2.28414 27.7335 2.34213 28.0686 2.38924C28.4036 2.43998 28.9632 2.53784 29.3161 2.61032C29.6689 2.6828 30.2855 2.83502 30.6883 2.95461C31.0911 3.07059 31.5473 3.21555 31.7041 3.27716C31.8609 3.33877 31.9928 3.39314 32 3.39676C32.0035 3.40039 31.7968 3.52361 31.5366 3.6722C31.2764 3.81716 30.8523 4.08173 30.5992 4.25569C30.3461 4.43327 29.9576 4.72683 29.7438 4.91528C29.5299 5.10374 29.227 5.39367 29.0773 5.56401C28.9276 5.73072 28.7137 5.99166 28.6032 6.14025C28.4927 6.28884 28.3109 6.56065 28.204 6.73824C28.0935 6.91582 27.926 7.2275 27.8369 7.42683C27.7442 7.62616 27.6123 7.94508 27.5411 8.13354C27.4733 8.32199 27.3522 8.7134 27.2702 9.00334C27.1918 9.29327 27.0634 9.84777 26.985 10.2356C26.9066 10.6233 26.7783 11.2612 26.6963 11.649C26.6144 12.0368 26.4682 12.6094 26.3684 12.9174C26.2722 13.2255 26.1047 13.6568 26.0013 13.8778C25.8979 14.0989 25.6948 14.4541 25.5522 14.6751C25.3811 14.9361 25.1566 15.2115 24.8964 15.4761C24.6825 15.6972 24.376 15.9762 24.2192 16.0958C24.0623 16.2154 23.7808 16.4111 23.5954 16.5271C23.4101 16.6431 23.1036 16.8062 22.9182 16.8895C22.7329 16.9729 22.4513 17.0816 22.2945 17.136C22.1376 17.1903 21.8311 17.2664 21.6173 17.3135C21.2965 17.3751 21.1076 17.3896 20.5658 17.3896C20.0525 17.386 19.8102 17.3679 19.4787 17.3063C19.2435 17.2628 18.8336 17.1541 18.5698 17.0635C18.3061 16.9729 17.9888 16.8496 17.8641 16.7917C17.7429 16.7337 17.6431 16.6721 17.6431 16.6503C17.6431 16.6286 17.693 16.4401 17.7536 16.2227C17.8142 16.0088 17.9639 15.516 18.0886 15.1282C18.2098 14.7404 18.3987 14.1678 18.5092 13.8597C18.6161 13.5517 18.7944 13.0696 18.9013 12.7906C19.0082 12.5115 19.2114 12.015 19.3539 11.6852C19.493 11.3554 19.7567 10.7937 19.9385 10.4349C20.1203 10.0761 20.3626 9.62669 20.4767 9.43824C20.5872 9.24978 20.7868 8.9381 20.9151 8.74965C21.0434 8.56119 21.2109 8.32199 21.2893 8.22414C21.3678 8.12267 21.4996 7.97407 21.5781 7.89072C21.66 7.80374 21.7171 7.72763 21.7064 7.71676C21.6957 7.70589 21.5281 7.83998 21.3321 8.01394C21.1361 8.18428 20.7903 8.49958 20.5658 8.70978C20.3412 8.91998 19.8779 9.38025 19.5393 9.72817C19.1971 10.0761 18.7302 10.5762 18.5021 10.8335C18.274 11.0909 17.9282 11.5004 17.7322 11.7396C17.5362 11.9788 17.2083 12.4028 17.0015 12.6819C16.7948 12.9609 16.474 13.4248 16.2851 13.7147C16.0962 14.0047 15.8146 14.4686 15.6578 14.7476C15.501 15.0267 15.2479 15.5087 15.0947 15.8168C14.9414 16.1248 14.699 16.6539 14.5529 16.9946C14.4068 17.3353 14.1929 17.8644 14.0788 18.1725C13.9648 18.4805 13.7937 18.9951 13.6939 19.3141C13.5977 19.633 13.4587 20.1476 13.3909 20.4557C13.3197 20.7637 13.2377 21.1878 13.2092 21.398C13.1771 21.6082 13.1414 22.1844 13.1272 22.6845C13.1022 23.4927 13.0915 23.6051 13.0274 23.7138C12.9882 23.7827 12.9169 23.8696 12.867 23.9059C12.8171 23.9457 12.7066 23.9856 12.6175 23.9929C12.4892 24.011 12.4321 23.9965 12.3359 23.9276C12.2682 23.8841 12.1791 23.7972 12.1399 23.7428C12.0654 23.6418 12.065 23.6018 12.0439 21.2219L12.0436 21.1878C12.0294 19.8396 12.0009 18.4588 11.9795 18.1181C11.9581 17.7774 11.9225 17.2809 11.9011 17.0127C11.8833 16.7445 11.8405 16.2698 11.812 15.9617C11.7835 15.6537 11.73 15.1463 11.6908 14.8382C11.6516 14.5302 11.5518 13.8923 11.4734 13.4248C11.3949 12.9573 11.2916 12.3847 11.2417 12.1564C11.1918 11.928 11.0956 11.5113 11.0278 11.2322C10.9601 10.9531 10.8211 10.4494 10.7249 10.1087C10.6251 9.76803 10.4362 9.20629 10.3078 8.85837C10.1653 8.47058 10.0049 8.11179 9.89796 7.93421C9.79816 7.77475 9.60569 7.47394 9.47025 7.26374C9.33124 7.05354 9.08174 6.69475 8.91066 6.46642C8.73957 6.2381 8.47582 5.89381 8.32255 5.70535C8.16929 5.51689 7.86276 5.1581 7.64178 4.90804C7.4208 4.65797 7.16417 4.38253 7.0715 4.29193C6.97883 4.20132 6.91823 4.15421 6.93606 4.1832C6.95031 4.2122 7.03942 4.35354 7.13209 4.49126C7.22476 4.62898 7.38159 4.90079 7.48139 5.08924C7.57762 5.2777 7.75584 5.66186 7.86989 5.94092C7.98751 6.21998 8.18711 6.77448 8.31543 7.17314C8.44374 7.57179 8.62908 8.21689 8.72888 8.60468C8.82868 8.99246 8.96412 9.58683 9.03541 9.9275C9.10313 10.2682 9.16016 10.5472 9.16016 10.5509C9.16016 10.5581 9.03541 10.6016 8.88214 10.6487C8.73244 10.6958 8.47225 10.7611 8.30473 10.7937C8.13721 10.8263 7.84851 10.8625 7.66317 10.877C7.46357 10.8879 7.17843 10.8807 6.96813 10.8517C6.7721 10.8299 6.47627 10.7683 6.30875 10.7176C6.14123 10.6705 5.8846 10.5726 5.73846 10.5037C5.59233 10.4313 5.3357 10.2827 5.17175 10.1703C5.00423 10.058 4.73334 9.83327 4.56939 9.67381C4.40187 9.51434 4.17375 9.2534 4.05613 9.09394C3.93851 8.93448 3.77455 8.65542 3.68901 8.47783C3.60347 8.30025 3.49654 8.02119 3.44664 7.86173C3.39674 7.70226 3.32189 7.39421 3.28269 7.17314C3.23992 6.95206 3.15794 6.36495 3.09734 5.86844C3.04032 5.37193 2.97616 4.8573 2.95477 4.72683C2.93695 4.59636 2.89418 4.39341 2.86567 4.27381C2.83715 4.15421 2.75874 3.88602 2.69102 3.67582C2.6233 3.46562 2.50211 3.16482 2.42013 3.00535C2.34172 2.84589 2.18489 2.5777 2.0744 2.40737C1.95322 2.21529 1.70015 1.92173 1.41145 1.62455C1.11918 1.32737 0.798395 1.04468 0.552461 0.870722C0.335041 0.714883 0.124749 0.569917 0.0784138 0.544547C0.0356426 0.522803 0 0.493809 0 0.479313C0 0.461192 0.203163 0.403205 0.452661 0.341595C0.705724 0.283608 1.19759 0.193004 1.55045 0.138642Z" fill="#DFE8F4"/>
</svg>
