<svg width="26" height="20" viewBox="0 0 26 20" fill="none" xmlns="http://www.w3.org/2000/svg">
<path d="M16.7632 0.229844C17.014 0.179565 17.4474 0.107739 17.7243 0.0682349C18.0371 0.0287305 18.4704 0.00359131 18.8647 0C19.2328 0 19.6857 0.0179565 19.9398 0.0502783C20.181 0.0790088 20.51 0.129287 20.6729 0.161609C20.8358 0.193931 21.1421 0.265757 21.3571 0.326809C21.5722 0.38427 21.9241 0.499192 22.1391 0.578201C22.3541 0.65721 22.7516 0.829592 23.0188 0.962471C23.2892 1.09535 23.6835 1.31083 23.8985 1.4473C24.1135 1.58018 24.4947 1.84234 24.7456 2.0255C24.9965 2.21225 25.2897 2.44209 25.3972 2.53546C25.5048 2.63243 25.6481 2.79045 25.7165 2.88741C25.7817 2.98797 25.8697 3.15676 25.9088 3.2645C25.9576 3.39738 25.9837 3.56617 25.9935 3.78524C26.0033 4.02586 25.9902 4.16951 25.9479 4.34189C25.9153 4.47118 25.8371 4.66511 25.7719 4.77285C25.7068 4.88059 25.5895 5.03142 25.508 5.10684C25.4298 5.18585 25.2962 5.28641 25.2115 5.33309C25.1236 5.37978 24.9639 5.44442 24.8531 5.47675C24.713 5.51625 24.5762 5.53062 24.4198 5.51625C24.2927 5.50548 24.1038 5.46238 23.9962 5.41569C23.8887 5.36901 23.7128 5.26486 23.6053 5.17867C23.4977 5.09607 23.2273 4.89136 23.0025 4.72257C22.7777 4.55737 22.4421 4.33112 22.2531 4.21979C22.0642 4.11205 21.7481 3.95044 21.5526 3.86425C21.3571 3.77806 21.0411 3.65595 20.8521 3.5949C20.6632 3.53744 20.3178 3.45125 20.0865 3.40456C19.7281 3.33273 19.5521 3.32196 18.9298 3.32196C18.3987 3.32196 18.0892 3.33992 17.8058 3.3866C17.5907 3.41893 17.2388 3.49075 17.0238 3.53744C16.8088 3.58772 16.3624 3.717 16.0301 3.82115C15.6977 3.92889 15.1406 4.13 14.792 4.27007C14.4434 4.41013 13.4301 4.84468 12.5439 5.23613C11.6576 5.62758 10.7193 6.0334 10.4586 6.13755C10.198 6.24169 9.78095 6.39971 9.53008 6.4859C9.2792 6.5721 8.85564 6.70856 8.58521 6.78398C8.31804 6.86299 7.89774 6.96355 7.65664 7.01383C7.41554 7.0641 6.98872 7.13234 6.71178 7.16466C6.33383 7.20776 6.02757 7.21853 5.48997 7.20417C5.08596 7.19339 4.62331 7.15748 4.43108 7.12516C4.24211 7.09283 3.94236 7.02819 3.76316 6.9815C3.58396 6.93482 3.25489 6.83426 3.03008 6.75166C2.80526 6.67265 2.46967 6.53259 2.2807 6.44281C2.09173 6.35302 1.7985 6.19501 1.62907 6.09445C1.45965 5.99389 1.13709 5.77842 0.912281 5.61681C0.677694 5.45161 0.443108 5.25049 0.361654 5.14635C0.286717 5.04938 0.195489 4.91291 0.162907 4.84468C0.130326 4.77644 0.0814536 4.6292 0.0521303 4.52146C0.022807 4.41372 0 4.19824 0 4.04381C0 3.85707 0.022807 3.69187 0.068421 3.54103C0.107519 3.41893 0.188972 3.23218 0.257393 3.12444C0.322556 3.0167 0.449624 2.86227 0.537594 2.78686C0.628822 2.70785 0.75589 2.61447 0.824311 2.57856C0.889474 2.53906 1.04261 2.48519 1.16316 2.45286C1.31303 2.41336 1.45639 2.40259 1.59649 2.41695C1.71378 2.42772 1.87343 2.46005 1.95489 2.49237C2.03634 2.5211 2.26115 2.66116 2.4599 2.79763C2.65865 2.93769 3.00727 3.15676 3.24185 3.28246C3.47644 3.40815 3.799 3.55899 3.95865 3.62004C4.1183 3.6775 4.41153 3.7601 4.61028 3.8032C4.85464 3.85707 5.14135 3.88939 5.50627 3.90375C5.82231 3.91453 6.20025 3.90375 6.41855 3.87861C6.62381 3.85347 7.00501 3.78883 7.26566 3.73137C7.52632 3.67391 7.94336 3.55899 8.19423 3.47998C8.44511 3.39738 8.83283 3.26091 9.05764 3.17831C9.28246 3.09212 9.67669 2.9341 9.93734 2.82277C10.198 2.71503 10.9376 2.39181 11.5827 2.10451C12.2278 1.8172 12.9739 1.49039 13.2444 1.37547C13.5115 1.26414 13.9905 1.07739 14.3033 0.958879C14.616 0.843958 15.02 0.700305 15.1992 0.642844C15.3784 0.585383 15.701 0.492009 15.916 0.430957C16.1311 0.373496 16.5123 0.280122 16.7632 0.229844Z" fill="#F5F6FD"/>
<path d="M17.4799 12.8892C17.7504 12.8497 18.0436 12.8138 18.1316 12.803C18.2195 12.7958 18.6529 12.7958 19.0927 12.7994C19.702 12.8102 19.9985 12.8317 20.3471 12.8892C20.598 12.9323 20.9336 12.9969 21.0965 13.0365C21.2594 13.076 21.5657 13.1657 21.7807 13.234C21.9957 13.3058 22.3541 13.4387 22.5789 13.5356C22.8038 13.6326 23.2143 13.8409 23.4912 13.9953C23.7682 14.1498 24.1429 14.376 24.3221 14.5017C24.5013 14.6238 24.8075 14.8501 25.003 15.0009C25.1985 15.1553 25.4266 15.3421 25.508 15.4247C25.5895 15.5037 25.7035 15.6509 25.7622 15.7479C25.8208 15.8449 25.8957 16.0208 25.9348 16.1393C25.9804 16.2902 26 16.4446 26 16.6493C26 16.8361 25.9772 17.0264 25.9414 17.1521C25.9088 17.267 25.8241 17.4574 25.7524 17.5723C25.684 17.6908 25.5667 17.8416 25.495 17.9063C25.4233 17.9745 25.2767 18.0751 25.1692 18.1361C25.0617 18.1936 24.8857 18.2582 24.7782 18.2798C24.6707 18.3013 24.4915 18.3085 24.3807 18.2977C24.2667 18.2869 24.0972 18.2438 24.006 18.2079C23.9115 18.1684 23.7617 18.0786 23.6704 18.0104C23.5825 17.9386 23.2892 17.7195 23.0188 17.5184C22.7386 17.3101 22.3216 17.0444 22.0414 16.8899C21.7742 16.7463 21.3767 16.5631 21.1617 16.4841C20.9466 16.4087 20.6241 16.3081 20.4449 16.265C20.2657 16.2219 19.9496 16.1645 19.7444 16.1357C19.5391 16.107 19.1709 16.0855 18.9298 16.0855C18.6887 16.0855 18.2977 16.1106 18.0664 16.1393C17.8351 16.1681 17.4799 16.2255 17.2845 16.265C17.089 16.3081 16.7794 16.38 16.6003 16.4302C16.4211 16.4805 16.0985 16.5775 15.8835 16.6493C15.6684 16.7211 15.2058 16.8899 14.8571 17.0264C14.5085 17.1665 13.5474 17.5759 12.7231 17.9422C11.8987 18.3085 10.9962 18.6999 10.7193 18.8149C10.4424 18.9298 9.96667 19.1129 9.6604 19.2207C9.35413 19.3284 8.90777 19.4757 8.66667 19.5475C8.42556 19.6157 8.04436 19.7163 7.81955 19.763C7.59474 19.8132 7.17118 19.8887 6.87469 19.9282C6.50652 19.9785 6.1416 20 5.71804 20C5.34987 20 4.94261 19.9785 4.70802 19.9461C4.49298 19.9138 4.1411 19.8492 3.92606 19.8025C3.71103 19.7558 3.34612 19.6481 3.11153 19.5654C2.87694 19.4828 2.51855 19.3356 2.31328 19.2386C2.10802 19.1417 1.77895 18.9657 1.5802 18.8472C1.38471 18.7251 1.07519 18.524 0.89599 18.3947C0.716792 18.2654 0.514787 18.1038 0.446366 18.032C0.377945 17.9565 0.2802 17.8273 0.22807 17.7375C0.17594 17.6477 0.104261 17.4789 0.0651629 17.3604C0.0195489 17.2096 0 17.0551 0 16.8468C0 16.6385 0.022807 16.4805 0.0716792 16.3081C0.114035 16.1681 0.208521 15.9777 0.293233 15.852C0.374687 15.7335 0.521303 15.5755 0.619048 15.5001C0.716792 15.4247 0.879699 15.3313 0.977444 15.2882C1.11754 15.2271 1.22832 15.2128 1.48246 15.2092C1.73985 15.2092 1.84411 15.2236 1.98747 15.2882C2.08521 15.3313 2.32632 15.4785 2.52506 15.6222C2.72381 15.7623 3.0594 15.9705 3.27444 16.0855C3.48947 16.2004 3.80551 16.344 3.97494 16.4015C4.14436 16.4626 4.43759 16.5487 4.62657 16.5918C4.92306 16.6637 5.06316 16.6744 5.70175 16.6744C6.26216 16.678 6.51955 16.6637 6.79323 16.6134C6.99198 16.5775 7.39273 16.4841 7.68922 16.4051C7.98571 16.3261 8.54937 16.1429 8.94361 15.9993C9.33784 15.852 10.4 15.4067 11.3058 15.0081C12.2115 14.6094 13.1043 14.218 13.2932 14.139C13.4822 14.06 13.8178 13.9235 14.0426 13.8373C14.2674 13.7475 14.6617 13.6039 14.9223 13.5177C15.183 13.4315 15.6 13.3022 15.8509 13.234C16.1018 13.1657 16.4601 13.076 16.6491 13.0329C16.8381 12.9934 17.2128 12.9287 17.4799 12.8892Z" fill="#F5F6FD"/>
<path d="M17.594 6.47872C17.8188 6.44999 18.0762 6.41767 18.1642 6.41049C18.2521 6.4033 18.6789 6.4033 19.109 6.41049C19.5652 6.41767 20.0343 6.4464 20.2331 6.47513C20.4221 6.50745 20.6925 6.55414 20.8358 6.58646C20.9792 6.61519 21.292 6.69779 21.5298 6.76603C21.7644 6.83426 22.1554 6.97073 22.39 7.0677C22.6278 7.16466 22.9927 7.33345 23.198 7.4376C23.4033 7.54534 23.7356 7.73568 23.9311 7.85778C24.1266 7.98348 24.4947 8.23487 24.7456 8.41803C24.9965 8.60118 25.2897 8.83103 25.3972 8.92799C25.5048 9.02496 25.6481 9.18298 25.7165 9.27994C25.7817 9.3805 25.8697 9.54929 25.9088 9.65703C25.9576 9.79709 25.9837 9.95511 25.9935 10.1957C26.0033 10.4651 25.9902 10.5872 25.9381 10.7775C25.8925 10.9355 25.8143 11.1007 25.7165 11.2444C25.6286 11.3665 25.4787 11.5317 25.381 11.6071C25.2832 11.6825 25.1203 11.7759 25.0226 11.819C24.8825 11.88 24.7717 11.8944 24.5175 11.898C24.2601 11.898 24.1526 11.88 24.0125 11.8226C23.9148 11.7795 23.7617 11.6861 23.6704 11.6179C23.586 11.549 23.3248 11.3545 23.0822 11.1739L23.0514 11.151C22.8005 10.9643 22.4551 10.7308 22.2857 10.6303C22.1163 10.5333 21.8133 10.3753 21.6178 10.2855C21.4223 10.1921 21.1193 10.0736 20.9499 10.0162C20.7805 9.96229 20.4872 9.88328 20.2982 9.84019C20.1093 9.80068 19.803 9.7504 19.614 9.72886C19.4251 9.7109 19.1025 9.69294 18.8972 9.69294C18.692 9.69294 18.3238 9.71808 18.0827 9.74681C17.8416 9.77554 17.4799 9.833 17.2845 9.87251C17.089 9.9156 16.7794 9.98743 16.6003 10.0377C16.4211 10.088 16.0985 10.185 15.8835 10.2568C15.6684 10.3286 15.2058 10.4974 14.8571 10.6375C14.5085 10.7739 13.5474 11.1869 12.7231 11.5496C11.8987 11.916 10.9962 12.3074 10.7193 12.4223C10.4424 12.5373 9.98622 12.7132 9.70927 12.8138C9.43233 12.9143 9.01203 13.0544 8.7807 13.1226C8.54937 13.1909 8.14536 13.2986 7.88471 13.3561C7.62406 13.4135 7.24286 13.489 7.03759 13.5177C6.83233 13.55 6.34035 13.5859 5.94612 13.5967C5.38897 13.6111 5.1218 13.6039 4.75689 13.5572C4.49624 13.5213 4.11504 13.4566 3.90977 13.4099C3.70451 13.3597 3.34612 13.2555 3.11153 13.1729C2.87694 13.0903 2.51855 12.9467 2.31328 12.8497C2.10802 12.7527 1.77569 12.5768 1.5802 12.4547C1.38471 12.3326 1.06867 12.1243 0.879699 11.9914C0.690727 11.8549 0.478947 11.6753 0.40401 11.5892C0.332331 11.5066 0.234586 11.3629 0.188972 11.2731C0.1401 11.1833 0.0814536 11.0217 0.0521303 10.914C0.022807 10.8062 0 10.5908 0 10.4363C0 10.2496 0.022807 10.0844 0.068421 9.93356C0.107519 9.81146 0.188972 9.62471 0.257393 9.51697C0.322556 9.40923 0.449624 9.2548 0.537594 9.17939C0.628822 9.10038 0.75589 9.007 0.824311 8.97109C0.889474 8.93159 1.04261 8.87772 1.16642 8.84539C1.31303 8.80589 1.45639 8.79512 1.59649 8.80948C1.71378 8.82025 1.87343 8.85258 1.95489 8.8849C2.03634 8.91363 2.26115 9.0501 2.4599 9.19016C2.65865 9.33022 2.97143 9.53133 3.1604 9.63548C3.34937 9.74322 3.65564 9.89046 3.84461 9.96229C4.03358 10.0341 4.35614 10.1347 4.5614 10.1814C4.83183 10.246 5.08271 10.2783 5.47368 10.2927C5.7995 10.3071 6.15789 10.2963 6.38596 10.2711C6.59123 10.2496 6.88446 10.2029 7.03759 10.1742C7.19073 10.1419 7.5198 10.0628 7.77068 9.99461C8.02155 9.92279 8.47444 9.77913 8.7807 9.6678C9.08697 9.55647 9.61479 9.35177 9.95363 9.20812C10.2925 9.06446 11.107 8.70892 11.7619 8.41803C12.4168 8.12713 13.1857 7.79314 13.4724 7.67463C13.7591 7.55611 14.1632 7.3981 14.3684 7.32268C14.5737 7.24726 14.8897 7.13593 15.0689 7.07488C15.2481 7.01383 15.6293 6.9025 15.916 6.82349C16.2028 6.74807 16.6068 6.6511 16.812 6.60801C17.0173 6.5685 17.3692 6.51104 17.594 6.47872Z" fill="#F5F6FD"/>
</svg>
