<svg width="22" height="29" viewBox="0 0 22 29" fill="none" xmlns="http://www.w3.org/2000/svg">
<path d="M15.3335 4.18947C16.2368 1.82409 16.9161 0.1483 16.9982 0.0963948V0.0889798C17.0953 0.022245 17.7074 0 19.4244 0C20.6935 0 21.776 0.01483 21.8357 0.0370749C21.8954 0.0593199 21.9477 0.13347 21.9477 0.200205C21.9477 0.274354 21.1638 1.76477 18.4689 6.71056L20.2232 6.74763C21.8282 6.78471 21.985 6.79954 21.9999 6.91818C22.0148 6.98491 20.2157 9.68397 17.9836 12.9614C15.759 16.2092 13.8852 18.9305 13.8181 19.0046C13.7509 19.0788 13.624 19.1381 13.5269 19.1307C13.3925 19.1307 13.3702 19.101 13.4075 18.9675C13.4373 18.8711 14.2585 16.6763 15.2439 14.0885C16.2219 11.5006 17.0206 9.35771 17.0206 9.32805C17.0206 9.29097 16.2741 9.26873 15.3559 9.26873C13.9524 9.27614 13.6837 9.26131 13.6016 9.1575C13.5269 9.06852 13.5418 8.96472 13.6538 8.62363C13.7285 8.38635 14.4825 6.39172 15.3335 4.18947Z" fill="#DFE8F4"/>
<path d="M2.47098 9.86934C4.08346 5.61314 4.68814 4.07824 4.82998 3.95219L5.00914 3.78906H8.12212C10.6678 3.78906 11.265 3.80389 11.3844 3.89287C11.5262 3.98926 11.4964 4.056 10.4737 5.90974C9.91752 6.92247 8.90512 8.74689 6.99418 12.1905L6.71867 12.687H9.01048C10.9962 12.6796 11.3247 12.6945 11.3993 12.7983C11.4815 12.8872 11.4665 12.9688 11.3172 13.2209C11.2127 13.3989 8.7716 17.01 0.634541 28.9629L0 29L0.21649 28.429C0.335933 28.1102 1.44078 25.1961 4.90463 16.0609L2.69493 16.0386C1.09738 16.0238 0.455376 15.9941 0.38819 15.9274C0.335933 15.8755 0.291142 15.7865 0.298607 15.7272C0.298607 15.6679 1.27655 13.0281 2.47098 9.86934Z" fill="#DFE8F4"/>
</svg>
