<svg width="26" height="28" viewBox="0 0 26 28" fill="none" xmlns="http://www.w3.org/2000/svg">
<path fill-rule="evenodd" clip-rule="evenodd" d="M12.4718 0.0673851C12.3462 0.1009 12.152 0.179101 12.0377 0.238682C11.9235 0.301988 11.7369 0.436046 11.6226 0.536591C11.5084 0.640858 11.3484 0.830775 11.2723 0.964833C11.1923 1.09889 11.0971 1.29998 11.0666 1.4117C11.0323 1.52341 10.9943 1.71705 10.9828 1.83994C10.9676 1.98517 10.9828 2.16391 11.0209 2.34266C11.0552 2.49534 11.1352 2.72249 11.1961 2.84538C11.2608 2.96827 11.3903 3.15818 11.4931 3.2699C11.5922 3.38161 11.7788 3.53802 11.912 3.62366L12.152 3.77634L12.1291 5.63827C11.9653 5.6522 11.7649 5.6824 11.5776 5.71063C11.5646 5.71259 11.5517 5.71453 11.5388 5.71647C11.3408 5.74998 11.0133 5.81701 10.8153 5.86915C10.6173 5.91756 10.2479 6.03672 9.99652 6.12609C9.80263 6.19791 9.62007 6.26308 9.53275 6.29425C9.50688 6.30348 9.48937 6.30973 9.48241 6.31229C9.44052 6.32346 9.32627 6.15588 9.07113 5.72392L8.71696 5.11693C8.8731 4.71475 8.89214 4.59559 8.89214 4.3163C8.89214 3.99233 8.88072 3.94019 8.76647 3.71304C8.70173 3.57153 8.56464 3.37417 8.46562 3.2699C8.34376 3.14329 8.18762 3.0353 7.99721 2.94592C7.7573 2.83048 7.66209 2.80814 7.40694 2.79324C7.19368 2.7858 7.03374 2.80069 6.8738 2.84538C6.74813 2.87889 6.56914 2.95337 6.47394 3.00923C6.38254 3.06136 6.23021 3.18053 6.13881 3.27362C6.04742 3.36672 5.92175 3.54174 5.86082 3.66463C5.80369 3.78751 5.73515 3.9886 5.7161 4.11149C5.69706 4.2381 5.69325 4.43174 5.70849 4.55835C5.72753 4.68124 5.77703 4.86743 5.82273 4.96797C5.86843 5.07224 5.95221 5.2212 6.00934 5.2994C6.06646 5.38132 6.21498 5.51911 6.34065 5.60848C6.47394 5.7053 6.67196 5.80212 6.81667 5.8468C6.95377 5.88777 7.1061 5.91756 7.15941 5.91756C7.24319 5.91383 7.29651 5.98831 7.60878 6.51337C7.79919 6.84107 7.95913 7.12036 7.95913 7.13898C7.95913 7.15388 7.81061 7.28049 7.62782 7.42572C7.44502 7.56722 7.11371 7.86141 6.89284 8.07739C6.67196 8.29338 6.38254 8.60618 6.24544 8.77748C6.10835 8.94505 5.98649 9.08283 5.97125 9.08283C5.95221 9.08283 5.67041 8.93015 5.3429 8.74396C5.01159 8.55777 4.64981 8.35296 4.53937 8.28593L4.34134 8.17049C4.34134 7.82417 4.31469 7.62308 4.28041 7.50019C4.24995 7.37731 4.16617 7.17622 4.10143 7.05333C4.03288 6.93044 3.87674 6.72936 3.75107 6.60647C3.6254 6.48358 3.41976 6.32718 3.29409 6.26388C3.16842 6.19685 2.95516 6.11865 2.81807 6.08885C2.68097 6.05534 2.47533 6.02927 2.36108 6.02927C2.24684 6.02927 2.04881 6.04789 1.92314 6.07023C1.79747 6.09258 1.59183 6.15961 1.46616 6.21547C1.34049 6.27505 1.13484 6.40911 1.01298 6.52082C0.88731 6.62881 0.719749 6.81873 0.639777 6.94162C0.555997 7.0645 0.456984 7.27304 0.415093 7.4071C0.365587 7.5635 0.33893 7.75714 0.335121 7.96568C0.335121 8.16304 0.357971 8.36785 0.399861 8.50563C0.434134 8.62852 0.510298 8.81471 0.563613 8.91526C0.616928 9.0158 0.761639 9.20944 0.891118 9.33605C1.0206 9.46639 1.22624 9.63024 1.35191 9.69727C1.47758 9.7643 1.67561 9.84995 1.78985 9.88346C1.9041 9.91325 2.14401 9.94304 2.323 9.94304C2.50199 9.94677 2.72286 9.92815 2.81807 9.90208C2.91327 9.87974 3.11511 9.80153 3.26743 9.73078L3.54162 9.60417C3.82568 9.76692 4.06706 9.90438 4.27179 10.021C4.41839 10.1045 4.54619 10.1772 4.65742 10.2409C4.924 10.3936 5.14487 10.5277 5.14107 10.5426C5.14107 10.5612 5.08394 10.7102 5.01159 10.8777C4.93923 11.049 4.82118 11.3879 4.74501 11.6337C4.67266 11.8794 4.57745 12.2816 4.53556 12.5274C4.49367 12.7732 4.45559 13.0189 4.45559 13.0748V13.1791L2.98943 13.1753C2.62385 12.7806 2.49818 12.6912 2.28492 12.5907C2.05643 12.4827 1.94218 12.4529 1.71369 12.438C1.52709 12.4306 1.35572 12.4455 1.21862 12.4827C1.10438 12.5162 0.898735 12.613 0.761639 12.7024C0.605503 12.8067 0.453175 12.9482 0.335121 13.1046C0.236108 13.2387 0.118054 13.4472 0.0761639 13.5701C0.0342738 13.693 0 13.8866 0 13.9983C0 14.11 0.0266574 14.2962 0.0609312 14.4079C0.0952049 14.5197 0.156136 14.6761 0.194218 14.7505C0.2323 14.8287 0.331313 14.9628 0.411285 15.0447C0.487449 15.1304 0.628353 15.2495 0.723557 15.3128C0.818762 15.3761 0.990131 15.4581 1.10438 15.4953C1.23386 15.54 1.42427 15.5661 1.59944 15.5661C1.767 15.5661 1.96503 15.54 2.07547 15.5065C2.1821 15.473 2.33442 15.4059 2.41821 15.3575C2.50199 15.3128 2.66955 15.1713 2.79141 15.0447L3.00848 14.8176C4.24233 14.8176 4.42132 14.8287 4.43274 14.8623C4.44036 14.8883 4.47463 15.0931 4.50891 15.3203C4.54318 15.5474 4.61553 15.8938 4.66504 16.0911C4.71836 16.2922 4.84022 16.6609 4.93542 16.9104C5.03063 17.1636 5.1106 17.4019 5.11441 17.4392C5.12203 17.495 4.95066 17.6067 4.3223 17.9642L3.52258 18.4148C3.19889 18.2398 2.9742 18.1616 2.81807 18.1243C2.66193 18.0871 2.43725 18.0573 2.323 18.0573C2.20875 18.0573 2.00311 18.0834 1.86602 18.1169C1.72892 18.1467 1.51566 18.2286 1.3938 18.2919C1.27194 18.3589 1.07772 18.493 0.967282 18.5973C0.853036 18.6978 0.700708 18.884 0.628353 19.0069C0.552189 19.1298 0.456984 19.3383 0.415093 19.4724C0.366856 19.6337 0.342738 19.8199 0.342738 20.031C0.342738 20.2097 0.369395 20.4369 0.403669 20.5523C0.437943 20.664 0.517915 20.8577 0.582654 20.9805C0.651202 21.1034 0.807338 21.3045 0.933008 21.4274C1.0701 21.5615 1.26051 21.6992 1.40903 21.77C1.54613 21.837 1.767 21.9152 1.9041 21.945C2.04119 21.9785 2.23922 22.0046 2.34204 22.0046C2.44867 22.0046 2.64289 21.9785 2.77998 21.945C2.91708 21.9152 3.13795 21.8296 3.27505 21.7625C3.41214 21.6918 3.61017 21.554 3.71299 21.4572C3.81962 21.3604 3.96052 21.1928 4.02907 21.0923C4.09762 20.988 4.18902 20.813 4.23471 20.7013C4.28041 20.5746 4.3185 20.3698 4.32992 20.1613L4.35277 19.8261L5.99791 18.9026C6.11596 19.0702 6.2721 19.2601 6.42062 19.4351C6.56914 19.6102 6.85475 19.9006 7.04897 20.0831C7.247 20.2656 7.54023 20.5151 7.70398 20.6342L7.99721 20.8502L7.27746 22.0605C6.90426 22.1349 6.70623 22.1982 6.59961 22.2466C6.48917 22.2988 6.30257 22.4291 6.18451 22.5371C6.05884 22.6525 5.92936 22.8201 5.86082 22.9542C5.79988 23.0771 5.73134 23.2819 5.7123 23.4122C5.68564 23.5686 5.68564 23.725 5.7161 23.8926C5.73895 24.0341 5.79608 24.2277 5.84558 24.332C5.89509 24.4326 6.00172 24.5927 6.08169 24.682C6.16166 24.7714 6.29495 24.8943 6.37873 24.9502C6.46251 25.006 6.60722 25.0805 6.70243 25.114C6.79763 25.1475 6.969 25.1922 7.08325 25.2108C7.21653 25.2295 7.38409 25.2295 7.54023 25.2071C7.67733 25.1848 7.89058 25.1215 8.01625 25.0619C8.16097 24.9911 8.32091 24.872 8.4542 24.7342C8.56844 24.615 8.70173 24.4363 8.75124 24.3395C8.79694 24.2426 8.85406 24.0751 8.87691 23.9671C8.90356 23.8628 8.91118 23.6654 8.89976 23.5314C8.88833 23.3973 8.84644 23.2 8.80074 23.092L8.72077 22.8983C8.83393 22.6955 8.96265 22.4774 9.08552 22.2692C9.11152 22.2252 9.13725 22.1816 9.16252 22.1387C9.30723 21.8966 9.4329 21.6918 9.44433 21.6881C9.45575 21.6806 9.57381 21.7216 9.7109 21.7774C9.848 21.837 10.145 21.9413 10.3773 22.0158C10.6096 22.0865 11.0019 22.1908 11.2532 22.2392C11.5046 22.2913 11.8092 22.3435 11.9311 22.3546L12.1481 22.377V24.2575C11.8663 24.4102 11.6835 24.5629 11.5579 24.6932C11.4322 24.8236 11.2723 25.0395 11.2037 25.1699C11.1276 25.3188 11.059 25.5348 11.0247 25.7285C10.9714 26.0077 10.9714 26.0822 11.0247 26.3615C11.0552 26.544 11.1314 26.7786 11.1999 26.9201C11.2799 27.0802 11.417 27.2515 11.5922 27.4265C11.7521 27.5792 11.9501 27.7319 12.072 27.7877C12.1862 27.8436 12.3766 27.9144 12.4909 27.9441C12.6051 27.9739 12.8374 28 13.005 28C13.1726 28 13.4049 27.9739 13.5191 27.9441C13.6333 27.9144 13.8238 27.8436 13.938 27.7877C14.0522 27.7282 14.2617 27.5755 14.3988 27.4414C14.5511 27.2962 14.6996 27.11 14.7682 26.9759C14.8291 26.8531 14.9091 26.652 14.9434 26.5291C14.9776 26.4062 15.0043 26.1902 15.0043 26.045C15.0043 25.8997 14.9776 25.6838 14.9434 25.5609C14.9129 25.438 14.8405 25.2444 14.7834 25.1326C14.7225 25.0135 14.5702 24.8198 14.414 24.6672C14.2655 24.5219 14.0789 24.373 13.9951 24.3283L13.8428 24.2538L13.8238 22.377C14.1627 22.3435 14.4711 22.2951 14.7301 22.2429C14.9853 22.1945 15.4384 22.0716 15.7393 21.9711C16.0363 21.8743 16.3448 21.7626 16.4248 21.729L16.5657 21.6695C16.7256 21.945 16.8855 22.2206 17.0303 22.4589L17.2892 22.8983C17.1331 23.2223 17.1217 23.3191 17.1178 23.6617C17.1178 24.0341 17.1255 24.09 17.2245 24.2948C17.2854 24.4177 17.3806 24.5778 17.4377 24.6485C17.4949 24.7193 17.6281 24.8385 17.731 24.9167C17.8338 24.9911 18.028 25.0879 18.1651 25.1326C18.3403 25.1885 18.504 25.2146 18.7173 25.2146C18.9305 25.2146 19.0867 25.1922 19.2314 25.1364C19.3456 25.0954 19.5399 24.9911 19.6617 24.9018C19.7874 24.8124 19.9511 24.6485 20.0273 24.5368C20.1035 24.4251 20.1987 24.224 20.2368 24.09C20.2863 23.9187 20.3015 23.7623 20.2901 23.55C20.2786 23.3005 20.252 23.2037 20.1377 22.9728C20.0425 22.7754 19.9397 22.6414 19.7988 22.5148C19.6846 22.4142 19.5094 22.2951 19.4028 22.2429C19.2999 22.1945 19.1019 22.1312 18.9648 22.1051L18.7173 22.0567C18.287 21.338 18.127 21.0662 18.0889 20.988L18.0128 20.8502C18.5307 20.4629 18.8696 20.165 19.0981 19.9379C19.3304 19.7144 19.6274 19.3905 19.7645 19.2192C19.9016 19.0479 20.0159 18.9101 20.0235 18.9138C20.0273 18.9138 20.3929 19.1186 20.8346 19.3681L21.642 19.8261C21.661 20.2581 21.6991 20.4927 21.741 20.6268C21.7829 20.7608 21.8895 20.9768 21.9809 21.1072C22.0723 21.2412 22.2323 21.42 22.3351 21.5093C22.4417 21.5987 22.6435 21.729 22.7921 21.7998C22.9406 21.8668 23.15 21.9413 23.2605 21.9636C23.3671 21.986 23.5575 22.0046 23.6794 22.0046C23.7974 22.0046 23.9993 21.9785 24.1249 21.945C24.2506 21.9152 24.4639 21.837 24.601 21.77C24.7495 21.6992 24.9399 21.5615 25.077 21.4274C25.2026 21.3045 25.3588 21.1034 25.4273 20.9805C25.4921 20.8577 25.5759 20.6566 25.6063 20.5337C25.6406 20.4108 25.6672 20.1836 25.6672 20.031C25.6672 19.8783 25.6406 19.6511 25.6063 19.5282C25.5759 19.4053 25.4921 19.2043 25.4273 19.0814C25.3588 18.9585 25.2026 18.7574 25.077 18.6345C24.9513 18.5116 24.7457 18.3589 24.62 18.2919C24.4943 18.2286 24.2811 18.1467 24.144 18.1169C24.0069 18.0834 23.7936 18.0573 23.6679 18.0573C23.5423 18.0573 23.329 18.0834 23.1919 18.1169C23.0548 18.1467 22.8416 18.2286 22.7159 18.2956L22.4874 18.4185L20.8308 17.4987C20.926 17.2828 21.0136 17.0593 21.086 16.8657C21.1583 16.672 21.2688 16.3183 21.3297 16.0837C21.3906 15.8491 21.4706 15.4655 21.5087 15.2346L21.5734 14.8176H23.0206C23.1691 15.0298 23.2795 15.1453 23.3633 15.2123C23.4471 15.2793 23.6184 15.3799 23.7441 15.4357C23.9269 15.5176 24.0411 15.5437 24.3153 15.5549C24.5933 15.5661 24.7076 15.5549 24.9056 15.4879C25.0427 15.4469 25.2331 15.3501 25.3359 15.2793C25.4349 15.2123 25.5797 15.0745 25.6596 14.974C25.7396 14.8771 25.8424 14.7021 25.8881 14.583C25.9338 14.4675 25.9833 14.2739 25.9948 14.1547C26.0062 14.0393 25.9986 13.8419 25.9757 13.719C25.9491 13.5961 25.8881 13.4099 25.8348 13.3094C25.7815 13.2051 25.6901 13.0636 25.633 12.9929C25.572 12.9221 25.4235 12.7955 25.3017 12.7173C25.1798 12.6354 24.978 12.5386 24.8599 12.5013C24.738 12.4641 24.5286 12.4343 24.3915 12.4343C24.2468 12.4343 24.0488 12.4641 23.9155 12.5088C23.7898 12.5497 23.6222 12.6242 23.5461 12.6726C23.4661 12.721 23.3442 12.8141 23.2795 12.8774C23.211 12.9407 23.1272 13.0338 23.0967 13.086L23.0396 13.1791H21.5544C21.5201 12.8476 21.4782 12.5907 21.4401 12.3971C21.3983 12.2034 21.3069 11.8422 21.2345 11.5964C21.1621 11.3507 21.0441 11.0118 20.9679 10.8405L20.8308 10.5351C20.8469 10.5257 20.8636 10.5159 20.8809 10.5057C21.008 10.4311 21.1684 10.3369 21.3259 10.2484C21.5049 10.1441 21.8324 9.95794 22.0609 9.83133L22.4684 9.60417C22.8949 9.80153 23.0891 9.87601 23.1729 9.89835C23.2567 9.9207 23.4775 9.93932 23.6679 9.93932C23.9193 9.93932 24.0754 9.91698 24.2582 9.85367C24.3953 9.80898 24.6086 9.71216 24.7304 9.64141C24.8523 9.57066 25.0313 9.42543 25.1303 9.32116C25.2255 9.22061 25.3588 9.03442 25.4273 8.91153C25.4921 8.79237 25.5759 8.58384 25.6063 8.44978C25.6406 8.31572 25.6672 8.11463 25.6672 8.00291C25.6672 7.8912 25.652 7.70501 25.6292 7.59329C25.6101 7.48158 25.5302 7.26187 25.4502 7.10919C25.355 6.91555 25.2369 6.75542 25.0617 6.58413C24.898 6.42772 24.7228 6.30111 24.5629 6.22664C24.4258 6.16333 24.2125 6.08885 24.0868 6.06651C23.9612 6.04044 23.7136 6.02927 23.5347 6.03672C23.3404 6.04789 23.1196 6.08885 22.9825 6.13726C22.8568 6.18195 22.6626 6.27505 22.556 6.3458C22.4455 6.41655 22.278 6.55434 22.1827 6.65116C22.0875 6.7517 21.9619 6.923 21.9009 7.03471C21.84 7.14643 21.7638 7.32145 21.7296 7.42572C21.6953 7.52626 21.661 7.7348 21.6496 7.88003C21.6382 8.02898 21.6229 8.16304 21.6153 8.17794C21.6077 8.19656 21.4516 8.29338 21.265 8.39764C21.1961 8.43612 21.1075 8.48576 21.0121 8.53926C20.8489 8.63072 20.6655 8.73346 20.5262 8.81099C20.3053 8.9376 20.0997 9.04932 20.0692 9.06421C20.0311 9.07911 19.9511 9.01208 19.8064 8.83333C19.6922 8.69555 19.418 8.39764 19.1971 8.17421C18.9724 7.9545 18.6221 7.63798 18.4126 7.47413C18.2032 7.30655 18.0242 7.16877 18.0128 7.16132C18.0013 7.15388 18.1042 6.96768 18.2375 6.74798C18.3541 6.55246 18.497 6.31988 18.5768 6.18996C18.5882 6.1714 18.5983 6.15495 18.6069 6.14099C18.7211 5.94735 18.7401 5.93618 18.9153 5.91011C19.0143 5.89521 19.2009 5.8468 19.3266 5.80212C19.5018 5.73509 19.6198 5.65316 19.8255 5.4558C20.0387 5.24354 20.1111 5.143 20.1873 4.94936C20.2596 4.75199 20.2786 4.64028 20.2786 4.33492C20.2786 3.99233 20.271 3.94392 20.1568 3.70931C20.0882 3.57153 19.9473 3.37044 19.8445 3.26245C19.715 3.12839 19.5741 3.03157 19.3799 2.9422C19.1628 2.84166 19.0334 2.80814 18.8125 2.79697C18.6525 2.7858 18.4431 2.79697 18.3365 2.82304C18.2336 2.8491 18.0623 2.91241 17.9556 2.96082C17.8528 3.01295 17.6738 3.14329 17.5634 3.24756C17.453 3.35555 17.3121 3.54919 17.2397 3.68325C17.1255 3.9104 17.1178 3.94764 17.1178 4.33492C17.1178 4.68124 17.1331 4.77433 17.2016 4.93074L17.2892 5.11693C16.7446 6.033 16.5733 6.30484 16.558 6.31229C16.539 6.31973 16.4209 6.28249 16.2915 6.23036C16.1582 6.1745 15.8954 6.08141 15.7088 6.02182C15.5222 5.96224 15.1947 5.87287 14.9853 5.82446C14.7758 5.77605 14.4673 5.71647 14.2998 5.69413C14.1322 5.67178 13.957 5.64572 13.9113 5.63454L13.8238 5.61965V3.75772C14.1322 3.59387 14.3264 3.43747 14.4521 3.30714C14.5778 3.17308 14.7263 2.97571 14.7834 2.864C14.8367 2.75228 14.9091 2.55864 14.9434 2.43576C14.9776 2.31287 15.0043 2.10433 15.0043 1.97027C15.0043 1.83622 14.9776 1.62023 14.9434 1.48617C14.9129 1.35211 14.8253 1.13613 14.7491 1.00207C14.673 0.868013 14.513 0.666925 14.395 0.55521C14.2731 0.443494 14.0675 0.298264 13.9342 0.231235C13.8009 0.164205 13.5876 0.0860043 13.462 0.0524897C13.3363 0.0226989 13.1154 -0.0033681 12.9669 0.000355751C12.8184 0.000355751 12.5975 0.0301466 12.4718 0.0673851ZM14.2505 9.05691L14.2506 9.05688L14.2507 9.05684C14.2746 9.04982 14.2946 9.04392 14.3095 9.03947C14.3162 9.03749 14.3219 9.0358 14.3264 9.03442C14.376 9.02325 14.6197 9.01953 14.871 9.02325C15.2518 9.03442 15.3775 9.05304 15.6136 9.13497C15.7698 9.19083 15.9944 9.28765 16.1087 9.35095C16.2229 9.41426 16.4552 9.60417 16.6228 9.76802C16.8056 9.94677 16.9808 10.1628 17.0493 10.2931C17.1179 10.416 17.2054 10.6171 17.2511 10.7399C17.293 10.8628 17.3463 11.09 17.3654 11.2427C17.3959 11.4363 17.392 11.6225 17.3654 11.8497C17.3463 12.0284 17.2892 12.2779 17.2397 12.4082C17.194 12.5348 17.095 12.7397 17.0226 12.8625C16.9503 12.9817 16.7675 13.2014 16.6228 13.3466C16.4743 13.4882 16.2458 13.6706 16.1087 13.7488C15.9716 13.827 15.7241 13.9313 15.5565 13.9871C15.2937 14.0728 15.1909 14.0877 14.7758 14.0877C14.3607 14.0877 14.2579 14.0728 13.9951 13.9871C13.8276 13.9313 13.58 13.827 13.4429 13.7488C13.3058 13.6706 13.0659 13.4807 12.9098 13.328C12.6927 13.1158 12.5823 12.9743 12.4604 12.7322C12.3728 12.5572 12.27 12.3077 12.2357 12.1736C12.1977 12.0247 12.171 11.7863 12.171 11.5592C12.171 11.332 12.1977 11.0937 12.2357 10.9448C12.27 10.8107 12.3728 10.5612 12.4604 10.3899C12.5594 10.2 12.7156 9.98028 12.8527 9.83505C12.9783 9.70472 13.1992 9.5148 13.3477 9.4217C13.5115 9.31371 13.7362 9.20944 13.9266 9.15359C14.0465 9.11711 14.1701 9.08063 14.2505 9.05691ZM8.06577 12.6987C8.19525 12.6354 8.40089 12.5609 8.52275 12.5311C8.64081 12.5013 8.85026 12.4753 8.98735 12.4753C9.12445 12.4753 9.34151 12.4976 9.4748 12.5274C9.60428 12.5572 9.82516 12.6354 9.96987 12.7024C10.145 12.7843 10.3088 12.9035 10.4954 13.0823C10.6706 13.2573 10.8039 13.4286 10.8838 13.5887C10.9486 13.7228 11.0285 13.9313 11.0628 14.0542C11.0933 14.1771 11.1199 14.3893 11.1199 14.5308C11.1199 14.6686 11.1009 14.8697 11.0781 14.9777C11.0552 15.082 10.979 15.2868 10.9143 15.432C10.8331 15.6058 10.7087 15.7796 10.5411 15.9533C10.3773 16.1246 10.1984 16.2624 10.0308 16.3518C9.88609 16.4263 9.66521 16.5156 9.53954 16.5454C9.41387 16.5789 9.17395 16.605 9.00639 16.605C8.83883 16.605 8.59892 16.5789 8.47325 16.5454C8.34757 16.5156 8.14193 16.4374 8.01626 16.3704C7.88678 16.3071 7.66972 16.1395 7.5212 15.9906C7.36506 15.8416 7.20131 15.6368 7.13276 15.5065C7.06802 15.3836 6.98805 15.1564 6.94997 15.0038C6.90046 14.8027 6.88904 14.6388 6.90046 14.4266C6.91188 14.259 6.96139 14.0169 7.01471 13.868C7.06421 13.7228 7.18227 13.4993 7.27747 13.3653C7.37268 13.2312 7.53643 13.0525 7.63925 12.9705C7.74207 12.8849 7.93248 12.7657 8.06577 12.6987ZM14.9281 15.6778C14.8329 15.6964 14.6501 15.7634 14.5207 15.823C14.3874 15.8863 14.1893 16.0241 14.0789 16.1321C13.9647 16.2364 13.8238 16.4263 13.759 16.5492C13.6943 16.672 13.6219 16.862 13.5991 16.97C13.5762 17.0742 13.5572 17.2418 13.5572 17.3423C13.5572 17.4392 13.5838 17.6179 13.6181 17.7408C13.6486 17.8637 13.7209 18.0461 13.7781 18.1504C13.8352 18.251 13.9723 18.4223 14.0827 18.5302C14.197 18.6457 14.3798 18.7723 14.5207 18.8393C14.6501 18.8989 14.8672 18.9622 15.0043 18.9846C15.1642 19.0069 15.347 19.0069 15.5184 18.9846C15.6707 18.9659 15.8916 18.8989 16.0325 18.8356C16.1848 18.7649 16.36 18.642 16.4933 18.5079C16.6114 18.3925 16.7446 18.2249 16.7942 18.1318C16.8399 18.0387 16.9046 17.8897 16.9313 17.7966C16.9617 17.7036 16.9846 17.495 16.9846 17.3312C16.9846 17.1673 16.9617 16.9588 16.9313 16.8657C16.9046 16.7726 16.8399 16.6236 16.7942 16.5305C16.7446 16.4374 16.619 16.2736 16.5124 16.1619C16.4057 16.0539 16.2191 15.9161 16.1011 15.8565C15.9792 15.7969 15.7812 15.7225 15.6631 15.6927C15.5413 15.6629 15.3661 15.6368 15.2709 15.6405C15.1757 15.6443 15.0233 15.6592 14.9281 15.6778Z" fill="#DFE8F4"/>
</svg>
