<svg width="28" height="28" viewBox="0 0 28 28" fill="none" xmlns="http://www.w3.org/2000/svg">
<path d="M12.8489 0.199424C12.9764 0.152752 13.2098 0.0905238 13.3622 0.0594095C13.5147 0.0282953 13.7822 0.00029246 13.9533 0.00029246C14.1556 -0.00281896 14.3796 0.018961 14.5911 0.062521C14.7716 0.0967466 15.0236 0.162087 15.1511 0.202535C15.2787 0.246095 15.4964 0.342549 15.6333 0.417223C15.7702 0.491898 15.9724 0.619466 16.0844 0.700363C16.1964 0.78126 16.3831 0.949277 16.5044 1.06751C16.6258 1.18886 16.7969 1.40043 16.8902 1.53734C16.9804 1.67424 17.108 1.89826 17.1764 2.03516C17.2418 2.17207 17.332 2.42409 17.3756 2.59522C17.4191 2.76635 17.4658 3.04015 17.4782 3.20195C17.4907 3.36374 17.4907 3.62199 17.4782 3.77756C17.4658 3.93313 17.4191 4.1976 17.3756 4.36873C17.3289 4.55542 17.2324 4.81055 17.136 5.00657C17.0458 5.18704 16.9089 5.41728 16.8342 5.51996C16.7596 5.62264 16.604 5.8031 16.492 5.92133C16.38 6.03957 16.1809 6.21381 16.0533 6.31026C15.9258 6.40672 15.6862 6.54984 15.5244 6.63074C15.3627 6.71163 15.0889 6.81742 14.6067 6.95433L14.588 8.75895C14.5787 9.79817 14.5569 10.6071 14.5382 10.6694C14.5227 10.7285 14.4884 10.8094 14.4636 10.8498C14.4387 10.8872 14.3453 10.9556 14.2551 10.9961C14.168 11.0396 14.0467 11.0739 13.9907 11.0739C13.9378 11.0739 13.8351 11.0458 13.7667 11.0147C13.6982 10.9836 13.6111 10.9245 13.5707 10.8841C13.5333 10.8436 13.4867 10.7534 13.4649 10.6849C13.44 10.6009 13.4276 9.99108 13.4058 6.95121L13.1911 6.89832C13.0698 6.86721 12.8427 6.78631 12.684 6.71786C12.5284 6.64941 12.2858 6.52806 12.152 6.44405C12.0151 6.36316 11.788 6.1858 11.6418 6.0489C11.4956 5.912 11.2964 5.6942 11.2031 5.56663C11.1067 5.43906 10.9542 5.18704 10.8671 5.00657C10.7769 4.82611 10.6649 4.53986 10.6182 4.36873C10.5404 4.08559 10.5342 4.01092 10.5311 3.49753C10.5311 2.97793 10.5373 2.9157 10.6182 2.62633C10.6649 2.45521 10.7676 2.1814 10.8453 2.01961C10.9231 1.85781 11.0351 1.65246 11.0911 1.56845C11.1502 1.48444 11.2778 1.31642 11.3804 1.19508C11.48 1.07373 11.676 0.887048 11.8129 0.775037C11.9498 0.663026 12.1893 0.507455 12.3387 0.429669C12.4911 0.348772 12.7213 0.246095 12.8489 0.199424Z" fill="#DFE8F4"/>
<path d="M9.33333 18.9395C9.49511 18.8244 9.66311 18.7186 9.70667 18.7C9.75022 18.6844 9.83422 18.6688 9.89333 18.6688C9.95245 18.6688 10.0582 18.6937 10.1267 18.7248C10.1951 18.7528 10.2853 18.8213 10.3289 18.8711C10.3724 18.9209 10.4284 19.0173 10.4502 19.0858C10.4751 19.1542 10.4876 19.2756 10.4813 19.3565C10.472 19.4654 10.444 19.5245 10.3756 19.5992C10.3258 19.6521 10.0738 19.8605 9.81556 20.0596C9.56044 20.2588 8.70489 20.8966 7.91778 21.4753C7.13067 22.051 6.48356 22.5395 6.47733 22.555C6.47422 22.5737 6.54267 22.751 6.63289 22.9502C6.72 23.1524 6.82578 23.4355 6.86622 23.5818C6.90667 23.728 6.95333 23.9925 6.97511 24.1729C7.00311 24.425 7.00311 24.5743 6.97511 24.8263C6.95333 25.0068 6.90356 25.2775 6.86 25.4331C6.81644 25.5855 6.72622 25.8313 6.65467 25.9776C6.58622 26.1238 6.46178 26.3385 6.384 26.4598C6.30311 26.5781 6.11333 26.8052 5.95778 26.9577C5.80533 27.1132 5.57822 27.303 5.46 27.3839C5.34178 27.4617 5.14267 27.5737 5.02444 27.636C4.90622 27.6951 4.71644 27.7729 4.60444 27.8102C4.49244 27.8475 4.26222 27.9035 4.09111 27.9378C3.92 27.972 3.65556 28 3.5 28C3.34444 28 3.08 27.972 2.90889 27.9378C2.73778 27.9035 2.50756 27.8475 2.39556 27.8102C2.28356 27.776 2.06578 27.6795 1.91333 27.6017C1.75778 27.5208 1.51511 27.3622 1.36889 27.2501C1.22267 27.1381 1.036 26.9701 0.952 26.8768C0.868 26.7834 0.740444 26.631 0.672 26.5376C0.600444 26.4443 0.472889 26.2265 0.382667 26.0554C0.295556 25.8842 0.196 25.6447 0.161778 25.5264C0.124444 25.4051 0.0746667 25.1904 0.0466667 25.0441C0.0217778 24.8979 0 24.6614 0 24.5152C0 24.369 0.0217778 24.1169 0.0497778 23.9551C0.0746667 23.7934 0.136889 23.532 0.189778 23.3795C0.242667 23.224 0.345333 22.9875 0.423111 22.8506C0.500889 22.7137 0.628444 22.5114 0.712444 22.3994C0.796444 22.2874 0.970667 22.0945 1.10133 21.9701C1.232 21.8487 1.45911 21.6651 1.60844 21.5687C1.76089 21.4722 1.97867 21.3478 2.1 21.2918C2.21822 21.2358 2.464 21.1549 2.64444 21.1082C2.86222 21.0553 3.09244 21.0211 3.32889 21.0086C3.58089 20.9993 3.77689 21.0086 3.98844 21.0429C4.15644 21.0709 4.40844 21.13 4.54844 21.1735C4.69156 21.2202 4.98089 21.3447 5.58444 21.6496L7.04667 20.5855C7.85244 20.0005 8.63022 19.4374 8.77333 19.3316C8.91956 19.2289 9.17156 19.0515 9.33333 18.9395Z" fill="#DFE8F4"/>
<path d="M17.7084 18.8337C17.7458 18.7964 17.8236 18.7435 17.8733 18.7155C17.9324 18.6813 18.0227 18.6688 18.1222 18.6751C18.2591 18.6813 18.3182 18.7124 18.6044 18.9146C18.7849 19.0422 19.2329 19.3689 19.6 19.6458C19.9671 19.9196 20.7356 20.4984 22.3378 21.7149L22.5462 21.5842C22.6644 21.5127 22.8698 21.4038 23.0067 21.3384C23.1436 21.2731 23.3893 21.186 23.5511 21.1424C23.7129 21.0989 23.9649 21.0491 24.1111 21.0273C24.2636 21.0055 24.5 20.9993 24.6711 21.0086C24.8329 21.018 25.0724 21.0491 25.2 21.0771C25.3276 21.1051 25.5391 21.1611 25.6667 21.2046C25.7942 21.2482 25.9902 21.3353 26.1022 21.3944C26.2142 21.4567 26.3884 21.5656 26.4911 21.634C26.5938 21.7025 26.7742 21.8518 26.8924 21.9638C27.0107 22.0758 27.1942 22.2843 27.3031 22.4306C27.412 22.5768 27.5644 22.8195 27.6391 22.975C27.7138 23.1275 27.804 23.3515 27.8413 23.4729C27.8756 23.5911 27.9253 23.8089 27.9533 23.9551C27.9782 24.1014 28 24.3379 28 24.4841C28 24.6303 27.9782 24.8699 27.9533 25.0193C27.9284 25.1717 27.8693 25.4082 27.8258 25.5482C27.7791 25.6913 27.7013 25.8905 27.6516 25.9931C27.5987 26.0958 27.4991 26.27 27.4276 26.3821C27.356 26.4941 27.2067 26.687 27.0947 26.8145C26.9858 26.9421 26.7711 27.1444 26.6156 27.2626C26.4538 27.387 26.1924 27.5457 25.9933 27.6422C25.8067 27.7324 25.5671 27.8289 25.4644 27.8569C25.3618 27.8849 25.1596 27.9284 25.0133 27.9533C24.8671 27.9782 24.6338 28 24.4907 28C24.3507 28 24.0924 27.972 23.9151 27.9378C23.7409 27.9035 23.492 27.8413 23.3644 27.7978C23.2369 27.7542 23.0129 27.6546 22.8667 27.5768C22.7204 27.4991 22.4902 27.3466 22.3533 27.2377C22.2164 27.1288 22.0547 26.9888 21.9924 26.9234C21.9302 26.855 21.7996 26.6963 21.7 26.5687C21.6036 26.4412 21.448 26.1798 21.3578 25.9931C21.2582 25.7909 21.1587 25.5233 21.112 25.3397C21.0716 25.1686 21.0249 24.8886 21.0156 24.7174C21 24.5245 21.0062 24.2974 21.028 24.1263C21.0498 23.9707 21.0964 23.7187 21.1369 23.5662C21.1773 23.4107 21.2551 23.1866 21.3111 23.0684L21.3147 23.0602C21.3669 22.9404 21.4309 22.7937 21.4978 22.6172L21.3049 22.471C21.196 22.3932 20.8787 22.1505 20.5956 21.9358C20.3124 21.7211 19.7524 21.2949 19.3511 20.9868C18.9498 20.6788 18.4458 20.2899 18.2311 20.1188C18.0164 19.9476 17.7893 19.7578 17.724 19.6956C17.6587 19.6334 17.584 19.5463 17.5591 19.4965C17.5342 19.4498 17.5156 19.3502 17.5156 19.2725C17.5156 19.1947 17.5436 19.0795 17.5747 19.0142C17.6058 18.952 17.668 18.868 17.7084 18.8337Z" fill="#DFE8F4"/>
<path d="M10.7956 9.53681C10.976 9.44347 11.3587 9.27234 11.6511 9.16344C11.9436 9.05143 12.1924 8.96431 12.2111 8.97053C12.2298 8.97364 12.2484 9.11054 12.2609 9.27234C12.2702 9.43413 12.3044 9.67993 12.3387 9.82306C12.3916 10.0502 12.3916 10.0844 12.3511 10.1124C12.3262 10.128 12.1924 10.1871 12.0556 10.24C11.9187 10.296 11.6387 10.4236 11.4333 10.5262C11.228 10.6258 10.92 10.8032 10.7489 10.9214C10.5778 11.0365 10.3227 11.2356 10.1796 11.3601C10.0396 11.4846 9.80311 11.721 9.65689 11.8828C9.51067 12.0446 9.296 12.3184 9.17778 12.4895C9.06267 12.6607 8.88222 12.9687 8.77644 13.1741C8.67067 13.3794 8.52756 13.7186 8.46222 13.927C8.39378 14.1386 8.30978 14.4746 8.27556 14.6738C8.24133 14.876 8.204 15.2369 8.19467 15.4765C8.18222 15.7317 8.18844 16.0801 8.21022 16.3166C8.232 16.5375 8.27244 16.8393 8.30356 16.9856C8.33778 17.1318 8.39067 17.3403 8.42489 17.4523C8.45911 17.5643 8.53067 17.7727 8.58356 17.919C8.63644 18.0652 8.67689 18.1835 8.67378 18.1866C8.66756 18.1897 8.58044 18.2426 8.47778 18.3079C8.37511 18.3701 8.176 18.5444 8.036 18.6937C7.89289 18.84 7.77467 18.9551 7.76844 18.9458C7.76222 18.9364 7.71244 18.8244 7.65645 18.6968C7.59733 18.5693 7.49156 18.2892 7.41378 18.0746C7.33911 17.8599 7.24889 17.5736 7.21156 17.4367C7.17733 17.2998 7.12756 17.0696 7.10267 16.9233C7.08089 16.7771 7.04978 16.3788 7.04044 16.0366C7.03111 15.6601 7.03733 15.2432 7.05911 14.9787C7.08089 14.7391 7.12444 14.4155 7.15867 14.2631C7.19289 14.1075 7.28311 13.7932 7.36089 13.563C7.43867 13.3327 7.588 12.9594 7.69689 12.7385C7.80267 12.5144 7.96444 12.2157 8.05778 12.0695C8.15111 11.9233 8.31911 11.6775 8.43422 11.525C8.54622 11.3694 8.77956 11.0987 8.94756 10.9214C9.11867 10.744 9.39556 10.4858 9.56667 10.3489C9.73778 10.212 10.0116 10.0097 10.1733 9.90396C10.3351 9.79817 10.6151 9.63326 10.7956 9.53681Z" fill="#DFE8F4"/>
<path d="M15.6893 9.69549C15.7173 9.56481 15.7422 9.3439 15.7422 9.207C15.7422 9.07009 15.7484 8.95808 15.7578 8.95808C15.7671 8.95808 15.96 9.02342 16.184 9.10121C16.4111 9.17899 16.7938 9.33768 17.0333 9.4528C17.2729 9.56792 17.6151 9.76083 17.7956 9.88218C17.976 10.0004 18.256 10.212 18.4178 10.3489C18.5796 10.4858 18.8596 10.7503 19.04 10.9369C19.2204 11.1236 19.46 11.3943 19.572 11.5406C19.6871 11.6868 19.8427 11.9015 19.9204 12.0228C19.9951 12.1411 20.1444 12.4087 20.2471 12.614C20.3498 12.8194 20.496 13.1616 20.5738 13.3763C20.6484 13.591 20.7418 13.8835 20.7791 14.0297C20.8133 14.1759 20.8631 14.4124 20.888 14.5586C20.9129 14.7049 20.9502 15.0036 20.9689 15.2276C20.9907 15.4547 20.9969 15.7908 20.9844 15.9899C20.9751 16.1859 20.9378 16.5375 20.9067 16.7678C20.8724 16.998 20.8102 17.3216 20.7698 17.4834C20.7262 17.6452 20.6422 17.919 20.58 18.0901C20.5178 18.2612 20.4182 18.5195 20.356 18.6657C20.2938 18.812 20.2378 18.9364 20.2316 18.9458C20.2253 18.9551 20.1071 18.8431 19.964 18.6968C19.824 18.5475 19.6218 18.3795 19.5129 18.3141C19.4071 18.2519 19.32 18.1835 19.32 18.1679C19.32 18.1492 19.3604 18.0341 19.4102 17.9097C19.46 17.7883 19.544 17.5301 19.5969 17.3434C19.6498 17.1536 19.7151 16.8829 19.74 16.7366C19.768 16.5904 19.796 16.2482 19.8084 15.9743C19.8178 15.6694 19.8116 15.3458 19.7898 15.1343C19.768 14.9445 19.7244 14.6644 19.6902 14.512C19.656 14.3564 19.572 14.0639 19.5004 13.8586C19.432 13.6532 19.3013 13.339 19.2111 13.1585C19.1209 12.978 18.9498 12.6856 18.8284 12.5051C18.7071 12.3246 18.4987 12.0508 18.3649 11.8984C18.228 11.7428 17.9853 11.5032 17.8236 11.3663C17.6618 11.2263 17.3942 11.021 17.2262 10.9058C17.0613 10.7938 16.8093 10.6414 16.6662 10.5698C16.5262 10.4982 16.2369 10.3676 16.0222 10.2804C15.6458 10.128 15.6333 10.1218 15.6364 10.0315C15.6364 9.97863 15.6613 9.82928 15.6893 9.69549Z" fill="#DFE8F4"/>
<path d="M12.8956 12.4304C13.0324 12.3869 13.2564 12.3278 13.3933 12.3029C13.5676 12.2717 13.7791 12.2624 14.0933 12.2717C14.4449 12.2811 14.6129 12.2998 14.8556 12.362C15.0516 12.4118 15.3036 12.5113 15.54 12.6296C15.7702 12.7416 16.0129 12.894 16.1747 13.0247C16.3209 13.1398 16.5169 13.3265 16.6133 13.4385C16.7067 13.5505 16.828 13.703 16.8809 13.7808C16.9369 13.8586 17.0427 14.0453 17.1204 14.2008C17.1982 14.3533 17.2978 14.5991 17.3382 14.7453C17.3818 14.8916 17.4347 15.1218 17.4533 15.2587C17.4813 15.4205 17.4876 15.6508 17.4751 15.9121C17.4627 16.1984 17.4347 16.4068 17.3787 16.6277C17.3351 16.7989 17.248 17.0447 17.1858 17.1722C17.1267 17.2998 17.0022 17.5176 16.9089 17.6545C16.8187 17.7914 16.6476 18.0061 16.5324 18.1337C16.4142 18.2581 16.2058 18.4479 16.0689 18.5475C15.932 18.6502 15.68 18.8026 15.5089 18.8866C15.3378 18.9706 15.0578 19.0764 14.8867 19.1231C14.6036 19.2009 14.5258 19.2071 14 19.2071C13.4711 19.2071 13.3996 19.2009 13.1133 19.1231C12.9422 19.0764 12.656 18.9644 12.4756 18.8742C12.2951 18.7871 12.0431 18.6346 11.9156 18.5382C11.788 18.4417 11.5858 18.2581 11.4676 18.1337C11.3462 18.0061 11.1782 17.7914 11.088 17.6545C10.9978 17.5176 10.8827 17.3154 10.8298 17.2034C10.78 17.0913 10.6991 16.8735 10.6556 16.7211C10.612 16.5655 10.5622 16.357 10.5467 16.2544C10.528 16.1517 10.5156 15.9215 10.5156 15.741C10.5156 15.5605 10.5342 15.2961 10.5622 15.1498C10.5871 15.0036 10.6431 14.7733 10.6867 14.6364C10.7302 14.4995 10.8391 14.2568 10.9293 14.095C11.0196 13.9333 11.1907 13.6812 11.3151 13.535C11.4364 13.3888 11.6573 13.1678 11.8004 13.0496C11.9436 12.9283 12.1924 12.7602 12.3542 12.67C12.516 12.5798 12.7587 12.474 12.8956 12.4304Z" fill="#DFE8F4"/>
<path d="M10.2884 21.2762C10.4564 21.1486 10.6151 20.9993 10.7022 20.8811C10.78 20.7753 10.8484 20.6882 10.8578 20.6882C10.8671 20.6882 11.0631 20.7815 11.2933 20.8997C11.5236 21.0149 11.8409 21.1549 11.9933 21.2078C12.1458 21.2638 12.3916 21.3416 12.5378 21.3851C12.684 21.4256 12.9702 21.4847 13.1756 21.5127C13.468 21.5562 13.6827 21.5625 14.1711 21.55C14.6347 21.5376 14.8742 21.5158 15.1044 21.466C15.2756 21.4318 15.6053 21.3384 15.8356 21.2575C16.0658 21.1798 16.3613 21.0646 16.4889 20.9993C16.6164 20.9371 16.8187 20.8468 16.94 20.8002C17.1484 20.7193 17.1578 20.7162 17.1858 20.7722C17.2013 20.8033 17.2884 20.906 17.3787 20.9993C17.4689 21.0926 17.64 21.2327 17.7613 21.3104C17.8796 21.3882 17.9791 21.4567 17.9822 21.466C17.9822 21.4753 17.864 21.5625 17.7178 21.6589C17.5716 21.7585 17.2822 21.9234 17.0707 22.023C16.8622 22.1256 16.5013 22.2719 16.2711 22.3528C16.0409 22.4306 15.708 22.5301 15.5307 22.5737C15.3564 22.6141 15.0422 22.6639 14.8307 22.6826C14.6036 22.7044 14.1773 22.7106 13.7667 22.7012C13.3902 22.6919 12.9764 22.667 12.8489 22.6483C12.7213 22.6266 12.4538 22.5706 12.2578 22.5208C12.0618 22.4679 11.7476 22.3652 11.5578 22.2936C11.368 22.219 11.0258 22.0634 10.7956 21.9483C10.5653 21.8332 10.2947 21.6838 10.1951 21.6185C10.0987 21.55 10.0178 21.494 10.0178 21.4878C10.0178 21.4847 10.1391 21.3882 10.2884 21.2762Z" fill="#DFE8F4"/>
</svg>
