<svg width="14" height="14" viewBox="0 0 14 14" fill="none" xmlns="http://www.w3.org/2000/svg">
<path fill-rule="evenodd" clip-rule="evenodd" d="M1.85004 3.01679C1.16663 3.70021 1.16663 4.80015 1.16663 7.00004C1.16663 9.19993 1.16663 10.2999 1.85004 10.9833C2.53346 11.6667 3.6334 11.6667 5.83329 11.6667H8.16663C10.3665 11.6667 11.4665 11.6667 12.1499 10.9833C12.8333 10.2999 12.8333 9.19993 12.8333 7.00004C12.8333 4.80015 12.8333 3.70021 12.1499 3.01679C11.4665 2.33337 10.3665 2.33337 8.16663 2.33337H5.83329C3.6334 2.33337 2.53346 2.33337 1.85004 3.01679ZM10.8361 4.38663C10.9907 4.57225 10.9657 4.84812 10.78 5.0028L9.49876 6.07054C8.98171 6.50142 8.56264 6.85066 8.19277 7.08855C7.80748 7.33635 7.43225 7.49289 6.99996 7.49289C6.56766 7.49289 6.19244 7.33635 5.80715 7.08855C5.43728 6.85066 5.01821 6.50143 4.50117 6.07054L3.21988 5.0028C3.03426 4.84812 3.00918 4.57225 3.16386 4.38663C3.31855 4.20101 3.59442 4.17593 3.78004 4.33061L5.0394 5.38007C5.58362 5.8336 5.96147 6.14745 6.28047 6.35262C6.58926 6.55122 6.79867 6.61788 6.99996 6.61788C7.20125 6.61788 7.41066 6.55122 7.71945 6.35262C8.03845 6.14745 8.4163 5.8336 8.96052 5.38007L10.2199 4.33061C10.4055 4.17593 10.6814 4.20101 10.8361 4.38663Z" fill="white"/>
</svg>
