<svg width="26" height="26" viewBox="0 0 26 26" fill="none" xmlns="http://www.w3.org/2000/svg">
<path fill-rule="evenodd" clip-rule="evenodd" d="M3.90278 0.0596985C3.76202 0.091684 3.47411 0.174847 3.26298 0.245215C3.05185 0.32198 2.68076 0.501099 2.43124 0.648233C2.18172 0.801764 1.79784 1.09603 1.57391 1.30714C1.34998 1.51824 1.04287 1.86369 0.89572 2.07479C0.742168 2.28589 0.550228 2.61215 0.454258 2.79766C0.364686 2.97678 0.22393 3.35421 0.147154 3.62289L0 4.12187C0 21.2853 0.00639799 21.8675 0.115164 22.2897C0.179144 22.5392 0.339094 22.9678 0.47985 23.2492C0.614208 23.5307 0.882924 23.9465 1.06847 24.1768C1.25401 24.4007 1.5931 24.7398 1.82343 24.9253C2.05376 25.1172 2.42484 25.3667 2.65517 25.4818C2.8855 25.6034 3.28857 25.7697 3.55089 25.8529L4.03074 26H22.0731C22.8665 25.7185 23.2951 25.5202 23.5446 25.3731C23.7942 25.226 24.2036 24.9061 24.466 24.6566C24.7219 24.4135 25.0546 24.0233 25.2081 23.793C25.3617 23.5627 25.5536 23.2045 25.6432 22.9934C25.7328 22.7823 25.8543 22.3792 25.9055 22.0978C26.0015 21.6372 26.0079 20.684 25.9951 12.758L25.9759 3.92995C25.7072 3.13671 25.5216 2.7209 25.3873 2.497C25.2529 2.2731 25.0034 1.92766 24.8306 1.72935C24.6515 1.53103 24.3508 1.23677 24.1588 1.06405C23.9605 0.897721 23.583 0.648233 23.3207 0.507497C23.0584 0.373157 22.6105 0.200435 22.329 0.12367C21.8236 -0.00427268 21.7084 -0.00427268 12.9879 0.00212443C8.13186 0.00852155 4.04354 0.03411 3.90278 0.0596985ZM11.8043 2.20274C11.574 2.25391 11.2605 2.34347 11.1005 2.40105C10.9406 2.45862 10.6399 2.59936 10.4287 2.71451C10.2176 2.82965 9.82733 3.09194 9.56501 3.30304C9.30269 3.50775 8.89962 3.91077 8.66929 4.19864C8.43896 4.48011 8.14465 4.92791 8.01669 5.18379C7.88873 5.44607 7.71599 5.88748 7.63281 6.16895C7.51125 6.59755 7.48566 6.83425 7.48566 7.6083C7.48566 8.37595 7.51125 8.61904 7.63281 9.03486C7.70959 9.30353 7.88234 9.75133 8.02309 10.02C8.15745 10.2951 8.43896 10.7365 8.6501 10.9988C8.86123 11.2611 9.24511 11.6513 9.50743 11.8624C9.76975 12.0799 10.1664 12.355 10.3967 12.4829C10.6271 12.6108 11.0557 12.79 11.3565 12.8859C11.7851 13.0267 12.073 13.065 12.7 13.097C13.3078 13.1162 13.6341 13.1034 14.0436 13.0203C14.3443 12.9563 14.773 12.8347 15.0033 12.7452C15.2336 12.6556 15.6175 12.4509 15.867 12.291C16.1166 12.1311 16.5004 11.8304 16.718 11.6129C16.9419 11.3954 17.2618 11.0372 17.4345 10.8069C17.6009 10.5766 17.8248 10.2183 17.9336 10.0072C18.036 9.79611 18.1895 9.40589 18.2727 9.14361C18.407 8.7214 18.4262 8.53588 18.4262 7.6083C18.4262 6.67432 18.407 6.4952 18.2727 6.07299C18.1895 5.81071 18.0296 5.40769 17.9144 5.17739C17.7992 4.9471 17.5753 4.58886 17.4154 4.37776C17.2618 4.16665 16.9483 3.82121 16.7244 3.6101C16.5004 3.399 16.1677 3.12392 15.995 3.00238C15.8159 2.88723 15.4768 2.68892 15.2272 2.57377C14.9777 2.45862 14.6066 2.31788 14.3955 2.26031C14.1588 2.19634 13.6725 2.14516 13.1159 2.13237C12.4889 2.11318 12.0986 2.13877 11.8043 2.20274ZM7.42168 13.1162C7.31931 13.1482 7.14017 13.2442 7.0378 13.3209C6.93543 13.4041 6.76908 13.628 6.66672 13.8199C6.53876 14.0758 6.49397 14.2613 6.49397 14.5172C6.49397 14.7411 6.53876 14.9394 6.60913 15.0609C6.67311 15.1633 7.025 15.5023 7.39609 15.8158C7.83115 16.1804 8.25982 16.4747 8.6373 16.6602C8.99559 16.8393 9.50743 17.0249 9.98088 17.14C10.4031 17.2488 10.9982 17.3703 11.3053 17.4151L11.8683 17.4918C8.38778 20.9783 7.684 21.7267 7.61362 21.8931C7.56244 22.021 7.51765 22.2577 7.51765 22.4176C7.51765 22.5775 7.54964 22.7823 7.58803 22.8846C7.62002 22.9806 7.78637 23.1981 7.95271 23.3644C8.11906 23.5371 8.35579 23.7162 8.47735 23.7674C8.59891 23.8186 8.82284 23.857 8.97639 23.857C9.12355 23.857 9.35388 23.8122 9.48823 23.761C9.64179 23.6906 10.288 23.0957 11.4012 21.9826L13.0839 20.3066C16.1549 23.3644 16.558 23.729 16.7628 23.793C16.9035 23.8378 17.1658 23.8634 17.345 23.8506C17.5817 23.8314 17.7544 23.7674 17.9528 23.6331C18.1063 23.5307 18.3175 23.3132 18.4198 23.1661C18.5798 22.9422 18.6246 22.8078 18.6374 22.4944C18.6566 22.2065 18.631 22.0274 18.5414 21.8483C18.4646 21.6883 17.6841 20.8951 16.2701 19.5325C15.0801 18.3938 14.1076 17.4343 14.1076 17.3959C14.1076 17.3575 14.2036 17.3319 14.3123 17.3319C14.4275 17.3319 14.8562 17.2615 15.2592 17.1784C15.6623 17.0952 16.2253 16.9481 16.5068 16.8521C16.7884 16.7626 17.2362 16.5707 17.4985 16.4235C17.7608 16.2828 18.1767 16.0205 18.4198 15.8414C18.663 15.6559 18.9893 15.368 19.1428 15.1889C19.2964 15.0162 19.4563 14.7795 19.4883 14.6771C19.5395 14.53 19.5267 14.3892 19.4499 14.1014C19.3667 13.8199 19.2708 13.6472 19.0724 13.4553C18.8741 13.2506 18.7269 13.1738 18.4582 13.1098C18.2023 13.0522 18.036 13.0522 17.8504 13.097C17.7097 13.1354 17.3962 13.3017 17.1466 13.4681C16.8971 13.6344 16.6284 13.8327 16.5388 13.9095C16.4493 13.9798 16.0206 14.1653 15.5791 14.3125C15.1377 14.4596 14.5938 14.6195 14.3635 14.6707C14.1332 14.7283 13.7045 14.7859 13.4038 14.8115C13.1031 14.8306 12.5977 14.8178 12.2842 14.7795C11.9707 14.7411 11.4332 14.6451 11.1005 14.562C10.7678 14.4724 10.2624 14.2997 9.98088 14.1717C9.69937 14.0374 9.25151 13.7751 8.98919 13.5832C8.72687 13.3849 8.36219 13.1866 8.18944 13.1354C8.0103 13.0842 7.81196 13.0458 7.74158 13.0522C7.6712 13.0522 7.52405 13.0842 7.42168 13.1162Z" fill="#0033D9"/>
<path d="M11.8363 5.22217C11.9771 5.1518 12.233 5.05585 12.4121 5.01107C12.5849 4.96629 12.8344 4.9279 12.9559 4.9279C13.0775 4.92151 13.3398 4.9471 13.5318 4.98548C13.7237 5.02386 14.0372 5.13261 14.2292 5.22857C14.4211 5.32453 14.741 5.58041 14.9649 5.8171C15.2336 6.09858 15.4128 6.35446 15.5151 6.61674C15.6367 6.9238 15.6687 7.11572 15.6687 7.6083C15.6687 8.10087 15.6367 8.28639 15.5151 8.59985C15.4128 8.84934 15.2336 9.11802 14.9969 9.3675C14.7986 9.57861 14.4659 9.84089 14.2611 9.95604C14.0564 10.0648 13.6981 10.1927 13.4678 10.2311C13.1607 10.2887 12.9304 10.2887 12.6041 10.2375C12.3545 10.1991 12.0154 10.0968 11.8363 10.0136C11.6508 9.92405 11.3565 9.68736 11.1389 9.45067C10.9278 9.23316 10.6847 8.88772 10.5951 8.69581C10.4479 8.37595 10.4287 8.2672 10.4287 7.57631C10.4287 6.87263 10.4415 6.77667 10.6015 6.45682C10.7039 6.23931 10.9214 5.96424 11.1773 5.72754C11.3948 5.52284 11.6955 5.29254 11.8363 5.22217Z" fill="#0033D9"/>
</svg>
