<svg width="28" height="28" viewBox="0 0 28 28" fill="none" xmlns="http://www.w3.org/2000/svg">
<path fill-rule="evenodd" clip-rule="evenodd" d="M2.53463 2.53329C0.667969 4.41774 0.667969 7.43107 0.667969 13.4666V14.5333C0.667969 20.56 0.667969 23.5733 2.53463 25.4666C4.41908 27.3333 7.43241 27.3333 13.468 27.3333H14.5346C20.5613 27.3333 23.5746 27.3333 25.468 25.4666C27.3346 23.5822 27.3346 20.5688 27.3346 14.5333V13.4666C27.3346 7.43996 27.3346 4.42663 25.468 2.53329C23.5835 0.666626 20.5702 0.666626 14.5346 0.666626H13.468C7.4413 0.666626 4.42797 0.666626 2.53463 2.53329ZM5.16574 8.78218C5.30797 15.7155 8.77463 19.8755 14.8546 19.8755H15.2102V15.9111C17.4413 16.1333 19.1302 17.7689 19.8057 19.8755H22.9613C22.6376 18.6784 22.0639 17.5635 21.2779 16.6044C20.4919 15.6453 19.5115 14.8636 18.4013 14.3111C19.3961 13.7053 20.2553 12.9008 20.9252 11.948C21.5951 10.9952 22.0613 9.91442 22.2946 8.7733H19.4324C18.8102 10.9777 16.9613 12.9777 15.2102 13.1644V8.78218H12.3391V16.4622C10.5613 16.0177 8.3213 13.8666 8.22352 8.78218H5.16574Z" fill="#0033D9"/>
</svg>
