<svg width="49" height="48" viewBox="0 0 49 48" fill="none" xmlns="http://www.w3.org/2000/svg">
<g id="Vector">
<path id="Vector_2" fill-rule="evenodd" clip-rule="evenodd" d="M20.8534 5.00266C21.7378 5.0163 21.9918 5.03903 22.5316 5.13452C22.8808 5.20272 23.4206 5.33003 23.7335 5.42096C24.0465 5.5119 24.4955 5.67103 24.7314 5.76652C24.9672 5.862 25.3165 6.02568 25.5024 6.12571C25.6884 6.22574 26.0377 6.43944 26.2735 6.59857C26.5094 6.75771 26.8677 7.02597 27.0627 7.19875C27.2623 7.36698 27.5617 7.67161 27.7295 7.87167C27.9018 8.07173 28.1558 8.42638 28.301 8.65826C28.555 9.06292 28.5731 9.08111 28.7908 9.14476C28.9178 9.18114 29.1129 9.27207 29.2353 9.34937C29.3533 9.42212 29.4803 9.54488 29.5165 9.62218C29.5528 9.69947 29.5846 9.84497 29.5846 9.95409C29.5846 10.0587 29.5438 10.2269 29.4939 10.3269C29.4485 10.427 29.2898 10.6225 29.1446 10.7634C28.9723 10.9271 28.7455 11.0817 28.496 11.2045C28.2602 11.3181 27.9608 11.4227 27.7249 11.4682C27.4664 11.5182 27.2079 11.5364 26.9312 11.5227C26.6137 11.5045 26.464 11.4727 26.2508 11.3772C26.1012 11.309 25.9288 11.209 25.8698 11.1544C25.8109 11.0999 25.7338 10.9862 25.702 10.9089C25.6657 10.8271 25.6385 10.7043 25.6385 10.6361C25.6385 10.5634 25.6793 10.427 25.7202 10.3269C25.7655 10.2269 25.8744 10.0678 26.1148 9.7995L25.7519 9.43576C25.5523 9.23115 25.2167 8.93561 25.0035 8.77648C24.7903 8.61279 24.3821 8.36272 24.0964 8.21722C23.8106 8.07173 23.3888 7.88986 23.1666 7.81256C22.9443 7.73527 22.5996 7.63978 22.4091 7.60341C22.2141 7.56249 21.8467 7.50793 21.5927 7.48065C21.3296 7.45337 20.9169 7.44427 20.6492 7.46246C20.3862 7.48065 19.9598 7.53066 19.6967 7.58068C19.4337 7.62614 19.0481 7.72163 18.835 7.79437C18.6218 7.86712 18.3088 7.99443 18.1319 8.07173C17.955 8.15357 17.6602 8.30816 17.4743 8.41728C17.2883 8.5264 16.93 8.78557 16.685 8.99472C16.4356 9.20387 16.1226 9.50396 15.9865 9.66764C15.8505 9.83133 15.6418 10.1087 15.5239 10.2815C15.406 10.4542 15.2155 10.7861 15.1021 11.0089C14.9887 11.2317 14.8254 11.6318 14.7347 11.8956C14.6485 12.1593 14.5351 12.5776 14.4807 12.8276C14.4081 13.1687 14.3764 13.5142 14.3582 14.2144C14.3401 14.8191 14.3492 15.3329 14.3854 15.6694C14.4172 15.9558 14.4852 16.406 14.5306 16.6697C14.5805 16.9334 14.6893 17.4153 14.7755 17.7382C14.8617 18.061 15.0204 18.5975 15.1293 18.9203C15.2427 19.2431 15.415 19.716 15.5148 19.9661C15.6146 20.2161 15.8097 20.6663 15.9503 20.9664C16.0954 21.2664 16.5218 22.1167 16.9073 22.8533C17.2928 23.5898 17.7419 24.4901 17.9097 24.8538C18.073 25.2176 18.3587 25.8723 18.5401 26.3088C18.7261 26.7453 18.9801 27.3909 19.1071 27.741C19.2386 28.0911 19.4427 28.6868 19.5607 29.0596C19.6831 29.437 19.8646 30.0372 19.9689 30.4009C20.0687 30.7646 20.2229 31.3876 20.3091 31.7877C20.3952 32.1878 20.5041 32.7607 20.554 33.0608C20.6039 33.3609 20.681 33.8928 20.7264 34.2429C20.7899 34.7522 20.808 35.1977 20.808 36.4481C20.808 37.7076 20.7899 38.1213 20.7264 38.5396C20.681 38.8261 20.6039 39.2671 20.554 39.5172C20.5041 39.7673 20.3998 40.1992 20.3272 40.472C20.2501 40.7448 20.1186 41.1677 20.0279 41.4041C19.9417 41.6405 19.7421 42.0997 19.3112 43H15.8414C13.9319 43 12.358 42.9818 12.3353 42.9636C12.3172 42.9454 12.5439 42.6817 12.8388 42.3816C13.1291 42.0816 13.569 41.6087 13.8094 41.3359C14.0498 41.0631 14.3355 40.7221 14.4444 40.5857C14.5578 40.4493 14.7846 40.131 14.9569 39.8809C15.1248 39.6308 15.4105 39.1216 15.5919 38.7442C15.7734 38.3714 16.0002 37.8485 16.0909 37.5848C16.1816 37.3211 16.3131 36.8801 16.3857 36.6072C16.4583 36.3344 16.558 35.8707 16.6079 35.5842C16.6578 35.2978 16.7213 34.8249 16.7485 34.5385C16.7712 34.252 16.7939 33.6973 16.7939 33.3108C16.7939 32.9244 16.7712 32.3287 16.7485 31.9923C16.7213 31.6558 16.6488 31.0602 16.5898 30.6737C16.5308 30.2872 16.431 29.7234 16.363 29.4234C16.295 29.1233 16.1498 28.5595 16.041 28.173C15.8913 27.6501 15.7598 27.3046 15.5284 26.8317C15.3515 26.4816 15.0386 25.9087 14.8345 25.5586C14.6258 25.2085 14.3628 24.7902 14.2539 24.6265C14.145 24.4628 13.8548 24.0854 13.6144 23.7854C13.374 23.4853 12.934 23.0033 12.6392 22.7169C12.3398 22.4304 11.977 22.0985 11.8273 21.9848C11.6776 21.8712 11.4055 21.6802 11.2241 21.562C11.0472 21.4483 10.707 21.2574 10.4757 21.1437C10.2489 21.0255 9.85427 20.8663 9.60481 20.7799C9.35535 20.6981 8.99703 20.5981 8.81106 20.5572C8.6251 20.5162 8.18514 20.4708 7.83589 20.4571C7.47757 20.4435 7.01492 20.4526 6.77 20.4799C6.53414 20.5071 6.14861 20.5799 5.50454 20.739L5.5 17.8973L5.64514 17.8518C5.72679 17.8291 5.94903 17.7791 6.135 17.7427C6.32096 17.7063 6.6566 17.6518 6.88339 17.6199C7.14192 17.5881 7.55014 17.5745 7.99464 17.5927C8.38017 17.6063 8.87003 17.6518 9.0832 17.6927C9.29638 17.7336 9.66377 17.82 9.89963 17.8837C10.1355 17.9473 10.4938 18.0655 10.6934 18.1474C10.893 18.2292 11.2104 18.3702 11.3964 18.4656C11.5824 18.5566 11.8999 18.7339 12.0994 18.8567C12.299 18.9749 12.4804 19.0749 12.5077 19.0749C12.5349 19.0795 12.485 18.8294 12.4033 18.5202C12.3217 18.2156 12.1947 17.6609 12.1176 17.2835C12.0405 16.9106 11.9362 16.3059 11.8908 15.9422C11.8409 15.5784 11.791 14.8555 11.7729 14.3281C11.7547 13.7097 11.7638 13.1823 11.8001 12.8276C11.8318 12.5276 11.9044 12.0274 11.9679 11.7137C12.0314 11.4 12.1629 10.8998 12.2627 10.5997C12.358 10.2996 12.5712 9.79041 12.7344 9.46304C12.8977 9.13567 13.1608 8.69009 13.3241 8.46275C13.4874 8.23996 13.755 7.9035 13.9228 7.71708C14.0952 7.53066 14.3854 7.24422 14.5714 7.08508C14.7574 6.92594 15.1248 6.64859 15.3878 6.47581C15.6509 6.29849 16.0863 6.04842 16.363 5.91201C16.6397 5.78016 17.1069 5.58919 17.4062 5.49371C17.7056 5.39368 18.1546 5.27092 18.4041 5.21636C18.6535 5.1618 19.0708 5.08905 19.3339 5.05267C19.6605 5.00721 20.1367 4.99357 20.8534 5.00266ZM31.095 9.5176L31.984 9.54488C32.5555 9.56307 33.068 9.60399 33.4172 9.66764C33.7166 9.71766 34.152 9.82223 34.3788 9.89498C34.6101 9.97228 34.9095 10.0859 35.0365 10.1496C35.168 10.2178 35.3903 10.3451 35.5264 10.4315C35.6624 10.5179 35.9028 10.7134 36.0616 10.868C36.2203 11.0226 36.438 11.2772 36.5469 11.4409C36.6557 11.6046 36.8372 11.9319 36.946 12.1684C37.0594 12.4048 37.2136 12.7867 37.2953 13.0095C37.3724 13.2323 37.64 14.2371 37.8895 15.2374C38.1389 16.2377 38.4247 17.3335 38.5244 17.67C38.6288 18.0064 38.7966 18.5202 38.9054 18.8066C39.0143 19.0931 39.1957 19.5432 39.3091 19.8069C39.4271 20.0706 39.6176 20.4571 39.7309 20.6708C39.8443 20.8845 40.0122 21.1801 40.1029 21.3301C40.1981 21.4801 40.307 21.6575 40.4249 21.853L40.2526 21.9394C40.1618 21.9848 39.8716 22.0985 39.6085 22.194C39.3454 22.2895 38.9191 22.4122 38.656 22.4713C38.3929 22.5305 37.9257 22.5987 37.6128 22.6259C37.2091 22.6623 36.8961 22.6578 36.5242 22.6259C36.2385 22.5987 35.9981 22.5714 35.9935 22.5668C35.989 22.5623 36.0162 22.3213 36.0616 22.0349C36.1205 21.6393 36.1387 21.2164 36.1387 20.2843C36.1387 19.3477 36.116 18.9249 36.057 18.5111C36.0117 18.211 35.9255 17.7291 35.862 17.4426C35.7985 17.1562 35.6488 16.6333 35.5354 16.2832C35.4084 15.8922 35.1862 15.3602 34.9549 14.8964C34.7054 14.4008 34.4559 13.9825 34.2201 13.6688C34.025 13.4051 33.6622 12.9959 33.4127 12.7594C33.1633 12.523 32.8185 12.232 32.6462 12.1184C32.4693 12.0047 32.2062 11.8455 32.0565 11.7728C31.9069 11.6955 31.603 11.5682 31.3762 11.4909C31.1494 11.4136 30.9271 11.3499 30.8773 11.3499C30.8274 11.3499 30.7593 11.3318 30.7276 11.3136C30.6868 11.2908 30.7049 11.2181 30.8047 11.0317C30.8818 10.8953 30.9725 10.6588 31.0088 10.5088C31.0496 10.3588 31.0859 10.0723 31.0904 9.87679L31.095 9.5176ZM24.2551 11.4454C24.2778 11.4409 24.3595 11.5546 24.4366 11.7C24.5137 11.8455 24.6996 12.0774 24.8765 12.2457C25.0806 12.4366 25.2983 12.5867 25.8653 12.8504L25.6703 13.0686C25.5614 13.1868 25.3891 13.4051 25.2893 13.5551C25.1895 13.7052 25.0262 13.9825 24.9355 14.1689C24.8402 14.3554 24.6951 14.7146 24.6135 14.9646C24.5273 15.2147 24.4184 15.6603 24.3685 15.9558C24.3005 16.3468 24.2778 16.6879 24.2778 17.2289C24.2778 17.6336 24.305 18.1792 24.3413 18.4429C24.3776 18.7066 24.4547 19.1567 24.5182 19.4432C24.5862 19.7296 24.7178 20.2116 24.813 20.5117C24.9128 20.8118 25.0942 21.3028 25.2258 21.6029C25.3528 21.903 25.5478 22.3122 25.6521 22.5123C25.761 22.7123 25.9651 23.0715 26.1148 23.3079C26.2599 23.5444 26.5411 23.9536 27.099 24.6947L26.8768 24.8993C26.7543 25.013 26.4686 25.2312 26.2463 25.3813C26.0241 25.5359 25.6385 25.7632 25.3891 25.886C25.1396 26.0133 24.7813 26.1724 24.5953 26.2361C24.4048 26.3043 24.1009 26.3952 23.915 26.4452C23.7245 26.4907 23.4296 26.5498 23.2573 26.5771C23.0804 26.5998 22.8445 26.6362 22.5316 26.6771L22.4953 25.595C22.4817 24.9993 22.4318 24.2764 22.3955 23.99C22.3547 23.7035 22.2821 23.2443 22.2322 22.9669C22.1823 22.6941 22.0508 22.1076 21.9419 21.6711C21.8285 21.2346 21.6063 20.4162 21.4385 19.8524C21.2752 19.2886 21.062 18.5247 20.9622 18.1474C20.867 17.7745 20.7581 17.2517 20.7173 16.9879C20.681 16.7242 20.6492 16.3105 20.6492 16.0695C20.6492 15.824 20.6765 15.4739 20.7127 15.2965C20.7445 15.1147 20.8216 14.8328 20.8806 14.6691C20.9395 14.5054 21.0756 14.2326 21.1799 14.0553C21.2842 13.8825 21.4884 13.5961 21.6335 13.4187C21.7786 13.246 22.1007 12.9322 22.3501 12.7231C22.5996 12.5139 22.9625 12.2366 23.162 12.1093C23.3571 11.9774 23.6746 11.7773 23.8651 11.6591C24.051 11.5455 24.2279 11.4454 24.2551 11.4454ZM29.9474 12.7322C30.3148 12.7458 30.5598 12.7822 30.7865 12.8504C30.9589 12.9049 31.2038 13.005 31.3308 13.0686C31.4533 13.1277 31.6665 13.2596 31.8071 13.3505C31.9431 13.446 32.1745 13.6324 32.3241 13.7688C32.4693 13.9007 32.7142 14.1735 32.8684 14.3735C33.0226 14.5736 33.2449 14.8919 33.3583 15.0783C33.4762 15.2647 33.6486 15.5921 33.7484 15.8058C33.8436 16.0195 33.9887 16.3787 34.0704 16.6015C34.152 16.8288 34.2745 17.2471 34.3425 17.5336C34.4151 17.82 34.5104 18.2929 34.5557 18.5793C34.6192 18.984 34.6374 19.3568 34.6374 20.2389C34.6374 21.1982 34.6192 21.462 34.5376 21.9439C34.4831 22.2576 34.3879 22.7169 34.3199 22.9669C34.2564 23.217 34.1294 23.6171 34.0432 23.8536C33.9525 24.09 33.7801 24.481 33.6622 24.7174C33.5397 24.9539 33.3447 25.2949 33.2222 25.4768C33.1043 25.6586 32.8866 25.9451 32.7369 26.1179C32.5056 26.3907 32.4466 26.4316 32.3514 26.4134C32.2879 26.3998 32.0429 26.327 31.8071 26.2497C31.5667 26.1724 31.1902 26.0133 30.968 25.8996C30.7412 25.7859 30.3829 25.5768 30.1742 25.4358C29.961 25.2949 29.571 24.9948 29.3124 24.772C29.0494 24.5492 28.6593 24.1673 28.4507 23.9218C28.2375 23.6808 27.9336 23.3034 27.7748 23.0852C27.6161 22.8715 27.3757 22.4986 27.2351 22.2622C27.0945 22.0258 26.8722 21.6075 26.7407 21.3301C26.6137 21.0573 26.4323 20.6254 26.337 20.3753C26.2463 20.1252 26.1148 19.6978 26.0422 19.4205C25.9742 19.1477 25.8834 18.6884 25.8426 18.4111C25.8063 18.1292 25.7746 17.6063 25.7746 17.2517C25.7746 16.8925 25.8018 16.4196 25.8381 16.1923C25.8744 15.9695 25.956 15.6239 26.0195 15.4329C26.083 15.2374 26.2055 14.9419 26.2871 14.7737C26.3733 14.6009 26.5547 14.3235 26.6908 14.1462C26.8269 13.9734 27.0763 13.7234 27.2487 13.5961C27.4211 13.4642 27.7068 13.2914 27.8837 13.205C28.056 13.1141 28.3327 13.0004 28.496 12.9459C28.6548 12.8958 28.9314 12.8186 29.1083 12.7822C29.317 12.7367 29.5937 12.7231 29.9474 12.7322ZM37.1592 25.0175C37.2953 25.0312 37.4676 25.0675 37.5447 25.0994C37.6173 25.1312 37.7625 25.2267 37.8622 25.3176C37.962 25.404 38.089 25.5722 38.1435 25.6859C38.1979 25.8041 38.2568 26.0269 38.275 26.1861C38.2977 26.3998 38.2841 26.5271 38.2206 26.718C38.1661 26.8772 38.0709 27.0318 37.953 27.1545C37.8441 27.2636 37.6763 27.3682 37.5447 27.4137C37.4177 27.4591 37.2136 27.491 37.0912 27.491C36.9642 27.491 36.7691 27.4591 36.6603 27.4228C36.5469 27.3864 36.3745 27.2864 36.2747 27.2091C36.1795 27.1272 36.0525 26.959 35.9935 26.8317C35.9164 26.6635 35.8892 26.5225 35.8847 26.2861C35.8847 26.1133 35.9164 25.8814 35.9527 25.7768C35.9935 25.6677 36.0661 25.5177 36.1205 25.4404C36.175 25.3676 36.2929 25.2585 36.3836 25.204C36.4698 25.1539 36.6285 25.0812 36.7283 25.0494C36.8372 25.0175 37.005 25.0039 37.1592 25.0175ZM40.9238 28.0457C41.1688 28.0548 41.2549 28.0821 41.391 28.1866C41.4817 28.2548 41.5997 28.3958 41.6541 28.5049C41.7085 28.6186 41.7493 28.7868 41.7493 28.9232C41.7493 29.0687 41.713 29.2233 41.6541 29.3461C41.5997 29.4506 41.4908 29.587 41.4092 29.6461C41.3275 29.7098 41.1688 29.7916 41.0599 29.8326C40.9374 29.8735 40.7878 29.8962 40.6971 29.878C40.6063 29.8644 40.4476 29.7962 40.3433 29.728C40.2299 29.6598 40.1029 29.5188 40.0394 29.4006C39.9577 29.2551 39.926 29.1278 39.926 28.9459C39.926 28.7595 39.9532 28.6459 40.0394 28.5049C40.1119 28.3776 40.2344 28.2594 40.3886 28.173C40.5973 28.0502 40.6608 28.032 40.9238 28.0457ZM34.6646 28.1639C34.7235 28.1775 34.8188 28.2003 34.8687 28.2185C34.9186 28.2366 35.0274 28.3094 35.1136 28.3821C35.1998 28.4549 35.3041 28.5958 35.3495 28.6959C35.3948 28.7959 35.4311 28.9687 35.4311 29.0823C35.4356 29.2187 35.3903 29.3688 35.3086 29.537C35.2179 29.7143 35.1272 29.8189 34.9821 29.9099C34.8687 29.9826 34.719 30.0372 34.5285 30.0372V30.3918C34.5285 30.6874 34.5104 30.7783 34.4015 30.992C34.3153 31.1602 34.2065 31.2875 34.0704 31.383C33.9615 31.4603 33.7574 31.5467 33.6214 31.5785C33.4807 31.6058 33.2812 31.6194 33.1678 31.6013C33.0544 31.5831 32.8684 31.524 32.7596 31.4694C32.6462 31.4148 32.4874 31.2875 32.4058 31.192C32.3241 31.0966 32.2244 30.9011 32.1835 30.7646C32.1382 30.6055 32.12 30.4145 32.1336 30.2418C32.1473 30.0599 32.1971 29.8871 32.2833 29.7234C32.3559 29.587 32.4874 29.4234 32.5736 29.3597C32.6598 29.296 32.8049 29.2187 32.8911 29.1869C32.9818 29.1551 33.1814 29.1324 33.3356 29.1278C33.5987 29.1278 33.6168 29.1187 33.6168 29.0278C33.6168 28.9687 33.6758 28.8141 33.7438 28.6777C33.8255 28.514 33.9298 28.3867 34.0477 28.3139C34.1475 28.2503 34.3017 28.1821 34.3879 28.1684C34.4786 28.1548 34.6011 28.1503 34.6646 28.1639ZM27.0627 28.5004C27.1897 28.5231 27.3802 28.5867 27.4846 28.6504C27.5889 28.7141 27.7249 28.8323 27.7839 28.9141C27.8429 28.9914 27.929 29.1324 27.9699 29.2187C28.0152 29.3051 28.0606 29.4688 28.0742 29.5825C28.0878 29.7007 28.0697 29.8917 28.0288 30.0372C27.988 30.1736 27.8882 30.3782 27.802 30.4918C27.7204 30.6055 27.5571 30.7556 27.4483 30.8238C27.3077 30.9101 27.1625 30.9602 26.9766 30.9738C26.7634 30.9965 26.6454 30.9783 26.4549 30.9056C26.3098 30.851 26.1193 30.7328 26.0014 30.6192C25.8925 30.51 25.7655 30.3418 25.7202 30.2418C25.6703 30.1326 25.6385 29.9508 25.6385 29.7871C25.6385 29.5916 25.6703 29.4461 25.7519 29.2642C25.8154 29.1278 25.9424 28.9368 26.0377 28.8414C26.1284 28.7459 26.2644 28.6322 26.3416 28.5958C26.4141 28.5549 26.5547 28.514 26.6545 28.4958C26.7543 28.4776 26.9357 28.4822 27.0627 28.5004ZM9.77263 30.1145C9.8951 30.1827 10.1037 30.3327 10.2307 30.4418C10.3577 30.5509 10.5437 30.7374 10.6344 30.851C10.7297 30.9647 10.8793 31.2057 10.9655 31.3785C11.0517 31.5558 11.156 31.8513 11.1968 32.0377C11.2467 32.2742 11.2603 32.5106 11.2422 32.8107C11.2286 33.0471 11.1878 33.3745 11.1469 33.5382C11.1061 33.7019 10.9519 34.0792 10.8022 34.3793C10.6208 34.7522 10.4303 35.0568 10.2035 35.3342C10.0221 35.5615 9.70006 35.8843 9.48688 36.0525C9.27824 36.2208 8.92899 36.4527 8.72035 36.5618C8.50717 36.6709 8.14885 36.8164 7.9266 36.8801C7.56828 36.9892 7.43221 37.0074 6.88339 37.0074C6.33457 37.0119 6.1985 36.9937 5.52268 36.7891L5.50907 35.6888C5.5 34.6567 5.50454 34.5839 5.57711 34.6067C5.62246 34.6203 5.79028 34.6567 5.95357 34.684C6.11232 34.7112 6.42075 34.7203 6.63393 34.7067C6.84257 34.6931 7.16007 34.6385 7.33696 34.5839C7.50932 34.5294 7.80414 34.4066 7.99464 34.3066C8.1806 34.2111 8.46635 34.0247 8.6251 33.8928C8.78385 33.761 9.01517 33.5291 9.13763 33.379C9.25556 33.229 9.42338 32.9744 9.50956 32.8107C9.5912 32.647 9.7046 32.3742 9.75902 32.1969C9.82252 31.9877 9.85881 31.7468 9.86335 31.4921C9.86335 31.2784 9.84067 30.9829 9.80892 30.8329C9.77717 30.6828 9.70006 30.4464 9.6411 30.31C9.58213 30.1736 9.53678 30.0417 9.53678 30.0235C9.54131 30.0008 9.64563 30.0417 9.77263 30.1145ZM40.1618 31.674C40.2299 31.674 40.3614 31.7058 40.4567 31.7467C40.5519 31.7831 40.6744 31.8604 40.7333 31.915C40.7923 31.9695 40.8785 32.0969 40.9284 32.1969C40.9737 32.2969 41.01 32.4742 41.01 32.597C41.01 32.7152 40.9919 32.8653 40.9647 32.938C40.9374 33.0062 40.8513 33.129 40.7696 33.2154C40.6925 33.2972 40.5474 33.4063 40.4476 33.4518C40.3478 33.4973 40.1754 33.5382 40.0711 33.5382C39.9668 33.5382 39.8217 33.5154 39.7536 33.4882C39.6856 33.4654 39.5722 33.3881 39.4996 33.3199C39.4271 33.2517 39.3273 33.1153 39.2774 33.0153C39.2229 32.9062 39.1821 32.7425 39.1821 32.6061C39.1821 32.4606 39.2139 32.3242 39.2683 32.2242C39.3182 32.1378 39.4271 32.0105 39.5178 31.9377C39.6039 31.8695 39.7582 31.7786 39.8579 31.7422C39.9577 31.7058 40.0938 31.6785 40.1618 31.674ZM34.8914 33.3699C35.2451 33.3836 35.3585 33.4063 35.549 33.5018C35.6715 33.57 35.8484 33.7019 35.9391 33.7973C36.0298 33.8928 36.1477 34.0565 36.1976 34.1656C36.2521 34.2702 36.311 34.4748 36.3337 34.6203C36.3518 34.7613 36.3518 35.0068 36.3337 35.1659C36.311 35.3205 36.2657 35.516 36.2339 35.5979C36.1976 35.6752 36.1069 35.8297 36.0298 35.9389C35.9527 36.0434 35.7804 36.1889 35.6488 36.2617C35.5173 36.339 35.2905 36.4208 35.1408 36.4481C34.9367 36.4845 34.8052 36.4845 34.6192 36.4436C34.4786 36.4163 34.27 36.3435 34.152 36.2844C34.0341 36.2253 33.8663 36.1026 33.7801 36.0162C33.6894 35.9298 33.5669 35.757 33.508 35.6297C33.4445 35.5069 33.3764 35.2841 33.3537 35.1432C33.3356 34.9977 33.3356 34.7522 33.3537 34.5976C33.3764 34.4384 33.4445 34.2111 33.508 34.0838C33.5669 33.961 33.7075 33.7837 33.8119 33.6973C33.9162 33.6109 34.1067 33.4973 34.2337 33.4472C34.4151 33.3745 34.5376 33.3563 34.8914 33.3699ZM29.3805 34.3157C29.4304 34.3111 29.5438 34.3339 29.639 34.3566C29.7343 34.3839 29.8839 34.4703 29.9746 34.5521C30.0654 34.6294 30.1742 34.7749 30.2241 34.8704C30.2695 34.9613 30.3103 35.1341 30.3103 35.2569C30.3103 35.4024 30.2695 35.5478 30.1833 35.7161C30.1017 35.8828 30.0004 36.004 29.8794 36.0798C29.7751 36.1435 29.6027 36.2026 29.4939 36.2162C29.3487 36.2253 29.2172 36.2026 29.063 36.1344C28.936 36.0798 28.7954 35.998 28.75 35.9571C28.7047 35.9161 28.6275 35.8025 28.5777 35.7115C28.5323 35.6161 28.4915 35.4433 28.4915 35.3251C28.4915 35.175 28.5323 35.0295 28.6185 34.8613C28.6865 34.7249 28.8044 34.5657 28.8815 34.5066C28.9541 34.4521 29.0766 34.3839 29.1537 34.3611C29.2263 34.3384 29.3306 34.3157 29.3805 34.3157ZM42.2709 36.2208C42.4297 36.2208 42.6383 36.2526 42.7472 36.2981C42.8515 36.339 43.0012 36.4208 43.0783 36.4754C43.1509 36.5299 43.2733 36.6845 43.3459 36.8209C43.4321 36.9846 43.482 37.1483 43.4956 37.3347C43.5092 37.5121 43.491 37.703 43.4457 37.8712C43.3913 38.0531 43.3142 38.1941 43.1781 38.3396C43.0647 38.4578 42.9014 38.576 42.7835 38.6215C42.6655 38.6669 42.4569 38.6988 42.3072 38.6942C42.1349 38.6942 41.958 38.6578 41.831 38.5987C41.7176 38.5442 41.5634 38.4441 41.4863 38.3759C41.4092 38.3032 41.2958 38.1531 41.2413 38.0395C41.1642 37.8985 41.1279 37.7303 41.1143 37.4939C41.1007 37.2347 41.1143 37.1028 41.1778 36.9483C41.2232 36.8346 41.3184 36.6754 41.3955 36.5891C41.4727 36.5027 41.6359 36.3845 41.7629 36.3253C41.9217 36.2526 42.0714 36.2208 42.2709 36.2208ZM25.9107 37.1483C26.0195 37.1574 26.2146 37.2074 26.3416 37.262C26.464 37.3165 26.6137 37.4075 26.6727 37.462C26.7316 37.5166 26.8269 37.6439 26.8858 37.7439C26.9403 37.844 27.0128 38.0395 27.0401 38.1759C27.0809 38.3578 27.0809 38.4942 27.0446 38.676C27.0174 38.8124 26.9403 39.017 26.8677 39.1307C26.777 39.2671 26.65 39.3808 26.4912 39.4672C26.3279 39.5581 26.1601 39.6081 25.9787 39.6218C25.8109 39.6354 25.6158 39.6217 25.4798 39.5808C25.3301 39.5399 25.1804 39.4444 25.0353 39.3126C24.8992 39.1898 24.7858 39.0261 24.7359 38.9034C24.6906 38.7761 24.6633 38.5714 24.6633 38.3578C24.6679 38.094 24.6906 37.9667 24.7767 37.794C24.8402 37.6712 24.9536 37.5121 25.0353 37.4393C25.1169 37.3711 25.2394 37.2893 25.3074 37.262C25.3755 37.2347 25.4934 37.1938 25.5705 37.171C25.6431 37.1529 25.7973 37.1392 25.9107 37.1483ZM37.2499 38.3214C37.4948 38.3305 37.581 38.3577 37.7171 38.4623C37.8078 38.5305 37.9257 38.6715 37.9802 38.7806C38.0346 38.8943 38.0754 39.0625 38.0754 39.1989C38.0754 39.3444 38.0391 39.499 37.9802 39.6218C37.9257 39.7263 37.8169 39.8627 37.7352 39.9218C37.6536 39.9855 37.513 40.0673 37.4177 40.1037C37.3225 40.1446 37.191 40.1765 37.1229 40.1765C37.0549 40.1765 36.8961 40.1264 36.7737 40.0719C36.6195 39.9991 36.4985 39.8976 36.4108 39.7673C36.302 39.6127 36.2702 39.5081 36.2521 39.2944C36.2385 39.058 36.2521 38.9852 36.3564 38.8033C36.4426 38.6487 36.5469 38.5442 36.7147 38.4487C36.9233 38.3259 36.9868 38.3077 37.2499 38.3214ZM32.1926 40.3856C32.3151 40.3993 32.492 40.4493 32.5872 40.4993C32.6825 40.5447 32.8412 40.663 32.941 40.7584C33.0453 40.8494 33.1769 41.0312 33.2358 41.154C33.3175 41.3177 33.3492 41.4541 33.3492 41.6542C33.3447 41.8406 33.3129 41.9997 33.2404 42.1543C33.1814 42.2816 33.0453 42.4635 32.9319 42.5635C32.814 42.6681 32.6235 42.7818 32.4829 42.8272C32.3468 42.8681 32.1654 42.9045 32.0792 42.9045C31.9885 42.9045 31.8161 42.8545 31.6937 42.7999C31.5531 42.7363 31.3762 42.5953 31.2492 42.4453C31.1267 42.3089 30.9997 42.1088 30.9634 41.9952C30.9272 41.8815 30.8954 41.6905 30.8954 41.5632C30.8999 41.4223 30.9362 41.254 31.0043 41.1085C31.0632 40.9858 31.1948 40.8039 31.29 40.7084C31.3898 40.6129 31.5758 40.4993 31.7164 40.4493C31.8978 40.3811 32.0248 40.3629 32.1926 40.3856ZM41.5906 40.4493C41.6949 40.4493 41.8491 40.4765 41.9308 40.5084C42.0124 40.5447 42.1576 40.6402 42.2573 40.7266C42.3526 40.813 42.4614 40.9494 42.4932 41.0312C42.5249 41.1085 42.5567 41.2677 42.5567 41.3814C42.5567 41.495 42.5159 41.6632 42.4705 41.7587C42.4206 41.8497 42.3118 41.9952 42.221 42.077C42.1303 42.1543 41.9807 42.2407 41.8854 42.268C41.7902 42.2907 41.6768 42.3134 41.6269 42.3134C41.577 42.3134 41.4409 42.268 41.3321 42.218C41.2187 42.1679 41.069 42.0725 40.9964 42.0043C40.9238 41.9361 40.8377 41.8224 40.7968 41.7451C40.756 41.6723 40.7243 41.495 40.7197 41.3541C40.7197 41.1358 40.7379 41.0722 40.8694 40.8812C40.9556 40.7584 41.1053 40.6129 41.2096 40.5538C41.323 40.4902 41.4681 40.4493 41.5906 40.4493Z" fill="#0033D9"/>
</g>
</svg>
