<svg width="49" height="48" viewBox="0 0 49 48" fill="none" xmlns="http://www.w3.org/2000/svg">
<path d="M17.3487 5.18612C17.0911 5.28408 16.8026 5.4898 16.6995 5.64653C16.5862 5.80327 16.4625 6.08735 16.4007 6.27347C16.3492 6.45959 16.3183 7.4098 16.3389 8.37959L16.3595 10.1429L19.8115 10.1918C19.8115 9.42776 19.8836 9.05551 19.966 8.86939C20.0485 8.68327 20.2133 8.48735 20.3267 8.42857C20.4503 8.3698 22.0785 8.33061 24.5515 8.33061H28.5703C29.1576 8.80082 29.1885 8.87918 29.2194 9.47673L29.24 10.1429L32.692 10.1918C32.692 6.74367 32.6611 6.2049 32.5478 5.99918C32.4653 5.85224 32.2696 5.61714 32.1047 5.4702C31.9501 5.32327 31.6925 5.15673 31.5379 5.10776C31.3422 5.03918 29.034 5 24.5309 5C18.2143 5 17.7712 5.01959 17.3487 5.18612Z" fill="#0033D9"/>
<path fill-rule="evenodd" clip-rule="evenodd" d="M6.10656 11.6514C5.79742 11.7396 5.29251 11.9453 4.98337 12.1118C4.68454 12.2686 4.18993 12.6408 3.8911 12.9347C3.59227 13.2286 3.2007 13.7576 3.02553 14.1102C2.85035 14.4629 2.66487 14.9918 2.60304 15.2857C2.53091 15.6384 2.5 19.4784 2.5 26.2082C2.5 32.7714 2.54122 36.7878 2.60304 37.1306C2.65457 37.4245 2.86066 37.9731 3.05644 38.3551C3.28314 38.7861 3.63349 39.2465 3.98384 39.5796C4.30328 39.8735 4.73607 40.2163 4.95246 40.3339C5.15855 40.4612 5.63255 40.6571 6.00351 40.7747L6.6733 41H42.4297C43.4705 40.6473 43.9342 40.4514 44.13 40.3339C44.3258 40.2163 44.7173 39.9224 44.9852 39.6776C45.2635 39.4327 45.6138 39.0408 45.7787 38.7959C45.9436 38.551 46.1703 38.0808 46.2836 37.738C46.5 37.1404 46.5 37.0033 46.5 26.2767C46.5 17.6465 46.4691 15.3347 46.366 14.9429C46.2836 14.6686 46.0878 14.218 45.923 13.9241C45.7581 13.64 45.4799 13.2384 45.3047 13.0424C45.1295 12.8465 44.6967 12.5037 44.3258 12.2686C43.9651 12.0335 43.3674 11.7592 42.9965 11.6514C42.337 11.4653 41.9248 11.4653 24.5 11.4653C7.79649 11.4751 6.64239 11.4849 6.10656 11.6514ZM22.9028 16.2163C22.4185 16.2849 21.6663 16.4612 21.2232 16.5984C20.7904 16.7355 20.1412 16.9902 19.7909 17.1567C19.4302 17.3233 18.8016 17.6955 18.3792 17.9698C17.967 18.2441 17.2766 18.8123 16.8644 19.2237C16.4419 19.6449 15.8855 20.311 15.6176 20.6931C15.3496 21.0849 14.989 21.7118 14.8035 22.0939C14.618 22.4759 14.3707 23.1323 14.2574 23.5633C14.1337 23.9943 13.9895 24.7682 13.9276 25.2776C13.8452 25.9535 13.8555 26.4923 13.9379 27.2367C14.0101 27.8049 14.1749 28.6376 14.3192 29.098C14.4532 29.5584 14.8035 30.3518 15.0714 30.8612C15.3496 31.3706 15.8752 32.1445 16.2358 32.5755C16.5965 33.0065 17.2148 33.6041 17.6063 33.9078C17.9979 34.2114 18.544 34.6033 18.8326 34.7796C19.1108 34.9657 19.6981 35.2596 20.1206 35.4457C20.5431 35.6318 21.3365 35.8963 21.8724 36.0237C22.4597 36.1608 23.315 36.2882 23.9848 36.3176C24.6752 36.3567 25.4583 36.3274 25.9941 36.2588C26.4785 36.1902 27.241 36.0237 27.6944 35.8865C28.1478 35.7494 28.8382 35.4849 29.24 35.2988C29.6419 35.1029 30.3014 34.7208 30.7239 34.4465C31.1361 34.1723 31.8162 33.6139 32.218 33.2123C32.6199 32.8106 33.1145 32.2327 33.3309 31.9388C33.537 31.6449 33.8667 31.0963 34.0625 30.7143C34.2686 30.3323 34.5365 29.7445 34.6499 29.3918C34.7735 29.0392 34.9384 28.4221 35.0208 28.0204C35.093 27.6188 35.1651 26.8253 35.1651 26.2572C35.1651 25.689 35.1033 24.8759 35.0105 24.4449C34.9281 24.0139 34.7529 23.3576 34.619 22.9755C34.485 22.5935 34.2068 21.9861 34.011 21.6041C33.8049 21.222 33.3721 20.5657 33.0321 20.1347C32.692 19.7037 32.1356 19.1159 31.8059 18.8221C31.4658 18.5282 30.8475 18.0678 30.4251 17.7935C30.0026 17.529 29.2607 17.1372 28.7763 16.9412C28.292 16.7453 27.6016 16.5102 27.2307 16.4318C26.8597 16.3437 26.2415 16.2261 25.8396 16.1674C25.4377 16.1184 24.8194 16.0792 24.4485 16.0792C24.0775 16.089 23.3871 16.1478 22.9028 16.2163Z" fill="#0033D9"/>
<path d="M21.6457 21.8686C21.6354 20.9576 21.6766 20.1837 21.7281 20.1347C21.7796 20.0955 22.3258 20.0857 22.9543 20.1249C23.5726 20.1543 24.8194 20.1837 27.3337 20.1837V23.5143H30.9403V28.902H27.3337V32.3306H21.6663V28.902H18.1628V23.5143H21.6663L21.6457 21.8686Z" fill="#0033D9"/>
</svg>
