<svg width="44" height="44" viewBox="0 0 44 44" fill="none" xmlns="http://www.w3.org/2000/svg">
<path fill-rule="evenodd" clip-rule="evenodd" d="M20.572 0.0878899C19.9753 0.126952 19.1634 0.214842 18.7623 0.283201C18.3613 0.341794 17.3635 0.566401 16.5614 0.771478C15.7495 0.976554 14.7615 1.27929 14.3604 1.43553C13.9594 1.59178 13.2257 1.90428 12.7464 2.11912C12.2671 2.33396 11.4649 2.75388 10.9856 3.03708C10.5063 3.33005 9.73351 3.82809 9.27375 4.14059C8.814 4.46285 8.42272 4.74605 8.39337 4.77535C8.36402 4.81441 8.09991 5.03902 7.80645 5.27339C7.51299 5.51753 6.98476 5.99604 6.6326 6.3476C6.28045 6.69916 5.80113 7.20697 5.55658 7.47064C5.31203 7.73431 4.87184 8.28118 4.56859 8.68157C4.26535 9.08195 3.73712 9.85343 3.38496 10.3905C3.04259 10.9276 2.50458 11.8944 2.19156 12.539C1.88831 13.1835 1.4579 14.1893 1.25248 14.785C1.03727 15.3807 0.763378 16.3182 0.626429 16.8846C0.48948 17.451 0.313404 18.369 0.235147 18.9354C0.156891 19.5018 0.0590705 20.5076 0.0199424 21.1815C-0.0191858 21.9139 0.000378292 22.91 0.0688526 23.6717C0.137327 24.365 0.254711 25.3123 0.332968 25.7713C0.411224 26.2302 0.567737 26.9529 0.675339 27.3826C0.782942 27.8123 1.04706 28.6716 1.26226 29.2869C1.48725 29.9021 1.947 30.9958 2.28938 31.7087C2.63175 32.4118 2.96434 33.0564 3.01325 33.115C3.07194 33.1833 3.31649 33.5446 3.56104 33.9255C3.79581 34.3064 3.99145 34.6384 3.99145 34.6774C3.99145 34.7263 4.03058 34.7653 4.06971 34.7751C4.11862 34.7946 4.35339 35.0681 4.58816 35.3903C4.82292 35.7224 5.23377 36.2204 5.50767 36.5134C5.77178 36.8063 6.29023 37.3337 6.64239 37.6852C6.92602 37.9684 7.28579 38.3085 7.5224 38.5322C7.57956 38.5863 7.62953 38.6335 7.6695 38.6715C7.87492 38.8571 8.38359 39.2575 8.78465 39.5504C9.18571 39.8336 9.55743 40.1071 9.61613 40.1559C9.67482 40.2047 10.0661 40.4586 10.4965 40.7223C10.9269 40.986 11.8269 41.4743 12.5018 41.7965C13.1768 42.1285 14.3213 42.5875 15.0452 42.8317C15.769 43.0758 16.4342 43.2809 16.5125 43.3004C16.5907 43.3199 17.0798 43.4274 17.5885 43.5348C18.0972 43.6422 18.8895 43.7692 19.3493 43.8278C19.809 43.8766 20.6209 43.9547 21.1589 43.984C21.6969 44.0133 22.7338 44.0035 23.4577 43.9449C24.1816 43.8863 25.1794 43.7692 25.6587 43.691C26.138 43.6031 26.8032 43.4664 27.126 43.3883C27.3851 43.3177 27.6506 43.2535 27.7857 43.2208C27.8189 43.2127 27.8442 43.2066 27.8596 43.2028C27.9379 43.1832 28.4661 43.0172 29.0335 42.8317C29.6008 42.6364 30.5203 42.2653 31.0877 42.0016C31.6551 41.7477 32.6039 41.2496 33.1908 40.9079C33.7778 40.5563 34.756 39.9118 35.3429 39.4528C35.9298 38.9938 36.908 38.1344 37.5047 37.5485C38.0916 36.9528 38.8253 36.1618 39.1188 35.7809C39.422 35.4001 39.8818 34.7946 40.1557 34.4138C40.4198 34.0329 40.9382 33.1833 41.3099 32.5095C41.6719 31.8357 42.1805 30.7615 42.4349 30.1169C42.6892 29.4724 43.0022 28.613 43.1196 28.2127C43.237 27.8123 43.4424 26.9724 43.5598 26.3572C43.687 25.742 43.8435 24.8631 43.8924 24.4041C43.9511 23.9451 44 22.8904 44 22.0604C44 21.2303 43.9511 20.1756 43.9022 19.7166L43.9021 19.7159L43.9021 19.7157C43.8434 19.257 43.7848 18.7986 43.7652 18.6912C43.7571 18.6468 43.744 18.5757 43.7287 18.4923C43.7069 18.3741 43.6806 18.2313 43.6576 18.1053C43.6185 17.8905 43.462 17.2069 43.3055 16.5917C43.1587 15.9764 42.9435 15.2245 42.8359 14.9315C42.7283 14.6385 42.4447 13.9354 42.2099 13.369C41.9653 12.8026 41.5643 11.9823 41.3197 11.5331C41.0752 11.0937 40.8111 10.6347 40.7426 10.5175C40.6839 10.3905 40.5958 10.2734 40.5665 10.2441C40.5372 10.2148 40.273 9.84367 39.9894 9.41398C39.6959 8.9843 39.3438 8.50579 39.2068 8.34954C39.1803 8.31927 39.1431 8.27655 39.0976 8.22421C38.908 8.00633 38.5734 7.62178 38.2579 7.27533C37.8764 6.83588 37.1134 6.0937 36.5657 5.60542C36.0179 5.11714 35.3233 4.55074 35.0201 4.3359C34.7071 4.13082 34.4429 3.92575 34.4136 3.88669C34.3843 3.85739 33.8169 3.50583 33.1419 3.11521C32.467 2.71482 31.567 2.24607 31.1366 2.06053C30.7062 1.87498 30.3051 1.68944 30.2562 1.65038C30.2073 1.61131 29.6693 1.416 29.0824 1.23046C28.4955 1.04491 27.7227 0.81054 27.3705 0.72265C27.2643 0.696142 27.1563 0.668745 27.0543 0.642872C26.8182 0.58296 26.6142 0.531214 26.5391 0.517574C26.5163 0.513439 26.4777 0.506241 26.4267 0.49672C26.2368 0.461268 25.8744 0.393614 25.5119 0.332028C25.0522 0.253904 24.0544 0.136718 23.3012 0.0878899C22.5382 0.0292966 21.8535 0 21.785 0C21.7067 0.00976554 21.1687 0.0488277 20.572 0.0878899ZM24.7098 3.70114C24.612 3.40818 24.5435 3.12498 24.5533 3.07615C24.5729 3.03709 24.7392 3.25193 24.9446 3.56443C25.1402 3.88669 25.6978 4.58004 26.1771 5.11715C26.6564 5.65425 27.4977 6.49409 28.0651 6.9726C28.6226 7.46088 29.4541 8.14447 29.9139 8.49603C30.3736 8.84758 31.1855 9.44328 31.7235 9.82414C32.2615 10.205 33.0637 10.8886 33.5039 11.328C33.9538 11.7772 34.4919 12.3925 34.7168 12.6854C34.932 12.9784 35.3038 13.6229 35.5483 14.1014C35.7831 14.58 36.057 15.2635 36.145 15.6151C36.2624 16.0643 36.3211 16.6307 36.3211 17.5194C36.3211 18.4471 36.2722 18.9842 36.1352 19.5213C36.0374 19.9217 35.7537 20.6932 35.5288 21.2303C35.294 21.7674 34.8049 22.6561 34.4332 23.1932C34.0712 23.74 33.3865 24.6385 32.8974 25.1853C32.4083 25.742 31.88 26.2791 31.4301 26.5916L31.6355 26.3474C31.7529 26.2205 32.0855 25.7615 32.3887 25.3318C32.6822 24.9021 33.1713 24.0916 33.4647 23.5252C33.7582 22.9588 34.1593 22.0799 34.3451 21.5721C34.5408 21.0643 34.7658 20.244 34.8538 19.7655C34.981 19.1112 35.0103 18.5838 34.9712 17.7147C34.9418 17.0702 34.844 16.2792 34.7658 15.9569C34.6777 15.6346 34.4136 14.9706 34.1788 14.4921C33.9441 14.0136 33.4941 13.2811 33.1713 12.8808C32.8582 12.4804 32.3496 11.9433 32.0561 11.6991C31.7627 11.455 31.0877 10.9472 30.5497 10.5761C30.0117 10.205 29.1802 9.58 28.7009 9.16985C28.2216 8.76946 27.5368 8.1054 27.1749 7.70502C26.8227 7.30463 26.3336 6.6894 26.0793 6.33784C25.8347 5.98628 25.463 5.37105 25.2674 4.97066C25.062 4.57028 24.8174 3.99411 24.7098 3.70114ZM14.781 7.16791C14.9571 6.83588 15.4169 6.25972 15.8473 5.82027C16.2581 5.41011 16.6592 5.06832 16.7277 5.06832C16.8255 5.06832 16.8548 5.32222 16.8646 6.123C16.8744 6.99213 16.9135 7.29486 17.1287 7.90033C17.2755 8.30071 17.5983 8.97454 17.8526 9.39445C18.1167 9.81437 18.6254 10.5175 19.0069 10.9569C19.3884 11.3866 20.3275 12.2851 21.11 12.9393C21.8926 13.5936 22.998 14.619 23.5849 15.2147C24.162 15.8104 25.1011 16.8553 25.6684 17.5389C26.3434 18.3592 26.8325 19.0623 27.0868 19.5702C27.2923 19.9998 27.5662 20.703 27.6738 21.1326C27.8401 21.7381 27.8792 22.2068 27.889 23.2322C27.889 24.2283 27.8303 24.8045 27.6738 25.576C27.5564 26.1424 27.2531 27.1091 27.0184 27.7244C26.7738 28.3396 26.3532 29.2673 26.0793 29.7751C25.7956 30.2829 25.1696 31.2986 24.6805 32.0212C24.1914 32.7439 23.6534 33.6716 23.4871 34.072C23.311 34.4724 23.1056 35.1071 23.0077 35.488C22.9197 35.8786 22.8414 36.572 22.8414 37.0993C22.8414 37.7438 22.9099 38.2614 23.0566 38.779C23.1642 39.1989 23.399 39.8141 23.5653 40.1461C23.7316 40.4879 24.1033 41.0836 24.3968 41.4645C24.6902 41.8551 24.9935 42.1969 25.0717 42.2262C25.15 42.2555 25.2185 42.3141 25.2185 42.3727C25.2185 42.4313 24.8957 42.2555 24.5142 41.9918C24.1229 41.7379 23.4284 41.1715 22.9784 40.7516C22.5284 40.3317 21.9415 39.6481 21.6774 39.2477C21.3937 38.818 21.0905 38.193 20.9437 37.7341C20.7579 37.1481 20.6894 36.738 20.6894 36.0739C20.6894 35.4489 20.7481 34.9704 20.8948 34.4333C21.0122 34.0232 21.247 33.4079 21.4133 33.0661C21.5893 32.7341 21.8828 32.2165 22.0882 31.9236C22.2839 31.6306 22.998 30.8396 23.6631 30.1658C24.3283 29.4919 25.0522 28.6814 25.2674 28.3591C25.4728 28.0369 25.7467 27.5193 25.8739 27.2068C26.001 26.9041 26.0989 26.5818 26.0989 26.5037C26.0989 26.4256 26.0597 26.3572 26.001 26.3572C25.9521 26.3572 25.9032 26.3865 25.9032 26.4256C25.9032 26.4744 25.6098 26.8357 25.238 27.2361C24.8663 27.6365 24.2207 28.2615 23.7903 28.613C23.3697 28.9744 22.6262 29.5212 22.1371 29.8337C21.6578 30.1462 20.797 30.6052 20.2296 30.8591C19.6623 31.113 18.7623 31.4353 18.2243 31.5622C17.6863 31.699 16.8548 31.865 16.3657 31.9333C15.8766 31.9919 14.8789 32.0212 14.1159 32.0017C12.9616 31.9626 12.6779 31.9236 12.3355 31.7478C12.0127 31.5818 11.866 31.4255 11.7095 31.0642C11.5236 30.6638 11.5041 30.5173 11.5725 29.8728C11.6214 29.4724 11.641 28.9744 11.641 28.7693C11.6312 28.574 11.553 28.2517 11.4747 28.0662C11.3965 27.8806 11.1323 27.5193 10.8878 27.2556C10.5748 26.9236 10.4574 26.7185 10.4574 26.5037C10.4476 26.3377 10.5356 26.1228 10.8487 25.8201L10.6432 25.4783C10.5259 25.283 10.4378 24.951 10.4378 24.6971C10.428 24.4529 10.4769 24.1502 10.5454 24.0135C10.6139 23.8768 10.7802 23.6424 10.9269 23.4959C11.0736 23.3299 11.1812 23.1053 11.1812 22.9393C11.1812 22.744 11.0736 22.5389 10.8389 22.3045C10.653 22.119 10.203 21.8065 9.84111 21.6209C9.46939 21.4354 9.08789 21.1619 8.97051 21.0057C8.8629 20.8592 8.74552 20.6346 8.71617 20.4979C8.67704 20.3514 8.73574 20.1268 8.84334 19.9315C8.95094 19.7557 9.05855 19.619 9.10746 19.619C9.14658 19.619 9.5183 19.2967 9.93893 18.8963C10.3498 18.5057 11.2008 17.6073 12.942 15.6249L13.3333 15.8592C13.5485 15.9862 13.9887 16.162 14.3115 16.2596C14.7713 16.3866 15.1234 16.4061 15.9255 16.3671C16.4929 16.3378 17.1189 16.2596 17.3244 16.1815C17.52 16.1131 17.6863 16.035 17.6863 16.0057C17.6863 15.9764 17.3439 15.9276 16.9331 15.8885C16.5125 15.8397 15.8375 15.7225 15.4364 15.6053C15.0354 15.4979 14.4387 15.2635 14.1256 15.0975C13.8028 14.9218 13.3235 14.5604 13.0496 14.287C12.7757 14.0136 12.4138 13.5057 12.2475 13.164C12.0714 12.8222 11.9051 12.3827 11.866 12.1972C11.8073 11.8944 11.8366 11.914 12.0812 12.3925C12.2279 12.6854 12.5507 13.1249 12.7953 13.3788C13.0398 13.6229 13.3333 13.8768 13.6757 14.0526L13.6659 12.5097C13.6659 11.4843 13.7148 10.6542 13.8224 9.99992C13.9202 9.46281 14.0963 8.74016 14.2332 8.38861C14.3604 8.03704 14.6147 7.49017 14.781 7.16791ZM23.7023 8.97454C23.7414 9.11125 23.9175 9.50188 24.0935 9.85344C24.2696 10.205 24.7 10.8886 25.0326 11.3671C25.4043 11.8847 26.3336 12.9296 27.3021 13.9061C28.2118 14.8143 29.1313 15.8299 29.3465 16.1522C29.5519 16.4745 29.8649 17.0897 30.0312 17.5194C30.1878 17.9491 30.3932 18.6522 30.4714 19.0819C30.579 19.6483 30.6084 20.1854 30.5693 21.035C30.5301 21.6893 30.4225 22.5291 30.3149 22.9393C30.2171 23.3397 30.1486 23.6814 30.1682 23.6912C30.1878 23.7107 30.3638 23.3982 30.5595 23.0076C30.7551 22.6268 31.0192 21.8846 31.1464 21.3768C31.3029 20.7518 31.3812 20.1756 31.3812 19.619C31.3812 19.1307 31.3029 18.4569 31.1855 17.9784C31.0779 17.5389 30.8432 16.8846 30.6573 16.5135C30.4714 16.1522 30.1682 15.6346 29.9725 15.371C29.7769 15.0975 29.3465 14.5995 29.0041 14.2577C28.6715 13.9159 28.0651 13.3886 27.664 13.0956C27.2629 12.7929 26.3532 11.9726 25.6587 11.2694C24.8565 10.4687 24.2501 9.76554 24.0153 9.36516C23.8099 9.0136 23.6631 8.83782 23.7023 8.97454Z" fill="#0033D9"/>
<path d="M19.9264 21.7479C19.9264 21.6014 19.9949 21.4159 20.0829 21.3377C20.1709 21.2499 20.3372 21.1815 20.4546 21.1815C20.572 21.1815 20.7481 21.2596 20.8459 21.3573C20.9437 21.4452 21.022 21.6209 21.0122 21.7479C21.0122 21.8651 20.9437 22.0311 20.8557 22.1092C20.7774 22.1873 20.5916 22.2557 20.4448 22.2557C20.2981 22.2557 20.122 22.2069 20.0535 22.1385C19.9851 22.0702 19.9264 21.8944 19.9264 21.7479Z" fill="#0033D9"/>
<path d="M17.1874 22.1385C17.1776 21.9627 17.2657 21.8163 17.4515 21.6795C17.5983 21.5624 17.7645 21.4745 17.8232 21.4745C17.8819 21.4647 18.0482 21.5526 18.195 21.6698C18.3515 21.7772 18.4689 21.9627 18.4689 22.0897C18.4689 22.2069 18.4004 22.4022 18.3221 22.5291C18.2243 22.6756 18.0776 22.744 17.8526 22.744C17.6863 22.744 17.4613 22.6659 17.3635 22.5682C17.2657 22.4803 17.1874 22.285 17.1874 22.1385Z" fill="#0033D9"/>
<path d="M14.8691 23.3787C14.8495 23.2127 14.8984 23.0565 14.9669 23.0077C15.0354 22.9686 15.1821 22.9491 15.2799 22.9588C15.3777 22.9784 15.5147 23.0662 15.5734 23.1639C15.6516 23.2811 15.6516 23.3787 15.5734 23.5057C15.5147 23.6034 15.3484 23.6717 15.1821 23.6717C14.9375 23.6717 14.8984 23.6327 14.8691 23.3787Z" fill="#0033D9"/>
<path d="M20.5133 24.1698C20.5035 24.0135 20.6013 23.8573 20.7774 23.7303C20.9241 23.6131 21.0904 23.5252 21.1491 23.5252C21.2078 23.5155 21.3741 23.6034 21.5209 23.7205C21.7165 23.8573 21.7948 24.0037 21.7948 24.2088C21.7948 24.4139 21.7165 24.5604 21.5209 24.6971C21.3741 24.8143 21.198 24.9022 21.1296 24.8924C21.0709 24.8924 20.9046 24.785 20.7676 24.6483C20.6307 24.5115 20.5231 24.2967 20.5133 24.1698Z" fill="#0033D9"/>
<path d="M16.1603 24.5018C16.219 24.3065 16.4048 24.0721 16.6005 23.9451C16.7863 23.8182 17.0407 23.7205 17.1678 23.7205C17.295 23.7205 17.5298 23.7889 17.6863 23.867C17.8428 23.9451 18.0482 24.1112 18.1265 24.2381C18.2047 24.3553 18.2732 24.6385 18.2732 24.8729C18.2732 25.1854 18.2047 25.3514 17.9895 25.6053C17.7352 25.8787 17.6374 25.9178 17.207 25.9178C16.8059 25.9178 16.6592 25.869 16.4635 25.6736C16.3266 25.5369 16.1799 25.2928 16.1309 25.1365C16.082 24.951 16.0918 24.7166 16.1603 24.5018Z" fill="#0033D9"/>
<path d="M18.7428 24.3065C18.6352 24.2479 18.5862 24.1502 18.6254 24.0623C18.6547 23.9842 18.7623 23.9159 18.8699 23.9159C18.9677 23.9159 19.0753 23.9744 19.0949 24.0428C19.1243 24.1014 19.0851 24.2088 19.0264 24.2772C18.9482 24.3553 18.8504 24.3651 18.7428 24.3065Z" fill="#0033D9"/>
<path d="M21.9708 26.2889C21.961 26.1717 22.0197 26.0545 22.098 26.0252C22.1665 26.0057 22.323 25.9861 22.4208 25.9959C22.5186 26.0057 22.6556 26.0936 22.7143 26.1912C22.7925 26.3084 22.7925 26.4061 22.7143 26.533C22.6556 26.6209 22.5284 26.7088 22.4404 26.7283C22.3523 26.7381 22.2154 26.6893 22.1371 26.6307C22.0491 26.5623 21.9708 26.4061 21.9708 26.2889Z" fill="#0033D9"/>
<path d="M15.0158 26.4842C14.9278 26.3865 14.9278 26.3377 15.0256 26.2205C15.0941 26.1424 15.2114 26.1033 15.2897 26.1326C15.3679 26.1619 15.4266 26.2401 15.4364 26.3182C15.4364 26.3963 15.3679 26.4842 15.2897 26.533C15.2017 26.5721 15.0843 26.5525 15.0158 26.4842Z" fill="#0033D9"/>
<path d="M18.7428 26.8065C18.8308 26.6502 18.9677 26.4647 19.0558 26.3963C19.134 26.3279 19.3492 26.2596 19.5155 26.2596C19.7307 26.2596 19.9199 26.341 20.0829 26.5037C20.259 26.6795 20.3274 26.8553 20.3274 27.1385C20.3274 27.4217 20.259 27.5975 20.0829 27.7732C19.9264 27.9393 19.7405 28.0174 19.5253 28.0174C19.3492 28.0174 19.1047 27.9393 18.9873 27.8416C18.8601 27.7537 18.7232 27.5389 18.6743 27.3826C18.6058 27.1678 18.6254 27.0213 18.7428 26.8065Z" fill="#0033D9"/>
<path d="M16.1114 28.1639C16.1114 28.0076 16.1896 27.7928 16.2777 27.7049C16.3657 27.6072 16.5711 27.5291 16.7179 27.5291C16.9135 27.5291 17.0602 27.617 17.1972 27.8025C17.3146 27.949 17.4026 28.1053 17.4026 28.1639C17.4026 28.2225 17.3146 28.3787 17.1972 28.535C17.07 28.7107 16.9135 28.7986 16.7277 28.7986C16.5809 28.8084 16.3853 28.7303 16.2875 28.6326C16.1896 28.535 16.1114 28.3201 16.1114 28.1639Z" fill="#0033D9"/>
<path d="M18.8112 29.4822C18.7819 29.3748 18.8112 29.2185 18.8797 29.1306C18.9384 29.0525 19.0949 28.9939 19.2416 29.0135C19.4275 29.033 19.5058 29.1111 19.5253 29.2869C19.5449 29.4236 19.496 29.5799 19.4079 29.658C19.3199 29.7166 19.1634 29.7556 19.0558 29.7263C18.9482 29.6971 18.8406 29.5896 18.8112 29.4822Z" fill="#0033D9"/>
</svg>
