<svg width="49" height="48" viewBox="0 0 49 48" fill="none" xmlns="http://www.w3.org/2000/svg">
<g id="Vector">
<g id="Vector_2">
<path d="M14.1068 6.26354C14.2791 6.18172 14.5226 6.08822 14.6474 6.059H14.6414C14.7662 6.02978 15.0276 6.0064 15.2236 6.00056C15.4196 5.99471 15.6989 6.03562 15.8474 6.08237C15.9959 6.12913 16.2157 6.25769 16.5721 6.54989L16.1622 6.75443C15.9424 6.86546 15.6216 7.05831 15.4612 7.17519C15.2949 7.29207 15.0692 7.49077 14.9444 7.61349C14.8256 7.73621 14.6177 7.99335 14.487 8.1862C14.3503 8.37905 14.1602 8.73553 14.0652 8.97513C13.9702 9.21473 13.8632 9.6355 13.8216 9.91016C13.7563 10.3134 13.7563 10.4537 13.8216 10.6699C13.8632 10.816 13.9702 11.0264 14.0533 11.1374C14.1424 11.2484 14.3741 11.4354 14.5701 11.5582C14.7662 11.6809 15.1523 11.862 15.4315 11.9614C15.7107 12.0607 16.1919 12.201 16.5008 12.277C16.8097 12.3529 17.4276 12.4815 17.8672 12.5633C18.3068 12.6451 19.2038 12.8029 19.8572 12.9198C20.5107 13.0308 21.2711 13.1828 21.5503 13.2471C21.8295 13.3113 22.281 13.4341 22.5602 13.5159C22.8394 13.5977 23.3206 13.7847 23.6295 13.9308C24.0394 14.1295 24.2889 14.299 24.5503 14.5561C24.7523 14.749 25.0136 15.0762 25.1384 15.2866C25.2631 15.497 25.4235 15.8242 25.5008 16.0171C25.5721 16.2099 25.6849 16.5781 25.7443 16.8352C25.8216 17.1684 25.8513 17.5482 25.8572 19.056L17.184 19.0676C12.4137 19.0793 8.49296 19.0618 8.46326 19.0384C8.43949 19.015 8.38009 18.7345 8.33256 18.4131C8.28504 18.0917 8.24346 17.6768 8.24346 17.4956C8.24346 17.3086 8.28504 16.9521 8.33256 16.7067C8.38009 16.4554 8.51078 16.0697 8.62365 15.8418C8.76622 15.5496 8.98603 15.2632 9.38404 14.8483C9.69295 14.5269 9.9781 14.2055 10.0137 14.1353C10.0553 14.0594 10.085 13.8899 10.085 13.7555C10.085 13.5977 10.0197 13.3639 9.91275 13.1243C9.81176 12.914 9.69295 12.5867 9.63949 12.3938C9.59196 12.201 9.55038 11.8971 9.55038 11.7218C9.55038 11.5465 9.59196 11.2426 9.63949 11.0497C9.69295 10.8569 9.82364 10.5296 9.92463 10.3192C10.0316 10.1089 10.2811 9.729 10.4712 9.47187C10.6613 9.21473 11.1009 8.72968 11.4454 8.39074C11.79 8.05179 12.3424 7.54921 12.6692 7.27454C12.9959 6.99987 13.382 6.69599 13.5306 6.59664C13.6791 6.49729 13.9404 6.3512 14.1068 6.26354Z" fill="#0033D9"/>
<path d="M30.3186 18.2904C30.4136 18.2729 31.0314 18.2261 31.6849 18.1794C32.3384 18.1385 33.1938 18.1034 33.5859 18.1092C34.1265 18.1209 34.3463 18.1443 34.5067 18.2203C34.6195 18.2787 34.8156 18.4248 34.9463 18.5417C35.071 18.6644 35.2195 18.8573 35.2789 18.9683C35.3383 19.0793 36.0037 20.067 36.77 21.1598C37.5295 22.2514 38.3128 23.3721 38.5099 23.6542L38.5106 23.6551C38.7126 23.9357 39.366 24.8765 39.972 25.7473C40.5779 26.618 41.7185 28.2543 42.5086 29.3881C43.2987 30.5159 44.1244 31.7081 44.3502 32.0295C44.5759 32.3509 45.063 33.0581 45.4373 33.5957C45.8115 34.1334 46.3046 34.8346 46.5363 35.1502C46.762 35.4658 47.0412 35.8398 47.1482 35.98C47.2551 36.1203 47.3858 36.3833 47.4392 36.5586C47.4986 36.7729 47.5145 36.9677 47.4868 37.143C47.463 37.2891 47.2848 37.7508 47.0888 38.1657C46.8927 38.5806 46.56 39.3053 46.3521 39.7728C46.0789 40.3689 45.9066 40.6786 45.764 40.813C45.6511 40.9123 45.5026 41 45.4373 41C45.3719 41 45.2472 40.9649 45.1521 40.9182C45.0511 40.8714 44.7125 40.4448 44.2492 39.7786C43.8393 39.2001 43.067 38.0897 42.5264 37.3183C41.9858 36.5469 41.3739 35.6645 41.1601 35.3606C40.9462 35.0567 40.3462 34.1918 39.8234 33.4438C39.3007 32.6957 38.3383 31.3107 37.6848 30.3757C37.0314 29.4348 36.1759 28.2076 35.7839 27.6466C35.3918 27.0855 34.3106 25.5369 33.3779 24.1986C32.4453 22.8604 31.5126 21.5279 31.3047 21.2299C31.0968 20.9319 30.675 20.3299 30.3661 19.8916C29.873 19.167 29.8136 19.056 29.8136 18.8222C29.8136 18.606 29.8433 18.5417 29.974 18.4423C30.0691 18.3722 30.2176 18.3079 30.3186 18.2904Z" fill="#0033D9"/>
<path d="M4.27516 20.1897L4.41774 20.0494L4.56031 19.9033L29.6057 19.8975L29.9027 20.2072L29.9205 21.674C29.9324 22.4864 29.9265 23.2285 29.9087 23.322C29.8908 23.4155 29.8196 23.5558 29.6354 23.7603H4.50685L4.38804 23.6025C4.26922 23.4448 4.26328 23.3629 4.27516 20.1897Z" fill="#0033D9"/>
<path d="M3.34844 24.6778C3.47913 24.6136 3.69299 24.5434 3.82368 24.52C3.95437 24.4967 9.97216 24.4791 30.3304 24.4908L30.6809 24.672C30.9245 24.7947 31.0849 24.9233 31.2156 25.1103C31.3166 25.2505 31.4294 25.5077 31.4651 25.6772C31.5067 25.8466 31.5364 26.1622 31.5364 26.3784C31.5364 26.5947 31.5067 26.9453 31.477 27.1498C31.4473 27.3602 31.1978 28.3069 30.9245 29.2537C30.6453 30.2062 30.2295 31.5971 29.9918 32.3509C29.7542 33.1107 29.374 34.2678 29.1483 34.9223C28.9166 35.5827 28.6017 36.4534 28.4354 36.8508C28.275 37.254 28.0374 37.7917 27.9008 38.0488C27.7701 38.3059 27.5384 38.7033 27.3899 38.9254C27.2354 39.1533 26.8968 39.5449 26.6354 39.802C26.3681 40.0591 25.9701 40.3805 25.7443 40.5091C25.5127 40.6435 25.1622 40.8071 24.5859 41H9.43751L9.06919 40.8714C8.86127 40.7955 8.54048 40.6494 8.34445 40.5325C8.15435 40.4214 7.79791 40.1468 7.54841 39.9189C7.30485 39.6968 6.94247 39.2994 6.74644 39.0423C6.5504 38.7851 6.26525 38.3118 6.1108 37.9904C5.9504 37.6689 5.70684 37.1079 5.55832 36.7339C5.40981 36.3657 5.08902 35.4716 4.83952 34.747C4.59595 34.0282 4.25734 33.0113 4.09695 32.497C3.93655 31.9828 3.60388 30.8783 3.36032 30.0426C3.11676 29.2069 2.84943 28.2777 2.76626 27.968C2.6831 27.6641 2.58211 27.1907 2.54052 26.9161C2.50488 26.6472 2.48706 26.2791 2.51082 26.0979C2.53458 25.9226 2.58805 25.6596 2.63557 25.5135C2.6831 25.3733 2.81379 25.1512 2.92072 25.0285C3.02171 24.8999 3.21775 24.7421 3.34844 24.6778Z" fill="#0033D9"/>
</g>
</g>
</svg>
