<svg width="49" height="48" viewBox="0 0 49 48" fill="none" xmlns="http://www.w3.org/2000/svg">
<g id="Vector">
<path id="Vector_2" fill-rule="evenodd" clip-rule="evenodd" d="M16.8113 1C16.8308 1 17.1044 1.34351 17.417 1.76479C17.7362 2.1796 18.2247 2.84717 18.5048 3.23605C18.7849 3.62492 19.3125 4.40268 19.6773 4.95359C20.042 5.5045 20.5436 6.27577 20.7846 6.67113C21.0321 7.06649 21.5532 7.94146 21.9375 8.61552C22.3283 9.28957 23.0383 10.6182 23.5138 11.5645C23.9958 12.5108 24.569 13.6774 24.7904 14.157C25.0119 14.6366 25.4027 15.5116 25.6502 16.1014C25.8978 16.6912 26.269 17.5791 26.4644 18.0782C26.6598 18.5773 26.9399 19.3032 27.0832 19.6985C27.2265 20.0939 27.5001 20.8652 27.689 21.4161C27.8779 21.967 28.1775 22.8873 28.3599 23.4577C28.5358 24.028 28.7572 24.741 28.8484 25.0456C28.9396 25.3502 29.148 26.0891 29.3109 26.6983C29.4672 27.3076 29.6887 28.1631 29.7994 28.6103C29.9036 29.0575 30.0665 29.7575 30.1577 30.1658C30.2488 30.5741 30.4377 31.4945 30.581 32.2074C30.7178 32.9204 30.8872 33.8277 30.9523 34.2166C31.037 34.7222 31.0761 35.2731 31.0761 36.1286C31.0761 37.0165 31.0435 37.4767 30.9588 37.911C30.8937 38.235 30.7634 38.7276 30.6722 39.0128C30.581 39.298 30.4052 39.7322 30.2749 39.985C30.1511 40.2377 29.9297 40.6137 29.7734 40.8275C29.6235 41.0414 29.3565 41.346 29.1741 41.5081C28.9982 41.6701 28.6791 41.8905 28.4641 42.0071C28.2557 42.1173 27.8909 42.2599 27.6564 42.3118C27.4219 42.3701 27.0181 42.4155 26.7576 42.4155C26.5035 42.4155 26.0606 42.3701 25.787 42.3118C25.5069 42.2534 25.0901 42.1368 24.8556 42.046C24.6211 41.9488 24.2563 41.7673 24.0414 41.6312C23.8264 41.5016 23.4747 41.2035 23.2663 40.9831C23.0578 40.7562 22.7973 40.4192 22.6996 40.2442C22.5954 40.0627 22.439 39.6998 22.3478 39.4341C22.2632 39.1683 22.1589 38.76 22.1199 38.5267C22.0873 38.2934 22.0547 37.71 22.0547 37.2304C22.0547 36.7508 22.1003 36.0768 22.1524 35.7397C22.2045 35.4027 22.3283 34.8453 22.4325 34.5083C22.5432 34.1713 22.7908 33.4389 22.9862 32.888C23.1816 32.337 23.4161 31.6047 23.5073 31.2676C23.5984 30.9306 23.7352 30.3603 23.8134 30.0038C23.885 29.6473 24.0088 28.9473 24.0739 28.4483C24.1456 27.9492 24.2368 26.9317 24.2824 26.1798C24.341 25.1169 24.341 24.5076 24.2824 23.3929C24.2368 22.6086 24.1456 21.5263 24.0805 20.9948C24.0088 20.4568 23.8916 19.6596 23.8134 19.2124C23.7352 18.7652 23.5854 18.0069 23.4747 17.5273C23.3705 17.0477 23.1946 16.3153 23.0839 15.907C22.9797 15.4987 22.7647 14.7403 22.6084 14.2218C22.4521 13.7033 22.2045 12.9191 22.0547 12.4719C21.9049 12.0247 21.6248 11.2534 21.4359 10.7543C21.2405 10.2553 20.9474 9.50994 20.7846 9.10161C20.6152 8.69329 20.257 7.85721 19.9834 7.25445C19.7098 6.65169 19.1431 5.46561 18.7263 4.62952C18.3029 3.79344 17.7362 2.6981 17.4626 2.19904C17.1891 1.69998 16.922 1.22685 16.8699 1.14259C16.8178 1.06481 16.7917 1 16.8113 1V1ZM0.813818 28.2862H10.9164C19.7489 28.2862 21.0386 28.2992 21.2405 28.3835C21.3643 28.4353 21.5597 28.6038 21.6639 28.7594C21.8267 28.9797 21.8658 29.0964 21.8593 29.3751C21.8593 29.576 21.7942 29.8871 21.69 30.1529C21.5988 30.3927 21.3643 31.0408 21.1689 31.5917C20.98 32.1426 20.7325 32.9463 20.6282 33.3741C20.5175 33.8018 20.3742 34.5796 20.3026 35.111C20.2114 35.7592 20.1658 36.4073 20.1658 37.1332C20.1658 37.7619 20.2049 38.4748 20.2635 38.8702C20.3221 39.2331 20.4263 39.7516 20.498 40.0174C20.5761 40.2831 20.7064 40.6785 20.7976 40.8924C20.8888 41.1062 21.0842 41.4822 21.234 41.7284C21.3773 41.9747 21.69 42.383 21.9244 42.6293C22.1589 42.8756 22.5498 43.2127 22.8038 43.3812C23.0578 43.5497 23.4942 43.783 23.7808 43.8997C24.0674 44.0228 24.582 44.1913 24.9207 44.2756C25.3636 44.3923 25.787 44.4441 26.4188 44.47C27.0897 44.496 27.4219 44.483 27.8193 44.3987C28.1059 44.3404 28.5423 44.2108 28.7963 44.12C29.0503 44.0228 29.4672 43.8025 29.7278 43.6339C29.9818 43.4654 30.4117 43.109 30.6722 42.8562C30.9393 42.5969 31.3041 42.1627 31.493 41.897C31.6818 41.6312 31.9554 41.1775 32.0987 40.8924C32.2485 40.6072 32.457 40.1146 32.5742 39.7905C32.6915 39.4665 32.8348 38.9609 32.8934 38.6563C32.9455 38.3517 33.0432 37.6841 33.1018 37.1656C33.1735 36.5888 33.2125 35.7397 33.2125 34.962C33.2125 34.1842 33.1735 33.3222 33.1018 32.7259C33.0432 32.1945 32.9194 31.2871 32.8282 30.7167C32.7305 30.114 32.6784 29.5825 32.7045 29.4529C32.7305 29.3297 32.8217 29.1158 32.9194 28.9797C33.0171 28.8436 33.2125 28.6751 33.3558 28.6038C33.6099 28.4872 33.8574 28.4807 40.9312 28.4807C45.6731 28.4807 48.2851 28.5066 48.3697 28.5455C48.4935 28.6103 48.5 28.6751 48.5 30.7038C48.5 32.2528 48.4739 32.8296 48.4153 32.9528C48.3697 33.0435 48.1027 33.2704 47.8161 33.4583C47.5295 33.6398 47.0475 33.925 46.7413 34.0805C46.4352 34.2361 45.9857 34.4305 45.7317 34.5083C45.393 34.612 45.1064 34.6509 44.6244 34.6509C44.1554 34.6509 43.8167 34.612 43.4194 34.5083C43.1132 34.4305 42.6052 34.249 42.2795 34.1064C41.9538 33.9639 41.4588 33.7629 41.1722 33.6592C40.8856 33.5555 40.5404 33.4713 40.4036 33.4713C40.2733 33.4713 40.0844 33.5102 39.9867 33.562C39.8825 33.6139 39.6285 33.8537 39.407 34.1C39.192 34.3398 38.8664 34.6185 38.6905 34.7157C38.5146 34.8129 38.1955 34.936 37.9805 34.9879C37.7656 35.0462 37.4269 35.0916 37.2314 35.0916C37.036 35.0916 36.6713 35.0333 36.4172 34.962C36.1632 34.8907 35.9092 34.8323 35.8506 34.8323C35.7854 34.8323 35.6682 34.9036 35.59 34.9879C35.4597 35.124 35.4337 35.2342 35.3881 35.973C35.3555 36.4332 35.2904 37.1591 35.2383 37.5869C35.1927 38.0147 35.1145 38.5656 35.0754 38.8183C35.0364 39.0711 34.9517 39.4924 34.8865 39.7581C34.8149 40.0239 34.6455 40.5359 34.5022 40.8924C34.3589 41.2488 34.1179 41.7738 33.9681 42.059C33.8183 42.3442 33.5187 42.8367 33.2972 43.1608C33.0823 43.4784 32.6654 43.9839 32.3788 44.2821C32.0922 44.5867 31.6363 44.995 31.3692 45.1959C31.1021 45.3969 30.6918 45.6691 30.4573 45.7987C30.2228 45.9348 29.832 46.1228 29.5779 46.2265C29.3239 46.3302 28.8745 46.4792 28.5683 46.5635C28.0733 46.7061 27.8779 46.719 26.7771 46.7255C25.8391 46.7255 25.3832 46.6931 24.8881 46.6024C24.5299 46.5376 23.9306 46.3885 23.5529 46.2653C23.1751 46.1487 22.6344 45.9283 22.3478 45.7792C22.0612 45.6367 21.6834 45.4163 21.5011 45.2996C21.3252 45.1765 20.9995 44.9237 20.7781 44.7358C20.5566 44.5478 20.2244 44.2173 20.0355 44.0034C19.8466 43.7895 19.56 43.4136 19.3972 43.1608C19.2343 42.908 18.9738 42.4479 18.824 42.1238C18.6742 41.7997 18.4787 41.3072 18.3876 41.022C18.2964 40.7368 18.1661 40.2118 18.0879 39.8553C18.0163 39.4989 17.9251 38.8248 17.8795 38.3647C17.8339 37.8397 17.8209 37.1332 17.8534 36.4851C17.886 35.7527 17.873 35.3508 17.8144 35.124C17.7753 34.949 17.645 34.6249 17.5343 34.4175C17.4235 34.2037 17.2021 33.9185 17.0392 33.7759C16.8764 33.6398 16.6093 33.4518 16.44 33.3676C16.2641 33.2833 15.958 33.1796 15.7561 33.1407C15.476 33.0889 15.2806 33.0889 14.9874 33.1472C14.7725 33.1926 14.4338 33.2963 14.2384 33.387C14.043 33.4713 13.574 33.737 13.1962 33.9703C12.8184 34.2101 12.3038 34.4953 12.0563 34.612C11.8088 34.7222 11.4245 34.8518 11.2095 34.8972C10.9816 34.9425 10.6819 34.9555 10.4931 34.9296C10.3172 34.9036 10.0632 34.8323 9.93939 34.7675C9.81564 34.7027 9.4639 34.5018 9.15776 34.3138C8.85162 34.1324 8.39567 33.925 8.14815 33.8472C7.79641 33.7435 7.5033 33.7111 6.87799 33.7046C6.20058 33.6981 6.01168 33.724 5.73811 33.8342C5.56224 33.9055 5.17794 34.1194 4.89134 34.3138C4.60474 34.5018 4.22695 34.7286 4.04457 34.8129C3.8687 34.8907 3.54302 34.9749 3.32807 35.0009C3.06753 35.0268 2.79396 35.0073 2.50084 34.936C2.25333 34.8777 1.87554 34.7416 1.65407 34.6314C1.4261 34.5148 1.11996 34.3398 0.970145 34.2425C0.807304 34.1324 0.650977 33.9574 0.592355 33.8277C0.514191 33.6398 0.494651 33.1861 0.501164 28.6038L0.813818 28.2862ZM14.3035 36.1351C14.4989 36.1351 14.7725 36.1675 14.9158 36.2129C15.0591 36.2582 15.3001 36.4073 15.4629 36.5499C15.6193 36.6925 15.8082 36.9258 15.8798 37.0684C15.9515 37.211 16.0296 37.4767 16.0427 37.6517C16.0687 37.8721 16.0427 38.0924 15.958 38.3322C15.8928 38.5267 15.7365 38.8054 15.6062 38.9415C15.4825 39.0776 15.261 39.2526 15.1177 39.3239C14.9744 39.3952 14.6943 39.4665 14.4989 39.4859C14.2644 39.5054 14.0299 39.4794 13.815 39.4146C13.6326 39.3563 13.3721 39.2137 13.2353 39.097C13.092 38.9804 12.9096 38.7406 12.8249 38.5591C12.7142 38.3193 12.6751 38.1184 12.6751 37.7813C12.6751 37.4443 12.7142 37.2563 12.8184 37.0425C12.9031 36.8804 13.0855 36.6471 13.2353 36.524C13.3786 36.3943 13.6 36.2582 13.7238 36.2193C13.8411 36.174 14.1081 36.1416 14.3035 36.1351ZM46.6111 36.1351C46.8911 36.1351 47.1191 36.174 47.295 36.2518C47.4383 36.3166 47.6402 36.4397 47.7509 36.5304C47.8552 36.6212 48.018 36.8351 48.1092 37.0101C48.2395 37.2693 48.272 37.4184 48.272 37.8137C48.2655 38.1572 48.2329 38.3647 48.1483 38.5267C48.0831 38.6498 47.9333 38.8507 47.8226 38.9674C47.7119 39.0906 47.5034 39.2461 47.3601 39.3174C47.2168 39.3952 46.9367 39.4665 46.7413 39.4859C46.5068 39.5054 46.2723 39.4794 46.0574 39.4146C45.875 39.3563 45.6145 39.2137 45.4777 39.097C45.3409 38.9804 45.152 38.7211 45.0608 38.5267C44.9305 38.2609 44.8915 38.073 44.8915 37.7813C44.898 37.5156 44.9501 37.2952 45.0543 37.0749C45.139 36.8999 45.3279 36.6536 45.4777 36.524C45.621 36.3943 45.8424 36.2582 45.9662 36.2193C46.0835 36.174 46.3766 36.1416 46.6111 36.1351ZM39.6089 36.3943C39.8499 36.3943 40.0974 36.4332 40.2603 36.511C40.4036 36.5758 40.6055 36.699 40.7162 36.7897C40.8204 36.874 40.9898 37.1073 41.0875 37.3017C41.2308 37.5804 41.2699 37.7424 41.2699 38.073C41.2699 38.4035 41.2308 38.5721 41.0875 38.8443C40.9898 39.0387 40.8074 39.2785 40.6837 39.3822C40.5599 39.4859 40.3059 39.6155 40.13 39.6739C39.9151 39.7387 39.6806 39.7646 39.4461 39.7452C39.2507 39.7257 38.9706 39.6544 38.8273 39.5767C38.684 39.5054 38.4821 39.3628 38.3778 39.2655C38.2736 39.1618 38.1368 38.9609 38.0587 38.8183C37.987 38.6758 37.9154 38.3971 37.8958 38.2026C37.8763 38.0017 37.9023 37.736 37.9479 37.5869C37.987 37.4443 38.1043 37.2175 38.1955 37.0749C38.2932 36.9388 38.456 36.7638 38.5667 36.6925C38.671 36.6147 38.8664 36.5175 38.9901 36.4721C39.1139 36.4332 39.394 36.3943 39.6089 36.3943ZM5.93352 37.8137C6.18755 37.8137 6.42856 37.8656 6.61745 37.9498C6.78029 38.0211 7.00827 38.1767 7.12551 38.2869C7.24927 38.4035 7.4056 38.6109 7.47725 38.7535C7.5489 38.8961 7.62706 39.1748 7.6466 39.3692C7.66614 39.622 7.64009 39.8229 7.55541 40.0757C7.48376 40.2701 7.32092 40.5359 7.18413 40.672C7.05386 40.8146 6.81937 40.9831 6.66305 41.0544C6.48066 41.1386 6.25269 41.184 5.96609 41.184C5.67949 41.184 5.445 41.1386 5.24959 41.0479C5.08675 40.9766 4.8718 40.8405 4.76758 40.7433C4.66337 40.6461 4.51355 40.4257 4.42887 40.2442C4.31163 40.0044 4.27255 39.81 4.27255 39.4989C4.27255 39.2137 4.31814 38.9804 4.40933 38.7859C4.48098 38.6239 4.61777 38.41 4.71547 38.3063C4.81318 38.2091 5.03464 38.0535 5.21702 37.9693C5.445 37.8591 5.65343 37.8137 5.93352 37.8137ZM12.0563 41.8062C12.2322 41.8257 12.5253 41.9229 12.7012 42.0136C12.8835 42.1108 13.1246 42.3118 13.2418 42.4673C13.359 42.6164 13.4893 42.8627 13.5284 43.0182C13.5675 43.1673 13.587 43.4525 13.5675 43.6469C13.5545 43.8413 13.4893 44.1071 13.4242 44.2302C13.359 44.3534 13.2157 44.5543 13.105 44.6709C12.9943 44.7941 12.7858 44.9496 12.6425 45.0274C12.4406 45.1311 12.2648 45.1635 11.8935 45.1635C11.5222 45.1635 11.3398 45.1311 11.1444 45.0274C11.0011 44.9561 10.7862 44.7941 10.6689 44.6774C10.5517 44.5543 10.4084 44.3534 10.3498 44.2302C10.2846 44.1071 10.226 43.8154 10.213 43.5821C10.1934 43.284 10.2195 43.0765 10.3042 42.8691C10.3693 42.7071 10.5256 42.4673 10.6494 42.3247C10.7797 42.1886 10.962 42.0331 11.0597 41.9877C11.1574 41.9358 11.3528 41.871 11.4831 41.8386C11.6199 41.7997 11.8739 41.7868 12.0563 41.8062ZM44.8198 42.6812C45.0348 42.6812 45.3279 42.7136 45.4712 42.7525C45.6275 42.8043 45.862 42.9599 46.0639 43.1608C46.3114 43.4071 46.4222 43.5756 46.5068 43.8413C46.5655 44.0358 46.6111 44.2691 46.6111 44.3598C46.6111 44.4506 46.5655 44.6709 46.5133 44.8459C46.4612 45.0274 46.3245 45.2867 46.2072 45.4228C46.09 45.5589 45.862 45.7533 45.6991 45.8441C45.4451 45.9866 45.3279 46.0126 44.8784 46.0126C44.4095 46.0126 44.3183 45.9931 44.0382 45.8181C43.8623 45.7144 43.6278 45.507 43.5171 45.3644C43.3868 45.2024 43.2826 44.9626 43.2305 44.7163C43.1849 44.496 43.1654 44.2173 43.1914 44.0682C43.2175 43.9256 43.3152 43.6663 43.4064 43.4978C43.5041 43.3228 43.6669 43.1154 43.7776 43.0312C43.8818 42.9469 44.0773 42.8367 44.201 42.7784C44.3248 42.7266 44.6049 42.6812 44.8198 42.6812ZM37.1403 44.3728C37.4594 44.3858 37.6027 44.4311 37.8242 44.5867C37.9805 44.6969 38.1629 44.9043 38.2476 45.0728C38.3388 45.2478 38.3974 45.4811 38.3974 45.6561C38.3974 45.8181 38.3453 46.0644 38.2801 46.207C38.215 46.3496 38.0978 46.5311 38.0196 46.6153C37.9414 46.6931 37.7916 46.8033 37.6874 46.8551C37.5767 46.907 37.3813 46.9718 37.2445 46.9912C37.1142 47.0107 36.8732 46.9977 36.7104 46.9524C36.5215 46.9005 36.3195 46.7774 36.1437 46.6024C35.9743 46.4339 35.8506 46.2329 35.7985 46.045C35.7529 45.8829 35.7333 45.6367 35.7529 45.4941C35.7789 45.3515 35.8831 45.1052 36.0004 44.9496C36.1111 44.7941 36.3261 44.5932 36.4759 44.5089C36.6973 44.3793 36.8146 44.3534 37.1403 44.3728Z" fill="#0033D9"/>
</g>
</svg>
