<svg width="49" height="48" viewBox="0 0 49 48" fill="none" xmlns="http://www.w3.org/2000/svg">
<g id="Subtract">
<g id="Subtract_2">
<path fill-rule="evenodd" clip-rule="evenodd" d="M11.1042 1.61956C11.3402 1.46151 11.6941 1.25288 11.8908 1.16437C12.0874 1.07586 12.3299 1 12.4348 1C12.5331 1 12.7297 1.0569 12.8739 1.12644C13.0182 1.19598 13.1755 1.3161 13.2279 1.39829C13.2803 1.47415 13.5884 2.2075 13.9161 3.02304C14.2373 3.83858 14.8403 5.36218 15.2533 6.40531C15.3209 6.57621 15.3935 6.75951 15.469 6.95007C15.8541 7.92263 16.3142 9.08462 16.5773 9.75597C16.8919 10.5589 17.436 11.9371 17.7899 12.8221C18.1439 13.7072 18.7076 15.136 19.0418 15.9958C19.3827 16.8619 19.6711 17.5636 19.6908 17.5636C19.7104 17.5636 19.9333 17.0326 20.1955 16.3814C20.3541 15.9733 20.5987 15.3557 20.8382 14.7508L20.8389 14.749L20.8391 14.7485L20.8392 14.7483C20.9852 14.3796 21.1292 14.0158 21.2508 13.7072C21.3405 13.4792 21.4575 13.1826 21.5901 12.8461L21.5978 12.8265L21.5979 12.8263C21.9387 11.9618 22.3806 10.8406 22.7321 9.94563C22.9731 9.34016 23.3183 8.46696 23.6862 7.53638L23.6867 7.53524L23.6867 7.53515C24.0793 6.54221 24.4976 5.48406 24.8427 4.61618C25.5047 2.94085 26.1012 1.49312 26.1667 1.40461C26.2257 1.30978 26.3896 1.18334 26.5272 1.12012C26.6583 1.05058 26.8484 1 26.9533 1C27.0516 1 27.3334 1.09483 27.5891 1.21495C27.8447 1.34139 28.2183 1.56898 28.4281 1.72703C28.6313 1.88508 28.9328 2.17589 29.0966 2.37187C29.2605 2.57418 29.5227 2.97879 29.68 3.27592C29.8439 3.57305 30.0471 4.04088 30.1388 4.31905C30.2371 4.59722 30.342 5.06505 30.3813 5.36218C30.4338 5.76679 30.4338 6.02599 30.3748 6.40531C30.3224 6.7467 30.0929 7.4358 29.68 8.52318C29.5687 8.81216 29.4567 9.10383 29.3532 9.37355L29.353 9.374L29.3518 9.37712L29.3518 9.37727C29.1388 9.932 28.9617 10.3933 28.9 10.5462C28.8412 10.692 28.6937 11.0763 28.5178 11.5349L28.5177 11.5351L28.5147 11.5428C28.4168 11.798 28.3102 12.0758 28.2052 12.348C27.9168 13.113 26.7108 16.2676 25.5244 19.3654C24.338 22.4632 23.3024 25.169 23.0664 25.7886L23.3745 26.4018C23.5449 26.7369 23.7546 27.2869 23.8464 27.6156C23.9316 27.9444 24.0561 28.6019 24.1151 29.0697C24.1872 29.6323 24.2397 30.7071 24.2659 32.218C24.3052 34.2221 24.3249 34.5003 24.4101 34.4687C24.4625 34.4434 24.8755 34.3043 25.3277 34.1526C25.78 34.0008 26.383 33.8365 26.6714 33.7796C26.9598 33.7164 27.4449 33.6595 27.7529 33.6342C28.0741 33.6152 28.5329 33.6342 28.8345 33.6847C29.1229 33.729 29.562 33.8302 29.8176 33.9187C30.0733 34.0008 30.4666 34.1715 30.7025 34.298C30.9385 34.4181 31.3055 34.6583 31.5218 34.8227C31.7381 34.9871 32.0659 35.2905 32.2494 35.4928C32.4329 35.7015 32.6689 35.9923 32.7803 36.1503C32.8918 36.3084 33.0818 36.6308 33.2064 36.8774C33.3375 37.1239 33.5145 37.5475 33.6062 37.8257C33.698 38.1038 33.8094 38.5717 33.8553 38.8688C33.9012 39.2102 33.9208 39.6843 33.8946 40.1648C33.8684 40.582 33.7963 41.1384 33.7242 41.3976C33.6587 41.6568 33.5013 42.0993 33.3834 42.3775C33.2654 42.6557 33.0163 43.0982 32.8393 43.3574C32.6624 43.6166 32.3215 44.0275 32.0855 44.2678C31.8496 44.5017 31.476 44.8178 31.2597 44.9695C31.0434 45.1149 30.6829 45.3299 30.46 45.4373C30.2306 45.5448 29.7914 45.7092 29.4768 45.7977C28.9918 45.9431 28.7689 45.9684 28.0807 45.9684C27.458 45.9684 27.1368 45.9431 26.737 45.842C26.4486 45.7724 25.9504 45.5891 25.6358 45.4373C25.3146 45.2856 24.8296 44.9822 24.5543 44.7735C24.2724 44.5586 23.8857 44.1919 23.6891 43.9517C23.4924 43.7114 23.204 43.3068 23.0467 43.0413C22.896 42.7821 22.6862 42.3396 22.5813 42.0614C22.4765 41.7832 22.3454 41.3154 22.2864 41.0183C22.2077 40.6137 22.1618 39.7918 22.116 37.7624C22.0832 36.2704 22.0242 34.848 21.9849 34.6014C21.9521 34.3549 21.8734 33.9629 21.821 33.7164C21.762 33.4698 21.6571 33.0905 21.5785 32.8629C21.5064 32.6353 21.3229 32.2244 21.1787 31.9462C21.0082 31.6238 20.7657 31.3013 20.5101 31.0548C20.2413 30.7829 20.0447 30.6502 19.8874 30.6186C19.7629 30.5933 19.5662 30.5933 19.4613 30.6186C19.3434 30.6439 19.1008 30.8209 18.8649 31.0485C18.5765 31.333 18.3864 31.6048 18.1635 32.041C17.98 32.4014 17.7768 32.9324 17.6654 33.3686C17.5605 33.7669 17.4425 34.3675 17.3966 34.6963C17.3573 35.025 17.2983 36.4791 17.2655 37.9205C17.2197 39.8171 17.1738 40.6769 17.1017 41.0183C17.0492 41.2775 16.9378 41.6758 16.8657 41.9033C16.7871 42.1309 16.6166 42.5103 16.4921 42.7568C16.3676 43.0034 16.1775 43.3258 16.066 43.4838C15.9546 43.6419 15.7187 43.9327 15.5351 44.1413C15.3516 44.3436 14.9649 44.685 14.6765 44.8873C14.3881 45.096 13.9424 45.3615 13.6933 45.4816C13.4442 45.5954 12.9985 45.7534 12.7101 45.8293C12.3234 45.9305 11.976 45.9684 11.3992 45.9684C10.9403 45.9747 10.4618 45.9431 10.2521 45.8925C10.0555 45.8483 9.72773 45.7534 9.53109 45.6839C9.33445 45.6144 9.02639 45.4879 8.84286 45.3994C8.66588 45.3109 8.33815 45.1149 8.12185 44.9695C7.90555 44.8178 7.53193 44.5017 7.29597 44.2678C7.06 44.0275 6.71916 43.6166 6.54218 43.3574C6.36521 43.0982 6.12269 42.6683 6.01126 42.4091C5.89328 42.1499 5.73597 41.6821 5.65076 41.366C5.52622 40.8981 5.5 40.6263 5.5 39.8171C5.5 39.2102 5.53277 38.7044 5.58521 38.4895C5.63765 38.2998 5.73597 37.9584 5.80807 37.7308C5.88672 37.5032 6.03092 37.1492 6.14235 36.9406C6.24723 36.7319 6.46353 36.3716 6.62084 36.1314C6.77815 35.8974 7.10588 35.5118 7.35496 35.2779C7.59748 35.0377 7.97109 34.7279 8.18739 34.5888C8.4037 34.4497 8.73798 34.26 8.92807 34.1652C9.1116 34.0767 9.52454 33.9313 9.83916 33.8428C10.1603 33.7543 10.6519 33.6658 10.9403 33.6405C11.2353 33.6215 11.7531 33.6405 12.1202 33.6847C12.4807 33.729 13.1165 33.8428 13.5294 33.9439C13.9424 34.0388 14.4995 34.1905 15.2336 34.4434L15.2598 31.7755C15.2795 29.6956 15.3057 28.9622 15.3909 28.4691C15.4499 28.1214 15.5613 27.6093 15.64 27.3311C15.7187 27.053 15.9087 26.5978 16.3217 25.8139L16.0529 25.0868C15.9022 24.6885 15.0501 22.4569 14.1521 20.1241C13.7883 19.1721 13.4278 18.2306 13.1169 17.4187L13.1147 17.413C12.6648 16.2381 12.3192 15.3354 12.2185 15.0665C12.0481 14.6113 11.2484 12.5377 8.9805 6.65819V5.80472C8.9805 5.03344 9.00017 4.90067 9.16403 4.44549C9.26235 4.16732 9.49176 3.66788 9.66218 3.33914C9.83916 3.0104 10.1407 2.55521 10.3308 2.32762C10.5274 2.10003 10.8748 1.78393 11.1042 1.61956ZM18.7207 25.3587C18.7993 25.2828 18.9763 25.1753 19.1008 25.1184C19.245 25.0615 19.4679 25.0299 19.6973 25.0363C19.9988 25.0489 20.1168 25.0932 20.3134 25.2449C20.4511 25.346 20.6215 25.5167 20.7002 25.6116C20.7985 25.738 20.8444 25.9087 20.864 26.1805C20.8837 26.484 20.8575 26.6294 20.746 26.838C20.6739 26.9898 20.5101 27.1794 20.3987 27.2616C20.2807 27.3501 20.0513 27.4513 19.8874 27.4892C19.6776 27.5398 19.5203 27.5461 19.3302 27.4955C19.186 27.4639 18.9697 27.3691 18.8452 27.2869C18.7207 27.2047 18.5502 27.015 18.465 26.857C18.3667 26.6737 18.3143 26.465 18.3143 26.269C18.3143 26.1047 18.3667 25.8644 18.4388 25.738C18.5044 25.6052 18.6355 25.4345 18.7207 25.3587ZM9.72773 35.967C9.9637 35.8595 10.298 35.7268 10.4815 35.6825C10.6585 35.6319 11.0255 35.5877 11.2877 35.5877C11.5434 35.5814 12.0612 35.6383 12.4282 35.7078C12.8018 35.7837 13.3524 35.9101 13.6605 35.9986C13.9686 36.0934 14.4471 36.2641 15.2402 36.6245L15.2336 38.2556C15.2336 39.147 15.2008 40.1016 15.1681 40.3734C15.1287 40.639 15.037 41.0436 14.9649 41.2712C14.8928 41.4987 14.7355 41.8528 14.6175 42.0614C14.4929 42.27 14.2242 42.6241 14.0145 42.8453C13.7981 43.0666 13.4639 43.3511 13.2672 43.4775C13.0706 43.604 12.697 43.781 12.4479 43.8632C12.0939 43.9833 11.8514 44.0149 11.3664 44.0212C10.8748 44.0212 10.6388 43.9896 10.2521 43.8632C9.95059 43.7683 9.58353 43.585 9.30168 43.389C9.0526 43.2183 8.70521 42.9022 8.52823 42.6936C8.35781 42.485 8.10874 42.1183 7.9842 41.8717C7.85966 41.6252 7.6958 41.189 7.6237 40.8918C7.50571 40.443 7.48605 40.2343 7.51882 39.6274C7.53193 39.2291 7.59748 38.7297 7.66302 38.5211C7.72202 38.3125 7.87933 37.9268 8.01042 37.6676C8.18739 37.3199 8.39059 37.0607 8.77731 36.6814C9.14437 36.321 9.43277 36.1061 9.72773 35.967ZM27.0319 35.7141C26.7239 35.7773 26.1929 35.9227 25.8521 36.0239C25.5113 36.1314 24.9934 36.34 24.705 36.4917L24.1807 36.7572C24.1479 38.9067 24.1741 39.8297 24.2069 40.1964C24.2462 40.5631 24.338 41.0436 24.4166 41.2712C24.4887 41.4987 24.6592 41.8654 24.7903 42.093C24.9148 42.3206 25.2294 42.7062 25.485 42.9528C25.7407 43.1994 26.1143 43.4839 26.3109 43.5976C26.5076 43.7051 26.9074 43.8505 27.1958 43.9264C27.4842 43.9959 27.8709 44.0528 28.0479 44.0528C28.2314 44.0528 28.5657 44.0086 28.8017 43.9517C29.0376 43.9011 29.4178 43.7683 29.6538 43.6545C29.9356 43.5218 30.2437 43.2942 30.578 42.9781C30.9844 42.5925 31.1286 42.3965 31.3776 41.9034C31.5415 41.5683 31.725 41.0752 31.7906 40.797C31.8758 40.4114 31.8955 40.1142 31.8627 39.5642C31.843 39.0774 31.784 38.6918 31.6857 38.3946C31.6071 38.1481 31.4366 37.7688 31.3055 37.5412C31.1745 37.3073 30.8598 36.9279 30.578 36.6498C30.2437 36.3273 29.9422 36.1061 29.6538 35.967C29.4178 35.8595 29.0639 35.7268 28.8672 35.6762C28.6706 35.6256 28.3035 35.5877 28.0479 35.5877C27.7923 35.5877 27.34 35.6446 27.0319 35.7141Z" fill="#0033D9"/>
<path d="M39.4857 13.4543V7.22717C39.4857 1.73335 39.4988 1 39.584 1C39.6365 1 39.8069 1.09483 39.9642 1.20863C40.115 1.32242 40.423 1.6322 40.6524 1.8914C40.8818 2.14428 41.1899 2.52992 41.3407 2.73855C41.4849 2.94718 41.7012 3.31385 41.8192 3.56041C41.9306 3.80065 42.0813 4.23054 42.1403 4.50871C42.2387 4.93228 42.2518 5.20413 42.219 6.15243C42.1993 6.77831 42.1207 7.67603 42.0486 8.14386C41.9765 8.61169 41.9109 9.30079 41.9109 9.67379C41.9109 10.2364 41.9371 10.4387 42.0813 10.8434C42.1731 11.1152 42.3566 11.5198 42.4812 11.7474C42.6123 11.975 42.9072 12.4302 43.1301 12.7589C43.3595 13.0877 43.5496 13.3785 43.5496 13.4038C43.5496 13.4354 42.6319 13.4543 39.4857 13.4543Z" fill="#0033D9"/>
<path d="M39.1908 14.4848C39.1187 14.5354 39.0138 14.7124 38.9613 14.8831C38.8761 15.155 38.863 16.9694 38.863 29.5754V43.958C39.1908 44.6218 39.4464 44.9695 39.6365 45.1655C39.8397 45.3741 40.1346 45.5891 40.3706 45.7029C40.5869 45.804 40.9671 45.9241 41.2227 45.9621C41.5701 46.0126 41.7929 46.0126 42.1403 45.9621C42.396 45.9178 42.763 45.8103 42.9597 45.7218C43.1563 45.6333 43.484 45.4057 43.6807 45.2224C43.9232 44.9948 44.1133 44.7419 44.2706 44.4258L44.5 43.958C44.5 16.9694 44.4869 15.155 44.4017 14.8831C44.3492 14.7124 44.2444 14.5354 44.1723 14.4848C44.0674 14.4216 43.5627 14.4026 41.6815 14.4026C39.8003 14.4026 39.2956 14.4216 39.1908 14.4848Z" fill="#0033D9"/>
</g>
</g>
</svg>
