<svg width="49" height="48" viewBox="0 0 49 48" fill="none" xmlns="http://www.w3.org/2000/svg">
<g id="Vector">
<path id="Vector_2" fill-rule="evenodd" clip-rule="evenodd" d="M34.9827 13.5649L41.6602 13.5976L42.0762 13.7989C42.3369 13.9241 42.6031 14.1092 42.8138 14.316C43.019 14.5173 43.202 14.7677 43.3241 15.0126C43.4239 15.2194 43.5348 15.5405 43.5625 15.7201C43.6014 15.9324 43.5958 16.1718 43.5625 16.4004C43.5348 16.5963 43.4294 16.912 43.3407 17.1079C43.2409 17.3038 43.0412 17.5923 42.8748 17.761C42.714 17.9243 42.4367 18.1365 42.2592 18.229C42.0762 18.327 41.8433 18.4304 41.7379 18.4631C41.6325 18.4957 40.5843 18.6917 39.4085 18.8985C38.2327 19.1107 36.763 19.3665 36.1363 19.4754C35.5096 19.5842 34.9771 19.6767 34.9494 19.6822C34.9217 19.6876 35.9477 20.6346 37.2233 21.7884C38.4989 22.9422 40.8061 25.0211 42.3479 26.4144C43.8898 27.8077 45.5481 29.2989 46.0306 29.7343C46.5131 30.1696 46.9956 30.6595 47.1121 30.8227C47.223 30.986 47.3616 31.2799 47.4171 31.4758C47.4892 31.7316 47.5114 31.9548 47.4948 32.2922C47.4781 32.6731 47.4393 32.8201 47.2951 33.1194C47.1953 33.3262 46.9845 33.6256 46.8237 33.7943C46.6684 33.9576 46.4244 34.1698 46.2857 34.2514C46.147 34.3385 45.8753 34.4637 45.6756 34.5236C45.476 34.5889 45.2818 34.6542 45.243 34.6651C45.1987 34.6814 45.2153 34.7413 45.3096 34.861C45.3872 34.959 45.4981 35.1603 45.5647 35.3127C45.6313 35.4596 45.7034 35.7427 45.7311 35.9386C45.7588 36.1563 45.7588 36.4175 45.7255 36.6189C45.6978 36.7985 45.6035 37.0924 45.5203 37.272C45.4316 37.4516 45.2541 37.7182 45.121 37.8597C44.9824 38.0067 44.7328 38.2135 44.5664 38.3223C44.4 38.4312 44.0728 38.5781 43.8454 38.6489C43.5515 38.736 43.2908 38.7741 42.958 38.7795C42.6696 38.7795 42.359 38.7469 42.1538 38.687C41.9708 38.638 41.7046 38.5346 41.2942 38.3332L41.2387 38.4693C41.2054 38.5455 41.1833 38.6326 41.1833 38.6598C41.1833 38.687 41.1167 38.8448 41.0335 38.9972C40.9559 39.155 40.7507 39.4272 40.5787 39.6013C40.4068 39.7809 40.1184 40.004 39.9354 40.102C39.7524 40.2054 39.4529 40.3251 39.2698 40.3687C39.0868 40.4177 38.7374 40.4558 38.4934 40.4558C38.2494 40.4558 37.9 40.4177 37.7169 40.3687C37.5339 40.3251 37.2344 40.2054 37.0569 40.1129C36.8739 40.0149 36.4801 39.721 36.1806 39.4489C35.859 39.1605 35.6149 38.9809 35.5872 39.0135C35.565 39.0407 35.5151 39.1659 35.4763 39.2856C35.4319 39.4054 35.321 39.6231 35.2212 39.7755C35.1269 39.9224 34.9106 40.1673 34.7442 40.3143C34.5778 40.4558 34.3338 40.6354 34.1951 40.7007C34.0565 40.7714 33.7958 40.8639 33.6128 40.9129C33.4242 40.9619 33.0526 41 32.7642 41C32.3594 41 32.1653 40.9728 31.8214 40.8585C31.5885 40.7823 31.2834 40.6408 31.1448 40.5483C31.0061 40.4558 30.69 40.1945 29.9856 39.5578L30.2463 39.4435C30.3905 39.3836 30.6234 39.253 31.0338 38.9863L31.4054 39.3183C31.6162 39.5033 31.9212 39.7156 32.0876 39.7918C32.3261 39.9061 32.4758 39.9333 32.7809 39.9333C33.0748 39.9333 33.2467 39.8952 33.4741 39.7972C33.6405 39.721 33.8679 39.5741 33.9733 39.4707C34.0787 39.3673 34.2173 39.1877 34.2783 39.068C34.356 38.9101 34.3893 38.7469 34.3893 38.4693C34.3837 38.1863 34.356 38.0339 34.2672 37.8706C34.2007 37.7509 33.9677 37.4788 33.7404 37.2665C33.5185 37.0597 33.036 36.6189 32.6755 36.2869C32.3095 35.9604 31.9656 35.6175 31.9101 35.5304C31.8547 35.4433 31.8103 35.3399 31.8103 35.3127C31.8103 35.2801 32.0932 35.242 33.1691 35.193L33.8624 35.8297C34.2451 36.178 35.2045 37.0488 35.9976 37.7618C36.7907 38.4693 37.5505 39.1169 37.6892 39.1986C37.911 39.3237 37.9942 39.3401 38.4657 39.3401C38.9093 39.3401 39.0314 39.3183 39.2421 39.2149C39.3808 39.1441 39.5638 39.019 39.647 38.9428C39.7357 38.8611 39.8688 38.6707 39.9465 38.5237C40.0463 38.3278 40.0851 38.1645 40.0907 37.9251C40.0907 37.6856 40.0518 37.5278 39.9576 37.3318C39.8577 37.1305 39.5693 36.8366 38.7984 36.1345C38.2327 35.6175 37.4341 34.8936 37.0237 34.5236C36.6133 34.1589 36.1141 33.7018 35.5706 33.1902L35.6593 32.7548C35.7092 32.5153 35.7536 32.216 35.7758 31.8622L36.7519 32.7439C37.2843 33.2283 38.4601 34.2841 39.353 35.095C40.2515 35.9059 41.1999 36.7604 41.4606 36.9944C41.7323 37.2448 42.0595 37.4842 42.237 37.5659C42.47 37.6693 42.6308 37.7019 42.9303 37.7019C43.2298 37.7019 43.3906 37.6693 43.6236 37.5659C43.7899 37.4897 44.0118 37.3427 44.1116 37.2393C44.217 37.1359 44.3501 36.9563 44.4167 36.8366C44.4998 36.6787 44.5331 36.5209 44.5387 36.2651C44.5387 35.9876 44.5054 35.8515 44.3945 35.6392C44.2891 35.4324 43.9341 35.0732 42.8693 34.1154C42.1039 33.4296 40.5843 32.0582 39.4861 31.0731C38.3936 30.088 37.4396 29.2281 37.24 29.054L37.3786 28.6186C37.4563 28.3791 37.5395 28.1015 37.606 27.8294L38.4657 28.6077C38.9371 29.0376 40.3125 30.2731 41.516 31.3615C42.8416 32.5534 43.8066 33.3752 43.9563 33.4514C44.156 33.5494 44.3002 33.5711 44.7051 33.5711C45.1155 33.5711 45.2486 33.5494 45.4371 33.446C45.5702 33.3807 45.7588 33.2555 45.8531 33.1738C45.9529 33.0868 46.0916 32.9072 46.1526 32.7766C46.2191 32.6459 46.2912 32.4391 46.3134 32.3194C46.3412 32.1724 46.319 31.9928 46.258 31.7752C46.1748 31.4813 46.1138 31.3996 45.6867 30.986C45.4205 30.7302 44.4666 29.8594 43.5681 29.0485C42.6696 28.2376 40.6453 26.4144 39.0757 24.9939C37.5006 23.5735 35.3709 21.6578 34.3449 20.7271C33.3188 19.7965 32.4814 19.0345 32.4869 19.0291C32.498 19.0236 32.7642 18.9692 33.0859 18.9093C33.4076 18.8495 34.5279 18.6481 35.5817 18.4685C36.6354 18.2835 38.3825 17.9733 39.464 17.7828C40.9891 17.5107 41.4827 17.4018 41.6547 17.3038C41.7767 17.2331 41.9597 17.0807 42.0595 16.9664C42.1594 16.8521 42.2814 16.6181 42.3313 16.4548C42.3812 16.2752 42.4034 16.0575 42.3868 15.9106C42.3757 15.7745 42.3202 15.584 42.2703 15.4861C42.2204 15.3936 42.0984 15.2248 41.9985 15.116C41.9043 15.0072 41.7323 14.8657 41.6269 14.8003C41.4384 14.6861 41.3829 14.6861 34.9771 14.6316L34.8052 14.4684C34.6721 14.3377 34.6333 14.2561 34.6333 14.0765C34.6333 13.8915 34.661 13.8262 34.8108 13.7119L34.9827 13.5649ZM32.498 6C32.681 6 32.8419 6.0381 32.9583 6.10885C33.0582 6.16871 33.1857 6.29933 33.2467 6.39729C33.3078 6.49526 33.3577 6.6422 33.3577 6.72384C33.3577 6.80547 33.3244 6.95242 33.2745 7.05038C33.2301 7.14834 32.9861 7.48577 32.7365 7.80687C32.4814 8.12253 31.9434 8.81916 31.5274 9.34707C31.117 9.88042 30.7177 10.3594 30.6401 10.4138C30.568 10.4682 30.4293 10.5281 30.335 10.5498C30.2463 10.5662 30.0744 10.5716 29.9634 10.5498C29.8414 10.5335 29.675 10.4464 29.5586 10.343C29.4476 10.2451 29.3367 10.0818 29.309 9.97294C29.2813 9.86954 29.2702 9.72259 29.2868 9.6464C29.3034 9.57021 29.8858 8.77562 30.5791 7.87762C31.2779 6.97419 31.9212 6.19048 32.0266 6.12517C32.1597 6.0381 32.2984 6 32.498 6ZM27.8282 6.05987C27.9391 6.05442 28.1332 6.10341 28.2552 6.16327C28.4216 6.24491 28.5104 6.33743 28.5991 6.53335C28.71 6.77282 28.71 6.80547 28.6379 7.00684C28.5935 7.12657 28.0001 7.94838 27.3124 8.83004C26.6247 9.71171 25.9924 10.4736 25.8981 10.5281C25.7983 10.5879 25.6264 10.626 25.4544 10.626C25.277 10.626 25.1161 10.5879 24.9997 10.5172C24.8998 10.4573 24.7667 10.3321 24.7057 10.2342C24.6447 10.1362 24.5948 9.97839 24.5948 9.88042C24.5948 9.78246 24.6225 9.6464 24.6613 9.58109C24.6946 9.51034 25.1993 8.84637 25.7817 8.09532C26.3585 7.34971 26.9242 6.61499 27.0406 6.46805C27.1571 6.31566 27.3235 6.17416 27.4289 6.13062C27.5342 6.09252 27.7117 6.05987 27.8282 6.05987ZM34.1619 9.80967C34.3449 9.80967 34.5057 9.84777 34.6222 9.91852C34.722 9.97839 34.8496 10.109 34.9106 10.207C34.9716 10.3049 35.0215 10.4519 35.0215 10.5335C35.0215 10.6151 34.9993 10.7349 34.9771 10.8056C34.9494 10.8709 34.3615 11.6546 33.6738 12.5472C32.9805 13.4343 32.3483 14.2071 32.2651 14.2561C32.1819 14.3105 31.9989 14.3595 31.8602 14.3758C31.6716 14.3922 31.5552 14.3704 31.3722 14.267C31.2169 14.1799 31.0948 14.0602 31.0227 13.9187C30.9506 13.7663 30.9229 13.6411 30.9451 13.5105C30.9673 13.4071 31.0838 13.184 31.2058 13.0207C31.3333 12.8574 31.6716 12.4166 31.9656 12.0411C32.254 11.6655 32.7254 11.0614 33.0083 10.6913C33.2967 10.3213 33.6072 9.97294 33.7071 9.91308C33.818 9.84777 33.9899 9.80967 34.1619 9.80967ZM27.9446 12.0955C28.0389 12.1172 28.1665 12.1553 28.2275 12.188C28.2885 12.2207 28.3994 12.3132 28.466 12.4002C28.5381 12.4873 28.6102 12.6343 28.6268 12.7214C28.649 12.8302 28.6213 12.9608 28.5547 13.1023C28.4993 13.222 28.0112 13.8806 27.4788 14.5609C26.6746 15.5895 26.4749 15.8181 26.303 15.8834C26.1865 15.9269 26.0257 15.9596 25.9425 15.9596C25.8593 15.9596 25.6874 15.916 25.5654 15.8616C25.4433 15.8072 25.2991 15.7038 25.2492 15.633C25.1938 15.5568 25.1328 15.4262 25.1161 15.3337C25.0995 15.2466 25.0995 15.1051 25.1161 15.0235C25.1328 14.9418 25.4212 14.5228 25.7484 14.0983C26.0811 13.6683 26.5027 13.1241 26.6912 12.8846C26.8742 12.6452 27.1016 12.3839 27.1848 12.3023C27.2736 12.2207 27.4399 12.1336 27.5564 12.1064C27.6784 12.0846 27.8504 12.0791 27.9446 12.0955ZM16.9966 12.1662C17.4514 12.1771 17.5734 12.2043 17.884 12.3513C18.0836 12.4438 18.3443 12.6016 18.4663 12.705C18.5883 12.8084 18.7769 13.0533 18.8823 13.2438C19.0708 13.5758 19.0764 13.6193 19.0764 14.1364C19.0764 14.5663 19.0542 14.7187 18.971 14.8711C18.9155 14.9745 18.1003 16.0902 17.163 17.3474C16.2257 18.6046 15.2218 19.9543 14.4065 21.0482L32.6089 21.1026L32.9417 21.2278C33.1247 21.2931 33.3743 21.4183 33.4908 21.4999C33.6072 21.5816 33.7958 21.7448 33.9012 21.8646C34.0121 21.9843 34.1619 22.2183 34.2395 22.3816C34.3504 22.6211 34.3782 22.7734 34.3782 23.1163C34.3837 23.4701 34.356 23.6116 34.245 23.851C34.1674 24.0143 33.9899 24.2701 33.8568 24.417C33.7182 24.564 33.4963 24.7436 33.3577 24.8198C33.2246 24.9014 32.9972 24.9994 32.8585 25.0484C32.6422 25.1191 31.8158 25.1354 26.5969 25.1572C20.951 25.1844 20.5849 25.1899 20.5239 25.2824C20.4796 25.3477 20.4796 25.4021 20.5239 25.4729C20.5849 25.5599 21.0009 25.5708 27.5675 25.598C33.1691 25.6198 34.5945 25.6361 34.7719 25.696C34.8939 25.7341 35.1158 25.8266 35.26 25.8974C35.4042 25.9681 35.6371 26.1477 35.7813 26.2892C35.92 26.4307 36.103 26.6702 36.1806 26.8171C36.3082 27.0566 36.3248 27.1546 36.3248 27.6335C36.3248 28.1233 36.3082 28.2104 36.1751 28.4662C36.0919 28.624 35.9089 28.858 35.7702 28.9941C35.6371 29.1302 35.3543 29.3206 35.1491 29.4132C34.8218 29.5655 34.6943 29.5928 34.1341 29.6254C33.7847 29.6417 30.8286 29.6581 27.5675 29.6526C22.9143 29.6472 21.6221 29.6635 21.5389 29.7179C21.4834 29.756 21.4335 29.8322 21.4335 29.8921C21.4335 29.952 21.489 30.039 21.5611 30.0771C21.6664 30.1479 22.3819 30.1533 26.3973 30.1316C28.9929 30.1152 31.5274 30.1207 32.0266 30.1479C32.8918 30.1914 32.9639 30.2077 33.3022 30.3656C33.5019 30.4581 33.7792 30.6431 33.9123 30.7738C34.0509 30.9044 34.234 31.1438 34.3172 31.3071C34.417 31.503 34.4835 31.7316 34.5057 31.9602C34.5224 32.1561 34.5113 32.4337 34.478 32.5861C34.4392 32.7385 34.3116 33.0106 34.1896 33.2011C34.0288 33.4514 33.879 33.5984 33.6239 33.7616C33.4298 33.8814 33.1525 34.0174 32.9972 34.061C32.7642 34.1263 31.7437 34.1426 26.2531 34.1535C20.596 34.1644 19.7752 34.1752 19.692 34.246C19.6421 34.2895 19.5977 34.3657 19.5977 34.4093C19.5977 34.4528 19.6421 34.529 19.692 34.5725C19.7752 34.6433 20.4241 34.6596 29.3367 34.7086L29.6972 34.8773C29.8969 34.9644 30.1742 35.144 30.3073 35.2637C30.4459 35.3835 30.6234 35.6066 30.7066 35.7481C30.7898 35.895 30.8785 36.1617 30.9118 36.3413C30.9396 36.5427 30.9451 36.7822 30.9118 36.9672C30.8841 37.1305 30.8065 37.3754 30.7399 37.5114C30.6733 37.6475 30.5402 37.838 30.4515 37.9414C30.3572 38.0448 30.1797 38.1917 30.0577 38.2788C29.9357 38.3604 29.6806 38.4802 29.1426 38.6543L10.4244 38.6271L9.73116 38.4747C9.35402 38.3877 8.7384 38.2244 8.37235 38.1101C8.00631 37.9904 7.38514 37.74 6.98582 37.5441C6.59205 37.3536 5.97088 36.9944 5.60484 36.7441C5.24434 36.4937 4.723 36.0801 4.44569 35.8243C4.17393 35.5685 3.79125 35.1766 3.60268 34.9535C3.41411 34.7304 3.12017 34.3385 2.95379 34.0827C2.78186 33.8269 2.55446 33.446 2.44354 33.2283C2.33817 33.0106 2.17178 32.6568 2.08304 32.4391C1.99431 32.2214 1.8612 31.8241 1.78355 31.552C1.71145 31.2853 1.61162 30.8935 1.5728 30.6812C1.52288 30.4309 1.49515 29.9084 1.5007 29.1302C1.5007 28.0471 1.51179 27.9111 1.66154 27.307C1.74473 26.9478 1.89448 26.4471 1.98876 26.1913C2.08304 25.9355 2.27161 25.511 2.41581 25.2388C2.55446 24.9722 2.78186 24.5803 2.92051 24.3681C3.05916 24.1613 3.31983 23.8021 3.50285 23.5789C3.69142 23.3558 4.11293 22.9149 4.44569 22.5993C4.77846 22.2836 6.33138 20.8632 7.90093 19.4373C9.47603 18.0168 11.5836 16.1065 12.5874 15.1976C13.5968 14.2888 14.6672 13.3255 14.9667 13.0533C15.2662 12.7812 15.5934 12.5145 15.6877 12.4547C15.782 12.4002 15.9983 12.3077 16.1647 12.2533C16.3976 12.1771 16.6028 12.1553 16.9966 12.1662ZM23.0862 12.1553C23.2138 12.1499 23.3913 12.188 23.4745 12.2261C23.5577 12.2696 23.6908 12.3676 23.7629 12.4492C23.8793 12.569 23.9015 12.6506 23.9015 13.222L23.2138 14.1146C22.8311 14.6044 22.3819 15.1868 22.2155 15.399C22.0214 15.6494 21.8217 15.8344 21.6831 15.9051C21.5611 15.965 21.3836 16.014 21.2837 16.014C21.1839 16.014 21.0231 15.9813 20.9232 15.9432C20.8234 15.9051 20.6681 15.7854 20.5849 15.682C20.4463 15.5242 20.4241 15.4643 20.4463 15.2248C20.4629 14.9854 20.5128 14.8874 20.7957 14.5173C20.9787 14.2833 21.439 13.6955 21.8106 13.2166C22.221 12.6941 22.5649 12.3023 22.6703 12.2479C22.7701 12.1989 22.9531 12.1553 23.0862 12.1553ZM29.4476 15.9051C29.6307 15.9051 29.7915 15.9432 29.908 16.014C30.0134 16.0793 30.1298 16.2208 30.1964 16.3678C30.274 16.5365 30.2962 16.6671 30.274 16.7923C30.2518 16.9011 29.8581 17.4562 29.2313 18.2671C28.405 19.3393 28.1887 19.5896 28.0057 19.6713C27.8836 19.7257 27.7006 19.7692 27.5897 19.7692C27.4843 19.7692 27.3124 19.7257 27.2015 19.6767C27.0961 19.6223 26.9519 19.4917 26.8853 19.3883C26.8077 19.2794 26.7578 19.1162 26.7578 19.0073C26.7578 18.9039 26.8077 18.7406 26.8687 18.6427C26.9297 18.5447 27.3457 17.995 27.7949 17.4181C28.2386 16.8412 28.6546 16.3079 28.7211 16.2371C28.7877 16.1664 28.9152 16.063 29.004 16.0086C29.1093 15.9432 29.2757 15.9051 29.4476 15.9051ZM23.6797 17.38C23.8017 17.38 23.9903 17.429 24.0956 17.4889C24.2066 17.5487 24.3397 17.6739 24.3951 17.7719C24.4561 17.8699 24.5005 18.0386 24.5005 18.1637C24.495 18.3216 24.4395 18.4631 24.2842 18.6808C24.1622 18.844 23.957 19.0944 23.8183 19.2359C23.6187 19.4373 23.5188 19.4971 23.3192 19.5243C23.1251 19.557 23.0141 19.5407 22.8089 19.4481C22.6481 19.3774 22.5039 19.2685 22.4318 19.1597C22.3708 19.0563 22.3209 18.8876 22.3209 18.7515C22.3209 18.561 22.3652 18.4576 22.5815 18.1801C22.7257 17.9896 22.8921 17.7664 22.9587 17.6794C23.0197 17.5868 23.1583 17.4834 23.2693 17.4453C23.3746 17.4127 23.5577 17.38 23.6797 17.38Z" fill="#0033D9"/>
</g>
</svg>
