<svg width="49" height="48" viewBox="0 0 49 48" fill="none" xmlns="http://www.w3.org/2000/svg">
<g id="Subtract">
<g id="Subtract_2">
<path d="M8.02269 2.07486C7.91041 2.11478 7.7624 2.19962 7.69605 2.2645C7.6297 2.32439 7.53273 2.46412 7.48169 2.57392C7.40513 2.73362 7.38472 2.89831 7.38472 3.43729V4.09605C7.10912 4.19586 7.07849 4.1759 6.64467 3.7517C6.38949 3.50716 6.10878 3.2726 6.01691 3.22768C5.93015 3.18277 5.74131 3.14784 5.5984 3.14784C5.44529 3.14784 5.26155 3.18776 5.13906 3.24765C5.02678 3.30254 4.87367 3.4323 4.79201 3.53211C4.69503 3.66187 4.6491 3.79162 4.63379 3.96629C4.62358 4.10603 4.644 4.31064 4.68483 4.42044C4.73076 4.56516 4.88898 4.75481 5.23603 5.07919C5.70048 5.51837 5.72089 5.54831 5.67496 5.67806L5.62392 5.8178C4.31225 5.86272 4.1081 5.88767 3.9754 5.95754C3.88864 6.00245 3.75594 6.11724 3.68959 6.20707C3.62324 6.29191 3.53648 6.4566 3.50075 6.56639C3.44971 6.72609 3.44971 6.81093 3.50075 6.99059C3.53648 7.11535 3.62324 7.29002 3.68959 7.37986C3.75594 7.46469 3.88864 7.57948 3.9754 7.62439C4.1081 7.69426 4.31225 7.71921 4.88387 7.73918L5.62392 7.76413C5.72089 8.03362 5.70048 8.06357 5.22583 8.52769C4.89918 8.8421 4.70524 9.07166 4.66952 9.18645C4.63889 9.28127 4.62358 9.4759 4.63379 9.61564C4.6491 9.79031 4.69503 9.92006 4.79201 10.0498C4.87367 10.1496 5.02678 10.2794 5.13906 10.3343C5.26155 10.3942 5.44529 10.4341 5.5984 10.4341C5.7362 10.4341 5.93015 10.3992 6.01691 10.3542C6.10878 10.3093 6.38949 10.0748 6.64467 9.83023C7.07849 9.40603 7.10912 9.38607 7.24181 9.43598L7.38472 9.48588C7.38472 10.6786 7.40513 10.8483 7.48169 11.008C7.52763 11.1178 7.64501 11.2675 7.73178 11.3474C7.82364 11.4222 7.98186 11.5021 8.08394 11.532C8.19112 11.557 8.31361 11.5819 8.35444 11.5819C8.39527 11.5819 8.51776 11.557 8.61983 11.532C8.72701 11.5021 8.89544 11.4073 9.00261 11.3224C9.10469 11.2326 9.21697 11.0829 9.2578 10.998C9.30374 10.8882 9.32415 10.6138 9.32415 10.1746C9.31905 9.51583 9.32415 9.51084 9.45175 9.45095C9.53341 9.41102 9.61507 9.40104 9.6661 9.43099C9.71714 9.45594 9.91619 9.64059 10.105 9.84022C10.299 10.0448 10.5388 10.2594 10.6409 10.3193C10.7787 10.4042 10.9114 10.4341 11.1207 10.4341C11.284 10.4341 11.4779 10.4042 11.5545 10.3642C11.6362 10.3293 11.774 10.2145 11.8607 10.1147C11.9526 10.0149 12.0547 9.84022 12.0853 9.72543C12.1261 9.56573 12.121 9.44596 12.0751 9.26131C12.0189 9.04671 11.9424 8.94191 11.5086 8.51272C11.0186 8.02364 11.0084 8.00867 11.0696 7.87392L11.136 7.73419C12.2741 7.73918 12.5395 7.71921 12.6518 7.66931C12.7437 7.63438 12.8917 7.52458 12.9784 7.43475C13.0652 7.33993 13.1622 7.18522 13.1979 7.0904C13.2285 6.99558 13.2541 6.85085 13.2541 6.76601C13.2541 6.68616 13.2081 6.52646 13.1571 6.41667C13.106 6.30688 12.9989 6.15716 12.9172 6.0823C12.8355 6.00744 12.708 5.9226 12.6263 5.89765C12.5497 5.86771 12.1772 5.84275 11.7995 5.84275H11.1105C11.0084 5.57326 11.0339 5.54332 11.5086 5.06921C11.8658 4.70989 12.024 4.51526 12.07 4.37053C12.1006 4.26074 12.1312 4.13597 12.1312 4.09605C12.1312 4.05612 12.1057 3.93635 12.0802 3.83654C12.0496 3.73173 11.9526 3.56704 11.8607 3.46723C11.774 3.36742 11.6362 3.25264 11.5545 3.2177C11.4779 3.17778 11.284 3.14784 11.1207 3.14784C10.9625 3.15283 10.7736 3.18277 10.7022 3.22269C10.6307 3.25763 10.3653 3.49718 10.1152 3.74671C9.67631 4.18588 9.65079 4.20584 9.50278 4.16092L9.34967 4.11102C9.30884 2.95819 9.27311 2.57891 9.24249 2.52401C9.21187 2.46912 9.09959 2.34934 8.99751 2.2645C8.89544 2.17467 8.72701 2.07985 8.61983 2.04991C8.51776 2.02495 8.38506 2 8.32892 2C8.27278 2.00499 8.13497 2.03493 8.02269 2.07486Z" fill="#0033D9"/>
<path fill-rule="evenodd" clip-rule="evenodd" d="M31.5 3.00311C31.4184 3.02806 31.2704 3.10791 31.1785 3.17279C31.0917 3.24266 30.9794 3.37241 30.9284 3.46224C30.8825 3.54708 30.8416 3.74671 30.8416 3.89642C30.8365 4.09106 30.8672 4.22081 30.9437 4.34558C30.9999 4.4404 31.4745 5.00933 32.0002 5.6082C32.5259 6.20707 32.9699 6.75104 32.9852 6.83089C33.0056 6.90575 32.9903 7.04549 32.9546 7.14031C32.9189 7.23513 32.7811 7.44972 32.6484 7.61441C32.5157 7.7791 32.3473 8.02863 32.2809 8.16338C32.2094 8.30311 32.1227 8.53268 32.0921 8.67741C32.0614 8.81714 32.0359 9.07166 32.0359 9.23635V9.53579C31.7399 9.5807 31.4694 9.64059 31.2448 9.69549C31.0203 9.75038 30.663 9.86018 30.4538 9.94003C30.2445 10.0249 29.923 10.1696 29.7392 10.2694C29.5555 10.3692 29.2544 10.5589 29.0604 10.6886C28.8716 10.8234 28.7134 10.9282 28.7032 10.9232L28.7031 10.9231L28.7031 10.923C28.6973 10.9117 28.6313 10.7826 28.5603 10.6337C28.4837 10.484 28.3153 10.2145 28.1775 10.0398C28.0397 9.86018 27.7896 9.61065 27.6212 9.4759C27.4527 9.34615 27.1567 9.15151 26.9628 9.0517C26.7688 8.9469 26.5239 8.76225 26.4116 8.63748C26.2891 8.49775 26.1819 8.3081 26.1309 8.13842C26.0696 7.93381 26.0594 7.74417 26.0798 7.41479C26.0951 7.17025 26.1666 6.70613 26.2431 6.39172C26.3146 6.07731 26.3707 5.71799 26.3707 5.59322C26.3707 5.45349 26.3248 5.29379 26.2534 5.16902C26.1921 5.06422 26.0492 4.90951 25.9369 4.82966C25.7685 4.71488 25.6766 4.68993 25.4265 4.68494C25.2428 4.67995 25.0591 4.70989 24.9672 4.75481C24.8855 4.79972 24.7426 4.90951 24.6559 4.99934C24.5742 5.09417 24.4874 5.21394 24.467 5.26884C24.4517 5.32373 24.3547 5.77289 24.2527 6.26695C24.1251 6.90076 24.074 7.30001 24.074 7.61441C24.074 7.87891 24.1149 8.20829 24.1659 8.41291C24.2169 8.60754 24.3292 8.90697 24.416 9.08664C24.4977 9.2663 24.6763 9.55076 24.809 9.72543C24.9366 9.89511 25.1816 10.1397 25.35 10.2744C25.5184 10.4042 25.8195 10.6038 26.0237 10.7136C26.2534 10.8383 26.4779 11.013 26.6055 11.1627C26.7484 11.3374 26.8607 11.547 26.973 11.8814C27.0649 12.1409 27.1363 12.3904 27.1363 12.4303C27.1312 12.4703 26.5443 13.0841 25.8195 13.7928L24.5079 15.0803C24.2374 14.6312 23.9873 14.3317 23.7729 14.1271C23.5535 13.9125 23.2523 13.683 23.0788 13.5931C22.9104 13.5033 22.5327 13.3536 22.2367 13.2488C21.9407 13.149 21.563 12.9993 21.3946 12.9144C21.2261 12.8346 20.9658 12.6449 20.8178 12.4952C20.6341 12.3155 20.4861 12.096 20.3432 11.7965C20.2496 11.5926 20.1417 11.3714 20.0819 11.2485C20.0699 11.224 20.0599 11.2034 20.0523 11.1877C20.0063 11.0929 19.8736 10.9581 19.7614 10.8882C19.644 10.8184 19.4551 10.7535 19.3275 10.7385C19.1999 10.7285 19.0162 10.7435 18.9192 10.7735C18.8223 10.8034 18.6743 10.8832 18.5926 10.9431C18.5109 11.008 18.3987 11.1477 18.3476 11.2575C18.3017 11.3673 18.2557 11.547 18.2557 11.6568C18.2557 11.7666 18.3017 11.9912 18.3578 12.1558C18.414 12.3205 18.562 12.6599 18.6896 12.9044C18.8121 13.149 19.0417 13.5033 19.1999 13.693C19.3531 13.8776 19.6236 14.1321 19.8022 14.2569C19.9757 14.3817 20.2309 14.5364 20.3738 14.6012C20.5116 14.6611 20.9148 14.8059 21.267 14.9156C21.6446 15.0404 22.0325 15.2001 22.2112 15.3149C22.3796 15.4197 22.5837 15.5944 22.6654 15.7042C22.7522 15.809 22.8696 16.0236 22.9359 16.1733L23.0584 16.4478C20.2615 19.1926 19.4143 20.046 19.3735 20.1108L19.302 20.2306C18.8682 20.041 18.6487 19.8963 18.5365 19.7914C18.4191 19.6817 18.2557 19.4571 18.1639 19.2924C18.0771 19.1277 17.8934 18.8582 17.7556 18.6935C17.6229 18.5288 17.3728 18.2843 17.2095 18.1545C17.041 18.0198 16.745 17.8401 16.546 17.7453C16.3469 17.6555 16.0407 17.5407 15.857 17.4908C15.6375 17.4309 15.3466 17.401 14.9893 17.4059C14.5759 17.4059 14.2442 17.4459 13.5348 17.5856C12.7998 17.7303 12.5753 17.8002 12.417 17.905C12.3048 17.9849 12.167 18.1346 12.1108 18.2444C12.0394 18.3741 12.0036 18.5338 12.0087 18.6935C12.0087 18.8333 12.0547 19.0279 12.1108 19.1377C12.1618 19.2475 12.2996 19.4022 12.4119 19.477C12.5242 19.5569 12.708 19.6318 12.8202 19.6467C12.9529 19.6667 13.2847 19.6218 13.7797 19.522C14.2646 19.4221 14.678 19.3672 14.9485 19.3672C15.1884 19.3672 15.4742 19.3972 15.6018 19.4421C15.7294 19.482 15.9335 19.6018 16.0611 19.7066C16.1887 19.8164 16.3571 20.021 16.4388 20.1707C16.5205 20.3205 16.6583 20.54 16.745 20.6648C16.8318 20.7896 17.0155 20.9992 17.1584 21.1339C17.2962 21.2687 17.5412 21.4583 17.6943 21.5581C17.8474 21.6579 18.0516 21.7727 18.1435 21.8126C18.2353 21.8526 18.3119 21.9075 18.3119 21.9374C18.3068 21.9673 18.2711 22.0871 18.2302 22.2119C18.1843 22.3366 18.1179 22.5762 18.0771 22.7459C18.0363 22.9205 18.0006 23.1152 18.0006 23.185C18.0006 23.3048 17.9852 23.3098 17.7045 23.3098C17.5463 23.3098 17.2758 23.3447 17.1074 23.3897C16.939 23.4296 16.6991 23.5094 16.5715 23.5643C16.4439 23.6192 16.1836 23.7839 15.9846 23.9336C15.709 24.1432 15.5865 24.2031 15.4487 24.2081C15.3517 24.2081 15.1424 24.1482 14.9893 24.0784C14.8362 24.0085 14.2391 23.6741 13.6624 23.3348C13.0856 22.9904 12.5344 22.701 12.4375 22.681C12.3354 22.661 12.1618 22.676 12.0291 22.7159C11.8965 22.7559 11.7229 22.8607 11.6208 22.9605C11.5239 23.0553 11.4116 23.225 11.381 23.3348C11.3452 23.4446 11.3146 23.5893 11.3146 23.6592C11.3146 23.729 11.3759 23.9037 11.4524 24.0534C11.5953 24.3179 11.6106 24.3279 12.9478 25.1164C13.8563 25.6454 14.4075 25.9399 14.6321 26.0097C14.8617 26.0746 15.1067 26.1045 15.4232 26.1045C15.6732 26.1045 15.9846 26.0746 16.1122 26.0347C16.2398 25.9997 16.4643 25.9099 16.6072 25.8351C16.7552 25.7652 16.9645 25.6304 17.0666 25.5406C17.1737 25.4458 17.3167 25.336 17.3881 25.2911C17.4596 25.2412 17.6076 25.2062 17.7199 25.2012C17.8321 25.2012 17.9495 25.2312 17.9801 25.2661C18.0108 25.3011 18.0618 25.4757 18.0924 25.6554C18.1282 25.8351 18.2098 26.1594 18.2813 26.379C18.3578 26.5986 18.5416 27.0278 18.6896 27.3272C18.8427 27.6267 18.9601 27.8762 18.955 27.8812C18.9525 27.8836 18.9193 27.9038 18.8671 27.9356L18.8669 27.9357C18.8087 27.9711 18.7272 28.0207 18.6385 28.0758C18.4701 28.1806 18.1996 28.4002 18.0363 28.5699C17.8781 28.7396 17.6739 28.9991 17.5923 29.1488C17.5106 29.2985 17.3983 29.558 17.3371 29.7227C17.2809 29.8874 17.2095 30.2567 17.1789 30.5462C17.138 30.9654 17.1023 31.1201 16.99 31.3147C16.9135 31.4495 16.7808 31.6042 16.6991 31.6641C16.6174 31.719 16.1326 31.9835 15.6273 32.248C14.8873 32.6322 14.6831 32.762 14.5657 32.9217C14.4739 33.0465 14.4126 33.2062 14.3922 33.3659C14.3769 33.5305 14.3922 33.6852 14.4432 33.815C14.4892 33.9248 14.6066 34.0895 14.7035 34.1743C14.8056 34.2642 14.9842 34.364 15.1016 34.3939C15.2241 34.4239 15.4027 34.4338 15.4997 34.4139C15.5967 34.3939 16.0356 34.2093 16.4694 33.9947C16.9032 33.7851 17.4442 33.4906 17.6637 33.3409C17.8832 33.1912 18.1945 32.9317 18.3476 32.767C18.5058 32.6023 18.7049 32.3128 18.8018 32.1182C18.8937 31.9236 19.006 31.6142 19.0468 31.4195C19.0877 31.2249 19.1234 30.9255 19.1234 30.7458C19.1234 30.5362 19.1591 30.3515 19.2204 30.2218C19.2714 30.112 19.3939 29.9523 19.4858 29.8625C19.5827 29.7776 19.8124 29.6279 20.0063 29.5281C20.2973 29.3734 20.3636 29.3584 20.4453 29.4083C20.4621 29.4199 20.4968 29.4434 20.5431 29.4748L20.5444 29.4757C20.6382 29.5393 20.7788 29.6346 20.9148 29.7277C21.1241 29.8674 21.466 30.0671 21.6753 30.1719C21.8845 30.2767 22.201 30.4114 22.3796 30.4763C22.5531 30.5412 22.8747 30.641 23.0941 30.6909C23.3085 30.7458 23.5484 30.8007 23.63 30.8157C23.7372 30.8406 23.7729 30.8805 23.7984 31.0053C23.8137 31.0951 23.7984 31.2399 23.7678 31.3197C23.7321 31.3996 23.6045 31.5792 23.482 31.719C23.3595 31.8537 23.2013 32.0783 23.1298 32.218C23.0635 32.3528 22.9665 32.6123 22.9206 32.7919C22.8644 33.0165 22.844 33.2411 22.8593 33.5156C22.8747 33.7451 22.9308 34.0446 22.9971 34.2143C23.0584 34.3789 23.4565 35.0826 23.8852 35.7813C24.3088 36.48 24.7222 37.1038 24.8039 37.1637C24.8804 37.2286 25.0284 37.3034 25.1356 37.3334C25.2377 37.3583 25.3602 37.3833 25.401 37.3833C25.4419 37.3833 25.5643 37.3583 25.6715 37.3334C25.7736 37.3034 25.9318 37.2236 26.0186 37.1437C26.1104 37.0689 26.2278 36.9192 26.284 36.8094C26.3554 36.6646 26.3758 36.5449 26.3605 36.3602C26.3401 36.1456 26.2329 35.941 25.6205 34.9379C25.2275 34.2941 24.8753 33.7102 24.8396 33.6403C24.8039 33.5655 24.7886 33.4457 24.809 33.3409C24.8243 33.2411 24.957 33.0165 25.1152 32.8169C25.2683 32.6223 25.447 32.3528 25.5184 32.218C25.5899 32.0783 25.6715 31.8487 25.7021 31.704C25.7328 31.5642 25.7583 31.3197 25.7583 31.17C25.7583 30.9953 25.7787 30.8905 25.8246 30.8755C25.8553 30.8656 26.0441 30.8306 26.2431 30.7957C26.4422 30.7608 26.7229 30.6909 26.8709 30.641C27.0138 30.5861 27.1465 30.5512 27.1618 30.5562C27.172 30.5661 27.2486 30.6859 27.3251 30.8306C27.4017 30.9704 27.5752 31.2249 27.713 31.3896C27.8457 31.5593 28.0856 31.7938 28.2489 31.9186C28.4071 32.0384 28.6981 32.228 28.892 32.3278C29.0859 32.4326 29.3309 32.6173 29.4432 32.742C29.5657 32.8818 29.6729 33.0714 29.7239 33.2411C29.7852 33.4457 29.7954 33.6304 29.775 33.9647C29.7596 34.2143 29.6933 34.6285 29.632 34.888C29.5708 35.1475 29.5198 35.5318 29.5147 35.7364C29.5096 36.0308 29.53 36.1456 29.6116 36.2804C29.6678 36.3752 29.8056 36.4949 29.9179 36.5498C30.0301 36.6097 30.2241 36.6646 30.3517 36.6746C30.4793 36.6896 30.663 36.6746 30.76 36.6447C30.857 36.6147 31.0203 36.5149 31.1172 36.4201C31.2142 36.3253 31.3214 36.1756 31.3571 36.0807C31.3877 35.9859 31.4847 35.5517 31.5715 35.1126C31.6582 34.6734 31.745 34.1793 31.7603 34.0146C31.7756 33.8499 31.7654 33.5455 31.7348 33.3409C31.6991 33.1363 31.6174 32.8119 31.546 32.6173C31.4796 32.4226 31.3469 32.1432 31.255 31.9934C31.1683 31.8437 30.9182 31.5493 30.7089 31.3397C30.4691 31.1001 30.173 30.8755 29.9179 30.7258C29.6933 30.6011 29.4177 30.4114 29.3105 30.3066C29.2033 30.2068 29.0553 29.9972 28.9839 29.8475C28.8614 29.583 28.8614 29.573 28.9532 29.5281C29.0094 29.5031 29.1982 29.3434 29.382 29.1787C29.5606 29.0091 30.3772 28.2156 31.1938 27.4171C32.1635 26.4589 32.7096 25.9548 32.776 25.9548C32.8321 25.9598 33.0107 26.0297 33.1792 26.1195C33.3425 26.2093 33.5671 26.374 33.6742 26.4888C33.7865 26.6086 33.9294 26.8082 33.9958 26.938C34.0621 27.0727 34.2152 27.447 34.3326 27.7764C34.4551 28.1058 34.6082 28.4851 34.6797 28.6248C34.7511 28.7595 34.894 28.9941 35.0012 29.1338C35.1135 29.2786 35.3534 29.5231 35.5473 29.6728C35.7362 29.8275 36.0628 30.0371 36.272 30.1419C36.4813 30.2517 36.813 30.3965 37.0121 30.4663C37.2162 30.5412 37.4714 30.5961 37.6143 30.5961C37.747 30.5961 37.9308 30.5611 38.0226 30.5162C38.1094 30.4713 38.2268 30.3965 38.2829 30.3515C38.334 30.3066 38.4207 30.1819 38.4769 30.0721C38.5534 29.9223 38.5738 29.8026 38.5636 29.593C38.5483 29.4033 38.5024 29.2586 38.4156 29.1338C38.334 29.0091 38.1911 28.9043 38.0073 28.8194C37.8542 28.7496 37.5684 28.6148 37.3694 28.52C37.1703 28.4302 36.8998 28.2455 36.7671 28.1158C36.6293 27.981 36.466 27.7864 36.3996 27.6766C36.3333 27.5668 36.1751 27.1725 36.0424 26.8032C35.9148 26.4339 35.731 25.9948 35.6443 25.8301C35.5524 25.6654 35.3228 25.3709 35.1237 25.1763C34.9247 24.9817 34.6439 24.7471 34.4959 24.6523C34.3479 24.5575 34.2305 24.4726 34.2305 24.4576C34.2305 24.4427 34.8226 23.8538 35.5422 23.1451L36.859 21.8576C37.5735 22.1021 37.8491 22.2069 37.9308 22.2518C38.0124 22.2917 38.1553 22.3766 38.237 22.4365C38.3187 22.5013 38.4616 22.681 38.5534 22.8407C38.6402 23.0054 38.8239 23.2799 38.9617 23.4545C39.0944 23.6292 39.3241 23.8688 39.4619 23.9835C39.6048 24.0933 39.809 24.2431 39.9212 24.3129C40.0335 24.3828 40.2734 24.4976 40.4571 24.5724C40.6409 24.6423 40.9063 24.7271 41.0441 24.7621C41.187 24.792 41.5187 24.817 41.7841 24.817C42.0495 24.817 42.5089 24.782 42.8049 24.7371C43.1009 24.6922 43.55 24.6074 43.8001 24.5425C44.0757 24.4776 44.336 24.3778 44.4381 24.3029C44.5351 24.2331 44.6626 24.0883 44.7188 23.9786C44.78 23.8638 44.8209 23.6841 44.8209 23.5344C44.8209 23.3747 44.78 23.21 44.7137 23.0852C44.6575 22.9754 44.5197 22.8207 44.4075 22.7459C44.2901 22.661 44.1114 22.5912 43.9787 22.5762C43.8256 22.5612 43.5398 22.5962 43.1111 22.691C42.616 22.8008 42.3404 22.8307 41.8862 22.8357C41.3503 22.8357 41.2788 22.8257 41.0441 22.706C40.9063 22.6361 40.7123 22.4864 40.6256 22.3816C40.5337 22.2768 40.3959 22.0672 40.3193 21.9224C40.2377 21.7727 40.059 21.5132 39.9161 21.3485C39.7783 21.1788 39.5129 20.9293 39.3292 20.7946C39.1506 20.6598 38.875 20.4951 38.7219 20.4203C38.5687 20.3504 38.436 20.2905 38.4258 20.2905C38.4156 20.2905 38.533 20.1208 38.681 19.9162C38.829 19.7116 39.0332 19.3822 39.1353 19.1926C39.2373 18.9979 39.4058 18.6286 39.5027 18.3691C39.5997 18.1096 39.7273 17.6904 39.7783 17.4459L39.8753 16.9967C40.1101 17.0217 40.3346 17.0017 40.5337 16.9718C40.7327 16.9418 41.0032 16.867 41.1461 16.8071C41.284 16.7472 41.5851 16.5675 41.8096 16.4078C42.0342 16.2481 42.2894 16.1084 42.3711 16.0934C42.4578 16.0735 42.5854 16.0934 42.662 16.1284C42.7385 16.1683 43.0907 16.4577 43.4479 16.7721L43.4795 16.7995L43.4838 16.8032C43.8426 17.1146 44.3188 17.5277 44.5657 17.7353C44.8158 17.9549 45.0965 18.1645 45.1781 18.2044C45.2751 18.2543 45.4231 18.2743 45.5915 18.2643C45.7804 18.2494 45.9182 18.2044 46.0764 18.0946C46.1938 18.0148 46.3367 17.8551 46.3979 17.7453C46.4592 17.6205 46.5 17.4509 46.5 17.2962C46.5 17.1365 46.4643 16.9817 46.3979 16.872C46.3418 16.7771 45.7242 16.2182 45.0199 15.6243C43.9022 14.6861 43.698 14.5364 43.3867 14.4166C43.1877 14.3417 42.8712 14.2719 42.6518 14.2519C42.3915 14.2269 42.1567 14.2419 41.9117 14.2918C41.7127 14.3317 41.4166 14.4316 41.2482 14.5164C41.0798 14.5962 40.8399 14.7559 40.7123 14.8607C40.5847 14.9705 40.4316 15.0853 40.3704 15.1153C40.304 15.1502 40.1764 15.1752 40.0897 15.1752C39.9978 15.1752 39.8957 15.1552 39.8702 15.1352C39.8396 15.1153 39.7834 14.9456 39.7426 14.751C39.7069 14.5563 39.615 14.222 39.5334 14.0024C39.4568 13.7828 39.3547 13.5133 39.3088 13.4035C39.2629 13.2937 39.0995 12.9993 38.9464 12.7547C38.7984 12.5102 38.5841 12.1908 38.4718 12.056L38.2676 11.8065C38.9617 11.4572 39.2424 11.2975 39.3394 11.2226C39.4364 11.1477 39.5691 11.038 39.6405 10.9731C39.712 10.9082 39.8549 10.7585 39.957 10.6337C40.059 10.509 40.2122 10.2744 40.2938 10.1097C40.3806 9.94502 40.4878 9.67553 40.5286 9.51084C40.5745 9.34615 40.6256 9.04172 40.6409 8.83711C40.6562 8.63249 40.6919 8.39294 40.7174 8.3131C40.7378 8.22826 40.8297 8.06856 40.9165 7.94878C41.0492 7.76413 41.1921 7.67929 42.0291 7.27006C42.5905 6.99558 43.0448 6.74106 43.1366 6.64624C43.2183 6.5614 43.3152 6.41667 43.351 6.32684C43.3816 6.242 43.4122 6.09228 43.4122 6.00245C43.4173 5.91761 43.3816 5.75791 43.3357 5.65311C43.2948 5.5533 43.2081 5.41356 43.1468 5.34869C43.0856 5.28381 42.9427 5.18899 42.8304 5.13908C42.7181 5.08917 42.5344 5.04426 42.4221 5.04426C42.2741 5.04426 42.0138 5.13409 41.5034 5.36865C41.1104 5.54831 40.6052 5.80283 40.3806 5.93258C40.1458 6.06733 39.809 6.32684 39.5895 6.54144C39.3649 6.76102 39.1353 7.04049 39.0434 7.21517C38.9515 7.37986 38.8443 7.64935 38.8035 7.81404C38.7576 7.97873 38.7065 8.31809 38.6912 8.56262C38.6759 8.80716 38.6402 9.07666 38.6147 9.1615C38.5943 9.24134 38.4718 9.40603 38.3544 9.52581C38.2064 9.67054 37.9053 9.85519 37.4357 10.0897C37.0478 10.2794 36.7008 10.4341 36.6701 10.4341C36.6344 10.4391 36.466 10.3592 36.2976 10.2594C36.1291 10.1596 35.7617 9.99492 35.481 9.89012C35.2003 9.78532 34.7869 9.65556 34.5623 9.61065C34.4836 9.59315 34.4061 9.57627 34.3374 9.56129L34.3371 9.56123L34.3368 9.56118L34.3368 9.56117C34.2097 9.53348 34.1126 9.51232 34.0927 9.50585C34.0519 9.49087 34.0264 9.39605 34.0264 9.26131C34.0264 9.13654 34.0519 8.98682 34.0876 8.92195C34.1183 8.86206 34.2203 8.7323 34.3173 8.63748C34.4092 8.54266 34.5521 8.33805 34.6337 8.18833C34.7154 8.03861 34.8175 7.78908 34.8634 7.63937C34.9093 7.48466 34.9451 7.18522 34.9451 6.95066C34.9451 6.64125 34.9144 6.44661 34.8124 6.15217C34.7409 5.94257 34.6133 5.67806 34.5368 5.56827C34.4551 5.45848 33.9549 4.87458 33.419 4.27072C32.7913 3.56704 32.3728 3.13785 32.2503 3.07797C32.1482 3.02307 31.9696 2.97316 31.8573 2.96318C31.745 2.95819 31.5817 2.97316 31.5 3.00311ZM33.3884 13.5233C33.2761 13.5482 33.0669 13.6231 32.9291 13.688C32.7862 13.7578 32.5616 13.9225 32.4238 14.0573C32.2758 14.197 32.1074 14.4365 32.0155 14.6262C31.8777 14.9107 31.8624 15.0055 31.8624 15.3997C31.8624 15.804 31.8777 15.8838 32.0257 16.1833C32.1176 16.3779 32.2911 16.6224 32.434 16.7572C32.5667 16.8819 32.8219 17.0566 33.0056 17.1414C33.2965 17.2762 33.3884 17.2912 33.7967 17.2912C34.2101 17.2912 34.2918 17.2762 34.6031 17.1315C34.7919 17.0416 35.0471 16.872 35.1747 16.7472C35.3023 16.6224 35.4759 16.3729 35.5677 16.1833C35.7157 15.8838 35.731 15.804 35.731 15.3997C35.731 15.0005 35.7157 14.9107 35.5779 14.6262C35.4912 14.4465 35.3125 14.197 35.1849 14.0623C35.0522 13.9325 34.8022 13.7628 34.6286 13.678C34.399 13.5732 34.205 13.5233 33.9498 13.5083C33.7508 13.4933 33.5007 13.5033 33.3884 13.5233ZM27.4936 16.4428C27.3966 16.4777 27.2537 16.5875 27.1771 16.6923C27.1006 16.7921 27.0087 16.9668 26.9781 17.0816C26.9321 17.2413 26.9321 17.3511 26.9781 17.5207C27.0138 17.6455 27.1006 17.8202 27.1771 17.915C27.2537 18.0098 27.4068 18.1296 27.5191 18.1795C27.6314 18.2294 27.8151 18.2693 27.9274 18.2693C28.0397 18.2693 28.2234 18.2294 28.3357 18.1795C28.448 18.1296 28.6011 18.0098 28.6776 17.915C28.7542 17.8202 28.841 17.6455 28.8767 17.5207C28.9226 17.3511 28.9226 17.2413 28.8767 17.0816C28.8461 16.9668 28.744 16.7921 28.6572 16.6873C28.5653 16.5875 28.4122 16.4777 28.3255 16.4378C28.2336 16.4028 28.0499 16.3729 27.9172 16.3729C27.7794 16.3779 27.5905 16.4078 27.4936 16.4428ZM21.318 23.3897C21.3895 23.3098 21.5375 23.2 21.6497 23.1551C21.762 23.1052 21.9509 23.0603 22.0734 23.0603C22.1907 23.0603 22.3745 23.1002 22.4817 23.1551C22.5837 23.205 22.7266 23.3098 22.7981 23.3897C22.8695 23.4695 22.9614 23.6342 22.9971 23.759C23.0533 23.9486 23.0533 24.0235 22.9971 24.2331C22.9614 24.3678 22.8695 24.5475 22.7981 24.6273C22.7266 24.7072 22.5837 24.812 22.4817 24.8619C22.3745 24.9168 22.1907 24.9567 22.0734 24.9567C21.9509 24.9567 21.762 24.9118 21.6497 24.8619C21.5375 24.817 21.3895 24.7072 21.318 24.6273C21.2465 24.5475 21.1547 24.3678 21.119 24.2331C21.0628 24.0235 21.0628 23.9486 21.119 23.759C21.1547 23.6342 21.2465 23.4695 21.318 23.3897ZM27.5191 23.1551C27.4068 23.2 27.2588 23.3098 27.1873 23.3897C27.1159 23.4695 27.024 23.6342 26.9883 23.759C26.9321 23.9486 26.9321 24.0235 26.9883 24.2331C27.024 24.3678 27.1159 24.5475 27.1873 24.6273C27.2588 24.7072 27.4068 24.817 27.5191 24.8619C27.6314 24.9118 27.8151 24.9567 27.9274 24.9567C28.0397 24.9567 28.2234 24.9118 28.3357 24.8619C28.448 24.817 28.596 24.7072 28.6674 24.6273C28.7389 24.5475 28.8307 24.3678 28.8665 24.2331C28.9226 24.0235 28.9226 23.9486 28.8665 23.759C28.8307 23.6342 28.7389 23.4695 28.6674 23.3897C28.596 23.3098 28.448 23.2 28.3357 23.1551C28.2234 23.1052 28.0397 23.0603 27.9274 23.0603C27.8151 23.0603 27.6314 23.1052 27.5191 23.1551Z" fill="#0033D9"/>
<path d="M3.58241 17.5207C3.72532 17.4559 3.90905 17.386 3.99071 17.361C4.07748 17.3411 4.32756 17.3311 4.55213 17.3411C4.85835 17.356 5.03699 17.391 5.25645 17.4908C5.41977 17.5656 5.66475 17.7353 5.81786 17.8801C5.96077 18.0248 6.1343 18.2444 6.19554 18.3691C6.25679 18.4939 6.33334 18.7285 6.36397 18.8931C6.39969 19.0578 6.4048 19.3024 6.38949 19.4421C6.36907 19.5769 6.30272 19.8164 6.24658 19.9661C6.18023 20.1308 6.03733 20.3504 5.87911 20.5151C5.726 20.6698 5.49633 20.8445 5.33811 20.9193C5.185 20.9942 4.9247 21.079 4.75628 21.109C4.53171 21.1489 4.36839 21.1489 4.14383 21.109C3.9754 21.079 3.71001 20.9942 3.55689 20.9143C3.38847 20.8345 3.1639 20.6598 3.00569 20.4851C2.84747 20.3155 2.69436 20.0859 2.63822 19.9412C2.58718 19.8014 2.53104 19.5769 2.51062 19.4421C2.49021 19.3024 2.50041 19.0578 2.53104 18.8931C2.56676 18.7285 2.64332 18.4939 2.70456 18.3691C2.76581 18.2444 2.93423 18.0298 3.07204 17.895C3.21494 17.7553 3.44461 17.5856 3.58241 17.5207Z" fill="#0033D9"/>
<path d="M8.91585 34.6285C8.81888 34.6834 8.58411 34.898 8.39527 35.1175L8.05331 35.5118C7.4868 35.392 7.33368 35.392 7.07849 35.432L6.74675 35.4819C6.15471 34.893 5.90463 34.6933 5.81786 34.6584C5.726 34.6185 5.54736 34.5885 5.41977 34.5885C5.29217 34.5885 5.10334 34.6335 5.00126 34.6834C4.89408 34.7333 4.75118 34.8381 4.67972 34.9129C4.60827 34.9878 4.52661 35.1525 4.49088 35.2822C4.45005 35.4469 4.45005 35.5817 4.49088 35.7613C4.53682 35.9759 4.60317 36.0658 4.94512 36.4101L5.34321 36.8094C5.37384 37.6228 5.39935 37.9123 5.41977 37.9821C5.45039 38.0919 5.41467 38.1418 5.07782 38.4063C4.86346 38.581 4.66952 38.7856 4.61848 38.8954C4.56744 39.0002 4.52661 39.1949 4.52661 39.3396C4.52661 39.5292 4.56234 39.664 4.6491 39.8037C4.71545 39.9135 4.85835 40.0532 4.96553 40.1081C5.07782 40.168 5.23093 40.2329 5.31769 40.2529C5.40446 40.2678 5.56267 40.2628 5.67496 40.2329C5.79234 40.203 6.05774 40.0433 6.30272 39.8536C6.53239 39.674 6.73654 39.5292 6.75696 39.5292C6.78248 39.5292 6.90497 39.639 7.03256 39.7688L7.27244 40.0033C6.76206 40.4675 6.56812 40.692 6.51198 40.8018C6.46094 40.9116 6.415 41.1013 6.415 41.226C6.415 41.3608 6.46094 41.5404 6.53239 41.6702C6.59874 41.8049 6.72633 41.9447 6.84882 42.0195C6.96111 42.0894 7.15505 42.1543 7.28264 42.1693C7.41024 42.1792 7.60418 42.1593 7.71646 42.1193C7.84406 42.0794 8.05331 41.9297 8.28809 41.7051L8.65556 41.3508C9.01282 41.7001 9.12 41.8249 9.12 41.8499C9.1149 41.8748 8.96689 42.0794 8.78315 42.299C8.579 42.5386 8.43099 42.7781 8.39527 42.8979C8.36975 43.0077 8.35954 43.1823 8.37485 43.2822C8.39016 43.387 8.46161 43.5566 8.52796 43.6564C8.59942 43.7612 8.75253 43.901 8.87502 43.9659C9.02813 44.0507 9.17104 44.0856 9.34967 44.0856C9.48747 44.0856 9.67121 44.0507 9.75797 44.0108C9.84474 43.9659 10.0744 43.7612 10.2683 43.5516L10.6256 43.1624C11.3095 43.3021 11.483 43.3121 11.6617 43.2772L11.9016 43.2322C12.6977 43.9808 12.8355 44.0757 12.9836 44.1006C13.0907 44.1206 13.2847 44.1256 13.4123 44.1156C13.5705 44.1006 13.7032 44.0507 13.841 43.9459C13.9482 43.8661 14.0809 43.7064 14.1319 43.5966C14.1829 43.4868 14.2238 43.3021 14.2238 43.1823C14.2238 43.0676 14.1931 42.8979 14.1523 42.808C14.1166 42.7232 13.9175 42.4687 13.7083 42.2541L13.3306 41.8598C13.3561 41.1861 13.3357 40.9715 13.2847 40.8118L13.203 40.5773C13.7389 40.168 13.9584 39.9584 14.0451 39.8536C14.1574 39.7139 14.2034 39.5941 14.2187 39.4095C14.2289 39.2348 14.2085 39.0851 14.137 38.9304C14.0809 38.8006 13.9533 38.6409 13.841 38.5561C13.7032 38.4513 13.5705 38.4014 13.4123 38.3864C13.2847 38.3764 13.0958 38.3814 12.9989 38.3964C12.8866 38.4163 12.6569 38.5561 12.3609 38.7856L11.9016 39.14L11.4065 38.6559C11.8607 38.2317 12.0445 38.0221 12.1108 37.9173C12.1772 37.8175 12.2486 37.6478 12.2639 37.543C12.2792 37.4432 12.2639 37.2585 12.2333 37.1337C12.1925 36.999 12.0955 36.8393 11.9832 36.7295C11.8709 36.6197 11.7076 36.5249 11.5698 36.485C11.4422 36.45 11.2483 36.4401 11.136 36.46C11.0237 36.475 10.8655 36.5349 10.7787 36.5848C10.692 36.6347 10.4878 36.8143 10.3194 36.984L10.0132 37.2934L9.5181 36.8094C10.1152 36.0658 10.2581 35.8362 10.2939 35.6965C10.3296 35.5517 10.3296 35.422 10.2888 35.2723C10.2581 35.1575 10.1714 34.9878 10.0999 34.893C10.0234 34.7981 9.87025 34.6784 9.75797 34.6285C9.64569 34.5786 9.45175 34.5386 9.32415 34.5386C9.19656 34.5386 9.01282 34.5786 8.91585 34.6285Z" fill="#0033D9"/>
<path d="M40.7378 37.6079C40.8501 37.5579 41.0696 37.4881 41.2227 37.4531C41.3758 37.4182 41.5391 37.3883 41.58 37.3883C41.6208 37.3833 41.7943 37.4082 41.9628 37.4382C42.1312 37.4681 42.3608 37.538 42.4731 37.5929C42.5854 37.6478 42.7691 37.7676 42.8814 37.8574C42.9937 37.9422 43.157 38.1269 43.2489 38.2616C43.3357 38.3964 43.4479 38.6409 43.4939 38.8056C43.5551 39.0102 43.5755 39.2148 43.5602 39.4544C43.5449 39.6789 43.4939 39.9035 43.4122 40.0782C43.3408 40.2279 43.1826 40.4625 43.0601 40.5922C42.9325 40.727 42.7283 40.8917 42.6007 40.9665C42.4731 41.0364 42.2537 41.1212 42.1159 41.1612C41.973 41.1961 41.7586 41.226 41.631 41.226C41.5034 41.226 41.2737 41.1911 41.1206 41.1512C40.9675 41.1112 40.7481 41.0214 40.6358 40.9565C40.5235 40.8917 40.3244 40.722 40.1866 40.5822C40.0539 40.4425 39.8957 40.2229 39.8345 40.0882C39.7375 39.8935 39.7222 39.7638 39.7171 39.3047C39.7171 38.7707 39.7222 38.7457 39.8957 38.4363C39.9927 38.2616 40.1764 38.0221 40.304 37.9123C40.4316 37.7975 40.6307 37.6627 40.7378 37.6079Z" fill="#0033D9"/>
<path d="M29.5096 42.2241C29.3973 42.2441 29.1982 42.309 29.0604 42.3689C28.9277 42.4238 28.7032 42.5785 28.5603 42.7082C28.4173 42.843 28.2285 43.0825 28.1366 43.2472C27.9886 43.5317 27.9784 43.5766 27.9784 44.0956C27.9784 44.6146 27.9886 44.6596 28.1366 44.944C28.2336 45.1237 28.4122 45.3483 28.596 45.508C28.7695 45.6627 29.0043 45.8124 29.1523 45.8673C29.2901 45.9122 29.5198 45.9721 29.6627 45.992C29.8056 46.007 30.0557 46.002 30.2241 45.9671C30.3925 45.9371 30.6324 45.8623 30.76 45.8024C30.8876 45.7425 31.1121 45.5728 31.255 45.4281C31.4031 45.2884 31.5868 45.0388 31.6633 44.8791C31.7858 44.6296 31.8011 44.5348 31.8011 44.0956C31.8062 43.6465 31.7909 43.5666 31.6531 43.2971C31.5715 43.1324 31.3877 42.8829 31.2499 42.7482C31.107 42.6084 30.8876 42.4487 30.76 42.3888C30.6324 42.3289 30.4027 42.2541 30.2496 42.2241C30.0965 42.1992 29.9128 42.1742 29.8413 42.1792C29.7698 42.1842 29.6218 42.2042 29.5096 42.2241Z" fill="#0033D9"/>
</g>
</g>
</svg>
