<svg width="49" height="48" viewBox="0 0 49 48" fill="none" xmlns="http://www.w3.org/2000/svg">
<g id="Subtract">
<path id="Subtract_2" fill-rule="evenodd" clip-rule="evenodd" d="M9.12969 2.09606C8.93798 2.14868 8.65276 2.25871 8.49845 2.34003C8.32545 2.4357 8.0636 2.65096 7.82046 2.90449C7.6007 3.12932 7.24066 3.44025 7.02557 3.59332C6.80581 3.75118 6.40836 4.05255 6.13716 4.26303C5.86597 4.4735 5.36098 4.93751 5.01029 5.2915C4.56141 5.75072 4.28554 6.076 4.08448 6.3965C3.9255 6.64525 3.75249 6.97053 3.70106 7.11404C3.64963 7.25755 3.57949 7.48238 3.55143 7.61632C3.5187 7.75982 3.5 8.25732 3.5 8.86005C3.50468 9.67326 3.52805 10.032 3.62625 10.7496C3.69638 11.2375 3.80393 11.8928 3.86471 12.2086C3.93018 12.5243 4.05642 13.1031 4.14526 13.5001C4.2341 13.8924 4.42114 14.629 4.56609 15.1265C4.70636 15.624 4.95886 16.4325 5.12251 16.9204C5.29084 17.4083 5.53866 18.1067 5.68361 18.475C5.82388 18.8434 6.06235 19.427 6.2073 19.7666C6.35225 20.1062 6.66086 20.7664 6.88997 21.2256C7.11441 21.6848 7.48848 22.3832 7.71759 22.7803C7.94203 23.1725 8.30207 23.7657 8.51716 24.0958C8.73224 24.4258 9.03617 24.8659 9.19515 25.0764C9.34945 25.2869 9.67676 25.7078 9.9199 26.0092C10.1677 26.3105 10.6306 26.8272 10.9533 27.1572C11.2759 27.4873 11.7715 27.9513 12.0521 28.1857C12.3373 28.4249 12.7347 28.7358 12.9405 28.8841C13.3099 29.152 13.3145 29.1616 13.2958 29.3386C13.2865 29.4438 13.3145 29.7069 13.3613 29.9317C13.4034 30.1565 13.4969 30.477 13.567 30.6493C13.6372 30.8215 13.7868 31.0989 13.899 31.2711C14.0112 31.4433 14.1983 31.7016 14.3199 31.8451C14.4414 31.9887 14.6425 32.1896 14.7687 32.29L14.9978 32.467C15.054 33.5242 15.0914 34.0121 15.1147 34.2369C15.1428 34.4618 15.2176 34.8923 15.2831 35.1937C15.3485 35.495 15.4982 36.0356 15.6104 36.3895C15.7273 36.7435 15.9751 37.3558 16.1621 37.7529C16.3538 38.1451 16.6297 38.6618 16.7747 38.9009C16.9196 39.1401 17.1861 39.5228 17.3591 39.762C17.5321 40.0012 17.8454 40.3838 18.0558 40.623C18.2662 40.8622 18.631 41.2353 18.8694 41.4506C19.1032 41.6706 19.4679 41.9863 19.6737 42.1538C19.8794 42.3164 20.2768 42.6082 20.5621 42.7948C20.8473 42.9861 21.4318 43.321 21.8713 43.541C22.3108 43.761 22.8766 44.0194 23.1338 44.115C23.3909 44.2107 23.8539 44.3686 24.1625 44.4547C24.4711 44.5456 24.934 44.6651 25.1911 44.713C25.4483 44.7656 25.9907 44.8517 26.3975 44.9043C26.8838 44.9665 27.4028 45 27.9405 45C28.38 45 29.0206 44.9665 29.3526 44.9282C29.6846 44.8852 30.2036 44.8134 30.4982 44.7608C30.7928 44.7034 31.1949 44.6173 31.3866 44.5647C31.5783 44.5121 32.0319 44.3733 32.3919 44.249C32.7519 44.1294 33.2803 43.9237 33.5609 43.7945C33.8414 43.6654 34.309 43.4262 34.5895 43.2683C34.8701 43.1057 35.3143 42.8283 35.5715 42.6513C35.8286 42.4743 36.2167 42.1825 36.4365 42.0007C36.6563 41.8237 37.1005 41.4075 37.4231 41.0775C37.7457 40.7474 38.1525 40.2977 38.3255 40.0729C38.4985 39.8481 38.8025 39.4176 38.9988 39.1162C39.1952 38.8148 39.4945 38.2839 39.6675 37.9442C39.8358 37.6046 40.0696 37.0545 40.1865 36.7244C40.3081 36.3943 40.4577 35.9112 40.5185 35.6481C40.5839 35.385 40.6588 35.0502 40.6868 34.9066L40.7382 34.6435C41.1918 34.5096 41.5986 34.3326 41.9306 34.1652C42.2672 33.9978 42.7161 33.7251 42.9359 33.5529C43.1556 33.3855 43.511 33.0506 43.7308 32.8162C43.9505 32.5818 44.2498 32.2039 44.3947 31.9839C44.5397 31.7638 44.7548 31.3764 44.8717 31.1276C44.9839 30.8789 45.1242 30.5344 45.1756 30.3622C45.2317 30.19 45.3206 29.836 45.372 29.573C45.4234 29.3099 45.4795 28.8698 45.4936 28.5923C45.5076 28.3149 45.4982 27.8748 45.4702 27.6117C45.4421 27.3486 45.3533 26.875 45.2738 26.5593C45.185 26.1957 45.0447 25.7939 44.8857 25.4591C44.7501 25.1673 44.507 24.7368 44.3527 24.5024C44.1937 24.268 43.8804 23.8757 43.6466 23.6413C43.4175 23.4069 43.0995 23.1151 42.9406 22.9955C42.7863 22.8759 42.5244 22.6989 42.3608 22.5985C42.2018 22.5028 41.8698 22.3306 41.6267 22.2206C41.3835 22.1153 40.9954 21.9766 40.7616 21.9144C40.5278 21.857 40.121 21.7805 39.8498 21.7518C39.5553 21.7135 39.1625 21.704 38.8679 21.7231C38.5967 21.7374 38.1338 21.8044 37.8392 21.8618C37.4839 21.9384 37.1192 22.0532 36.7638 22.211C36.4692 22.3402 36.011 22.5937 35.7445 22.7707C35.4826 22.9477 35.0945 23.2586 34.8888 23.4595C34.6784 23.6652 34.3745 24.0049 34.2155 24.2153C34.0518 24.4258 33.804 24.8133 33.6637 25.0764C33.5188 25.3395 33.3271 25.7796 33.2336 26.057C33.14 26.3345 33.0231 26.7746 32.967 27.0377C32.8922 27.406 32.8688 27.6882 32.8688 28.2575C32.8688 28.7741 32.8922 29.1281 32.9483 29.4294C32.9951 29.6686 33.0933 30.0657 33.1728 30.3144C33.2476 30.5632 33.4066 30.9602 33.5235 31.1994C33.6403 31.4385 33.8227 31.7686 33.9349 31.9408C34.0471 32.113 34.2716 32.4144 34.4352 32.6105C34.5989 32.8067 34.8794 33.0984 35.0618 33.2515C35.2395 33.4046 35.5294 33.6342 35.7117 33.7586C35.8941 33.883 36.184 34.0599 36.3664 34.1508C36.5487 34.2417 36.8246 34.3709 36.9836 34.4331C37.2641 34.5431 37.2735 34.5527 37.2454 34.6914C37.2314 34.7679 37.1285 35.1171 37.021 35.4568C36.9134 35.7964 36.7077 36.3178 36.5627 36.6048C36.4225 36.8918 36.1793 37.3223 36.0297 37.5615C35.8754 37.8007 35.5948 38.1834 35.4031 38.4226C35.2067 38.6618 34.8607 39.0349 34.6316 39.2549C34.4025 39.475 34.0425 39.7859 33.8321 39.9485C33.617 40.1064 33.2102 40.3838 32.9203 40.5656C32.6304 40.7426 32.0973 41.0153 31.7373 41.1731C31.3773 41.3262 30.7974 41.5319 30.4514 41.6228C30.1054 41.7185 29.6332 41.8237 29.3994 41.8668C29.1656 41.905 28.6933 41.9624 28.3473 41.9863C27.9405 42.015 27.4776 42.015 27.0381 41.9863C26.664 41.9576 26.1684 41.905 25.9393 41.862C25.7102 41.8189 25.2753 41.7232 24.9807 41.6419C24.6861 41.5654 24.1999 41.4027 23.9053 41.2879C23.6107 41.1684 23.1572 40.9579 22.9 40.8239C22.6428 40.69 22.2313 40.4412 21.9882 40.2738C21.7451 40.1064 21.4271 39.872 21.2868 39.7524C21.1466 39.6376 20.8099 39.3219 20.548 39.054C20.2815 38.7861 19.9121 38.3604 19.7251 38.1116C19.5381 37.8629 19.2903 37.5089 19.1827 37.3223C19.0705 37.1358 18.8694 36.7483 18.7338 36.4613C18.6029 36.1743 18.4252 35.7294 18.3411 35.4807C18.2616 35.2319 18.1447 34.7679 18.0792 34.4522C18.0091 34.103 17.953 33.6199 17.9343 33.2085L17.9062 32.5388C18.5421 31.9073 18.818 31.5964 18.9255 31.4385C19.0331 31.2807 19.1874 31.0224 19.2669 30.8645C19.3417 30.7067 19.4539 30.4292 19.51 30.2427C19.5755 30.0274 19.6129 29.7691 19.6176 29.5155L19.6269 29.1281C20.1366 28.7358 20.4592 28.4679 20.679 28.2814C20.8987 28.09 21.1091 27.8987 21.1466 27.8556C21.198 27.7982 21.2868 27.7743 21.4645 27.7791H21.7076C21.703 27.3295 21.717 27.3103 22.1332 26.8463C22.3669 26.5832 22.755 26.1192 22.9888 25.8178C23.2273 25.5165 23.592 25.019 23.8024 24.7176C24.0082 24.4163 24.3214 23.9331 24.4991 23.6413C24.6768 23.3495 24.9667 22.8568 25.1444 22.5411C25.3221 22.2254 25.6587 21.57 25.8972 21.0821C26.1357 20.5942 26.4489 19.9149 26.5939 19.5753C26.7435 19.2356 27.0007 18.5994 27.1643 18.1641C27.3327 17.7288 27.5945 16.9969 27.7488 16.5377C27.9031 16.0785 28.1416 15.3131 28.2772 14.8395C28.4128 14.3659 28.6185 13.5671 28.7401 13.0696C28.857 12.5721 29.0019 11.8689 29.0674 11.5149C29.1282 11.1609 29.217 10.6348 29.2544 10.343C29.2965 10.0512 29.3479 9.58237 29.376 9.29057C29.3994 8.99877 29.4228 8.59217 29.4228 8.38169C29.4228 8.17121 29.3994 7.86985 29.3713 7.71199C29.3433 7.55413 29.2544 7.25276 29.1749 7.04229C29.0954 6.83181 28.9037 6.46826 28.7494 6.22908C28.5905 5.99468 28.2211 5.54024 27.9218 5.22453C27.6226 4.90881 27.1503 4.46872 26.8744 4.24389C26.5986 4.01906 26.159 3.69378 25.9019 3.51679C25.64 3.33979 25.2987 3.07191 25.1444 2.91406C24.9901 2.7562 24.7469 2.5505 24.6067 2.45483C24.4664 2.35916 24.1905 2.22522 23.9988 2.15825C23.7744 2.07693 23.5078 2.02431 23.2507 2.00518C22.9748 1.99083 22.7457 2.00518 22.5025 2.06258C22.3108 2.10563 21.9929 2.21565 21.8012 2.31133C21.5346 2.44048 21.3616 2.57442 21.0717 2.871C20.7912 3.1628 20.6509 3.35415 20.5247 3.62203C20.4312 3.81815 20.3189 4.13865 20.2815 4.32521C20.2441 4.51656 20.2114 4.80357 20.2114 4.96143C20.2114 5.11929 20.2441 5.41587 20.2862 5.61678C20.3283 5.82247 20.4218 6.11906 20.4966 6.27691C20.5714 6.43477 20.7304 6.6883 20.8426 6.83659C20.9595 6.98967 21.1653 7.20493 21.3009 7.31495C21.4318 7.42019 21.6889 7.58283 21.8713 7.66894C22.0537 7.75982 22.3436 7.86506 22.5259 7.90333C22.7083 7.9416 22.9608 7.97508 23.087 7.97508C23.2179 7.97508 23.4658 7.9416 23.6481 7.90333C23.8305 7.86028 24.1297 7.75504 24.3168 7.66415C24.5412 7.54935 24.775 7.38192 25.0275 7.13796C25.2519 6.9227 25.4249 6.79354 25.4623 6.81267C25.4904 6.82703 25.6213 6.91791 25.7429 7.01359C25.8691 7.10926 26.0608 7.32452 26.1731 7.49673C26.2853 7.66894 26.4162 7.93682 26.4583 8.09467C26.5237 8.32907 26.5331 8.50606 26.5097 9.05139C26.4957 9.41973 26.4302 10.032 26.3648 10.4147C26.304 10.7974 26.1731 11.4527 26.0842 11.8737C25.9907 12.2947 25.8083 13.0265 25.6774 13.5001C25.5512 13.9737 25.3361 14.696 25.2052 15.1026C25.0742 15.5092 24.8311 16.2076 24.6674 16.6573C24.4991 17.1069 24.2466 17.7527 24.1063 18.0924C23.9614 18.432 23.6621 19.1017 23.433 19.5753C23.2086 20.0488 22.8719 20.7042 22.6849 21.0343C22.5025 21.3643 22.2173 21.8475 22.049 22.1106C21.8807 22.3737 21.6048 22.7898 21.4318 23.0338L21.1232 23.4739C12.2859 23.4739 11.8884 23.4787 11.8744 23.5504C11.8697 23.5983 11.7435 23.4595 11.5564 23.206C11.3834 22.9716 11.0935 22.5459 10.9018 22.2541C10.7148 21.9623 10.3828 21.4169 10.1724 21.0343C9.95731 20.6516 9.62065 20.0058 9.42427 19.5992C9.22788 19.1926 8.94266 18.5564 8.78835 18.188C8.63405 17.8197 8.38156 17.1643 8.2179 16.729C8.05893 16.2937 7.80176 15.5284 7.64745 15.0309C7.48848 14.5334 7.25468 13.7106 7.12376 13.2131C6.99284 12.7156 6.81516 11.9359 6.72632 11.491C6.63748 11.0461 6.52993 10.4434 6.48317 10.1516C6.43174 9.82155 6.39901 9.35754 6.39433 8.90788C6.39433 8.21905 6.39901 8.18078 6.52526 7.90333C6.60007 7.74547 6.71697 7.53978 6.7871 7.44889C6.86192 7.358 7.06298 7.17623 7.24066 7.05185L7.56329 6.82224C8.03555 7.29103 8.29739 7.49194 8.4517 7.57805C8.606 7.66415 8.85849 7.77417 9.01279 7.83158C9.1671 7.88898 9.46167 7.94638 9.66741 7.96073C9.94328 7.97987 10.1397 7.96552 10.4155 7.90333C10.6213 7.85549 10.9486 7.73591 11.1403 7.63545C11.332 7.53499 11.6032 7.34844 11.7435 7.22406C11.8791 7.09969 12.0988 6.83181 12.2251 6.63568C12.356 6.42999 12.5056 6.11427 12.5758 5.89423C12.674 5.58808 12.6973 5.41587 12.6973 5.00926C12.702 4.67441 12.674 4.40653 12.6179 4.19606C12.5711 4.02385 12.4589 3.73205 12.3654 3.55027C12.2531 3.33023 12.0755 3.09583 11.8417 2.85665C11.5938 2.60312 11.3881 2.44527 11.1403 2.32089C10.9486 2.22044 10.6447 2.11041 10.4623 2.06736C10.2846 2.02909 9.99004 2.00039 9.80768 2.00039C9.63 2.00039 9.3214 2.04344 9.12969 2.09606ZM38.6949 24.7224C38.5312 24.7463 38.2273 24.8324 38.0169 24.909C37.8018 24.9903 37.4932 25.1481 37.3296 25.2582C37.1659 25.3682 36.9228 25.5643 36.7872 25.6983C36.6562 25.8274 36.4552 26.0762 36.343 26.2484C36.2307 26.4206 36.0905 26.6645 36.0344 26.7985C35.9783 26.9276 35.8988 27.1668 35.8567 27.3247C35.8146 27.4825 35.7678 27.8174 35.7538 28.0661C35.7304 28.3962 35.7445 28.6354 35.8052 28.9511C35.8473 29.1903 35.9362 29.5108 36.0016 29.6686C36.0671 29.8265 36.2074 30.0944 36.3196 30.2666C36.4271 30.4388 36.6843 30.7354 36.8854 30.9315C37.1612 31.1946 37.3623 31.3333 37.6756 31.4864C37.9094 31.6012 38.232 31.7256 38.4003 31.7686C38.5733 31.8117 38.91 31.8451 39.1718 31.8451C39.4804 31.8451 39.761 31.8165 39.9901 31.7543C40.1818 31.7064 40.4998 31.5868 40.6915 31.4864C40.8832 31.3859 41.1637 31.2089 41.318 31.0846C41.4677 30.965 41.6921 30.7354 41.823 30.5775C41.9493 30.4196 42.1457 30.0991 42.2579 29.86C42.3701 29.6208 42.4963 29.2907 42.5338 29.1185C42.5758 28.9415 42.6086 28.578 42.6086 28.2814C42.6086 27.9178 42.5805 27.6452 42.5197 27.3964C42.473 27.2003 42.3467 26.8654 42.2485 26.655C42.1457 26.4445 41.954 26.1383 41.8184 25.9709C41.6874 25.8083 41.4583 25.5787 41.3134 25.4543C41.1637 25.3347 40.8738 25.1529 40.6681 25.0525C40.4624 24.9472 40.1584 24.8324 39.9901 24.7942C39.8218 24.7559 39.5272 24.7128 39.3355 24.6985C39.1438 24.6889 38.8539 24.6985 38.6949 24.7224Z" fill="#0033D9"/>
</g>
</svg>
