<svg width="49" height="48" viewBox="0 0 49 48" fill="none" xmlns="http://www.w3.org/2000/svg">
<g id="Subtract">
<path id="Subtract_2" fill-rule="evenodd" clip-rule="evenodd" d="M15.2676 6.07295C14.9931 6.10422 14.5001 6.1876 14.1752 6.25013C13.8503 6.31787 13.3853 6.4273 13.1388 6.50025C12.8922 6.57321 12.5113 6.71391 12.2984 6.81291C12.0855 6.91192 11.755 7.09431 11.5701 7.21937C11.3852 7.33922 11.0547 7.61541 10.8418 7.82385C10.6233 8.0375 10.3432 8.35016 10.2199 8.52212C10.0911 8.69408 9.87258 9.04322 9.73812 9.30377C9.59806 9.56432 9.40198 9.98119 9.30674 10.2417C9.2059 10.5023 9.06584 10.9348 8.99301 11.2058C8.91457 11.4767 8.80253 11.9822 8.7465 12.3261C8.68488 12.6701 8.60644 13.2224 8.56723 13.5507C8.53361 13.879 8.5 14.8066 8.5 15.6091C8.5056 16.5314 8.53922 17.4225 8.59524 18.0322C8.65126 18.5637 8.7409 19.361 8.80253 19.8039C8.86415 20.2468 8.99861 21.0806 9.10505 21.6538C9.2115 22.227 9.36837 23.0347 9.46361 23.4516C9.55324 23.8685 9.72131 24.5615 9.82776 24.9888C9.93981 25.4214 10.0911 26.005 10.1695 26.2916C10.1862 26.3484 10.2072 26.4208 10.2316 26.5046C10.3302 26.8434 10.4829 27.3683 10.6177 27.8028C10.7802 28.3447 11.0603 29.215 11.2339 29.7308C11.4076 30.2467 11.7158 31.1013 11.9174 31.6328C12.1135 32.1644 12.4441 32.9929 12.6457 33.4828C12.8474 33.9726 13.2172 34.8011 13.4581 35.3327C13.7046 35.8642 14.1696 36.7917 14.4889 37.391C14.8083 37.9903 15.2789 38.8084 15.531 39.1992C15.7887 39.5952 16.1584 40.1372 16.3601 40.3977C16.5618 40.6635 16.9259 41.0752 17.1724 41.3044C17.447 41.565 17.7383 41.7839 17.9288 41.8724C18.2033 41.9975 18.2817 42.0131 18.6571 41.9923C18.9596 41.9767 19.1613 41.935 19.3854 41.836C19.5534 41.7578 19.8112 41.5806 19.9568 41.4451C20.1025 41.3097 20.3098 41.0543 20.4218 40.8824C20.5283 40.7104 20.7075 40.3613 20.814 40.1007C20.9204 39.8402 21.0829 39.3712 21.1725 39.0585C21.2678 38.7458 21.4695 37.9434 21.6319 37.2868C21.7888 36.6302 22.0017 35.8069 22.1081 35.4629C22.2146 35.119 22.3938 34.6396 22.5059 34.3947C22.6179 34.1498 22.7972 33.811 22.9093 33.6391C23.0157 33.4671 23.2678 33.1701 23.4695 32.9825C23.716 32.7532 23.9625 32.5865 24.2034 32.4822C24.4051 32.3937 24.758 32.2894 24.9877 32.2582C25.3071 32.2061 25.5088 32.2061 25.8449 32.253C26.0802 32.2842 26.4107 32.3624 26.5676 32.4249C26.7301 32.4875 26.9654 32.6021 27.0886 32.6803C27.2119 32.7532 27.4416 32.946 27.5984 33.0971C27.7553 33.2535 27.9794 33.5192 28.097 33.6912C28.2147 33.8632 28.4164 34.2019 28.534 34.4468C28.6573 34.6917 28.8646 35.1972 28.9934 35.5671C29.1279 35.9371 29.3744 36.7709 29.5537 37.417C29.7273 38.0632 29.9458 38.8344 30.0411 39.1367C30.1307 39.4389 30.2988 39.8923 30.4108 40.1528C30.5229 40.4134 30.7133 40.7833 30.8366 40.9814C30.9654 41.1742 31.1783 41.4347 31.3184 41.5546C31.4585 41.6692 31.6769 41.8151 31.7946 41.8672C31.9179 41.9245 32.17 41.9819 32.3548 41.9923C32.6013 42.0079 32.7526 41.9923 32.9151 41.9193C33.0383 41.8724 33.3128 41.6588 33.5313 41.4556C33.7498 41.2523 34.0916 40.8511 34.2932 40.5645C34.4949 40.2831 34.7638 39.8871 34.8871 39.6838C35.016 39.4806 35.3073 38.9647 35.537 38.5374C35.7667 38.1049 36.114 37.4275 36.3045 37.0262C36.495 36.625 36.8367 35.8642 37.0608 35.3327C37.2849 34.8011 37.5258 34.2279 37.593 34.056C37.6603 33.884 37.9404 33.1232 38.2093 32.3624C38.4838 31.6016 38.8704 30.4552 39.0721 29.809C39.2737 29.1628 39.5595 28.1675 39.7163 27.5943C39.8732 27.0211 40.0973 26.13 40.2205 25.6142C40.3438 25.0983 40.5063 24.3687 40.5847 23.9988C40.6631 23.6288 40.7864 22.9566 40.8648 22.5136C40.9432 22.0707 41.0553 21.3411 41.1225 20.8982C41.1841 20.4553 41.2738 19.7257 41.3186 19.2828C41.3634 18.8399 41.425 17.9592 41.4643 17.3287C41.4979 16.6929 41.5091 15.8331 41.4923 15.4006C41.4699 14.9681 41.4306 14.3376 41.397 13.9937C41.369 13.6497 41.2906 13.0765 41.229 12.717C41.1673 12.3574 41.0609 11.8311 40.9825 11.5445C40.9096 11.2579 40.7976 10.8827 40.7416 10.7107C40.6799 10.5388 40.5399 10.1896 40.4222 9.92909C40.3102 9.66854 40.1253 9.30898 40.0189 9.12138C39.9068 8.93379 39.6939 8.63155 39.5427 8.44395C39.3914 8.25636 39.1113 7.95412 38.9208 7.77174C38.7303 7.58935 38.4222 7.33922 38.2373 7.21937C38.0524 7.09431 37.7275 6.91192 37.509 6.81291C37.2905 6.71391 36.9152 6.57321 36.6686 6.50025C36.4221 6.4273 35.9179 6.31266 35.5482 6.23971C35.1784 6.16675 34.5846 6.07816 34.2316 6.04169C33.8675 6.00521 33.3072 5.99479 32.9431 6.01042C32.5901 6.02605 32.1083 6.07295 31.8786 6.11985C31.6489 6.16154 31.2568 6.26055 31.0103 6.33871C30.7638 6.41167 30.0355 6.69306 29.3856 6.96403C28.7357 7.24022 27.957 7.54245 27.6489 7.64146C27.3407 7.74047 26.7749 7.88117 26.3883 7.95412C26.0018 8.02707 25.4583 8.10003 25.1838 8.11566C24.8421 8.13651 24.4667 8.11566 24.0353 8.05313C23.6824 8.00623 23.1614 7.91243 22.8869 7.84469C22.6123 7.78216 22.1305 7.63625 21.8224 7.53203C21.5143 7.4226 20.9989 7.21937 20.6739 7.07867C20.349 6.93277 19.8336 6.71912 19.5254 6.59405C19.2173 6.4742 18.7243 6.31266 18.433 6.23971C18.1417 6.16675 17.7047 6.07816 17.4694 6.05211C17.2285 6.02084 16.7467 6 16.4049 6C16.0576 6.00521 15.5422 6.03648 15.2676 6.07295ZM15.0155 8.34495C14.8139 8.37621 14.4609 8.4648 14.2312 8.54818C14.0015 8.63155 13.6598 8.80351 13.4749 8.92858C13.29 9.05364 12.9931 9.30377 12.8138 9.49136C12.6177 9.68938 12.3992 9.99162 12.2704 10.2417C12.1471 10.471 12.0015 10.8358 11.9343 11.0494C11.8726 11.2631 11.7774 11.6539 11.727 11.9093C11.6653 12.2323 11.6317 12.6805 11.6317 13.3683C11.6317 13.9103 11.6485 14.447 11.6709 14.5564C11.7046 14.7232 11.7326 14.7545 11.895 14.7753C11.9903 14.7909 12.8082 14.817 13.699 14.8326C14.7298 14.8535 15.5702 14.843 15.996 14.8066C16.3657 14.7753 16.9596 14.7024 17.3125 14.645C17.6655 14.5877 18.2313 14.4731 18.573 14.3897C18.9148 14.3063 19.4414 14.15 19.7495 14.0458C20.0577 13.9363 20.5619 13.7331 20.87 13.5924C21.1781 13.4465 21.6431 13.2016 21.9064 13.04C22.1698 12.8785 22.5955 12.5554 22.8532 12.3261C23.111 12.0969 23.4303 11.7686 23.5591 11.5966C23.688 11.4246 23.8729 11.1432 23.9681 10.9713C24.0578 10.7993 24.1474 10.6117 24.1698 10.5544C24.2034 10.4554 24.1586 10.445 23.5759 10.3564C23.2286 10.3043 22.702 10.2053 22.4107 10.1375C22.1193 10.0698 21.6375 9.93951 21.3462 9.84571C21.0549 9.75712 20.4218 9.51742 19.9456 9.31419C19.4694 9.11617 18.8139 8.85041 18.489 8.72014C18.1641 8.59507 17.7215 8.45959 17.5086 8.4179C17.2957 8.38142 16.7243 8.33452 16.2481 8.31889C15.7719 8.30847 15.2172 8.31889 15.0155 8.34495Z" fill="#0033D9"/>
</g>
</svg>
