<svg width="49" height="48" viewBox="0 0 49 48" fill="none" xmlns="http://www.w3.org/2000/svg">
<g id="Vector">
<g id="Vector_2">
<path d="M24.7594 0.583281C25.4282 0.330704 26.12 0.0896081 26.316 0.043685C26.512 0.00924272 27.8264 -0.0137188 31.8503 0.00924272L33.0033 0.445512C33.6375 0.686608 34.5253 0.985107 34.9634 1.09992C35.4016 1.21472 35.8627 1.39841 35.9896 1.51322C36.1049 1.61655 36.3009 1.91505 36.4277 2.16763C36.6007 2.51205 36.6468 2.77611 36.6122 3.20089C36.5891 3.52236 36.3701 4.2112 36.1279 4.7508C35.8858 5.29039 35.6206 5.97924 35.5284 6.3007C35.4361 6.61068 35.2978 6.94362 35.2171 7.02399C35.1479 7.10435 34.9749 7.17324 34.8481 7.17324C34.7213 7.16176 34.5022 7.08139 34.3639 6.98955C34.214 6.8977 33.9603 6.5418 33.7989 6.20885C33.6259 5.88739 33.4184 5.42816 33.3262 5.21003C33.1763 4.81968 33.1763 4.84264 33.2339 5.61185C33.2685 6.04812 33.3262 6.85178 33.3608 7.39137C33.4299 8.22947 33.4069 8.43612 33.2109 8.82647C33.084 9.07904 32.8188 9.53827 32.2308 10.4338L32.5075 11.0652C32.669 11.4096 33.0379 12.064 33.3492 12.5003C33.649 12.9366 33.9949 13.4073 34.0987 13.5336C34.2024 13.6599 34.5829 14.1765 34.9288 14.6817C35.2747 15.1868 35.6898 15.8527 35.8512 16.1742C36.0126 16.4841 36.2317 17.0352 36.347 17.3796C36.5084 17.8963 36.543 18.2407 36.4738 19.3314L36.4658 19.4993C36.4279 20.2909 36.3544 21.8254 36.3009 23.0626C36.2202 24.9914 36.1279 25.841 35.8397 27.3105C35.6437 28.3208 35.4361 29.3885 35.367 29.687C35.3093 29.997 35.194 30.9729 35.1248 31.8684C35.0557 32.7753 35.0211 34.7959 35.0441 36.3803C35.0672 37.9532 35.1364 39.3423 35.2055 39.4571C35.2632 39.5719 35.5399 39.7442 35.8282 39.836C36.1164 39.9279 36.52 40.1001 36.716 40.2263C36.9235 40.3526 37.1656 40.5937 37.2579 40.7659C37.3501 40.9496 37.4424 41.2711 37.5 41.8911L28.3914 41.9485L28.1953 41.4089C28.08 41.0989 27.8494 40.6971 27.665 40.5134C27.492 40.3297 27.2384 40.1115 27.1115 40.0427C26.8934 39.9284 26.9039 39.9051 27.1998 39.2477L27.2038 39.239C27.3767 38.8716 27.5958 38.2517 27.6996 37.8728C27.8033 37.4939 27.9071 36.7706 27.9532 36.2655C27.9993 35.634 27.9532 35.0256 27.8264 34.3138C27.7111 33.7512 27.469 32.8098 27.2845 32.2472C27.1 31.6847 26.5581 30.4333 26.0854 29.4918C25.6242 28.5389 24.967 27.299 24.6326 26.7365C24.3098 26.1739 23.7102 25.0258 23.3182 24.2107C22.9146 23.3841 22.4765 22.3508 22.3381 21.9145C22.1998 21.4783 22.0614 20.7435 21.9461 19.5036L22.6149 18.8721C23.0069 18.4933 23.422 17.9652 23.618 17.5518C23.814 17.1615 24.0215 16.4841 24.0907 16.0019C24.1945 15.359 24.1945 14.9572 23.9639 13.6484L24.5058 12.9021C24.8171 12.4888 25.2206 11.8689 25.4282 11.5244C25.6242 11.18 25.7971 10.7438 25.7971 10.5486C25.7971 10.3534 25.7049 10.0779 25.5896 9.91714C25.4743 9.75641 25.2437 9.38902 25.0707 9.07904C24.8286 8.65426 24.7594 8.3902 24.7594 7.82764C24.7594 7.42581 24.8055 6.81733 24.8632 6.47291C24.9208 6.12849 25.0016 5.55445 25.0361 5.21003C25.0823 4.78524 25.0592 4.63599 24.99 4.7508C24.9324 4.84264 24.794 5.17559 24.6902 5.49705C24.5865 5.80703 24.3443 6.28922 24.1714 6.55328C23.9639 6.86326 23.7217 7.06991 23.5257 7.11583C23.3412 7.16176 23.1222 7.1388 23.0299 7.08139C22.9377 7.01251 22.6956 6.53032 22.4996 6.0022C22.3151 5.47409 22.0499 4.8082 21.9115 4.52118C21.7847 4.23416 21.6348 3.75197 21.5887 3.43051C21.531 3.0172 21.5541 2.68426 21.6925 2.25947C21.8078 1.85765 21.9807 1.57063 22.1882 1.43286C22.3727 1.30657 22.7417 1.18028 23.0299 1.13436C23.3182 1.08843 24.0907 0.847338 24.7594 0.583281Z" fill="#0033D9"/>
<path d="M12.2956 13.8206C12.5031 13.2695 12.5377 12.9366 12.5377 11.2604C12.5377 9.80233 12.5723 9.3431 12.6761 9.3431C12.7568 9.3431 13.3448 9.68752 13.9789 10.0894C14.6131 10.5027 15.2126 10.8356 15.3049 10.8356C15.3971 10.8356 15.7315 10.7552 16.0543 10.6634C16.4002 10.5601 17.0574 10.4912 17.7262 10.4912C18.418 10.5027 19.0521 10.583 20.0898 10.9045L21.3004 10.1238C21.9692 9.68752 22.5803 9.3431 22.6494 9.3431C22.7647 9.3431 22.7993 9.81381 22.7993 11.3178C22.7993 13.0514 22.8339 13.3843 23.0415 13.9354C23.2259 14.4176 23.2721 14.7391 23.2375 15.3131C23.2029 15.7264 23.0645 16.3693 22.9146 16.7482C22.7071 17.2763 22.4419 17.6322 21.7962 18.2637C21.0468 19.0099 20.9545 19.1477 20.9545 19.5265C20.9545 19.7676 21.0122 20.2957 21.0814 20.7091C21.139 21.1224 21.3581 21.926 21.5541 22.4886C21.7501 23.0511 22.2574 24.1877 22.684 25.0143C23.1106 25.8295 23.6987 26.9431 24.01 27.4827C24.3098 28.0223 24.8055 28.9522 25.1053 29.5492C25.4051 30.1462 25.8086 31.0303 25.9931 31.501C26.1891 31.9717 26.4659 32.7983 26.6042 33.3379C26.8233 34.1186 26.8809 34.6008 26.8925 35.7489C26.8925 36.9429 26.8463 37.3217 26.6157 38.045C26.4659 38.5157 26.2237 39.1472 26.0738 39.4457C25.9239 39.7556 25.8202 40.0427 25.8548 40.1115C25.8894 40.1804 25.9816 40.2263 26.0508 40.2263C26.1315 40.2149 26.339 40.3182 26.512 40.456C26.6965 40.5823 26.9386 40.8922 27.0654 41.1448C27.1922 41.3974 27.296 41.8107 27.296 42.0633C27.296 42.3158 27.1922 42.7292 27.0654 42.9817C26.9155 43.2917 26.6503 43.5443 26.2814 43.7509C25.9816 43.9232 25.4051 44.1528 24.99 44.2676C24.5749 44.3824 23.8024 44.5546 23.2605 44.6464C22.7186 44.7498 21.1851 44.8761 19.8592 44.9335C18.3834 45.0023 17.1727 45.1172 16.7461 45.2205C16.3656 45.3238 15.9506 45.4731 15.8237 45.5534C15.6969 45.6338 15.4086 45.8978 15.1896 46.1275C14.9705 46.3571 14.6246 46.6556 14.4401 46.7704C14.2441 46.8967 13.9559 47 13.7714 47C13.5984 47 13.3217 46.8737 13.1373 46.7359C12.9643 46.5867 12.7914 46.2997 12.7337 46.1045C12.6876 45.8978 12.6876 45.519 12.7337 45.2549C12.7914 44.9564 12.9758 44.612 13.241 44.3135C13.5293 43.992 13.9098 43.7395 14.4517 43.5213C14.8898 43.3376 15.7084 43.0965 16.2849 42.9703C16.8614 42.8554 18.3257 42.7062 19.571 42.6373C20.8047 42.5684 22.2574 42.4421 22.7993 42.3503C23.3412 42.2584 23.8255 42.1322 23.8947 42.0633C23.9639 41.9829 22.0499 41.9485 12.0765 41.9485L11.7882 41.6614C11.6268 41.5007 11.5 41.2826 11.5 41.1678C11.5 41.0644 11.6384 40.8463 11.8113 40.6856C11.9958 40.5248 12.2725 40.3182 12.457 40.2263C12.6299 40.1345 12.849 39.8934 12.9412 39.7097C13.0335 39.526 13.2064 38.8716 13.3333 38.2746C13.4601 37.6776 13.5869 36.828 13.633 36.3803C13.6792 35.9325 13.6561 35.037 13.5754 34.3712C13.5062 33.6708 13.2525 32.4424 12.9643 31.4436C12.4916 29.7329 12.4916 29.71 12.4916 27.8271L12.4916 27.8254C12.5031 25.9443 12.5032 25.9209 12.9643 24.4403C13.2295 23.6137 13.6215 22.3508 13.8521 21.6275C14.1288 20.7435 14.2672 20.0891 14.2672 19.6413C14.2672 18.9869 14.2672 18.9869 13.5639 18.3211C13.1027 17.8848 12.7337 17.4141 12.5031 16.9204C12.2149 16.3349 12.1226 16.0019 12.0996 15.3131C12.065 14.6472 12.1111 14.3143 12.2956 13.8206Z" fill="#0033D9"/>
</g>
</g>
</svg>
