<svg width="49" height="44" viewBox="0 0 49 44" fill="none" xmlns="http://www.w3.org/2000/svg">
<path d="M26.3156 10.0977C25.7715 7.52956 25.271 4.72203 25.1839 3.895C25.0969 2.91563 24.988 2.48035 24.8575 2.69799C24.7704 2.8721 24.5745 3.76442 24.4222 4.65674C24.2916 5.54905 23.704 8.48717 23.1164 11.1859C22.5505 13.8846 21.9846 16.6268 21.8541 17.2798C21.7235 17.9327 21.4623 20.0873 21.2664 22.0678C21.0053 24.5706 20.94 26.5511 21.0488 28.5969C21.1141 30.2075 21.3317 31.5568 21.5058 32.5145C21.7017 33.4721 22.4634 36.519 22.4852 36.5408C22.507 36.5625 23.8998 40.3277 23.8998 37.6289C23.9216 34.7343 23.5299 25.0495 23.6822 24.0266C23.8346 23.069 23.8128 19.7173 24.3351 16.9533C24.6991 15.1042 24.7469 14.2 24.7778 13.5563C24.8424 14.2316 24.9333 13.4109 25.2057 14.6681C25.4886 15.9739 24.2481 17.5192 24.4222 18.4768C24.6181 19.4344 25.9456 21.3714 26.1851 22.9384C26.4897 24.8753 26.8162 34.9302 26.838 37.6289C26.8597 40.2624 28.1438 32.9497 28.2526 32.2968C28.3397 31.7527 28.492 30.1204 28.5791 28.5969C28.6661 27.0735 28.5138 24.7665 28.3614 22.9384C28.2309 21.1972 27.9262 18.6509 27.7085 17.2798C27.4691 15.9086 26.838 12.6658 26.3156 10.0977Z" fill="#B3C4FB"/>
<path d="M13.562 8.74834C14.5849 8.7701 15.3031 8.70481 15.1508 8.61775C15.0202 8.5307 14.3891 8.48717 13.7361 8.5307C13.105 8.55246 12.3868 8.61775 12.1474 8.66128C11.908 8.70481 12.5391 8.74834 13.562 8.74834Z" fill="#B3C4FB"/>
<path d="M7.14171 21.7413C6.29292 21.0449 5.11768 20.2396 4.53005 19.9567C3.92067 19.6955 3.1154 19.4561 1.96192 19.4561L2.72365 20.2832C3.13717 20.7184 3.68126 21.3714 3.94243 21.7413C4.18183 22.1113 5.29179 24.6359 6.37998 27.3999C7.46817 30.1639 8.81752 33.2326 9.38338 34.2555C9.92748 35.2784 10.9286 36.8019 11.6033 37.6289C12.278 38.456 13.2573 39.5224 13.8014 39.9794C14.3238 40.4365 15.412 41.1329 16.2172 41.5464C17.0443 41.9599 17.6972 42.2429 17.6972 42.1558C17.6972 42.047 18.8942 41.2417 18.4589 41.0023C18.0236 40.7629 15.4773 40.4147 14.672 39.5877C13.8885 38.7607 12.7785 37.2807 12.2344 36.3231C11.7121 35.3655 11.0374 34.1032 10.7763 33.4938C10.5369 32.9062 11.3857 31.361 10.7763 29.794C10.1669 28.227 11.4074 29.6634 10.7763 28.5969C10.3765 27.9214 8.32621 25.6566 6.76068 23.9874C6.90779 24.1098 7.03793 24.2002 7.14171 24.2442C7.85992 24.5707 8.12107 25.6371 8.77399 26.0941C9.42691 26.5729 14.1932 29.794 15.7384 31.3174C17.7625 33.2762 14.7808 29.3587 13.845 28.2705C13.105 27.4435 11.6468 25.8982 10.5804 24.8753C9.53573 23.8307 7.9905 22.4378 7.14171 21.7413Z" fill="#B3C4FB"/>
<path d="M45.9684 21.6325C46.2948 21.219 46.6213 20.7402 46.6866 20.5661C46.7954 20.3267 46.6866 20.3049 46.2513 20.4137C45.9248 20.5008 45.2284 20.8708 44.6843 21.2408C44.1402 21.6325 42.965 22.5466 42.0726 23.2866C41.1803 24.0048 40.288 24.81 40.1139 25.0277C39.918 25.2671 38.3293 26.8994 38.8081 26.5294C39.2204 26.2255 41.4941 24.8828 42.2837 24.4653C42.0156 24.7494 41.7275 25.0356 41.5068 25.2236C40.6798 25.9418 41.5721 25.0277 40.8756 26.5294C40.3751 27.5958 39.091 29.7504 38.4816 31.4263C37.8505 33.1021 37.1105 35.2349 36.6317 36.1925C36.0005 37.3895 35.1518 37.6725 34.02 38.826C33.1277 39.74 29.8196 41.8729 29.232 42.1994C28.1873 42.7652 31.1037 42.5476 31.8437 42.417C32.2572 42.3517 33.2365 41.9817 34.02 41.6117C34.9559 41.1329 35.957 40.3712 36.9582 39.3483C37.7852 38.4995 38.8951 37.0848 39.3957 36.1925C39.8963 35.3002 40.6145 33.8856 40.9845 33.0585C41.3327 32.2315 42.0726 30.3163 42.6385 28.8146C43.1826 27.3129 44.0096 25.2671 44.4884 24.2442C44.9672 23.2213 45.6202 22.046 45.9684 21.6325Z" fill="#B3C4FB"/>
<path d="M29.8849 0.717461C29.1014 0.478059 27.7738 0.216893 26.9468 0.108074C26.1197 -0.000745509 24.7269 -0.0225093 23.8998 0.0210183C23.0728 0.064546 21.6364 0.26042 20.7441 0.412767C19.8518 0.586878 18.4153 1.00039 17.5883 1.32685C16.7613 1.67507 15.5643 2.30622 14.9767 2.7415C14.3673 3.17677 13.5402 3.96027 12.3868 5.41845L13.2355 4.76553C13.7144 4.41731 14.7373 3.85145 15.5208 3.48147C16.3042 3.13325 17.7189 2.65444 18.6765 2.4368C19.6994 2.1974 21.7887 1.97976 23.6822 1.89271C26.2938 1.78389 27.3167 1.84918 28.7967 2.13211C29.9937 2.37151 31.4083 2.87208 32.823 3.56852C34.2812 4.26497 35.3694 4.98317 36.1311 5.72314C37.0016 6.57193 37.2193 6.68075 36.9799 6.22371C36.8058 5.89725 36.1964 5.11375 35.6088 4.46084C35.0429 3.80792 33.8241 2.78502 32.9318 2.21917C32.0395 1.63154 30.6684 0.956863 29.8849 0.717461Z" fill="white"/>
<path d="M14.5849 8.42186C14.5631 8.37833 13.8014 8.20422 12.9091 8.03011C11.9515 7.856 10.6457 7.76894 9.75334 7.83423C8.90455 7.87776 7.79459 8.05187 7.2505 8.22598C6.7064 8.37833 5.77056 8.77008 5.18293 9.07477C4.57355 9.37947 3.74652 9.88003 3.33301 10.2065C2.91949 10.5112 2.20129 11.2947 1.74425 11.9041C1.26545 12.5352 0.699585 13.7105 0.438419 14.5593C0.0684319 15.778 -0.0186234 16.6051 0.00314331 18.6944C0.00314331 20.5661 0.155491 21.9372 0.525475 23.5912C0.808407 24.8535 1.02604 26.2682 1.02604 26.747C1.02604 27.2258 0.917221 28.314 0.764877 29.141C0.61253 30.0986 0.590763 31.1433 0.699585 31.9703C0.78664 32.6885 1.13486 33.842 1.46132 34.5167C1.76601 35.2131 2.48422 36.236 3.05008 36.7801C3.6377 37.346 4.57355 38.0424 5.18293 38.3471C5.77056 38.6518 6.40171 39.0871 6.57582 39.3483C6.74993 39.6094 7.35931 40.2623 7.94694 40.8282C8.5128 41.4158 9.47041 42.1123 10.0798 42.417C10.6674 42.7217 11.6903 43.0481 12.2997 43.1352C12.9309 43.244 14.0843 43.244 14.8678 43.1569C15.6513 43.0699 16.6742 42.874 17.153 42.6999C18.0236 42.5911 19.2206 42.4823 22.7028 42.5475C25.2709 42.5911 28.1655 42.5911 29.1231 42.5911C30.6248 42.6128 31.0166 42.5258 32.0613 42.0034C32.7359 41.6335 33.9547 40.6759 34.8906 39.7182C36.0223 38.5648 36.8058 37.5201 37.4369 36.3231C37.9157 35.3655 38.8298 33.2109 39.461 31.535C40.0703 29.8592 41.0062 27.5958 41.5068 26.5294C42.2032 25.0277 42.682 24.353 43.509 23.6348C44.0967 23.1342 44.4666 22.7207 44.3578 22.7207C44.249 22.7207 43.3132 23.1995 42.312 23.7654C41.1368 24.4183 39.7439 25.4629 38.5251 26.6382C37.4369 27.6611 35.7176 29.4675 34.6947 30.6645C33.65 31.8615 31.6913 34.5602 30.2984 36.6495C28.9273 38.7389 27.5126 40.6541 27.1644 40.9153C26.7944 41.1764 26.2938 41.4376 25.5321 41.6552L26.0762 40.6106C26.3809 40.0447 26.8815 38.6083 27.1862 37.4113C27.7085 35.4743 27.7955 34.7343 27.8826 30.6645C27.9261 27.7699 27.8826 25.3759 27.7085 24.1353C27.5779 23.0689 27.2079 20.849 26.925 19.2385C26.6203 17.628 26.1633 15.2122 25.8586 13.9063C25.5756 12.6005 25.2709 10.8159 25.2057 9.98885C25.1404 9.16183 25.0315 8.50891 24.988 8.5742C24.9445 8.63949 24.7921 9.37947 24.6616 10.2065C24.531 11.0335 24.0086 13.9716 23.4645 16.7356C22.9422 19.4996 22.3764 22.5248 22.224 23.4824C22.0717 24.5271 21.9628 27.1605 21.9628 30.1204C21.9846 34.7561 22.0064 35.1478 22.5722 37.1936C22.8987 38.3907 23.3993 39.8271 23.6822 40.3929C24.1175 41.2199 24.161 41.4376 23.8998 41.4376C23.7257 41.4376 23.1816 41.0676 22.7028 40.6323C22.224 40.1753 21.2011 38.7389 20.3958 37.4113C19.5906 36.0837 18.3065 34.0814 17.523 32.9497C16.7178 31.818 14.759 29.5328 13.1267 27.857C11.5162 26.2029 9.51394 24.3312 8.66515 23.7218C7.81636 23.0907 6.55405 22.3289 5.83585 22.0025C5.11764 21.6978 4.44296 21.4149 4.31238 21.4149C4.1818 21.4149 4.48649 21.7413 4.94353 22.1113C5.40057 22.5031 6.29289 23.7218 6.92404 24.7883C7.55519 25.8547 8.57809 28.0093 9.18748 29.5763C9.79686 31.1433 10.5368 32.8844 10.7762 33.4938C11.0374 34.0814 11.7121 35.3655 12.2344 36.3231C12.7785 37.2807 13.8885 38.7606 14.672 39.5877C15.4772 40.4147 16.4784 41.307 16.9136 41.5464C17.3489 41.7858 17.6971 42.047 17.6971 42.134C17.6971 42.2428 17.0442 42.417 16.2172 42.5258C15.2161 42.6781 14.2802 42.6999 13.2355 42.5475C12.365 42.417 11.1462 42.047 10.4063 41.677C9.68805 41.307 8.59985 40.5888 6.92404 39.0871L8.22987 39.37C8.94807 39.5441 9.55746 39.653 9.57923 39.6312C9.60099 39.6094 9.05689 39.3047 8.38221 38.9347C7.70754 38.5865 6.48876 37.6507 5.70527 36.8672C4.92176 36.0837 4.00769 34.9302 3.68123 34.299C3.37654 33.6897 2.96302 32.5579 2.78891 31.818C2.6148 31.0562 2.46246 29.424 2.46246 28.1617C2.46246 26.8993 2.54951 25.3324 2.68009 24.6794C2.78891 24.0265 2.8542 23.4607 2.78891 23.4389C2.72362 23.3954 2.39716 23.983 1.43956 26.0941L1.15662 23.8089C1.00428 22.5031 0.938988 20.5878 1.00428 19.3473C1.06957 18.0632 1.28721 16.6921 1.54837 15.9739C1.76601 15.321 2.09247 14.5157 2.26658 14.1893C2.44069 13.8628 3.05008 13.1011 3.65947 12.4699C4.24709 11.8605 5.42234 10.9465 6.27113 10.4677C7.11992 9.96709 8.42574 9.37947 9.20924 9.16183C9.99274 8.96595 11.5162 8.72655 12.6262 8.63949C13.7361 8.5742 14.6067 8.46538 14.5849 8.42186Z" fill="white"/>
<path d="M44.5537 12.4482C44.0749 12.1217 43.3132 11.6647 42.8344 11.4253C42.3555 11.1859 41.8767 10.99 41.7462 10.99C41.6156 10.99 41.7244 11.1206 41.9638 11.2512C42.1814 11.4035 42.8779 11.9694 43.4873 12.5352C44.0749 13.0793 44.9019 14.0587 45.2719 14.7116C45.6637 15.3428 46.2513 16.6051 46.5777 17.4974C47.0783 18.912 47.1654 19.4779 47.1654 21.8501C47.1871 24.1353 47.1001 24.8318 46.6648 26.2029C46.3819 27.0952 46.0119 28.0746 45.8378 28.3793C45.5766 28.8146 45.6201 28.8146 46.0772 28.2705C46.4036 27.9005 46.9477 27.0299 47.2959 26.3117C47.6659 25.5935 48.123 24.2224 48.3188 23.2648C48.6018 21.8284 48.6235 21.219 48.4277 19.7826C48.2971 18.825 47.9924 17.4974 47.753 16.8445C47.5136 16.1915 46.8824 15.0598 46.3601 14.3416C45.816 13.6234 45.0107 12.7746 44.5537 12.4482Z" fill="white"/>
<path d="M44.619 35.779C44.6843 35.1043 44.619 34.0814 44.4884 33.4503V33.4285C44.3361 32.8191 44.1837 32.2968 44.1402 32.2968C44.0749 32.2968 44.0967 32.6232 44.1619 32.9932C44.2272 33.385 44.1837 34.299 44.0531 35.0173C43.9225 35.7355 43.5961 36.7584 43.3132 37.3025C43.052 37.8466 42.3773 38.7606 41.8332 39.37C41.2238 40.0229 40.2009 40.7847 39.2216 41.307C38.3292 41.764 37.0234 42.2646 36.3052 42.417C35.4782 42.5693 35.1517 42.6999 35.4347 42.7869C35.6741 42.8305 36.6099 42.7652 37.5022 42.6128C38.3945 42.4387 39.6786 42.047 40.3315 41.7205C40.9844 41.3941 41.9856 40.6541 42.5514 40.0882C43.139 39.5224 43.792 38.5865 44.0531 37.9989C44.2925 37.433 44.5537 36.4319 44.619 35.779Z" fill="white"/>
<path d="M25.2927 28.9234C25.2927 26.6599 25.2492 23.6565 25.1621 22.2854C25.0098 20.0437 24.988 19.8914 24.8357 20.8707C24.7486 21.4584 24.6833 24.81 24.6616 28.2704C24.6616 31.7309 24.7268 35.7137 24.988 39.5876L25.1186 36.3231C25.2057 34.5384 25.2709 31.1868 25.2927 28.9234Z" fill="#0033D9"/>
<path d="M34.3682 35.6266C35.2823 33.7332 36.3705 31.7526 36.8058 31.2086L37.5675 30.2292L36.5011 31.2521C35.8264 31.905 35.0429 33.0149 34.3682 34.299C33.7806 35.409 32.9536 36.8671 32.5401 37.5201C32.1265 38.173 31.4519 39.0871 30.9948 39.5659C30.5596 40.0229 29.7761 40.6976 29.232 41.024C28.3179 41.6334 28.2961 41.6552 28.8402 41.6552C29.1884 41.6552 29.8196 41.4811 30.2549 41.2417C30.7119 41.024 31.4519 40.4364 31.8871 39.9358C32.366 39.4135 33.4106 37.6071 34.3682 35.6266Z" fill="#0033D9"/>
<path d="M15.5643 34.7996C14.9331 33.6026 14.0408 32.1662 13.5402 31.6003C13.0614 31.0127 12.6262 30.5556 12.5826 30.5556C12.5391 30.5556 12.8003 31.0127 13.192 31.6003C13.562 32.1662 14.1932 33.3632 14.5631 34.2555C14.9331 35.1478 15.5425 36.4754 15.9125 37.1936C16.2607 37.9118 17.0877 39.0653 17.7407 39.7617C18.633 40.7411 19.1553 41.1111 19.9823 41.3505C20.5917 41.5464 21.1358 41.6334 21.1793 41.5681C21.2446 41.5246 21.0488 41.394 20.7441 41.307C20.4611 41.2199 19.83 40.8499 19.3512 40.4799C18.8724 40.11 18.0889 39.1741 17.5883 38.3906C17.0877 37.6071 16.1737 35.9966 15.5643 34.7996Z" fill="#0033D9"/>
<path d="M24.5091 25.7676C24.5527 26.3117 24.5962 25.9635 24.5962 25.0059C24.5962 24.0483 24.5527 23.613 24.5091 24.0265C24.4656 24.4401 24.4656 25.2235 24.5091 25.7676Z" fill="#D4ECF6"/>
<path d="M24.5091 30.991C24.5527 31.6439 24.5744 31.2086 24.5744 30.0116C24.5744 28.8146 24.5527 28.2705 24.5091 28.8146C24.4656 29.3587 24.4656 30.338 24.5091 30.991Z" fill="#D4ECF6"/>
</svg>
