<svg width="40" height="40" version="1.1" viewBox="0 0 40 40" xmlns="http://www.w3.org/2000/svg" class="nav__logo-image"><g><g fill="#5eaeff" stroke-linecap="round" stroke-linejoin="round" stroke-width="3"><circle cx="12" cy="12" r="12" style="paint-order:fill markers stroke;"></circle><circle cx="28" cy="12" r="12" style="paint-order:fill markers stroke;"></circle><circle cx="28" cy="28" r="12" style="paint-order:fill markers stroke;"></circle><circle cx="12" cy="28" r="12" style="paint-order:fill markers stroke;"></circle></g><path d="m18 7c-1.1 0-2 0.89-2 2v6.6h-6.6c-1.1 0-2 0.89-2 2v4.9c0 1.1 0.89 2 2 2h6.6v6.6c0 1.1 0.89 2 2 2h4.9c1.1 0 2-0.89 2-2v-6.6h6.6c1.1 0 2-0.89 2-2v-4.9c0-1.1-0.89-2-2-2h-6.6v-6.6c0-1.1-0.89-2-2-2h-4.9z" fill="#e2f8ff" style="paint-order:fill markers stroke;"></path></g></svg>