<svg width="180" height="57" viewBox="0 0 180 57" fill="none" xmlns="http://www.w3.org/2000/svg">
<path d="M12.288 15.446L16.8092 8.89504L29.8249 8.56165L38.65 20.3035L37.7692 29.451L42.3925 36.088L47.2953 42.8178L39.6483 49.4173L22.5683 43.2991L21.8607 30.5306L18.3089 19.7603L12.288 15.446Z" fill="url(#paint0_linear_402_230)"/>
<path d="M60.4952 25.576C60.5351 25.3552 60.5684 25.1344 60.5928 24.9136C61.143 20.7737 60.4708 17.1858 58.6317 13.7039L58.6494 13.7481C55.497 8.04716 50.0485 3.87637 44.4069 2.03495C40.254 0.679273 36.1986 0.303924 31.318 0.930978C32.618 0.820769 33.9269 0.975532 35.1648 1.38581C42.1663 3.70194 46.3636 11.9596 44.0387 18.8926C43.4634 20.5976 43.2188 22.3958 43.3177 24.1916C43.3314 24.757 43.4005 25.3198 43.524 25.8718C43.9313 27.7151 44.9358 29.3741 46.3829 30.5937C47.8301 31.8133 49.6397 32.5259 51.5335 32.622C53.4273 32.7181 55.3004 32.1923 56.8647 31.1255C58.4289 30.0587 59.5977 28.5099 60.1913 26.7175C60.3179 26.3441 60.4195 25.9628 60.4952 25.576Z" fill="url(#paint1_linear_402_230)"/>
<path d="M0.286164 31.4138C0.244753 31.6346 0.211477 31.8554 0.186334 32.0762C-0.363844 36.2138 0.308349 39.804 2.14967 43.2859L2.12971 43.2417C5.28436 48.9426 10.7307 53.1134 16.3744 54.9548C20.5274 56.3105 24.5827 56.6836 29.4634 56.0588C28.1654 56.1684 26.8586 56.0129 25.6232 55.6018C18.6195 53.2834 14.4222 45.0279 16.7494 38.095C17.3249 36.3901 17.5689 34.5917 17.4681 32.796C17.4265 31.0202 16.8353 29.3005 15.7752 27.8716C14.7151 26.4427 13.2378 25.3743 11.5449 24.8121C10.4651 24.4513 9.32448 24.3063 8.18833 24.3853C7.05217 24.4643 5.94286 24.7658 4.92405 25.2725C3.90524 25.7792 2.99697 26.4811 2.25134 27.3379C1.50571 28.1948 0.937396 29.1897 0.579001 30.2657C0.454717 30.6411 0.356868 31.0248 0.286164 31.4138Z" fill="url(#paint2_linear_402_230)"/>
<path d="M53.6247 38.6205C53.7511 38.1789 53.8842 37.4856 53.953 37.1037C53.9929 36.8829 54.0218 36.6621 54.0439 36.4413C54.1436 35.6002 54.1881 34.7535 54.177 33.9066C52.186 34.5463 50.0411 34.5324 48.0585 33.8668C44.8329 32.7982 42.5434 30.2723 41.7892 27.3799C41.6439 26.8251 41.5569 26.2569 41.5296 25.6842C41.3772 23.8841 41.5953 22.072 42.1707 20.3587C44.489 13.4235 41.1347 5.00687 33.5853 2.50748C32.4761 2.14096 30.9631 1.9577 29.3702 1.9577C18.4421 2.84088 9.5993 9.38742 7.15011 18.3561C7.0281 18.8286 6.88834 19.4909 6.82178 19.8729C6.78185 20.0937 6.75079 20.3145 6.73083 20.5353C6.63162 21.3765 6.58642 22.2231 6.5955 23.07C8.5875 22.4305 10.7333 22.4452 12.7162 23.112C15.9419 24.1806 18.2313 26.7065 18.9834 29.5967C19.1296 30.152 19.2166 30.7211 19.2429 31.2946C19.3946 33.0943 19.1749 34.9058 18.5974 36.6179C16.2813 43.5508 19.6356 51.9697 27.185 54.4691C28.2943 54.8356 30.069 55.0189 31.4001 55.0189C42.3305 54.1379 51.1755 47.5914 53.6247 38.6205Z" fill="url(#paint3_linear_402_230)"/>
<path d="M88.4212 36.9756C88.4212 51.9476 72.4194 56.3635 42.2417 56.3635C42.2417 56.3635 57.427 52.4577 61.9039 33.3634C63.5877 26.4349 69.5243 23.7766 75.4942 24.1122C83.4074 24.5692 88.4212 30.4269 88.4212 36.9756Z" fill="url(#paint4_linear_402_230)"/>
<path d="M74.618 48.2559C80.6301 48.2559 85.504 43.4052 85.504 37.4216C85.504 31.4379 80.6301 26.5872 74.618 26.5872C68.6058 26.5872 63.732 31.4379 63.732 37.4216C63.732 43.4052 68.6058 48.2559 74.618 48.2559Z" fill="url(#paint5_linear_402_230)"/>
<path d="M85.6636 25.13C80.8473 13.5295 71.3013 5.85252 50.7295 2.53619C50.7295 2.53619 66.6847 9.40068 63.5589 26.2472C63.5589 26.2472 66.8355 21.4339 74.0721 21.4339C81.9521 21.4339 85.6636 25.13 85.6636 25.13Z" fill="url(#paint6_linear_402_230)" stroke="url(#paint7_linear_402_230)" stroke-width="0.696632" stroke-miterlimit="10"/>
<path d="M103.476 5.72284H109.118C111.736 5.72284 113.627 6.10187 114.79 6.85993C115.954 7.61799 116.542 8.8169 116.552 10.4567C116.589 11.4456 116.286 12.4174 115.693 13.2122C115.121 13.9481 114.298 14.4096 113.224 14.5965V14.7268C114.555 14.9756 115.537 15.4694 116.168 16.2083C116.8 16.9473 117.113 17.9453 117.109 19.2023C117.109 20.9024 116.513 22.2331 115.323 23.1943C114.132 24.1554 112.471 24.636 110.34 24.636H103.476V5.72284ZM106.582 13.5367H109.573C110.873 13.5367 111.821 13.3314 112.419 12.9207C113.016 12.51 113.312 11.8138 113.306 10.832C113.306 9.94883 112.984 9.30632 112.339 8.90448C111.694 8.50263 110.669 8.30392 109.264 8.30834H106.582V13.5367ZM106.582 16.045V22.0351H109.897C111.194 22.0351 112.175 21.7871 112.84 21.291C113.506 20.795 113.837 20.0126 113.834 18.944C113.834 17.9592 113.496 17.2306 112.82 16.7581C112.145 16.2856 111.117 16.0479 109.739 16.045H106.582Z" fill="url(#paint8_linear_402_230)"/>
<path d="M123.048 17.0805V24.636H119.942V5.72284H125.31C127.761 5.72284 129.577 6.17988 130.757 7.09397C131.937 8.00806 132.529 9.38802 132.532 11.2339C132.532 13.589 131.301 15.2663 128.84 16.2657L134.206 24.636H130.666L126.116 17.0805H123.048ZM123.048 14.5193H125.204C126.65 14.5193 127.699 14.2521 128.35 13.7178C129 13.1835 129.325 12.3893 129.324 11.3354C129.324 10.2668 128.973 9.49989 128.272 9.03475C127.571 8.56961 126.514 8.3363 125.1 8.33483H123.045L123.048 14.5193Z" fill="url(#paint9_linear_402_230)"/>
<path d="M149.856 24.636L147.959 19.3834H140.691L138.832 24.636H135.558L142.668 5.64777H146.058L153.157 24.636H149.856ZM147.14 16.7184L145.365 11.5695C145.234 11.225 145.054 10.6819 144.826 9.94C144.599 9.19813 144.44 8.65424 144.352 8.30833C144.082 9.48897 143.739 10.6518 143.324 11.7903L141.607 16.7184H147.14Z" fill="url(#paint10_linear_402_230)"/>
<path d="M155.666 24.636V5.72284H158.772V24.636H155.666Z" fill="url(#paint11_linear_402_230)"/>
<path d="M179.623 24.636H175.814L166.467 9.56465H166.365L166.43 10.4059C166.551 12.0088 166.612 13.4749 166.612 14.8041V24.636H163.79V5.72284H167.561L176.879 20.717H176.956C176.939 20.5182 176.904 19.7955 176.852 18.5488C176.8 17.302 176.774 16.3298 176.774 15.6321V5.72284H179.623V24.636Z" fill="url(#paint12_linear_402_230)"/>
<path d="M115.937 43.0988C115.937 45.7027 115.212 47.6899 113.761 49.0603C112.31 50.4307 110.219 51.1188 107.487 51.1247H103.05V35.3688H107.947C110.461 35.3688 112.422 36.0445 113.83 37.3957C115.238 38.747 115.94 40.648 115.937 43.0988ZM113.209 43.1849C113.209 39.4123 111.434 37.526 107.884 37.526H105.646V48.9631H107.487C111.302 48.9631 113.209 47.0371 113.209 43.1849Z" fill="url(#paint13_linear_402_230)"/>
<path d="M127.409 51.1313H118.451V35.3688H127.409V37.5481H121.04V41.8381H127.01V43.993H121.04V48.9432H127.409V51.1313Z" fill="url(#paint14_linear_402_230)"/>
<path d="M140.187 46.8501C140.187 48.2529 139.678 49.3532 138.659 50.151C137.64 50.9488 136.235 51.3477 134.444 51.3477C132.651 51.3477 131.185 51.0709 130.045 50.5175V48.0887C130.783 48.4324 131.554 48.6995 132.347 48.8858C133.09 49.0713 133.852 49.1692 134.617 49.1773C135.642 49.1773 136.398 48.9837 136.886 48.5966C137.123 48.4115 137.312 48.1735 137.439 47.9019C137.566 47.6303 137.627 47.3327 137.616 47.0333C137.62 46.7505 137.563 46.4701 137.448 46.2113C137.333 45.9525 137.164 45.7216 136.951 45.5342C136.507 45.1235 135.583 44.6385 134.178 44.0791C132.731 43.4903 131.713 42.828 131.123 42.092C130.523 41.323 130.21 40.3712 130.235 39.3983C130.235 38.0824 130.705 37.0468 131.644 36.2917C132.583 35.5366 133.84 35.1598 135.416 35.1613C136.978 35.1715 138.521 35.5093 139.943 36.1526L139.12 38.2546C137.711 37.6658 136.454 37.3714 135.349 37.3714C134.51 37.3714 133.876 37.5525 133.441 37.9146C133.23 38.0893 133.061 38.3098 132.948 38.5593C132.836 38.8089 132.782 39.0807 132.791 39.3541C132.78 39.7217 132.871 40.0853 133.053 40.4051C133.271 40.7415 133.563 41.024 133.907 41.2309C134.593 41.63 135.31 41.9727 136.052 42.2554C136.957 42.598 137.816 43.0503 138.61 43.6022C139.113 43.9737 139.521 44.4578 139.801 45.0153C140.065 45.5908 140.197 46.2176 140.187 46.8501Z" fill="url(#paint15_linear_402_230)"/>
<path d="M143.473 51.1313V35.3688H146.058V51.1313H143.473Z" fill="url(#paint16_linear_402_230)"/>
<path d="M156.943 42.5822H162.771V50.4954C161.876 50.7919 160.957 51.0135 160.025 51.1578C159.083 51.2911 158.132 51.3561 157.181 51.3521C154.785 51.3521 152.936 50.6456 151.635 49.2325C150.333 47.8194 149.684 45.8271 149.687 43.2556C149.687 40.7194 150.42 38.7323 151.885 37.2941C153.351 35.856 155.369 35.1363 157.94 35.1348C159.555 35.1269 161.155 35.4493 162.64 36.082L161.731 38.2281C160.526 37.6571 159.21 37.3557 157.875 37.3449C156.185 37.3449 154.849 37.8726 153.866 38.928C152.884 39.9834 152.393 41.4281 152.393 43.2622C152.393 45.189 152.837 46.6536 153.725 47.656C154.612 48.6584 155.885 49.1596 157.545 49.1596C158.449 49.1519 159.35 49.0476 160.231 48.8483V44.7923H156.948L156.943 42.5822Z" fill="url(#paint17_linear_402_230)"/>
<path d="M180 51.1313H176.814L169.027 38.5703H168.941L168.994 39.2725C169.096 40.6075 169.147 41.8293 169.145 42.9376V51.1313H166.796V35.3688H169.937L177.702 47.8636H177.766C177.753 47.7002 177.724 47.0974 177.679 46.0597C177.635 45.0219 177.615 44.2094 177.615 43.6309V35.3733H180V51.1313Z" fill="url(#paint18_linear_402_230)"/>
<defs>
<linearGradient id="paint0_linear_402_230" x1="29.7917" y1="8.56165" x2="29.7917" y2="49.4173" gradientUnits="userSpaceOnUse">
<stop stop-color="#00D2FF"/>
<stop offset="1" stop-color="#FE8FAA"/>
</linearGradient>
<linearGradient id="paint1_linear_402_230" x1="46.0508" y1="0.632907" x2="46.0508" y2="32.6127" gradientUnits="userSpaceOnUse">
<stop stop-color="#00D2FF"/>
<stop offset="1" stop-color="#FE8FAA"/>
</linearGradient>
<linearGradient id="paint2_linear_402_230" x1="14.7283" y1="24.3661" x2="14.7283" y2="56.3436" gradientUnits="userSpaceOnUse">
<stop stop-color="#00D2FF"/>
<stop offset="1" stop-color="#FE8FAA"/>
</linearGradient>
<linearGradient id="paint3_linear_402_230" x1="30.3907" y1="1.9577" x2="30.3907" y2="55.0211" gradientUnits="userSpaceOnUse">
<stop stop-color="#00D2FF"/>
<stop offset="1" stop-color="#FE8FAA"/>
</linearGradient>
<linearGradient id="paint4_linear_402_230" x1="65.3314" y1="24.0835" x2="65.3314" y2="56.3635" gradientUnits="userSpaceOnUse">
<stop stop-color="#00D2FF"/>
<stop offset="1" stop-color="#FE8FAA"/>
</linearGradient>
<linearGradient id="paint5_linear_402_230" x1="74.618" y1="26.5872" x2="74.618" y2="48.2537" gradientUnits="userSpaceOnUse">
<stop stop-color="#00D2FF"/>
<stop offset="1" stop-color="#FE8FAA"/>
</linearGradient>
<linearGradient id="paint6_linear_402_230" x1="68.1954" y1="2.53619" x2="68.1954" y2="26.2472" gradientUnits="userSpaceOnUse">
<stop stop-color="#00D2FF"/>
<stop offset="1" stop-color="#FE8FAA"/>
</linearGradient>
<linearGradient id="paint7_linear_402_230" x1="67.9226" y1="2.28449" x2="67.9226" y2="26.7462" gradientUnits="userSpaceOnUse">
<stop stop-color="#29ABE2"/>
<stop offset="1" stop-color="#FF7BAC"/>
</linearGradient>
<linearGradient id="paint8_linear_402_230" x1="110.287" y1="5.72284" x2="110.287" y2="24.636" gradientUnits="userSpaceOnUse">
<stop stop-color="#00D2FF"/>
<stop offset="1" stop-color="#FE8FAA"/>
</linearGradient>
<linearGradient id="paint9_linear_402_230" x1="127.072" y1="5.72284" x2="127.072" y2="24.636" gradientUnits="userSpaceOnUse">
<stop stop-color="#00D2FF"/>
<stop offset="1" stop-color="#FE8FAA"/>
</linearGradient>
<linearGradient id="paint10_linear_402_230" x1="144.358" y1="5.64335" x2="144.358" y2="24.636" gradientUnits="userSpaceOnUse">
<stop stop-color="#00D2FF"/>
<stop offset="1" stop-color="#FE8FAA"/>
</linearGradient>
<linearGradient id="paint11_linear_402_230" x1="157.219" y1="5.72284" x2="157.219" y2="24.636" gradientUnits="userSpaceOnUse">
<stop stop-color="#00D2FF"/>
<stop offset="1" stop-color="#FE8FAA"/>
</linearGradient>
<linearGradient id="paint12_linear_402_230" x1="171.707" y1="5.72284" x2="171.707" y2="24.636" gradientUnits="userSpaceOnUse">
<stop stop-color="#00D2FF"/>
<stop offset="1" stop-color="#FE8FAA"/>
</linearGradient>
<linearGradient id="paint13_linear_402_230" x1="109.497" y1="35.3688" x2="109.497" y2="51.1313" gradientUnits="userSpaceOnUse">
<stop stop-color="#00D2FF"/>
<stop offset="1" stop-color="#FE8FAA"/>
</linearGradient>
<linearGradient id="paint14_linear_402_230" x1="122.93" y1="35.3688" x2="122.93" y2="51.1313" gradientUnits="userSpaceOnUse">
<stop stop-color="#00D2FF"/>
<stop offset="1" stop-color="#FE8FAA"/>
</linearGradient>
<linearGradient id="paint15_linear_402_230" x1="135.116" y1="35.1436" x2="135.116" y2="51.3477" gradientUnits="userSpaceOnUse">
<stop stop-color="#00D2FF"/>
<stop offset="1" stop-color="#FE8FAA"/>
</linearGradient>
<linearGradient id="paint16_linear_402_230" x1="144.769" y1="35.3688" x2="144.769" y2="51.1313" gradientUnits="userSpaceOnUse">
<stop stop-color="#00D2FF"/>
<stop offset="1" stop-color="#FE8FAA"/>
</linearGradient>
<linearGradient id="paint17_linear_402_230" x1="156.229" y1="35.1436" x2="156.229" y2="51.3477" gradientUnits="userSpaceOnUse">
<stop stop-color="#00D2FF"/>
<stop offset="1" stop-color="#FE8FAA"/>
</linearGradient>
<linearGradient id="paint18_linear_402_230" x1="173.391" y1="35.3688" x2="173.391" y2="51.1313" gradientUnits="userSpaceOnUse">
<stop stop-color="#00D2FF"/>
<stop offset="1" stop-color="#FE8FAA"/>
</linearGradient>
</defs>
</svg>
