<svg width="61" height="62" viewBox="0 0 61 62" fill="none" xmlns="http://www.w3.org/2000/svg">
<g clip-path="url(#clip0_438_4507)">
<path d="M11.5082 17.2133C9.612 18.6531 9.26605 21.3917 10.7358 23.3274L17.8351 32.6771C18.3232 33.3199 17.7037 31.4608 17.0741 31.9389C16.4444 32.417 17.2114 31.826 17.0741 31.9389L16.1836 32.615L15.186 34.0744C14.6336 35.1958 13.8658 36.9578 14.9196 38.3457L17.0272 41.1213C19.1348 43.897 22.3407 45.6084 25.7779 45.797L31.6612 46.1318L36.9857 53.1441C37.9674 54.437 39.7837 54.7046 41.0502 53.7429L52.4989 45.0499C53.7654 44.0882 53.9955 42.2667 53.0138 40.9738L47.1735 33.2822C49.4756 29.3462 49.2927 24.1878 46.3143 20.2653L40.1024 12.0843C38.6326 10.1487 35.9018 9.74632 34.0056 11.1861C33.1183 11.8598 32.5776 12.8116 32.3909 13.8286C30.8795 12.1203 28.3168 11.8206 26.5065 13.1952C25.6192 13.8689 25.0785 14.8207 24.8918 15.8377C23.3803 14.1294 20.8176 13.8297 19.0073 15.2043C18.12 15.878 17.5793 16.8298 17.3926 17.8468C15.8812 16.1385 13.3185 15.8388 11.5082 17.2133Z" fill="#0033D9"/>
<ellipse cx="1.90404" cy="1.91957" rx="1.90404" ry="1.91957" transform="matrix(0.378769 -0.925491 0.920016 0.391881 22.8125 27.8744)" fill="white"/>
<ellipse cx="1.26936" cy="1.27971" rx="1.26936" ry="1.27971" transform="matrix(0.378769 -0.925491 0.920016 0.391881 33.0605 31.5494)" fill="white"/>
<ellipse cx="1.26936" cy="1.27971" rx="1.26936" ry="1.27971" transform="matrix(0.378769 -0.925491 0.920016 0.391881 29.0371 32.9387)" fill="white"/>
<ellipse cx="0.634681" cy="0.639857" rx="0.634681" ry="0.639857" transform="matrix(0.378769 -0.925491 0.920016 0.391881 31.4668 23.6255)" fill="white"/>
<ellipse cx="0.634681" cy="0.639857" rx="0.634681" ry="0.639857" transform="matrix(-0.57359 -0.819143 0.82721 -0.561893 29.502 29.3035)" fill="white"/>
<ellipse cx="0.428558" cy="0.432053" rx="0.428558" ry="0.432053" transform="matrix(0.378769 -0.925491 0.920016 0.391881 31.4395 25.4198)" fill="white"/>
<ellipse cx="0.428558" cy="0.432053" rx="0.428558" ry="0.432053" transform="matrix(-0.57359 -0.819143 0.82721 -0.561893 30.998 30.297)" fill="white"/>
<ellipse cx="1.90404" cy="1.91957" rx="1.90404" ry="1.91957" transform="matrix(0.378769 -0.925491 0.920016 0.391881 32.9668 28.4037)" fill="white"/>
</g>
<defs>
<clipPath id="clip0_438_4507">
<rect width="40.2499" height="46.9582" fill="white" transform="translate(0.273438 24.3405) rotate(-37.2097)"/>
</clipPath>
</defs>
</svg>
