<svg width="48" height="48" viewBox="0 0 48 48" fill="none" xmlns="http://www.w3.org/2000/svg">
<path d="M44.25 6H3.75C2.5125 6 1.5 7.0125 1.5 8.25V19.5C1.5 31.875 11.625 42 24 42C36.375 42 46.5 31.875 46.5 19.5V8.25C46.5 7.0125 45.4875 6 44.25 6ZM6 10.5H42V15H30.75V19.5H42C42 20.265 42 21.0075 41.865 21.75C37.7338 21.7829 33.7812 23.4387 30.8599 26.3599C27.9387 29.2812 26.2829 33.2338 26.25 37.365C25.5075 37.5 24.765 37.5 24 37.5C23.235 37.5 22.4925 37.5 21.75 37.365C21.7171 33.2338 20.0613 29.2812 17.1401 26.3599C14.2188 23.4387 10.2662 21.7829 6.135 21.75C6 21.0075 6 20.265 6 19.5H17.25V15H6V10.5ZM30.84 36.15C31.1415 33.6491 32.2749 31.3222 34.0581 29.543C35.8414 27.7638 38.1709 26.6358 40.6725 26.34C38.8007 30.7808 35.2626 34.3109 30.8175 36.1725M7.35 26.34C12.48 26.9475 16.575 31.02 17.1825 36.1725C12.7326 34.3143 9.19807 30.7717 7.35 26.3175V26.34Z" fill="#E1205C"/>
</svg>
