<svg width="48" height="48" viewBox="0 0 48 48" fill="none" xmlns="http://www.w3.org/2000/svg">
<path fill-rule="evenodd" clip-rule="evenodd" d="M20.3534 5.00266C21.2378 5.0163 21.4918 5.03903 22.0316 5.13452C22.3808 5.20272 22.9206 5.33003 23.2335 5.42096C23.5465 5.5119 23.9955 5.67103 24.2314 5.76652C24.4672 5.862 24.8165 6.02568 25.0024 6.12571C25.1884 6.22574 25.5377 6.43944 25.7735 6.59857C26.0094 6.75771 26.3677 7.02597 26.5627 7.19875C26.7623 7.36698 27.0617 7.67161 27.2295 7.87167C27.4018 8.07173 27.6558 8.42638 27.801 8.65826C28.055 9.06292 28.0731 9.08111 28.2908 9.14476C28.4178 9.18114 28.6129 9.27207 28.7353 9.34937C28.8533 9.42212 28.9803 9.54488 29.0165 9.62218C29.0528 9.69947 29.0846 9.84497 29.0846 9.95409C29.0846 10.0587 29.0438 10.2269 28.9939 10.3269C28.9485 10.427 28.7898 10.6225 28.6446 10.7634C28.4723 10.9271 28.2455 11.0817 27.996 11.2045C27.7602 11.3181 27.4608 11.4227 27.2249 11.4682C26.9664 11.5182 26.7079 11.5364 26.4312 11.5227C26.1137 11.5045 25.964 11.4727 25.7508 11.3772C25.6012 11.309 25.4288 11.209 25.3698 11.1544C25.3109 11.0999 25.2338 10.9862 25.202 10.9089C25.1657 10.8271 25.1385 10.7043 25.1385 10.6361C25.1385 10.5634 25.1793 10.427 25.2202 10.3269C25.2655 10.2269 25.3744 10.0678 25.6148 9.7995L25.2519 9.43576C25.0523 9.23115 24.7167 8.93561 24.5035 8.77648C24.2903 8.61279 23.8821 8.36272 23.5964 8.21722C23.3106 8.07173 22.8888 7.88986 22.6666 7.81256C22.4443 7.73527 22.0996 7.63978 21.9091 7.60341C21.7141 7.56249 21.3467 7.50793 21.0927 7.48065C20.8296 7.45337 20.4169 7.44427 20.1492 7.46246C19.8862 7.48065 19.4598 7.53066 19.1967 7.58068C18.9337 7.62614 18.5481 7.72163 18.335 7.79437C18.1218 7.86712 17.8088 7.99443 17.6319 8.07173C17.455 8.15357 17.1602 8.30816 16.9743 8.41728C16.7883 8.5264 16.43 8.78557 16.185 8.99472C15.9356 9.20387 15.6226 9.50396 15.4865 9.66764C15.3505 9.83133 15.1418 10.1087 15.0239 10.2815C14.906 10.4542 14.7155 10.7861 14.6021 11.0089C14.4887 11.2317 14.3254 11.6318 14.2347 11.8956C14.1485 12.1593 14.0351 12.5776 13.9807 12.8276C13.9081 13.1687 13.8764 13.5142 13.8582 14.2144C13.8401 14.8191 13.8492 15.3329 13.8854 15.6694C13.9172 15.9558 13.9852 16.406 14.0306 16.6697C14.0805 16.9334 14.1893 17.4153 14.2755 17.7382C14.3617 18.061 14.5204 18.5975 14.6293 18.9203C14.7427 19.2431 14.915 19.716 15.0148 19.9661C15.1146 20.2161 15.3097 20.6663 15.4503 20.9664C15.5954 21.2664 16.0218 22.1167 16.4073 22.8533C16.7928 23.5898 17.2419 24.4901 17.4097 24.8538C17.573 25.2176 17.8587 25.8723 18.0401 26.3088C18.2261 26.7453 18.4801 27.3909 18.6071 27.741C18.7386 28.0911 18.9427 28.6868 19.0607 29.0596C19.1831 29.437 19.3646 30.0372 19.4689 30.4009C19.5687 30.7646 19.7229 31.3876 19.8091 31.7877C19.8952 32.1878 20.0041 32.7607 20.054 33.0608C20.1039 33.3609 20.181 33.8928 20.2264 34.2429C20.2899 34.7522 20.308 35.1977 20.308 36.4481C20.308 37.7076 20.2899 38.1213 20.2264 38.5396C20.181 38.8261 20.1039 39.2671 20.054 39.5172C20.0041 39.7673 19.8998 40.1992 19.8272 40.472C19.7501 40.7448 19.6186 41.1677 19.5279 41.4041C19.4417 41.6405 19.2421 42.0997 18.8112 43H15.3414C13.4319 43 11.858 42.9818 11.8353 42.9636C11.8172 42.9454 12.0439 42.6817 12.3388 42.3816C12.6291 42.0816 13.069 41.6087 13.3094 41.3359C13.5498 41.0631 13.8355 40.7221 13.9444 40.5857C14.0578 40.4493 14.2846 40.131 14.4569 39.8809C14.6248 39.6308 14.9105 39.1216 15.0919 38.7442C15.2734 38.3714 15.5002 37.8485 15.5909 37.5848C15.6816 37.3211 15.8131 36.8801 15.8857 36.6072C15.9583 36.3344 16.058 35.8707 16.1079 35.5842C16.1578 35.2978 16.2213 34.8249 16.2485 34.5385C16.2712 34.252 16.2939 33.6973 16.2939 33.3108C16.2939 32.9244 16.2712 32.3287 16.2485 31.9923C16.2213 31.6558 16.1488 31.0602 16.0898 30.6737C16.0308 30.2872 15.931 29.7234 15.863 29.4234C15.795 29.1233 15.6498 28.5595 15.541 28.173C15.3913 27.6501 15.2598 27.3046 15.0284 26.8317C14.8515 26.4816 14.5386 25.9087 14.3345 25.5586C14.1258 25.2085 13.8628 24.7902 13.7539 24.6265C13.645 24.4628 13.3548 24.0854 13.1144 23.7854C12.874 23.4853 12.434 23.0033 12.1392 22.7169C11.8398 22.4304 11.477 22.0985 11.3273 21.9848C11.1776 21.8712 10.9055 21.6802 10.7241 21.562C10.5472 21.4483 10.207 21.2574 9.97567 21.1437C9.74888 21.0255 9.35427 20.8663 9.10481 20.7799C8.85535 20.6981 8.49703 20.5981 8.31106 20.5572C8.1251 20.5162 7.68514 20.4708 7.33589 20.4571C6.97757 20.4435 6.51492 20.4526 6.27 20.4799C6.03414 20.5071 5.64861 20.5799 5.00454 20.739L5 17.8973L5.14514 17.8518C5.22679 17.8291 5.44903 17.7791 5.635 17.7427C5.82096 17.7063 6.1566 17.6518 6.38339 17.6199C6.64192 17.5881 7.05014 17.5745 7.49464 17.5927C7.88017 17.6063 8.37003 17.6518 8.5832 17.6927C8.79638 17.7336 9.16377 17.82 9.39963 17.8837C9.63549 17.9473 9.99381 18.0655 10.1934 18.1474C10.393 18.2292 10.7104 18.3702 10.8964 18.4656C11.0824 18.5566 11.3999 18.7339 11.5994 18.8567C11.799 18.9749 11.9804 19.0749 12.0077 19.0749C12.0349 19.0795 11.985 18.8294 11.9033 18.5202C11.8217 18.2156 11.6947 17.6609 11.6176 17.2835C11.5405 16.9106 11.4362 16.3059 11.3908 15.9422C11.3409 15.5784 11.291 14.8555 11.2729 14.3281C11.2547 13.7097 11.2638 13.1823 11.3001 12.8276C11.3318 12.5276 11.4044 12.0274 11.4679 11.7137C11.5314 11.4 11.6629 10.8998 11.7627 10.5997C11.858 10.2996 12.0712 9.79041 12.2344 9.46304C12.3977 9.13567 12.6608 8.69009 12.8241 8.46275C12.9874 8.23996 13.255 7.9035 13.4228 7.71708C13.5952 7.53066 13.8854 7.24422 14.0714 7.08508C14.2574 6.92594 14.6248 6.64859 14.8878 6.47581C15.1509 6.29849 15.5863 6.04842 15.863 5.91201C16.1397 5.78016 16.6069 5.58919 16.9062 5.49371C17.2056 5.39368 17.6546 5.27092 17.9041 5.21636C18.1535 5.1618 18.5708 5.08905 18.8339 5.05267C19.1605 5.00721 19.6367 4.99357 20.3534 5.00266ZM30.595 9.5176L31.484 9.54488C32.0555 9.56307 32.568 9.60399 32.9172 9.66764C33.2166 9.71766 33.652 9.82223 33.8788 9.89498C34.1101 9.97228 34.4095 10.0859 34.5365 10.1496C34.668 10.2178 34.8903 10.3451 35.0264 10.4315C35.1624 10.5179 35.4028 10.7134 35.5616 10.868C35.7203 11.0226 35.938 11.2772 36.0469 11.4409C36.1557 11.6046 36.3372 11.9319 36.446 12.1684C36.5594 12.4048 36.7136 12.7867 36.7953 13.0095C36.8724 13.2323 37.14 14.2371 37.3895 15.2374C37.6389 16.2377 37.9247 17.3335 38.0244 17.67C38.1288 18.0064 38.2966 18.5202 38.4054 18.8066C38.5143 19.0931 38.6957 19.5432 38.8091 19.8069C38.9271 20.0706 39.1176 20.4571 39.2309 20.6708C39.3443 20.8845 39.5122 21.1801 39.6029 21.3301C39.6981 21.4801 39.807 21.6575 39.9249 21.853L39.7526 21.9394C39.6618 21.9848 39.3716 22.0985 39.1085 22.194C38.8454 22.2895 38.4191 22.4122 38.156 22.4713C37.8929 22.5305 37.4257 22.5987 37.1128 22.6259C36.7091 22.6623 36.3961 22.6578 36.0242 22.6259C35.7385 22.5987 35.4981 22.5714 35.4935 22.5668C35.489 22.5623 35.5162 22.3213 35.5616 22.0349C35.6205 21.6393 35.6387 21.2164 35.6387 20.2843C35.6387 19.3477 35.616 18.9249 35.557 18.5111C35.5117 18.211 35.4255 17.7291 35.362 17.4426C35.2985 17.1562 35.1488 16.6333 35.0354 16.2832C34.9084 15.8922 34.6862 15.3602 34.4549 14.8964C34.2054 14.4008 33.9559 13.9825 33.7201 13.6688C33.525 13.4051 33.1622 12.9959 32.9127 12.7594C32.6633 12.523 32.3185 12.232 32.1462 12.1184C31.9693 12.0047 31.7062 11.8455 31.5565 11.7728C31.4069 11.6955 31.103 11.5682 30.8762 11.4909C30.6494 11.4136 30.4271 11.3499 30.3773 11.3499C30.3274 11.3499 30.2593 11.3318 30.2276 11.3136C30.1868 11.2908 30.2049 11.2181 30.3047 11.0317C30.3818 10.8953 30.4725 10.6588 30.5088 10.5088C30.5496 10.3588 30.5859 10.0723 30.5904 9.87679L30.595 9.5176ZM23.7551 11.4454C23.7778 11.4409 23.8595 11.5546 23.9366 11.7C24.0137 11.8455 24.1996 12.0774 24.3765 12.2457C24.5806 12.4366 24.7983 12.5867 25.3653 12.8504L25.1703 13.0686C25.0614 13.1868 24.8891 13.4051 24.7893 13.5551C24.6895 13.7052 24.5262 13.9825 24.4355 14.1689C24.3402 14.3554 24.1951 14.7146 24.1135 14.9646C24.0273 15.2147 23.9184 15.6603 23.8685 15.9558C23.8005 16.3468 23.7778 16.6879 23.7778 17.2289C23.7778 17.6336 23.805 18.1792 23.8413 18.4429C23.8776 18.7066 23.9547 19.1567 24.0182 19.4432C24.0862 19.7296 24.2178 20.2116 24.313 20.5117C24.4128 20.8118 24.5942 21.3028 24.7258 21.6029C24.8528 21.903 25.0478 22.3122 25.1521 22.5123C25.261 22.7123 25.4651 23.0715 25.6148 23.3079C25.7599 23.5444 26.0411 23.9536 26.599 24.6947L26.3768 24.8993C26.2543 25.013 25.9686 25.2312 25.7463 25.3813C25.5241 25.5359 25.1385 25.7632 24.8891 25.886C24.6396 26.0133 24.2813 26.1724 24.0953 26.2361C23.9048 26.3043 23.6009 26.3952 23.415 26.4452C23.2245 26.4907 22.9296 26.5498 22.7573 26.5771C22.5804 26.5998 22.3445 26.6362 22.0316 26.6771L21.9953 25.595C21.9817 24.9993 21.9318 24.2764 21.8955 23.99C21.8547 23.7035 21.7821 23.2443 21.7322 22.9669C21.6823 22.6941 21.5508 22.1076 21.4419 21.6711C21.3285 21.2346 21.1063 20.4162 20.9385 19.8524C20.7752 19.2886 20.562 18.5247 20.4622 18.1474C20.367 17.7745 20.2581 17.2517 20.2173 16.9879C20.181 16.7242 20.1492 16.3105 20.1492 16.0695C20.1492 15.824 20.1765 15.4739 20.2127 15.2965C20.2445 15.1147 20.3216 14.8328 20.3806 14.6691C20.4395 14.5054 20.5756 14.2326 20.6799 14.0553C20.7842 13.8825 20.9884 13.5961 21.1335 13.4187C21.2786 13.246 21.6007 12.9322 21.8501 12.7231C22.0996 12.5139 22.4625 12.2366 22.662 12.1093C22.8571 11.9774 23.1746 11.7773 23.3651 11.6591C23.551 11.5455 23.7279 11.4454 23.7551 11.4454ZM29.4474 12.7322C29.8148 12.7458 30.0598 12.7822 30.2865 12.8504C30.4589 12.9049 30.7038 13.005 30.8308 13.0686C30.9533 13.1277 31.1665 13.2596 31.3071 13.3505C31.4431 13.446 31.6745 13.6324 31.8241 13.7688C31.9693 13.9007 32.2142 14.1735 32.3684 14.3735C32.5226 14.5736 32.7449 14.8919 32.8583 15.0783C32.9762 15.2647 33.1486 15.5921 33.2484 15.8058C33.3436 16.0195 33.4887 16.3787 33.5704 16.6015C33.652 16.8288 33.7745 17.2471 33.8425 17.5336C33.9151 17.82 34.0104 18.2929 34.0557 18.5793C34.1192 18.984 34.1374 19.3568 34.1374 20.2389C34.1374 21.1982 34.1192 21.462 34.0376 21.9439C33.9831 22.2576 33.8879 22.7169 33.8199 22.9669C33.7564 23.217 33.6294 23.6171 33.5432 23.8536C33.4525 24.09 33.2801 24.481 33.1622 24.7174C33.0397 24.9539 32.8447 25.2949 32.7222 25.4768C32.6043 25.6586 32.3866 25.9451 32.2369 26.1179C32.0056 26.3907 31.9466 26.4316 31.8514 26.4134C31.7879 26.3998 31.5429 26.327 31.3071 26.2497C31.0667 26.1724 30.6902 26.0133 30.468 25.8996C30.2412 25.7859 29.8829 25.5768 29.6742 25.4358C29.461 25.2949 29.071 24.9948 28.8124 24.772C28.5494 24.5492 28.1593 24.1673 27.9507 23.9218C27.7375 23.6808 27.4336 23.3034 27.2748 23.0852C27.1161 22.8715 26.8757 22.4986 26.7351 22.2622C26.5945 22.0258 26.3722 21.6075 26.2407 21.3301C26.1137 21.0573 25.9323 20.6254 25.837 20.3753C25.7463 20.1252 25.6148 19.6978 25.5422 19.4205C25.4742 19.1477 25.3834 18.6884 25.3426 18.4111C25.3063 18.1292 25.2746 17.6063 25.2746 17.2517C25.2746 16.8925 25.3018 16.4196 25.3381 16.1923C25.3744 15.9695 25.456 15.6239 25.5195 15.4329C25.583 15.2374 25.7055 14.9419 25.7871 14.7737C25.8733 14.6009 26.0547 14.3235 26.1908 14.1462C26.3269 13.9734 26.5763 13.7234 26.7487 13.5961C26.9211 13.4642 27.2068 13.2914 27.3837 13.205C27.556 13.1141 27.8327 13.0004 27.996 12.9459C28.1548 12.8958 28.4314 12.8186 28.6083 12.7822C28.817 12.7367 29.0937 12.7231 29.4474 12.7322ZM36.6592 25.0175C36.7953 25.0312 36.9676 25.0675 37.0447 25.0994C37.1173 25.1312 37.2625 25.2267 37.3622 25.3176C37.462 25.404 37.589 25.5722 37.6435 25.6859C37.6979 25.8041 37.7568 26.0269 37.775 26.1861C37.7977 26.3998 37.7841 26.5271 37.7206 26.718C37.6661 26.8772 37.5709 27.0318 37.453 27.1545C37.3441 27.2636 37.1763 27.3682 37.0447 27.4137C36.9177 27.4591 36.7136 27.491 36.5912 27.491C36.4642 27.491 36.2691 27.4591 36.1603 27.4228C36.0469 27.3864 35.8745 27.2864 35.7747 27.2091C35.6795 27.1272 35.5525 26.959 35.4935 26.8317C35.4164 26.6635 35.3892 26.5225 35.3847 26.2861C35.3847 26.1133 35.4164 25.8814 35.4527 25.7768C35.4935 25.6677 35.5661 25.5177 35.6205 25.4404C35.675 25.3676 35.7929 25.2585 35.8836 25.204C35.9698 25.1539 36.1285 25.0812 36.2283 25.0494C36.3372 25.0175 36.505 25.0039 36.6592 25.0175ZM40.4238 28.0457C40.6688 28.0548 40.7549 28.0821 40.891 28.1866C40.9817 28.2548 41.0997 28.3958 41.1541 28.5049C41.2085 28.6186 41.2493 28.7868 41.2493 28.9232C41.2493 29.0687 41.213 29.2233 41.1541 29.3461C41.0997 29.4506 40.9908 29.587 40.9092 29.6461C40.8275 29.7098 40.6688 29.7916 40.5599 29.8326C40.4374 29.8735 40.2878 29.8962 40.1971 29.878C40.1063 29.8644 39.9476 29.7962 39.8433 29.728C39.7299 29.6598 39.6029 29.5188 39.5394 29.4006C39.4577 29.2551 39.426 29.1278 39.426 28.9459C39.426 28.7595 39.4532 28.6459 39.5394 28.5049C39.6119 28.3776 39.7344 28.2594 39.8886 28.173C40.0973 28.0502 40.1608 28.032 40.4238 28.0457ZM34.1646 28.1639C34.2235 28.1775 34.3188 28.2003 34.3687 28.2185C34.4186 28.2366 34.5274 28.3094 34.6136 28.3821C34.6998 28.4549 34.8041 28.5958 34.8495 28.6959C34.8948 28.7959 34.9311 28.9687 34.9311 29.0823C34.9356 29.2187 34.8903 29.3688 34.8086 29.537C34.7179 29.7143 34.6272 29.8189 34.4821 29.9099C34.3687 29.9826 34.219 30.0372 34.0285 30.0372V30.3918C34.0285 30.6874 34.0104 30.7783 33.9015 30.992C33.8153 31.1602 33.7065 31.2875 33.5704 31.383C33.4615 31.4603 33.2574 31.5467 33.1214 31.5785C32.9807 31.6058 32.7812 31.6194 32.6678 31.6013C32.5544 31.5831 32.3684 31.524 32.2596 31.4694C32.1462 31.4148 31.9874 31.2875 31.9058 31.192C31.8241 31.0966 31.7244 30.9011 31.6835 30.7646C31.6382 30.6055 31.62 30.4145 31.6336 30.2418C31.6473 30.0599 31.6971 29.8871 31.7833 29.7234C31.8559 29.587 31.9874 29.4234 32.0736 29.3597C32.1598 29.296 32.3049 29.2187 32.3911 29.1869C32.4818 29.1551 32.6814 29.1324 32.8356 29.1278C33.0987 29.1278 33.1168 29.1187 33.1168 29.0278C33.1168 28.9687 33.1758 28.8141 33.2438 28.6777C33.3255 28.514 33.4298 28.3867 33.5477 28.3139C33.6475 28.2503 33.8017 28.1821 33.8879 28.1684C33.9786 28.1548 34.1011 28.1503 34.1646 28.1639ZM26.5627 28.5004C26.6897 28.5231 26.8802 28.5867 26.9846 28.6504C27.0889 28.7141 27.2249 28.8323 27.2839 28.9141C27.3429 28.9914 27.429 29.1324 27.4699 29.2187C27.5152 29.3051 27.5606 29.4688 27.5742 29.5825C27.5878 29.7007 27.5697 29.8917 27.5288 30.0372C27.488 30.1736 27.3882 30.3782 27.302 30.4918C27.2204 30.6055 27.0571 30.7556 26.9483 30.8238C26.8077 30.9101 26.6625 30.9602 26.4766 30.9738C26.2634 30.9965 26.1454 30.9783 25.9549 30.9056C25.8098 30.851 25.6193 30.7328 25.5014 30.6192C25.3925 30.51 25.2655 30.3418 25.2202 30.2418C25.1703 30.1326 25.1385 29.9508 25.1385 29.7871C25.1385 29.5916 25.1703 29.4461 25.2519 29.2642C25.3154 29.1278 25.4424 28.9368 25.5377 28.8414C25.6284 28.7459 25.7644 28.6322 25.8416 28.5958C25.9141 28.5549 26.0547 28.514 26.1545 28.4958C26.2543 28.4776 26.4357 28.4822 26.5627 28.5004ZM9.27263 30.1145C9.3951 30.1827 9.60374 30.3327 9.73074 30.4418C9.85774 30.5509 10.0437 30.7374 10.1344 30.851C10.2297 30.9647 10.3793 31.2057 10.4655 31.3785C10.5517 31.5558 10.656 31.8513 10.6968 32.0377C10.7467 32.2742 10.7603 32.5106 10.7422 32.8107C10.7286 33.0471 10.6878 33.3745 10.6469 33.5382C10.6061 33.7019 10.4519 34.0792 10.3022 34.3793C10.1208 34.7522 9.93031 35.0568 9.70352 35.3342C9.5221 35.5615 9.20006 35.8843 8.98688 36.0525C8.77824 36.2208 8.42899 36.4527 8.22035 36.5618C8.00717 36.6709 7.64885 36.8164 7.4266 36.8801C7.06828 36.9892 6.93221 37.0074 6.38339 37.0074C5.83457 37.0119 5.6985 36.9937 5.02268 36.7891L5.00907 35.6888C5 34.6567 5.00454 34.5839 5.07711 34.6067C5.12246 34.6203 5.29028 34.6567 5.45357 34.684C5.61232 34.7112 5.92075 34.7203 6.13393 34.7067C6.34257 34.6931 6.66007 34.6385 6.83696 34.5839C7.00932 34.5294 7.30414 34.4066 7.49464 34.3066C7.6806 34.2111 7.96635 34.0247 8.1251 33.8928C8.28385 33.761 8.51517 33.5291 8.63763 33.379C8.75556 33.229 8.92338 32.9744 9.00956 32.8107C9.0912 32.647 9.2046 32.3742 9.25902 32.1969C9.32252 31.9877 9.35881 31.7468 9.36335 31.4921C9.36335 31.2784 9.34067 30.9829 9.30892 30.8329C9.27717 30.6828 9.20006 30.4464 9.1411 30.31C9.08213 30.1736 9.03678 30.0417 9.03678 30.0235C9.04131 30.0008 9.14563 30.0417 9.27263 30.1145ZM39.6618 31.674C39.7299 31.674 39.8614 31.7058 39.9567 31.7467C40.0519 31.7831 40.1744 31.8604 40.2333 31.915C40.2923 31.9695 40.3785 32.0969 40.4284 32.1969C40.4737 32.2969 40.51 32.4742 40.51 32.597C40.51 32.7152 40.4919 32.8653 40.4647 32.938C40.4374 33.0062 40.3513 33.129 40.2696 33.2154C40.1925 33.2972 40.0474 33.4063 39.9476 33.4518C39.8478 33.4973 39.6754 33.5382 39.5711 33.5382C39.4668 33.5382 39.3217 33.5154 39.2536 33.4882C39.1856 33.4654 39.0722 33.3881 38.9996 33.3199C38.9271 33.2517 38.8273 33.1153 38.7774 33.0153C38.7229 32.9062 38.6821 32.7425 38.6821 32.6061C38.6821 32.4606 38.7139 32.3242 38.7683 32.2242C38.8182 32.1378 38.9271 32.0105 39.0178 31.9377C39.1039 31.8695 39.2582 31.7786 39.3579 31.7422C39.4577 31.7058 39.5938 31.6785 39.6618 31.674ZM34.3914 33.3699C34.7451 33.3836 34.8585 33.4063 35.049 33.5018C35.1715 33.57 35.3484 33.7019 35.4391 33.7973C35.5298 33.8928 35.6477 34.0565 35.6976 34.1656C35.7521 34.2702 35.811 34.4748 35.8337 34.6203C35.8518 34.7613 35.8518 35.0068 35.8337 35.1659C35.811 35.3205 35.7657 35.516 35.7339 35.5979C35.6976 35.6752 35.6069 35.8297 35.5298 35.9389C35.4527 36.0434 35.2804 36.1889 35.1488 36.2617C35.0173 36.339 34.7905 36.4208 34.6408 36.4481C34.4367 36.4845 34.3052 36.4845 34.1192 36.4436C33.9786 36.4163 33.77 36.3435 33.652 36.2844C33.5341 36.2253 33.3663 36.1026 33.2801 36.0162C33.1894 35.9298 33.0669 35.757 33.008 35.6297C32.9445 35.5069 32.8764 35.2841 32.8537 35.1432C32.8356 34.9977 32.8356 34.7522 32.8537 34.5976C32.8764 34.4384 32.9445 34.2111 33.008 34.0838C33.0669 33.961 33.2075 33.7837 33.3119 33.6973C33.4162 33.6109 33.6067 33.4973 33.7337 33.4472C33.9151 33.3745 34.0376 33.3563 34.3914 33.3699ZM28.8805 34.3157C28.9304 34.3111 29.0438 34.3339 29.139 34.3566C29.2343 34.3839 29.3839 34.4703 29.4746 34.5521C29.5654 34.6294 29.6742 34.7749 29.7241 34.8704C29.7695 34.9613 29.8103 35.1341 29.8103 35.2569C29.8103 35.4024 29.7695 35.5478 29.6833 35.7161C29.6017 35.8828 29.5004 36.004 29.3794 36.0798C29.2751 36.1435 29.1027 36.2026 28.9939 36.2162C28.8487 36.2253 28.7172 36.2026 28.563 36.1344C28.436 36.0798 28.2954 35.998 28.25 35.9571C28.2047 35.9161 28.1275 35.8025 28.0777 35.7115C28.0323 35.6161 27.9915 35.4433 27.9915 35.3251C27.9915 35.175 28.0323 35.0295 28.1185 34.8613C28.1865 34.7249 28.3044 34.5657 28.3815 34.5066C28.4541 34.4521 28.5766 34.3839 28.6537 34.3611C28.7263 34.3384 28.8306 34.3157 28.8805 34.3157ZM41.7709 36.2208C41.9297 36.2208 42.1383 36.2526 42.2472 36.2981C42.3515 36.339 42.5012 36.4208 42.5783 36.4754C42.6509 36.5299 42.7733 36.6845 42.8459 36.8209C42.9321 36.9846 42.982 37.1483 42.9956 37.3347C43.0092 37.5121 42.991 37.703 42.9457 37.8712C42.8913 38.0531 42.8142 38.1941 42.6781 38.3396C42.5647 38.4578 42.4014 38.576 42.2835 38.6215C42.1655 38.6669 41.9569 38.6988 41.8072 38.6942C41.6349 38.6942 41.458 38.6578 41.331 38.5987C41.2176 38.5442 41.0634 38.4441 40.9863 38.3759C40.9092 38.3032 40.7958 38.1531 40.7413 38.0395C40.6642 37.8985 40.6279 37.7303 40.6143 37.4939C40.6007 37.2347 40.6143 37.1028 40.6778 36.9483C40.7232 36.8346 40.8184 36.6754 40.8955 36.5891C40.9727 36.5027 41.1359 36.3845 41.2629 36.3253C41.4217 36.2526 41.5714 36.2208 41.7709 36.2208ZM25.4107 37.1483C25.5195 37.1574 25.7146 37.2074 25.8416 37.262C25.964 37.3165 26.1137 37.4075 26.1727 37.462C26.2316 37.5166 26.3269 37.6439 26.3858 37.7439C26.4403 37.844 26.5128 38.0395 26.5401 38.1759C26.5809 38.3578 26.5809 38.4942 26.5446 38.676C26.5174 38.8124 26.4403 39.017 26.3677 39.1307C26.277 39.2671 26.15 39.3808 25.9912 39.4672C25.8279 39.5581 25.6601 39.6081 25.4787 39.6218C25.3109 39.6354 25.1158 39.6217 24.9798 39.5808C24.8301 39.5399 24.6804 39.4444 24.5353 39.3126C24.3992 39.1898 24.2858 39.0261 24.2359 38.9034C24.1906 38.7761 24.1633 38.5714 24.1633 38.3578C24.1679 38.094 24.1906 37.9667 24.2767 37.794C24.3402 37.6712 24.4536 37.5121 24.5353 37.4393C24.6169 37.3711 24.7394 37.2893 24.8074 37.262C24.8755 37.2347 24.9934 37.1938 25.0705 37.171C25.1431 37.1529 25.2973 37.1392 25.4107 37.1483ZM36.7499 38.3214C36.9948 38.3305 37.081 38.3577 37.2171 38.4623C37.3078 38.5305 37.4257 38.6715 37.4802 38.7806C37.5346 38.8943 37.5754 39.0625 37.5754 39.1989C37.5754 39.3444 37.5391 39.499 37.4802 39.6218C37.4257 39.7263 37.3169 39.8627 37.2352 39.9218C37.1536 39.9855 37.013 40.0673 36.9177 40.1037C36.8225 40.1446 36.691 40.1765 36.6229 40.1765C36.5549 40.1765 36.3961 40.1264 36.2737 40.0719C36.1195 39.9991 35.9985 39.8976 35.9108 39.7673C35.802 39.6127 35.7702 39.5081 35.7521 39.2944C35.7385 39.058 35.7521 38.9852 35.8564 38.8033C35.9426 38.6487 36.0469 38.5442 36.2147 38.4487C36.4233 38.3259 36.4868 38.3077 36.7499 38.3214ZM31.6926 40.3856C31.8151 40.3993 31.992 40.4493 32.0872 40.4993C32.1825 40.5447 32.3412 40.663 32.441 40.7584C32.5453 40.8494 32.6769 41.0312 32.7358 41.154C32.8175 41.3177 32.8492 41.4541 32.8492 41.6542C32.8447 41.8406 32.8129 41.9997 32.7404 42.1543C32.6814 42.2816 32.5453 42.4635 32.4319 42.5635C32.314 42.6681 32.1235 42.7818 31.9829 42.8272C31.8468 42.8681 31.6654 42.9045 31.5792 42.9045C31.4885 42.9045 31.3161 42.8545 31.1937 42.7999C31.0531 42.7363 30.8762 42.5953 30.7492 42.4453C30.6267 42.3089 30.4997 42.1088 30.4634 41.9952C30.4272 41.8815 30.3954 41.6905 30.3954 41.5632C30.3999 41.4223 30.4362 41.254 30.5043 41.1085C30.5632 40.9858 30.6948 40.8039 30.79 40.7084C30.8898 40.6129 31.0758 40.4993 31.2164 40.4493C31.3978 40.3811 31.5248 40.3629 31.6926 40.3856ZM41.0906 40.4493C41.1949 40.4493 41.3491 40.4765 41.4308 40.5084C41.5124 40.5447 41.6576 40.6402 41.7573 40.7266C41.8526 40.813 41.9614 40.9494 41.9932 41.0312C42.0249 41.1085 42.0567 41.2677 42.0567 41.3814C42.0567 41.495 42.0159 41.6632 41.9705 41.7587C41.9206 41.8497 41.8118 41.9952 41.721 42.077C41.6303 42.1543 41.4807 42.2407 41.3854 42.268C41.2902 42.2907 41.1768 42.3134 41.1269 42.3134C41.077 42.3134 40.9409 42.268 40.8321 42.218C40.7187 42.1679 40.569 42.0725 40.4964 42.0043C40.4238 41.9361 40.3377 41.8224 40.2968 41.7451C40.256 41.6723 40.2243 41.495 40.2197 41.3541C40.2197 41.1358 40.2379 41.0722 40.3694 40.8812C40.4556 40.7584 40.6053 40.6129 40.7096 40.5538C40.823 40.4902 40.9681 40.4493 41.0906 40.4493Z" fill="#0033D9"/>
</svg>
