<svg width="48" height="48" viewBox="0 0 48 48" fill="none" xmlns="http://www.w3.org/2000/svg">
<path d="M33.7198 1.65234C29.3893 4.33969 25.4773 7.0725 21.9835 9.84094C19.3112 7.8855 16.434 5.95097 13.3497 4.03706C15.8944 6.58425 18.2112 8.87803 20.4425 11.0888C19.2712 12.0553 18.149 13.0238 17.0792 13.9981C13.0828 10.9852 8.66591 8.01028 3.82822 5.08013C7.94159 9.04106 11.6195 12.5276 15.1017 15.8584C14.1407 16.7933 13.2058 17.7546 12.298 18.7412C9.23206 16.4232 5.87797 14.1321 2.23447 11.8712C5.34303 14.9828 8.15741 17.7617 10.8214 20.4053C6.61522 25.3078 3.65966 30.2829 1.96484 35.2853C6.02909 30.3583 9.59647 26.3 13.0273 22.5967C13.8636 23.431 14.6864 24.2573 15.503 25.081C11.2181 30.0393 8.2145 35.0732 6.5 40.1339C10.6161 35.1441 14.2231 31.0463 17.6943 27.3048C18.5743 28.2053 19.4493 29.1106 20.3193 30.0207C15.6339 35.2537 12.379 40.5728 10.5665 45.923C14.9702 40.5843 18.7912 36.2645 22.4873 32.3116C26.2999 36.386 34.7861 46.3478 34.7861 46.3478C32.9181 40.8341 29.5548 35.3534 24.7108 29.962C25.4853 29.152 26.2586 28.3518 27.0341 27.5567C31.9062 32.5133 36.9198 37.9018 42.7869 44.6895C40.273 38.0436 35.8709 31.4376 29.6004 24.9493C30.3551 24.1888 31.1161 23.4287 31.8885 22.6583C36.2862 27.2744 40.7545 32.2518 46.0361 38.6543C43.9473 32.4892 39.9965 26.3632 34.2029 20.3585C36.7289 17.8529 39.388 15.2263 42.3241 12.2873C38.8465 14.4454 35.6388 16.6322 32.7001 18.8438C31.577 17.7428 30.3914 16.6457 29.1434 15.5538C31.9592 12.7556 34.9341 9.82509 38.2547 6.50109C34.2685 8.97478 30.6366 11.4874 27.3591 14.0303C26.2508 13.1079 25.1237 12.2084 23.9785 11.3322C26.9794 8.34516 30.1507 5.22516 33.7198 1.65234ZM22.338 12.9698C23.2815 13.9053 24.2229 14.8428 25.1623 15.7823C24.2068 16.5671 23.2672 17.371 22.3439 18.1934C21.4013 17.3971 20.4461 16.6157 19.4788 15.8497C20.4206 14.8915 21.3748 13.9342 22.338 12.9698ZM27.0283 17.663C28.0716 18.7175 29.1063 19.7709 30.1368 20.8359C29.2782 21.5236 28.4314 22.2259 27.5968 22.9425C26.6097 21.9848 25.6026 21.0481 24.5761 20.1328C25.3909 19.307 26.2083 18.4836 27.0283 17.663ZM17.3605 18.0263C18.2042 18.8379 19.046 19.6514 19.8858 20.4669C19.0613 21.2626 18.2554 22.0772 17.4688 22.9103C16.5941 22.1564 15.7063 21.4181 14.8057 20.6954C15.6598 19.7907 16.5103 18.9055 17.3605 18.0263ZM22.1183 22.6435C23.0414 23.5515 23.9603 24.4637 24.8751 25.3801C24.0819 26.1214 23.3043 26.8794 22.5431 27.6535C21.6616 26.7553 20.759 25.878 19.836 25.0225C20.5926 24.2256 21.3534 23.4325 22.1183 22.6435Z" fill="#0033D9"/>
</svg>
