<svg width="48" height="48" viewBox="0 0 48 48" fill="none" xmlns="http://www.w3.org/2000/svg">
<path d="M16.8487 5.18612C16.5911 5.28408 16.3026 5.4898 16.1995 5.64653C16.0862 5.80327 15.9625 6.08735 15.9007 6.27347C15.8492 6.45959 15.8183 7.4098 15.8389 8.37959L15.8595 10.1429L19.3115 10.1918C19.3115 9.42776 19.3836 9.05551 19.466 8.86939C19.5485 8.68327 19.7133 8.48735 19.8267 8.42857C19.9503 8.3698 21.5785 8.33061 24.0515 8.33061H28.0703C28.6576 8.80082 28.6885 8.87918 28.7194 9.47673L28.74 10.1429L32.192 10.1918C32.192 6.74367 32.1611 6.2049 32.0478 5.99918C31.9653 5.85224 31.7696 5.61714 31.6047 5.4702C31.4501 5.32327 31.1925 5.15673 31.0379 5.10776C30.8422 5.03918 28.534 5 24.0309 5C17.7143 5 17.2712 5.01959 16.8487 5.18612Z" fill="#0033D9"/>
<path fill-rule="evenodd" clip-rule="evenodd" d="M5.60656 11.6514C5.29742 11.7396 4.79251 11.9453 4.48337 12.1118C4.18454 12.2686 3.68993 12.6408 3.3911 12.9347C3.09227 13.2286 2.7007 13.7576 2.52553 14.1102C2.35035 14.4629 2.16487 14.9918 2.10304 15.2857C2.03091 15.6384 2 19.4784 2 26.2082C2 32.7714 2.04122 36.7878 2.10304 37.1306C2.15457 37.4245 2.36066 37.9731 2.55644 38.3551C2.78314 38.7861 3.13349 39.2465 3.48384 39.5796C3.80328 39.8735 4.23607 40.2163 4.45246 40.3339C4.65855 40.4612 5.13255 40.6571 5.50351 40.7747L6.1733 41H41.9297C42.9705 40.6473 43.4342 40.4514 43.63 40.3339C43.8258 40.2163 44.2173 39.9224 44.4852 39.6776C44.7635 39.4327 45.1138 39.0408 45.2787 38.7959C45.4436 38.551 45.6703 38.0808 45.7836 37.738C46 37.1404 46 37.0033 46 26.2767C46 17.6465 45.9691 15.3347 45.866 14.9429C45.7836 14.6686 45.5878 14.218 45.423 13.9241C45.2581 13.64 44.9799 13.2384 44.8047 13.0424C44.6295 12.8465 44.1967 12.5037 43.8258 12.2686C43.4651 12.0335 42.8674 11.7592 42.4965 11.6514C41.837 11.4653 41.4248 11.4653 24 11.4653C7.29649 11.4751 6.14239 11.4849 5.60656 11.6514ZM22.4028 16.2163C21.9185 16.2849 21.1663 16.4612 20.7232 16.5984C20.2904 16.7355 19.6412 16.9902 19.2909 17.1567C18.9302 17.3233 18.3016 17.6955 17.8792 17.9698C17.467 18.2441 16.7766 18.8123 16.3644 19.2237C15.9419 19.6449 15.3855 20.311 15.1176 20.6931C14.8496 21.0849 14.489 21.7118 14.3035 22.0939C14.118 22.4759 13.8707 23.1323 13.7574 23.5633C13.6337 23.9943 13.4895 24.7682 13.4276 25.2776C13.3452 25.9535 13.3555 26.4923 13.4379 27.2367C13.5101 27.8049 13.6749 28.6376 13.8192 29.098C13.9532 29.5584 14.3035 30.3518 14.5714 30.8612C14.8496 31.3706 15.3752 32.1445 15.7358 32.5755C16.0965 33.0065 16.7148 33.6041 17.1063 33.9078C17.4979 34.2114 18.044 34.6033 18.3326 34.7796C18.6108 34.9657 19.1981 35.2596 19.6206 35.4457C20.0431 35.6318 20.8365 35.8963 21.3724 36.0237C21.9597 36.1608 22.815 36.2882 23.4848 36.3176C24.1752 36.3567 24.9583 36.3274 25.4941 36.2588C25.9785 36.1902 26.741 36.0237 27.1944 35.8865C27.6478 35.7494 28.3382 35.4849 28.74 35.2988C29.1419 35.1029 29.8014 34.7208 30.2239 34.4465C30.6361 34.1723 31.3162 33.6139 31.718 33.2123C32.1199 32.8106 32.6145 32.2327 32.8309 31.9388C33.037 31.6449 33.3667 31.0963 33.5625 30.7143C33.7686 30.3323 34.0365 29.7445 34.1499 29.3918C34.2735 29.0392 34.4384 28.4221 34.5208 28.0204C34.593 27.6188 34.6651 26.8253 34.6651 26.2572C34.6651 25.689 34.6033 24.8759 34.5105 24.4449C34.4281 24.0139 34.2529 23.3576 34.119 22.9755C33.985 22.5935 33.7068 21.9861 33.511 21.6041C33.3049 21.222 32.8721 20.5657 32.5321 20.1347C32.192 19.7037 31.6356 19.1159 31.3059 18.8221C30.9658 18.5282 30.3475 18.0678 29.9251 17.7935C29.5026 17.529 28.7607 17.1372 28.2763 16.9412C27.792 16.7453 27.1016 16.5102 26.7307 16.4318C26.3597 16.3437 25.7415 16.2261 25.3396 16.1674C24.9377 16.1184 24.3194 16.0792 23.9485 16.0792C23.5775 16.089 22.8871 16.1478 22.4028 16.2163Z" fill="#0033D9"/>
<path d="M21.1457 21.8686C21.1354 20.9576 21.1766 20.1837 21.2281 20.1347C21.2796 20.0955 21.8258 20.0857 22.4543 20.1249C23.0726 20.1543 24.3194 20.1837 26.8337 20.1837V23.5143H30.4403V28.902H26.8337V32.3306H21.1663V28.902H17.6628V23.5143H21.1663L21.1457 21.8686Z" fill="#0033D9"/>
</svg>
