<svg width="48" height="48" viewBox="0 0 48 48" fill="none" xmlns="http://www.w3.org/2000/svg">
<path d="M12.7198 1.35651C11.7917 3.00445 11.1354 4.6417 10.7363 6.29882C7.92383 6.30351 5.07814 6.87239 2.27539 8.11223C5.1072 7.99551 7.79286 8.22998 10.3323 8.77448C10.1629 10.6942 10.3166 12.6595 10.7746 14.7188C11.5916 12.8907 12.161 11.0991 12.5148 9.32817C14.3793 9.87698 16.1605 10.5977 17.8585 11.4756C17.0423 13.4737 16.3937 15.5772 15.8986 17.6456C17.5064 16.2557 18.908 14.5957 20.0177 12.7031C21.5208 13.6364 22.9532 14.696 24.3156 15.8699C22.9193 17.6189 21.8261 19.5868 20.9875 21.7792C22.925 20.571 24.7661 19.2817 26.4573 17.8681C27.5613 18.9769 28.6163 20.162 29.6182 21.4189C27.926 22.6855 26.3815 24.1864 24.922 25.9071C27.1101 25.249 29.2264 24.4849 31.2267 23.5605C32.153 24.864 33.0312 26.2296 33.8605 27.6503C31.9923 28.6412 30.3361 29.9159 28.795 31.4207C30.935 30.9932 33.0302 30.4682 35.0528 29.7977C35.8601 31.3193 36.6087 32.8712 37.297 34.4501C35.668 35.006 34.0908 35.8439 32.5392 36.9461C34.4095 36.8431 36.2707 36.6824 38.1027 36.3748C39.3076 39.3644 40.3486 42.491 41.2227 45.7029C41.798 42.4505 41.7233 39.0691 41.1143 35.7126C42.6098 35.2994 44.0796 34.7507 45.5148 34.0164C43.8315 33.6639 42.2311 33.5692 40.6895 33.7145C40.2406 31.8808 39.6376 30.0648 38.8966 28.2917C40.7028 27.4635 42.4278 26.4802 44.05 25.3006C41.761 25.3077 39.7267 25.577 37.886 26.0713C37.0916 24.4589 36.185 22.8955 35.1817 21.3983C37.0708 20.1752 38.8033 18.732 40.3264 17.0009C37.7824 17.406 35.5339 18.1024 33.5002 19.0692C32.3192 17.549 31.0358 16.1192 29.6682 14.8064C31.2198 13.1001 32.5561 11.217 33.6085 9.10242C31.1882 10.1301 29.1282 11.3564 27.38 12.7821C25.582 11.3236 23.67 10.0655 21.6788 9.05554C22.247 7.37554 22.6116 5.56804 22.7247 3.65029C21.494 4.89529 20.4185 6.40204 19.4903 8.06235C17.3556 7.20173 15.1488 6.63145 12.9072 6.4071C13.0247 4.71539 12.9552 3.03632 12.7197 1.35632L12.7198 1.35651Z" fill="#0033D9"/>
</svg>
