<svg width="50" height="50" viewBox="0 0 50 50" fill="none" xmlns="http://www.w3.org/2000/svg">
<path d="M9.97171 8.3656L7.92832 1M42.2893 1L39.9489 7.87922M11.7048 6.48713C10.1269 7.82183 7.08791 11.5887 7.55599 15.9784C8.02406 20.3681 7.07725 23.5088 6.54533 24.5304M38.6723 6.48713C40.1262 7.72297 42.8851 11.4404 42.2893 16.4233C41.5446 22.6519 43.197 24.0855 43.7289 24.4315M9.4708 23.6406C9.96148 24.2347 10.6937 27.0774 11.3397 27.6941M39.7893 24.4809C28.3895 37.1732 17.0895 33.1833 11.3397 27.6941M11.3397 27.6941L5.96024 24.2338C5.69429 24.1184 4.93898 24.0855 4.04539 24.8764C3.15179 25.6674 2.57379 27.0844 2.39648 27.6941C2.58623 28.4378 2.93796 29.6111 3.39702 30.8084M37.183 27.1026C38.5482 26.2951 43.5233 24.3821 44.4169 24.1843C45.3105 23.9866 45.853 24.4315 46.0126 24.6787C46.119 24.8435 46.4594 25.4004 46.97 26.31C47.4806 27.2196 47.5019 28.3697 47.4487 28.8311C47.3219 29.2603 47.0582 30.0249 46.6832 30.9073M3.39702 30.8084C3.92457 32.1845 4.59386 33.5924 5.32195 34.4171C6.68363 35.9594 9.50626 37.8939 10.7474 38.6684L19.311 43.414C19.7543 43.8095 20.9599 44.808 22.2365 45.6385C22.4995 45.8096 22.7882 45.9445 23.0875 46.0498M3.39702 30.8084C2.90394 33.8568 2.16245 41.7432 3.14115 48.9011M23.5131 48.654C23.6407 47.6653 23.2826 46.5059 23.0875 46.0498M23.0875 46.0498C24.2409 46.4556 25.5532 46.4222 26.1726 46.3306C26.463 46.1814 26.932 45.933 27.4637 45.6385M27.4637 45.6385C28.1654 45.2498 28.9763 44.7807 29.63 44.3532C30.7789 43.6019 32.91 42.2276 33.832 41.6344L40.0553 38.1246C41.3496 37.3502 44.2147 35.3563 45.3211 33.5767C45.8624 32.7061 46.3239 31.7526 46.6832 30.9073M27.4637 45.6385C27.1752 46.4295 26.63 48.2091 26.7577 49M46.9168 48.4562C47.4487 46.6272 48.258 45.3913 46.6832 30.9073" stroke="#0033D9" stroke-width="3"/>
<rect x="23.9922" y="23.9373" width="1.91485" height="3.36148" rx="0.957426" fill="#0033D9"/>
<path d="M28.1191 23.7771C28.5987 24.2228 29.5579 26.0057 28.1191 27.3428" stroke="#0033D9" stroke-width="0.5" stroke-linecap="round"/>
<path d="M21.4043 23.7771C20.9247 24.2228 19.9655 26.0057 21.4043 27.3428" stroke="#0033D9" stroke-width="0.5" stroke-linecap="round"/>
<path d="M30.0371 22.8857C30.6425 23.5543 31.8532 26.2286 30.0371 28.2344" stroke="#0033D9" stroke-width="0.5" stroke-linecap="round"/>
<path d="M19.4863 22.8857C18.881 23.5543 17.6702 26.2286 19.4863 28.2344" stroke="#0033D9" stroke-width="0.5" stroke-linecap="round"/>
</svg>
