<svg width="48" height="48" viewBox="0 0 48 48" fill="none" xmlns="http://www.w3.org/2000/svg">
<path fill-rule="evenodd" clip-rule="evenodd" d="M10.6042 1.61956C10.8402 1.46151 11.1941 1.25288 11.3908 1.16437C11.5874 1.07586 11.8299 1 11.9348 1C12.0331 1 12.2297 1.0569 12.374 1.12644C12.5182 1.19598 12.6755 1.3161 12.7279 1.39829C12.7803 1.47415 13.0884 2.2075 13.4161 3.02304C13.7373 3.83858 14.3403 5.36218 14.7533 6.40531C14.8209 6.57621 14.8935 6.75951 14.969 6.95007C15.3541 7.92263 15.8142 9.08462 16.0773 9.75597C16.3919 10.5589 16.936 11.9371 17.2899 12.8221C17.6439 13.7072 18.2076 15.136 18.5419 15.9958C18.8827 16.8619 19.1711 17.5636 19.1908 17.5636C19.2104 17.5636 19.4333 17.0326 19.6955 16.3814C19.8541 15.9733 20.0987 15.3557 20.3382 14.7508L20.3389 14.749L20.3391 14.7485L20.3392 14.7483C20.4852 14.3796 20.6292 14.0158 20.7508 13.7072C20.8405 13.4792 20.9575 13.1826 21.0901 12.8461L21.0978 12.8265L21.0979 12.8263C21.4387 11.9618 21.8806 10.8406 22.2321 9.94563C22.4731 9.34016 22.8183 8.46696 23.1862 7.53638L23.1867 7.53524L23.1867 7.53515C23.5793 6.54221 23.9976 5.48406 24.3427 4.61618C25.0047 2.94085 25.6012 1.49312 25.6667 1.40461C25.7257 1.30978 25.8896 1.18334 26.0272 1.12012C26.1583 1.05058 26.3484 1 26.4533 1C26.5516 1 26.8334 1.09483 27.0891 1.21495C27.3447 1.34139 27.7183 1.56898 27.9281 1.72703C28.1313 1.88508 28.4328 2.17589 28.5966 2.37187C28.7605 2.57418 29.0227 2.97879 29.18 3.27592C29.3439 3.57305 29.5471 4.04088 29.6388 4.31905C29.7371 4.59722 29.842 5.06505 29.8813 5.36218C29.9338 5.76679 29.9338 6.02599 29.8748 6.40531C29.8224 6.7467 29.5929 7.4358 29.18 8.52318C29.0687 8.81216 28.9567 9.10383 28.8532 9.37355L28.853 9.374L28.8518 9.37712L28.8518 9.37727C28.6388 9.932 28.4617 10.3933 28.4 10.5462C28.3412 10.692 28.1937 11.0763 28.0178 11.5349L28.0177 11.5351L28.0147 11.5428C27.9168 11.798 27.8102 12.0758 27.7052 12.348C27.4168 13.113 26.2108 16.2676 25.0244 19.3654C23.838 22.4632 22.8024 25.169 22.5664 25.7886L22.8745 26.4018C23.0449 26.7369 23.2546 27.2869 23.3464 27.6156C23.4316 27.9444 23.5561 28.6019 23.6151 29.0697C23.6872 29.6323 23.7397 30.7071 23.7659 32.218C23.8052 34.2221 23.8249 34.5003 23.9101 34.4687C23.9625 34.4434 24.3755 34.3043 24.8277 34.1526C25.28 34.0008 25.883 33.8365 26.1714 33.7796C26.4598 33.7164 26.9449 33.6595 27.2529 33.6342C27.5741 33.6152 28.0329 33.6342 28.3345 33.6847C28.6229 33.729 29.062 33.8302 29.3176 33.9187C29.5733 34.0008 29.9666 34.1715 30.2025 34.298C30.4385 34.4181 30.8055 34.6583 31.0219 34.8227C31.2382 34.9871 31.5659 35.2905 31.7494 35.4928C31.9329 35.7015 32.1689 35.9923 32.2803 36.1503C32.3918 36.3084 32.5819 36.6308 32.7064 36.8774C32.8375 37.1239 33.0145 37.5475 33.1062 37.8257C33.198 38.1038 33.3094 38.5717 33.3553 38.8688C33.4012 39.2102 33.4208 39.6843 33.3946 40.1648C33.3684 40.582 33.2963 41.1384 33.2242 41.3976C33.1587 41.6568 33.0013 42.0993 32.8834 42.3775C32.7654 42.6557 32.5163 43.0982 32.3393 43.3574C32.1624 43.6166 31.8215 44.0275 31.5855 44.2678C31.3496 44.5017 30.976 44.8178 30.7597 44.9695C30.5434 45.1149 30.1829 45.3299 29.96 45.4373C29.7306 45.5448 29.2914 45.7092 28.9768 45.7977C28.4918 45.9431 28.2689 45.9684 27.5807 45.9684C26.958 45.9684 26.6368 45.9431 26.237 45.842C25.9486 45.7724 25.4504 45.5891 25.1358 45.4373C24.8146 45.2856 24.3296 44.9822 24.0543 44.7735C23.7724 44.5586 23.3857 44.1919 23.1891 43.9517C22.9924 43.7114 22.704 43.3068 22.5467 43.0413C22.396 42.7821 22.1862 42.3396 22.0813 42.0614C21.9765 41.7832 21.8454 41.3154 21.7864 41.0183C21.7077 40.6137 21.6618 39.7918 21.616 37.7624C21.5832 36.2704 21.5242 34.848 21.4849 34.6014C21.4521 34.3549 21.3734 33.9629 21.321 33.7164C21.262 33.4698 21.1571 33.0905 21.0785 32.8629C21.0064 32.6353 20.8229 32.2244 20.6787 31.9462C20.5082 31.6238 20.2657 31.3013 20.0101 31.0548C19.7413 30.7829 19.5447 30.6502 19.3874 30.6186C19.2629 30.5933 19.0662 30.5933 18.9613 30.6186C18.8434 30.6439 18.6008 30.8209 18.3649 31.0485C18.0765 31.333 17.8864 31.6048 17.6635 32.041C17.48 32.4014 17.2768 32.9324 17.1654 33.3686C17.0605 33.7669 16.9425 34.3675 16.8966 34.6963C16.8573 35.025 16.7983 36.4791 16.7655 37.9205C16.7197 39.8171 16.6738 40.6769 16.6017 41.0183C16.5492 41.2775 16.4378 41.6758 16.3657 41.9033C16.2871 42.1309 16.1166 42.5103 15.9921 42.7568C15.8676 43.0034 15.6775 43.3258 15.5661 43.4838C15.4546 43.6419 15.2187 43.9327 15.0351 44.1413C14.8516 44.3436 14.4649 44.685 14.1765 44.8873C13.8881 45.096 13.4424 45.3615 13.1933 45.4816C12.9442 45.5954 12.4985 45.7534 12.2101 45.8293C11.8234 45.9305 11.476 45.9684 10.8992 45.9684C10.4403 45.9747 9.96185 45.9431 9.7521 45.8925C9.55546 45.8483 9.22773 45.7534 9.03109 45.6839C8.83445 45.6144 8.52639 45.4879 8.34286 45.3994C8.16588 45.3109 7.83815 45.1149 7.62185 44.9695C7.40555 44.8178 7.03193 44.5017 6.79597 44.2678C6.56 44.0275 6.21916 43.6166 6.04218 43.3574C5.86521 43.0982 5.62269 42.6683 5.51126 42.4091C5.39328 42.1499 5.23597 41.6821 5.15076 41.366C5.02622 40.8981 5 40.6263 5 39.8171C5 39.2102 5.03277 38.7044 5.08521 38.4895C5.13765 38.2998 5.23597 37.9584 5.30807 37.7308C5.38672 37.5032 5.53092 37.1492 5.64235 36.9406C5.74723 36.7319 5.96353 36.3716 6.12084 36.1314C6.27815 35.8974 6.60588 35.5118 6.85496 35.2779C7.09748 35.0377 7.47109 34.7279 7.6874 34.5888C7.9037 34.4497 8.23798 34.26 8.42807 34.1652C8.6116 34.0767 9.02454 33.9313 9.33916 33.8428C9.66034 33.7543 10.1519 33.6658 10.4403 33.6405C10.7353 33.6215 11.2531 33.6405 11.6202 33.6847C11.9807 33.729 12.6165 33.8428 13.0294 33.9439C13.4424 34.0388 13.9995 34.1905 14.7336 34.4434L14.7598 31.7755C14.7795 29.6956 14.8057 28.9622 14.8909 28.4691C14.9499 28.1214 15.0613 27.6093 15.14 27.3311C15.2187 27.053 15.4087 26.5978 15.8217 25.8139L15.5529 25.0868C15.4022 24.6885 14.5501 22.4569 13.6521 20.1241C13.2883 19.1721 12.9278 18.2306 12.6169 17.4187L12.6147 17.413C12.1648 16.2381 11.8192 15.3354 11.7185 15.0665C11.5481 14.6113 10.7484 12.5377 8.4805 6.65819V5.80472C8.4805 5.03344 8.50017 4.90067 8.66403 4.44549C8.76235 4.16732 8.99177 3.66788 9.16219 3.33914C9.33916 3.0104 9.64067 2.55521 9.83076 2.32762C10.0274 2.10003 10.3748 1.78393 10.6042 1.61956ZM18.2207 25.3587C18.2993 25.2828 18.4763 25.1753 18.6008 25.1184C18.745 25.0615 18.9679 25.0299 19.1973 25.0363C19.4988 25.0489 19.6168 25.0932 19.8134 25.2449C19.9511 25.346 20.1215 25.5167 20.2002 25.6116C20.2985 25.738 20.3444 25.9087 20.364 26.1805C20.3837 26.484 20.3575 26.6294 20.246 26.838C20.1739 26.9898 20.0101 27.1794 19.8987 27.2616C19.7807 27.3501 19.5513 27.4513 19.3874 27.4892C19.1776 27.5398 19.0203 27.5461 18.8303 27.4955C18.686 27.4639 18.4697 27.3691 18.3452 27.2869C18.2207 27.2047 18.0503 27.015 17.965 26.857C17.8667 26.6737 17.8143 26.465 17.8143 26.269C17.8143 26.1047 17.8667 25.8644 17.9388 25.738C18.0044 25.6052 18.1355 25.4345 18.2207 25.3587ZM9.22773 35.967C9.4637 35.8595 9.79798 35.7268 9.98151 35.6825C10.1585 35.6319 10.5255 35.5877 10.7877 35.5877C11.0434 35.5814 11.5612 35.6383 11.9282 35.7078C12.3018 35.7837 12.8524 35.9101 13.1605 35.9986C13.4686 36.0934 13.9471 36.2641 14.7402 36.6245L14.7336 38.2556C14.7336 39.147 14.7008 40.1016 14.6681 40.3734C14.6287 40.639 14.537 41.0436 14.4649 41.2712C14.3928 41.4987 14.2355 41.8528 14.1175 42.0614C13.9929 42.27 13.7242 42.6241 13.5145 42.8453C13.2982 43.0666 12.9639 43.3511 12.7672 43.4775C12.5706 43.604 12.197 43.781 11.9479 43.8632C11.5939 43.9833 11.3514 44.0149 10.8664 44.0212C10.3748 44.0212 10.1388 43.9896 9.7521 43.8632C9.45059 43.7683 9.08353 43.585 8.80168 43.389C8.5526 43.2183 8.20521 42.9022 8.02823 42.6936C7.85781 42.485 7.60874 42.1183 7.4842 41.8717C7.35966 41.6252 7.1958 41.189 7.1237 40.8918C7.00571 40.443 6.98605 40.2343 7.01882 39.6274C7.03193 39.2291 7.09748 38.7297 7.16302 38.5211C7.22202 38.3125 7.37933 37.9268 7.51042 37.6676C7.68739 37.3199 7.89059 37.0607 8.27731 36.6814C8.64437 36.321 8.93277 36.1061 9.22773 35.967ZM26.5319 35.7141C26.2239 35.7773 25.6929 35.9227 25.3521 36.0239C25.0113 36.1314 24.4934 36.34 24.205 36.4917L23.6807 36.7572C23.6479 38.9067 23.6741 39.8297 23.7069 40.1964C23.7462 40.5631 23.838 41.0436 23.9166 41.2712C23.9887 41.4987 24.1592 41.8654 24.2903 42.093C24.4148 42.3206 24.7294 42.7062 24.985 42.9528C25.2407 43.1994 25.6143 43.4839 25.8109 43.5976C26.0076 43.7051 26.4074 43.8505 26.6958 43.9264C26.9842 43.9959 27.3709 44.0528 27.5479 44.0528C27.7314 44.0528 28.0657 44.0086 28.3017 43.9517C28.5376 43.9011 28.9178 43.7683 29.1538 43.6545C29.4356 43.5218 29.7437 43.2942 30.078 42.9781C30.4844 42.5925 30.6286 42.3965 30.8776 41.9034C31.0415 41.5683 31.225 41.0752 31.2906 40.797C31.3758 40.4114 31.3955 40.1142 31.3627 39.5642C31.343 39.0774 31.284 38.6918 31.1857 38.3946C31.1071 38.1481 30.9366 37.7688 30.8055 37.5412C30.6745 37.3073 30.3598 36.9279 30.078 36.6498C29.7437 36.3273 29.4422 36.1061 29.1538 35.967C28.9178 35.8595 28.5639 35.7268 28.3672 35.6762C28.1706 35.6256 27.8035 35.5877 27.5479 35.5877C27.2923 35.5877 26.84 35.6446 26.5319 35.7141Z" fill="#0033D9"/>
<path d="M38.9857 13.4543V7.22717C38.9857 1.73335 38.9988 1 39.084 1C39.1365 1 39.3069 1.09483 39.4642 1.20863C39.615 1.32242 39.923 1.6322 40.1524 1.8914C40.3819 2.14428 40.6899 2.52992 40.8407 2.73855C40.9849 2.94718 41.2012 3.31385 41.3192 3.56041C41.4306 3.80065 41.5813 4.23054 41.6403 4.50871C41.7387 4.93228 41.7518 5.20413 41.719 6.15243C41.6993 6.77831 41.6207 7.67603 41.5486 8.14386C41.4765 8.61169 41.4109 9.30079 41.4109 9.67379C41.4109 10.2364 41.4371 10.4387 41.5813 10.8434C41.6731 11.1152 41.8566 11.5198 41.9812 11.7474C42.1123 11.975 42.4072 12.4302 42.6301 12.7589C42.8595 13.0877 43.0496 13.3785 43.0496 13.4038C43.0496 13.4354 42.1319 13.4543 38.9857 13.4543Z" fill="#0033D9"/>
<path d="M38.6908 14.4848C38.6187 14.5354 38.5138 14.7124 38.4613 14.8831C38.3761 15.155 38.363 16.9694 38.363 29.5754V43.958C38.6908 44.6218 38.9464 44.9695 39.1365 45.1655C39.3397 45.3741 39.6346 45.5891 39.8706 45.7029C40.0869 45.804 40.4671 45.9241 40.7227 45.9621C41.0701 46.0126 41.2929 46.0126 41.6403 45.9621C41.896 45.9178 42.263 45.8103 42.4597 45.7218C42.6563 45.6333 42.984 45.4057 43.1807 45.2224C43.4232 44.9948 43.6133 44.7419 43.7706 44.4258L44 43.958C44 16.9694 43.9869 15.155 43.9017 14.8831C43.8492 14.7124 43.7444 14.5354 43.6723 14.4848C43.5674 14.4216 43.0627 14.4026 41.1815 14.4026C39.3003 14.4026 38.7956 14.4216 38.6908 14.4848Z" fill="#0033D9"/>
</svg>
