<svg width="48" height="48" viewBox="0 0 48 48" fill="none" xmlns="http://www.w3.org/2000/svg">
<path d="M37.0995 44.4508C32.9718 47.246 27.3596 46.1659 24.5642 42.0382L8.03554 17.631C5.2402 13.5034 6.32033 7.89113 10.4481 5.0958C14.5757 2.30053 20.188 3.38066 22.9833 7.50832L39.5119 31.9153C42.3072 36.043 41.227 41.6552 37.0994 44.4506M23.0637 14.7636L14.7426 20.3987L24.316 34.5352L32.6371 28.9L23.0637 14.7636ZM12.2399 16.7036C11.7445 17.039 11.6149 17.7125 11.9504 18.2079C12.2858 18.7033 12.9593 18.833 13.4547 18.4975C13.9501 18.162 14.0797 17.4885 13.7443 16.9931C13.4088 16.4977 12.7352 16.368 12.2399 16.7036ZM16.4415 13.8581C15.9461 14.1937 15.8165 14.8671 16.1519 15.3625C16.4875 15.858 17.161 15.9876 17.6564 15.6521C18.1517 15.3166 18.2814 14.6431 17.9459 14.1477C17.6104 13.6523 16.9369 13.5227 16.4415 13.8581ZM20.6431 11.0128C20.1478 11.3483 20.0182 12.0218 20.3536 12.5171C20.6891 13.0126 21.3626 13.1423 21.858 12.8067C22.3534 12.4713 22.483 11.7977 22.1475 11.3023C21.812 10.8069 21.1385 10.6773 20.6431 11.0128ZM16.4955 9.5502C16.0001 9.8856 15.8704 10.5592 16.206 11.0546C16.5414 11.5499 17.215 11.6795 17.7104 11.3441C18.2057 11.0086 18.3354 10.335 17.9999 9.83973C17.6644 9.34431 16.9909 9.21469 16.4955 9.5502ZM12.4213 12.3093C11.9258 12.6448 11.7962 13.3184 12.1317 13.8137C12.4672 14.3091 13.1407 14.4387 13.6361 14.1032C14.1315 13.7678 14.2611 13.0942 13.9256 12.5988C13.5901 12.1035 12.9166 11.9739 12.4212 12.3093M12.3027 7.74665C11.8073 8.08215 11.6777 8.75571 12.0132 9.25105C12.3486 9.74651 13.0222 9.87615 13.5176 9.54058C14.0129 9.20515 14.1425 8.53158 13.8071 8.03619C13.4716 7.54086 12.798 7.41122 12.3027 7.74665ZM35.3088 32.669C35.8042 32.3335 35.9339 31.6599 35.5983 31.1646C35.2629 30.6692 34.5893 30.5396 34.094 30.8751C33.5986 31.2105 33.4689 31.8841 33.8044 32.3795C34.1398 32.8749 34.8134 33.0045 35.3088 32.669ZM31.1072 35.5144C31.6026 35.1788 31.7322 34.5053 31.3967 34.01C31.0612 33.5145 30.3877 33.3849 29.8923 33.7205C29.3969 34.0559 29.2673 34.7294 29.6028 35.2249C29.9383 35.7202 30.6118 35.8498 31.1072 35.5144ZM26.9055 38.3597C27.4009 38.0243 27.5305 37.3507 27.195 36.8553C26.8595 36.36 26.186 36.2304 25.6907 36.5658C25.1953 36.9013 25.0656 37.5748 25.4011 38.0702C25.7366 38.5657 26.4101 38.6953 26.9055 38.3597ZM31.0531 39.8223C31.5486 39.4869 31.6782 38.8134 31.3426 38.3179C31.0072 37.8226 30.3337 37.6929 29.8383 38.0284C29.3429 38.3639 29.2133 39.0374 29.5488 39.5328C29.8843 40.0282 30.5577 40.1578 31.0532 39.8224M35.1275 37.0632C35.623 36.7277 35.7526 36.0542 35.417 35.5588C35.0816 35.0635 34.408 34.9338 33.9127 35.2692C33.4173 35.6048 33.2877 36.2783 33.6231 36.7736C33.9587 37.2691 34.6322 37.3988 35.1275 37.0632ZM35.246 41.6257C35.7414 41.2903 35.871 40.6168 35.5355 40.1214C35.2 39.626 34.5265 39.4964 34.0311 39.8318C33.5357 40.1674 33.4061 40.8409 33.7416 41.3362C34.077 41.8317 34.7506 41.9613 35.246 41.6257ZM37.1548 26.613L41.0387 23.9828C45.1664 21.1875 46.2465 15.5753 43.4512 11.4475C40.6559 7.31983 35.0437 6.2397 30.9159 9.03502L27.032 11.6652L37.1548 26.613ZM10.3928 22.9335L6.50891 25.5637C2.38119 28.3589 1.30106 33.9712 4.09639 38.0989C6.89164 42.2267 12.5039 43.3068 16.6316 40.5115L20.5155 37.8813L10.3928 22.9335Z" fill="#0033D9"/>
</svg>
